M48
; DRILL file {KiCad 6.0.5} date 2022 July 05, Tuesday 14:32:48
; FORMAT={-:-/ absolute / inch / decimal}
; #@! TF.CreationDate,2022-07-05T14:32:48+02:00
; #@! TF.GenerationSoftware,Kicad,Pcbnew,6.0.5
; #@! TF.FileFunction,Plated,1,4,PTH
FMAT,2
INCH
; #@! TA.AperFunction,Plated,PTH,ViaDrill
T1C0.0157
; #@! TA.AperFunction,Plated,PTH,ComponentDrill
T2C0.0295
; #@! TA.AperFunction,Plated,PTH,ComponentDrill
T3C0.0374
; #@! TA.AperFunction,Plated,PTH,ComponentDrill
T4C0.0866
%
G90
G05
T1
X5.0157Y-3.8622
X5.0472Y-2.7559
X5.0787Y-3.8336
X5.1575Y-2.5591
X5.252Y-3.7717
X5.2872Y-3.7541
T2
X6.8012Y-4.3386
X6.8012Y-4.4173
T3
X3.1073Y-3.3228
X3.1073Y-3.4213
X3.1073Y-3.5197
X3.1073Y-3.6181
X3.1073Y-3.7165
X3.1073Y-3.815
X3.1073Y-3.9134
X3.1073Y-4.0118
X3.1073Y-4.1102
X3.1073Y-4.2087
X3.1073Y-4.3071
X3.1073Y-4.4055
X3.1073Y-4.5039
T4
X6.0709Y-2.1496
X6.2972Y-2.1496
T0
M30
