G04 #@! TF.GenerationSoftware,KiCad,Pcbnew,(7.0.0-0)*
G04 #@! TF.CreationDate,2023-03-08T11:07:37+01:00*
G04 #@! TF.ProjectId,Flux_BMS,466c7578-5f42-44d5-932e-6b696361645f,rev?*
G04 #@! TF.SameCoordinates,Original*
G04 #@! TF.FileFunction,Legend,Bot*
G04 #@! TF.FilePolarity,Positive*
%FSLAX46Y46*%
G04 Gerber Fmt 4.6, Leading zero omitted, Abs format (unit mm)*
G04 Created by KiCad (PCBNEW (7.0.0-0)) date 2023-03-08 11:07:37*
%MOMM*%
%LPD*%
G01*
G04 APERTURE LIST*
G04 Aperture macros list*
%AMRoundRect*
0 Rectangle with rounded corners*
0 $1 Rounding radius*
0 $2 $3 $4 $5 $6 $7 $8 $9 X,Y pos of 4 corners*
0 Add a 4 corners polygon primitive as box body*
4,1,4,$2,$3,$4,$5,$6,$7,$8,$9,$2,$3,0*
0 Add four circle primitives for the rounded corners*
1,1,$1+$1,$2,$3*
1,1,$1+$1,$4,$5*
1,1,$1+$1,$6,$7*
1,1,$1+$1,$8,$9*
0 Add four rect primitives between the rounded corners*
20,1,$1+$1,$2,$3,$4,$5,0*
20,1,$1+$1,$4,$5,$6,$7,0*
20,1,$1+$1,$6,$7,$8,$9,0*
20,1,$1+$1,$8,$9,$2,$3,0*%
G04 Aperture macros list end*
%ADD10C,0.150000*%
%ADD11C,0.120000*%
%ADD12C,1.000000*%
%ADD13C,0.650000*%
%ADD14O,1.000000X2.100000*%
%ADD15O,1.000000X1.600000*%
%ADD16RoundRect,0.250000X0.625000X-0.350000X0.625000X0.350000X-0.625000X0.350000X-0.625000X-0.350000X0*%
%ADD17O,1.750000X1.200000*%
%ADD18C,3.200000*%
%ADD19C,0.600000*%
%ADD20RoundRect,0.250000X-0.625000X0.350000X-0.625000X-0.350000X0.625000X-0.350000X0.625000X0.350000X0*%
%ADD21RoundRect,0.250000X-0.350000X-0.625000X0.350000X-0.625000X0.350000X0.625000X-0.350000X0.625000X0*%
%ADD22O,1.200000X1.750000*%
%ADD23R,1.700000X1.700000*%
%ADD24O,1.700000X1.700000*%
%ADD25RoundRect,0.250000X0.262500X0.450000X-0.262500X0.450000X-0.262500X-0.450000X0.262500X-0.450000X0*%
%ADD26RoundRect,0.250000X-0.250000X-0.475000X0.250000X-0.475000X0.250000X0.475000X-0.250000X0.475000X0*%
G04 APERTURE END LIST*
D10*
X157517380Y-103614286D02*
X157517380Y-104185714D01*
X158517380Y-103900000D02*
X157517380Y-103900000D01*
X157993571Y-104519048D02*
X157993571Y-104852381D01*
X158517380Y-104995238D02*
X158517380Y-104519048D01*
X158517380Y-104519048D02*
X157517380Y-104519048D01*
X157517380Y-104519048D02*
X157517380Y-104995238D01*
X158517380Y-105423810D02*
X157517380Y-105423810D01*
X157517380Y-105423810D02*
X158231666Y-105757143D01*
X158231666Y-105757143D02*
X157517380Y-106090476D01*
X157517380Y-106090476D02*
X158517380Y-106090476D01*
X158517380Y-106566667D02*
X157517380Y-106566667D01*
X157517380Y-106566667D02*
X157517380Y-106947619D01*
X157517380Y-106947619D02*
X157565000Y-107042857D01*
X157565000Y-107042857D02*
X157612619Y-107090476D01*
X157612619Y-107090476D02*
X157707857Y-107138095D01*
X157707857Y-107138095D02*
X157850714Y-107138095D01*
X157850714Y-107138095D02*
X157945952Y-107090476D01*
X157945952Y-107090476D02*
X157993571Y-107042857D01*
X157993571Y-107042857D02*
X158041190Y-106947619D01*
X158041190Y-106947619D02*
X158041190Y-106566667D01*
X157612619Y-107519048D02*
X157565000Y-107566667D01*
X157565000Y-107566667D02*
X157517380Y-107661905D01*
X157517380Y-107661905D02*
X157517380Y-107900000D01*
X157517380Y-107900000D02*
X157565000Y-107995238D01*
X157565000Y-107995238D02*
X157612619Y-108042857D01*
X157612619Y-108042857D02*
X157707857Y-108090476D01*
X157707857Y-108090476D02*
X157803095Y-108090476D01*
X157803095Y-108090476D02*
X157945952Y-108042857D01*
X157945952Y-108042857D02*
X158517380Y-107471429D01*
X158517380Y-107471429D02*
X158517380Y-108090476D01*
X157517380Y-110414286D02*
X157517380Y-110985714D01*
X158517380Y-110700000D02*
X157517380Y-110700000D01*
X157993571Y-111319048D02*
X157993571Y-111652381D01*
X158517380Y-111795238D02*
X158517380Y-111319048D01*
X158517380Y-111319048D02*
X157517380Y-111319048D01*
X157517380Y-111319048D02*
X157517380Y-111795238D01*
X158517380Y-112223810D02*
X157517380Y-112223810D01*
X157517380Y-112223810D02*
X158231666Y-112557143D01*
X158231666Y-112557143D02*
X157517380Y-112890476D01*
X157517380Y-112890476D02*
X158517380Y-112890476D01*
X158517380Y-113366667D02*
X157517380Y-113366667D01*
X157517380Y-113366667D02*
X157517380Y-113747619D01*
X157517380Y-113747619D02*
X157565000Y-113842857D01*
X157565000Y-113842857D02*
X157612619Y-113890476D01*
X157612619Y-113890476D02*
X157707857Y-113938095D01*
X157707857Y-113938095D02*
X157850714Y-113938095D01*
X157850714Y-113938095D02*
X157945952Y-113890476D01*
X157945952Y-113890476D02*
X157993571Y-113842857D01*
X157993571Y-113842857D02*
X158041190Y-113747619D01*
X158041190Y-113747619D02*
X158041190Y-113366667D01*
X158517380Y-114890476D02*
X158517380Y-114319048D01*
X158517380Y-114604762D02*
X157517380Y-114604762D01*
X157517380Y-114604762D02*
X157660238Y-114509524D01*
X157660238Y-114509524D02*
X157755476Y-114414286D01*
X157755476Y-114414286D02*
X157803095Y-114319048D01*
X108492857Y-102267380D02*
X108826190Y-101791190D01*
X109064285Y-102267380D02*
X109064285Y-101267380D01*
X109064285Y-101267380D02*
X108683333Y-101267380D01*
X108683333Y-101267380D02*
X108588095Y-101315000D01*
X108588095Y-101315000D02*
X108540476Y-101362619D01*
X108540476Y-101362619D02*
X108492857Y-101457857D01*
X108492857Y-101457857D02*
X108492857Y-101600714D01*
X108492857Y-101600714D02*
X108540476Y-101695952D01*
X108540476Y-101695952D02*
X108588095Y-101743571D01*
X108588095Y-101743571D02*
X108683333Y-101791190D01*
X108683333Y-101791190D02*
X109064285Y-101791190D01*
X107921428Y-101695952D02*
X108016666Y-101648333D01*
X108016666Y-101648333D02*
X108064285Y-101600714D01*
X108064285Y-101600714D02*
X108111904Y-101505476D01*
X108111904Y-101505476D02*
X108111904Y-101457857D01*
X108111904Y-101457857D02*
X108064285Y-101362619D01*
X108064285Y-101362619D02*
X108016666Y-101315000D01*
X108016666Y-101315000D02*
X107921428Y-101267380D01*
X107921428Y-101267380D02*
X107730952Y-101267380D01*
X107730952Y-101267380D02*
X107635714Y-101315000D01*
X107635714Y-101315000D02*
X107588095Y-101362619D01*
X107588095Y-101362619D02*
X107540476Y-101457857D01*
X107540476Y-101457857D02*
X107540476Y-101505476D01*
X107540476Y-101505476D02*
X107588095Y-101600714D01*
X107588095Y-101600714D02*
X107635714Y-101648333D01*
X107635714Y-101648333D02*
X107730952Y-101695952D01*
X107730952Y-101695952D02*
X107921428Y-101695952D01*
X107921428Y-101695952D02*
X108016666Y-101743571D01*
X108016666Y-101743571D02*
X108064285Y-101791190D01*
X108064285Y-101791190D02*
X108111904Y-101886428D01*
X108111904Y-101886428D02*
X108111904Y-102076904D01*
X108111904Y-102076904D02*
X108064285Y-102172142D01*
X108064285Y-102172142D02*
X108016666Y-102219761D01*
X108016666Y-102219761D02*
X107921428Y-102267380D01*
X107921428Y-102267380D02*
X107730952Y-102267380D01*
X107730952Y-102267380D02*
X107635714Y-102219761D01*
X107635714Y-102219761D02*
X107588095Y-102172142D01*
X107588095Y-102172142D02*
X107540476Y-102076904D01*
X107540476Y-102076904D02*
X107540476Y-101886428D01*
X107540476Y-101886428D02*
X107588095Y-101791190D01*
X107588095Y-101791190D02*
X107635714Y-101743571D01*
X107635714Y-101743571D02*
X107730952Y-101695952D01*
X107064285Y-102267380D02*
X106873809Y-102267380D01*
X106873809Y-102267380D02*
X106778571Y-102219761D01*
X106778571Y-102219761D02*
X106730952Y-102172142D01*
X106730952Y-102172142D02*
X106635714Y-102029285D01*
X106635714Y-102029285D02*
X106588095Y-101838809D01*
X106588095Y-101838809D02*
X106588095Y-101457857D01*
X106588095Y-101457857D02*
X106635714Y-101362619D01*
X106635714Y-101362619D02*
X106683333Y-101315000D01*
X106683333Y-101315000D02*
X106778571Y-101267380D01*
X106778571Y-101267380D02*
X106969047Y-101267380D01*
X106969047Y-101267380D02*
X107064285Y-101315000D01*
X107064285Y-101315000D02*
X107111904Y-101362619D01*
X107111904Y-101362619D02*
X107159523Y-101457857D01*
X107159523Y-101457857D02*
X107159523Y-101695952D01*
X107159523Y-101695952D02*
X107111904Y-101791190D01*
X107111904Y-101791190D02*
X107064285Y-101838809D01*
X107064285Y-101838809D02*
X106969047Y-101886428D01*
X106969047Y-101886428D02*
X106778571Y-101886428D01*
X106778571Y-101886428D02*
X106683333Y-101838809D01*
X106683333Y-101838809D02*
X106635714Y-101791190D01*
X106635714Y-101791190D02*
X106588095Y-101695952D01*
X108492857Y-99867380D02*
X108826190Y-99391190D01*
X109064285Y-99867380D02*
X109064285Y-98867380D01*
X109064285Y-98867380D02*
X108683333Y-98867380D01*
X108683333Y-98867380D02*
X108588095Y-98915000D01*
X108588095Y-98915000D02*
X108540476Y-98962619D01*
X108540476Y-98962619D02*
X108492857Y-99057857D01*
X108492857Y-99057857D02*
X108492857Y-99200714D01*
X108492857Y-99200714D02*
X108540476Y-99295952D01*
X108540476Y-99295952D02*
X108588095Y-99343571D01*
X108588095Y-99343571D02*
X108683333Y-99391190D01*
X108683333Y-99391190D02*
X109064285Y-99391190D01*
X108016666Y-99867380D02*
X107826190Y-99867380D01*
X107826190Y-99867380D02*
X107730952Y-99819761D01*
X107730952Y-99819761D02*
X107683333Y-99772142D01*
X107683333Y-99772142D02*
X107588095Y-99629285D01*
X107588095Y-99629285D02*
X107540476Y-99438809D01*
X107540476Y-99438809D02*
X107540476Y-99057857D01*
X107540476Y-99057857D02*
X107588095Y-98962619D01*
X107588095Y-98962619D02*
X107635714Y-98915000D01*
X107635714Y-98915000D02*
X107730952Y-98867380D01*
X107730952Y-98867380D02*
X107921428Y-98867380D01*
X107921428Y-98867380D02*
X108016666Y-98915000D01*
X108016666Y-98915000D02*
X108064285Y-98962619D01*
X108064285Y-98962619D02*
X108111904Y-99057857D01*
X108111904Y-99057857D02*
X108111904Y-99295952D01*
X108111904Y-99295952D02*
X108064285Y-99391190D01*
X108064285Y-99391190D02*
X108016666Y-99438809D01*
X108016666Y-99438809D02*
X107921428Y-99486428D01*
X107921428Y-99486428D02*
X107730952Y-99486428D01*
X107730952Y-99486428D02*
X107635714Y-99438809D01*
X107635714Y-99438809D02*
X107588095Y-99391190D01*
X107588095Y-99391190D02*
X107540476Y-99295952D01*
X106921428Y-98867380D02*
X106826190Y-98867380D01*
X106826190Y-98867380D02*
X106730952Y-98915000D01*
X106730952Y-98915000D02*
X106683333Y-98962619D01*
X106683333Y-98962619D02*
X106635714Y-99057857D01*
X106635714Y-99057857D02*
X106588095Y-99248333D01*
X106588095Y-99248333D02*
X106588095Y-99486428D01*
X106588095Y-99486428D02*
X106635714Y-99676904D01*
X106635714Y-99676904D02*
X106683333Y-99772142D01*
X106683333Y-99772142D02*
X106730952Y-99819761D01*
X106730952Y-99819761D02*
X106826190Y-99867380D01*
X106826190Y-99867380D02*
X106921428Y-99867380D01*
X106921428Y-99867380D02*
X107016666Y-99819761D01*
X107016666Y-99819761D02*
X107064285Y-99772142D01*
X107064285Y-99772142D02*
X107111904Y-99676904D01*
X107111904Y-99676904D02*
X107159523Y-99486428D01*
X107159523Y-99486428D02*
X107159523Y-99248333D01*
X107159523Y-99248333D02*
X107111904Y-99057857D01*
X107111904Y-99057857D02*
X107064285Y-98962619D01*
X107064285Y-98962619D02*
X107016666Y-98915000D01*
X107016666Y-98915000D02*
X106921428Y-98867380D01*
X108392857Y-104622142D02*
X108440476Y-104669761D01*
X108440476Y-104669761D02*
X108583333Y-104717380D01*
X108583333Y-104717380D02*
X108678571Y-104717380D01*
X108678571Y-104717380D02*
X108821428Y-104669761D01*
X108821428Y-104669761D02*
X108916666Y-104574523D01*
X108916666Y-104574523D02*
X108964285Y-104479285D01*
X108964285Y-104479285D02*
X109011904Y-104288809D01*
X109011904Y-104288809D02*
X109011904Y-104145952D01*
X109011904Y-104145952D02*
X108964285Y-103955476D01*
X108964285Y-103955476D02*
X108916666Y-103860238D01*
X108916666Y-103860238D02*
X108821428Y-103765000D01*
X108821428Y-103765000D02*
X108678571Y-103717380D01*
X108678571Y-103717380D02*
X108583333Y-103717380D01*
X108583333Y-103717380D02*
X108440476Y-103765000D01*
X108440476Y-103765000D02*
X108392857Y-103812619D01*
X107488095Y-103717380D02*
X107964285Y-103717380D01*
X107964285Y-103717380D02*
X108011904Y-104193571D01*
X108011904Y-104193571D02*
X107964285Y-104145952D01*
X107964285Y-104145952D02*
X107869047Y-104098333D01*
X107869047Y-104098333D02*
X107630952Y-104098333D01*
X107630952Y-104098333D02*
X107535714Y-104145952D01*
X107535714Y-104145952D02*
X107488095Y-104193571D01*
X107488095Y-104193571D02*
X107440476Y-104288809D01*
X107440476Y-104288809D02*
X107440476Y-104526904D01*
X107440476Y-104526904D02*
X107488095Y-104622142D01*
X107488095Y-104622142D02*
X107535714Y-104669761D01*
X107535714Y-104669761D02*
X107630952Y-104717380D01*
X107630952Y-104717380D02*
X107869047Y-104717380D01*
X107869047Y-104717380D02*
X107964285Y-104669761D01*
X107964285Y-104669761D02*
X108011904Y-104622142D01*
X107107142Y-103717380D02*
X106440476Y-103717380D01*
X106440476Y-103717380D02*
X106869047Y-104717380D01*
X109492857Y-122267380D02*
X109826190Y-121791190D01*
X110064285Y-122267380D02*
X110064285Y-121267380D01*
X110064285Y-121267380D02*
X109683333Y-121267380D01*
X109683333Y-121267380D02*
X109588095Y-121315000D01*
X109588095Y-121315000D02*
X109540476Y-121362619D01*
X109540476Y-121362619D02*
X109492857Y-121457857D01*
X109492857Y-121457857D02*
X109492857Y-121600714D01*
X109492857Y-121600714D02*
X109540476Y-121695952D01*
X109540476Y-121695952D02*
X109588095Y-121743571D01*
X109588095Y-121743571D02*
X109683333Y-121791190D01*
X109683333Y-121791190D02*
X110064285Y-121791190D01*
X108921428Y-121695952D02*
X109016666Y-121648333D01*
X109016666Y-121648333D02*
X109064285Y-121600714D01*
X109064285Y-121600714D02*
X109111904Y-121505476D01*
X109111904Y-121505476D02*
X109111904Y-121457857D01*
X109111904Y-121457857D02*
X109064285Y-121362619D01*
X109064285Y-121362619D02*
X109016666Y-121315000D01*
X109016666Y-121315000D02*
X108921428Y-121267380D01*
X108921428Y-121267380D02*
X108730952Y-121267380D01*
X108730952Y-121267380D02*
X108635714Y-121315000D01*
X108635714Y-121315000D02*
X108588095Y-121362619D01*
X108588095Y-121362619D02*
X108540476Y-121457857D01*
X108540476Y-121457857D02*
X108540476Y-121505476D01*
X108540476Y-121505476D02*
X108588095Y-121600714D01*
X108588095Y-121600714D02*
X108635714Y-121648333D01*
X108635714Y-121648333D02*
X108730952Y-121695952D01*
X108730952Y-121695952D02*
X108921428Y-121695952D01*
X108921428Y-121695952D02*
X109016666Y-121743571D01*
X109016666Y-121743571D02*
X109064285Y-121791190D01*
X109064285Y-121791190D02*
X109111904Y-121886428D01*
X109111904Y-121886428D02*
X109111904Y-122076904D01*
X109111904Y-122076904D02*
X109064285Y-122172142D01*
X109064285Y-122172142D02*
X109016666Y-122219761D01*
X109016666Y-122219761D02*
X108921428Y-122267380D01*
X108921428Y-122267380D02*
X108730952Y-122267380D01*
X108730952Y-122267380D02*
X108635714Y-122219761D01*
X108635714Y-122219761D02*
X108588095Y-122172142D01*
X108588095Y-122172142D02*
X108540476Y-122076904D01*
X108540476Y-122076904D02*
X108540476Y-121886428D01*
X108540476Y-121886428D02*
X108588095Y-121791190D01*
X108588095Y-121791190D02*
X108635714Y-121743571D01*
X108635714Y-121743571D02*
X108730952Y-121695952D01*
X107969047Y-121695952D02*
X108064285Y-121648333D01*
X108064285Y-121648333D02*
X108111904Y-121600714D01*
X108111904Y-121600714D02*
X108159523Y-121505476D01*
X108159523Y-121505476D02*
X108159523Y-121457857D01*
X108159523Y-121457857D02*
X108111904Y-121362619D01*
X108111904Y-121362619D02*
X108064285Y-121315000D01*
X108064285Y-121315000D02*
X107969047Y-121267380D01*
X107969047Y-121267380D02*
X107778571Y-121267380D01*
X107778571Y-121267380D02*
X107683333Y-121315000D01*
X107683333Y-121315000D02*
X107635714Y-121362619D01*
X107635714Y-121362619D02*
X107588095Y-121457857D01*
X107588095Y-121457857D02*
X107588095Y-121505476D01*
X107588095Y-121505476D02*
X107635714Y-121600714D01*
X107635714Y-121600714D02*
X107683333Y-121648333D01*
X107683333Y-121648333D02*
X107778571Y-121695952D01*
X107778571Y-121695952D02*
X107969047Y-121695952D01*
X107969047Y-121695952D02*
X108064285Y-121743571D01*
X108064285Y-121743571D02*
X108111904Y-121791190D01*
X108111904Y-121791190D02*
X108159523Y-121886428D01*
X108159523Y-121886428D02*
X108159523Y-122076904D01*
X108159523Y-122076904D02*
X108111904Y-122172142D01*
X108111904Y-122172142D02*
X108064285Y-122219761D01*
X108064285Y-122219761D02*
X107969047Y-122267380D01*
X107969047Y-122267380D02*
X107778571Y-122267380D01*
X107778571Y-122267380D02*
X107683333Y-122219761D01*
X107683333Y-122219761D02*
X107635714Y-122172142D01*
X107635714Y-122172142D02*
X107588095Y-122076904D01*
X107588095Y-122076904D02*
X107588095Y-121886428D01*
X107588095Y-121886428D02*
X107635714Y-121791190D01*
X107635714Y-121791190D02*
X107683333Y-121743571D01*
X107683333Y-121743571D02*
X107778571Y-121695952D01*
X109492857Y-119717380D02*
X109826190Y-119241190D01*
X110064285Y-119717380D02*
X110064285Y-118717380D01*
X110064285Y-118717380D02*
X109683333Y-118717380D01*
X109683333Y-118717380D02*
X109588095Y-118765000D01*
X109588095Y-118765000D02*
X109540476Y-118812619D01*
X109540476Y-118812619D02*
X109492857Y-118907857D01*
X109492857Y-118907857D02*
X109492857Y-119050714D01*
X109492857Y-119050714D02*
X109540476Y-119145952D01*
X109540476Y-119145952D02*
X109588095Y-119193571D01*
X109588095Y-119193571D02*
X109683333Y-119241190D01*
X109683333Y-119241190D02*
X110064285Y-119241190D01*
X109016666Y-119717380D02*
X108826190Y-119717380D01*
X108826190Y-119717380D02*
X108730952Y-119669761D01*
X108730952Y-119669761D02*
X108683333Y-119622142D01*
X108683333Y-119622142D02*
X108588095Y-119479285D01*
X108588095Y-119479285D02*
X108540476Y-119288809D01*
X108540476Y-119288809D02*
X108540476Y-118907857D01*
X108540476Y-118907857D02*
X108588095Y-118812619D01*
X108588095Y-118812619D02*
X108635714Y-118765000D01*
X108635714Y-118765000D02*
X108730952Y-118717380D01*
X108730952Y-118717380D02*
X108921428Y-118717380D01*
X108921428Y-118717380D02*
X109016666Y-118765000D01*
X109016666Y-118765000D02*
X109064285Y-118812619D01*
X109064285Y-118812619D02*
X109111904Y-118907857D01*
X109111904Y-118907857D02*
X109111904Y-119145952D01*
X109111904Y-119145952D02*
X109064285Y-119241190D01*
X109064285Y-119241190D02*
X109016666Y-119288809D01*
X109016666Y-119288809D02*
X108921428Y-119336428D01*
X108921428Y-119336428D02*
X108730952Y-119336428D01*
X108730952Y-119336428D02*
X108635714Y-119288809D01*
X108635714Y-119288809D02*
X108588095Y-119241190D01*
X108588095Y-119241190D02*
X108540476Y-119145952D01*
X107588095Y-119717380D02*
X108159523Y-119717380D01*
X107873809Y-119717380D02*
X107873809Y-118717380D01*
X107873809Y-118717380D02*
X107969047Y-118860238D01*
X107969047Y-118860238D02*
X108064285Y-118955476D01*
X108064285Y-118955476D02*
X108159523Y-119003095D01*
X109492857Y-124972142D02*
X109540476Y-125019761D01*
X109540476Y-125019761D02*
X109683333Y-125067380D01*
X109683333Y-125067380D02*
X109778571Y-125067380D01*
X109778571Y-125067380D02*
X109921428Y-125019761D01*
X109921428Y-125019761D02*
X110016666Y-124924523D01*
X110016666Y-124924523D02*
X110064285Y-124829285D01*
X110064285Y-124829285D02*
X110111904Y-124638809D01*
X110111904Y-124638809D02*
X110111904Y-124495952D01*
X110111904Y-124495952D02*
X110064285Y-124305476D01*
X110064285Y-124305476D02*
X110016666Y-124210238D01*
X110016666Y-124210238D02*
X109921428Y-124115000D01*
X109921428Y-124115000D02*
X109778571Y-124067380D01*
X109778571Y-124067380D02*
X109683333Y-124067380D01*
X109683333Y-124067380D02*
X109540476Y-124115000D01*
X109540476Y-124115000D02*
X109492857Y-124162619D01*
X108588095Y-124067380D02*
X109064285Y-124067380D01*
X109064285Y-124067380D02*
X109111904Y-124543571D01*
X109111904Y-124543571D02*
X109064285Y-124495952D01*
X109064285Y-124495952D02*
X108969047Y-124448333D01*
X108969047Y-124448333D02*
X108730952Y-124448333D01*
X108730952Y-124448333D02*
X108635714Y-124495952D01*
X108635714Y-124495952D02*
X108588095Y-124543571D01*
X108588095Y-124543571D02*
X108540476Y-124638809D01*
X108540476Y-124638809D02*
X108540476Y-124876904D01*
X108540476Y-124876904D02*
X108588095Y-124972142D01*
X108588095Y-124972142D02*
X108635714Y-125019761D01*
X108635714Y-125019761D02*
X108730952Y-125067380D01*
X108730952Y-125067380D02*
X108969047Y-125067380D01*
X108969047Y-125067380D02*
X109064285Y-125019761D01*
X109064285Y-125019761D02*
X109111904Y-124972142D01*
X107683333Y-124067380D02*
X107873809Y-124067380D01*
X107873809Y-124067380D02*
X107969047Y-124115000D01*
X107969047Y-124115000D02*
X108016666Y-124162619D01*
X108016666Y-124162619D02*
X108111904Y-124305476D01*
X108111904Y-124305476D02*
X108159523Y-124495952D01*
X108159523Y-124495952D02*
X108159523Y-124876904D01*
X108159523Y-124876904D02*
X108111904Y-124972142D01*
X108111904Y-124972142D02*
X108064285Y-125019761D01*
X108064285Y-125019761D02*
X107969047Y-125067380D01*
X107969047Y-125067380D02*
X107778571Y-125067380D01*
X107778571Y-125067380D02*
X107683333Y-125019761D01*
X107683333Y-125019761D02*
X107635714Y-124972142D01*
X107635714Y-124972142D02*
X107588095Y-124876904D01*
X107588095Y-124876904D02*
X107588095Y-124638809D01*
X107588095Y-124638809D02*
X107635714Y-124543571D01*
X107635714Y-124543571D02*
X107683333Y-124495952D01*
X107683333Y-124495952D02*
X107778571Y-124448333D01*
X107778571Y-124448333D02*
X107969047Y-124448333D01*
X107969047Y-124448333D02*
X108064285Y-124495952D01*
X108064285Y-124495952D02*
X108111904Y-124543571D01*
X108111904Y-124543571D02*
X108159523Y-124638809D01*
D11*
X111327064Y-102585000D02*
X110872936Y-102585000D01*
X111327064Y-101115000D02*
X110872936Y-101115000D01*
X111327064Y-100135000D02*
X110872936Y-100135000D01*
X111327064Y-98665000D02*
X110872936Y-98665000D01*
X110838748Y-103415000D02*
X111361252Y-103415000D01*
X110838748Y-104885000D02*
X111361252Y-104885000D01*
X112477064Y-122635000D02*
X112022936Y-122635000D01*
X112477064Y-121165000D02*
X112022936Y-121165000D01*
X112477064Y-120135000D02*
X112022936Y-120135000D01*
X112477064Y-118665000D02*
X112022936Y-118665000D01*
X112088748Y-123915000D02*
X112611252Y-123915000D01*
X112088748Y-125385000D02*
X112611252Y-125385000D01*
%LPC*%
D12*
X86650000Y-116333330D03*
X86650000Y-124359996D03*
X86650000Y-100279998D03*
X86650000Y-92253332D03*
X86650000Y-120346663D03*
D13*
X120660000Y-131900000D03*
X126440000Y-131900000D03*
D14*
X119229999Y-131369999D03*
D15*
X119229999Y-135549999D03*
D14*
X127869999Y-131369999D03*
D15*
X127869999Y-135549999D03*
D16*
X155950000Y-113700000D03*
D17*
X155949999Y-111699999D03*
D16*
X155950000Y-106800000D03*
D17*
X155949999Y-104799999D03*
D18*
X79350000Y-77050000D03*
D16*
X155950000Y-126600000D03*
D17*
X155949999Y-124599999D03*
X155949999Y-122599999D03*
X155949999Y-120599999D03*
X155949999Y-118599999D03*
D12*
X86650000Y-80213333D03*
D19*
X123050000Y-74300000D03*
X123050000Y-75300000D03*
X123050000Y-76300000D03*
X123050000Y-77300000D03*
X124050000Y-74300000D03*
X124050000Y-75300000D03*
X124050000Y-76300000D03*
X124050000Y-77300000D03*
X125050000Y-74300000D03*
X125050000Y-75300000D03*
X125050000Y-76300000D03*
X125050000Y-77300000D03*
X126050000Y-74300000D03*
X126050000Y-75300000D03*
X126050000Y-76300000D03*
X126050000Y-77300000D03*
D20*
X82450000Y-110783332D03*
D17*
X82449999Y-112783331D03*
X82449999Y-114783331D03*
X82449999Y-116783331D03*
X82449999Y-118783331D03*
X82449999Y-120783331D03*
X82449999Y-122783331D03*
X82449999Y-124783331D03*
D12*
X86650000Y-88239999D03*
X86650000Y-76000000D03*
D18*
X155600000Y-77050000D03*
X79350000Y-135150000D03*
D12*
X86650000Y-108306664D03*
X86650000Y-112319997D03*
D21*
X143650000Y-135450000D03*
D22*
X145649999Y-135449999D03*
X147649999Y-135449999D03*
X149649999Y-135449999D03*
D20*
X82450000Y-87400000D03*
D17*
X82449999Y-89399999D03*
X82449999Y-91399999D03*
X82449999Y-93399999D03*
X82449999Y-95399999D03*
X82449999Y-97399999D03*
X82449999Y-99399999D03*
X82449999Y-101399999D03*
D12*
X86650000Y-136400000D03*
X86650000Y-128373329D03*
D23*
X127099999Y-117399999D03*
D24*
X129639999Y-117399999D03*
D19*
X130050000Y-74300000D03*
X130050000Y-75300000D03*
X130050000Y-76300000D03*
X130050000Y-77300000D03*
X131050000Y-74300000D03*
X131050000Y-75300000D03*
X131050000Y-76300000D03*
X131050000Y-77300000D03*
X132050000Y-74300000D03*
X132050000Y-75300000D03*
X132050000Y-76300000D03*
X132050000Y-77300000D03*
X133050000Y-74300000D03*
X133050000Y-75300000D03*
X133050000Y-76300000D03*
X133050000Y-77300000D03*
D12*
X86650000Y-104293331D03*
X86650000Y-132386662D03*
X86650000Y-84226666D03*
D19*
X147650000Y-77350000D03*
X147650000Y-76350000D03*
X147650000Y-75350000D03*
X147650000Y-74350000D03*
X146650000Y-77350000D03*
X146650000Y-76350000D03*
X146650000Y-75350000D03*
X146650000Y-74350000D03*
X145650000Y-77350000D03*
X145650000Y-76350000D03*
X145650000Y-75350000D03*
X145650000Y-74350000D03*
X144650000Y-77350000D03*
X144650000Y-76350000D03*
X144650000Y-75350000D03*
X144650000Y-74350000D03*
X141600000Y-77400000D03*
X141600000Y-76400000D03*
X141600000Y-75400000D03*
X141600000Y-74400000D03*
X140600000Y-77400000D03*
X140600000Y-76400000D03*
X140600000Y-75400000D03*
X140600000Y-74400000D03*
X139600000Y-77400000D03*
X139600000Y-76400000D03*
X139600000Y-75400000D03*
X139600000Y-74400000D03*
X138600000Y-77400000D03*
X138600000Y-76400000D03*
X138600000Y-75400000D03*
X138600000Y-74400000D03*
D18*
X155600000Y-135050000D03*
D12*
X86650000Y-96266665D03*
D25*
X112012500Y-101850000D03*
X110187500Y-101850000D03*
X112012500Y-99400000D03*
X110187500Y-99400000D03*
D26*
X110150000Y-104150000D03*
X112050000Y-104150000D03*
D25*
X113162500Y-121900000D03*
X111337500Y-121900000D03*
X113162500Y-119400000D03*
X111337500Y-119400000D03*
D26*
X111400000Y-124650000D03*
X113300000Y-124650000D03*
M02*
