%TF.GenerationSoftware,KiCad,Pcbnew,(7.0.0-0)*%
%TF.CreationDate,2023-03-08T11:07:40+01:00*%
%TF.ProjectId,Flux_BMS,466c7578-5f42-44d5-932e-6b696361645f,rev?*%
%TF.SameCoordinates,Original*%
%TF.FileFunction,Drillmap*%
%TF.FilePolarity,Positive*%
%FSLAX45Y45*%
G04 Gerber Fmt 4.5, Leading zero omitted, Abs format (unit mm)*
G04 Created by KiCad (PCBNEW (7.0.0-0)) date 2023-03-08 11:07:40*
%MOMM*%
%LPD*%
G01*
G04 APERTURE LIST*
%ADD10C,0.100000*%
%ADD11C,0.200000*%
%ADD12C,0.020000*%
%ADD13C,0.030000*%
%ADD14C,0.050000*%
%ADD15C,0.060000*%
%ADD16C,0.075000*%
G04 APERTURE END LIST*
D10*
X7600000Y-7355000D02*
X15900000Y-7355000D01*
X15900000Y-7355000D02*
X15900000Y-13855000D01*
X15900000Y-13855000D02*
X7600000Y-13855000D01*
X7600000Y-13855000D02*
X7600000Y-7355000D01*
D11*
D12*
X15070750Y-8932500D02*
X15090750Y-8952500D01*
X15090750Y-8932500D02*
X15070750Y-8952500D01*
X15070750Y-9062500D02*
X15090750Y-9082500D01*
X15090750Y-9062500D02*
X15070750Y-9082500D01*
X15070750Y-9192500D02*
X15090750Y-9212500D01*
X15090750Y-9192500D02*
X15070750Y-9212500D01*
X15261750Y-8932500D02*
X15281750Y-8952500D01*
X15281750Y-8932500D02*
X15261750Y-8952500D01*
X15261750Y-9062500D02*
X15281750Y-9082500D01*
X15281750Y-9062500D02*
X15261750Y-9082500D01*
X15261750Y-9192500D02*
X15281750Y-9212500D01*
X15281750Y-9192500D02*
X15261750Y-9212500D01*
D13*
X10777906Y-11837094D02*
G75*
G03*
X10777906Y-11837094I-15000J0D01*
G01*
X10801280Y-9764926D02*
G75*
G03*
X10801280Y-9764926I-15000J0D01*
G01*
X11247500Y-11642500D02*
G75*
G03*
X11247500Y-11642500I-15000J0D01*
G01*
X11300000Y-9540000D02*
G75*
G03*
X11300000Y-9540000I-15000J0D01*
G01*
X11801441Y-12037500D02*
G75*
G03*
X11801441Y-12037500I-15000J0D01*
G01*
X11801441Y-12122500D02*
G75*
G03*
X11801441Y-12122500I-15000J0D01*
G01*
X11885000Y-11820000D02*
G75*
G03*
X11885000Y-11820000I-15000J0D01*
G01*
X11975000Y-11065000D02*
G75*
G03*
X11975000Y-11065000I-15000J0D01*
G01*
X12000000Y-10190000D02*
G75*
G03*
X12000000Y-10190000I-15000J0D01*
G01*
X12025000Y-8290000D02*
G75*
G03*
X12025000Y-8290000I-15000J0D01*
G01*
X12060000Y-12680000D02*
G75*
G03*
X12060000Y-12680000I-15000J0D01*
G01*
X12115000Y-8525000D02*
G75*
G03*
X12115000Y-8525000I-15000J0D01*
G01*
X12240000Y-12275000D02*
G75*
G03*
X12240000Y-12275000I-15000J0D01*
G01*
X12275000Y-11365000D02*
G75*
G03*
X12275000Y-11365000I-15000J0D01*
G01*
X12322450Y-10818491D02*
G75*
G03*
X12322450Y-10818491I-15000J0D01*
G01*
X12325000Y-11065000D02*
G75*
G03*
X12325000Y-11065000I-15000J0D01*
G01*
X12350000Y-12690000D02*
G75*
G03*
X12350000Y-12690000I-15000J0D01*
G01*
X12350000Y-13244000D02*
G75*
G03*
X12350000Y-13244000I-15000J0D01*
G01*
X12500000Y-12140000D02*
G75*
G03*
X12500000Y-12140000I-15000J0D01*
G01*
X12612450Y-11040768D02*
G75*
G03*
X12612450Y-11040768I-15000J0D01*
G01*
X12727203Y-12267550D02*
G75*
G03*
X12727203Y-12267550I-15000J0D01*
G01*
X12780000Y-8250000D02*
G75*
G03*
X12780000Y-8250000I-15000J0D01*
G01*
X12865000Y-8250000D02*
G75*
G03*
X12865000Y-8250000I-15000J0D01*
G01*
X12890000Y-10110000D02*
G75*
G03*
X12890000Y-10110000I-15000J0D01*
G01*
X12890000Y-10550000D02*
G75*
G03*
X12890000Y-10550000I-15000J0D01*
G01*
X12890000Y-10660000D02*
G75*
G03*
X12890000Y-10660000I-15000J0D01*
G01*
X12890000Y-11930000D02*
G75*
G03*
X12890000Y-11930000I-15000J0D01*
G01*
X12896250Y-10295000D02*
G75*
G03*
X12896250Y-10295000I-15000J0D01*
G01*
X12970000Y-11070000D02*
G75*
G03*
X12970000Y-11070000I-15000J0D01*
G01*
X12985000Y-11485000D02*
G75*
G03*
X12985000Y-11485000I-15000J0D01*
G01*
X13150000Y-11865000D02*
G75*
G03*
X13150000Y-11865000I-15000J0D01*
G01*
X13200000Y-8650000D02*
G75*
G03*
X13200000Y-8650000I-15000J0D01*
G01*
X13225000Y-12240000D02*
G75*
G03*
X13225000Y-12240000I-15000J0D01*
G01*
X13250000Y-11740000D02*
G75*
G03*
X13250000Y-11740000I-15000J0D01*
G01*
X13400000Y-13490000D02*
G75*
G03*
X13400000Y-13490000I-15000J0D01*
G01*
X13410000Y-13640000D02*
G75*
G03*
X13410000Y-13640000I-15000J0D01*
G01*
X13425000Y-9065000D02*
G75*
G03*
X13425000Y-9065000I-15000J0D01*
G01*
X13440000Y-12330000D02*
G75*
G03*
X13440000Y-12330000I-15000J0D01*
G01*
X13450000Y-13370000D02*
G75*
G03*
X13450000Y-13370000I-15000J0D01*
G01*
X13550000Y-8440000D02*
G75*
G03*
X13550000Y-8440000I-15000J0D01*
G01*
X13550000Y-12990000D02*
G75*
G03*
X13550000Y-12990000I-15000J0D01*
G01*
X13550000Y-13450000D02*
G75*
G03*
X13550000Y-13450000I-15000J0D01*
G01*
X13725000Y-11730000D02*
G75*
G03*
X13725000Y-11730000I-15000J0D01*
G01*
X13775000Y-10840000D02*
G75*
G03*
X13775000Y-10840000I-15000J0D01*
G01*
X13790000Y-12200000D02*
G75*
G03*
X13790000Y-12200000I-15000J0D01*
G01*
X13850000Y-10950050D02*
G75*
G03*
X13850000Y-10950050I-15000J0D01*
G01*
X13860000Y-12740000D02*
G75*
G03*
X13860000Y-12740000I-15000J0D01*
G01*
X13875000Y-10750000D02*
G75*
G03*
X13875000Y-10750000I-15000J0D01*
G01*
X13875000Y-11915000D02*
G75*
G03*
X13875000Y-11915000I-15000J0D01*
G01*
X14025000Y-9065000D02*
G75*
G03*
X14025000Y-9065000I-15000J0D01*
G01*
X14110000Y-13520000D02*
G75*
G03*
X14110000Y-13520000I-15000J0D01*
G01*
X14129641Y-12596962D02*
G75*
G03*
X14129641Y-12596962I-15000J0D01*
G01*
X14340000Y-11370000D02*
G75*
G03*
X14340000Y-11370000I-15000J0D01*
G01*
X14350000Y-7840000D02*
G75*
G03*
X14350000Y-7840000I-15000J0D01*
G01*
X14375000Y-9740000D02*
G75*
G03*
X14375000Y-9740000I-15000J0D01*
G01*
X14380000Y-12470000D02*
G75*
G03*
X14380000Y-12470000I-15000J0D01*
G01*
X14490000Y-11040000D02*
G75*
G03*
X14490000Y-11040000I-15000J0D01*
G01*
X14525000Y-11965000D02*
G75*
G03*
X14525000Y-11965000I-15000J0D01*
G01*
X14600000Y-12560000D02*
G75*
G03*
X14600000Y-12560000I-15000J0D01*
G01*
X14675000Y-13040000D02*
G75*
G03*
X14675000Y-13040000I-15000J0D01*
G01*
X14925000Y-12215000D02*
G75*
G03*
X14925000Y-12215000I-15000J0D01*
G01*
X14950000Y-12465000D02*
G75*
G03*
X14950000Y-12465000I-15000J0D01*
G01*
X15200000Y-13215000D02*
G75*
G03*
X15200000Y-13215000I-15000J0D01*
G01*
X15375000Y-8455000D02*
G75*
G03*
X15375000Y-8455000I-15000J0D01*
G01*
X15780000Y-9890000D02*
G75*
G03*
X15780000Y-9890000I-15000J0D01*
G01*
X12305000Y-7415000D02*
X12305000Y-7445000D01*
X12290000Y-7430000D02*
X12320000Y-7430000D01*
X12305000Y-7515000D02*
X12305000Y-7545000D01*
X12290000Y-7530000D02*
X12320000Y-7530000D01*
X12305000Y-7615000D02*
X12305000Y-7645000D01*
X12290000Y-7630000D02*
X12320000Y-7630000D01*
X12305000Y-7715000D02*
X12305000Y-7745000D01*
X12290000Y-7730000D02*
X12320000Y-7730000D01*
X12405000Y-7415000D02*
X12405000Y-7445000D01*
X12390000Y-7430000D02*
X12420000Y-7430000D01*
X12405000Y-7515000D02*
X12405000Y-7545000D01*
X12390000Y-7530000D02*
X12420000Y-7530000D01*
X12405000Y-7615000D02*
X12405000Y-7645000D01*
X12390000Y-7630000D02*
X12420000Y-7630000D01*
X12405000Y-7715000D02*
X12405000Y-7745000D01*
X12390000Y-7730000D02*
X12420000Y-7730000D01*
X12505000Y-7415000D02*
X12505000Y-7445000D01*
X12490000Y-7430000D02*
X12520000Y-7430000D01*
X12505000Y-7515000D02*
X12505000Y-7545000D01*
X12490000Y-7530000D02*
X12520000Y-7530000D01*
X12505000Y-7615000D02*
X12505000Y-7645000D01*
X12490000Y-7630000D02*
X12520000Y-7630000D01*
X12505000Y-7715000D02*
X12505000Y-7745000D01*
X12490000Y-7730000D02*
X12520000Y-7730000D01*
X12605000Y-7415000D02*
X12605000Y-7445000D01*
X12590000Y-7430000D02*
X12620000Y-7430000D01*
X12605000Y-7515000D02*
X12605000Y-7545000D01*
X12590000Y-7530000D02*
X12620000Y-7530000D01*
X12605000Y-7615000D02*
X12605000Y-7645000D01*
X12590000Y-7630000D02*
X12620000Y-7630000D01*
X12605000Y-7715000D02*
X12605000Y-7745000D01*
X12590000Y-7730000D02*
X12620000Y-7730000D01*
X13005000Y-7415000D02*
X13005000Y-7445000D01*
X12990000Y-7430000D02*
X13020000Y-7430000D01*
X13005000Y-7515000D02*
X13005000Y-7545000D01*
X12990000Y-7530000D02*
X13020000Y-7530000D01*
X13005000Y-7615000D02*
X13005000Y-7645000D01*
X12990000Y-7630000D02*
X13020000Y-7630000D01*
X13005000Y-7715000D02*
X13005000Y-7745000D01*
X12990000Y-7730000D02*
X13020000Y-7730000D01*
X13105000Y-7415000D02*
X13105000Y-7445000D01*
X13090000Y-7430000D02*
X13120000Y-7430000D01*
X13105000Y-7515000D02*
X13105000Y-7545000D01*
X13090000Y-7530000D02*
X13120000Y-7530000D01*
X13105000Y-7615000D02*
X13105000Y-7645000D01*
X13090000Y-7630000D02*
X13120000Y-7630000D01*
X13105000Y-7715000D02*
X13105000Y-7745000D01*
X13090000Y-7730000D02*
X13120000Y-7730000D01*
X13205000Y-7415000D02*
X13205000Y-7445000D01*
X13190000Y-7430000D02*
X13220000Y-7430000D01*
X13205000Y-7515000D02*
X13205000Y-7545000D01*
X13190000Y-7530000D02*
X13220000Y-7530000D01*
X13205000Y-7615000D02*
X13205000Y-7645000D01*
X13190000Y-7630000D02*
X13220000Y-7630000D01*
X13205000Y-7715000D02*
X13205000Y-7745000D01*
X13190000Y-7730000D02*
X13220000Y-7730000D01*
X13305000Y-7415000D02*
X13305000Y-7445000D01*
X13290000Y-7430000D02*
X13320000Y-7430000D01*
X13305000Y-7515000D02*
X13305000Y-7545000D01*
X13290000Y-7530000D02*
X13320000Y-7530000D01*
X13305000Y-7615000D02*
X13305000Y-7645000D01*
X13290000Y-7630000D02*
X13320000Y-7630000D01*
X13305000Y-7715000D02*
X13305000Y-7745000D01*
X13290000Y-7730000D02*
X13320000Y-7730000D01*
X13860000Y-7425000D02*
X13860000Y-7455000D01*
X13845000Y-7440000D02*
X13875000Y-7440000D01*
X13860000Y-7525000D02*
X13860000Y-7555000D01*
X13845000Y-7540000D02*
X13875000Y-7540000D01*
X13860000Y-7625000D02*
X13860000Y-7655000D01*
X13845000Y-7640000D02*
X13875000Y-7640000D01*
X13860000Y-7725000D02*
X13860000Y-7755000D01*
X13845000Y-7740000D02*
X13875000Y-7740000D01*
X13960000Y-7425000D02*
X13960000Y-7455000D01*
X13945000Y-7440000D02*
X13975000Y-7440000D01*
X13960000Y-7525000D02*
X13960000Y-7555000D01*
X13945000Y-7540000D02*
X13975000Y-7540000D01*
X13960000Y-7625000D02*
X13960000Y-7655000D01*
X13945000Y-7640000D02*
X13975000Y-7640000D01*
X13960000Y-7725000D02*
X13960000Y-7755000D01*
X13945000Y-7740000D02*
X13975000Y-7740000D01*
X14060000Y-7425000D02*
X14060000Y-7455000D01*
X14045000Y-7440000D02*
X14075000Y-7440000D01*
X14060000Y-7525000D02*
X14060000Y-7555000D01*
X14045000Y-7540000D02*
X14075000Y-7540000D01*
X14060000Y-7625000D02*
X14060000Y-7655000D01*
X14045000Y-7640000D02*
X14075000Y-7640000D01*
X14060000Y-7725000D02*
X14060000Y-7755000D01*
X14045000Y-7740000D02*
X14075000Y-7740000D01*
X14160000Y-7425000D02*
X14160000Y-7455000D01*
X14145000Y-7440000D02*
X14175000Y-7440000D01*
X14160000Y-7525000D02*
X14160000Y-7555000D01*
X14145000Y-7540000D02*
X14175000Y-7540000D01*
X14160000Y-7625000D02*
X14160000Y-7655000D01*
X14145000Y-7640000D02*
X14175000Y-7640000D01*
X14160000Y-7725000D02*
X14160000Y-7755000D01*
X14145000Y-7740000D02*
X14175000Y-7740000D01*
X14465000Y-7420000D02*
X14465000Y-7450000D01*
X14450000Y-7435000D02*
X14480000Y-7435000D01*
X14465000Y-7520000D02*
X14465000Y-7550000D01*
X14450000Y-7535000D02*
X14480000Y-7535000D01*
X14465000Y-7620000D02*
X14465000Y-7650000D01*
X14450000Y-7635000D02*
X14480000Y-7635000D01*
X14465000Y-7720000D02*
X14465000Y-7750000D01*
X14450000Y-7735000D02*
X14480000Y-7735000D01*
X14565000Y-7420000D02*
X14565000Y-7450000D01*
X14550000Y-7435000D02*
X14580000Y-7435000D01*
X14565000Y-7520000D02*
X14565000Y-7550000D01*
X14550000Y-7535000D02*
X14580000Y-7535000D01*
X14565000Y-7620000D02*
X14565000Y-7650000D01*
X14550000Y-7635000D02*
X14580000Y-7635000D01*
X14565000Y-7720000D02*
X14565000Y-7750000D01*
X14550000Y-7735000D02*
X14580000Y-7735000D01*
X14665000Y-7420000D02*
X14665000Y-7450000D01*
X14650000Y-7435000D02*
X14680000Y-7435000D01*
X14665000Y-7520000D02*
X14665000Y-7550000D01*
X14650000Y-7535000D02*
X14680000Y-7535000D01*
X14665000Y-7620000D02*
X14665000Y-7650000D01*
X14650000Y-7635000D02*
X14680000Y-7635000D01*
X14665000Y-7720000D02*
X14665000Y-7750000D01*
X14650000Y-7735000D02*
X14680000Y-7735000D01*
X14765000Y-7420000D02*
X14765000Y-7450000D01*
X14750000Y-7435000D02*
X14780000Y-7435000D01*
X14765000Y-7520000D02*
X14765000Y-7550000D01*
X14750000Y-7535000D02*
X14780000Y-7535000D01*
X14765000Y-7620000D02*
X14765000Y-7650000D01*
X14750000Y-7635000D02*
X14780000Y-7635000D01*
X14765000Y-7720000D02*
X14765000Y-7750000D01*
X14750000Y-7735000D02*
X14780000Y-7735000D01*
D14*
X8682678Y-7617678D02*
X8682678Y-7582322D01*
X8647322Y-7582322D01*
X8647322Y-7617678D01*
X8682678Y-7617678D01*
X8682678Y-8039011D02*
X8682678Y-8003655D01*
X8647322Y-8003655D01*
X8647322Y-8039011D01*
X8682678Y-8039011D01*
X8682678Y-8440344D02*
X8682678Y-8404989D01*
X8647322Y-8404989D01*
X8647322Y-8440344D01*
X8682678Y-8440344D01*
X8682678Y-8841678D02*
X8682678Y-8806322D01*
X8647322Y-8806322D01*
X8647322Y-8841678D01*
X8682678Y-8841678D01*
X8682678Y-9243011D02*
X8682678Y-9207655D01*
X8647322Y-9207655D01*
X8647322Y-9243011D01*
X8682678Y-9243011D01*
X8682678Y-9644344D02*
X8682678Y-9608989D01*
X8647322Y-9608989D01*
X8647322Y-9644344D01*
X8682678Y-9644344D01*
X8682678Y-10045678D02*
X8682678Y-10010322D01*
X8647322Y-10010322D01*
X8647322Y-10045678D01*
X8682678Y-10045678D01*
X8682678Y-10447011D02*
X8682678Y-10411655D01*
X8647322Y-10411655D01*
X8647322Y-10447011D01*
X8682678Y-10447011D01*
X8682678Y-10848344D02*
X8682678Y-10812989D01*
X8647322Y-10812989D01*
X8647322Y-10848344D01*
X8682678Y-10848344D01*
X8682678Y-11249677D02*
X8682678Y-11214322D01*
X8647322Y-11214322D01*
X8647322Y-11249677D01*
X8682678Y-11249677D01*
X8682678Y-11651011D02*
X8682678Y-11615655D01*
X8647322Y-11615655D01*
X8647322Y-11651011D01*
X8682678Y-11651011D01*
X8682678Y-12052344D02*
X8682678Y-12016988D01*
X8647322Y-12016988D01*
X8647322Y-12052344D01*
X8682678Y-12052344D01*
X8682678Y-12453677D02*
X8682678Y-12418322D01*
X8647322Y-12418322D01*
X8647322Y-12453677D01*
X8682678Y-12453677D01*
X8682678Y-12855011D02*
X8682678Y-12819655D01*
X8647322Y-12819655D01*
X8647322Y-12855011D01*
X8682678Y-12855011D01*
X8682678Y-13256344D02*
X8682678Y-13220988D01*
X8647322Y-13220988D01*
X8647322Y-13256344D01*
X8682678Y-13256344D01*
X8682678Y-13657678D02*
X8682678Y-13622322D01*
X8647322Y-13622322D01*
X8647322Y-13657678D01*
X8682678Y-13657678D01*
D15*
X11923000Y-13167000D02*
X11953000Y-13137000D01*
X11923000Y-13107000D01*
X11893000Y-13137000D01*
X11923000Y-13167000D01*
D11*
X11893000Y-13082000D02*
X11893000Y-13192000D01*
X11893000Y-13192000D02*
G75*
G03*
X11953000Y-13192000I30000J0D01*
G01*
X11953000Y-13192000D02*
X11953000Y-13082000D01*
X11953000Y-13082000D02*
G75*
G03*
X11893000Y-13082000I-30000J0D01*
G01*
D15*
X11923000Y-13585000D02*
X11953000Y-13555000D01*
X11923000Y-13525000D01*
X11893000Y-13555000D01*
X11923000Y-13585000D01*
D11*
X11893000Y-13525000D02*
X11893000Y-13585000D01*
X11893000Y-13585000D02*
G75*
G03*
X11953000Y-13585000I30000J0D01*
G01*
X11953000Y-13585000D02*
X11953000Y-13525000D01*
X11953000Y-13525000D02*
G75*
G03*
X11893000Y-13525000I-30000J0D01*
G01*
D15*
X12787000Y-13167000D02*
X12817000Y-13137000D01*
X12787000Y-13107000D01*
X12757000Y-13137000D01*
X12787000Y-13167000D01*
D11*
X12757000Y-13082000D02*
X12757000Y-13192000D01*
X12757000Y-13192000D02*
G75*
G03*
X12817000Y-13192000I30000J0D01*
G01*
X12817000Y-13192000D02*
X12817000Y-13082000D01*
X12817000Y-13082000D02*
G75*
G03*
X12757000Y-13082000I-30000J0D01*
G01*
D15*
X12787000Y-13585000D02*
X12817000Y-13555000D01*
X12787000Y-13525000D01*
X12757000Y-13555000D01*
X12787000Y-13585000D01*
D11*
X12757000Y-13525000D02*
X12757000Y-13585000D01*
X12757000Y-13585000D02*
G75*
G03*
X12817000Y-13585000I30000J0D01*
G01*
X12817000Y-13585000D02*
X12817000Y-13525000D01*
X12817000Y-13525000D02*
G75*
G03*
X12757000Y-13525000I-30000J0D01*
G01*
D16*
X8207500Y-8702500D02*
X8282500Y-8777500D01*
X8282500Y-8702500D02*
X8207500Y-8777500D01*
X8282500Y-8740000D02*
G75*
G03*
X8282500Y-8740000I-37500J0D01*
G01*
X8207500Y-8902500D02*
X8282500Y-8977500D01*
X8282500Y-8902500D02*
X8207500Y-8977500D01*
X8282500Y-8940000D02*
G75*
G03*
X8282500Y-8940000I-37500J0D01*
G01*
X8207500Y-9102500D02*
X8282500Y-9177500D01*
X8282500Y-9102500D02*
X8207500Y-9177500D01*
X8282500Y-9140000D02*
G75*
G03*
X8282500Y-9140000I-37500J0D01*
G01*
X8207500Y-9302500D02*
X8282500Y-9377500D01*
X8282500Y-9302500D02*
X8207500Y-9377500D01*
X8282500Y-9340000D02*
G75*
G03*
X8282500Y-9340000I-37500J0D01*
G01*
X8207500Y-9502500D02*
X8282500Y-9577500D01*
X8282500Y-9502500D02*
X8207500Y-9577500D01*
X8282500Y-9540000D02*
G75*
G03*
X8282500Y-9540000I-37500J0D01*
G01*
X8207500Y-9702500D02*
X8282500Y-9777500D01*
X8282500Y-9702500D02*
X8207500Y-9777500D01*
X8282500Y-9740000D02*
G75*
G03*
X8282500Y-9740000I-37500J0D01*
G01*
X8207500Y-9902500D02*
X8282500Y-9977500D01*
X8282500Y-9902500D02*
X8207500Y-9977500D01*
X8282500Y-9940000D02*
G75*
G03*
X8282500Y-9940000I-37500J0D01*
G01*
X8207500Y-10102500D02*
X8282500Y-10177500D01*
X8282500Y-10102500D02*
X8207500Y-10177500D01*
X8282500Y-10140000D02*
G75*
G03*
X8282500Y-10140000I-37500J0D01*
G01*
X8207500Y-11040833D02*
X8282500Y-11115833D01*
X8282500Y-11040833D02*
X8207500Y-11115833D01*
X8282500Y-11078333D02*
G75*
G03*
X8282500Y-11078333I-37500J0D01*
G01*
X8207500Y-11240833D02*
X8282500Y-11315833D01*
X8282500Y-11240833D02*
X8207500Y-11315833D01*
X8282500Y-11278333D02*
G75*
G03*
X8282500Y-11278333I-37500J0D01*
G01*
X8207500Y-11440833D02*
X8282500Y-11515833D01*
X8282500Y-11440833D02*
X8207500Y-11515833D01*
X8282500Y-11478333D02*
G75*
G03*
X8282500Y-11478333I-37500J0D01*
G01*
X8207500Y-11640833D02*
X8282500Y-11715833D01*
X8282500Y-11640833D02*
X8207500Y-11715833D01*
X8282500Y-11678333D02*
G75*
G03*
X8282500Y-11678333I-37500J0D01*
G01*
X8207500Y-11840833D02*
X8282500Y-11915833D01*
X8282500Y-11840833D02*
X8207500Y-11915833D01*
X8282500Y-11878333D02*
G75*
G03*
X8282500Y-11878333I-37500J0D01*
G01*
X8207500Y-12040833D02*
X8282500Y-12115833D01*
X8282500Y-12040833D02*
X8207500Y-12115833D01*
X8282500Y-12078333D02*
G75*
G03*
X8282500Y-12078333I-37500J0D01*
G01*
X8207500Y-12240833D02*
X8282500Y-12315833D01*
X8282500Y-12240833D02*
X8207500Y-12315833D01*
X8282500Y-12278333D02*
G75*
G03*
X8282500Y-12278333I-37500J0D01*
G01*
X8207500Y-12440833D02*
X8282500Y-12515833D01*
X8282500Y-12440833D02*
X8207500Y-12515833D01*
X8282500Y-12478333D02*
G75*
G03*
X8282500Y-12478333I-37500J0D01*
G01*
X14327500Y-13507500D02*
X14402500Y-13582500D01*
X14402500Y-13507500D02*
X14327500Y-13582500D01*
X14402500Y-13545000D02*
G75*
G03*
X14402500Y-13545000I-37500J0D01*
G01*
X14527500Y-13507500D02*
X14602500Y-13582500D01*
X14602500Y-13507500D02*
X14527500Y-13582500D01*
X14602500Y-13545000D02*
G75*
G03*
X14602500Y-13545000I-37500J0D01*
G01*
X14727500Y-13507500D02*
X14802500Y-13582500D01*
X14802500Y-13507500D02*
X14727500Y-13582500D01*
X14802500Y-13545000D02*
G75*
G03*
X14802500Y-13545000I-37500J0D01*
G01*
X14927500Y-13507500D02*
X15002500Y-13582500D01*
X15002500Y-13507500D02*
X14927500Y-13582500D01*
X15002500Y-13545000D02*
G75*
G03*
X15002500Y-13545000I-37500J0D01*
G01*
X15557500Y-10442500D02*
X15632500Y-10517500D01*
X15632500Y-10442500D02*
X15557500Y-10517500D01*
X15632500Y-10480000D02*
G75*
G03*
X15632500Y-10480000I-37500J0D01*
G01*
X15557500Y-10642500D02*
X15632500Y-10717500D01*
X15632500Y-10642500D02*
X15557500Y-10717500D01*
X15632500Y-10680000D02*
G75*
G03*
X15632500Y-10680000I-37500J0D01*
G01*
X15557500Y-11132500D02*
X15632500Y-11207500D01*
X15632500Y-11132500D02*
X15557500Y-11207500D01*
X15632500Y-11170000D02*
G75*
G03*
X15632500Y-11170000I-37500J0D01*
G01*
X15557500Y-11332500D02*
X15632500Y-11407500D01*
X15632500Y-11332500D02*
X15557500Y-11407500D01*
X15632500Y-11370000D02*
G75*
G03*
X15632500Y-11370000I-37500J0D01*
G01*
X15557500Y-11822500D02*
X15632500Y-11897500D01*
X15632500Y-11822500D02*
X15557500Y-11897500D01*
X15632500Y-11860000D02*
G75*
G03*
X15632500Y-11860000I-37500J0D01*
G01*
X15557500Y-12022500D02*
X15632500Y-12097500D01*
X15632500Y-12022500D02*
X15557500Y-12097500D01*
X15632500Y-12060000D02*
G75*
G03*
X15632500Y-12060000I-37500J0D01*
G01*
X15557500Y-12222500D02*
X15632500Y-12297500D01*
X15632500Y-12222500D02*
X15557500Y-12297500D01*
X15632500Y-12260000D02*
G75*
G03*
X15632500Y-12260000I-37500J0D01*
G01*
X15557500Y-12422500D02*
X15632500Y-12497500D01*
X15632500Y-12422500D02*
X15557500Y-12497500D01*
X15632500Y-12460000D02*
G75*
G03*
X15632500Y-12460000I-37500J0D01*
G01*
X15557500Y-12622500D02*
X15632500Y-12697500D01*
X15632500Y-12622500D02*
X15557500Y-12697500D01*
X15632500Y-12660000D02*
G75*
G03*
X15632500Y-12660000I-37500J0D01*
G01*
D10*
X12660000Y-11690000D02*
X12760000Y-11790000D01*
X12760000Y-11690000D02*
X12660000Y-11790000D01*
X12710000Y-11690000D02*
X12710000Y-11790000D01*
X12660000Y-11740000D02*
X12760000Y-11740000D01*
X12914000Y-11690000D02*
X13014000Y-11790000D01*
X13014000Y-11690000D02*
X12914000Y-11790000D01*
X12964000Y-11690000D02*
X12964000Y-11790000D01*
X12914000Y-11740000D02*
X13014000Y-11740000D01*
D11*
X7842619Y-14153476D02*
X7842619Y-13953476D01*
X7842619Y-13953476D02*
X7890238Y-13953476D01*
X7890238Y-13953476D02*
X7918809Y-13963000D01*
X7918809Y-13963000D02*
X7937857Y-13982048D01*
X7937857Y-13982048D02*
X7947381Y-14001095D01*
X7947381Y-14001095D02*
X7956905Y-14039190D01*
X7956905Y-14039190D02*
X7956905Y-14067762D01*
X7956905Y-14067762D02*
X7947381Y-14105857D01*
X7947381Y-14105857D02*
X7937857Y-14124905D01*
X7937857Y-14124905D02*
X7918809Y-14143952D01*
X7918809Y-14143952D02*
X7890238Y-14153476D01*
X7890238Y-14153476D02*
X7842619Y-14153476D01*
X8042619Y-14153476D02*
X8042619Y-14020143D01*
X8042619Y-14058238D02*
X8052143Y-14039190D01*
X8052143Y-14039190D02*
X8061667Y-14029667D01*
X8061667Y-14029667D02*
X8080714Y-14020143D01*
X8080714Y-14020143D02*
X8099762Y-14020143D01*
X8166428Y-14153476D02*
X8166428Y-14020143D01*
X8166428Y-13953476D02*
X8156905Y-13963000D01*
X8156905Y-13963000D02*
X8166428Y-13972524D01*
X8166428Y-13972524D02*
X8175952Y-13963000D01*
X8175952Y-13963000D02*
X8166428Y-13953476D01*
X8166428Y-13953476D02*
X8166428Y-13972524D01*
X8290238Y-14153476D02*
X8271190Y-14143952D01*
X8271190Y-14143952D02*
X8261667Y-14124905D01*
X8261667Y-14124905D02*
X8261667Y-13953476D01*
X8395000Y-14153476D02*
X8375952Y-14143952D01*
X8375952Y-14143952D02*
X8366428Y-14124905D01*
X8366428Y-14124905D02*
X8366428Y-13953476D01*
X8591190Y-14153476D02*
X8591190Y-13953476D01*
X8591190Y-13953476D02*
X8657857Y-14096333D01*
X8657857Y-14096333D02*
X8724524Y-13953476D01*
X8724524Y-13953476D02*
X8724524Y-14153476D01*
X8905476Y-14153476D02*
X8905476Y-14048714D01*
X8905476Y-14048714D02*
X8895952Y-14029667D01*
X8895952Y-14029667D02*
X8876905Y-14020143D01*
X8876905Y-14020143D02*
X8838809Y-14020143D01*
X8838809Y-14020143D02*
X8819762Y-14029667D01*
X8905476Y-14143952D02*
X8886429Y-14153476D01*
X8886429Y-14153476D02*
X8838809Y-14153476D01*
X8838809Y-14153476D02*
X8819762Y-14143952D01*
X8819762Y-14143952D02*
X8810238Y-14124905D01*
X8810238Y-14124905D02*
X8810238Y-14105857D01*
X8810238Y-14105857D02*
X8819762Y-14086809D01*
X8819762Y-14086809D02*
X8838809Y-14077286D01*
X8838809Y-14077286D02*
X8886429Y-14077286D01*
X8886429Y-14077286D02*
X8905476Y-14067762D01*
X9000714Y-14020143D02*
X9000714Y-14220143D01*
X9000714Y-14029667D02*
X9019762Y-14020143D01*
X9019762Y-14020143D02*
X9057857Y-14020143D01*
X9057857Y-14020143D02*
X9076905Y-14029667D01*
X9076905Y-14029667D02*
X9086429Y-14039190D01*
X9086429Y-14039190D02*
X9095952Y-14058238D01*
X9095952Y-14058238D02*
X9095952Y-14115381D01*
X9095952Y-14115381D02*
X9086429Y-14134428D01*
X9086429Y-14134428D02*
X9076905Y-14143952D01*
X9076905Y-14143952D02*
X9057857Y-14153476D01*
X9057857Y-14153476D02*
X9019762Y-14153476D01*
X9019762Y-14153476D02*
X9000714Y-14143952D01*
X9181667Y-14134428D02*
X9191190Y-14143952D01*
X9191190Y-14143952D02*
X9181667Y-14153476D01*
X9181667Y-14153476D02*
X9172143Y-14143952D01*
X9172143Y-14143952D02*
X9181667Y-14134428D01*
X9181667Y-14134428D02*
X9181667Y-14153476D01*
X9181667Y-14029667D02*
X9191190Y-14039190D01*
X9191190Y-14039190D02*
X9181667Y-14048714D01*
X9181667Y-14048714D02*
X9172143Y-14039190D01*
X9172143Y-14039190D02*
X9181667Y-14029667D01*
X9181667Y-14029667D02*
X9181667Y-14048714D01*
D12*
X7575000Y-14490000D02*
X7595000Y-14510000D01*
X7595000Y-14490000D02*
X7575000Y-14510000D01*
D11*
X7880714Y-14373476D02*
X7899762Y-14373476D01*
X7899762Y-14373476D02*
X7918809Y-14383000D01*
X7918809Y-14383000D02*
X7928333Y-14392524D01*
X7928333Y-14392524D02*
X7937857Y-14411571D01*
X7937857Y-14411571D02*
X7947381Y-14449667D01*
X7947381Y-14449667D02*
X7947381Y-14497286D01*
X7947381Y-14497286D02*
X7937857Y-14535381D01*
X7937857Y-14535381D02*
X7928333Y-14554428D01*
X7928333Y-14554428D02*
X7918809Y-14563952D01*
X7918809Y-14563952D02*
X7899762Y-14573476D01*
X7899762Y-14573476D02*
X7880714Y-14573476D01*
X7880714Y-14573476D02*
X7861667Y-14563952D01*
X7861667Y-14563952D02*
X7852143Y-14554428D01*
X7852143Y-14554428D02*
X7842619Y-14535381D01*
X7842619Y-14535381D02*
X7833095Y-14497286D01*
X7833095Y-14497286D02*
X7833095Y-14449667D01*
X7833095Y-14449667D02*
X7842619Y-14411571D01*
X7842619Y-14411571D02*
X7852143Y-14392524D01*
X7852143Y-14392524D02*
X7861667Y-14383000D01*
X7861667Y-14383000D02*
X7880714Y-14373476D01*
X8033095Y-14554428D02*
X8042619Y-14563952D01*
X8042619Y-14563952D02*
X8033095Y-14573476D01*
X8033095Y-14573476D02*
X8023571Y-14563952D01*
X8023571Y-14563952D02*
X8033095Y-14554428D01*
X8033095Y-14554428D02*
X8033095Y-14573476D01*
X8118809Y-14392524D02*
X8128333Y-14383000D01*
X8128333Y-14383000D02*
X8147381Y-14373476D01*
X8147381Y-14373476D02*
X8195000Y-14373476D01*
X8195000Y-14373476D02*
X8214048Y-14383000D01*
X8214048Y-14383000D02*
X8223571Y-14392524D01*
X8223571Y-14392524D02*
X8233095Y-14411571D01*
X8233095Y-14411571D02*
X8233095Y-14430619D01*
X8233095Y-14430619D02*
X8223571Y-14459190D01*
X8223571Y-14459190D02*
X8109286Y-14573476D01*
X8109286Y-14573476D02*
X8233095Y-14573476D01*
X8356905Y-14373476D02*
X8375952Y-14373476D01*
X8375952Y-14373476D02*
X8395000Y-14383000D01*
X8395000Y-14383000D02*
X8404524Y-14392524D01*
X8404524Y-14392524D02*
X8414048Y-14411571D01*
X8414048Y-14411571D02*
X8423571Y-14449667D01*
X8423571Y-14449667D02*
X8423571Y-14497286D01*
X8423571Y-14497286D02*
X8414048Y-14535381D01*
X8414048Y-14535381D02*
X8404524Y-14554428D01*
X8404524Y-14554428D02*
X8395000Y-14563952D01*
X8395000Y-14563952D02*
X8375952Y-14573476D01*
X8375952Y-14573476D02*
X8356905Y-14573476D01*
X8356905Y-14573476D02*
X8337857Y-14563952D01*
X8337857Y-14563952D02*
X8328333Y-14554428D01*
X8328333Y-14554428D02*
X8318809Y-14535381D01*
X8318809Y-14535381D02*
X8309286Y-14497286D01*
X8309286Y-14497286D02*
X8309286Y-14449667D01*
X8309286Y-14449667D02*
X8318809Y-14411571D01*
X8318809Y-14411571D02*
X8328333Y-14392524D01*
X8328333Y-14392524D02*
X8337857Y-14383000D01*
X8337857Y-14383000D02*
X8356905Y-14373476D01*
X8547381Y-14373476D02*
X8566429Y-14373476D01*
X8566429Y-14373476D02*
X8585476Y-14383000D01*
X8585476Y-14383000D02*
X8595000Y-14392524D01*
X8595000Y-14392524D02*
X8604524Y-14411571D01*
X8604524Y-14411571D02*
X8614048Y-14449667D01*
X8614048Y-14449667D02*
X8614048Y-14497286D01*
X8614048Y-14497286D02*
X8604524Y-14535381D01*
X8604524Y-14535381D02*
X8595000Y-14554428D01*
X8595000Y-14554428D02*
X8585476Y-14563952D01*
X8585476Y-14563952D02*
X8566429Y-14573476D01*
X8566429Y-14573476D02*
X8547381Y-14573476D01*
X8547381Y-14573476D02*
X8528333Y-14563952D01*
X8528333Y-14563952D02*
X8518810Y-14554428D01*
X8518810Y-14554428D02*
X8509286Y-14535381D01*
X8509286Y-14535381D02*
X8499762Y-14497286D01*
X8499762Y-14497286D02*
X8499762Y-14449667D01*
X8499762Y-14449667D02*
X8509286Y-14411571D01*
X8509286Y-14411571D02*
X8518810Y-14392524D01*
X8518810Y-14392524D02*
X8528333Y-14383000D01*
X8528333Y-14383000D02*
X8547381Y-14373476D01*
X8699762Y-14573476D02*
X8699762Y-14440143D01*
X8699762Y-14459190D02*
X8709286Y-14449667D01*
X8709286Y-14449667D02*
X8728333Y-14440143D01*
X8728333Y-14440143D02*
X8756905Y-14440143D01*
X8756905Y-14440143D02*
X8775952Y-14449667D01*
X8775952Y-14449667D02*
X8785476Y-14468714D01*
X8785476Y-14468714D02*
X8785476Y-14573476D01*
X8785476Y-14468714D02*
X8795000Y-14449667D01*
X8795000Y-14449667D02*
X8814048Y-14440143D01*
X8814048Y-14440143D02*
X8842619Y-14440143D01*
X8842619Y-14440143D02*
X8861667Y-14449667D01*
X8861667Y-14449667D02*
X8871191Y-14468714D01*
X8871191Y-14468714D02*
X8871191Y-14573476D01*
X8966429Y-14573476D02*
X8966429Y-14440143D01*
X8966429Y-14459190D02*
X8975952Y-14449667D01*
X8975952Y-14449667D02*
X8995000Y-14440143D01*
X8995000Y-14440143D02*
X9023572Y-14440143D01*
X9023572Y-14440143D02*
X9042619Y-14449667D01*
X9042619Y-14449667D02*
X9052143Y-14468714D01*
X9052143Y-14468714D02*
X9052143Y-14573476D01*
X9052143Y-14468714D02*
X9061667Y-14449667D01*
X9061667Y-14449667D02*
X9080714Y-14440143D01*
X9080714Y-14440143D02*
X9109286Y-14440143D01*
X9109286Y-14440143D02*
X9128333Y-14449667D01*
X9128333Y-14449667D02*
X9137857Y-14468714D01*
X9137857Y-14468714D02*
X9137857Y-14573476D01*
X9495952Y-14363952D02*
X9324524Y-14621095D01*
X9720714Y-14373476D02*
X9739762Y-14373476D01*
X9739762Y-14373476D02*
X9758810Y-14383000D01*
X9758810Y-14383000D02*
X9768333Y-14392524D01*
X9768333Y-14392524D02*
X9777857Y-14411571D01*
X9777857Y-14411571D02*
X9787381Y-14449667D01*
X9787381Y-14449667D02*
X9787381Y-14497286D01*
X9787381Y-14497286D02*
X9777857Y-14535381D01*
X9777857Y-14535381D02*
X9768333Y-14554428D01*
X9768333Y-14554428D02*
X9758810Y-14563952D01*
X9758810Y-14563952D02*
X9739762Y-14573476D01*
X9739762Y-14573476D02*
X9720714Y-14573476D01*
X9720714Y-14573476D02*
X9701667Y-14563952D01*
X9701667Y-14563952D02*
X9692143Y-14554428D01*
X9692143Y-14554428D02*
X9682619Y-14535381D01*
X9682619Y-14535381D02*
X9673095Y-14497286D01*
X9673095Y-14497286D02*
X9673095Y-14449667D01*
X9673095Y-14449667D02*
X9682619Y-14411571D01*
X9682619Y-14411571D02*
X9692143Y-14392524D01*
X9692143Y-14392524D02*
X9701667Y-14383000D01*
X9701667Y-14383000D02*
X9720714Y-14373476D01*
X9873095Y-14554428D02*
X9882619Y-14563952D01*
X9882619Y-14563952D02*
X9873095Y-14573476D01*
X9873095Y-14573476D02*
X9863572Y-14563952D01*
X9863572Y-14563952D02*
X9873095Y-14554428D01*
X9873095Y-14554428D02*
X9873095Y-14573476D01*
X10006429Y-14373476D02*
X10025476Y-14373476D01*
X10025476Y-14373476D02*
X10044524Y-14383000D01*
X10044524Y-14383000D02*
X10054048Y-14392524D01*
X10054048Y-14392524D02*
X10063572Y-14411571D01*
X10063572Y-14411571D02*
X10073095Y-14449667D01*
X10073095Y-14449667D02*
X10073095Y-14497286D01*
X10073095Y-14497286D02*
X10063572Y-14535381D01*
X10063572Y-14535381D02*
X10054048Y-14554428D01*
X10054048Y-14554428D02*
X10044524Y-14563952D01*
X10044524Y-14563952D02*
X10025476Y-14573476D01*
X10025476Y-14573476D02*
X10006429Y-14573476D01*
X10006429Y-14573476D02*
X9987381Y-14563952D01*
X9987381Y-14563952D02*
X9977857Y-14554428D01*
X9977857Y-14554428D02*
X9968333Y-14535381D01*
X9968333Y-14535381D02*
X9958810Y-14497286D01*
X9958810Y-14497286D02*
X9958810Y-14449667D01*
X9958810Y-14449667D02*
X9968333Y-14411571D01*
X9968333Y-14411571D02*
X9977857Y-14392524D01*
X9977857Y-14392524D02*
X9987381Y-14383000D01*
X9987381Y-14383000D02*
X10006429Y-14373476D01*
X10196905Y-14373476D02*
X10215953Y-14373476D01*
X10215953Y-14373476D02*
X10235000Y-14383000D01*
X10235000Y-14383000D02*
X10244524Y-14392524D01*
X10244524Y-14392524D02*
X10254048Y-14411571D01*
X10254048Y-14411571D02*
X10263572Y-14449667D01*
X10263572Y-14449667D02*
X10263572Y-14497286D01*
X10263572Y-14497286D02*
X10254048Y-14535381D01*
X10254048Y-14535381D02*
X10244524Y-14554428D01*
X10244524Y-14554428D02*
X10235000Y-14563952D01*
X10235000Y-14563952D02*
X10215953Y-14573476D01*
X10215953Y-14573476D02*
X10196905Y-14573476D01*
X10196905Y-14573476D02*
X10177857Y-14563952D01*
X10177857Y-14563952D02*
X10168333Y-14554428D01*
X10168333Y-14554428D02*
X10158810Y-14535381D01*
X10158810Y-14535381D02*
X10149286Y-14497286D01*
X10149286Y-14497286D02*
X10149286Y-14449667D01*
X10149286Y-14449667D02*
X10158810Y-14411571D01*
X10158810Y-14411571D02*
X10168333Y-14392524D01*
X10168333Y-14392524D02*
X10177857Y-14383000D01*
X10177857Y-14383000D02*
X10196905Y-14373476D01*
X10330238Y-14373476D02*
X10463572Y-14373476D01*
X10463572Y-14373476D02*
X10377857Y-14573476D01*
X10549286Y-14573476D02*
X10587381Y-14573476D01*
X10587381Y-14573476D02*
X10606429Y-14563952D01*
X10606429Y-14563952D02*
X10615953Y-14554428D01*
X10615953Y-14554428D02*
X10635000Y-14525857D01*
X10635000Y-14525857D02*
X10644524Y-14487762D01*
X10644524Y-14487762D02*
X10644524Y-14411571D01*
X10644524Y-14411571D02*
X10635000Y-14392524D01*
X10635000Y-14392524D02*
X10625476Y-14383000D01*
X10625476Y-14383000D02*
X10606429Y-14373476D01*
X10606429Y-14373476D02*
X10568333Y-14373476D01*
X10568333Y-14373476D02*
X10549286Y-14383000D01*
X10549286Y-14383000D02*
X10539762Y-14392524D01*
X10539762Y-14392524D02*
X10530238Y-14411571D01*
X10530238Y-14411571D02*
X10530238Y-14459190D01*
X10530238Y-14459190D02*
X10539762Y-14478238D01*
X10539762Y-14478238D02*
X10549286Y-14487762D01*
X10549286Y-14487762D02*
X10568333Y-14497286D01*
X10568333Y-14497286D02*
X10606429Y-14497286D01*
X10606429Y-14497286D02*
X10625476Y-14487762D01*
X10625476Y-14487762D02*
X10635000Y-14478238D01*
X10635000Y-14478238D02*
X10644524Y-14459190D01*
X10720714Y-14373476D02*
X10720714Y-14411571D01*
X10796905Y-14373476D02*
X10796905Y-14411571D01*
X11059762Y-14649667D02*
X11050238Y-14640143D01*
X11050238Y-14640143D02*
X11031191Y-14611571D01*
X11031191Y-14611571D02*
X11021667Y-14592524D01*
X11021667Y-14592524D02*
X11012143Y-14563952D01*
X11012143Y-14563952D02*
X11002619Y-14516333D01*
X11002619Y-14516333D02*
X11002619Y-14478238D01*
X11002619Y-14478238D02*
X11012143Y-14430619D01*
X11012143Y-14430619D02*
X11021667Y-14402048D01*
X11021667Y-14402048D02*
X11031191Y-14383000D01*
X11031191Y-14383000D02*
X11050238Y-14354428D01*
X11050238Y-14354428D02*
X11059762Y-14344905D01*
X11221667Y-14373476D02*
X11183572Y-14373476D01*
X11183572Y-14373476D02*
X11164524Y-14383000D01*
X11164524Y-14383000D02*
X11155000Y-14392524D01*
X11155000Y-14392524D02*
X11135953Y-14421095D01*
X11135953Y-14421095D02*
X11126429Y-14459190D01*
X11126429Y-14459190D02*
X11126429Y-14535381D01*
X11126429Y-14535381D02*
X11135953Y-14554428D01*
X11135953Y-14554428D02*
X11145476Y-14563952D01*
X11145476Y-14563952D02*
X11164524Y-14573476D01*
X11164524Y-14573476D02*
X11202619Y-14573476D01*
X11202619Y-14573476D02*
X11221667Y-14563952D01*
X11221667Y-14563952D02*
X11231191Y-14554428D01*
X11231191Y-14554428D02*
X11240714Y-14535381D01*
X11240714Y-14535381D02*
X11240714Y-14487762D01*
X11240714Y-14487762D02*
X11231191Y-14468714D01*
X11231191Y-14468714D02*
X11221667Y-14459190D01*
X11221667Y-14459190D02*
X11202619Y-14449667D01*
X11202619Y-14449667D02*
X11164524Y-14449667D01*
X11164524Y-14449667D02*
X11145476Y-14459190D01*
X11145476Y-14459190D02*
X11135953Y-14468714D01*
X11135953Y-14468714D02*
X11126429Y-14487762D01*
X11446429Y-14573476D02*
X11446429Y-14373476D01*
X11532143Y-14573476D02*
X11532143Y-14468714D01*
X11532143Y-14468714D02*
X11522619Y-14449667D01*
X11522619Y-14449667D02*
X11503572Y-14440143D01*
X11503572Y-14440143D02*
X11475000Y-14440143D01*
X11475000Y-14440143D02*
X11455952Y-14449667D01*
X11455952Y-14449667D02*
X11446429Y-14459190D01*
X11655952Y-14573476D02*
X11636905Y-14563952D01*
X11636905Y-14563952D02*
X11627381Y-14554428D01*
X11627381Y-14554428D02*
X11617857Y-14535381D01*
X11617857Y-14535381D02*
X11617857Y-14478238D01*
X11617857Y-14478238D02*
X11627381Y-14459190D01*
X11627381Y-14459190D02*
X11636905Y-14449667D01*
X11636905Y-14449667D02*
X11655952Y-14440143D01*
X11655952Y-14440143D02*
X11684524Y-14440143D01*
X11684524Y-14440143D02*
X11703572Y-14449667D01*
X11703572Y-14449667D02*
X11713095Y-14459190D01*
X11713095Y-14459190D02*
X11722619Y-14478238D01*
X11722619Y-14478238D02*
X11722619Y-14535381D01*
X11722619Y-14535381D02*
X11713095Y-14554428D01*
X11713095Y-14554428D02*
X11703572Y-14563952D01*
X11703572Y-14563952D02*
X11684524Y-14573476D01*
X11684524Y-14573476D02*
X11655952Y-14573476D01*
X11836905Y-14573476D02*
X11817857Y-14563952D01*
X11817857Y-14563952D02*
X11808333Y-14544905D01*
X11808333Y-14544905D02*
X11808333Y-14373476D01*
X11989286Y-14563952D02*
X11970238Y-14573476D01*
X11970238Y-14573476D02*
X11932143Y-14573476D01*
X11932143Y-14573476D02*
X11913095Y-14563952D01*
X11913095Y-14563952D02*
X11903572Y-14544905D01*
X11903572Y-14544905D02*
X11903572Y-14468714D01*
X11903572Y-14468714D02*
X11913095Y-14449667D01*
X11913095Y-14449667D02*
X11932143Y-14440143D01*
X11932143Y-14440143D02*
X11970238Y-14440143D01*
X11970238Y-14440143D02*
X11989286Y-14449667D01*
X11989286Y-14449667D02*
X11998810Y-14468714D01*
X11998810Y-14468714D02*
X11998810Y-14487762D01*
X11998810Y-14487762D02*
X11903572Y-14506809D01*
X12075000Y-14563952D02*
X12094048Y-14573476D01*
X12094048Y-14573476D02*
X12132143Y-14573476D01*
X12132143Y-14573476D02*
X12151191Y-14563952D01*
X12151191Y-14563952D02*
X12160714Y-14544905D01*
X12160714Y-14544905D02*
X12160714Y-14535381D01*
X12160714Y-14535381D02*
X12151191Y-14516333D01*
X12151191Y-14516333D02*
X12132143Y-14506809D01*
X12132143Y-14506809D02*
X12103572Y-14506809D01*
X12103572Y-14506809D02*
X12084524Y-14497286D01*
X12084524Y-14497286D02*
X12075000Y-14478238D01*
X12075000Y-14478238D02*
X12075000Y-14468714D01*
X12075000Y-14468714D02*
X12084524Y-14449667D01*
X12084524Y-14449667D02*
X12103572Y-14440143D01*
X12103572Y-14440143D02*
X12132143Y-14440143D01*
X12132143Y-14440143D02*
X12151191Y-14449667D01*
X12227381Y-14649667D02*
X12236905Y-14640143D01*
X12236905Y-14640143D02*
X12255953Y-14611571D01*
X12255953Y-14611571D02*
X12265476Y-14592524D01*
X12265476Y-14592524D02*
X12275000Y-14563952D01*
X12275000Y-14563952D02*
X12284524Y-14516333D01*
X12284524Y-14516333D02*
X12284524Y-14478238D01*
X12284524Y-14478238D02*
X12275000Y-14430619D01*
X12275000Y-14430619D02*
X12265476Y-14402048D01*
X12265476Y-14402048D02*
X12255953Y-14383000D01*
X12255953Y-14383000D02*
X12236905Y-14354428D01*
X12236905Y-14354428D02*
X12227381Y-14344905D01*
D13*
X7595000Y-14764000D02*
G75*
G03*
X7595000Y-14764000I-15000J0D01*
G01*
D11*
X7880714Y-14637476D02*
X7899762Y-14637476D01*
X7899762Y-14637476D02*
X7918809Y-14647000D01*
X7918809Y-14647000D02*
X7928333Y-14656524D01*
X7928333Y-14656524D02*
X7937857Y-14675571D01*
X7937857Y-14675571D02*
X7947381Y-14713667D01*
X7947381Y-14713667D02*
X7947381Y-14761286D01*
X7947381Y-14761286D02*
X7937857Y-14799381D01*
X7937857Y-14799381D02*
X7928333Y-14818428D01*
X7928333Y-14818428D02*
X7918809Y-14827952D01*
X7918809Y-14827952D02*
X7899762Y-14837476D01*
X7899762Y-14837476D02*
X7880714Y-14837476D01*
X7880714Y-14837476D02*
X7861667Y-14827952D01*
X7861667Y-14827952D02*
X7852143Y-14818428D01*
X7852143Y-14818428D02*
X7842619Y-14799381D01*
X7842619Y-14799381D02*
X7833095Y-14761286D01*
X7833095Y-14761286D02*
X7833095Y-14713667D01*
X7833095Y-14713667D02*
X7842619Y-14675571D01*
X7842619Y-14675571D02*
X7852143Y-14656524D01*
X7852143Y-14656524D02*
X7861667Y-14647000D01*
X7861667Y-14647000D02*
X7880714Y-14637476D01*
X8033095Y-14818428D02*
X8042619Y-14827952D01*
X8042619Y-14827952D02*
X8033095Y-14837476D01*
X8033095Y-14837476D02*
X8023571Y-14827952D01*
X8023571Y-14827952D02*
X8033095Y-14818428D01*
X8033095Y-14818428D02*
X8033095Y-14837476D01*
X8109286Y-14637476D02*
X8233095Y-14637476D01*
X8233095Y-14637476D02*
X8166428Y-14713667D01*
X8166428Y-14713667D02*
X8195000Y-14713667D01*
X8195000Y-14713667D02*
X8214048Y-14723190D01*
X8214048Y-14723190D02*
X8223571Y-14732714D01*
X8223571Y-14732714D02*
X8233095Y-14751762D01*
X8233095Y-14751762D02*
X8233095Y-14799381D01*
X8233095Y-14799381D02*
X8223571Y-14818428D01*
X8223571Y-14818428D02*
X8214048Y-14827952D01*
X8214048Y-14827952D02*
X8195000Y-14837476D01*
X8195000Y-14837476D02*
X8137857Y-14837476D01*
X8137857Y-14837476D02*
X8118809Y-14827952D01*
X8118809Y-14827952D02*
X8109286Y-14818428D01*
X8356905Y-14637476D02*
X8375952Y-14637476D01*
X8375952Y-14637476D02*
X8395000Y-14647000D01*
X8395000Y-14647000D02*
X8404524Y-14656524D01*
X8404524Y-14656524D02*
X8414048Y-14675571D01*
X8414048Y-14675571D02*
X8423571Y-14713667D01*
X8423571Y-14713667D02*
X8423571Y-14761286D01*
X8423571Y-14761286D02*
X8414048Y-14799381D01*
X8414048Y-14799381D02*
X8404524Y-14818428D01*
X8404524Y-14818428D02*
X8395000Y-14827952D01*
X8395000Y-14827952D02*
X8375952Y-14837476D01*
X8375952Y-14837476D02*
X8356905Y-14837476D01*
X8356905Y-14837476D02*
X8337857Y-14827952D01*
X8337857Y-14827952D02*
X8328333Y-14818428D01*
X8328333Y-14818428D02*
X8318809Y-14799381D01*
X8318809Y-14799381D02*
X8309286Y-14761286D01*
X8309286Y-14761286D02*
X8309286Y-14713667D01*
X8309286Y-14713667D02*
X8318809Y-14675571D01*
X8318809Y-14675571D02*
X8328333Y-14656524D01*
X8328333Y-14656524D02*
X8337857Y-14647000D01*
X8337857Y-14647000D02*
X8356905Y-14637476D01*
X8547381Y-14637476D02*
X8566429Y-14637476D01*
X8566429Y-14637476D02*
X8585476Y-14647000D01*
X8585476Y-14647000D02*
X8595000Y-14656524D01*
X8595000Y-14656524D02*
X8604524Y-14675571D01*
X8604524Y-14675571D02*
X8614048Y-14713667D01*
X8614048Y-14713667D02*
X8614048Y-14761286D01*
X8614048Y-14761286D02*
X8604524Y-14799381D01*
X8604524Y-14799381D02*
X8595000Y-14818428D01*
X8595000Y-14818428D02*
X8585476Y-14827952D01*
X8585476Y-14827952D02*
X8566429Y-14837476D01*
X8566429Y-14837476D02*
X8547381Y-14837476D01*
X8547381Y-14837476D02*
X8528333Y-14827952D01*
X8528333Y-14827952D02*
X8518810Y-14818428D01*
X8518810Y-14818428D02*
X8509286Y-14799381D01*
X8509286Y-14799381D02*
X8499762Y-14761286D01*
X8499762Y-14761286D02*
X8499762Y-14713667D01*
X8499762Y-14713667D02*
X8509286Y-14675571D01*
X8509286Y-14675571D02*
X8518810Y-14656524D01*
X8518810Y-14656524D02*
X8528333Y-14647000D01*
X8528333Y-14647000D02*
X8547381Y-14637476D01*
X8699762Y-14837476D02*
X8699762Y-14704143D01*
X8699762Y-14723190D02*
X8709286Y-14713667D01*
X8709286Y-14713667D02*
X8728333Y-14704143D01*
X8728333Y-14704143D02*
X8756905Y-14704143D01*
X8756905Y-14704143D02*
X8775952Y-14713667D01*
X8775952Y-14713667D02*
X8785476Y-14732714D01*
X8785476Y-14732714D02*
X8785476Y-14837476D01*
X8785476Y-14732714D02*
X8795000Y-14713667D01*
X8795000Y-14713667D02*
X8814048Y-14704143D01*
X8814048Y-14704143D02*
X8842619Y-14704143D01*
X8842619Y-14704143D02*
X8861667Y-14713667D01*
X8861667Y-14713667D02*
X8871191Y-14732714D01*
X8871191Y-14732714D02*
X8871191Y-14837476D01*
X8966429Y-14837476D02*
X8966429Y-14704143D01*
X8966429Y-14723190D02*
X8975952Y-14713667D01*
X8975952Y-14713667D02*
X8995000Y-14704143D01*
X8995000Y-14704143D02*
X9023572Y-14704143D01*
X9023572Y-14704143D02*
X9042619Y-14713667D01*
X9042619Y-14713667D02*
X9052143Y-14732714D01*
X9052143Y-14732714D02*
X9052143Y-14837476D01*
X9052143Y-14732714D02*
X9061667Y-14713667D01*
X9061667Y-14713667D02*
X9080714Y-14704143D01*
X9080714Y-14704143D02*
X9109286Y-14704143D01*
X9109286Y-14704143D02*
X9128333Y-14713667D01*
X9128333Y-14713667D02*
X9137857Y-14732714D01*
X9137857Y-14732714D02*
X9137857Y-14837476D01*
X9495952Y-14627952D02*
X9324524Y-14885095D01*
X9720714Y-14637476D02*
X9739762Y-14637476D01*
X9739762Y-14637476D02*
X9758810Y-14647000D01*
X9758810Y-14647000D02*
X9768333Y-14656524D01*
X9768333Y-14656524D02*
X9777857Y-14675571D01*
X9777857Y-14675571D02*
X9787381Y-14713667D01*
X9787381Y-14713667D02*
X9787381Y-14761286D01*
X9787381Y-14761286D02*
X9777857Y-14799381D01*
X9777857Y-14799381D02*
X9768333Y-14818428D01*
X9768333Y-14818428D02*
X9758810Y-14827952D01*
X9758810Y-14827952D02*
X9739762Y-14837476D01*
X9739762Y-14837476D02*
X9720714Y-14837476D01*
X9720714Y-14837476D02*
X9701667Y-14827952D01*
X9701667Y-14827952D02*
X9692143Y-14818428D01*
X9692143Y-14818428D02*
X9682619Y-14799381D01*
X9682619Y-14799381D02*
X9673095Y-14761286D01*
X9673095Y-14761286D02*
X9673095Y-14713667D01*
X9673095Y-14713667D02*
X9682619Y-14675571D01*
X9682619Y-14675571D02*
X9692143Y-14656524D01*
X9692143Y-14656524D02*
X9701667Y-14647000D01*
X9701667Y-14647000D02*
X9720714Y-14637476D01*
X9873095Y-14818428D02*
X9882619Y-14827952D01*
X9882619Y-14827952D02*
X9873095Y-14837476D01*
X9873095Y-14837476D02*
X9863572Y-14827952D01*
X9863572Y-14827952D02*
X9873095Y-14818428D01*
X9873095Y-14818428D02*
X9873095Y-14837476D01*
X10006429Y-14637476D02*
X10025476Y-14637476D01*
X10025476Y-14637476D02*
X10044524Y-14647000D01*
X10044524Y-14647000D02*
X10054048Y-14656524D01*
X10054048Y-14656524D02*
X10063572Y-14675571D01*
X10063572Y-14675571D02*
X10073095Y-14713667D01*
X10073095Y-14713667D02*
X10073095Y-14761286D01*
X10073095Y-14761286D02*
X10063572Y-14799381D01*
X10063572Y-14799381D02*
X10054048Y-14818428D01*
X10054048Y-14818428D02*
X10044524Y-14827952D01*
X10044524Y-14827952D02*
X10025476Y-14837476D01*
X10025476Y-14837476D02*
X10006429Y-14837476D01*
X10006429Y-14837476D02*
X9987381Y-14827952D01*
X9987381Y-14827952D02*
X9977857Y-14818428D01*
X9977857Y-14818428D02*
X9968333Y-14799381D01*
X9968333Y-14799381D02*
X9958810Y-14761286D01*
X9958810Y-14761286D02*
X9958810Y-14713667D01*
X9958810Y-14713667D02*
X9968333Y-14675571D01*
X9968333Y-14675571D02*
X9977857Y-14656524D01*
X9977857Y-14656524D02*
X9987381Y-14647000D01*
X9987381Y-14647000D02*
X10006429Y-14637476D01*
X10263572Y-14837476D02*
X10149286Y-14837476D01*
X10206429Y-14837476D02*
X10206429Y-14637476D01*
X10206429Y-14637476D02*
X10187381Y-14666048D01*
X10187381Y-14666048D02*
X10168333Y-14685095D01*
X10168333Y-14685095D02*
X10149286Y-14694619D01*
X10454048Y-14837476D02*
X10339762Y-14837476D01*
X10396905Y-14837476D02*
X10396905Y-14637476D01*
X10396905Y-14637476D02*
X10377857Y-14666048D01*
X10377857Y-14666048D02*
X10358810Y-14685095D01*
X10358810Y-14685095D02*
X10339762Y-14694619D01*
X10568333Y-14723190D02*
X10549286Y-14713667D01*
X10549286Y-14713667D02*
X10539762Y-14704143D01*
X10539762Y-14704143D02*
X10530238Y-14685095D01*
X10530238Y-14685095D02*
X10530238Y-14675571D01*
X10530238Y-14675571D02*
X10539762Y-14656524D01*
X10539762Y-14656524D02*
X10549286Y-14647000D01*
X10549286Y-14647000D02*
X10568333Y-14637476D01*
X10568333Y-14637476D02*
X10606429Y-14637476D01*
X10606429Y-14637476D02*
X10625476Y-14647000D01*
X10625476Y-14647000D02*
X10635000Y-14656524D01*
X10635000Y-14656524D02*
X10644524Y-14675571D01*
X10644524Y-14675571D02*
X10644524Y-14685095D01*
X10644524Y-14685095D02*
X10635000Y-14704143D01*
X10635000Y-14704143D02*
X10625476Y-14713667D01*
X10625476Y-14713667D02*
X10606429Y-14723190D01*
X10606429Y-14723190D02*
X10568333Y-14723190D01*
X10568333Y-14723190D02*
X10549286Y-14732714D01*
X10549286Y-14732714D02*
X10539762Y-14742238D01*
X10539762Y-14742238D02*
X10530238Y-14761286D01*
X10530238Y-14761286D02*
X10530238Y-14799381D01*
X10530238Y-14799381D02*
X10539762Y-14818428D01*
X10539762Y-14818428D02*
X10549286Y-14827952D01*
X10549286Y-14827952D02*
X10568333Y-14837476D01*
X10568333Y-14837476D02*
X10606429Y-14837476D01*
X10606429Y-14837476D02*
X10625476Y-14827952D01*
X10625476Y-14827952D02*
X10635000Y-14818428D01*
X10635000Y-14818428D02*
X10644524Y-14799381D01*
X10644524Y-14799381D02*
X10644524Y-14761286D01*
X10644524Y-14761286D02*
X10635000Y-14742238D01*
X10635000Y-14742238D02*
X10625476Y-14732714D01*
X10625476Y-14732714D02*
X10606429Y-14723190D01*
X10720714Y-14637476D02*
X10720714Y-14675571D01*
X10796905Y-14637476D02*
X10796905Y-14675571D01*
X11059762Y-14913667D02*
X11050238Y-14904143D01*
X11050238Y-14904143D02*
X11031191Y-14875571D01*
X11031191Y-14875571D02*
X11021667Y-14856524D01*
X11021667Y-14856524D02*
X11012143Y-14827952D01*
X11012143Y-14827952D02*
X11002619Y-14780333D01*
X11002619Y-14780333D02*
X11002619Y-14742238D01*
X11002619Y-14742238D02*
X11012143Y-14694619D01*
X11012143Y-14694619D02*
X11021667Y-14666048D01*
X11021667Y-14666048D02*
X11031191Y-14647000D01*
X11031191Y-14647000D02*
X11050238Y-14618428D01*
X11050238Y-14618428D02*
X11059762Y-14608905D01*
X11221667Y-14637476D02*
X11183572Y-14637476D01*
X11183572Y-14637476D02*
X11164524Y-14647000D01*
X11164524Y-14647000D02*
X11155000Y-14656524D01*
X11155000Y-14656524D02*
X11135953Y-14685095D01*
X11135953Y-14685095D02*
X11126429Y-14723190D01*
X11126429Y-14723190D02*
X11126429Y-14799381D01*
X11126429Y-14799381D02*
X11135953Y-14818428D01*
X11135953Y-14818428D02*
X11145476Y-14827952D01*
X11145476Y-14827952D02*
X11164524Y-14837476D01*
X11164524Y-14837476D02*
X11202619Y-14837476D01*
X11202619Y-14837476D02*
X11221667Y-14827952D01*
X11221667Y-14827952D02*
X11231191Y-14818428D01*
X11231191Y-14818428D02*
X11240714Y-14799381D01*
X11240714Y-14799381D02*
X11240714Y-14751762D01*
X11240714Y-14751762D02*
X11231191Y-14732714D01*
X11231191Y-14732714D02*
X11221667Y-14723190D01*
X11221667Y-14723190D02*
X11202619Y-14713667D01*
X11202619Y-14713667D02*
X11164524Y-14713667D01*
X11164524Y-14713667D02*
X11145476Y-14723190D01*
X11145476Y-14723190D02*
X11135953Y-14732714D01*
X11135953Y-14732714D02*
X11126429Y-14751762D01*
X11421667Y-14637476D02*
X11326429Y-14637476D01*
X11326429Y-14637476D02*
X11316905Y-14732714D01*
X11316905Y-14732714D02*
X11326429Y-14723190D01*
X11326429Y-14723190D02*
X11345476Y-14713667D01*
X11345476Y-14713667D02*
X11393095Y-14713667D01*
X11393095Y-14713667D02*
X11412143Y-14723190D01*
X11412143Y-14723190D02*
X11421667Y-14732714D01*
X11421667Y-14732714D02*
X11431191Y-14751762D01*
X11431191Y-14751762D02*
X11431191Y-14799381D01*
X11431191Y-14799381D02*
X11421667Y-14818428D01*
X11421667Y-14818428D02*
X11412143Y-14827952D01*
X11412143Y-14827952D02*
X11393095Y-14837476D01*
X11393095Y-14837476D02*
X11345476Y-14837476D01*
X11345476Y-14837476D02*
X11326429Y-14827952D01*
X11326429Y-14827952D02*
X11316905Y-14818428D01*
X11636905Y-14837476D02*
X11636905Y-14637476D01*
X11722619Y-14837476D02*
X11722619Y-14732714D01*
X11722619Y-14732714D02*
X11713095Y-14713667D01*
X11713095Y-14713667D02*
X11694048Y-14704143D01*
X11694048Y-14704143D02*
X11665476Y-14704143D01*
X11665476Y-14704143D02*
X11646429Y-14713667D01*
X11646429Y-14713667D02*
X11636905Y-14723190D01*
X11846429Y-14837476D02*
X11827381Y-14827952D01*
X11827381Y-14827952D02*
X11817857Y-14818428D01*
X11817857Y-14818428D02*
X11808333Y-14799381D01*
X11808333Y-14799381D02*
X11808333Y-14742238D01*
X11808333Y-14742238D02*
X11817857Y-14723190D01*
X11817857Y-14723190D02*
X11827381Y-14713667D01*
X11827381Y-14713667D02*
X11846429Y-14704143D01*
X11846429Y-14704143D02*
X11875000Y-14704143D01*
X11875000Y-14704143D02*
X11894048Y-14713667D01*
X11894048Y-14713667D02*
X11903572Y-14723190D01*
X11903572Y-14723190D02*
X11913095Y-14742238D01*
X11913095Y-14742238D02*
X11913095Y-14799381D01*
X11913095Y-14799381D02*
X11903572Y-14818428D01*
X11903572Y-14818428D02*
X11894048Y-14827952D01*
X11894048Y-14827952D02*
X11875000Y-14837476D01*
X11875000Y-14837476D02*
X11846429Y-14837476D01*
X12027381Y-14837476D02*
X12008333Y-14827952D01*
X12008333Y-14827952D02*
X11998810Y-14808905D01*
X11998810Y-14808905D02*
X11998810Y-14637476D01*
X12179762Y-14827952D02*
X12160714Y-14837476D01*
X12160714Y-14837476D02*
X12122619Y-14837476D01*
X12122619Y-14837476D02*
X12103572Y-14827952D01*
X12103572Y-14827952D02*
X12094048Y-14808905D01*
X12094048Y-14808905D02*
X12094048Y-14732714D01*
X12094048Y-14732714D02*
X12103572Y-14713667D01*
X12103572Y-14713667D02*
X12122619Y-14704143D01*
X12122619Y-14704143D02*
X12160714Y-14704143D01*
X12160714Y-14704143D02*
X12179762Y-14713667D01*
X12179762Y-14713667D02*
X12189286Y-14732714D01*
X12189286Y-14732714D02*
X12189286Y-14751762D01*
X12189286Y-14751762D02*
X12094048Y-14770809D01*
X12265476Y-14827952D02*
X12284524Y-14837476D01*
X12284524Y-14837476D02*
X12322619Y-14837476D01*
X12322619Y-14837476D02*
X12341667Y-14827952D01*
X12341667Y-14827952D02*
X12351191Y-14808905D01*
X12351191Y-14808905D02*
X12351191Y-14799381D01*
X12351191Y-14799381D02*
X12341667Y-14780333D01*
X12341667Y-14780333D02*
X12322619Y-14770809D01*
X12322619Y-14770809D02*
X12294048Y-14770809D01*
X12294048Y-14770809D02*
X12275000Y-14761286D01*
X12275000Y-14761286D02*
X12265476Y-14742238D01*
X12265476Y-14742238D02*
X12265476Y-14732714D01*
X12265476Y-14732714D02*
X12275000Y-14713667D01*
X12275000Y-14713667D02*
X12294048Y-14704143D01*
X12294048Y-14704143D02*
X12322619Y-14704143D01*
X12322619Y-14704143D02*
X12341667Y-14713667D01*
X12417857Y-14913667D02*
X12427381Y-14904143D01*
X12427381Y-14904143D02*
X12446429Y-14875571D01*
X12446429Y-14875571D02*
X12455953Y-14856524D01*
X12455953Y-14856524D02*
X12465476Y-14827952D01*
X12465476Y-14827952D02*
X12475000Y-14780333D01*
X12475000Y-14780333D02*
X12475000Y-14742238D01*
X12475000Y-14742238D02*
X12465476Y-14694619D01*
X12465476Y-14694619D02*
X12455953Y-14666048D01*
X12455953Y-14666048D02*
X12446429Y-14647000D01*
X12446429Y-14647000D02*
X12427381Y-14618428D01*
X12427381Y-14618428D02*
X12417857Y-14608905D01*
D13*
X7580000Y-15013000D02*
X7580000Y-15043000D01*
X7565000Y-15028000D02*
X7595000Y-15028000D01*
D11*
X7880714Y-14901476D02*
X7899762Y-14901476D01*
X7899762Y-14901476D02*
X7918809Y-14911000D01*
X7918809Y-14911000D02*
X7928333Y-14920524D01*
X7928333Y-14920524D02*
X7937857Y-14939571D01*
X7937857Y-14939571D02*
X7947381Y-14977667D01*
X7947381Y-14977667D02*
X7947381Y-15025286D01*
X7947381Y-15025286D02*
X7937857Y-15063381D01*
X7937857Y-15063381D02*
X7928333Y-15082428D01*
X7928333Y-15082428D02*
X7918809Y-15091952D01*
X7918809Y-15091952D02*
X7899762Y-15101476D01*
X7899762Y-15101476D02*
X7880714Y-15101476D01*
X7880714Y-15101476D02*
X7861667Y-15091952D01*
X7861667Y-15091952D02*
X7852143Y-15082428D01*
X7852143Y-15082428D02*
X7842619Y-15063381D01*
X7842619Y-15063381D02*
X7833095Y-15025286D01*
X7833095Y-15025286D02*
X7833095Y-14977667D01*
X7833095Y-14977667D02*
X7842619Y-14939571D01*
X7842619Y-14939571D02*
X7852143Y-14920524D01*
X7852143Y-14920524D02*
X7861667Y-14911000D01*
X7861667Y-14911000D02*
X7880714Y-14901476D01*
X8033095Y-15082428D02*
X8042619Y-15091952D01*
X8042619Y-15091952D02*
X8033095Y-15101476D01*
X8033095Y-15101476D02*
X8023571Y-15091952D01*
X8023571Y-15091952D02*
X8033095Y-15082428D01*
X8033095Y-15082428D02*
X8033095Y-15101476D01*
X8109286Y-14901476D02*
X8233095Y-14901476D01*
X8233095Y-14901476D02*
X8166428Y-14977667D01*
X8166428Y-14977667D02*
X8195000Y-14977667D01*
X8195000Y-14977667D02*
X8214048Y-14987190D01*
X8214048Y-14987190D02*
X8223571Y-14996714D01*
X8223571Y-14996714D02*
X8233095Y-15015762D01*
X8233095Y-15015762D02*
X8233095Y-15063381D01*
X8233095Y-15063381D02*
X8223571Y-15082428D01*
X8223571Y-15082428D02*
X8214048Y-15091952D01*
X8214048Y-15091952D02*
X8195000Y-15101476D01*
X8195000Y-15101476D02*
X8137857Y-15101476D01*
X8137857Y-15101476D02*
X8118809Y-15091952D01*
X8118809Y-15091952D02*
X8109286Y-15082428D01*
X8356905Y-14901476D02*
X8375952Y-14901476D01*
X8375952Y-14901476D02*
X8395000Y-14911000D01*
X8395000Y-14911000D02*
X8404524Y-14920524D01*
X8404524Y-14920524D02*
X8414048Y-14939571D01*
X8414048Y-14939571D02*
X8423571Y-14977667D01*
X8423571Y-14977667D02*
X8423571Y-15025286D01*
X8423571Y-15025286D02*
X8414048Y-15063381D01*
X8414048Y-15063381D02*
X8404524Y-15082428D01*
X8404524Y-15082428D02*
X8395000Y-15091952D01*
X8395000Y-15091952D02*
X8375952Y-15101476D01*
X8375952Y-15101476D02*
X8356905Y-15101476D01*
X8356905Y-15101476D02*
X8337857Y-15091952D01*
X8337857Y-15091952D02*
X8328333Y-15082428D01*
X8328333Y-15082428D02*
X8318809Y-15063381D01*
X8318809Y-15063381D02*
X8309286Y-15025286D01*
X8309286Y-15025286D02*
X8309286Y-14977667D01*
X8309286Y-14977667D02*
X8318809Y-14939571D01*
X8318809Y-14939571D02*
X8328333Y-14920524D01*
X8328333Y-14920524D02*
X8337857Y-14911000D01*
X8337857Y-14911000D02*
X8356905Y-14901476D01*
X8547381Y-14901476D02*
X8566429Y-14901476D01*
X8566429Y-14901476D02*
X8585476Y-14911000D01*
X8585476Y-14911000D02*
X8595000Y-14920524D01*
X8595000Y-14920524D02*
X8604524Y-14939571D01*
X8604524Y-14939571D02*
X8614048Y-14977667D01*
X8614048Y-14977667D02*
X8614048Y-15025286D01*
X8614048Y-15025286D02*
X8604524Y-15063381D01*
X8604524Y-15063381D02*
X8595000Y-15082428D01*
X8595000Y-15082428D02*
X8585476Y-15091952D01*
X8585476Y-15091952D02*
X8566429Y-15101476D01*
X8566429Y-15101476D02*
X8547381Y-15101476D01*
X8547381Y-15101476D02*
X8528333Y-15091952D01*
X8528333Y-15091952D02*
X8518810Y-15082428D01*
X8518810Y-15082428D02*
X8509286Y-15063381D01*
X8509286Y-15063381D02*
X8499762Y-15025286D01*
X8499762Y-15025286D02*
X8499762Y-14977667D01*
X8499762Y-14977667D02*
X8509286Y-14939571D01*
X8509286Y-14939571D02*
X8518810Y-14920524D01*
X8518810Y-14920524D02*
X8528333Y-14911000D01*
X8528333Y-14911000D02*
X8547381Y-14901476D01*
X8699762Y-15101476D02*
X8699762Y-14968143D01*
X8699762Y-14987190D02*
X8709286Y-14977667D01*
X8709286Y-14977667D02*
X8728333Y-14968143D01*
X8728333Y-14968143D02*
X8756905Y-14968143D01*
X8756905Y-14968143D02*
X8775952Y-14977667D01*
X8775952Y-14977667D02*
X8785476Y-14996714D01*
X8785476Y-14996714D02*
X8785476Y-15101476D01*
X8785476Y-14996714D02*
X8795000Y-14977667D01*
X8795000Y-14977667D02*
X8814048Y-14968143D01*
X8814048Y-14968143D02*
X8842619Y-14968143D01*
X8842619Y-14968143D02*
X8861667Y-14977667D01*
X8861667Y-14977667D02*
X8871191Y-14996714D01*
X8871191Y-14996714D02*
X8871191Y-15101476D01*
X8966429Y-15101476D02*
X8966429Y-14968143D01*
X8966429Y-14987190D02*
X8975952Y-14977667D01*
X8975952Y-14977667D02*
X8995000Y-14968143D01*
X8995000Y-14968143D02*
X9023572Y-14968143D01*
X9023572Y-14968143D02*
X9042619Y-14977667D01*
X9042619Y-14977667D02*
X9052143Y-14996714D01*
X9052143Y-14996714D02*
X9052143Y-15101476D01*
X9052143Y-14996714D02*
X9061667Y-14977667D01*
X9061667Y-14977667D02*
X9080714Y-14968143D01*
X9080714Y-14968143D02*
X9109286Y-14968143D01*
X9109286Y-14968143D02*
X9128333Y-14977667D01*
X9128333Y-14977667D02*
X9137857Y-14996714D01*
X9137857Y-14996714D02*
X9137857Y-15101476D01*
X9495952Y-14891952D02*
X9324524Y-15149095D01*
X9720714Y-14901476D02*
X9739762Y-14901476D01*
X9739762Y-14901476D02*
X9758810Y-14911000D01*
X9758810Y-14911000D02*
X9768333Y-14920524D01*
X9768333Y-14920524D02*
X9777857Y-14939571D01*
X9777857Y-14939571D02*
X9787381Y-14977667D01*
X9787381Y-14977667D02*
X9787381Y-15025286D01*
X9787381Y-15025286D02*
X9777857Y-15063381D01*
X9777857Y-15063381D02*
X9768333Y-15082428D01*
X9768333Y-15082428D02*
X9758810Y-15091952D01*
X9758810Y-15091952D02*
X9739762Y-15101476D01*
X9739762Y-15101476D02*
X9720714Y-15101476D01*
X9720714Y-15101476D02*
X9701667Y-15091952D01*
X9701667Y-15091952D02*
X9692143Y-15082428D01*
X9692143Y-15082428D02*
X9682619Y-15063381D01*
X9682619Y-15063381D02*
X9673095Y-15025286D01*
X9673095Y-15025286D02*
X9673095Y-14977667D01*
X9673095Y-14977667D02*
X9682619Y-14939571D01*
X9682619Y-14939571D02*
X9692143Y-14920524D01*
X9692143Y-14920524D02*
X9701667Y-14911000D01*
X9701667Y-14911000D02*
X9720714Y-14901476D01*
X9873095Y-15082428D02*
X9882619Y-15091952D01*
X9882619Y-15091952D02*
X9873095Y-15101476D01*
X9873095Y-15101476D02*
X9863572Y-15091952D01*
X9863572Y-15091952D02*
X9873095Y-15082428D01*
X9873095Y-15082428D02*
X9873095Y-15101476D01*
X10006429Y-14901476D02*
X10025476Y-14901476D01*
X10025476Y-14901476D02*
X10044524Y-14911000D01*
X10044524Y-14911000D02*
X10054048Y-14920524D01*
X10054048Y-14920524D02*
X10063572Y-14939571D01*
X10063572Y-14939571D02*
X10073095Y-14977667D01*
X10073095Y-14977667D02*
X10073095Y-15025286D01*
X10073095Y-15025286D02*
X10063572Y-15063381D01*
X10063572Y-15063381D02*
X10054048Y-15082428D01*
X10054048Y-15082428D02*
X10044524Y-15091952D01*
X10044524Y-15091952D02*
X10025476Y-15101476D01*
X10025476Y-15101476D02*
X10006429Y-15101476D01*
X10006429Y-15101476D02*
X9987381Y-15091952D01*
X9987381Y-15091952D02*
X9977857Y-15082428D01*
X9977857Y-15082428D02*
X9968333Y-15063381D01*
X9968333Y-15063381D02*
X9958810Y-15025286D01*
X9958810Y-15025286D02*
X9958810Y-14977667D01*
X9958810Y-14977667D02*
X9968333Y-14939571D01*
X9968333Y-14939571D02*
X9977857Y-14920524D01*
X9977857Y-14920524D02*
X9987381Y-14911000D01*
X9987381Y-14911000D02*
X10006429Y-14901476D01*
X10263572Y-15101476D02*
X10149286Y-15101476D01*
X10206429Y-15101476D02*
X10206429Y-14901476D01*
X10206429Y-14901476D02*
X10187381Y-14930048D01*
X10187381Y-14930048D02*
X10168333Y-14949095D01*
X10168333Y-14949095D02*
X10149286Y-14958619D01*
X10454048Y-15101476D02*
X10339762Y-15101476D01*
X10396905Y-15101476D02*
X10396905Y-14901476D01*
X10396905Y-14901476D02*
X10377857Y-14930048D01*
X10377857Y-14930048D02*
X10358810Y-14949095D01*
X10358810Y-14949095D02*
X10339762Y-14958619D01*
X10568333Y-14987190D02*
X10549286Y-14977667D01*
X10549286Y-14977667D02*
X10539762Y-14968143D01*
X10539762Y-14968143D02*
X10530238Y-14949095D01*
X10530238Y-14949095D02*
X10530238Y-14939571D01*
X10530238Y-14939571D02*
X10539762Y-14920524D01*
X10539762Y-14920524D02*
X10549286Y-14911000D01*
X10549286Y-14911000D02*
X10568333Y-14901476D01*
X10568333Y-14901476D02*
X10606429Y-14901476D01*
X10606429Y-14901476D02*
X10625476Y-14911000D01*
X10625476Y-14911000D02*
X10635000Y-14920524D01*
X10635000Y-14920524D02*
X10644524Y-14939571D01*
X10644524Y-14939571D02*
X10644524Y-14949095D01*
X10644524Y-14949095D02*
X10635000Y-14968143D01*
X10635000Y-14968143D02*
X10625476Y-14977667D01*
X10625476Y-14977667D02*
X10606429Y-14987190D01*
X10606429Y-14987190D02*
X10568333Y-14987190D01*
X10568333Y-14987190D02*
X10549286Y-14996714D01*
X10549286Y-14996714D02*
X10539762Y-15006238D01*
X10539762Y-15006238D02*
X10530238Y-15025286D01*
X10530238Y-15025286D02*
X10530238Y-15063381D01*
X10530238Y-15063381D02*
X10539762Y-15082428D01*
X10539762Y-15082428D02*
X10549286Y-15091952D01*
X10549286Y-15091952D02*
X10568333Y-15101476D01*
X10568333Y-15101476D02*
X10606429Y-15101476D01*
X10606429Y-15101476D02*
X10625476Y-15091952D01*
X10625476Y-15091952D02*
X10635000Y-15082428D01*
X10635000Y-15082428D02*
X10644524Y-15063381D01*
X10644524Y-15063381D02*
X10644524Y-15025286D01*
X10644524Y-15025286D02*
X10635000Y-15006238D01*
X10635000Y-15006238D02*
X10625476Y-14996714D01*
X10625476Y-14996714D02*
X10606429Y-14987190D01*
X10720714Y-14901476D02*
X10720714Y-14939571D01*
X10796905Y-14901476D02*
X10796905Y-14939571D01*
X11059762Y-15177667D02*
X11050238Y-15168143D01*
X11050238Y-15168143D02*
X11031191Y-15139571D01*
X11031191Y-15139571D02*
X11021667Y-15120524D01*
X11021667Y-15120524D02*
X11012143Y-15091952D01*
X11012143Y-15091952D02*
X11002619Y-15044333D01*
X11002619Y-15044333D02*
X11002619Y-15006238D01*
X11002619Y-15006238D02*
X11012143Y-14958619D01*
X11012143Y-14958619D02*
X11021667Y-14930048D01*
X11021667Y-14930048D02*
X11031191Y-14911000D01*
X11031191Y-14911000D02*
X11050238Y-14882428D01*
X11050238Y-14882428D02*
X11059762Y-14872905D01*
X11221667Y-14901476D02*
X11183572Y-14901476D01*
X11183572Y-14901476D02*
X11164524Y-14911000D01*
X11164524Y-14911000D02*
X11155000Y-14920524D01*
X11155000Y-14920524D02*
X11135953Y-14949095D01*
X11135953Y-14949095D02*
X11126429Y-14987190D01*
X11126429Y-14987190D02*
X11126429Y-15063381D01*
X11126429Y-15063381D02*
X11135953Y-15082428D01*
X11135953Y-15082428D02*
X11145476Y-15091952D01*
X11145476Y-15091952D02*
X11164524Y-15101476D01*
X11164524Y-15101476D02*
X11202619Y-15101476D01*
X11202619Y-15101476D02*
X11221667Y-15091952D01*
X11221667Y-15091952D02*
X11231191Y-15082428D01*
X11231191Y-15082428D02*
X11240714Y-15063381D01*
X11240714Y-15063381D02*
X11240714Y-15015762D01*
X11240714Y-15015762D02*
X11231191Y-14996714D01*
X11231191Y-14996714D02*
X11221667Y-14987190D01*
X11221667Y-14987190D02*
X11202619Y-14977667D01*
X11202619Y-14977667D02*
X11164524Y-14977667D01*
X11164524Y-14977667D02*
X11145476Y-14987190D01*
X11145476Y-14987190D02*
X11135953Y-14996714D01*
X11135953Y-14996714D02*
X11126429Y-15015762D01*
X11412143Y-14968143D02*
X11412143Y-15101476D01*
X11364524Y-14891952D02*
X11316905Y-15034809D01*
X11316905Y-15034809D02*
X11440714Y-15034809D01*
X11636905Y-15101476D02*
X11636905Y-14901476D01*
X11722619Y-15101476D02*
X11722619Y-14996714D01*
X11722619Y-14996714D02*
X11713095Y-14977667D01*
X11713095Y-14977667D02*
X11694048Y-14968143D01*
X11694048Y-14968143D02*
X11665476Y-14968143D01*
X11665476Y-14968143D02*
X11646429Y-14977667D01*
X11646429Y-14977667D02*
X11636905Y-14987190D01*
X11846429Y-15101476D02*
X11827381Y-15091952D01*
X11827381Y-15091952D02*
X11817857Y-15082428D01*
X11817857Y-15082428D02*
X11808333Y-15063381D01*
X11808333Y-15063381D02*
X11808333Y-15006238D01*
X11808333Y-15006238D02*
X11817857Y-14987190D01*
X11817857Y-14987190D02*
X11827381Y-14977667D01*
X11827381Y-14977667D02*
X11846429Y-14968143D01*
X11846429Y-14968143D02*
X11875000Y-14968143D01*
X11875000Y-14968143D02*
X11894048Y-14977667D01*
X11894048Y-14977667D02*
X11903572Y-14987190D01*
X11903572Y-14987190D02*
X11913095Y-15006238D01*
X11913095Y-15006238D02*
X11913095Y-15063381D01*
X11913095Y-15063381D02*
X11903572Y-15082428D01*
X11903572Y-15082428D02*
X11894048Y-15091952D01*
X11894048Y-15091952D02*
X11875000Y-15101476D01*
X11875000Y-15101476D02*
X11846429Y-15101476D01*
X12027381Y-15101476D02*
X12008333Y-15091952D01*
X12008333Y-15091952D02*
X11998810Y-15072905D01*
X11998810Y-15072905D02*
X11998810Y-14901476D01*
X12179762Y-15091952D02*
X12160714Y-15101476D01*
X12160714Y-15101476D02*
X12122619Y-15101476D01*
X12122619Y-15101476D02*
X12103572Y-15091952D01*
X12103572Y-15091952D02*
X12094048Y-15072905D01*
X12094048Y-15072905D02*
X12094048Y-14996714D01*
X12094048Y-14996714D02*
X12103572Y-14977667D01*
X12103572Y-14977667D02*
X12122619Y-14968143D01*
X12122619Y-14968143D02*
X12160714Y-14968143D01*
X12160714Y-14968143D02*
X12179762Y-14977667D01*
X12179762Y-14977667D02*
X12189286Y-14996714D01*
X12189286Y-14996714D02*
X12189286Y-15015762D01*
X12189286Y-15015762D02*
X12094048Y-15034809D01*
X12265476Y-15091952D02*
X12284524Y-15101476D01*
X12284524Y-15101476D02*
X12322619Y-15101476D01*
X12322619Y-15101476D02*
X12341667Y-15091952D01*
X12341667Y-15091952D02*
X12351191Y-15072905D01*
X12351191Y-15072905D02*
X12351191Y-15063381D01*
X12351191Y-15063381D02*
X12341667Y-15044333D01*
X12341667Y-15044333D02*
X12322619Y-15034809D01*
X12322619Y-15034809D02*
X12294048Y-15034809D01*
X12294048Y-15034809D02*
X12275000Y-15025286D01*
X12275000Y-15025286D02*
X12265476Y-15006238D01*
X12265476Y-15006238D02*
X12265476Y-14996714D01*
X12265476Y-14996714D02*
X12275000Y-14977667D01*
X12275000Y-14977667D02*
X12294048Y-14968143D01*
X12294048Y-14968143D02*
X12322619Y-14968143D01*
X12322619Y-14968143D02*
X12341667Y-14977667D01*
X12417857Y-15177667D02*
X12427381Y-15168143D01*
X12427381Y-15168143D02*
X12446429Y-15139571D01*
X12446429Y-15139571D02*
X12455953Y-15120524D01*
X12455953Y-15120524D02*
X12465476Y-15091952D01*
X12465476Y-15091952D02*
X12475000Y-15044333D01*
X12475000Y-15044333D02*
X12475000Y-15006238D01*
X12475000Y-15006238D02*
X12465476Y-14958619D01*
X12465476Y-14958619D02*
X12455953Y-14930048D01*
X12455953Y-14930048D02*
X12446429Y-14911000D01*
X12446429Y-14911000D02*
X12427381Y-14882428D01*
X12427381Y-14882428D02*
X12417857Y-14872905D01*
D14*
X7587678Y-15309678D02*
X7587678Y-15274322D01*
X7552322Y-15274322D01*
X7552322Y-15309678D01*
X7587678Y-15309678D01*
D11*
X7880714Y-15165476D02*
X7899762Y-15165476D01*
X7899762Y-15165476D02*
X7918809Y-15175000D01*
X7918809Y-15175000D02*
X7928333Y-15184524D01*
X7928333Y-15184524D02*
X7937857Y-15203571D01*
X7937857Y-15203571D02*
X7947381Y-15241667D01*
X7947381Y-15241667D02*
X7947381Y-15289286D01*
X7947381Y-15289286D02*
X7937857Y-15327381D01*
X7937857Y-15327381D02*
X7928333Y-15346428D01*
X7928333Y-15346428D02*
X7918809Y-15355952D01*
X7918809Y-15355952D02*
X7899762Y-15365476D01*
X7899762Y-15365476D02*
X7880714Y-15365476D01*
X7880714Y-15365476D02*
X7861667Y-15355952D01*
X7861667Y-15355952D02*
X7852143Y-15346428D01*
X7852143Y-15346428D02*
X7842619Y-15327381D01*
X7842619Y-15327381D02*
X7833095Y-15289286D01*
X7833095Y-15289286D02*
X7833095Y-15241667D01*
X7833095Y-15241667D02*
X7842619Y-15203571D01*
X7842619Y-15203571D02*
X7852143Y-15184524D01*
X7852143Y-15184524D02*
X7861667Y-15175000D01*
X7861667Y-15175000D02*
X7880714Y-15165476D01*
X8033095Y-15346428D02*
X8042619Y-15355952D01*
X8042619Y-15355952D02*
X8033095Y-15365476D01*
X8033095Y-15365476D02*
X8023571Y-15355952D01*
X8023571Y-15355952D02*
X8033095Y-15346428D01*
X8033095Y-15346428D02*
X8033095Y-15365476D01*
X8223571Y-15165476D02*
X8128333Y-15165476D01*
X8128333Y-15165476D02*
X8118809Y-15260714D01*
X8118809Y-15260714D02*
X8128333Y-15251190D01*
X8128333Y-15251190D02*
X8147381Y-15241667D01*
X8147381Y-15241667D02*
X8195000Y-15241667D01*
X8195000Y-15241667D02*
X8214048Y-15251190D01*
X8214048Y-15251190D02*
X8223571Y-15260714D01*
X8223571Y-15260714D02*
X8233095Y-15279762D01*
X8233095Y-15279762D02*
X8233095Y-15327381D01*
X8233095Y-15327381D02*
X8223571Y-15346428D01*
X8223571Y-15346428D02*
X8214048Y-15355952D01*
X8214048Y-15355952D02*
X8195000Y-15365476D01*
X8195000Y-15365476D02*
X8147381Y-15365476D01*
X8147381Y-15365476D02*
X8128333Y-15355952D01*
X8128333Y-15355952D02*
X8118809Y-15346428D01*
X8356905Y-15165476D02*
X8375952Y-15165476D01*
X8375952Y-15165476D02*
X8395000Y-15175000D01*
X8395000Y-15175000D02*
X8404524Y-15184524D01*
X8404524Y-15184524D02*
X8414048Y-15203571D01*
X8414048Y-15203571D02*
X8423571Y-15241667D01*
X8423571Y-15241667D02*
X8423571Y-15289286D01*
X8423571Y-15289286D02*
X8414048Y-15327381D01*
X8414048Y-15327381D02*
X8404524Y-15346428D01*
X8404524Y-15346428D02*
X8395000Y-15355952D01*
X8395000Y-15355952D02*
X8375952Y-15365476D01*
X8375952Y-15365476D02*
X8356905Y-15365476D01*
X8356905Y-15365476D02*
X8337857Y-15355952D01*
X8337857Y-15355952D02*
X8328333Y-15346428D01*
X8328333Y-15346428D02*
X8318809Y-15327381D01*
X8318809Y-15327381D02*
X8309286Y-15289286D01*
X8309286Y-15289286D02*
X8309286Y-15241667D01*
X8309286Y-15241667D02*
X8318809Y-15203571D01*
X8318809Y-15203571D02*
X8328333Y-15184524D01*
X8328333Y-15184524D02*
X8337857Y-15175000D01*
X8337857Y-15175000D02*
X8356905Y-15165476D01*
X8547381Y-15165476D02*
X8566429Y-15165476D01*
X8566429Y-15165476D02*
X8585476Y-15175000D01*
X8585476Y-15175000D02*
X8595000Y-15184524D01*
X8595000Y-15184524D02*
X8604524Y-15203571D01*
X8604524Y-15203571D02*
X8614048Y-15241667D01*
X8614048Y-15241667D02*
X8614048Y-15289286D01*
X8614048Y-15289286D02*
X8604524Y-15327381D01*
X8604524Y-15327381D02*
X8595000Y-15346428D01*
X8595000Y-15346428D02*
X8585476Y-15355952D01*
X8585476Y-15355952D02*
X8566429Y-15365476D01*
X8566429Y-15365476D02*
X8547381Y-15365476D01*
X8547381Y-15365476D02*
X8528333Y-15355952D01*
X8528333Y-15355952D02*
X8518810Y-15346428D01*
X8518810Y-15346428D02*
X8509286Y-15327381D01*
X8509286Y-15327381D02*
X8499762Y-15289286D01*
X8499762Y-15289286D02*
X8499762Y-15241667D01*
X8499762Y-15241667D02*
X8509286Y-15203571D01*
X8509286Y-15203571D02*
X8518810Y-15184524D01*
X8518810Y-15184524D02*
X8528333Y-15175000D01*
X8528333Y-15175000D02*
X8547381Y-15165476D01*
X8699762Y-15365476D02*
X8699762Y-15232143D01*
X8699762Y-15251190D02*
X8709286Y-15241667D01*
X8709286Y-15241667D02*
X8728333Y-15232143D01*
X8728333Y-15232143D02*
X8756905Y-15232143D01*
X8756905Y-15232143D02*
X8775952Y-15241667D01*
X8775952Y-15241667D02*
X8785476Y-15260714D01*
X8785476Y-15260714D02*
X8785476Y-15365476D01*
X8785476Y-15260714D02*
X8795000Y-15241667D01*
X8795000Y-15241667D02*
X8814048Y-15232143D01*
X8814048Y-15232143D02*
X8842619Y-15232143D01*
X8842619Y-15232143D02*
X8861667Y-15241667D01*
X8861667Y-15241667D02*
X8871191Y-15260714D01*
X8871191Y-15260714D02*
X8871191Y-15365476D01*
X8966429Y-15365476D02*
X8966429Y-15232143D01*
X8966429Y-15251190D02*
X8975952Y-15241667D01*
X8975952Y-15241667D02*
X8995000Y-15232143D01*
X8995000Y-15232143D02*
X9023572Y-15232143D01*
X9023572Y-15232143D02*
X9042619Y-15241667D01*
X9042619Y-15241667D02*
X9052143Y-15260714D01*
X9052143Y-15260714D02*
X9052143Y-15365476D01*
X9052143Y-15260714D02*
X9061667Y-15241667D01*
X9061667Y-15241667D02*
X9080714Y-15232143D01*
X9080714Y-15232143D02*
X9109286Y-15232143D01*
X9109286Y-15232143D02*
X9128333Y-15241667D01*
X9128333Y-15241667D02*
X9137857Y-15260714D01*
X9137857Y-15260714D02*
X9137857Y-15365476D01*
X9495952Y-15155952D02*
X9324524Y-15413095D01*
X9720714Y-15165476D02*
X9739762Y-15165476D01*
X9739762Y-15165476D02*
X9758810Y-15175000D01*
X9758810Y-15175000D02*
X9768333Y-15184524D01*
X9768333Y-15184524D02*
X9777857Y-15203571D01*
X9777857Y-15203571D02*
X9787381Y-15241667D01*
X9787381Y-15241667D02*
X9787381Y-15289286D01*
X9787381Y-15289286D02*
X9777857Y-15327381D01*
X9777857Y-15327381D02*
X9768333Y-15346428D01*
X9768333Y-15346428D02*
X9758810Y-15355952D01*
X9758810Y-15355952D02*
X9739762Y-15365476D01*
X9739762Y-15365476D02*
X9720714Y-15365476D01*
X9720714Y-15365476D02*
X9701667Y-15355952D01*
X9701667Y-15355952D02*
X9692143Y-15346428D01*
X9692143Y-15346428D02*
X9682619Y-15327381D01*
X9682619Y-15327381D02*
X9673095Y-15289286D01*
X9673095Y-15289286D02*
X9673095Y-15241667D01*
X9673095Y-15241667D02*
X9682619Y-15203571D01*
X9682619Y-15203571D02*
X9692143Y-15184524D01*
X9692143Y-15184524D02*
X9701667Y-15175000D01*
X9701667Y-15175000D02*
X9720714Y-15165476D01*
X9873095Y-15346428D02*
X9882619Y-15355952D01*
X9882619Y-15355952D02*
X9873095Y-15365476D01*
X9873095Y-15365476D02*
X9863572Y-15355952D01*
X9863572Y-15355952D02*
X9873095Y-15346428D01*
X9873095Y-15346428D02*
X9873095Y-15365476D01*
X10006429Y-15165476D02*
X10025476Y-15165476D01*
X10025476Y-15165476D02*
X10044524Y-15175000D01*
X10044524Y-15175000D02*
X10054048Y-15184524D01*
X10054048Y-15184524D02*
X10063572Y-15203571D01*
X10063572Y-15203571D02*
X10073095Y-15241667D01*
X10073095Y-15241667D02*
X10073095Y-15289286D01*
X10073095Y-15289286D02*
X10063572Y-15327381D01*
X10063572Y-15327381D02*
X10054048Y-15346428D01*
X10054048Y-15346428D02*
X10044524Y-15355952D01*
X10044524Y-15355952D02*
X10025476Y-15365476D01*
X10025476Y-15365476D02*
X10006429Y-15365476D01*
X10006429Y-15365476D02*
X9987381Y-15355952D01*
X9987381Y-15355952D02*
X9977857Y-15346428D01*
X9977857Y-15346428D02*
X9968333Y-15327381D01*
X9968333Y-15327381D02*
X9958810Y-15289286D01*
X9958810Y-15289286D02*
X9958810Y-15241667D01*
X9958810Y-15241667D02*
X9968333Y-15203571D01*
X9968333Y-15203571D02*
X9977857Y-15184524D01*
X9977857Y-15184524D02*
X9987381Y-15175000D01*
X9987381Y-15175000D02*
X10006429Y-15165476D01*
X10263572Y-15365476D02*
X10149286Y-15365476D01*
X10206429Y-15365476D02*
X10206429Y-15165476D01*
X10206429Y-15165476D02*
X10187381Y-15194048D01*
X10187381Y-15194048D02*
X10168333Y-15213095D01*
X10168333Y-15213095D02*
X10149286Y-15222619D01*
X10358810Y-15365476D02*
X10396905Y-15365476D01*
X10396905Y-15365476D02*
X10415953Y-15355952D01*
X10415953Y-15355952D02*
X10425476Y-15346428D01*
X10425476Y-15346428D02*
X10444524Y-15317857D01*
X10444524Y-15317857D02*
X10454048Y-15279762D01*
X10454048Y-15279762D02*
X10454048Y-15203571D01*
X10454048Y-15203571D02*
X10444524Y-15184524D01*
X10444524Y-15184524D02*
X10435000Y-15175000D01*
X10435000Y-15175000D02*
X10415953Y-15165476D01*
X10415953Y-15165476D02*
X10377857Y-15165476D01*
X10377857Y-15165476D02*
X10358810Y-15175000D01*
X10358810Y-15175000D02*
X10349286Y-15184524D01*
X10349286Y-15184524D02*
X10339762Y-15203571D01*
X10339762Y-15203571D02*
X10339762Y-15251190D01*
X10339762Y-15251190D02*
X10349286Y-15270238D01*
X10349286Y-15270238D02*
X10358810Y-15279762D01*
X10358810Y-15279762D02*
X10377857Y-15289286D01*
X10377857Y-15289286D02*
X10415953Y-15289286D01*
X10415953Y-15289286D02*
X10435000Y-15279762D01*
X10435000Y-15279762D02*
X10444524Y-15270238D01*
X10444524Y-15270238D02*
X10454048Y-15251190D01*
X10520714Y-15165476D02*
X10654048Y-15165476D01*
X10654048Y-15165476D02*
X10568333Y-15365476D01*
X10720714Y-15165476D02*
X10720714Y-15203571D01*
X10796905Y-15165476D02*
X10796905Y-15203571D01*
X11059762Y-15441667D02*
X11050238Y-15432143D01*
X11050238Y-15432143D02*
X11031191Y-15403571D01*
X11031191Y-15403571D02*
X11021667Y-15384524D01*
X11021667Y-15384524D02*
X11012143Y-15355952D01*
X11012143Y-15355952D02*
X11002619Y-15308333D01*
X11002619Y-15308333D02*
X11002619Y-15270238D01*
X11002619Y-15270238D02*
X11012143Y-15222619D01*
X11012143Y-15222619D02*
X11021667Y-15194048D01*
X11021667Y-15194048D02*
X11031191Y-15175000D01*
X11031191Y-15175000D02*
X11050238Y-15146428D01*
X11050238Y-15146428D02*
X11059762Y-15136905D01*
X11240714Y-15365476D02*
X11126429Y-15365476D01*
X11183572Y-15365476D02*
X11183572Y-15165476D01*
X11183572Y-15165476D02*
X11164524Y-15194048D01*
X11164524Y-15194048D02*
X11145476Y-15213095D01*
X11145476Y-15213095D02*
X11126429Y-15222619D01*
X11412143Y-15165476D02*
X11374048Y-15165476D01*
X11374048Y-15165476D02*
X11355000Y-15175000D01*
X11355000Y-15175000D02*
X11345476Y-15184524D01*
X11345476Y-15184524D02*
X11326429Y-15213095D01*
X11326429Y-15213095D02*
X11316905Y-15251190D01*
X11316905Y-15251190D02*
X11316905Y-15327381D01*
X11316905Y-15327381D02*
X11326429Y-15346428D01*
X11326429Y-15346428D02*
X11335952Y-15355952D01*
X11335952Y-15355952D02*
X11355000Y-15365476D01*
X11355000Y-15365476D02*
X11393095Y-15365476D01*
X11393095Y-15365476D02*
X11412143Y-15355952D01*
X11412143Y-15355952D02*
X11421667Y-15346428D01*
X11421667Y-15346428D02*
X11431191Y-15327381D01*
X11431191Y-15327381D02*
X11431191Y-15279762D01*
X11431191Y-15279762D02*
X11421667Y-15260714D01*
X11421667Y-15260714D02*
X11412143Y-15251190D01*
X11412143Y-15251190D02*
X11393095Y-15241667D01*
X11393095Y-15241667D02*
X11355000Y-15241667D01*
X11355000Y-15241667D02*
X11335952Y-15251190D01*
X11335952Y-15251190D02*
X11326429Y-15260714D01*
X11326429Y-15260714D02*
X11316905Y-15279762D01*
X11636905Y-15365476D02*
X11636905Y-15165476D01*
X11722619Y-15365476D02*
X11722619Y-15260714D01*
X11722619Y-15260714D02*
X11713095Y-15241667D01*
X11713095Y-15241667D02*
X11694048Y-15232143D01*
X11694048Y-15232143D02*
X11665476Y-15232143D01*
X11665476Y-15232143D02*
X11646429Y-15241667D01*
X11646429Y-15241667D02*
X11636905Y-15251190D01*
X11846429Y-15365476D02*
X11827381Y-15355952D01*
X11827381Y-15355952D02*
X11817857Y-15346428D01*
X11817857Y-15346428D02*
X11808333Y-15327381D01*
X11808333Y-15327381D02*
X11808333Y-15270238D01*
X11808333Y-15270238D02*
X11817857Y-15251190D01*
X11817857Y-15251190D02*
X11827381Y-15241667D01*
X11827381Y-15241667D02*
X11846429Y-15232143D01*
X11846429Y-15232143D02*
X11875000Y-15232143D01*
X11875000Y-15232143D02*
X11894048Y-15241667D01*
X11894048Y-15241667D02*
X11903572Y-15251190D01*
X11903572Y-15251190D02*
X11913095Y-15270238D01*
X11913095Y-15270238D02*
X11913095Y-15327381D01*
X11913095Y-15327381D02*
X11903572Y-15346428D01*
X11903572Y-15346428D02*
X11894048Y-15355952D01*
X11894048Y-15355952D02*
X11875000Y-15365476D01*
X11875000Y-15365476D02*
X11846429Y-15365476D01*
X12027381Y-15365476D02*
X12008333Y-15355952D01*
X12008333Y-15355952D02*
X11998810Y-15336905D01*
X11998810Y-15336905D02*
X11998810Y-15165476D01*
X12179762Y-15355952D02*
X12160714Y-15365476D01*
X12160714Y-15365476D02*
X12122619Y-15365476D01*
X12122619Y-15365476D02*
X12103572Y-15355952D01*
X12103572Y-15355952D02*
X12094048Y-15336905D01*
X12094048Y-15336905D02*
X12094048Y-15260714D01*
X12094048Y-15260714D02*
X12103572Y-15241667D01*
X12103572Y-15241667D02*
X12122619Y-15232143D01*
X12122619Y-15232143D02*
X12160714Y-15232143D01*
X12160714Y-15232143D02*
X12179762Y-15241667D01*
X12179762Y-15241667D02*
X12189286Y-15260714D01*
X12189286Y-15260714D02*
X12189286Y-15279762D01*
X12189286Y-15279762D02*
X12094048Y-15298809D01*
X12265476Y-15355952D02*
X12284524Y-15365476D01*
X12284524Y-15365476D02*
X12322619Y-15365476D01*
X12322619Y-15365476D02*
X12341667Y-15355952D01*
X12341667Y-15355952D02*
X12351191Y-15336905D01*
X12351191Y-15336905D02*
X12351191Y-15327381D01*
X12351191Y-15327381D02*
X12341667Y-15308333D01*
X12341667Y-15308333D02*
X12322619Y-15298809D01*
X12322619Y-15298809D02*
X12294048Y-15298809D01*
X12294048Y-15298809D02*
X12275000Y-15289286D01*
X12275000Y-15289286D02*
X12265476Y-15270238D01*
X12265476Y-15270238D02*
X12265476Y-15260714D01*
X12265476Y-15260714D02*
X12275000Y-15241667D01*
X12275000Y-15241667D02*
X12294048Y-15232143D01*
X12294048Y-15232143D02*
X12322619Y-15232143D01*
X12322619Y-15232143D02*
X12341667Y-15241667D01*
X12417857Y-15441667D02*
X12427381Y-15432143D01*
X12427381Y-15432143D02*
X12446429Y-15403571D01*
X12446429Y-15403571D02*
X12455953Y-15384524D01*
X12455953Y-15384524D02*
X12465476Y-15355952D01*
X12465476Y-15355952D02*
X12475000Y-15308333D01*
X12475000Y-15308333D02*
X12475000Y-15270238D01*
X12475000Y-15270238D02*
X12465476Y-15222619D01*
X12465476Y-15222619D02*
X12455953Y-15194048D01*
X12455953Y-15194048D02*
X12446429Y-15175000D01*
X12446429Y-15175000D02*
X12427381Y-15146428D01*
X12427381Y-15146428D02*
X12417857Y-15136905D01*
D15*
X7565000Y-15586000D02*
X7595000Y-15556000D01*
X7565000Y-15526000D01*
X7535000Y-15556000D01*
X7565000Y-15586000D01*
D11*
X7880714Y-15429476D02*
X7899762Y-15429476D01*
X7899762Y-15429476D02*
X7918809Y-15439000D01*
X7918809Y-15439000D02*
X7928333Y-15448524D01*
X7928333Y-15448524D02*
X7937857Y-15467571D01*
X7937857Y-15467571D02*
X7947381Y-15505667D01*
X7947381Y-15505667D02*
X7947381Y-15553286D01*
X7947381Y-15553286D02*
X7937857Y-15591381D01*
X7937857Y-15591381D02*
X7928333Y-15610428D01*
X7928333Y-15610428D02*
X7918809Y-15619952D01*
X7918809Y-15619952D02*
X7899762Y-15629476D01*
X7899762Y-15629476D02*
X7880714Y-15629476D01*
X7880714Y-15629476D02*
X7861667Y-15619952D01*
X7861667Y-15619952D02*
X7852143Y-15610428D01*
X7852143Y-15610428D02*
X7842619Y-15591381D01*
X7842619Y-15591381D02*
X7833095Y-15553286D01*
X7833095Y-15553286D02*
X7833095Y-15505667D01*
X7833095Y-15505667D02*
X7842619Y-15467571D01*
X7842619Y-15467571D02*
X7852143Y-15448524D01*
X7852143Y-15448524D02*
X7861667Y-15439000D01*
X7861667Y-15439000D02*
X7880714Y-15429476D01*
X8033095Y-15610428D02*
X8042619Y-15619952D01*
X8042619Y-15619952D02*
X8033095Y-15629476D01*
X8033095Y-15629476D02*
X8023571Y-15619952D01*
X8023571Y-15619952D02*
X8033095Y-15610428D01*
X8033095Y-15610428D02*
X8033095Y-15629476D01*
X8214048Y-15429476D02*
X8175952Y-15429476D01*
X8175952Y-15429476D02*
X8156905Y-15439000D01*
X8156905Y-15439000D02*
X8147381Y-15448524D01*
X8147381Y-15448524D02*
X8128333Y-15477095D01*
X8128333Y-15477095D02*
X8118809Y-15515190D01*
X8118809Y-15515190D02*
X8118809Y-15591381D01*
X8118809Y-15591381D02*
X8128333Y-15610428D01*
X8128333Y-15610428D02*
X8137857Y-15619952D01*
X8137857Y-15619952D02*
X8156905Y-15629476D01*
X8156905Y-15629476D02*
X8195000Y-15629476D01*
X8195000Y-15629476D02*
X8214048Y-15619952D01*
X8214048Y-15619952D02*
X8223571Y-15610428D01*
X8223571Y-15610428D02*
X8233095Y-15591381D01*
X8233095Y-15591381D02*
X8233095Y-15543762D01*
X8233095Y-15543762D02*
X8223571Y-15524714D01*
X8223571Y-15524714D02*
X8214048Y-15515190D01*
X8214048Y-15515190D02*
X8195000Y-15505667D01*
X8195000Y-15505667D02*
X8156905Y-15505667D01*
X8156905Y-15505667D02*
X8137857Y-15515190D01*
X8137857Y-15515190D02*
X8128333Y-15524714D01*
X8128333Y-15524714D02*
X8118809Y-15543762D01*
X8356905Y-15429476D02*
X8375952Y-15429476D01*
X8375952Y-15429476D02*
X8395000Y-15439000D01*
X8395000Y-15439000D02*
X8404524Y-15448524D01*
X8404524Y-15448524D02*
X8414048Y-15467571D01*
X8414048Y-15467571D02*
X8423571Y-15505667D01*
X8423571Y-15505667D02*
X8423571Y-15553286D01*
X8423571Y-15553286D02*
X8414048Y-15591381D01*
X8414048Y-15591381D02*
X8404524Y-15610428D01*
X8404524Y-15610428D02*
X8395000Y-15619952D01*
X8395000Y-15619952D02*
X8375952Y-15629476D01*
X8375952Y-15629476D02*
X8356905Y-15629476D01*
X8356905Y-15629476D02*
X8337857Y-15619952D01*
X8337857Y-15619952D02*
X8328333Y-15610428D01*
X8328333Y-15610428D02*
X8318809Y-15591381D01*
X8318809Y-15591381D02*
X8309286Y-15553286D01*
X8309286Y-15553286D02*
X8309286Y-15505667D01*
X8309286Y-15505667D02*
X8318809Y-15467571D01*
X8318809Y-15467571D02*
X8328333Y-15448524D01*
X8328333Y-15448524D02*
X8337857Y-15439000D01*
X8337857Y-15439000D02*
X8356905Y-15429476D01*
X8547381Y-15429476D02*
X8566429Y-15429476D01*
X8566429Y-15429476D02*
X8585476Y-15439000D01*
X8585476Y-15439000D02*
X8595000Y-15448524D01*
X8595000Y-15448524D02*
X8604524Y-15467571D01*
X8604524Y-15467571D02*
X8614048Y-15505667D01*
X8614048Y-15505667D02*
X8614048Y-15553286D01*
X8614048Y-15553286D02*
X8604524Y-15591381D01*
X8604524Y-15591381D02*
X8595000Y-15610428D01*
X8595000Y-15610428D02*
X8585476Y-15619952D01*
X8585476Y-15619952D02*
X8566429Y-15629476D01*
X8566429Y-15629476D02*
X8547381Y-15629476D01*
X8547381Y-15629476D02*
X8528333Y-15619952D01*
X8528333Y-15619952D02*
X8518810Y-15610428D01*
X8518810Y-15610428D02*
X8509286Y-15591381D01*
X8509286Y-15591381D02*
X8499762Y-15553286D01*
X8499762Y-15553286D02*
X8499762Y-15505667D01*
X8499762Y-15505667D02*
X8509286Y-15467571D01*
X8509286Y-15467571D02*
X8518810Y-15448524D01*
X8518810Y-15448524D02*
X8528333Y-15439000D01*
X8528333Y-15439000D02*
X8547381Y-15429476D01*
X8699762Y-15629476D02*
X8699762Y-15496143D01*
X8699762Y-15515190D02*
X8709286Y-15505667D01*
X8709286Y-15505667D02*
X8728333Y-15496143D01*
X8728333Y-15496143D02*
X8756905Y-15496143D01*
X8756905Y-15496143D02*
X8775952Y-15505667D01*
X8775952Y-15505667D02*
X8785476Y-15524714D01*
X8785476Y-15524714D02*
X8785476Y-15629476D01*
X8785476Y-15524714D02*
X8795000Y-15505667D01*
X8795000Y-15505667D02*
X8814048Y-15496143D01*
X8814048Y-15496143D02*
X8842619Y-15496143D01*
X8842619Y-15496143D02*
X8861667Y-15505667D01*
X8861667Y-15505667D02*
X8871191Y-15524714D01*
X8871191Y-15524714D02*
X8871191Y-15629476D01*
X8966429Y-15629476D02*
X8966429Y-15496143D01*
X8966429Y-15515190D02*
X8975952Y-15505667D01*
X8975952Y-15505667D02*
X8995000Y-15496143D01*
X8995000Y-15496143D02*
X9023572Y-15496143D01*
X9023572Y-15496143D02*
X9042619Y-15505667D01*
X9042619Y-15505667D02*
X9052143Y-15524714D01*
X9052143Y-15524714D02*
X9052143Y-15629476D01*
X9052143Y-15524714D02*
X9061667Y-15505667D01*
X9061667Y-15505667D02*
X9080714Y-15496143D01*
X9080714Y-15496143D02*
X9109286Y-15496143D01*
X9109286Y-15496143D02*
X9128333Y-15505667D01*
X9128333Y-15505667D02*
X9137857Y-15524714D01*
X9137857Y-15524714D02*
X9137857Y-15629476D01*
X9495952Y-15419952D02*
X9324524Y-15677095D01*
X9720714Y-15429476D02*
X9739762Y-15429476D01*
X9739762Y-15429476D02*
X9758810Y-15439000D01*
X9758810Y-15439000D02*
X9768333Y-15448524D01*
X9768333Y-15448524D02*
X9777857Y-15467571D01*
X9777857Y-15467571D02*
X9787381Y-15505667D01*
X9787381Y-15505667D02*
X9787381Y-15553286D01*
X9787381Y-15553286D02*
X9777857Y-15591381D01*
X9777857Y-15591381D02*
X9768333Y-15610428D01*
X9768333Y-15610428D02*
X9758810Y-15619952D01*
X9758810Y-15619952D02*
X9739762Y-15629476D01*
X9739762Y-15629476D02*
X9720714Y-15629476D01*
X9720714Y-15629476D02*
X9701667Y-15619952D01*
X9701667Y-15619952D02*
X9692143Y-15610428D01*
X9692143Y-15610428D02*
X9682619Y-15591381D01*
X9682619Y-15591381D02*
X9673095Y-15553286D01*
X9673095Y-15553286D02*
X9673095Y-15505667D01*
X9673095Y-15505667D02*
X9682619Y-15467571D01*
X9682619Y-15467571D02*
X9692143Y-15448524D01*
X9692143Y-15448524D02*
X9701667Y-15439000D01*
X9701667Y-15439000D02*
X9720714Y-15429476D01*
X9873095Y-15610428D02*
X9882619Y-15619952D01*
X9882619Y-15619952D02*
X9873095Y-15629476D01*
X9873095Y-15629476D02*
X9863572Y-15619952D01*
X9863572Y-15619952D02*
X9873095Y-15610428D01*
X9873095Y-15610428D02*
X9873095Y-15629476D01*
X10006429Y-15429476D02*
X10025476Y-15429476D01*
X10025476Y-15429476D02*
X10044524Y-15439000D01*
X10044524Y-15439000D02*
X10054048Y-15448524D01*
X10054048Y-15448524D02*
X10063572Y-15467571D01*
X10063572Y-15467571D02*
X10073095Y-15505667D01*
X10073095Y-15505667D02*
X10073095Y-15553286D01*
X10073095Y-15553286D02*
X10063572Y-15591381D01*
X10063572Y-15591381D02*
X10054048Y-15610428D01*
X10054048Y-15610428D02*
X10044524Y-15619952D01*
X10044524Y-15619952D02*
X10025476Y-15629476D01*
X10025476Y-15629476D02*
X10006429Y-15629476D01*
X10006429Y-15629476D02*
X9987381Y-15619952D01*
X9987381Y-15619952D02*
X9977857Y-15610428D01*
X9977857Y-15610428D02*
X9968333Y-15591381D01*
X9968333Y-15591381D02*
X9958810Y-15553286D01*
X9958810Y-15553286D02*
X9958810Y-15505667D01*
X9958810Y-15505667D02*
X9968333Y-15467571D01*
X9968333Y-15467571D02*
X9977857Y-15448524D01*
X9977857Y-15448524D02*
X9987381Y-15439000D01*
X9987381Y-15439000D02*
X10006429Y-15429476D01*
X10149286Y-15448524D02*
X10158810Y-15439000D01*
X10158810Y-15439000D02*
X10177857Y-15429476D01*
X10177857Y-15429476D02*
X10225476Y-15429476D01*
X10225476Y-15429476D02*
X10244524Y-15439000D01*
X10244524Y-15439000D02*
X10254048Y-15448524D01*
X10254048Y-15448524D02*
X10263572Y-15467571D01*
X10263572Y-15467571D02*
X10263572Y-15486619D01*
X10263572Y-15486619D02*
X10254048Y-15515190D01*
X10254048Y-15515190D02*
X10139762Y-15629476D01*
X10139762Y-15629476D02*
X10263572Y-15629476D01*
X10330238Y-15429476D02*
X10454048Y-15429476D01*
X10454048Y-15429476D02*
X10387381Y-15505667D01*
X10387381Y-15505667D02*
X10415953Y-15505667D01*
X10415953Y-15505667D02*
X10435000Y-15515190D01*
X10435000Y-15515190D02*
X10444524Y-15524714D01*
X10444524Y-15524714D02*
X10454048Y-15543762D01*
X10454048Y-15543762D02*
X10454048Y-15591381D01*
X10454048Y-15591381D02*
X10444524Y-15610428D01*
X10444524Y-15610428D02*
X10435000Y-15619952D01*
X10435000Y-15619952D02*
X10415953Y-15629476D01*
X10415953Y-15629476D02*
X10358810Y-15629476D01*
X10358810Y-15629476D02*
X10339762Y-15619952D01*
X10339762Y-15619952D02*
X10330238Y-15610428D01*
X10625476Y-15429476D02*
X10587381Y-15429476D01*
X10587381Y-15429476D02*
X10568333Y-15439000D01*
X10568333Y-15439000D02*
X10558810Y-15448524D01*
X10558810Y-15448524D02*
X10539762Y-15477095D01*
X10539762Y-15477095D02*
X10530238Y-15515190D01*
X10530238Y-15515190D02*
X10530238Y-15591381D01*
X10530238Y-15591381D02*
X10539762Y-15610428D01*
X10539762Y-15610428D02*
X10549286Y-15619952D01*
X10549286Y-15619952D02*
X10568333Y-15629476D01*
X10568333Y-15629476D02*
X10606429Y-15629476D01*
X10606429Y-15629476D02*
X10625476Y-15619952D01*
X10625476Y-15619952D02*
X10635000Y-15610428D01*
X10635000Y-15610428D02*
X10644524Y-15591381D01*
X10644524Y-15591381D02*
X10644524Y-15543762D01*
X10644524Y-15543762D02*
X10635000Y-15524714D01*
X10635000Y-15524714D02*
X10625476Y-15515190D01*
X10625476Y-15515190D02*
X10606429Y-15505667D01*
X10606429Y-15505667D02*
X10568333Y-15505667D01*
X10568333Y-15505667D02*
X10549286Y-15515190D01*
X10549286Y-15515190D02*
X10539762Y-15524714D01*
X10539762Y-15524714D02*
X10530238Y-15543762D01*
X10720714Y-15429476D02*
X10720714Y-15467571D01*
X10796905Y-15429476D02*
X10796905Y-15467571D01*
X11059762Y-15705667D02*
X11050238Y-15696143D01*
X11050238Y-15696143D02*
X11031191Y-15667571D01*
X11031191Y-15667571D02*
X11021667Y-15648524D01*
X11021667Y-15648524D02*
X11012143Y-15619952D01*
X11012143Y-15619952D02*
X11002619Y-15572333D01*
X11002619Y-15572333D02*
X11002619Y-15534238D01*
X11002619Y-15534238D02*
X11012143Y-15486619D01*
X11012143Y-15486619D02*
X11021667Y-15458048D01*
X11021667Y-15458048D02*
X11031191Y-15439000D01*
X11031191Y-15439000D02*
X11050238Y-15410428D01*
X11050238Y-15410428D02*
X11059762Y-15400905D01*
X11174048Y-15429476D02*
X11193095Y-15429476D01*
X11193095Y-15429476D02*
X11212143Y-15439000D01*
X11212143Y-15439000D02*
X11221667Y-15448524D01*
X11221667Y-15448524D02*
X11231191Y-15467571D01*
X11231191Y-15467571D02*
X11240714Y-15505667D01*
X11240714Y-15505667D02*
X11240714Y-15553286D01*
X11240714Y-15553286D02*
X11231191Y-15591381D01*
X11231191Y-15591381D02*
X11221667Y-15610428D01*
X11221667Y-15610428D02*
X11212143Y-15619952D01*
X11212143Y-15619952D02*
X11193095Y-15629476D01*
X11193095Y-15629476D02*
X11174048Y-15629476D01*
X11174048Y-15629476D02*
X11155000Y-15619952D01*
X11155000Y-15619952D02*
X11145476Y-15610428D01*
X11145476Y-15610428D02*
X11135953Y-15591381D01*
X11135953Y-15591381D02*
X11126429Y-15553286D01*
X11126429Y-15553286D02*
X11126429Y-15505667D01*
X11126429Y-15505667D02*
X11135953Y-15467571D01*
X11135953Y-15467571D02*
X11145476Y-15448524D01*
X11145476Y-15448524D02*
X11155000Y-15439000D01*
X11155000Y-15439000D02*
X11174048Y-15429476D01*
X11446429Y-15629476D02*
X11446429Y-15429476D01*
X11532143Y-15629476D02*
X11532143Y-15524714D01*
X11532143Y-15524714D02*
X11522619Y-15505667D01*
X11522619Y-15505667D02*
X11503572Y-15496143D01*
X11503572Y-15496143D02*
X11475000Y-15496143D01*
X11475000Y-15496143D02*
X11455952Y-15505667D01*
X11455952Y-15505667D02*
X11446429Y-15515190D01*
X11655952Y-15629476D02*
X11636905Y-15619952D01*
X11636905Y-15619952D02*
X11627381Y-15610428D01*
X11627381Y-15610428D02*
X11617857Y-15591381D01*
X11617857Y-15591381D02*
X11617857Y-15534238D01*
X11617857Y-15534238D02*
X11627381Y-15515190D01*
X11627381Y-15515190D02*
X11636905Y-15505667D01*
X11636905Y-15505667D02*
X11655952Y-15496143D01*
X11655952Y-15496143D02*
X11684524Y-15496143D01*
X11684524Y-15496143D02*
X11703572Y-15505667D01*
X11703572Y-15505667D02*
X11713095Y-15515190D01*
X11713095Y-15515190D02*
X11722619Y-15534238D01*
X11722619Y-15534238D02*
X11722619Y-15591381D01*
X11722619Y-15591381D02*
X11713095Y-15610428D01*
X11713095Y-15610428D02*
X11703572Y-15619952D01*
X11703572Y-15619952D02*
X11684524Y-15629476D01*
X11684524Y-15629476D02*
X11655952Y-15629476D01*
X11836905Y-15629476D02*
X11817857Y-15619952D01*
X11817857Y-15619952D02*
X11808333Y-15600905D01*
X11808333Y-15600905D02*
X11808333Y-15429476D01*
X11989286Y-15619952D02*
X11970238Y-15629476D01*
X11970238Y-15629476D02*
X11932143Y-15629476D01*
X11932143Y-15629476D02*
X11913095Y-15619952D01*
X11913095Y-15619952D02*
X11903572Y-15600905D01*
X11903572Y-15600905D02*
X11903572Y-15524714D01*
X11903572Y-15524714D02*
X11913095Y-15505667D01*
X11913095Y-15505667D02*
X11932143Y-15496143D01*
X11932143Y-15496143D02*
X11970238Y-15496143D01*
X11970238Y-15496143D02*
X11989286Y-15505667D01*
X11989286Y-15505667D02*
X11998810Y-15524714D01*
X11998810Y-15524714D02*
X11998810Y-15543762D01*
X11998810Y-15543762D02*
X11903572Y-15562809D01*
X12075000Y-15619952D02*
X12094048Y-15629476D01*
X12094048Y-15629476D02*
X12132143Y-15629476D01*
X12132143Y-15629476D02*
X12151191Y-15619952D01*
X12151191Y-15619952D02*
X12160714Y-15600905D01*
X12160714Y-15600905D02*
X12160714Y-15591381D01*
X12160714Y-15591381D02*
X12151191Y-15572333D01*
X12151191Y-15572333D02*
X12132143Y-15562809D01*
X12132143Y-15562809D02*
X12103572Y-15562809D01*
X12103572Y-15562809D02*
X12084524Y-15553286D01*
X12084524Y-15553286D02*
X12075000Y-15534238D01*
X12075000Y-15534238D02*
X12075000Y-15524714D01*
X12075000Y-15524714D02*
X12084524Y-15505667D01*
X12084524Y-15505667D02*
X12103572Y-15496143D01*
X12103572Y-15496143D02*
X12132143Y-15496143D01*
X12132143Y-15496143D02*
X12151191Y-15505667D01*
X12366429Y-15553286D02*
X12518810Y-15553286D01*
X12442619Y-15629476D02*
X12442619Y-15477095D01*
X12819762Y-15496143D02*
X12819762Y-15629476D01*
X12772143Y-15419952D02*
X12724524Y-15562809D01*
X12724524Y-15562809D02*
X12848333Y-15562809D01*
X13035000Y-15619952D02*
X13054048Y-15629476D01*
X13054048Y-15629476D02*
X13092143Y-15629476D01*
X13092143Y-15629476D02*
X13111191Y-15619952D01*
X13111191Y-15619952D02*
X13120714Y-15600905D01*
X13120714Y-15600905D02*
X13120714Y-15591381D01*
X13120714Y-15591381D02*
X13111191Y-15572333D01*
X13111191Y-15572333D02*
X13092143Y-15562809D01*
X13092143Y-15562809D02*
X13063572Y-15562809D01*
X13063572Y-15562809D02*
X13044524Y-15553286D01*
X13044524Y-15553286D02*
X13035000Y-15534238D01*
X13035000Y-15534238D02*
X13035000Y-15524714D01*
X13035000Y-15524714D02*
X13044524Y-15505667D01*
X13044524Y-15505667D02*
X13063572Y-15496143D01*
X13063572Y-15496143D02*
X13092143Y-15496143D01*
X13092143Y-15496143D02*
X13111191Y-15505667D01*
X13235000Y-15629476D02*
X13215953Y-15619952D01*
X13215953Y-15619952D02*
X13206429Y-15600905D01*
X13206429Y-15600905D02*
X13206429Y-15429476D01*
X13339762Y-15629476D02*
X13320714Y-15619952D01*
X13320714Y-15619952D02*
X13311191Y-15610428D01*
X13311191Y-15610428D02*
X13301667Y-15591381D01*
X13301667Y-15591381D02*
X13301667Y-15534238D01*
X13301667Y-15534238D02*
X13311191Y-15515190D01*
X13311191Y-15515190D02*
X13320714Y-15505667D01*
X13320714Y-15505667D02*
X13339762Y-15496143D01*
X13339762Y-15496143D02*
X13368334Y-15496143D01*
X13368334Y-15496143D02*
X13387381Y-15505667D01*
X13387381Y-15505667D02*
X13396905Y-15515190D01*
X13396905Y-15515190D02*
X13406429Y-15534238D01*
X13406429Y-15534238D02*
X13406429Y-15591381D01*
X13406429Y-15591381D02*
X13396905Y-15610428D01*
X13396905Y-15610428D02*
X13387381Y-15619952D01*
X13387381Y-15619952D02*
X13368334Y-15629476D01*
X13368334Y-15629476D02*
X13339762Y-15629476D01*
X13463572Y-15496143D02*
X13539762Y-15496143D01*
X13492143Y-15429476D02*
X13492143Y-15600905D01*
X13492143Y-15600905D02*
X13501667Y-15619952D01*
X13501667Y-15619952D02*
X13520714Y-15629476D01*
X13520714Y-15629476D02*
X13539762Y-15629476D01*
X13596905Y-15619952D02*
X13615953Y-15629476D01*
X13615953Y-15629476D02*
X13654048Y-15629476D01*
X13654048Y-15629476D02*
X13673095Y-15619952D01*
X13673095Y-15619952D02*
X13682619Y-15600905D01*
X13682619Y-15600905D02*
X13682619Y-15591381D01*
X13682619Y-15591381D02*
X13673095Y-15572333D01*
X13673095Y-15572333D02*
X13654048Y-15562809D01*
X13654048Y-15562809D02*
X13625476Y-15562809D01*
X13625476Y-15562809D02*
X13606429Y-15553286D01*
X13606429Y-15553286D02*
X13596905Y-15534238D01*
X13596905Y-15534238D02*
X13596905Y-15524714D01*
X13596905Y-15524714D02*
X13606429Y-15505667D01*
X13606429Y-15505667D02*
X13625476Y-15496143D01*
X13625476Y-15496143D02*
X13654048Y-15496143D01*
X13654048Y-15496143D02*
X13673095Y-15505667D01*
X13749286Y-15705667D02*
X13758810Y-15696143D01*
X13758810Y-15696143D02*
X13777857Y-15667571D01*
X13777857Y-15667571D02*
X13787381Y-15648524D01*
X13787381Y-15648524D02*
X13796905Y-15619952D01*
X13796905Y-15619952D02*
X13806429Y-15572333D01*
X13806429Y-15572333D02*
X13806429Y-15534238D01*
X13806429Y-15534238D02*
X13796905Y-15486619D01*
X13796905Y-15486619D02*
X13787381Y-15458048D01*
X13787381Y-15458048D02*
X13777857Y-15439000D01*
X13777857Y-15439000D02*
X13758810Y-15410428D01*
X13758810Y-15410428D02*
X13749286Y-15400905D01*
D16*
X7520000Y-15782500D02*
X7595000Y-15857500D01*
X7595000Y-15782500D02*
X7520000Y-15857500D01*
X7595000Y-15820000D02*
G75*
G03*
X7595000Y-15820000I-37500J0D01*
G01*
D11*
X7880714Y-15693476D02*
X7899762Y-15693476D01*
X7899762Y-15693476D02*
X7918809Y-15703000D01*
X7918809Y-15703000D02*
X7928333Y-15712524D01*
X7928333Y-15712524D02*
X7937857Y-15731571D01*
X7937857Y-15731571D02*
X7947381Y-15769667D01*
X7947381Y-15769667D02*
X7947381Y-15817286D01*
X7947381Y-15817286D02*
X7937857Y-15855381D01*
X7937857Y-15855381D02*
X7928333Y-15874428D01*
X7928333Y-15874428D02*
X7918809Y-15883952D01*
X7918809Y-15883952D02*
X7899762Y-15893476D01*
X7899762Y-15893476D02*
X7880714Y-15893476D01*
X7880714Y-15893476D02*
X7861667Y-15883952D01*
X7861667Y-15883952D02*
X7852143Y-15874428D01*
X7852143Y-15874428D02*
X7842619Y-15855381D01*
X7842619Y-15855381D02*
X7833095Y-15817286D01*
X7833095Y-15817286D02*
X7833095Y-15769667D01*
X7833095Y-15769667D02*
X7842619Y-15731571D01*
X7842619Y-15731571D02*
X7852143Y-15712524D01*
X7852143Y-15712524D02*
X7861667Y-15703000D01*
X7861667Y-15703000D02*
X7880714Y-15693476D01*
X8033095Y-15874428D02*
X8042619Y-15883952D01*
X8042619Y-15883952D02*
X8033095Y-15893476D01*
X8033095Y-15893476D02*
X8023571Y-15883952D01*
X8023571Y-15883952D02*
X8033095Y-15874428D01*
X8033095Y-15874428D02*
X8033095Y-15893476D01*
X8109286Y-15693476D02*
X8242619Y-15693476D01*
X8242619Y-15693476D02*
X8156905Y-15893476D01*
X8414048Y-15693476D02*
X8318809Y-15693476D01*
X8318809Y-15693476D02*
X8309286Y-15788714D01*
X8309286Y-15788714D02*
X8318809Y-15779190D01*
X8318809Y-15779190D02*
X8337857Y-15769667D01*
X8337857Y-15769667D02*
X8385476Y-15769667D01*
X8385476Y-15769667D02*
X8404524Y-15779190D01*
X8404524Y-15779190D02*
X8414048Y-15788714D01*
X8414048Y-15788714D02*
X8423571Y-15807762D01*
X8423571Y-15807762D02*
X8423571Y-15855381D01*
X8423571Y-15855381D02*
X8414048Y-15874428D01*
X8414048Y-15874428D02*
X8404524Y-15883952D01*
X8404524Y-15883952D02*
X8385476Y-15893476D01*
X8385476Y-15893476D02*
X8337857Y-15893476D01*
X8337857Y-15893476D02*
X8318809Y-15883952D01*
X8318809Y-15883952D02*
X8309286Y-15874428D01*
X8547381Y-15693476D02*
X8566429Y-15693476D01*
X8566429Y-15693476D02*
X8585476Y-15703000D01*
X8585476Y-15703000D02*
X8595000Y-15712524D01*
X8595000Y-15712524D02*
X8604524Y-15731571D01*
X8604524Y-15731571D02*
X8614048Y-15769667D01*
X8614048Y-15769667D02*
X8614048Y-15817286D01*
X8614048Y-15817286D02*
X8604524Y-15855381D01*
X8604524Y-15855381D02*
X8595000Y-15874428D01*
X8595000Y-15874428D02*
X8585476Y-15883952D01*
X8585476Y-15883952D02*
X8566429Y-15893476D01*
X8566429Y-15893476D02*
X8547381Y-15893476D01*
X8547381Y-15893476D02*
X8528333Y-15883952D01*
X8528333Y-15883952D02*
X8518810Y-15874428D01*
X8518810Y-15874428D02*
X8509286Y-15855381D01*
X8509286Y-15855381D02*
X8499762Y-15817286D01*
X8499762Y-15817286D02*
X8499762Y-15769667D01*
X8499762Y-15769667D02*
X8509286Y-15731571D01*
X8509286Y-15731571D02*
X8518810Y-15712524D01*
X8518810Y-15712524D02*
X8528333Y-15703000D01*
X8528333Y-15703000D02*
X8547381Y-15693476D01*
X8699762Y-15893476D02*
X8699762Y-15760143D01*
X8699762Y-15779190D02*
X8709286Y-15769667D01*
X8709286Y-15769667D02*
X8728333Y-15760143D01*
X8728333Y-15760143D02*
X8756905Y-15760143D01*
X8756905Y-15760143D02*
X8775952Y-15769667D01*
X8775952Y-15769667D02*
X8785476Y-15788714D01*
X8785476Y-15788714D02*
X8785476Y-15893476D01*
X8785476Y-15788714D02*
X8795000Y-15769667D01*
X8795000Y-15769667D02*
X8814048Y-15760143D01*
X8814048Y-15760143D02*
X8842619Y-15760143D01*
X8842619Y-15760143D02*
X8861667Y-15769667D01*
X8861667Y-15769667D02*
X8871191Y-15788714D01*
X8871191Y-15788714D02*
X8871191Y-15893476D01*
X8966429Y-15893476D02*
X8966429Y-15760143D01*
X8966429Y-15779190D02*
X8975952Y-15769667D01*
X8975952Y-15769667D02*
X8995000Y-15760143D01*
X8995000Y-15760143D02*
X9023572Y-15760143D01*
X9023572Y-15760143D02*
X9042619Y-15769667D01*
X9042619Y-15769667D02*
X9052143Y-15788714D01*
X9052143Y-15788714D02*
X9052143Y-15893476D01*
X9052143Y-15788714D02*
X9061667Y-15769667D01*
X9061667Y-15769667D02*
X9080714Y-15760143D01*
X9080714Y-15760143D02*
X9109286Y-15760143D01*
X9109286Y-15760143D02*
X9128333Y-15769667D01*
X9128333Y-15769667D02*
X9137857Y-15788714D01*
X9137857Y-15788714D02*
X9137857Y-15893476D01*
X9495952Y-15683952D02*
X9324524Y-15941095D01*
X9720714Y-15693476D02*
X9739762Y-15693476D01*
X9739762Y-15693476D02*
X9758810Y-15703000D01*
X9758810Y-15703000D02*
X9768333Y-15712524D01*
X9768333Y-15712524D02*
X9777857Y-15731571D01*
X9777857Y-15731571D02*
X9787381Y-15769667D01*
X9787381Y-15769667D02*
X9787381Y-15817286D01*
X9787381Y-15817286D02*
X9777857Y-15855381D01*
X9777857Y-15855381D02*
X9768333Y-15874428D01*
X9768333Y-15874428D02*
X9758810Y-15883952D01*
X9758810Y-15883952D02*
X9739762Y-15893476D01*
X9739762Y-15893476D02*
X9720714Y-15893476D01*
X9720714Y-15893476D02*
X9701667Y-15883952D01*
X9701667Y-15883952D02*
X9692143Y-15874428D01*
X9692143Y-15874428D02*
X9682619Y-15855381D01*
X9682619Y-15855381D02*
X9673095Y-15817286D01*
X9673095Y-15817286D02*
X9673095Y-15769667D01*
X9673095Y-15769667D02*
X9682619Y-15731571D01*
X9682619Y-15731571D02*
X9692143Y-15712524D01*
X9692143Y-15712524D02*
X9701667Y-15703000D01*
X9701667Y-15703000D02*
X9720714Y-15693476D01*
X9873095Y-15874428D02*
X9882619Y-15883952D01*
X9882619Y-15883952D02*
X9873095Y-15893476D01*
X9873095Y-15893476D02*
X9863572Y-15883952D01*
X9863572Y-15883952D02*
X9873095Y-15874428D01*
X9873095Y-15874428D02*
X9873095Y-15893476D01*
X10006429Y-15693476D02*
X10025476Y-15693476D01*
X10025476Y-15693476D02*
X10044524Y-15703000D01*
X10044524Y-15703000D02*
X10054048Y-15712524D01*
X10054048Y-15712524D02*
X10063572Y-15731571D01*
X10063572Y-15731571D02*
X10073095Y-15769667D01*
X10073095Y-15769667D02*
X10073095Y-15817286D01*
X10073095Y-15817286D02*
X10063572Y-15855381D01*
X10063572Y-15855381D02*
X10054048Y-15874428D01*
X10054048Y-15874428D02*
X10044524Y-15883952D01*
X10044524Y-15883952D02*
X10025476Y-15893476D01*
X10025476Y-15893476D02*
X10006429Y-15893476D01*
X10006429Y-15893476D02*
X9987381Y-15883952D01*
X9987381Y-15883952D02*
X9977857Y-15874428D01*
X9977857Y-15874428D02*
X9968333Y-15855381D01*
X9968333Y-15855381D02*
X9958810Y-15817286D01*
X9958810Y-15817286D02*
X9958810Y-15769667D01*
X9958810Y-15769667D02*
X9968333Y-15731571D01*
X9968333Y-15731571D02*
X9977857Y-15712524D01*
X9977857Y-15712524D02*
X9987381Y-15703000D01*
X9987381Y-15703000D02*
X10006429Y-15693476D01*
X10149286Y-15712524D02*
X10158810Y-15703000D01*
X10158810Y-15703000D02*
X10177857Y-15693476D01*
X10177857Y-15693476D02*
X10225476Y-15693476D01*
X10225476Y-15693476D02*
X10244524Y-15703000D01*
X10244524Y-15703000D02*
X10254048Y-15712524D01*
X10254048Y-15712524D02*
X10263572Y-15731571D01*
X10263572Y-15731571D02*
X10263572Y-15750619D01*
X10263572Y-15750619D02*
X10254048Y-15779190D01*
X10254048Y-15779190D02*
X10139762Y-15893476D01*
X10139762Y-15893476D02*
X10263572Y-15893476D01*
X10358810Y-15893476D02*
X10396905Y-15893476D01*
X10396905Y-15893476D02*
X10415953Y-15883952D01*
X10415953Y-15883952D02*
X10425476Y-15874428D01*
X10425476Y-15874428D02*
X10444524Y-15845857D01*
X10444524Y-15845857D02*
X10454048Y-15807762D01*
X10454048Y-15807762D02*
X10454048Y-15731571D01*
X10454048Y-15731571D02*
X10444524Y-15712524D01*
X10444524Y-15712524D02*
X10435000Y-15703000D01*
X10435000Y-15703000D02*
X10415953Y-15693476D01*
X10415953Y-15693476D02*
X10377857Y-15693476D01*
X10377857Y-15693476D02*
X10358810Y-15703000D01*
X10358810Y-15703000D02*
X10349286Y-15712524D01*
X10349286Y-15712524D02*
X10339762Y-15731571D01*
X10339762Y-15731571D02*
X10339762Y-15779190D01*
X10339762Y-15779190D02*
X10349286Y-15798238D01*
X10349286Y-15798238D02*
X10358810Y-15807762D01*
X10358810Y-15807762D02*
X10377857Y-15817286D01*
X10377857Y-15817286D02*
X10415953Y-15817286D01*
X10415953Y-15817286D02*
X10435000Y-15807762D01*
X10435000Y-15807762D02*
X10444524Y-15798238D01*
X10444524Y-15798238D02*
X10454048Y-15779190D01*
X10635000Y-15693476D02*
X10539762Y-15693476D01*
X10539762Y-15693476D02*
X10530238Y-15788714D01*
X10530238Y-15788714D02*
X10539762Y-15779190D01*
X10539762Y-15779190D02*
X10558810Y-15769667D01*
X10558810Y-15769667D02*
X10606429Y-15769667D01*
X10606429Y-15769667D02*
X10625476Y-15779190D01*
X10625476Y-15779190D02*
X10635000Y-15788714D01*
X10635000Y-15788714D02*
X10644524Y-15807762D01*
X10644524Y-15807762D02*
X10644524Y-15855381D01*
X10644524Y-15855381D02*
X10635000Y-15874428D01*
X10635000Y-15874428D02*
X10625476Y-15883952D01*
X10625476Y-15883952D02*
X10606429Y-15893476D01*
X10606429Y-15893476D02*
X10558810Y-15893476D01*
X10558810Y-15893476D02*
X10539762Y-15883952D01*
X10539762Y-15883952D02*
X10530238Y-15874428D01*
X10720714Y-15693476D02*
X10720714Y-15731571D01*
X10796905Y-15693476D02*
X10796905Y-15731571D01*
X11059762Y-15969667D02*
X11050238Y-15960143D01*
X11050238Y-15960143D02*
X11031191Y-15931571D01*
X11031191Y-15931571D02*
X11021667Y-15912524D01*
X11021667Y-15912524D02*
X11012143Y-15883952D01*
X11012143Y-15883952D02*
X11002619Y-15836333D01*
X11002619Y-15836333D02*
X11002619Y-15798238D01*
X11002619Y-15798238D02*
X11012143Y-15750619D01*
X11012143Y-15750619D02*
X11021667Y-15722048D01*
X11021667Y-15722048D02*
X11031191Y-15703000D01*
X11031191Y-15703000D02*
X11050238Y-15674428D01*
X11050238Y-15674428D02*
X11059762Y-15664905D01*
X11126429Y-15712524D02*
X11135953Y-15703000D01*
X11135953Y-15703000D02*
X11155000Y-15693476D01*
X11155000Y-15693476D02*
X11202619Y-15693476D01*
X11202619Y-15693476D02*
X11221667Y-15703000D01*
X11221667Y-15703000D02*
X11231191Y-15712524D01*
X11231191Y-15712524D02*
X11240714Y-15731571D01*
X11240714Y-15731571D02*
X11240714Y-15750619D01*
X11240714Y-15750619D02*
X11231191Y-15779190D01*
X11231191Y-15779190D02*
X11116905Y-15893476D01*
X11116905Y-15893476D02*
X11240714Y-15893476D01*
X11335952Y-15893476D02*
X11374048Y-15893476D01*
X11374048Y-15893476D02*
X11393095Y-15883952D01*
X11393095Y-15883952D02*
X11402619Y-15874428D01*
X11402619Y-15874428D02*
X11421667Y-15845857D01*
X11421667Y-15845857D02*
X11431191Y-15807762D01*
X11431191Y-15807762D02*
X11431191Y-15731571D01*
X11431191Y-15731571D02*
X11421667Y-15712524D01*
X11421667Y-15712524D02*
X11412143Y-15703000D01*
X11412143Y-15703000D02*
X11393095Y-15693476D01*
X11393095Y-15693476D02*
X11355000Y-15693476D01*
X11355000Y-15693476D02*
X11335952Y-15703000D01*
X11335952Y-15703000D02*
X11326429Y-15712524D01*
X11326429Y-15712524D02*
X11316905Y-15731571D01*
X11316905Y-15731571D02*
X11316905Y-15779190D01*
X11316905Y-15779190D02*
X11326429Y-15798238D01*
X11326429Y-15798238D02*
X11335952Y-15807762D01*
X11335952Y-15807762D02*
X11355000Y-15817286D01*
X11355000Y-15817286D02*
X11393095Y-15817286D01*
X11393095Y-15817286D02*
X11412143Y-15807762D01*
X11412143Y-15807762D02*
X11421667Y-15798238D01*
X11421667Y-15798238D02*
X11431191Y-15779190D01*
X11636905Y-15893476D02*
X11636905Y-15693476D01*
X11722619Y-15893476D02*
X11722619Y-15788714D01*
X11722619Y-15788714D02*
X11713095Y-15769667D01*
X11713095Y-15769667D02*
X11694048Y-15760143D01*
X11694048Y-15760143D02*
X11665476Y-15760143D01*
X11665476Y-15760143D02*
X11646429Y-15769667D01*
X11646429Y-15769667D02*
X11636905Y-15779190D01*
X11846429Y-15893476D02*
X11827381Y-15883952D01*
X11827381Y-15883952D02*
X11817857Y-15874428D01*
X11817857Y-15874428D02*
X11808333Y-15855381D01*
X11808333Y-15855381D02*
X11808333Y-15798238D01*
X11808333Y-15798238D02*
X11817857Y-15779190D01*
X11817857Y-15779190D02*
X11827381Y-15769667D01*
X11827381Y-15769667D02*
X11846429Y-15760143D01*
X11846429Y-15760143D02*
X11875000Y-15760143D01*
X11875000Y-15760143D02*
X11894048Y-15769667D01*
X11894048Y-15769667D02*
X11903572Y-15779190D01*
X11903572Y-15779190D02*
X11913095Y-15798238D01*
X11913095Y-15798238D02*
X11913095Y-15855381D01*
X11913095Y-15855381D02*
X11903572Y-15874428D01*
X11903572Y-15874428D02*
X11894048Y-15883952D01*
X11894048Y-15883952D02*
X11875000Y-15893476D01*
X11875000Y-15893476D02*
X11846429Y-15893476D01*
X12027381Y-15893476D02*
X12008333Y-15883952D01*
X12008333Y-15883952D02*
X11998810Y-15864905D01*
X11998810Y-15864905D02*
X11998810Y-15693476D01*
X12179762Y-15883952D02*
X12160714Y-15893476D01*
X12160714Y-15893476D02*
X12122619Y-15893476D01*
X12122619Y-15893476D02*
X12103572Y-15883952D01*
X12103572Y-15883952D02*
X12094048Y-15864905D01*
X12094048Y-15864905D02*
X12094048Y-15788714D01*
X12094048Y-15788714D02*
X12103572Y-15769667D01*
X12103572Y-15769667D02*
X12122619Y-15760143D01*
X12122619Y-15760143D02*
X12160714Y-15760143D01*
X12160714Y-15760143D02*
X12179762Y-15769667D01*
X12179762Y-15769667D02*
X12189286Y-15788714D01*
X12189286Y-15788714D02*
X12189286Y-15807762D01*
X12189286Y-15807762D02*
X12094048Y-15826809D01*
X12265476Y-15883952D02*
X12284524Y-15893476D01*
X12284524Y-15893476D02*
X12322619Y-15893476D01*
X12322619Y-15893476D02*
X12341667Y-15883952D01*
X12341667Y-15883952D02*
X12351191Y-15864905D01*
X12351191Y-15864905D02*
X12351191Y-15855381D01*
X12351191Y-15855381D02*
X12341667Y-15836333D01*
X12341667Y-15836333D02*
X12322619Y-15826809D01*
X12322619Y-15826809D02*
X12294048Y-15826809D01*
X12294048Y-15826809D02*
X12275000Y-15817286D01*
X12275000Y-15817286D02*
X12265476Y-15798238D01*
X12265476Y-15798238D02*
X12265476Y-15788714D01*
X12265476Y-15788714D02*
X12275000Y-15769667D01*
X12275000Y-15769667D02*
X12294048Y-15760143D01*
X12294048Y-15760143D02*
X12322619Y-15760143D01*
X12322619Y-15760143D02*
X12341667Y-15769667D01*
X12417857Y-15969667D02*
X12427381Y-15960143D01*
X12427381Y-15960143D02*
X12446429Y-15931571D01*
X12446429Y-15931571D02*
X12455953Y-15912524D01*
X12455953Y-15912524D02*
X12465476Y-15883952D01*
X12465476Y-15883952D02*
X12475000Y-15836333D01*
X12475000Y-15836333D02*
X12475000Y-15798238D01*
X12475000Y-15798238D02*
X12465476Y-15750619D01*
X12465476Y-15750619D02*
X12455953Y-15722048D01*
X12455953Y-15722048D02*
X12446429Y-15703000D01*
X12446429Y-15703000D02*
X12427381Y-15674428D01*
X12427381Y-15674428D02*
X12417857Y-15664905D01*
D10*
X7495000Y-16034000D02*
X7595000Y-16134000D01*
X7595000Y-16034000D02*
X7495000Y-16134000D01*
X7545000Y-16034000D02*
X7545000Y-16134000D01*
X7495000Y-16084000D02*
X7595000Y-16084000D01*
D11*
X7947381Y-16157476D02*
X7833095Y-16157476D01*
X7890238Y-16157476D02*
X7890238Y-15957476D01*
X7890238Y-15957476D02*
X7871190Y-15986048D01*
X7871190Y-15986048D02*
X7852143Y-16005095D01*
X7852143Y-16005095D02*
X7833095Y-16014619D01*
X8033095Y-16138428D02*
X8042619Y-16147952D01*
X8042619Y-16147952D02*
X8033095Y-16157476D01*
X8033095Y-16157476D02*
X8023571Y-16147952D01*
X8023571Y-16147952D02*
X8033095Y-16138428D01*
X8033095Y-16138428D02*
X8033095Y-16157476D01*
X8166428Y-15957476D02*
X8185476Y-15957476D01*
X8185476Y-15957476D02*
X8204524Y-15967000D01*
X8204524Y-15967000D02*
X8214048Y-15976524D01*
X8214048Y-15976524D02*
X8223571Y-15995571D01*
X8223571Y-15995571D02*
X8233095Y-16033667D01*
X8233095Y-16033667D02*
X8233095Y-16081286D01*
X8233095Y-16081286D02*
X8223571Y-16119381D01*
X8223571Y-16119381D02*
X8214048Y-16138428D01*
X8214048Y-16138428D02*
X8204524Y-16147952D01*
X8204524Y-16147952D02*
X8185476Y-16157476D01*
X8185476Y-16157476D02*
X8166428Y-16157476D01*
X8166428Y-16157476D02*
X8147381Y-16147952D01*
X8147381Y-16147952D02*
X8137857Y-16138428D01*
X8137857Y-16138428D02*
X8128333Y-16119381D01*
X8128333Y-16119381D02*
X8118809Y-16081286D01*
X8118809Y-16081286D02*
X8118809Y-16033667D01*
X8118809Y-16033667D02*
X8128333Y-15995571D01*
X8128333Y-15995571D02*
X8137857Y-15976524D01*
X8137857Y-15976524D02*
X8147381Y-15967000D01*
X8147381Y-15967000D02*
X8166428Y-15957476D01*
X8356905Y-15957476D02*
X8375952Y-15957476D01*
X8375952Y-15957476D02*
X8395000Y-15967000D01*
X8395000Y-15967000D02*
X8404524Y-15976524D01*
X8404524Y-15976524D02*
X8414048Y-15995571D01*
X8414048Y-15995571D02*
X8423571Y-16033667D01*
X8423571Y-16033667D02*
X8423571Y-16081286D01*
X8423571Y-16081286D02*
X8414048Y-16119381D01*
X8414048Y-16119381D02*
X8404524Y-16138428D01*
X8404524Y-16138428D02*
X8395000Y-16147952D01*
X8395000Y-16147952D02*
X8375952Y-16157476D01*
X8375952Y-16157476D02*
X8356905Y-16157476D01*
X8356905Y-16157476D02*
X8337857Y-16147952D01*
X8337857Y-16147952D02*
X8328333Y-16138428D01*
X8328333Y-16138428D02*
X8318809Y-16119381D01*
X8318809Y-16119381D02*
X8309286Y-16081286D01*
X8309286Y-16081286D02*
X8309286Y-16033667D01*
X8309286Y-16033667D02*
X8318809Y-15995571D01*
X8318809Y-15995571D02*
X8328333Y-15976524D01*
X8328333Y-15976524D02*
X8337857Y-15967000D01*
X8337857Y-15967000D02*
X8356905Y-15957476D01*
X8547381Y-15957476D02*
X8566429Y-15957476D01*
X8566429Y-15957476D02*
X8585476Y-15967000D01*
X8585476Y-15967000D02*
X8595000Y-15976524D01*
X8595000Y-15976524D02*
X8604524Y-15995571D01*
X8604524Y-15995571D02*
X8614048Y-16033667D01*
X8614048Y-16033667D02*
X8614048Y-16081286D01*
X8614048Y-16081286D02*
X8604524Y-16119381D01*
X8604524Y-16119381D02*
X8595000Y-16138428D01*
X8595000Y-16138428D02*
X8585476Y-16147952D01*
X8585476Y-16147952D02*
X8566429Y-16157476D01*
X8566429Y-16157476D02*
X8547381Y-16157476D01*
X8547381Y-16157476D02*
X8528333Y-16147952D01*
X8528333Y-16147952D02*
X8518810Y-16138428D01*
X8518810Y-16138428D02*
X8509286Y-16119381D01*
X8509286Y-16119381D02*
X8499762Y-16081286D01*
X8499762Y-16081286D02*
X8499762Y-16033667D01*
X8499762Y-16033667D02*
X8509286Y-15995571D01*
X8509286Y-15995571D02*
X8518810Y-15976524D01*
X8518810Y-15976524D02*
X8528333Y-15967000D01*
X8528333Y-15967000D02*
X8547381Y-15957476D01*
X8699762Y-16157476D02*
X8699762Y-16024143D01*
X8699762Y-16043190D02*
X8709286Y-16033667D01*
X8709286Y-16033667D02*
X8728333Y-16024143D01*
X8728333Y-16024143D02*
X8756905Y-16024143D01*
X8756905Y-16024143D02*
X8775952Y-16033667D01*
X8775952Y-16033667D02*
X8785476Y-16052714D01*
X8785476Y-16052714D02*
X8785476Y-16157476D01*
X8785476Y-16052714D02*
X8795000Y-16033667D01*
X8795000Y-16033667D02*
X8814048Y-16024143D01*
X8814048Y-16024143D02*
X8842619Y-16024143D01*
X8842619Y-16024143D02*
X8861667Y-16033667D01*
X8861667Y-16033667D02*
X8871191Y-16052714D01*
X8871191Y-16052714D02*
X8871191Y-16157476D01*
X8966429Y-16157476D02*
X8966429Y-16024143D01*
X8966429Y-16043190D02*
X8975952Y-16033667D01*
X8975952Y-16033667D02*
X8995000Y-16024143D01*
X8995000Y-16024143D02*
X9023572Y-16024143D01*
X9023572Y-16024143D02*
X9042619Y-16033667D01*
X9042619Y-16033667D02*
X9052143Y-16052714D01*
X9052143Y-16052714D02*
X9052143Y-16157476D01*
X9052143Y-16052714D02*
X9061667Y-16033667D01*
X9061667Y-16033667D02*
X9080714Y-16024143D01*
X9080714Y-16024143D02*
X9109286Y-16024143D01*
X9109286Y-16024143D02*
X9128333Y-16033667D01*
X9128333Y-16033667D02*
X9137857Y-16052714D01*
X9137857Y-16052714D02*
X9137857Y-16157476D01*
X9495952Y-15947952D02*
X9324524Y-16205095D01*
X9720714Y-15957476D02*
X9739762Y-15957476D01*
X9739762Y-15957476D02*
X9758810Y-15967000D01*
X9758810Y-15967000D02*
X9768333Y-15976524D01*
X9768333Y-15976524D02*
X9777857Y-15995571D01*
X9777857Y-15995571D02*
X9787381Y-16033667D01*
X9787381Y-16033667D02*
X9787381Y-16081286D01*
X9787381Y-16081286D02*
X9777857Y-16119381D01*
X9777857Y-16119381D02*
X9768333Y-16138428D01*
X9768333Y-16138428D02*
X9758810Y-16147952D01*
X9758810Y-16147952D02*
X9739762Y-16157476D01*
X9739762Y-16157476D02*
X9720714Y-16157476D01*
X9720714Y-16157476D02*
X9701667Y-16147952D01*
X9701667Y-16147952D02*
X9692143Y-16138428D01*
X9692143Y-16138428D02*
X9682619Y-16119381D01*
X9682619Y-16119381D02*
X9673095Y-16081286D01*
X9673095Y-16081286D02*
X9673095Y-16033667D01*
X9673095Y-16033667D02*
X9682619Y-15995571D01*
X9682619Y-15995571D02*
X9692143Y-15976524D01*
X9692143Y-15976524D02*
X9701667Y-15967000D01*
X9701667Y-15967000D02*
X9720714Y-15957476D01*
X9873095Y-16138428D02*
X9882619Y-16147952D01*
X9882619Y-16147952D02*
X9873095Y-16157476D01*
X9873095Y-16157476D02*
X9863572Y-16147952D01*
X9863572Y-16147952D02*
X9873095Y-16138428D01*
X9873095Y-16138428D02*
X9873095Y-16157476D01*
X10006429Y-15957476D02*
X10025476Y-15957476D01*
X10025476Y-15957476D02*
X10044524Y-15967000D01*
X10044524Y-15967000D02*
X10054048Y-15976524D01*
X10054048Y-15976524D02*
X10063572Y-15995571D01*
X10063572Y-15995571D02*
X10073095Y-16033667D01*
X10073095Y-16033667D02*
X10073095Y-16081286D01*
X10073095Y-16081286D02*
X10063572Y-16119381D01*
X10063572Y-16119381D02*
X10054048Y-16138428D01*
X10054048Y-16138428D02*
X10044524Y-16147952D01*
X10044524Y-16147952D02*
X10025476Y-16157476D01*
X10025476Y-16157476D02*
X10006429Y-16157476D01*
X10006429Y-16157476D02*
X9987381Y-16147952D01*
X9987381Y-16147952D02*
X9977857Y-16138428D01*
X9977857Y-16138428D02*
X9968333Y-16119381D01*
X9968333Y-16119381D02*
X9958810Y-16081286D01*
X9958810Y-16081286D02*
X9958810Y-16033667D01*
X9958810Y-16033667D02*
X9968333Y-15995571D01*
X9968333Y-15995571D02*
X9977857Y-15976524D01*
X9977857Y-15976524D02*
X9987381Y-15967000D01*
X9987381Y-15967000D02*
X10006429Y-15957476D01*
X10139762Y-15957476D02*
X10263572Y-15957476D01*
X10263572Y-15957476D02*
X10196905Y-16033667D01*
X10196905Y-16033667D02*
X10225476Y-16033667D01*
X10225476Y-16033667D02*
X10244524Y-16043190D01*
X10244524Y-16043190D02*
X10254048Y-16052714D01*
X10254048Y-16052714D02*
X10263572Y-16071762D01*
X10263572Y-16071762D02*
X10263572Y-16119381D01*
X10263572Y-16119381D02*
X10254048Y-16138428D01*
X10254048Y-16138428D02*
X10244524Y-16147952D01*
X10244524Y-16147952D02*
X10225476Y-16157476D01*
X10225476Y-16157476D02*
X10168333Y-16157476D01*
X10168333Y-16157476D02*
X10149286Y-16147952D01*
X10149286Y-16147952D02*
X10139762Y-16138428D01*
X10358810Y-16157476D02*
X10396905Y-16157476D01*
X10396905Y-16157476D02*
X10415953Y-16147952D01*
X10415953Y-16147952D02*
X10425476Y-16138428D01*
X10425476Y-16138428D02*
X10444524Y-16109857D01*
X10444524Y-16109857D02*
X10454048Y-16071762D01*
X10454048Y-16071762D02*
X10454048Y-15995571D01*
X10454048Y-15995571D02*
X10444524Y-15976524D01*
X10444524Y-15976524D02*
X10435000Y-15967000D01*
X10435000Y-15967000D02*
X10415953Y-15957476D01*
X10415953Y-15957476D02*
X10377857Y-15957476D01*
X10377857Y-15957476D02*
X10358810Y-15967000D01*
X10358810Y-15967000D02*
X10349286Y-15976524D01*
X10349286Y-15976524D02*
X10339762Y-15995571D01*
X10339762Y-15995571D02*
X10339762Y-16043190D01*
X10339762Y-16043190D02*
X10349286Y-16062238D01*
X10349286Y-16062238D02*
X10358810Y-16071762D01*
X10358810Y-16071762D02*
X10377857Y-16081286D01*
X10377857Y-16081286D02*
X10415953Y-16081286D01*
X10415953Y-16081286D02*
X10435000Y-16071762D01*
X10435000Y-16071762D02*
X10444524Y-16062238D01*
X10444524Y-16062238D02*
X10454048Y-16043190D01*
X10625476Y-16024143D02*
X10625476Y-16157476D01*
X10577857Y-15947952D02*
X10530238Y-16090809D01*
X10530238Y-16090809D02*
X10654048Y-16090809D01*
X10720714Y-15957476D02*
X10720714Y-15995571D01*
X10796905Y-15957476D02*
X10796905Y-15995571D01*
X11059762Y-16233667D02*
X11050238Y-16224143D01*
X11050238Y-16224143D02*
X11031191Y-16195571D01*
X11031191Y-16195571D02*
X11021667Y-16176524D01*
X11021667Y-16176524D02*
X11012143Y-16147952D01*
X11012143Y-16147952D02*
X11002619Y-16100333D01*
X11002619Y-16100333D02*
X11002619Y-16062238D01*
X11002619Y-16062238D02*
X11012143Y-16014619D01*
X11012143Y-16014619D02*
X11021667Y-15986048D01*
X11021667Y-15986048D02*
X11031191Y-15967000D01*
X11031191Y-15967000D02*
X11050238Y-15938428D01*
X11050238Y-15938428D02*
X11059762Y-15928905D01*
X11126429Y-15976524D02*
X11135953Y-15967000D01*
X11135953Y-15967000D02*
X11155000Y-15957476D01*
X11155000Y-15957476D02*
X11202619Y-15957476D01*
X11202619Y-15957476D02*
X11221667Y-15967000D01*
X11221667Y-15967000D02*
X11231191Y-15976524D01*
X11231191Y-15976524D02*
X11240714Y-15995571D01*
X11240714Y-15995571D02*
X11240714Y-16014619D01*
X11240714Y-16014619D02*
X11231191Y-16043190D01*
X11231191Y-16043190D02*
X11116905Y-16157476D01*
X11116905Y-16157476D02*
X11240714Y-16157476D01*
X11446429Y-16157476D02*
X11446429Y-15957476D01*
X11532143Y-16157476D02*
X11532143Y-16052714D01*
X11532143Y-16052714D02*
X11522619Y-16033667D01*
X11522619Y-16033667D02*
X11503572Y-16024143D01*
X11503572Y-16024143D02*
X11475000Y-16024143D01*
X11475000Y-16024143D02*
X11455952Y-16033667D01*
X11455952Y-16033667D02*
X11446429Y-16043190D01*
X11655952Y-16157476D02*
X11636905Y-16147952D01*
X11636905Y-16147952D02*
X11627381Y-16138428D01*
X11627381Y-16138428D02*
X11617857Y-16119381D01*
X11617857Y-16119381D02*
X11617857Y-16062238D01*
X11617857Y-16062238D02*
X11627381Y-16043190D01*
X11627381Y-16043190D02*
X11636905Y-16033667D01*
X11636905Y-16033667D02*
X11655952Y-16024143D01*
X11655952Y-16024143D02*
X11684524Y-16024143D01*
X11684524Y-16024143D02*
X11703572Y-16033667D01*
X11703572Y-16033667D02*
X11713095Y-16043190D01*
X11713095Y-16043190D02*
X11722619Y-16062238D01*
X11722619Y-16062238D02*
X11722619Y-16119381D01*
X11722619Y-16119381D02*
X11713095Y-16138428D01*
X11713095Y-16138428D02*
X11703572Y-16147952D01*
X11703572Y-16147952D02*
X11684524Y-16157476D01*
X11684524Y-16157476D02*
X11655952Y-16157476D01*
X11836905Y-16157476D02*
X11817857Y-16147952D01*
X11817857Y-16147952D02*
X11808333Y-16128905D01*
X11808333Y-16128905D02*
X11808333Y-15957476D01*
X11989286Y-16147952D02*
X11970238Y-16157476D01*
X11970238Y-16157476D02*
X11932143Y-16157476D01*
X11932143Y-16157476D02*
X11913095Y-16147952D01*
X11913095Y-16147952D02*
X11903572Y-16128905D01*
X11903572Y-16128905D02*
X11903572Y-16052714D01*
X11903572Y-16052714D02*
X11913095Y-16033667D01*
X11913095Y-16033667D02*
X11932143Y-16024143D01*
X11932143Y-16024143D02*
X11970238Y-16024143D01*
X11970238Y-16024143D02*
X11989286Y-16033667D01*
X11989286Y-16033667D02*
X11998810Y-16052714D01*
X11998810Y-16052714D02*
X11998810Y-16071762D01*
X11998810Y-16071762D02*
X11903572Y-16090809D01*
X12075000Y-16147952D02*
X12094048Y-16157476D01*
X12094048Y-16157476D02*
X12132143Y-16157476D01*
X12132143Y-16157476D02*
X12151191Y-16147952D01*
X12151191Y-16147952D02*
X12160714Y-16128905D01*
X12160714Y-16128905D02*
X12160714Y-16119381D01*
X12160714Y-16119381D02*
X12151191Y-16100333D01*
X12151191Y-16100333D02*
X12132143Y-16090809D01*
X12132143Y-16090809D02*
X12103572Y-16090809D01*
X12103572Y-16090809D02*
X12084524Y-16081286D01*
X12084524Y-16081286D02*
X12075000Y-16062238D01*
X12075000Y-16062238D02*
X12075000Y-16052714D01*
X12075000Y-16052714D02*
X12084524Y-16033667D01*
X12084524Y-16033667D02*
X12103572Y-16024143D01*
X12103572Y-16024143D02*
X12132143Y-16024143D01*
X12132143Y-16024143D02*
X12151191Y-16033667D01*
X12227381Y-16233667D02*
X12236905Y-16224143D01*
X12236905Y-16224143D02*
X12255953Y-16195571D01*
X12255953Y-16195571D02*
X12265476Y-16176524D01*
X12265476Y-16176524D02*
X12275000Y-16147952D01*
X12275000Y-16147952D02*
X12284524Y-16100333D01*
X12284524Y-16100333D02*
X12284524Y-16062238D01*
X12284524Y-16062238D02*
X12275000Y-16014619D01*
X12275000Y-16014619D02*
X12265476Y-15986048D01*
X12265476Y-15986048D02*
X12255953Y-15967000D01*
X12255953Y-15967000D02*
X12236905Y-15938428D01*
X12236905Y-15938428D02*
X12227381Y-15928905D01*
M02*
