%TF.GenerationSoftware,KiCad,Pcbnew,(6.0.7-1)-1*%
%TF.CreationDate,2023-01-13T15:06:54+01:00*%
%TF.ProjectId,Flux_BMS,466c7578-5f42-44d5-932e-6b696361645f,rev?*%
%TF.SameCoordinates,Original*%
%TF.FileFunction,Drillmap*%
%TF.FilePolarity,Positive*%
%FSLAX45Y45*%
G04 Gerber Fmt 4.5, Leading zero omitted, Abs format (unit mm)*
G04 Created by KiCad (PCBNEW (6.0.7-1)-1) date 2023-01-13 15:06:54*
%MOMM*%
%LPD*%
G01*
G04 APERTURE LIST*
%ADD10C,0.100000*%
%ADD11C,0.200000*%
%ADD12C,0.065000*%
%ADD13C,0.320000*%
G04 APERTURE END LIST*
D10*
X7600000Y-7355000D02*
X15900000Y-7355000D01*
X15900000Y-7355000D02*
X15900000Y-13855000D01*
X15900000Y-13855000D02*
X7600000Y-13855000D01*
X7600000Y-13855000D02*
X7600000Y-7355000D01*
D11*
D12*
X12033500Y-13157500D02*
X12098500Y-13222500D01*
X12098500Y-13157500D02*
X12033500Y-13222500D01*
X12611500Y-13157500D02*
X12676500Y-13222500D01*
X12676500Y-13157500D02*
X12611500Y-13222500D01*
D13*
X8095000Y-7705000D02*
G75*
G03*
X8095000Y-7705000I-160000J0D01*
G01*
X8095000Y-13515000D02*
G75*
G03*
X8095000Y-13515000I-160000J0D01*
G01*
X15720000Y-7705000D02*
G75*
G03*
X15720000Y-7705000I-160000J0D01*
G01*
X15720000Y-13505000D02*
G75*
G03*
X15720000Y-13505000I-160000J0D01*
G01*
D11*
X7852619Y-14170476D02*
X7852619Y-13970476D01*
X7900238Y-13970476D01*
X7928809Y-13980000D01*
X7947857Y-13999048D01*
X7957381Y-14018095D01*
X7966905Y-14056190D01*
X7966905Y-14084762D01*
X7957381Y-14122857D01*
X7947857Y-14141905D01*
X7928809Y-14160952D01*
X7900238Y-14170476D01*
X7852619Y-14170476D01*
X8052619Y-14170476D02*
X8052619Y-14037143D01*
X8052619Y-14075238D02*
X8062143Y-14056190D01*
X8071667Y-14046667D01*
X8090714Y-14037143D01*
X8109762Y-14037143D01*
X8176428Y-14170476D02*
X8176428Y-14037143D01*
X8176428Y-13970476D02*
X8166905Y-13980000D01*
X8176428Y-13989524D01*
X8185952Y-13980000D01*
X8176428Y-13970476D01*
X8176428Y-13989524D01*
X8300238Y-14170476D02*
X8281190Y-14160952D01*
X8271667Y-14141905D01*
X8271667Y-13970476D01*
X8405000Y-14170476D02*
X8385952Y-14160952D01*
X8376428Y-14141905D01*
X8376428Y-13970476D01*
X8633571Y-14170476D02*
X8633571Y-13970476D01*
X8700238Y-14113333D01*
X8766905Y-13970476D01*
X8766905Y-14170476D01*
X8947857Y-14170476D02*
X8947857Y-14065714D01*
X8938333Y-14046667D01*
X8919286Y-14037143D01*
X8881190Y-14037143D01*
X8862143Y-14046667D01*
X8947857Y-14160952D02*
X8928810Y-14170476D01*
X8881190Y-14170476D01*
X8862143Y-14160952D01*
X8852619Y-14141905D01*
X8852619Y-14122857D01*
X8862143Y-14103809D01*
X8881190Y-14094286D01*
X8928810Y-14094286D01*
X8947857Y-14084762D01*
X9043095Y-14037143D02*
X9043095Y-14237143D01*
X9043095Y-14046667D02*
X9062143Y-14037143D01*
X9100238Y-14037143D01*
X9119286Y-14046667D01*
X9128810Y-14056190D01*
X9138333Y-14075238D01*
X9138333Y-14132381D01*
X9128810Y-14151428D01*
X9119286Y-14160952D01*
X9100238Y-14170476D01*
X9062143Y-14170476D01*
X9043095Y-14160952D01*
X9224048Y-14151428D02*
X9233571Y-14160952D01*
X9224048Y-14170476D01*
X9214524Y-14160952D01*
X9224048Y-14151428D01*
X9224048Y-14170476D01*
X9224048Y-14046667D02*
X9233571Y-14056190D01*
X9224048Y-14065714D01*
X9214524Y-14056190D01*
X9224048Y-14046667D01*
X9224048Y-14065714D01*
D12*
X7530000Y-14467500D02*
X7595000Y-14532500D01*
X7595000Y-14467500D02*
X7530000Y-14532500D01*
D11*
X7890714Y-14390476D02*
X7909762Y-14390476D01*
X7928809Y-14400000D01*
X7938333Y-14409524D01*
X7947857Y-14428571D01*
X7957381Y-14466667D01*
X7957381Y-14514286D01*
X7947857Y-14552381D01*
X7938333Y-14571428D01*
X7928809Y-14580952D01*
X7909762Y-14590476D01*
X7890714Y-14590476D01*
X7871667Y-14580952D01*
X7862143Y-14571428D01*
X7852619Y-14552381D01*
X7843095Y-14514286D01*
X7843095Y-14466667D01*
X7852619Y-14428571D01*
X7862143Y-14409524D01*
X7871667Y-14400000D01*
X7890714Y-14390476D01*
X8043095Y-14571428D02*
X8052619Y-14580952D01*
X8043095Y-14590476D01*
X8033571Y-14580952D01*
X8043095Y-14571428D01*
X8043095Y-14590476D01*
X8224048Y-14390476D02*
X8185952Y-14390476D01*
X8166905Y-14400000D01*
X8157381Y-14409524D01*
X8138333Y-14438095D01*
X8128809Y-14476190D01*
X8128809Y-14552381D01*
X8138333Y-14571428D01*
X8147857Y-14580952D01*
X8166905Y-14590476D01*
X8205000Y-14590476D01*
X8224048Y-14580952D01*
X8233571Y-14571428D01*
X8243095Y-14552381D01*
X8243095Y-14504762D01*
X8233571Y-14485714D01*
X8224048Y-14476190D01*
X8205000Y-14466667D01*
X8166905Y-14466667D01*
X8147857Y-14476190D01*
X8138333Y-14485714D01*
X8128809Y-14504762D01*
X8424048Y-14390476D02*
X8328809Y-14390476D01*
X8319286Y-14485714D01*
X8328809Y-14476190D01*
X8347857Y-14466667D01*
X8395476Y-14466667D01*
X8414524Y-14476190D01*
X8424048Y-14485714D01*
X8433571Y-14504762D01*
X8433571Y-14552381D01*
X8424048Y-14571428D01*
X8414524Y-14580952D01*
X8395476Y-14590476D01*
X8347857Y-14590476D01*
X8328809Y-14580952D01*
X8319286Y-14571428D01*
X8557381Y-14390476D02*
X8576429Y-14390476D01*
X8595476Y-14400000D01*
X8605000Y-14409524D01*
X8614524Y-14428571D01*
X8624048Y-14466667D01*
X8624048Y-14514286D01*
X8614524Y-14552381D01*
X8605000Y-14571428D01*
X8595476Y-14580952D01*
X8576429Y-14590476D01*
X8557381Y-14590476D01*
X8538333Y-14580952D01*
X8528810Y-14571428D01*
X8519286Y-14552381D01*
X8509762Y-14514286D01*
X8509762Y-14466667D01*
X8519286Y-14428571D01*
X8528810Y-14409524D01*
X8538333Y-14400000D01*
X8557381Y-14390476D01*
X8709762Y-14590476D02*
X8709762Y-14457143D01*
X8709762Y-14476190D02*
X8719286Y-14466667D01*
X8738333Y-14457143D01*
X8766905Y-14457143D01*
X8785952Y-14466667D01*
X8795476Y-14485714D01*
X8795476Y-14590476D01*
X8795476Y-14485714D02*
X8805000Y-14466667D01*
X8824048Y-14457143D01*
X8852619Y-14457143D01*
X8871667Y-14466667D01*
X8881190Y-14485714D01*
X8881190Y-14590476D01*
X8976429Y-14590476D02*
X8976429Y-14457143D01*
X8976429Y-14476190D02*
X8985952Y-14466667D01*
X9005000Y-14457143D01*
X9033571Y-14457143D01*
X9052619Y-14466667D01*
X9062143Y-14485714D01*
X9062143Y-14590476D01*
X9062143Y-14485714D02*
X9071667Y-14466667D01*
X9090714Y-14457143D01*
X9119286Y-14457143D01*
X9138333Y-14466667D01*
X9147857Y-14485714D01*
X9147857Y-14590476D01*
X9538333Y-14380952D02*
X9366905Y-14638095D01*
X9795476Y-14390476D02*
X9814524Y-14390476D01*
X9833571Y-14400000D01*
X9843095Y-14409524D01*
X9852619Y-14428571D01*
X9862143Y-14466667D01*
X9862143Y-14514286D01*
X9852619Y-14552381D01*
X9843095Y-14571428D01*
X9833571Y-14580952D01*
X9814524Y-14590476D01*
X9795476Y-14590476D01*
X9776429Y-14580952D01*
X9766905Y-14571428D01*
X9757381Y-14552381D01*
X9747857Y-14514286D01*
X9747857Y-14466667D01*
X9757381Y-14428571D01*
X9766905Y-14409524D01*
X9776429Y-14400000D01*
X9795476Y-14390476D01*
X9947857Y-14571428D02*
X9957381Y-14580952D01*
X9947857Y-14590476D01*
X9938333Y-14580952D01*
X9947857Y-14571428D01*
X9947857Y-14590476D01*
X10081190Y-14390476D02*
X10100238Y-14390476D01*
X10119286Y-14400000D01*
X10128810Y-14409524D01*
X10138333Y-14428571D01*
X10147857Y-14466667D01*
X10147857Y-14514286D01*
X10138333Y-14552381D01*
X10128810Y-14571428D01*
X10119286Y-14580952D01*
X10100238Y-14590476D01*
X10081190Y-14590476D01*
X10062143Y-14580952D01*
X10052619Y-14571428D01*
X10043095Y-14552381D01*
X10033571Y-14514286D01*
X10033571Y-14466667D01*
X10043095Y-14428571D01*
X10052619Y-14409524D01*
X10062143Y-14400000D01*
X10081190Y-14390476D01*
X10224048Y-14409524D02*
X10233571Y-14400000D01*
X10252619Y-14390476D01*
X10300238Y-14390476D01*
X10319286Y-14400000D01*
X10328810Y-14409524D01*
X10338333Y-14428571D01*
X10338333Y-14447619D01*
X10328810Y-14476190D01*
X10214524Y-14590476D01*
X10338333Y-14590476D01*
X10519286Y-14390476D02*
X10424048Y-14390476D01*
X10414524Y-14485714D01*
X10424048Y-14476190D01*
X10443095Y-14466667D01*
X10490714Y-14466667D01*
X10509762Y-14476190D01*
X10519286Y-14485714D01*
X10528810Y-14504762D01*
X10528810Y-14552381D01*
X10519286Y-14571428D01*
X10509762Y-14580952D01*
X10490714Y-14590476D01*
X10443095Y-14590476D01*
X10424048Y-14580952D01*
X10414524Y-14571428D01*
X10700238Y-14390476D02*
X10662143Y-14390476D01*
X10643095Y-14400000D01*
X10633571Y-14409524D01*
X10614524Y-14438095D01*
X10605000Y-14476190D01*
X10605000Y-14552381D01*
X10614524Y-14571428D01*
X10624048Y-14580952D01*
X10643095Y-14590476D01*
X10681190Y-14590476D01*
X10700238Y-14580952D01*
X10709762Y-14571428D01*
X10719286Y-14552381D01*
X10719286Y-14504762D01*
X10709762Y-14485714D01*
X10700238Y-14476190D01*
X10681190Y-14466667D01*
X10643095Y-14466667D01*
X10624048Y-14476190D01*
X10614524Y-14485714D01*
X10605000Y-14504762D01*
X10795476Y-14390476D02*
X10795476Y-14428571D01*
X10871667Y-14390476D02*
X10871667Y-14428571D01*
X11166905Y-14666667D02*
X11157381Y-14657143D01*
X11138333Y-14628571D01*
X11128810Y-14609524D01*
X11119286Y-14580952D01*
X11109762Y-14533333D01*
X11109762Y-14495238D01*
X11119286Y-14447619D01*
X11128810Y-14419048D01*
X11138333Y-14400000D01*
X11157381Y-14371428D01*
X11166905Y-14361905D01*
X11233571Y-14409524D02*
X11243095Y-14400000D01*
X11262143Y-14390476D01*
X11309762Y-14390476D01*
X11328809Y-14400000D01*
X11338333Y-14409524D01*
X11347857Y-14428571D01*
X11347857Y-14447619D01*
X11338333Y-14476190D01*
X11224048Y-14590476D01*
X11347857Y-14590476D01*
X11585952Y-14590476D02*
X11585952Y-14390476D01*
X11671667Y-14590476D02*
X11671667Y-14485714D01*
X11662143Y-14466667D01*
X11643095Y-14457143D01*
X11614524Y-14457143D01*
X11595476Y-14466667D01*
X11585952Y-14476190D01*
X11795476Y-14590476D02*
X11776428Y-14580952D01*
X11766905Y-14571428D01*
X11757381Y-14552381D01*
X11757381Y-14495238D01*
X11766905Y-14476190D01*
X11776428Y-14466667D01*
X11795476Y-14457143D01*
X11824048Y-14457143D01*
X11843095Y-14466667D01*
X11852619Y-14476190D01*
X11862143Y-14495238D01*
X11862143Y-14552381D01*
X11852619Y-14571428D01*
X11843095Y-14580952D01*
X11824048Y-14590476D01*
X11795476Y-14590476D01*
X11976428Y-14590476D02*
X11957381Y-14580952D01*
X11947857Y-14561905D01*
X11947857Y-14390476D01*
X12128809Y-14580952D02*
X12109762Y-14590476D01*
X12071667Y-14590476D01*
X12052619Y-14580952D01*
X12043095Y-14561905D01*
X12043095Y-14485714D01*
X12052619Y-14466667D01*
X12071667Y-14457143D01*
X12109762Y-14457143D01*
X12128809Y-14466667D01*
X12138333Y-14485714D01*
X12138333Y-14504762D01*
X12043095Y-14523809D01*
X12214524Y-14580952D02*
X12233571Y-14590476D01*
X12271667Y-14590476D01*
X12290714Y-14580952D01*
X12300238Y-14561905D01*
X12300238Y-14552381D01*
X12290714Y-14533333D01*
X12271667Y-14523809D01*
X12243095Y-14523809D01*
X12224048Y-14514286D01*
X12214524Y-14495238D01*
X12214524Y-14485714D01*
X12224048Y-14466667D01*
X12243095Y-14457143D01*
X12271667Y-14457143D01*
X12290714Y-14466667D01*
X12366905Y-14666667D02*
X12376428Y-14657143D01*
X12395476Y-14628571D01*
X12405000Y-14609524D01*
X12414524Y-14580952D01*
X12424048Y-14533333D01*
X12424048Y-14495238D01*
X12414524Y-14447619D01*
X12405000Y-14419048D01*
X12395476Y-14400000D01*
X12376428Y-14371428D01*
X12366905Y-14361905D01*
X12728809Y-14666667D02*
X12719286Y-14657143D01*
X12700238Y-14628571D01*
X12690714Y-14609524D01*
X12681190Y-14580952D01*
X12671667Y-14533333D01*
X12671667Y-14495238D01*
X12681190Y-14447619D01*
X12690714Y-14419048D01*
X12700238Y-14400000D01*
X12719286Y-14371428D01*
X12728809Y-14361905D01*
X12805000Y-14457143D02*
X12805000Y-14590476D01*
X12805000Y-14476190D02*
X12814524Y-14466667D01*
X12833571Y-14457143D01*
X12862143Y-14457143D01*
X12881190Y-14466667D01*
X12890714Y-14485714D01*
X12890714Y-14590476D01*
X13014524Y-14590476D02*
X12995476Y-14580952D01*
X12985952Y-14571428D01*
X12976428Y-14552381D01*
X12976428Y-14495238D01*
X12985952Y-14476190D01*
X12995476Y-14466667D01*
X13014524Y-14457143D01*
X13043095Y-14457143D01*
X13062143Y-14466667D01*
X13071667Y-14476190D01*
X13081190Y-14495238D01*
X13081190Y-14552381D01*
X13071667Y-14571428D01*
X13062143Y-14580952D01*
X13043095Y-14590476D01*
X13014524Y-14590476D01*
X13138333Y-14457143D02*
X13214524Y-14457143D01*
X13166905Y-14390476D02*
X13166905Y-14561905D01*
X13176428Y-14580952D01*
X13195476Y-14590476D01*
X13214524Y-14590476D01*
X13433571Y-14457143D02*
X13433571Y-14657143D01*
X13433571Y-14466667D02*
X13452619Y-14457143D01*
X13490714Y-14457143D01*
X13509762Y-14466667D01*
X13519286Y-14476190D01*
X13528809Y-14495238D01*
X13528809Y-14552381D01*
X13519286Y-14571428D01*
X13509762Y-14580952D01*
X13490714Y-14590476D01*
X13452619Y-14590476D01*
X13433571Y-14580952D01*
X13643095Y-14590476D02*
X13624048Y-14580952D01*
X13614524Y-14561905D01*
X13614524Y-14390476D01*
X13805000Y-14590476D02*
X13805000Y-14485714D01*
X13795476Y-14466667D01*
X13776428Y-14457143D01*
X13738333Y-14457143D01*
X13719286Y-14466667D01*
X13805000Y-14580952D02*
X13785952Y-14590476D01*
X13738333Y-14590476D01*
X13719286Y-14580952D01*
X13709762Y-14561905D01*
X13709762Y-14542857D01*
X13719286Y-14523809D01*
X13738333Y-14514286D01*
X13785952Y-14514286D01*
X13805000Y-14504762D01*
X13871667Y-14457143D02*
X13947857Y-14457143D01*
X13900238Y-14390476D02*
X13900238Y-14561905D01*
X13909762Y-14580952D01*
X13928809Y-14590476D01*
X13947857Y-14590476D01*
X14090714Y-14580952D02*
X14071667Y-14590476D01*
X14033571Y-14590476D01*
X14014524Y-14580952D01*
X14005000Y-14561905D01*
X14005000Y-14485714D01*
X14014524Y-14466667D01*
X14033571Y-14457143D01*
X14071667Y-14457143D01*
X14090714Y-14466667D01*
X14100238Y-14485714D01*
X14100238Y-14504762D01*
X14005000Y-14523809D01*
X14271667Y-14590476D02*
X14271667Y-14390476D01*
X14271667Y-14580952D02*
X14252619Y-14590476D01*
X14214524Y-14590476D01*
X14195476Y-14580952D01*
X14185952Y-14571428D01*
X14176428Y-14552381D01*
X14176428Y-14495238D01*
X14185952Y-14476190D01*
X14195476Y-14466667D01*
X14214524Y-14457143D01*
X14252619Y-14457143D01*
X14271667Y-14466667D01*
X14347857Y-14666667D02*
X14357381Y-14657143D01*
X14376428Y-14628571D01*
X14385952Y-14609524D01*
X14395476Y-14580952D01*
X14405000Y-14533333D01*
X14405000Y-14495238D01*
X14395476Y-14447619D01*
X14385952Y-14419048D01*
X14376428Y-14400000D01*
X14357381Y-14371428D01*
X14347857Y-14361905D01*
X7595000Y-14764000D02*
G75*
G03*
X7595000Y-14764000I-100000J0D01*
G01*
X7833571Y-14654476D02*
X7957381Y-14654476D01*
X7890714Y-14730667D01*
X7919286Y-14730667D01*
X7938333Y-14740190D01*
X7947857Y-14749714D01*
X7957381Y-14768762D01*
X7957381Y-14816381D01*
X7947857Y-14835428D01*
X7938333Y-14844952D01*
X7919286Y-14854476D01*
X7862143Y-14854476D01*
X7843095Y-14844952D01*
X7833571Y-14835428D01*
X8043095Y-14835428D02*
X8052619Y-14844952D01*
X8043095Y-14854476D01*
X8033571Y-14844952D01*
X8043095Y-14835428D01*
X8043095Y-14854476D01*
X8128809Y-14673524D02*
X8138333Y-14664000D01*
X8157381Y-14654476D01*
X8205000Y-14654476D01*
X8224048Y-14664000D01*
X8233571Y-14673524D01*
X8243095Y-14692571D01*
X8243095Y-14711619D01*
X8233571Y-14740190D01*
X8119286Y-14854476D01*
X8243095Y-14854476D01*
X8366905Y-14654476D02*
X8385952Y-14654476D01*
X8405000Y-14664000D01*
X8414524Y-14673524D01*
X8424048Y-14692571D01*
X8433571Y-14730667D01*
X8433571Y-14778286D01*
X8424048Y-14816381D01*
X8414524Y-14835428D01*
X8405000Y-14844952D01*
X8385952Y-14854476D01*
X8366905Y-14854476D01*
X8347857Y-14844952D01*
X8338333Y-14835428D01*
X8328809Y-14816381D01*
X8319286Y-14778286D01*
X8319286Y-14730667D01*
X8328809Y-14692571D01*
X8338333Y-14673524D01*
X8347857Y-14664000D01*
X8366905Y-14654476D01*
X8557381Y-14654476D02*
X8576429Y-14654476D01*
X8595476Y-14664000D01*
X8605000Y-14673524D01*
X8614524Y-14692571D01*
X8624048Y-14730667D01*
X8624048Y-14778286D01*
X8614524Y-14816381D01*
X8605000Y-14835428D01*
X8595476Y-14844952D01*
X8576429Y-14854476D01*
X8557381Y-14854476D01*
X8538333Y-14844952D01*
X8528810Y-14835428D01*
X8519286Y-14816381D01*
X8509762Y-14778286D01*
X8509762Y-14730667D01*
X8519286Y-14692571D01*
X8528810Y-14673524D01*
X8538333Y-14664000D01*
X8557381Y-14654476D01*
X8709762Y-14854476D02*
X8709762Y-14721143D01*
X8709762Y-14740190D02*
X8719286Y-14730667D01*
X8738333Y-14721143D01*
X8766905Y-14721143D01*
X8785952Y-14730667D01*
X8795476Y-14749714D01*
X8795476Y-14854476D01*
X8795476Y-14749714D02*
X8805000Y-14730667D01*
X8824048Y-14721143D01*
X8852619Y-14721143D01*
X8871667Y-14730667D01*
X8881190Y-14749714D01*
X8881190Y-14854476D01*
X8976429Y-14854476D02*
X8976429Y-14721143D01*
X8976429Y-14740190D02*
X8985952Y-14730667D01*
X9005000Y-14721143D01*
X9033571Y-14721143D01*
X9052619Y-14730667D01*
X9062143Y-14749714D01*
X9062143Y-14854476D01*
X9062143Y-14749714D02*
X9071667Y-14730667D01*
X9090714Y-14721143D01*
X9119286Y-14721143D01*
X9138333Y-14730667D01*
X9147857Y-14749714D01*
X9147857Y-14854476D01*
X9538333Y-14644952D02*
X9366905Y-14902095D01*
X9795476Y-14654476D02*
X9814524Y-14654476D01*
X9833571Y-14664000D01*
X9843095Y-14673524D01*
X9852619Y-14692571D01*
X9862143Y-14730667D01*
X9862143Y-14778286D01*
X9852619Y-14816381D01*
X9843095Y-14835428D01*
X9833571Y-14844952D01*
X9814524Y-14854476D01*
X9795476Y-14854476D01*
X9776429Y-14844952D01*
X9766905Y-14835428D01*
X9757381Y-14816381D01*
X9747857Y-14778286D01*
X9747857Y-14730667D01*
X9757381Y-14692571D01*
X9766905Y-14673524D01*
X9776429Y-14664000D01*
X9795476Y-14654476D01*
X9947857Y-14835428D02*
X9957381Y-14844952D01*
X9947857Y-14854476D01*
X9938333Y-14844952D01*
X9947857Y-14835428D01*
X9947857Y-14854476D01*
X10147857Y-14854476D02*
X10033571Y-14854476D01*
X10090714Y-14854476D02*
X10090714Y-14654476D01*
X10071667Y-14683048D01*
X10052619Y-14702095D01*
X10033571Y-14711619D01*
X10224048Y-14673524D02*
X10233571Y-14664000D01*
X10252619Y-14654476D01*
X10300238Y-14654476D01*
X10319286Y-14664000D01*
X10328810Y-14673524D01*
X10338333Y-14692571D01*
X10338333Y-14711619D01*
X10328810Y-14740190D01*
X10214524Y-14854476D01*
X10338333Y-14854476D01*
X10509762Y-14654476D02*
X10471667Y-14654476D01*
X10452619Y-14664000D01*
X10443095Y-14673524D01*
X10424048Y-14702095D01*
X10414524Y-14740190D01*
X10414524Y-14816381D01*
X10424048Y-14835428D01*
X10433571Y-14844952D01*
X10452619Y-14854476D01*
X10490714Y-14854476D01*
X10509762Y-14844952D01*
X10519286Y-14835428D01*
X10528810Y-14816381D01*
X10528810Y-14768762D01*
X10519286Y-14749714D01*
X10509762Y-14740190D01*
X10490714Y-14730667D01*
X10452619Y-14730667D01*
X10433571Y-14740190D01*
X10424048Y-14749714D01*
X10414524Y-14768762D01*
X10652619Y-14654476D02*
X10671667Y-14654476D01*
X10690714Y-14664000D01*
X10700238Y-14673524D01*
X10709762Y-14692571D01*
X10719286Y-14730667D01*
X10719286Y-14778286D01*
X10709762Y-14816381D01*
X10700238Y-14835428D01*
X10690714Y-14844952D01*
X10671667Y-14854476D01*
X10652619Y-14854476D01*
X10633571Y-14844952D01*
X10624048Y-14835428D01*
X10614524Y-14816381D01*
X10605000Y-14778286D01*
X10605000Y-14730667D01*
X10614524Y-14692571D01*
X10624048Y-14673524D01*
X10633571Y-14664000D01*
X10652619Y-14654476D01*
X10795476Y-14654476D02*
X10795476Y-14692571D01*
X10871667Y-14654476D02*
X10871667Y-14692571D01*
X11166905Y-14930667D02*
X11157381Y-14921143D01*
X11138333Y-14892571D01*
X11128810Y-14873524D01*
X11119286Y-14844952D01*
X11109762Y-14797333D01*
X11109762Y-14759238D01*
X11119286Y-14711619D01*
X11128810Y-14683048D01*
X11138333Y-14664000D01*
X11157381Y-14635428D01*
X11166905Y-14625905D01*
X11328809Y-14721143D02*
X11328809Y-14854476D01*
X11281190Y-14644952D02*
X11233571Y-14787809D01*
X11357381Y-14787809D01*
X11585952Y-14854476D02*
X11585952Y-14654476D01*
X11671667Y-14854476D02*
X11671667Y-14749714D01*
X11662143Y-14730667D01*
X11643095Y-14721143D01*
X11614524Y-14721143D01*
X11595476Y-14730667D01*
X11585952Y-14740190D01*
X11795476Y-14854476D02*
X11776428Y-14844952D01*
X11766905Y-14835428D01*
X11757381Y-14816381D01*
X11757381Y-14759238D01*
X11766905Y-14740190D01*
X11776428Y-14730667D01*
X11795476Y-14721143D01*
X11824048Y-14721143D01*
X11843095Y-14730667D01*
X11852619Y-14740190D01*
X11862143Y-14759238D01*
X11862143Y-14816381D01*
X11852619Y-14835428D01*
X11843095Y-14844952D01*
X11824048Y-14854476D01*
X11795476Y-14854476D01*
X11976428Y-14854476D02*
X11957381Y-14844952D01*
X11947857Y-14825905D01*
X11947857Y-14654476D01*
X12128809Y-14844952D02*
X12109762Y-14854476D01*
X12071667Y-14854476D01*
X12052619Y-14844952D01*
X12043095Y-14825905D01*
X12043095Y-14749714D01*
X12052619Y-14730667D01*
X12071667Y-14721143D01*
X12109762Y-14721143D01*
X12128809Y-14730667D01*
X12138333Y-14749714D01*
X12138333Y-14768762D01*
X12043095Y-14787809D01*
X12214524Y-14844952D02*
X12233571Y-14854476D01*
X12271667Y-14854476D01*
X12290714Y-14844952D01*
X12300238Y-14825905D01*
X12300238Y-14816381D01*
X12290714Y-14797333D01*
X12271667Y-14787809D01*
X12243095Y-14787809D01*
X12224048Y-14778286D01*
X12214524Y-14759238D01*
X12214524Y-14749714D01*
X12224048Y-14730667D01*
X12243095Y-14721143D01*
X12271667Y-14721143D01*
X12290714Y-14730667D01*
X12366905Y-14930667D02*
X12376428Y-14921143D01*
X12395476Y-14892571D01*
X12405000Y-14873524D01*
X12414524Y-14844952D01*
X12424048Y-14797333D01*
X12424048Y-14759238D01*
X12414524Y-14711619D01*
X12405000Y-14683048D01*
X12395476Y-14664000D01*
X12376428Y-14635428D01*
X12366905Y-14625905D01*
X12728809Y-14930667D02*
X12719286Y-14921143D01*
X12700238Y-14892571D01*
X12690714Y-14873524D01*
X12681190Y-14844952D01*
X12671667Y-14797333D01*
X12671667Y-14759238D01*
X12681190Y-14711619D01*
X12690714Y-14683048D01*
X12700238Y-14664000D01*
X12719286Y-14635428D01*
X12728809Y-14625905D01*
X12805000Y-14721143D02*
X12805000Y-14854476D01*
X12805000Y-14740190D02*
X12814524Y-14730667D01*
X12833571Y-14721143D01*
X12862143Y-14721143D01*
X12881190Y-14730667D01*
X12890714Y-14749714D01*
X12890714Y-14854476D01*
X13014524Y-14854476D02*
X12995476Y-14844952D01*
X12985952Y-14835428D01*
X12976428Y-14816381D01*
X12976428Y-14759238D01*
X12985952Y-14740190D01*
X12995476Y-14730667D01*
X13014524Y-14721143D01*
X13043095Y-14721143D01*
X13062143Y-14730667D01*
X13071667Y-14740190D01*
X13081190Y-14759238D01*
X13081190Y-14816381D01*
X13071667Y-14835428D01*
X13062143Y-14844952D01*
X13043095Y-14854476D01*
X13014524Y-14854476D01*
X13138333Y-14721143D02*
X13214524Y-14721143D01*
X13166905Y-14654476D02*
X13166905Y-14825905D01*
X13176428Y-14844952D01*
X13195476Y-14854476D01*
X13214524Y-14854476D01*
X13433571Y-14721143D02*
X13433571Y-14921143D01*
X13433571Y-14730667D02*
X13452619Y-14721143D01*
X13490714Y-14721143D01*
X13509762Y-14730667D01*
X13519286Y-14740190D01*
X13528809Y-14759238D01*
X13528809Y-14816381D01*
X13519286Y-14835428D01*
X13509762Y-14844952D01*
X13490714Y-14854476D01*
X13452619Y-14854476D01*
X13433571Y-14844952D01*
X13643095Y-14854476D02*
X13624048Y-14844952D01*
X13614524Y-14825905D01*
X13614524Y-14654476D01*
X13805000Y-14854476D02*
X13805000Y-14749714D01*
X13795476Y-14730667D01*
X13776428Y-14721143D01*
X13738333Y-14721143D01*
X13719286Y-14730667D01*
X13805000Y-14844952D02*
X13785952Y-14854476D01*
X13738333Y-14854476D01*
X13719286Y-14844952D01*
X13709762Y-14825905D01*
X13709762Y-14806857D01*
X13719286Y-14787809D01*
X13738333Y-14778286D01*
X13785952Y-14778286D01*
X13805000Y-14768762D01*
X13871667Y-14721143D02*
X13947857Y-14721143D01*
X13900238Y-14654476D02*
X13900238Y-14825905D01*
X13909762Y-14844952D01*
X13928809Y-14854476D01*
X13947857Y-14854476D01*
X14090714Y-14844952D02*
X14071667Y-14854476D01*
X14033571Y-14854476D01*
X14014524Y-14844952D01*
X14005000Y-14825905D01*
X14005000Y-14749714D01*
X14014524Y-14730667D01*
X14033571Y-14721143D01*
X14071667Y-14721143D01*
X14090714Y-14730667D01*
X14100238Y-14749714D01*
X14100238Y-14768762D01*
X14005000Y-14787809D01*
X14271667Y-14854476D02*
X14271667Y-14654476D01*
X14271667Y-14844952D02*
X14252619Y-14854476D01*
X14214524Y-14854476D01*
X14195476Y-14844952D01*
X14185952Y-14835428D01*
X14176428Y-14816381D01*
X14176428Y-14759238D01*
X14185952Y-14740190D01*
X14195476Y-14730667D01*
X14214524Y-14721143D01*
X14252619Y-14721143D01*
X14271667Y-14730667D01*
X14347857Y-14930667D02*
X14357381Y-14921143D01*
X14376428Y-14892571D01*
X14385952Y-14873524D01*
X14395476Y-14844952D01*
X14405000Y-14797333D01*
X14405000Y-14759238D01*
X14395476Y-14711619D01*
X14385952Y-14683048D01*
X14376428Y-14664000D01*
X14357381Y-14635428D01*
X14347857Y-14625905D01*
M02*
