M48
; DRILL file {KiCad (6.0.7-1)-1} date 2023 January 13, Friday 15:06:53
; FORMAT={-:-/ absolute / metric / decimal}
; #@! TF.CreationDate,2023-01-13T15:06:53+01:00
; #@! TF.GenerationSoftware,Kicad,Pcbnew,(6.0.7-1)-1
; #@! TF.FileFunction,Plated,1,4,PTH
FMAT,2
METRIC
; #@! TA.AperFunction,Plated,PTH,ComponentDrill
T1C0.200
; #@! TA.AperFunction,Plated,PTH,ViaDrill
T2C0.300
; #@! TA.AperFunction,Plated,PTH,ComponentDrill
T3C0.300
; #@! TA.AperFunction,Plated,PTH,ComponentDrill
T4C0.500
; #@! TA.AperFunction,Plated,PTH,ComponentDrill
T5C0.600
; #@! TA.AperFunction,Plated,PTH,ComponentDrill
T6C0.750
; #@! TA.AperFunction,Plated,PTH,ComponentDrill
T7C1.000
%
G90
G05
T1
X150.808Y-89.425
X150.808Y-90.725
X150.808Y-92.025
X152.718Y-89.425
X152.718Y-90.725
X152.718Y-92.025
T2
X117.864Y-120.375
X117.864Y-121.225
X119.6Y-110.65
X120.1Y-82.9
X120.45Y-126.8
X121.15Y-123.3
X121.85Y-88.4
X122.45Y-118.8
X123.075Y-108.185
X123.1Y-110.65
X125.974Y-110.7
X127.049Y-83.451
X127.122Y-122.675
X127.651Y-82.849
X128.75Y-101.1
X128.75Y-105.5
X128.75Y-106.6
X128.75Y-119.3
X128.812Y-102.95
X131.35Y-118.65
X131.85Y-86.5
X132.1Y-122.4
X132.35Y-117.4
X133.85Y-134.9
X133.95Y-136.4
X134.1Y-90.65
X134.25Y-123.3
X134.35Y-133.7
X135.35Y-129.9
X135.35Y-134.5
X137.1Y-117.3
X137.6Y-108.4
X137.75Y-122.0
X138.05Y-126.1
X138.45Y-127.4
X138.6Y-107.5
X138.6Y-114.65
X138.6Y-119.15
X140.1Y-90.65
X140.95Y-135.2
X143.25Y-113.7
X143.6Y-97.4
X143.65Y-124.7
X143.85Y-78.8
X144.75Y-110.4
X145.1Y-119.65
X145.85Y-125.6
X146.6Y-130.4
X149.1Y-122.15
X149.35Y-124.65
X151.85Y-132.15
X154.4Y-86.05
X157.65Y-98.9
T3
X121.6Y-74.55
X121.6Y-75.55
X121.6Y-76.55
X121.6Y-77.55
X122.6Y-74.55
X122.6Y-75.55
X122.6Y-76.55
X122.6Y-77.55
X123.6Y-74.55
X123.6Y-75.55
X123.6Y-76.55
X123.6Y-77.55
X124.6Y-74.55
X124.6Y-75.55
X124.6Y-76.55
X124.6Y-77.55
X128.85Y-74.55
X128.85Y-75.55
X128.85Y-76.55
X128.85Y-77.55
X129.85Y-74.55
X129.85Y-75.55
X129.85Y-76.55
X129.85Y-77.55
X130.85Y-74.55
X130.85Y-75.55
X130.85Y-76.55
X130.85Y-77.55
X131.85Y-74.55
X131.85Y-75.55
X131.85Y-76.55
X131.85Y-77.55
X139.1Y-74.55
X139.1Y-75.55
X139.1Y-76.55
X139.1Y-77.55
X140.1Y-74.55
X140.1Y-75.55
X140.1Y-76.55
X140.1Y-77.55
X141.1Y-74.55
X141.1Y-75.55
X141.1Y-76.55
X141.1Y-77.55
X142.1Y-74.55
X142.1Y-75.55
X142.1Y-76.55
X142.1Y-77.55
X146.85Y-74.55
X146.85Y-75.55
X146.85Y-76.55
X146.85Y-77.55
X147.85Y-74.55
X147.85Y-75.55
X147.85Y-76.55
X147.85Y-77.55
X148.85Y-74.55
X148.85Y-75.55
X148.85Y-76.55
X148.85Y-77.55
X149.85Y-74.55
X149.85Y-75.55
X149.85Y-76.55
X149.85Y-77.55
T4
X86.65Y-76.0
X86.65Y-80.213
X86.65Y-84.227
X86.65Y-88.24
X86.65Y-92.253
X86.65Y-96.267
X86.65Y-100.28
X86.65Y-104.293
X86.65Y-108.307
X86.65Y-112.32
X86.65Y-116.333
X86.65Y-120.347
X86.65Y-124.36
X86.65Y-128.373
X86.65Y-132.387
X86.65Y-136.4
T6
X82.45Y-87.4
X82.45Y-89.4
X82.45Y-91.4
X82.45Y-93.4
X82.45Y-95.4
X82.45Y-97.4
X82.45Y-99.4
X82.45Y-101.4
X82.45Y-110.783
X82.45Y-112.783
X82.45Y-114.783
X82.45Y-116.783
X82.45Y-118.783
X82.45Y-120.783
X82.45Y-122.783
X82.45Y-124.783
X143.65Y-135.45
X145.65Y-135.45
X147.65Y-135.45
X149.65Y-135.45
X155.95Y-104.8
X155.95Y-106.8
X155.95Y-111.7
X155.95Y-113.7
X155.95Y-118.6
X155.95Y-120.6
X155.95Y-122.6
X155.95Y-124.6
X155.95Y-126.6
T7
X127.1Y-117.4
X129.64Y-117.4
T5
X119.23Y-130.82G85X119.23Y-131.92
G05
X119.23Y-135.25G85X119.23Y-135.85
G05
X127.87Y-130.82G85X127.87Y-131.92
G05
X127.87Y-135.25G85X127.87Y-135.85
G05
T0
M30
