M48
; DRILL file {KiCad (7.0.0-0)} date Wednesday, 08 March 2023 at 11:07:39
; FORMAT={-:-/ absolute / metric / decimal}
; #@! TF.CreationDate,2023-03-08T11:07:39+01:00
; #@! TF.GenerationSoftware,Kicad,Pcbnew,(7.0.0-0)
; #@! TF.FileFunction,Plated,1,4,PTH
FMAT,2
METRIC
; #@! TA.AperFunction,Plated,PTH,ComponentDrill
T1C0.200
; #@! TA.AperFunction,Plated,PTH,ViaDrill
T2C0.300
; #@! TA.AperFunction,Plated,PTH,ComponentDrill
T3C0.300
; #@! TA.AperFunction,Plated,PTH,ComponentDrill
T4C0.500
; #@! TA.AperFunction,Plated,PTH,ComponentDrill
T5C0.600
; #@! TA.AperFunction,Plated,PTH,ComponentDrill
T6C0.750
; #@! TA.AperFunction,Plated,PTH,ComponentDrill
T7C1.000
%
G90
G05
T1
X150.808Y-89.425
X150.808Y-90.725
X150.808Y-92.025
X152.718Y-89.425
X152.718Y-90.725
X152.718Y-92.025
T2
X107.629Y-118.371
X107.863Y-97.649
X112.325Y-116.425
X112.85Y-95.4
X117.864Y-120.375
X117.864Y-121.225
X118.7Y-118.2
X119.6Y-110.65
X119.85Y-101.9
X120.1Y-82.9
X120.45Y-126.8
X121.0Y-85.25
X122.25Y-122.75
X122.6Y-113.65
X123.075Y-108.185
X123.1Y-110.65
X123.35Y-126.9
X123.35Y-132.44
X124.85Y-121.4
X125.974Y-110.408
X127.122Y-122.675
X127.65Y-82.5
X128.5Y-82.5
X128.75Y-101.1
X128.75Y-105.5
X128.75Y-106.6
X128.75Y-119.3
X128.812Y-102.95
X129.55Y-110.7
X129.7Y-114.85
X131.35Y-118.65
X131.85Y-86.5
X132.1Y-122.4
X132.35Y-117.4
X133.85Y-134.9
X133.95Y-136.4
X134.1Y-90.65
X134.25Y-123.3
X134.35Y-133.7
X135.35Y-84.4
X135.35Y-129.9
X135.35Y-134.5
X137.1Y-117.3
X137.6Y-108.4
X137.75Y-122.0
X138.35Y-109.5
X138.45Y-127.4
X138.6Y-107.5
X138.6Y-119.15
X140.1Y-90.65
X140.95Y-135.2
X141.146Y-125.97
X143.25Y-113.7
X143.35Y-78.4
X143.6Y-97.4
X143.65Y-124.7
X144.75Y-110.4
X145.1Y-119.65
X145.85Y-125.6
X146.6Y-130.4
X149.1Y-122.15
X149.35Y-124.65
X151.85Y-132.15
X153.6Y-84.55
X157.65Y-98.9
T3
X123.05Y-74.3
X123.05Y-75.3
X123.05Y-76.3
X123.05Y-77.3
X124.05Y-74.3
X124.05Y-75.3
X124.05Y-76.3
X124.05Y-77.3
X125.05Y-74.3
X125.05Y-75.3
X125.05Y-76.3
X125.05Y-77.3
X126.05Y-74.3
X126.05Y-75.3
X126.05Y-76.3
X126.05Y-77.3
X130.05Y-74.3
X130.05Y-75.3
X130.05Y-76.3
X130.05Y-77.3
X131.05Y-74.3
X131.05Y-75.3
X131.05Y-76.3
X131.05Y-77.3
X132.05Y-74.3
X132.05Y-75.3
X132.05Y-76.3
X132.05Y-77.3
X133.05Y-74.3
X133.05Y-75.3
X133.05Y-76.3
X133.05Y-77.3
X138.6Y-74.4
X138.6Y-75.4
X138.6Y-76.4
X138.6Y-77.4
X139.6Y-74.4
X139.6Y-75.4
X139.6Y-76.4
X139.6Y-77.4
X140.6Y-74.4
X140.6Y-75.4
X140.6Y-76.4
X140.6Y-77.4
X141.6Y-74.4
X141.6Y-75.4
X141.6Y-76.4
X141.6Y-77.4
X144.65Y-74.35
X144.65Y-75.35
X144.65Y-76.35
X144.65Y-77.35
X145.65Y-74.35
X145.65Y-75.35
X145.65Y-76.35
X145.65Y-77.35
X146.65Y-74.35
X146.65Y-75.35
X146.65Y-76.35
X146.65Y-77.35
X147.65Y-74.35
X147.65Y-75.35
X147.65Y-76.35
X147.65Y-77.35
T4
X86.65Y-76.0
X86.65Y-80.213
X86.65Y-84.227
X86.65Y-88.24
X86.65Y-92.253
X86.65Y-96.267
X86.65Y-100.28
X86.65Y-104.293
X86.65Y-108.307
X86.65Y-112.32
X86.65Y-116.333
X86.65Y-120.347
X86.65Y-124.36
X86.65Y-128.373
X86.65Y-132.387
X86.65Y-136.4
T6
X82.45Y-87.4
X82.45Y-89.4
X82.45Y-91.4
X82.45Y-93.4
X82.45Y-95.4
X82.45Y-97.4
X82.45Y-99.4
X82.45Y-101.4
X82.45Y-110.783
X82.45Y-112.783
X82.45Y-114.783
X82.45Y-116.783
X82.45Y-118.783
X82.45Y-120.783
X82.45Y-122.783
X82.45Y-124.783
X143.65Y-135.45
X145.65Y-135.45
X147.65Y-135.45
X149.65Y-135.45
X155.95Y-104.8
X155.95Y-106.8
X155.95Y-111.7
X155.95Y-113.7
X155.95Y-118.6
X155.95Y-120.6
X155.95Y-122.6
X155.95Y-124.6
X155.95Y-126.6
T7
X127.1Y-117.4
X129.64Y-117.4
T5
X119.23Y-130.82G85X119.23Y-131.92
G05
X119.23Y-135.25G85X119.23Y-135.85
G05
X127.87Y-130.82G85X127.87Y-131.92
G05
X127.87Y-135.25G85X127.87Y-135.85
G05
T0
M30
