M48
; DRILL file {KiCad 6.0.5} date 2022 June 29, Wednesday 09:42:54
; FORMAT={-:-/ absolute / inch / decimal}
; #@! TF.CreationDate,2022-06-29T09:42:54+02:00
; #@! TF.GenerationSoftware,Kicad,Pcbnew,6.0.5
; #@! TF.FileFunction,Plated,1,4,PTH
FMAT,2
INCH
; #@! TA.AperFunction,Plated,PTH,ViaDrill
T1C0.0157
; #@! TA.AperFunction,Plated,PTH,ComponentDrill
T2C0.0374
%
G90
G05
T1
X3.8189Y-2.7795
X3.8268Y-3.4567
X3.9528Y-3.4016
X3.9606Y-3.1575
X3.9685Y-2.1811
X3.9685Y-2.4173
X3.9685Y-2.6614
X3.9843Y-2.8425
X4.6142Y-3.0472
X4.685Y-3.0
X4.7165Y-2.4331
X4.7244Y-2.685
X4.7323Y-2.9291
X4.8346Y-3.4409
X4.874Y-3.3228
X4.8819Y-2.189
X4.9606Y-2.189
X5.0315Y-3.3228
X5.0394Y-2.189
X5.1102Y-3.3228
X5.1181Y-2.189
X5.1811Y-3.3307
X5.1969Y-2.189
X5.2283Y-3.1181
X5.2756Y-2.189
T2
X3.1181Y-2.1732
X3.1181Y-2.2717
X3.1181Y-2.3701
X3.1181Y-2.4685
X3.1181Y-2.5669
X3.1181Y-2.6654
X3.1181Y-2.7638
X3.1181Y-2.8622
X3.1181Y-2.9606
X3.1181Y-3.0591
X3.1181Y-3.1575
X3.1181Y-3.2559
X3.1181Y-3.3543
T0
M30
