%TF.GenerationSoftware,KiCad,Pcbnew,(6.0.7-1)-1*%
%TF.CreationDate,2023-01-13T15:06:54+01:00*%
%TF.ProjectId,Flux_BMS,466c7578-5f42-44d5-932e-6b696361645f,rev?*%
%TF.SameCoordinates,Original*%
%TF.FileFunction,Drillmap*%
%TF.FilePolarity,Positive*%
%FSLAX45Y45*%
G04 Gerber Fmt 4.5, Leading zero omitted, Abs format (unit mm)*
G04 Created by KiCad (PCBNEW (6.0.7-1)-1) date 2023-01-13 15:06:54*
%MOMM*%
%LPD*%
G01*
G04 APERTURE LIST*
%ADD10C,0.100000*%
%ADD11C,0.200000*%
%ADD12C,0.020000*%
%ADD13C,0.030000*%
%ADD14C,0.050000*%
%ADD15C,0.060000*%
%ADD16C,0.075000*%
G04 APERTURE END LIST*
D10*
X7600000Y-7355000D02*
X15900000Y-7355000D01*
X15900000Y-7355000D02*
X15900000Y-13855000D01*
X15900000Y-13855000D02*
X7600000Y-13855000D01*
X7600000Y-13855000D02*
X7600000Y-7355000D01*
D11*
D12*
X15070750Y-8932500D02*
X15090750Y-8952500D01*
X15090750Y-8932500D02*
X15070750Y-8952500D01*
X15070750Y-9062500D02*
X15090750Y-9082500D01*
X15090750Y-9062500D02*
X15070750Y-9082500D01*
X15070750Y-9192500D02*
X15090750Y-9212500D01*
X15090750Y-9192500D02*
X15070750Y-9212500D01*
X15261750Y-8932500D02*
X15281750Y-8952500D01*
X15281750Y-8932500D02*
X15261750Y-8952500D01*
X15261750Y-9062500D02*
X15281750Y-9082500D01*
X15281750Y-9062500D02*
X15261750Y-9082500D01*
X15261750Y-9192500D02*
X15281750Y-9212500D01*
X15281750Y-9192500D02*
X15261750Y-9212500D01*
D13*
X11801441Y-12037500D02*
G75*
G03*
X11801441Y-12037500I-15000J0D01*
G01*
X11801441Y-12122500D02*
G75*
G03*
X11801441Y-12122500I-15000J0D01*
G01*
X11975000Y-11065000D02*
G75*
G03*
X11975000Y-11065000I-15000J0D01*
G01*
X12025000Y-8290000D02*
G75*
G03*
X12025000Y-8290000I-15000J0D01*
G01*
X12060000Y-12680000D02*
G75*
G03*
X12060000Y-12680000I-15000J0D01*
G01*
X12130000Y-12330000D02*
G75*
G03*
X12130000Y-12330000I-15000J0D01*
G01*
X12200000Y-8840000D02*
G75*
G03*
X12200000Y-8840000I-15000J0D01*
G01*
X12260000Y-11880000D02*
G75*
G03*
X12260000Y-11880000I-15000J0D01*
G01*
X12322450Y-10818491D02*
G75*
G03*
X12322450Y-10818491I-15000J0D01*
G01*
X12325000Y-11065000D02*
G75*
G03*
X12325000Y-11065000I-15000J0D01*
G01*
X12612450Y-11070000D02*
G75*
G03*
X12612450Y-11070000I-15000J0D01*
G01*
X12719948Y-8345052D02*
G75*
G03*
X12719948Y-8345052I-15000J0D01*
G01*
X12727203Y-12267550D02*
G75*
G03*
X12727203Y-12267550I-15000J0D01*
G01*
X12780052Y-8284948D02*
G75*
G03*
X12780052Y-8284948I-15000J0D01*
G01*
X12890000Y-10110000D02*
G75*
G03*
X12890000Y-10110000I-15000J0D01*
G01*
X12890000Y-10550000D02*
G75*
G03*
X12890000Y-10550000I-15000J0D01*
G01*
X12890000Y-10660000D02*
G75*
G03*
X12890000Y-10660000I-15000J0D01*
G01*
X12890000Y-11930000D02*
G75*
G03*
X12890000Y-11930000I-15000J0D01*
G01*
X12896250Y-10295000D02*
G75*
G03*
X12896250Y-10295000I-15000J0D01*
G01*
X13150000Y-11865000D02*
G75*
G03*
X13150000Y-11865000I-15000J0D01*
G01*
X13200000Y-8650000D02*
G75*
G03*
X13200000Y-8650000I-15000J0D01*
G01*
X13225000Y-12240000D02*
G75*
G03*
X13225000Y-12240000I-15000J0D01*
G01*
X13250000Y-11740000D02*
G75*
G03*
X13250000Y-11740000I-15000J0D01*
G01*
X13400000Y-13490000D02*
G75*
G03*
X13400000Y-13490000I-15000J0D01*
G01*
X13410000Y-13640000D02*
G75*
G03*
X13410000Y-13640000I-15000J0D01*
G01*
X13425000Y-9065000D02*
G75*
G03*
X13425000Y-9065000I-15000J0D01*
G01*
X13440000Y-12330000D02*
G75*
G03*
X13440000Y-12330000I-15000J0D01*
G01*
X13450000Y-13370000D02*
G75*
G03*
X13450000Y-13370000I-15000J0D01*
G01*
X13550000Y-12990000D02*
G75*
G03*
X13550000Y-12990000I-15000J0D01*
G01*
X13550000Y-13450000D02*
G75*
G03*
X13550000Y-13450000I-15000J0D01*
G01*
X13725000Y-11730000D02*
G75*
G03*
X13725000Y-11730000I-15000J0D01*
G01*
X13775000Y-10840000D02*
G75*
G03*
X13775000Y-10840000I-15000J0D01*
G01*
X13790000Y-12200000D02*
G75*
G03*
X13790000Y-12200000I-15000J0D01*
G01*
X13820000Y-12610000D02*
G75*
G03*
X13820000Y-12610000I-15000J0D01*
G01*
X13860000Y-12740000D02*
G75*
G03*
X13860000Y-12740000I-15000J0D01*
G01*
X13875000Y-10750000D02*
G75*
G03*
X13875000Y-10750000I-15000J0D01*
G01*
X13875000Y-11465000D02*
G75*
G03*
X13875000Y-11465000I-15000J0D01*
G01*
X13875000Y-11915000D02*
G75*
G03*
X13875000Y-11915000I-15000J0D01*
G01*
X14025000Y-9065000D02*
G75*
G03*
X14025000Y-9065000I-15000J0D01*
G01*
X14110000Y-13520000D02*
G75*
G03*
X14110000Y-13520000I-15000J0D01*
G01*
X14340000Y-11370000D02*
G75*
G03*
X14340000Y-11370000I-15000J0D01*
G01*
X14375000Y-9740000D02*
G75*
G03*
X14375000Y-9740000I-15000J0D01*
G01*
X14380000Y-12470000D02*
G75*
G03*
X14380000Y-12470000I-15000J0D01*
G01*
X14400000Y-7880000D02*
G75*
G03*
X14400000Y-7880000I-15000J0D01*
G01*
X14490000Y-11040000D02*
G75*
G03*
X14490000Y-11040000I-15000J0D01*
G01*
X14525000Y-11965000D02*
G75*
G03*
X14525000Y-11965000I-15000J0D01*
G01*
X14600000Y-12560000D02*
G75*
G03*
X14600000Y-12560000I-15000J0D01*
G01*
X14675000Y-13040000D02*
G75*
G03*
X14675000Y-13040000I-15000J0D01*
G01*
X14925000Y-12215000D02*
G75*
G03*
X14925000Y-12215000I-15000J0D01*
G01*
X14950000Y-12465000D02*
G75*
G03*
X14950000Y-12465000I-15000J0D01*
G01*
X15200000Y-13215000D02*
G75*
G03*
X15200000Y-13215000I-15000J0D01*
G01*
X15455000Y-8605000D02*
G75*
G03*
X15455000Y-8605000I-15000J0D01*
G01*
X15780000Y-9890000D02*
G75*
G03*
X15780000Y-9890000I-15000J0D01*
G01*
X12160000Y-7440000D02*
X12160000Y-7470000D01*
X12145000Y-7455000D02*
X12175000Y-7455000D01*
X12160000Y-7540000D02*
X12160000Y-7570000D01*
X12145000Y-7555000D02*
X12175000Y-7555000D01*
X12160000Y-7640000D02*
X12160000Y-7670000D01*
X12145000Y-7655000D02*
X12175000Y-7655000D01*
X12160000Y-7740000D02*
X12160000Y-7770000D01*
X12145000Y-7755000D02*
X12175000Y-7755000D01*
X12260000Y-7440000D02*
X12260000Y-7470000D01*
X12245000Y-7455000D02*
X12275000Y-7455000D01*
X12260000Y-7540000D02*
X12260000Y-7570000D01*
X12245000Y-7555000D02*
X12275000Y-7555000D01*
X12260000Y-7640000D02*
X12260000Y-7670000D01*
X12245000Y-7655000D02*
X12275000Y-7655000D01*
X12260000Y-7740000D02*
X12260000Y-7770000D01*
X12245000Y-7755000D02*
X12275000Y-7755000D01*
X12360000Y-7440000D02*
X12360000Y-7470000D01*
X12345000Y-7455000D02*
X12375000Y-7455000D01*
X12360000Y-7540000D02*
X12360000Y-7570000D01*
X12345000Y-7555000D02*
X12375000Y-7555000D01*
X12360000Y-7640000D02*
X12360000Y-7670000D01*
X12345000Y-7655000D02*
X12375000Y-7655000D01*
X12360000Y-7740000D02*
X12360000Y-7770000D01*
X12345000Y-7755000D02*
X12375000Y-7755000D01*
X12460000Y-7440000D02*
X12460000Y-7470000D01*
X12445000Y-7455000D02*
X12475000Y-7455000D01*
X12460000Y-7540000D02*
X12460000Y-7570000D01*
X12445000Y-7555000D02*
X12475000Y-7555000D01*
X12460000Y-7640000D02*
X12460000Y-7670000D01*
X12445000Y-7655000D02*
X12475000Y-7655000D01*
X12460000Y-7740000D02*
X12460000Y-7770000D01*
X12445000Y-7755000D02*
X12475000Y-7755000D01*
X12885000Y-7440000D02*
X12885000Y-7470000D01*
X12870000Y-7455000D02*
X12900000Y-7455000D01*
X12885000Y-7540000D02*
X12885000Y-7570000D01*
X12870000Y-7555000D02*
X12900000Y-7555000D01*
X12885000Y-7640000D02*
X12885000Y-7670000D01*
X12870000Y-7655000D02*
X12900000Y-7655000D01*
X12885000Y-7740000D02*
X12885000Y-7770000D01*
X12870000Y-7755000D02*
X12900000Y-7755000D01*
X12985000Y-7440000D02*
X12985000Y-7470000D01*
X12970000Y-7455000D02*
X13000000Y-7455000D01*
X12985000Y-7540000D02*
X12985000Y-7570000D01*
X12970000Y-7555000D02*
X13000000Y-7555000D01*
X12985000Y-7640000D02*
X12985000Y-7670000D01*
X12970000Y-7655000D02*
X13000000Y-7655000D01*
X12985000Y-7740000D02*
X12985000Y-7770000D01*
X12970000Y-7755000D02*
X13000000Y-7755000D01*
X13085000Y-7440000D02*
X13085000Y-7470000D01*
X13070000Y-7455000D02*
X13100000Y-7455000D01*
X13085000Y-7540000D02*
X13085000Y-7570000D01*
X13070000Y-7555000D02*
X13100000Y-7555000D01*
X13085000Y-7640000D02*
X13085000Y-7670000D01*
X13070000Y-7655000D02*
X13100000Y-7655000D01*
X13085000Y-7740000D02*
X13085000Y-7770000D01*
X13070000Y-7755000D02*
X13100000Y-7755000D01*
X13185000Y-7440000D02*
X13185000Y-7470000D01*
X13170000Y-7455000D02*
X13200000Y-7455000D01*
X13185000Y-7540000D02*
X13185000Y-7570000D01*
X13170000Y-7555000D02*
X13200000Y-7555000D01*
X13185000Y-7640000D02*
X13185000Y-7670000D01*
X13170000Y-7655000D02*
X13200000Y-7655000D01*
X13185000Y-7740000D02*
X13185000Y-7770000D01*
X13170000Y-7755000D02*
X13200000Y-7755000D01*
X13910000Y-7440000D02*
X13910000Y-7470000D01*
X13895000Y-7455000D02*
X13925000Y-7455000D01*
X13910000Y-7540000D02*
X13910000Y-7570000D01*
X13895000Y-7555000D02*
X13925000Y-7555000D01*
X13910000Y-7640000D02*
X13910000Y-7670000D01*
X13895000Y-7655000D02*
X13925000Y-7655000D01*
X13910000Y-7740000D02*
X13910000Y-7770000D01*
X13895000Y-7755000D02*
X13925000Y-7755000D01*
X14010000Y-7440000D02*
X14010000Y-7470000D01*
X13995000Y-7455000D02*
X14025000Y-7455000D01*
X14010000Y-7540000D02*
X14010000Y-7570000D01*
X13995000Y-7555000D02*
X14025000Y-7555000D01*
X14010000Y-7640000D02*
X14010000Y-7670000D01*
X13995000Y-7655000D02*
X14025000Y-7655000D01*
X14010000Y-7740000D02*
X14010000Y-7770000D01*
X13995000Y-7755000D02*
X14025000Y-7755000D01*
X14110000Y-7440000D02*
X14110000Y-7470000D01*
X14095000Y-7455000D02*
X14125000Y-7455000D01*
X14110000Y-7540000D02*
X14110000Y-7570000D01*
X14095000Y-7555000D02*
X14125000Y-7555000D01*
X14110000Y-7640000D02*
X14110000Y-7670000D01*
X14095000Y-7655000D02*
X14125000Y-7655000D01*
X14110000Y-7740000D02*
X14110000Y-7770000D01*
X14095000Y-7755000D02*
X14125000Y-7755000D01*
X14210000Y-7440000D02*
X14210000Y-7470000D01*
X14195000Y-7455000D02*
X14225000Y-7455000D01*
X14210000Y-7540000D02*
X14210000Y-7570000D01*
X14195000Y-7555000D02*
X14225000Y-7555000D01*
X14210000Y-7640000D02*
X14210000Y-7670000D01*
X14195000Y-7655000D02*
X14225000Y-7655000D01*
X14210000Y-7740000D02*
X14210000Y-7770000D01*
X14195000Y-7755000D02*
X14225000Y-7755000D01*
X14685000Y-7440000D02*
X14685000Y-7470000D01*
X14670000Y-7455000D02*
X14700000Y-7455000D01*
X14685000Y-7540000D02*
X14685000Y-7570000D01*
X14670000Y-7555000D02*
X14700000Y-7555000D01*
X14685000Y-7640000D02*
X14685000Y-7670000D01*
X14670000Y-7655000D02*
X14700000Y-7655000D01*
X14685000Y-7740000D02*
X14685000Y-7770000D01*
X14670000Y-7755000D02*
X14700000Y-7755000D01*
X14785000Y-7440000D02*
X14785000Y-7470000D01*
X14770000Y-7455000D02*
X14800000Y-7455000D01*
X14785000Y-7540000D02*
X14785000Y-7570000D01*
X14770000Y-7555000D02*
X14800000Y-7555000D01*
X14785000Y-7640000D02*
X14785000Y-7670000D01*
X14770000Y-7655000D02*
X14800000Y-7655000D01*
X14785000Y-7740000D02*
X14785000Y-7770000D01*
X14770000Y-7755000D02*
X14800000Y-7755000D01*
X14885000Y-7440000D02*
X14885000Y-7470000D01*
X14870000Y-7455000D02*
X14900000Y-7455000D01*
X14885000Y-7540000D02*
X14885000Y-7570000D01*
X14870000Y-7555000D02*
X14900000Y-7555000D01*
X14885000Y-7640000D02*
X14885000Y-7670000D01*
X14870000Y-7655000D02*
X14900000Y-7655000D01*
X14885000Y-7740000D02*
X14885000Y-7770000D01*
X14870000Y-7755000D02*
X14900000Y-7755000D01*
X14985000Y-7440000D02*
X14985000Y-7470000D01*
X14970000Y-7455000D02*
X15000000Y-7455000D01*
X14985000Y-7540000D02*
X14985000Y-7570000D01*
X14970000Y-7555000D02*
X15000000Y-7555000D01*
X14985000Y-7640000D02*
X14985000Y-7670000D01*
X14970000Y-7655000D02*
X15000000Y-7655000D01*
X14985000Y-7740000D02*
X14985000Y-7770000D01*
X14970000Y-7755000D02*
X15000000Y-7755000D01*
D14*
X8682678Y-7617678D02*
X8682678Y-7582322D01*
X8647322Y-7582322D01*
X8647322Y-7617678D01*
X8682678Y-7617678D01*
X8682678Y-8039011D02*
X8682678Y-8003655D01*
X8647322Y-8003655D01*
X8647322Y-8039011D01*
X8682678Y-8039011D01*
X8682678Y-8440344D02*
X8682678Y-8404989D01*
X8647322Y-8404989D01*
X8647322Y-8440344D01*
X8682678Y-8440344D01*
X8682678Y-8841678D02*
X8682678Y-8806322D01*
X8647322Y-8806322D01*
X8647322Y-8841678D01*
X8682678Y-8841678D01*
X8682678Y-9243011D02*
X8682678Y-9207655D01*
X8647322Y-9207655D01*
X8647322Y-9243011D01*
X8682678Y-9243011D01*
X8682678Y-9644344D02*
X8682678Y-9608989D01*
X8647322Y-9608989D01*
X8647322Y-9644344D01*
X8682678Y-9644344D01*
X8682678Y-10045678D02*
X8682678Y-10010322D01*
X8647322Y-10010322D01*
X8647322Y-10045678D01*
X8682678Y-10045678D01*
X8682678Y-10447011D02*
X8682678Y-10411655D01*
X8647322Y-10411655D01*
X8647322Y-10447011D01*
X8682678Y-10447011D01*
X8682678Y-10848344D02*
X8682678Y-10812989D01*
X8647322Y-10812989D01*
X8647322Y-10848344D01*
X8682678Y-10848344D01*
X8682678Y-11249677D02*
X8682678Y-11214322D01*
X8647322Y-11214322D01*
X8647322Y-11249677D01*
X8682678Y-11249677D01*
X8682678Y-11651011D02*
X8682678Y-11615655D01*
X8647322Y-11615655D01*
X8647322Y-11651011D01*
X8682678Y-11651011D01*
X8682678Y-12052344D02*
X8682678Y-12016988D01*
X8647322Y-12016988D01*
X8647322Y-12052344D01*
X8682678Y-12052344D01*
X8682678Y-12453677D02*
X8682678Y-12418322D01*
X8647322Y-12418322D01*
X8647322Y-12453677D01*
X8682678Y-12453677D01*
X8682678Y-12855011D02*
X8682678Y-12819655D01*
X8647322Y-12819655D01*
X8647322Y-12855011D01*
X8682678Y-12855011D01*
X8682678Y-13256344D02*
X8682678Y-13220988D01*
X8647322Y-13220988D01*
X8647322Y-13256344D01*
X8682678Y-13256344D01*
X8682678Y-13657678D02*
X8682678Y-13622322D01*
X8647322Y-13622322D01*
X8647322Y-13657678D01*
X8682678Y-13657678D01*
D15*
X11923000Y-13167000D02*
X11953000Y-13137000D01*
X11923000Y-13107000D01*
X11893000Y-13137000D01*
X11923000Y-13167000D01*
D11*
X11893000Y-13082000D02*
X11893000Y-13192000D01*
X11953000Y-13082000D02*
X11953000Y-13192000D01*
X11893000Y-13192000D02*
G75*
G03*
X11953000Y-13192000I30000J0D01*
G01*
X11953000Y-13082000D02*
G75*
G03*
X11893000Y-13082000I-30000J0D01*
G01*
D15*
X11923000Y-13585000D02*
X11953000Y-13555000D01*
X11923000Y-13525000D01*
X11893000Y-13555000D01*
X11923000Y-13585000D01*
D11*
X11893000Y-13525000D02*
X11893000Y-13585000D01*
X11953000Y-13525000D02*
X11953000Y-13585000D01*
X11893000Y-13585000D02*
G75*
G03*
X11953000Y-13585000I30000J0D01*
G01*
X11953000Y-13525000D02*
G75*
G03*
X11893000Y-13525000I-30000J0D01*
G01*
D15*
X12787000Y-13167000D02*
X12817000Y-13137000D01*
X12787000Y-13107000D01*
X12757000Y-13137000D01*
X12787000Y-13167000D01*
D11*
X12757000Y-13082000D02*
X12757000Y-13192000D01*
X12817000Y-13082000D02*
X12817000Y-13192000D01*
X12757000Y-13192000D02*
G75*
G03*
X12817000Y-13192000I30000J0D01*
G01*
X12817000Y-13082000D02*
G75*
G03*
X12757000Y-13082000I-30000J0D01*
G01*
D15*
X12787000Y-13585000D02*
X12817000Y-13555000D01*
X12787000Y-13525000D01*
X12757000Y-13555000D01*
X12787000Y-13585000D01*
D11*
X12757000Y-13525000D02*
X12757000Y-13585000D01*
X12817000Y-13525000D02*
X12817000Y-13585000D01*
X12757000Y-13585000D02*
G75*
G03*
X12817000Y-13585000I30000J0D01*
G01*
X12817000Y-13525000D02*
G75*
G03*
X12757000Y-13525000I-30000J0D01*
G01*
D16*
X8207500Y-8702500D02*
X8282500Y-8777500D01*
X8282500Y-8702500D02*
X8207500Y-8777500D01*
X8282500Y-8740000D02*
G75*
G03*
X8282500Y-8740000I-37500J0D01*
G01*
X8207500Y-8902500D02*
X8282500Y-8977500D01*
X8282500Y-8902500D02*
X8207500Y-8977500D01*
X8282500Y-8940000D02*
G75*
G03*
X8282500Y-8940000I-37500J0D01*
G01*
X8207500Y-9102500D02*
X8282500Y-9177500D01*
X8282500Y-9102500D02*
X8207500Y-9177500D01*
X8282500Y-9140000D02*
G75*
G03*
X8282500Y-9140000I-37500J0D01*
G01*
X8207500Y-9302500D02*
X8282500Y-9377500D01*
X8282500Y-9302500D02*
X8207500Y-9377500D01*
X8282500Y-9340000D02*
G75*
G03*
X8282500Y-9340000I-37500J0D01*
G01*
X8207500Y-9502500D02*
X8282500Y-9577500D01*
X8282500Y-9502500D02*
X8207500Y-9577500D01*
X8282500Y-9540000D02*
G75*
G03*
X8282500Y-9540000I-37500J0D01*
G01*
X8207500Y-9702500D02*
X8282500Y-9777500D01*
X8282500Y-9702500D02*
X8207500Y-9777500D01*
X8282500Y-9740000D02*
G75*
G03*
X8282500Y-9740000I-37500J0D01*
G01*
X8207500Y-9902500D02*
X8282500Y-9977500D01*
X8282500Y-9902500D02*
X8207500Y-9977500D01*
X8282500Y-9940000D02*
G75*
G03*
X8282500Y-9940000I-37500J0D01*
G01*
X8207500Y-10102500D02*
X8282500Y-10177500D01*
X8282500Y-10102500D02*
X8207500Y-10177500D01*
X8282500Y-10140000D02*
G75*
G03*
X8282500Y-10140000I-37500J0D01*
G01*
X8207500Y-11040833D02*
X8282500Y-11115833D01*
X8282500Y-11040833D02*
X8207500Y-11115833D01*
X8282500Y-11078333D02*
G75*
G03*
X8282500Y-11078333I-37500J0D01*
G01*
X8207500Y-11240833D02*
X8282500Y-11315833D01*
X8282500Y-11240833D02*
X8207500Y-11315833D01*
X8282500Y-11278333D02*
G75*
G03*
X8282500Y-11278333I-37500J0D01*
G01*
X8207500Y-11440833D02*
X8282500Y-11515833D01*
X8282500Y-11440833D02*
X8207500Y-11515833D01*
X8282500Y-11478333D02*
G75*
G03*
X8282500Y-11478333I-37500J0D01*
G01*
X8207500Y-11640833D02*
X8282500Y-11715833D01*
X8282500Y-11640833D02*
X8207500Y-11715833D01*
X8282500Y-11678333D02*
G75*
G03*
X8282500Y-11678333I-37500J0D01*
G01*
X8207500Y-11840833D02*
X8282500Y-11915833D01*
X8282500Y-11840833D02*
X8207500Y-11915833D01*
X8282500Y-11878333D02*
G75*
G03*
X8282500Y-11878333I-37500J0D01*
G01*
X8207500Y-12040833D02*
X8282500Y-12115833D01*
X8282500Y-12040833D02*
X8207500Y-12115833D01*
X8282500Y-12078333D02*
G75*
G03*
X8282500Y-12078333I-37500J0D01*
G01*
X8207500Y-12240833D02*
X8282500Y-12315833D01*
X8282500Y-12240833D02*
X8207500Y-12315833D01*
X8282500Y-12278333D02*
G75*
G03*
X8282500Y-12278333I-37500J0D01*
G01*
X8207500Y-12440833D02*
X8282500Y-12515833D01*
X8282500Y-12440833D02*
X8207500Y-12515833D01*
X8282500Y-12478333D02*
G75*
G03*
X8282500Y-12478333I-37500J0D01*
G01*
X14327500Y-13507500D02*
X14402500Y-13582500D01*
X14402500Y-13507500D02*
X14327500Y-13582500D01*
X14402500Y-13545000D02*
G75*
G03*
X14402500Y-13545000I-37500J0D01*
G01*
X14527500Y-13507500D02*
X14602500Y-13582500D01*
X14602500Y-13507500D02*
X14527500Y-13582500D01*
X14602500Y-13545000D02*
G75*
G03*
X14602500Y-13545000I-37500J0D01*
G01*
X14727500Y-13507500D02*
X14802500Y-13582500D01*
X14802500Y-13507500D02*
X14727500Y-13582500D01*
X14802500Y-13545000D02*
G75*
G03*
X14802500Y-13545000I-37500J0D01*
G01*
X14927500Y-13507500D02*
X15002500Y-13582500D01*
X15002500Y-13507500D02*
X14927500Y-13582500D01*
X15002500Y-13545000D02*
G75*
G03*
X15002500Y-13545000I-37500J0D01*
G01*
X15557500Y-10442500D02*
X15632500Y-10517500D01*
X15632500Y-10442500D02*
X15557500Y-10517500D01*
X15632500Y-10480000D02*
G75*
G03*
X15632500Y-10480000I-37500J0D01*
G01*
X15557500Y-10642500D02*
X15632500Y-10717500D01*
X15632500Y-10642500D02*
X15557500Y-10717500D01*
X15632500Y-10680000D02*
G75*
G03*
X15632500Y-10680000I-37500J0D01*
G01*
X15557500Y-11132500D02*
X15632500Y-11207500D01*
X15632500Y-11132500D02*
X15557500Y-11207500D01*
X15632500Y-11170000D02*
G75*
G03*
X15632500Y-11170000I-37500J0D01*
G01*
X15557500Y-11332500D02*
X15632500Y-11407500D01*
X15632500Y-11332500D02*
X15557500Y-11407500D01*
X15632500Y-11370000D02*
G75*
G03*
X15632500Y-11370000I-37500J0D01*
G01*
X15557500Y-11822500D02*
X15632500Y-11897500D01*
X15632500Y-11822500D02*
X15557500Y-11897500D01*
X15632500Y-11860000D02*
G75*
G03*
X15632500Y-11860000I-37500J0D01*
G01*
X15557500Y-12022500D02*
X15632500Y-12097500D01*
X15632500Y-12022500D02*
X15557500Y-12097500D01*
X15632500Y-12060000D02*
G75*
G03*
X15632500Y-12060000I-37500J0D01*
G01*
X15557500Y-12222500D02*
X15632500Y-12297500D01*
X15632500Y-12222500D02*
X15557500Y-12297500D01*
X15632500Y-12260000D02*
G75*
G03*
X15632500Y-12260000I-37500J0D01*
G01*
X15557500Y-12422500D02*
X15632500Y-12497500D01*
X15632500Y-12422500D02*
X15557500Y-12497500D01*
X15632500Y-12460000D02*
G75*
G03*
X15632500Y-12460000I-37500J0D01*
G01*
X15557500Y-12622500D02*
X15632500Y-12697500D01*
X15632500Y-12622500D02*
X15557500Y-12697500D01*
X15632500Y-12660000D02*
G75*
G03*
X15632500Y-12660000I-37500J0D01*
G01*
D10*
X12660000Y-11690000D02*
X12760000Y-11790000D01*
X12760000Y-11690000D02*
X12660000Y-11790000D01*
X12710000Y-11690000D02*
X12710000Y-11790000D01*
X12660000Y-11740000D02*
X12760000Y-11740000D01*
X12914000Y-11690000D02*
X13014000Y-11790000D01*
X13014000Y-11690000D02*
X12914000Y-11790000D01*
X12964000Y-11690000D02*
X12964000Y-11790000D01*
X12914000Y-11740000D02*
X13014000Y-11740000D01*
D11*
X7852619Y-14170476D02*
X7852619Y-13970476D01*
X7900238Y-13970476D01*
X7928809Y-13980000D01*
X7947857Y-13999048D01*
X7957381Y-14018095D01*
X7966905Y-14056190D01*
X7966905Y-14084762D01*
X7957381Y-14122857D01*
X7947857Y-14141905D01*
X7928809Y-14160952D01*
X7900238Y-14170476D01*
X7852619Y-14170476D01*
X8052619Y-14170476D02*
X8052619Y-14037143D01*
X8052619Y-14075238D02*
X8062143Y-14056190D01*
X8071667Y-14046667D01*
X8090714Y-14037143D01*
X8109762Y-14037143D01*
X8176428Y-14170476D02*
X8176428Y-14037143D01*
X8176428Y-13970476D02*
X8166905Y-13980000D01*
X8176428Y-13989524D01*
X8185952Y-13980000D01*
X8176428Y-13970476D01*
X8176428Y-13989524D01*
X8300238Y-14170476D02*
X8281190Y-14160952D01*
X8271667Y-14141905D01*
X8271667Y-13970476D01*
X8405000Y-14170476D02*
X8385952Y-14160952D01*
X8376428Y-14141905D01*
X8376428Y-13970476D01*
X8633571Y-14170476D02*
X8633571Y-13970476D01*
X8700238Y-14113333D01*
X8766905Y-13970476D01*
X8766905Y-14170476D01*
X8947857Y-14170476D02*
X8947857Y-14065714D01*
X8938333Y-14046667D01*
X8919286Y-14037143D01*
X8881190Y-14037143D01*
X8862143Y-14046667D01*
X8947857Y-14160952D02*
X8928810Y-14170476D01*
X8881190Y-14170476D01*
X8862143Y-14160952D01*
X8852619Y-14141905D01*
X8852619Y-14122857D01*
X8862143Y-14103809D01*
X8881190Y-14094286D01*
X8928810Y-14094286D01*
X8947857Y-14084762D01*
X9043095Y-14037143D02*
X9043095Y-14237143D01*
X9043095Y-14046667D02*
X9062143Y-14037143D01*
X9100238Y-14037143D01*
X9119286Y-14046667D01*
X9128810Y-14056190D01*
X9138333Y-14075238D01*
X9138333Y-14132381D01*
X9128810Y-14151428D01*
X9119286Y-14160952D01*
X9100238Y-14170476D01*
X9062143Y-14170476D01*
X9043095Y-14160952D01*
X9224048Y-14151428D02*
X9233571Y-14160952D01*
X9224048Y-14170476D01*
X9214524Y-14160952D01*
X9224048Y-14151428D01*
X9224048Y-14170476D01*
X9224048Y-14046667D02*
X9233571Y-14056190D01*
X9224048Y-14065714D01*
X9214524Y-14056190D01*
X9224048Y-14046667D01*
X9224048Y-14065714D01*
D12*
X7575000Y-14490000D02*
X7595000Y-14510000D01*
X7595000Y-14490000D02*
X7575000Y-14510000D01*
D11*
X7890714Y-14390476D02*
X7909762Y-14390476D01*
X7928809Y-14400000D01*
X7938333Y-14409524D01*
X7947857Y-14428571D01*
X7957381Y-14466667D01*
X7957381Y-14514286D01*
X7947857Y-14552381D01*
X7938333Y-14571428D01*
X7928809Y-14580952D01*
X7909762Y-14590476D01*
X7890714Y-14590476D01*
X7871667Y-14580952D01*
X7862143Y-14571428D01*
X7852619Y-14552381D01*
X7843095Y-14514286D01*
X7843095Y-14466667D01*
X7852619Y-14428571D01*
X7862143Y-14409524D01*
X7871667Y-14400000D01*
X7890714Y-14390476D01*
X8043095Y-14571428D02*
X8052619Y-14580952D01*
X8043095Y-14590476D01*
X8033571Y-14580952D01*
X8043095Y-14571428D01*
X8043095Y-14590476D01*
X8128809Y-14409524D02*
X8138333Y-14400000D01*
X8157381Y-14390476D01*
X8205000Y-14390476D01*
X8224048Y-14400000D01*
X8233571Y-14409524D01*
X8243095Y-14428571D01*
X8243095Y-14447619D01*
X8233571Y-14476190D01*
X8119286Y-14590476D01*
X8243095Y-14590476D01*
X8366905Y-14390476D02*
X8385952Y-14390476D01*
X8405000Y-14400000D01*
X8414524Y-14409524D01*
X8424048Y-14428571D01*
X8433571Y-14466667D01*
X8433571Y-14514286D01*
X8424048Y-14552381D01*
X8414524Y-14571428D01*
X8405000Y-14580952D01*
X8385952Y-14590476D01*
X8366905Y-14590476D01*
X8347857Y-14580952D01*
X8338333Y-14571428D01*
X8328809Y-14552381D01*
X8319286Y-14514286D01*
X8319286Y-14466667D01*
X8328809Y-14428571D01*
X8338333Y-14409524D01*
X8347857Y-14400000D01*
X8366905Y-14390476D01*
X8557381Y-14390476D02*
X8576429Y-14390476D01*
X8595476Y-14400000D01*
X8605000Y-14409524D01*
X8614524Y-14428571D01*
X8624048Y-14466667D01*
X8624048Y-14514286D01*
X8614524Y-14552381D01*
X8605000Y-14571428D01*
X8595476Y-14580952D01*
X8576429Y-14590476D01*
X8557381Y-14590476D01*
X8538333Y-14580952D01*
X8528810Y-14571428D01*
X8519286Y-14552381D01*
X8509762Y-14514286D01*
X8509762Y-14466667D01*
X8519286Y-14428571D01*
X8528810Y-14409524D01*
X8538333Y-14400000D01*
X8557381Y-14390476D01*
X8709762Y-14590476D02*
X8709762Y-14457143D01*
X8709762Y-14476190D02*
X8719286Y-14466667D01*
X8738333Y-14457143D01*
X8766905Y-14457143D01*
X8785952Y-14466667D01*
X8795476Y-14485714D01*
X8795476Y-14590476D01*
X8795476Y-14485714D02*
X8805000Y-14466667D01*
X8824048Y-14457143D01*
X8852619Y-14457143D01*
X8871667Y-14466667D01*
X8881190Y-14485714D01*
X8881190Y-14590476D01*
X8976429Y-14590476D02*
X8976429Y-14457143D01*
X8976429Y-14476190D02*
X8985952Y-14466667D01*
X9005000Y-14457143D01*
X9033571Y-14457143D01*
X9052619Y-14466667D01*
X9062143Y-14485714D01*
X9062143Y-14590476D01*
X9062143Y-14485714D02*
X9071667Y-14466667D01*
X9090714Y-14457143D01*
X9119286Y-14457143D01*
X9138333Y-14466667D01*
X9147857Y-14485714D01*
X9147857Y-14590476D01*
X9538333Y-14380952D02*
X9366905Y-14638095D01*
X9795476Y-14390476D02*
X9814524Y-14390476D01*
X9833571Y-14400000D01*
X9843095Y-14409524D01*
X9852619Y-14428571D01*
X9862143Y-14466667D01*
X9862143Y-14514286D01*
X9852619Y-14552381D01*
X9843095Y-14571428D01*
X9833571Y-14580952D01*
X9814524Y-14590476D01*
X9795476Y-14590476D01*
X9776429Y-14580952D01*
X9766905Y-14571428D01*
X9757381Y-14552381D01*
X9747857Y-14514286D01*
X9747857Y-14466667D01*
X9757381Y-14428571D01*
X9766905Y-14409524D01*
X9776429Y-14400000D01*
X9795476Y-14390476D01*
X9947857Y-14571428D02*
X9957381Y-14580952D01*
X9947857Y-14590476D01*
X9938333Y-14580952D01*
X9947857Y-14571428D01*
X9947857Y-14590476D01*
X10081190Y-14390476D02*
X10100238Y-14390476D01*
X10119286Y-14400000D01*
X10128810Y-14409524D01*
X10138333Y-14428571D01*
X10147857Y-14466667D01*
X10147857Y-14514286D01*
X10138333Y-14552381D01*
X10128810Y-14571428D01*
X10119286Y-14580952D01*
X10100238Y-14590476D01*
X10081190Y-14590476D01*
X10062143Y-14580952D01*
X10052619Y-14571428D01*
X10043095Y-14552381D01*
X10033571Y-14514286D01*
X10033571Y-14466667D01*
X10043095Y-14428571D01*
X10052619Y-14409524D01*
X10062143Y-14400000D01*
X10081190Y-14390476D01*
X10271667Y-14390476D02*
X10290714Y-14390476D01*
X10309762Y-14400000D01*
X10319286Y-14409524D01*
X10328810Y-14428571D01*
X10338333Y-14466667D01*
X10338333Y-14514286D01*
X10328810Y-14552381D01*
X10319286Y-14571428D01*
X10309762Y-14580952D01*
X10290714Y-14590476D01*
X10271667Y-14590476D01*
X10252619Y-14580952D01*
X10243095Y-14571428D01*
X10233571Y-14552381D01*
X10224048Y-14514286D01*
X10224048Y-14466667D01*
X10233571Y-14428571D01*
X10243095Y-14409524D01*
X10252619Y-14400000D01*
X10271667Y-14390476D01*
X10405000Y-14390476D02*
X10538333Y-14390476D01*
X10452619Y-14590476D01*
X10624048Y-14590476D02*
X10662143Y-14590476D01*
X10681190Y-14580952D01*
X10690714Y-14571428D01*
X10709762Y-14542857D01*
X10719286Y-14504762D01*
X10719286Y-14428571D01*
X10709762Y-14409524D01*
X10700238Y-14400000D01*
X10681190Y-14390476D01*
X10643095Y-14390476D01*
X10624048Y-14400000D01*
X10614524Y-14409524D01*
X10605000Y-14428571D01*
X10605000Y-14476190D01*
X10614524Y-14495238D01*
X10624048Y-14504762D01*
X10643095Y-14514286D01*
X10681190Y-14514286D01*
X10700238Y-14504762D01*
X10709762Y-14495238D01*
X10719286Y-14476190D01*
X10795476Y-14390476D02*
X10795476Y-14428571D01*
X10871667Y-14390476D02*
X10871667Y-14428571D01*
X11166905Y-14666667D02*
X11157381Y-14657143D01*
X11138333Y-14628571D01*
X11128810Y-14609524D01*
X11119286Y-14580952D01*
X11109762Y-14533333D01*
X11109762Y-14495238D01*
X11119286Y-14447619D01*
X11128810Y-14419048D01*
X11138333Y-14400000D01*
X11157381Y-14371428D01*
X11166905Y-14361905D01*
X11328809Y-14390476D02*
X11290714Y-14390476D01*
X11271667Y-14400000D01*
X11262143Y-14409524D01*
X11243095Y-14438095D01*
X11233571Y-14476190D01*
X11233571Y-14552381D01*
X11243095Y-14571428D01*
X11252619Y-14580952D01*
X11271667Y-14590476D01*
X11309762Y-14590476D01*
X11328809Y-14580952D01*
X11338333Y-14571428D01*
X11347857Y-14552381D01*
X11347857Y-14504762D01*
X11338333Y-14485714D01*
X11328809Y-14476190D01*
X11309762Y-14466667D01*
X11271667Y-14466667D01*
X11252619Y-14476190D01*
X11243095Y-14485714D01*
X11233571Y-14504762D01*
X11585952Y-14590476D02*
X11585952Y-14390476D01*
X11671667Y-14590476D02*
X11671667Y-14485714D01*
X11662143Y-14466667D01*
X11643095Y-14457143D01*
X11614524Y-14457143D01*
X11595476Y-14466667D01*
X11585952Y-14476190D01*
X11795476Y-14590476D02*
X11776428Y-14580952D01*
X11766905Y-14571428D01*
X11757381Y-14552381D01*
X11757381Y-14495238D01*
X11766905Y-14476190D01*
X11776428Y-14466667D01*
X11795476Y-14457143D01*
X11824048Y-14457143D01*
X11843095Y-14466667D01*
X11852619Y-14476190D01*
X11862143Y-14495238D01*
X11862143Y-14552381D01*
X11852619Y-14571428D01*
X11843095Y-14580952D01*
X11824048Y-14590476D01*
X11795476Y-14590476D01*
X11976428Y-14590476D02*
X11957381Y-14580952D01*
X11947857Y-14561905D01*
X11947857Y-14390476D01*
X12128809Y-14580952D02*
X12109762Y-14590476D01*
X12071667Y-14590476D01*
X12052619Y-14580952D01*
X12043095Y-14561905D01*
X12043095Y-14485714D01*
X12052619Y-14466667D01*
X12071667Y-14457143D01*
X12109762Y-14457143D01*
X12128809Y-14466667D01*
X12138333Y-14485714D01*
X12138333Y-14504762D01*
X12043095Y-14523809D01*
X12214524Y-14580952D02*
X12233571Y-14590476D01*
X12271667Y-14590476D01*
X12290714Y-14580952D01*
X12300238Y-14561905D01*
X12300238Y-14552381D01*
X12290714Y-14533333D01*
X12271667Y-14523809D01*
X12243095Y-14523809D01*
X12224048Y-14514286D01*
X12214524Y-14495238D01*
X12214524Y-14485714D01*
X12224048Y-14466667D01*
X12243095Y-14457143D01*
X12271667Y-14457143D01*
X12290714Y-14466667D01*
X12366905Y-14666667D02*
X12376428Y-14657143D01*
X12395476Y-14628571D01*
X12405000Y-14609524D01*
X12414524Y-14580952D01*
X12424048Y-14533333D01*
X12424048Y-14495238D01*
X12414524Y-14447619D01*
X12405000Y-14419048D01*
X12395476Y-14400000D01*
X12376428Y-14371428D01*
X12366905Y-14361905D01*
D13*
X7595000Y-14764000D02*
G75*
G03*
X7595000Y-14764000I-15000J0D01*
G01*
D11*
X7890714Y-14654476D02*
X7909762Y-14654476D01*
X7928809Y-14664000D01*
X7938333Y-14673524D01*
X7947857Y-14692571D01*
X7957381Y-14730667D01*
X7957381Y-14778286D01*
X7947857Y-14816381D01*
X7938333Y-14835428D01*
X7928809Y-14844952D01*
X7909762Y-14854476D01*
X7890714Y-14854476D01*
X7871667Y-14844952D01*
X7862143Y-14835428D01*
X7852619Y-14816381D01*
X7843095Y-14778286D01*
X7843095Y-14730667D01*
X7852619Y-14692571D01*
X7862143Y-14673524D01*
X7871667Y-14664000D01*
X7890714Y-14654476D01*
X8043095Y-14835428D02*
X8052619Y-14844952D01*
X8043095Y-14854476D01*
X8033571Y-14844952D01*
X8043095Y-14835428D01*
X8043095Y-14854476D01*
X8119286Y-14654476D02*
X8243095Y-14654476D01*
X8176428Y-14730667D01*
X8205000Y-14730667D01*
X8224048Y-14740190D01*
X8233571Y-14749714D01*
X8243095Y-14768762D01*
X8243095Y-14816381D01*
X8233571Y-14835428D01*
X8224048Y-14844952D01*
X8205000Y-14854476D01*
X8147857Y-14854476D01*
X8128809Y-14844952D01*
X8119286Y-14835428D01*
X8366905Y-14654476D02*
X8385952Y-14654476D01*
X8405000Y-14664000D01*
X8414524Y-14673524D01*
X8424048Y-14692571D01*
X8433571Y-14730667D01*
X8433571Y-14778286D01*
X8424048Y-14816381D01*
X8414524Y-14835428D01*
X8405000Y-14844952D01*
X8385952Y-14854476D01*
X8366905Y-14854476D01*
X8347857Y-14844952D01*
X8338333Y-14835428D01*
X8328809Y-14816381D01*
X8319286Y-14778286D01*
X8319286Y-14730667D01*
X8328809Y-14692571D01*
X8338333Y-14673524D01*
X8347857Y-14664000D01*
X8366905Y-14654476D01*
X8557381Y-14654476D02*
X8576429Y-14654476D01*
X8595476Y-14664000D01*
X8605000Y-14673524D01*
X8614524Y-14692571D01*
X8624048Y-14730667D01*
X8624048Y-14778286D01*
X8614524Y-14816381D01*
X8605000Y-14835428D01*
X8595476Y-14844952D01*
X8576429Y-14854476D01*
X8557381Y-14854476D01*
X8538333Y-14844952D01*
X8528810Y-14835428D01*
X8519286Y-14816381D01*
X8509762Y-14778286D01*
X8509762Y-14730667D01*
X8519286Y-14692571D01*
X8528810Y-14673524D01*
X8538333Y-14664000D01*
X8557381Y-14654476D01*
X8709762Y-14854476D02*
X8709762Y-14721143D01*
X8709762Y-14740190D02*
X8719286Y-14730667D01*
X8738333Y-14721143D01*
X8766905Y-14721143D01*
X8785952Y-14730667D01*
X8795476Y-14749714D01*
X8795476Y-14854476D01*
X8795476Y-14749714D02*
X8805000Y-14730667D01*
X8824048Y-14721143D01*
X8852619Y-14721143D01*
X8871667Y-14730667D01*
X8881190Y-14749714D01*
X8881190Y-14854476D01*
X8976429Y-14854476D02*
X8976429Y-14721143D01*
X8976429Y-14740190D02*
X8985952Y-14730667D01*
X9005000Y-14721143D01*
X9033571Y-14721143D01*
X9052619Y-14730667D01*
X9062143Y-14749714D01*
X9062143Y-14854476D01*
X9062143Y-14749714D02*
X9071667Y-14730667D01*
X9090714Y-14721143D01*
X9119286Y-14721143D01*
X9138333Y-14730667D01*
X9147857Y-14749714D01*
X9147857Y-14854476D01*
X9538333Y-14644952D02*
X9366905Y-14902095D01*
X9795476Y-14654476D02*
X9814524Y-14654476D01*
X9833571Y-14664000D01*
X9843095Y-14673524D01*
X9852619Y-14692571D01*
X9862143Y-14730667D01*
X9862143Y-14778286D01*
X9852619Y-14816381D01*
X9843095Y-14835428D01*
X9833571Y-14844952D01*
X9814524Y-14854476D01*
X9795476Y-14854476D01*
X9776429Y-14844952D01*
X9766905Y-14835428D01*
X9757381Y-14816381D01*
X9747857Y-14778286D01*
X9747857Y-14730667D01*
X9757381Y-14692571D01*
X9766905Y-14673524D01*
X9776429Y-14664000D01*
X9795476Y-14654476D01*
X9947857Y-14835428D02*
X9957381Y-14844952D01*
X9947857Y-14854476D01*
X9938333Y-14844952D01*
X9947857Y-14835428D01*
X9947857Y-14854476D01*
X10081190Y-14654476D02*
X10100238Y-14654476D01*
X10119286Y-14664000D01*
X10128810Y-14673524D01*
X10138333Y-14692571D01*
X10147857Y-14730667D01*
X10147857Y-14778286D01*
X10138333Y-14816381D01*
X10128810Y-14835428D01*
X10119286Y-14844952D01*
X10100238Y-14854476D01*
X10081190Y-14854476D01*
X10062143Y-14844952D01*
X10052619Y-14835428D01*
X10043095Y-14816381D01*
X10033571Y-14778286D01*
X10033571Y-14730667D01*
X10043095Y-14692571D01*
X10052619Y-14673524D01*
X10062143Y-14664000D01*
X10081190Y-14654476D01*
X10338333Y-14854476D02*
X10224048Y-14854476D01*
X10281190Y-14854476D02*
X10281190Y-14654476D01*
X10262143Y-14683048D01*
X10243095Y-14702095D01*
X10224048Y-14711619D01*
X10528810Y-14854476D02*
X10414524Y-14854476D01*
X10471667Y-14854476D02*
X10471667Y-14654476D01*
X10452619Y-14683048D01*
X10433571Y-14702095D01*
X10414524Y-14711619D01*
X10643095Y-14740190D02*
X10624048Y-14730667D01*
X10614524Y-14721143D01*
X10605000Y-14702095D01*
X10605000Y-14692571D01*
X10614524Y-14673524D01*
X10624048Y-14664000D01*
X10643095Y-14654476D01*
X10681190Y-14654476D01*
X10700238Y-14664000D01*
X10709762Y-14673524D01*
X10719286Y-14692571D01*
X10719286Y-14702095D01*
X10709762Y-14721143D01*
X10700238Y-14730667D01*
X10681190Y-14740190D01*
X10643095Y-14740190D01*
X10624048Y-14749714D01*
X10614524Y-14759238D01*
X10605000Y-14778286D01*
X10605000Y-14816381D01*
X10614524Y-14835428D01*
X10624048Y-14844952D01*
X10643095Y-14854476D01*
X10681190Y-14854476D01*
X10700238Y-14844952D01*
X10709762Y-14835428D01*
X10719286Y-14816381D01*
X10719286Y-14778286D01*
X10709762Y-14759238D01*
X10700238Y-14749714D01*
X10681190Y-14740190D01*
X10795476Y-14654476D02*
X10795476Y-14692571D01*
X10871667Y-14654476D02*
X10871667Y-14692571D01*
X11166905Y-14930667D02*
X11157381Y-14921143D01*
X11138333Y-14892571D01*
X11128810Y-14873524D01*
X11119286Y-14844952D01*
X11109762Y-14797333D01*
X11109762Y-14759238D01*
X11119286Y-14711619D01*
X11128810Y-14683048D01*
X11138333Y-14664000D01*
X11157381Y-14635428D01*
X11166905Y-14625905D01*
X11338333Y-14654476D02*
X11243095Y-14654476D01*
X11233571Y-14749714D01*
X11243095Y-14740190D01*
X11262143Y-14730667D01*
X11309762Y-14730667D01*
X11328809Y-14740190D01*
X11338333Y-14749714D01*
X11347857Y-14768762D01*
X11347857Y-14816381D01*
X11338333Y-14835428D01*
X11328809Y-14844952D01*
X11309762Y-14854476D01*
X11262143Y-14854476D01*
X11243095Y-14844952D01*
X11233571Y-14835428D01*
X11414524Y-14654476D02*
X11538333Y-14654476D01*
X11471667Y-14730667D01*
X11500238Y-14730667D01*
X11519286Y-14740190D01*
X11528809Y-14749714D01*
X11538333Y-14768762D01*
X11538333Y-14816381D01*
X11528809Y-14835428D01*
X11519286Y-14844952D01*
X11500238Y-14854476D01*
X11443095Y-14854476D01*
X11424048Y-14844952D01*
X11414524Y-14835428D01*
X11776428Y-14854476D02*
X11776428Y-14654476D01*
X11862143Y-14854476D02*
X11862143Y-14749714D01*
X11852619Y-14730667D01*
X11833571Y-14721143D01*
X11805000Y-14721143D01*
X11785952Y-14730667D01*
X11776428Y-14740190D01*
X11985952Y-14854476D02*
X11966905Y-14844952D01*
X11957381Y-14835428D01*
X11947857Y-14816381D01*
X11947857Y-14759238D01*
X11957381Y-14740190D01*
X11966905Y-14730667D01*
X11985952Y-14721143D01*
X12014524Y-14721143D01*
X12033571Y-14730667D01*
X12043095Y-14740190D01*
X12052619Y-14759238D01*
X12052619Y-14816381D01*
X12043095Y-14835428D01*
X12033571Y-14844952D01*
X12014524Y-14854476D01*
X11985952Y-14854476D01*
X12166905Y-14854476D02*
X12147857Y-14844952D01*
X12138333Y-14825905D01*
X12138333Y-14654476D01*
X12319286Y-14844952D02*
X12300238Y-14854476D01*
X12262143Y-14854476D01*
X12243095Y-14844952D01*
X12233571Y-14825905D01*
X12233571Y-14749714D01*
X12243095Y-14730667D01*
X12262143Y-14721143D01*
X12300238Y-14721143D01*
X12319286Y-14730667D01*
X12328809Y-14749714D01*
X12328809Y-14768762D01*
X12233571Y-14787809D01*
X12405000Y-14844952D02*
X12424048Y-14854476D01*
X12462143Y-14854476D01*
X12481190Y-14844952D01*
X12490714Y-14825905D01*
X12490714Y-14816381D01*
X12481190Y-14797333D01*
X12462143Y-14787809D01*
X12433571Y-14787809D01*
X12414524Y-14778286D01*
X12405000Y-14759238D01*
X12405000Y-14749714D01*
X12414524Y-14730667D01*
X12433571Y-14721143D01*
X12462143Y-14721143D01*
X12481190Y-14730667D01*
X12557381Y-14930667D02*
X12566905Y-14921143D01*
X12585952Y-14892571D01*
X12595476Y-14873524D01*
X12605000Y-14844952D01*
X12614524Y-14797333D01*
X12614524Y-14759238D01*
X12605000Y-14711619D01*
X12595476Y-14683048D01*
X12585952Y-14664000D01*
X12566905Y-14635428D01*
X12557381Y-14625905D01*
D13*
X7580000Y-15013000D02*
X7580000Y-15043000D01*
X7565000Y-15028000D02*
X7595000Y-15028000D01*
D11*
X7890714Y-14918476D02*
X7909762Y-14918476D01*
X7928809Y-14928000D01*
X7938333Y-14937524D01*
X7947857Y-14956571D01*
X7957381Y-14994667D01*
X7957381Y-15042286D01*
X7947857Y-15080381D01*
X7938333Y-15099428D01*
X7928809Y-15108952D01*
X7909762Y-15118476D01*
X7890714Y-15118476D01*
X7871667Y-15108952D01*
X7862143Y-15099428D01*
X7852619Y-15080381D01*
X7843095Y-15042286D01*
X7843095Y-14994667D01*
X7852619Y-14956571D01*
X7862143Y-14937524D01*
X7871667Y-14928000D01*
X7890714Y-14918476D01*
X8043095Y-15099428D02*
X8052619Y-15108952D01*
X8043095Y-15118476D01*
X8033571Y-15108952D01*
X8043095Y-15099428D01*
X8043095Y-15118476D01*
X8119286Y-14918476D02*
X8243095Y-14918476D01*
X8176428Y-14994667D01*
X8205000Y-14994667D01*
X8224048Y-15004190D01*
X8233571Y-15013714D01*
X8243095Y-15032762D01*
X8243095Y-15080381D01*
X8233571Y-15099428D01*
X8224048Y-15108952D01*
X8205000Y-15118476D01*
X8147857Y-15118476D01*
X8128809Y-15108952D01*
X8119286Y-15099428D01*
X8366905Y-14918476D02*
X8385952Y-14918476D01*
X8405000Y-14928000D01*
X8414524Y-14937524D01*
X8424048Y-14956571D01*
X8433571Y-14994667D01*
X8433571Y-15042286D01*
X8424048Y-15080381D01*
X8414524Y-15099428D01*
X8405000Y-15108952D01*
X8385952Y-15118476D01*
X8366905Y-15118476D01*
X8347857Y-15108952D01*
X8338333Y-15099428D01*
X8328809Y-15080381D01*
X8319286Y-15042286D01*
X8319286Y-14994667D01*
X8328809Y-14956571D01*
X8338333Y-14937524D01*
X8347857Y-14928000D01*
X8366905Y-14918476D01*
X8557381Y-14918476D02*
X8576429Y-14918476D01*
X8595476Y-14928000D01*
X8605000Y-14937524D01*
X8614524Y-14956571D01*
X8624048Y-14994667D01*
X8624048Y-15042286D01*
X8614524Y-15080381D01*
X8605000Y-15099428D01*
X8595476Y-15108952D01*
X8576429Y-15118476D01*
X8557381Y-15118476D01*
X8538333Y-15108952D01*
X8528810Y-15099428D01*
X8519286Y-15080381D01*
X8509762Y-15042286D01*
X8509762Y-14994667D01*
X8519286Y-14956571D01*
X8528810Y-14937524D01*
X8538333Y-14928000D01*
X8557381Y-14918476D01*
X8709762Y-15118476D02*
X8709762Y-14985143D01*
X8709762Y-15004190D02*
X8719286Y-14994667D01*
X8738333Y-14985143D01*
X8766905Y-14985143D01*
X8785952Y-14994667D01*
X8795476Y-15013714D01*
X8795476Y-15118476D01*
X8795476Y-15013714D02*
X8805000Y-14994667D01*
X8824048Y-14985143D01*
X8852619Y-14985143D01*
X8871667Y-14994667D01*
X8881190Y-15013714D01*
X8881190Y-15118476D01*
X8976429Y-15118476D02*
X8976429Y-14985143D01*
X8976429Y-15004190D02*
X8985952Y-14994667D01*
X9005000Y-14985143D01*
X9033571Y-14985143D01*
X9052619Y-14994667D01*
X9062143Y-15013714D01*
X9062143Y-15118476D01*
X9062143Y-15013714D02*
X9071667Y-14994667D01*
X9090714Y-14985143D01*
X9119286Y-14985143D01*
X9138333Y-14994667D01*
X9147857Y-15013714D01*
X9147857Y-15118476D01*
X9538333Y-14908952D02*
X9366905Y-15166095D01*
X9795476Y-14918476D02*
X9814524Y-14918476D01*
X9833571Y-14928000D01*
X9843095Y-14937524D01*
X9852619Y-14956571D01*
X9862143Y-14994667D01*
X9862143Y-15042286D01*
X9852619Y-15080381D01*
X9843095Y-15099428D01*
X9833571Y-15108952D01*
X9814524Y-15118476D01*
X9795476Y-15118476D01*
X9776429Y-15108952D01*
X9766905Y-15099428D01*
X9757381Y-15080381D01*
X9747857Y-15042286D01*
X9747857Y-14994667D01*
X9757381Y-14956571D01*
X9766905Y-14937524D01*
X9776429Y-14928000D01*
X9795476Y-14918476D01*
X9947857Y-15099428D02*
X9957381Y-15108952D01*
X9947857Y-15118476D01*
X9938333Y-15108952D01*
X9947857Y-15099428D01*
X9947857Y-15118476D01*
X10081190Y-14918476D02*
X10100238Y-14918476D01*
X10119286Y-14928000D01*
X10128810Y-14937524D01*
X10138333Y-14956571D01*
X10147857Y-14994667D01*
X10147857Y-15042286D01*
X10138333Y-15080381D01*
X10128810Y-15099428D01*
X10119286Y-15108952D01*
X10100238Y-15118476D01*
X10081190Y-15118476D01*
X10062143Y-15108952D01*
X10052619Y-15099428D01*
X10043095Y-15080381D01*
X10033571Y-15042286D01*
X10033571Y-14994667D01*
X10043095Y-14956571D01*
X10052619Y-14937524D01*
X10062143Y-14928000D01*
X10081190Y-14918476D01*
X10338333Y-15118476D02*
X10224048Y-15118476D01*
X10281190Y-15118476D02*
X10281190Y-14918476D01*
X10262143Y-14947048D01*
X10243095Y-14966095D01*
X10224048Y-14975619D01*
X10528810Y-15118476D02*
X10414524Y-15118476D01*
X10471667Y-15118476D02*
X10471667Y-14918476D01*
X10452619Y-14947048D01*
X10433571Y-14966095D01*
X10414524Y-14975619D01*
X10643095Y-15004190D02*
X10624048Y-14994667D01*
X10614524Y-14985143D01*
X10605000Y-14966095D01*
X10605000Y-14956571D01*
X10614524Y-14937524D01*
X10624048Y-14928000D01*
X10643095Y-14918476D01*
X10681190Y-14918476D01*
X10700238Y-14928000D01*
X10709762Y-14937524D01*
X10719286Y-14956571D01*
X10719286Y-14966095D01*
X10709762Y-14985143D01*
X10700238Y-14994667D01*
X10681190Y-15004190D01*
X10643095Y-15004190D01*
X10624048Y-15013714D01*
X10614524Y-15023238D01*
X10605000Y-15042286D01*
X10605000Y-15080381D01*
X10614524Y-15099428D01*
X10624048Y-15108952D01*
X10643095Y-15118476D01*
X10681190Y-15118476D01*
X10700238Y-15108952D01*
X10709762Y-15099428D01*
X10719286Y-15080381D01*
X10719286Y-15042286D01*
X10709762Y-15023238D01*
X10700238Y-15013714D01*
X10681190Y-15004190D01*
X10795476Y-14918476D02*
X10795476Y-14956571D01*
X10871667Y-14918476D02*
X10871667Y-14956571D01*
X11166905Y-15194667D02*
X11157381Y-15185143D01*
X11138333Y-15156571D01*
X11128810Y-15137524D01*
X11119286Y-15108952D01*
X11109762Y-15061333D01*
X11109762Y-15023238D01*
X11119286Y-14975619D01*
X11128810Y-14947048D01*
X11138333Y-14928000D01*
X11157381Y-14899428D01*
X11166905Y-14889905D01*
X11328809Y-14918476D02*
X11290714Y-14918476D01*
X11271667Y-14928000D01*
X11262143Y-14937524D01*
X11243095Y-14966095D01*
X11233571Y-15004190D01*
X11233571Y-15080381D01*
X11243095Y-15099428D01*
X11252619Y-15108952D01*
X11271667Y-15118476D01*
X11309762Y-15118476D01*
X11328809Y-15108952D01*
X11338333Y-15099428D01*
X11347857Y-15080381D01*
X11347857Y-15032762D01*
X11338333Y-15013714D01*
X11328809Y-15004190D01*
X11309762Y-14994667D01*
X11271667Y-14994667D01*
X11252619Y-15004190D01*
X11243095Y-15013714D01*
X11233571Y-15032762D01*
X11519286Y-14985143D02*
X11519286Y-15118476D01*
X11471667Y-14908952D02*
X11424048Y-15051809D01*
X11547857Y-15051809D01*
X11776428Y-15118476D02*
X11776428Y-14918476D01*
X11862143Y-15118476D02*
X11862143Y-15013714D01*
X11852619Y-14994667D01*
X11833571Y-14985143D01*
X11805000Y-14985143D01*
X11785952Y-14994667D01*
X11776428Y-15004190D01*
X11985952Y-15118476D02*
X11966905Y-15108952D01*
X11957381Y-15099428D01*
X11947857Y-15080381D01*
X11947857Y-15023238D01*
X11957381Y-15004190D01*
X11966905Y-14994667D01*
X11985952Y-14985143D01*
X12014524Y-14985143D01*
X12033571Y-14994667D01*
X12043095Y-15004190D01*
X12052619Y-15023238D01*
X12052619Y-15080381D01*
X12043095Y-15099428D01*
X12033571Y-15108952D01*
X12014524Y-15118476D01*
X11985952Y-15118476D01*
X12166905Y-15118476D02*
X12147857Y-15108952D01*
X12138333Y-15089905D01*
X12138333Y-14918476D01*
X12319286Y-15108952D02*
X12300238Y-15118476D01*
X12262143Y-15118476D01*
X12243095Y-15108952D01*
X12233571Y-15089905D01*
X12233571Y-15013714D01*
X12243095Y-14994667D01*
X12262143Y-14985143D01*
X12300238Y-14985143D01*
X12319286Y-14994667D01*
X12328809Y-15013714D01*
X12328809Y-15032762D01*
X12233571Y-15051809D01*
X12405000Y-15108952D02*
X12424048Y-15118476D01*
X12462143Y-15118476D01*
X12481190Y-15108952D01*
X12490714Y-15089905D01*
X12490714Y-15080381D01*
X12481190Y-15061333D01*
X12462143Y-15051809D01*
X12433571Y-15051809D01*
X12414524Y-15042286D01*
X12405000Y-15023238D01*
X12405000Y-15013714D01*
X12414524Y-14994667D01*
X12433571Y-14985143D01*
X12462143Y-14985143D01*
X12481190Y-14994667D01*
X12557381Y-15194667D02*
X12566905Y-15185143D01*
X12585952Y-15156571D01*
X12595476Y-15137524D01*
X12605000Y-15108952D01*
X12614524Y-15061333D01*
X12614524Y-15023238D01*
X12605000Y-14975619D01*
X12595476Y-14947048D01*
X12585952Y-14928000D01*
X12566905Y-14899428D01*
X12557381Y-14889905D01*
D14*
X7587678Y-15309678D02*
X7587678Y-15274322D01*
X7552322Y-15274322D01*
X7552322Y-15309678D01*
X7587678Y-15309678D01*
D11*
X7890714Y-15182476D02*
X7909762Y-15182476D01*
X7928809Y-15192000D01*
X7938333Y-15201524D01*
X7947857Y-15220571D01*
X7957381Y-15258667D01*
X7957381Y-15306286D01*
X7947857Y-15344381D01*
X7938333Y-15363428D01*
X7928809Y-15372952D01*
X7909762Y-15382476D01*
X7890714Y-15382476D01*
X7871667Y-15372952D01*
X7862143Y-15363428D01*
X7852619Y-15344381D01*
X7843095Y-15306286D01*
X7843095Y-15258667D01*
X7852619Y-15220571D01*
X7862143Y-15201524D01*
X7871667Y-15192000D01*
X7890714Y-15182476D01*
X8043095Y-15363428D02*
X8052619Y-15372952D01*
X8043095Y-15382476D01*
X8033571Y-15372952D01*
X8043095Y-15363428D01*
X8043095Y-15382476D01*
X8233571Y-15182476D02*
X8138333Y-15182476D01*
X8128809Y-15277714D01*
X8138333Y-15268190D01*
X8157381Y-15258667D01*
X8205000Y-15258667D01*
X8224048Y-15268190D01*
X8233571Y-15277714D01*
X8243095Y-15296762D01*
X8243095Y-15344381D01*
X8233571Y-15363428D01*
X8224048Y-15372952D01*
X8205000Y-15382476D01*
X8157381Y-15382476D01*
X8138333Y-15372952D01*
X8128809Y-15363428D01*
X8366905Y-15182476D02*
X8385952Y-15182476D01*
X8405000Y-15192000D01*
X8414524Y-15201524D01*
X8424048Y-15220571D01*
X8433571Y-15258667D01*
X8433571Y-15306286D01*
X8424048Y-15344381D01*
X8414524Y-15363428D01*
X8405000Y-15372952D01*
X8385952Y-15382476D01*
X8366905Y-15382476D01*
X8347857Y-15372952D01*
X8338333Y-15363428D01*
X8328809Y-15344381D01*
X8319286Y-15306286D01*
X8319286Y-15258667D01*
X8328809Y-15220571D01*
X8338333Y-15201524D01*
X8347857Y-15192000D01*
X8366905Y-15182476D01*
X8557381Y-15182476D02*
X8576429Y-15182476D01*
X8595476Y-15192000D01*
X8605000Y-15201524D01*
X8614524Y-15220571D01*
X8624048Y-15258667D01*
X8624048Y-15306286D01*
X8614524Y-15344381D01*
X8605000Y-15363428D01*
X8595476Y-15372952D01*
X8576429Y-15382476D01*
X8557381Y-15382476D01*
X8538333Y-15372952D01*
X8528810Y-15363428D01*
X8519286Y-15344381D01*
X8509762Y-15306286D01*
X8509762Y-15258667D01*
X8519286Y-15220571D01*
X8528810Y-15201524D01*
X8538333Y-15192000D01*
X8557381Y-15182476D01*
X8709762Y-15382476D02*
X8709762Y-15249143D01*
X8709762Y-15268190D02*
X8719286Y-15258667D01*
X8738333Y-15249143D01*
X8766905Y-15249143D01*
X8785952Y-15258667D01*
X8795476Y-15277714D01*
X8795476Y-15382476D01*
X8795476Y-15277714D02*
X8805000Y-15258667D01*
X8824048Y-15249143D01*
X8852619Y-15249143D01*
X8871667Y-15258667D01*
X8881190Y-15277714D01*
X8881190Y-15382476D01*
X8976429Y-15382476D02*
X8976429Y-15249143D01*
X8976429Y-15268190D02*
X8985952Y-15258667D01*
X9005000Y-15249143D01*
X9033571Y-15249143D01*
X9052619Y-15258667D01*
X9062143Y-15277714D01*
X9062143Y-15382476D01*
X9062143Y-15277714D02*
X9071667Y-15258667D01*
X9090714Y-15249143D01*
X9119286Y-15249143D01*
X9138333Y-15258667D01*
X9147857Y-15277714D01*
X9147857Y-15382476D01*
X9538333Y-15172952D02*
X9366905Y-15430095D01*
X9795476Y-15182476D02*
X9814524Y-15182476D01*
X9833571Y-15192000D01*
X9843095Y-15201524D01*
X9852619Y-15220571D01*
X9862143Y-15258667D01*
X9862143Y-15306286D01*
X9852619Y-15344381D01*
X9843095Y-15363428D01*
X9833571Y-15372952D01*
X9814524Y-15382476D01*
X9795476Y-15382476D01*
X9776429Y-15372952D01*
X9766905Y-15363428D01*
X9757381Y-15344381D01*
X9747857Y-15306286D01*
X9747857Y-15258667D01*
X9757381Y-15220571D01*
X9766905Y-15201524D01*
X9776429Y-15192000D01*
X9795476Y-15182476D01*
X9947857Y-15363428D02*
X9957381Y-15372952D01*
X9947857Y-15382476D01*
X9938333Y-15372952D01*
X9947857Y-15363428D01*
X9947857Y-15382476D01*
X10081190Y-15182476D02*
X10100238Y-15182476D01*
X10119286Y-15192000D01*
X10128810Y-15201524D01*
X10138333Y-15220571D01*
X10147857Y-15258667D01*
X10147857Y-15306286D01*
X10138333Y-15344381D01*
X10128810Y-15363428D01*
X10119286Y-15372952D01*
X10100238Y-15382476D01*
X10081190Y-15382476D01*
X10062143Y-15372952D01*
X10052619Y-15363428D01*
X10043095Y-15344381D01*
X10033571Y-15306286D01*
X10033571Y-15258667D01*
X10043095Y-15220571D01*
X10052619Y-15201524D01*
X10062143Y-15192000D01*
X10081190Y-15182476D01*
X10338333Y-15382476D02*
X10224048Y-15382476D01*
X10281190Y-15382476D02*
X10281190Y-15182476D01*
X10262143Y-15211048D01*
X10243095Y-15230095D01*
X10224048Y-15239619D01*
X10433571Y-15382476D02*
X10471667Y-15382476D01*
X10490714Y-15372952D01*
X10500238Y-15363428D01*
X10519286Y-15334857D01*
X10528810Y-15296762D01*
X10528810Y-15220571D01*
X10519286Y-15201524D01*
X10509762Y-15192000D01*
X10490714Y-15182476D01*
X10452619Y-15182476D01*
X10433571Y-15192000D01*
X10424048Y-15201524D01*
X10414524Y-15220571D01*
X10414524Y-15268190D01*
X10424048Y-15287238D01*
X10433571Y-15296762D01*
X10452619Y-15306286D01*
X10490714Y-15306286D01*
X10509762Y-15296762D01*
X10519286Y-15287238D01*
X10528810Y-15268190D01*
X10595476Y-15182476D02*
X10728810Y-15182476D01*
X10643095Y-15382476D01*
X10795476Y-15182476D02*
X10795476Y-15220571D01*
X10871667Y-15182476D02*
X10871667Y-15220571D01*
X11166905Y-15458667D02*
X11157381Y-15449143D01*
X11138333Y-15420571D01*
X11128810Y-15401524D01*
X11119286Y-15372952D01*
X11109762Y-15325333D01*
X11109762Y-15287238D01*
X11119286Y-15239619D01*
X11128810Y-15211048D01*
X11138333Y-15192000D01*
X11157381Y-15163428D01*
X11166905Y-15153905D01*
X11347857Y-15382476D02*
X11233571Y-15382476D01*
X11290714Y-15382476D02*
X11290714Y-15182476D01*
X11271667Y-15211048D01*
X11252619Y-15230095D01*
X11233571Y-15239619D01*
X11519286Y-15182476D02*
X11481190Y-15182476D01*
X11462143Y-15192000D01*
X11452619Y-15201524D01*
X11433571Y-15230095D01*
X11424048Y-15268190D01*
X11424048Y-15344381D01*
X11433571Y-15363428D01*
X11443095Y-15372952D01*
X11462143Y-15382476D01*
X11500238Y-15382476D01*
X11519286Y-15372952D01*
X11528809Y-15363428D01*
X11538333Y-15344381D01*
X11538333Y-15296762D01*
X11528809Y-15277714D01*
X11519286Y-15268190D01*
X11500238Y-15258667D01*
X11462143Y-15258667D01*
X11443095Y-15268190D01*
X11433571Y-15277714D01*
X11424048Y-15296762D01*
X11776428Y-15382476D02*
X11776428Y-15182476D01*
X11862143Y-15382476D02*
X11862143Y-15277714D01*
X11852619Y-15258667D01*
X11833571Y-15249143D01*
X11805000Y-15249143D01*
X11785952Y-15258667D01*
X11776428Y-15268190D01*
X11985952Y-15382476D02*
X11966905Y-15372952D01*
X11957381Y-15363428D01*
X11947857Y-15344381D01*
X11947857Y-15287238D01*
X11957381Y-15268190D01*
X11966905Y-15258667D01*
X11985952Y-15249143D01*
X12014524Y-15249143D01*
X12033571Y-15258667D01*
X12043095Y-15268190D01*
X12052619Y-15287238D01*
X12052619Y-15344381D01*
X12043095Y-15363428D01*
X12033571Y-15372952D01*
X12014524Y-15382476D01*
X11985952Y-15382476D01*
X12166905Y-15382476D02*
X12147857Y-15372952D01*
X12138333Y-15353905D01*
X12138333Y-15182476D01*
X12319286Y-15372952D02*
X12300238Y-15382476D01*
X12262143Y-15382476D01*
X12243095Y-15372952D01*
X12233571Y-15353905D01*
X12233571Y-15277714D01*
X12243095Y-15258667D01*
X12262143Y-15249143D01*
X12300238Y-15249143D01*
X12319286Y-15258667D01*
X12328809Y-15277714D01*
X12328809Y-15296762D01*
X12233571Y-15315809D01*
X12405000Y-15372952D02*
X12424048Y-15382476D01*
X12462143Y-15382476D01*
X12481190Y-15372952D01*
X12490714Y-15353905D01*
X12490714Y-15344381D01*
X12481190Y-15325333D01*
X12462143Y-15315809D01*
X12433571Y-15315809D01*
X12414524Y-15306286D01*
X12405000Y-15287238D01*
X12405000Y-15277714D01*
X12414524Y-15258667D01*
X12433571Y-15249143D01*
X12462143Y-15249143D01*
X12481190Y-15258667D01*
X12557381Y-15458667D02*
X12566905Y-15449143D01*
X12585952Y-15420571D01*
X12595476Y-15401524D01*
X12605000Y-15372952D01*
X12614524Y-15325333D01*
X12614524Y-15287238D01*
X12605000Y-15239619D01*
X12595476Y-15211048D01*
X12585952Y-15192000D01*
X12566905Y-15163428D01*
X12557381Y-15153905D01*
D15*
X7565000Y-15586000D02*
X7595000Y-15556000D01*
X7565000Y-15526000D01*
X7535000Y-15556000D01*
X7565000Y-15586000D01*
D11*
X7890714Y-15446476D02*
X7909762Y-15446476D01*
X7928809Y-15456000D01*
X7938333Y-15465524D01*
X7947857Y-15484571D01*
X7957381Y-15522667D01*
X7957381Y-15570286D01*
X7947857Y-15608381D01*
X7938333Y-15627428D01*
X7928809Y-15636952D01*
X7909762Y-15646476D01*
X7890714Y-15646476D01*
X7871667Y-15636952D01*
X7862143Y-15627428D01*
X7852619Y-15608381D01*
X7843095Y-15570286D01*
X7843095Y-15522667D01*
X7852619Y-15484571D01*
X7862143Y-15465524D01*
X7871667Y-15456000D01*
X7890714Y-15446476D01*
X8043095Y-15627428D02*
X8052619Y-15636952D01*
X8043095Y-15646476D01*
X8033571Y-15636952D01*
X8043095Y-15627428D01*
X8043095Y-15646476D01*
X8224048Y-15446476D02*
X8185952Y-15446476D01*
X8166905Y-15456000D01*
X8157381Y-15465524D01*
X8138333Y-15494095D01*
X8128809Y-15532190D01*
X8128809Y-15608381D01*
X8138333Y-15627428D01*
X8147857Y-15636952D01*
X8166905Y-15646476D01*
X8205000Y-15646476D01*
X8224048Y-15636952D01*
X8233571Y-15627428D01*
X8243095Y-15608381D01*
X8243095Y-15560762D01*
X8233571Y-15541714D01*
X8224048Y-15532190D01*
X8205000Y-15522667D01*
X8166905Y-15522667D01*
X8147857Y-15532190D01*
X8138333Y-15541714D01*
X8128809Y-15560762D01*
X8366905Y-15446476D02*
X8385952Y-15446476D01*
X8405000Y-15456000D01*
X8414524Y-15465524D01*
X8424048Y-15484571D01*
X8433571Y-15522667D01*
X8433571Y-15570286D01*
X8424048Y-15608381D01*
X8414524Y-15627428D01*
X8405000Y-15636952D01*
X8385952Y-15646476D01*
X8366905Y-15646476D01*
X8347857Y-15636952D01*
X8338333Y-15627428D01*
X8328809Y-15608381D01*
X8319286Y-15570286D01*
X8319286Y-15522667D01*
X8328809Y-15484571D01*
X8338333Y-15465524D01*
X8347857Y-15456000D01*
X8366905Y-15446476D01*
X8557381Y-15446476D02*
X8576429Y-15446476D01*
X8595476Y-15456000D01*
X8605000Y-15465524D01*
X8614524Y-15484571D01*
X8624048Y-15522667D01*
X8624048Y-15570286D01*
X8614524Y-15608381D01*
X8605000Y-15627428D01*
X8595476Y-15636952D01*
X8576429Y-15646476D01*
X8557381Y-15646476D01*
X8538333Y-15636952D01*
X8528810Y-15627428D01*
X8519286Y-15608381D01*
X8509762Y-15570286D01*
X8509762Y-15522667D01*
X8519286Y-15484571D01*
X8528810Y-15465524D01*
X8538333Y-15456000D01*
X8557381Y-15446476D01*
X8709762Y-15646476D02*
X8709762Y-15513143D01*
X8709762Y-15532190D02*
X8719286Y-15522667D01*
X8738333Y-15513143D01*
X8766905Y-15513143D01*
X8785952Y-15522667D01*
X8795476Y-15541714D01*
X8795476Y-15646476D01*
X8795476Y-15541714D02*
X8805000Y-15522667D01*
X8824048Y-15513143D01*
X8852619Y-15513143D01*
X8871667Y-15522667D01*
X8881190Y-15541714D01*
X8881190Y-15646476D01*
X8976429Y-15646476D02*
X8976429Y-15513143D01*
X8976429Y-15532190D02*
X8985952Y-15522667D01*
X9005000Y-15513143D01*
X9033571Y-15513143D01*
X9052619Y-15522667D01*
X9062143Y-15541714D01*
X9062143Y-15646476D01*
X9062143Y-15541714D02*
X9071667Y-15522667D01*
X9090714Y-15513143D01*
X9119286Y-15513143D01*
X9138333Y-15522667D01*
X9147857Y-15541714D01*
X9147857Y-15646476D01*
X9538333Y-15436952D02*
X9366905Y-15694095D01*
X9795476Y-15446476D02*
X9814524Y-15446476D01*
X9833571Y-15456000D01*
X9843095Y-15465524D01*
X9852619Y-15484571D01*
X9862143Y-15522667D01*
X9862143Y-15570286D01*
X9852619Y-15608381D01*
X9843095Y-15627428D01*
X9833571Y-15636952D01*
X9814524Y-15646476D01*
X9795476Y-15646476D01*
X9776429Y-15636952D01*
X9766905Y-15627428D01*
X9757381Y-15608381D01*
X9747857Y-15570286D01*
X9747857Y-15522667D01*
X9757381Y-15484571D01*
X9766905Y-15465524D01*
X9776429Y-15456000D01*
X9795476Y-15446476D01*
X9947857Y-15627428D02*
X9957381Y-15636952D01*
X9947857Y-15646476D01*
X9938333Y-15636952D01*
X9947857Y-15627428D01*
X9947857Y-15646476D01*
X10081190Y-15446476D02*
X10100238Y-15446476D01*
X10119286Y-15456000D01*
X10128810Y-15465524D01*
X10138333Y-15484571D01*
X10147857Y-15522667D01*
X10147857Y-15570286D01*
X10138333Y-15608381D01*
X10128810Y-15627428D01*
X10119286Y-15636952D01*
X10100238Y-15646476D01*
X10081190Y-15646476D01*
X10062143Y-15636952D01*
X10052619Y-15627428D01*
X10043095Y-15608381D01*
X10033571Y-15570286D01*
X10033571Y-15522667D01*
X10043095Y-15484571D01*
X10052619Y-15465524D01*
X10062143Y-15456000D01*
X10081190Y-15446476D01*
X10224048Y-15465524D02*
X10233571Y-15456000D01*
X10252619Y-15446476D01*
X10300238Y-15446476D01*
X10319286Y-15456000D01*
X10328810Y-15465524D01*
X10338333Y-15484571D01*
X10338333Y-15503619D01*
X10328810Y-15532190D01*
X10214524Y-15646476D01*
X10338333Y-15646476D01*
X10405000Y-15446476D02*
X10528810Y-15446476D01*
X10462143Y-15522667D01*
X10490714Y-15522667D01*
X10509762Y-15532190D01*
X10519286Y-15541714D01*
X10528810Y-15560762D01*
X10528810Y-15608381D01*
X10519286Y-15627428D01*
X10509762Y-15636952D01*
X10490714Y-15646476D01*
X10433571Y-15646476D01*
X10414524Y-15636952D01*
X10405000Y-15627428D01*
X10700238Y-15446476D02*
X10662143Y-15446476D01*
X10643095Y-15456000D01*
X10633571Y-15465524D01*
X10614524Y-15494095D01*
X10605000Y-15532190D01*
X10605000Y-15608381D01*
X10614524Y-15627428D01*
X10624048Y-15636952D01*
X10643095Y-15646476D01*
X10681190Y-15646476D01*
X10700238Y-15636952D01*
X10709762Y-15627428D01*
X10719286Y-15608381D01*
X10719286Y-15560762D01*
X10709762Y-15541714D01*
X10700238Y-15532190D01*
X10681190Y-15522667D01*
X10643095Y-15522667D01*
X10624048Y-15532190D01*
X10614524Y-15541714D01*
X10605000Y-15560762D01*
X10795476Y-15446476D02*
X10795476Y-15484571D01*
X10871667Y-15446476D02*
X10871667Y-15484571D01*
X11166905Y-15722667D02*
X11157381Y-15713143D01*
X11138333Y-15684571D01*
X11128810Y-15665524D01*
X11119286Y-15636952D01*
X11109762Y-15589333D01*
X11109762Y-15551238D01*
X11119286Y-15503619D01*
X11128810Y-15475048D01*
X11138333Y-15456000D01*
X11157381Y-15427428D01*
X11166905Y-15417905D01*
X11281190Y-15446476D02*
X11300238Y-15446476D01*
X11319286Y-15456000D01*
X11328809Y-15465524D01*
X11338333Y-15484571D01*
X11347857Y-15522667D01*
X11347857Y-15570286D01*
X11338333Y-15608381D01*
X11328809Y-15627428D01*
X11319286Y-15636952D01*
X11300238Y-15646476D01*
X11281190Y-15646476D01*
X11262143Y-15636952D01*
X11252619Y-15627428D01*
X11243095Y-15608381D01*
X11233571Y-15570286D01*
X11233571Y-15522667D01*
X11243095Y-15484571D01*
X11252619Y-15465524D01*
X11262143Y-15456000D01*
X11281190Y-15446476D01*
X11585952Y-15646476D02*
X11585952Y-15446476D01*
X11671667Y-15646476D02*
X11671667Y-15541714D01*
X11662143Y-15522667D01*
X11643095Y-15513143D01*
X11614524Y-15513143D01*
X11595476Y-15522667D01*
X11585952Y-15532190D01*
X11795476Y-15646476D02*
X11776428Y-15636952D01*
X11766905Y-15627428D01*
X11757381Y-15608381D01*
X11757381Y-15551238D01*
X11766905Y-15532190D01*
X11776428Y-15522667D01*
X11795476Y-15513143D01*
X11824048Y-15513143D01*
X11843095Y-15522667D01*
X11852619Y-15532190D01*
X11862143Y-15551238D01*
X11862143Y-15608381D01*
X11852619Y-15627428D01*
X11843095Y-15636952D01*
X11824048Y-15646476D01*
X11795476Y-15646476D01*
X11976428Y-15646476D02*
X11957381Y-15636952D01*
X11947857Y-15617905D01*
X11947857Y-15446476D01*
X12128809Y-15636952D02*
X12109762Y-15646476D01*
X12071667Y-15646476D01*
X12052619Y-15636952D01*
X12043095Y-15617905D01*
X12043095Y-15541714D01*
X12052619Y-15522667D01*
X12071667Y-15513143D01*
X12109762Y-15513143D01*
X12128809Y-15522667D01*
X12138333Y-15541714D01*
X12138333Y-15560762D01*
X12043095Y-15579809D01*
X12214524Y-15636952D02*
X12233571Y-15646476D01*
X12271667Y-15646476D01*
X12290714Y-15636952D01*
X12300238Y-15617905D01*
X12300238Y-15608381D01*
X12290714Y-15589333D01*
X12271667Y-15579809D01*
X12243095Y-15579809D01*
X12224048Y-15570286D01*
X12214524Y-15551238D01*
X12214524Y-15541714D01*
X12224048Y-15522667D01*
X12243095Y-15513143D01*
X12271667Y-15513143D01*
X12290714Y-15522667D01*
X12538333Y-15570286D02*
X12690714Y-15570286D01*
X12614524Y-15646476D02*
X12614524Y-15494095D01*
X13024048Y-15513143D02*
X13024048Y-15646476D01*
X12976428Y-15436952D02*
X12928809Y-15579809D01*
X13052619Y-15579809D01*
X13271667Y-15636952D02*
X13290714Y-15646476D01*
X13328809Y-15646476D01*
X13347857Y-15636952D01*
X13357381Y-15617905D01*
X13357381Y-15608381D01*
X13347857Y-15589333D01*
X13328809Y-15579809D01*
X13300238Y-15579809D01*
X13281190Y-15570286D01*
X13271667Y-15551238D01*
X13271667Y-15541714D01*
X13281190Y-15522667D01*
X13300238Y-15513143D01*
X13328809Y-15513143D01*
X13347857Y-15522667D01*
X13471667Y-15646476D02*
X13452619Y-15636952D01*
X13443095Y-15617905D01*
X13443095Y-15446476D01*
X13576428Y-15646476D02*
X13557381Y-15636952D01*
X13547857Y-15627428D01*
X13538333Y-15608381D01*
X13538333Y-15551238D01*
X13547857Y-15532190D01*
X13557381Y-15522667D01*
X13576428Y-15513143D01*
X13605000Y-15513143D01*
X13624048Y-15522667D01*
X13633571Y-15532190D01*
X13643095Y-15551238D01*
X13643095Y-15608381D01*
X13633571Y-15627428D01*
X13624048Y-15636952D01*
X13605000Y-15646476D01*
X13576428Y-15646476D01*
X13700238Y-15513143D02*
X13776428Y-15513143D01*
X13728809Y-15446476D02*
X13728809Y-15617905D01*
X13738333Y-15636952D01*
X13757381Y-15646476D01*
X13776428Y-15646476D01*
X13833571Y-15636952D02*
X13852619Y-15646476D01*
X13890714Y-15646476D01*
X13909762Y-15636952D01*
X13919286Y-15617905D01*
X13919286Y-15608381D01*
X13909762Y-15589333D01*
X13890714Y-15579809D01*
X13862143Y-15579809D01*
X13843095Y-15570286D01*
X13833571Y-15551238D01*
X13833571Y-15541714D01*
X13843095Y-15522667D01*
X13862143Y-15513143D01*
X13890714Y-15513143D01*
X13909762Y-15522667D01*
X13985952Y-15722667D02*
X13995476Y-15713143D01*
X14014524Y-15684571D01*
X14024048Y-15665524D01*
X14033571Y-15636952D01*
X14043095Y-15589333D01*
X14043095Y-15551238D01*
X14033571Y-15503619D01*
X14024048Y-15475048D01*
X14014524Y-15456000D01*
X13995476Y-15427428D01*
X13985952Y-15417905D01*
D16*
X7520000Y-15782500D02*
X7595000Y-15857500D01*
X7595000Y-15782500D02*
X7520000Y-15857500D01*
X7595000Y-15820000D02*
G75*
G03*
X7595000Y-15820000I-37500J0D01*
G01*
D11*
X7890714Y-15710476D02*
X7909762Y-15710476D01*
X7928809Y-15720000D01*
X7938333Y-15729524D01*
X7947857Y-15748571D01*
X7957381Y-15786667D01*
X7957381Y-15834286D01*
X7947857Y-15872381D01*
X7938333Y-15891428D01*
X7928809Y-15900952D01*
X7909762Y-15910476D01*
X7890714Y-15910476D01*
X7871667Y-15900952D01*
X7862143Y-15891428D01*
X7852619Y-15872381D01*
X7843095Y-15834286D01*
X7843095Y-15786667D01*
X7852619Y-15748571D01*
X7862143Y-15729524D01*
X7871667Y-15720000D01*
X7890714Y-15710476D01*
X8043095Y-15891428D02*
X8052619Y-15900952D01*
X8043095Y-15910476D01*
X8033571Y-15900952D01*
X8043095Y-15891428D01*
X8043095Y-15910476D01*
X8119286Y-15710476D02*
X8252619Y-15710476D01*
X8166905Y-15910476D01*
X8424048Y-15710476D02*
X8328809Y-15710476D01*
X8319286Y-15805714D01*
X8328809Y-15796190D01*
X8347857Y-15786667D01*
X8395476Y-15786667D01*
X8414524Y-15796190D01*
X8424048Y-15805714D01*
X8433571Y-15824762D01*
X8433571Y-15872381D01*
X8424048Y-15891428D01*
X8414524Y-15900952D01*
X8395476Y-15910476D01*
X8347857Y-15910476D01*
X8328809Y-15900952D01*
X8319286Y-15891428D01*
X8557381Y-15710476D02*
X8576429Y-15710476D01*
X8595476Y-15720000D01*
X8605000Y-15729524D01*
X8614524Y-15748571D01*
X8624048Y-15786667D01*
X8624048Y-15834286D01*
X8614524Y-15872381D01*
X8605000Y-15891428D01*
X8595476Y-15900952D01*
X8576429Y-15910476D01*
X8557381Y-15910476D01*
X8538333Y-15900952D01*
X8528810Y-15891428D01*
X8519286Y-15872381D01*
X8509762Y-15834286D01*
X8509762Y-15786667D01*
X8519286Y-15748571D01*
X8528810Y-15729524D01*
X8538333Y-15720000D01*
X8557381Y-15710476D01*
X8709762Y-15910476D02*
X8709762Y-15777143D01*
X8709762Y-15796190D02*
X8719286Y-15786667D01*
X8738333Y-15777143D01*
X8766905Y-15777143D01*
X8785952Y-15786667D01*
X8795476Y-15805714D01*
X8795476Y-15910476D01*
X8795476Y-15805714D02*
X8805000Y-15786667D01*
X8824048Y-15777143D01*
X8852619Y-15777143D01*
X8871667Y-15786667D01*
X8881190Y-15805714D01*
X8881190Y-15910476D01*
X8976429Y-15910476D02*
X8976429Y-15777143D01*
X8976429Y-15796190D02*
X8985952Y-15786667D01*
X9005000Y-15777143D01*
X9033571Y-15777143D01*
X9052619Y-15786667D01*
X9062143Y-15805714D01*
X9062143Y-15910476D01*
X9062143Y-15805714D02*
X9071667Y-15786667D01*
X9090714Y-15777143D01*
X9119286Y-15777143D01*
X9138333Y-15786667D01*
X9147857Y-15805714D01*
X9147857Y-15910476D01*
X9538333Y-15700952D02*
X9366905Y-15958095D01*
X9795476Y-15710476D02*
X9814524Y-15710476D01*
X9833571Y-15720000D01*
X9843095Y-15729524D01*
X9852619Y-15748571D01*
X9862143Y-15786667D01*
X9862143Y-15834286D01*
X9852619Y-15872381D01*
X9843095Y-15891428D01*
X9833571Y-15900952D01*
X9814524Y-15910476D01*
X9795476Y-15910476D01*
X9776429Y-15900952D01*
X9766905Y-15891428D01*
X9757381Y-15872381D01*
X9747857Y-15834286D01*
X9747857Y-15786667D01*
X9757381Y-15748571D01*
X9766905Y-15729524D01*
X9776429Y-15720000D01*
X9795476Y-15710476D01*
X9947857Y-15891428D02*
X9957381Y-15900952D01*
X9947857Y-15910476D01*
X9938333Y-15900952D01*
X9947857Y-15891428D01*
X9947857Y-15910476D01*
X10081190Y-15710476D02*
X10100238Y-15710476D01*
X10119286Y-15720000D01*
X10128810Y-15729524D01*
X10138333Y-15748571D01*
X10147857Y-15786667D01*
X10147857Y-15834286D01*
X10138333Y-15872381D01*
X10128810Y-15891428D01*
X10119286Y-15900952D01*
X10100238Y-15910476D01*
X10081190Y-15910476D01*
X10062143Y-15900952D01*
X10052619Y-15891428D01*
X10043095Y-15872381D01*
X10033571Y-15834286D01*
X10033571Y-15786667D01*
X10043095Y-15748571D01*
X10052619Y-15729524D01*
X10062143Y-15720000D01*
X10081190Y-15710476D01*
X10224048Y-15729524D02*
X10233571Y-15720000D01*
X10252619Y-15710476D01*
X10300238Y-15710476D01*
X10319286Y-15720000D01*
X10328810Y-15729524D01*
X10338333Y-15748571D01*
X10338333Y-15767619D01*
X10328810Y-15796190D01*
X10214524Y-15910476D01*
X10338333Y-15910476D01*
X10433571Y-15910476D02*
X10471667Y-15910476D01*
X10490714Y-15900952D01*
X10500238Y-15891428D01*
X10519286Y-15862857D01*
X10528810Y-15824762D01*
X10528810Y-15748571D01*
X10519286Y-15729524D01*
X10509762Y-15720000D01*
X10490714Y-15710476D01*
X10452619Y-15710476D01*
X10433571Y-15720000D01*
X10424048Y-15729524D01*
X10414524Y-15748571D01*
X10414524Y-15796190D01*
X10424048Y-15815238D01*
X10433571Y-15824762D01*
X10452619Y-15834286D01*
X10490714Y-15834286D01*
X10509762Y-15824762D01*
X10519286Y-15815238D01*
X10528810Y-15796190D01*
X10709762Y-15710476D02*
X10614524Y-15710476D01*
X10605000Y-15805714D01*
X10614524Y-15796190D01*
X10633571Y-15786667D01*
X10681190Y-15786667D01*
X10700238Y-15796190D01*
X10709762Y-15805714D01*
X10719286Y-15824762D01*
X10719286Y-15872381D01*
X10709762Y-15891428D01*
X10700238Y-15900952D01*
X10681190Y-15910476D01*
X10633571Y-15910476D01*
X10614524Y-15900952D01*
X10605000Y-15891428D01*
X10795476Y-15710476D02*
X10795476Y-15748571D01*
X10871667Y-15710476D02*
X10871667Y-15748571D01*
X11166905Y-15986667D02*
X11157381Y-15977143D01*
X11138333Y-15948571D01*
X11128810Y-15929524D01*
X11119286Y-15900952D01*
X11109762Y-15853333D01*
X11109762Y-15815238D01*
X11119286Y-15767619D01*
X11128810Y-15739048D01*
X11138333Y-15720000D01*
X11157381Y-15691428D01*
X11166905Y-15681905D01*
X11233571Y-15729524D02*
X11243095Y-15720000D01*
X11262143Y-15710476D01*
X11309762Y-15710476D01*
X11328809Y-15720000D01*
X11338333Y-15729524D01*
X11347857Y-15748571D01*
X11347857Y-15767619D01*
X11338333Y-15796190D01*
X11224048Y-15910476D01*
X11347857Y-15910476D01*
X11443095Y-15910476D02*
X11481190Y-15910476D01*
X11500238Y-15900952D01*
X11509762Y-15891428D01*
X11528809Y-15862857D01*
X11538333Y-15824762D01*
X11538333Y-15748571D01*
X11528809Y-15729524D01*
X11519286Y-15720000D01*
X11500238Y-15710476D01*
X11462143Y-15710476D01*
X11443095Y-15720000D01*
X11433571Y-15729524D01*
X11424048Y-15748571D01*
X11424048Y-15796190D01*
X11433571Y-15815238D01*
X11443095Y-15824762D01*
X11462143Y-15834286D01*
X11500238Y-15834286D01*
X11519286Y-15824762D01*
X11528809Y-15815238D01*
X11538333Y-15796190D01*
X11776428Y-15910476D02*
X11776428Y-15710476D01*
X11862143Y-15910476D02*
X11862143Y-15805714D01*
X11852619Y-15786667D01*
X11833571Y-15777143D01*
X11805000Y-15777143D01*
X11785952Y-15786667D01*
X11776428Y-15796190D01*
X11985952Y-15910476D02*
X11966905Y-15900952D01*
X11957381Y-15891428D01*
X11947857Y-15872381D01*
X11947857Y-15815238D01*
X11957381Y-15796190D01*
X11966905Y-15786667D01*
X11985952Y-15777143D01*
X12014524Y-15777143D01*
X12033571Y-15786667D01*
X12043095Y-15796190D01*
X12052619Y-15815238D01*
X12052619Y-15872381D01*
X12043095Y-15891428D01*
X12033571Y-15900952D01*
X12014524Y-15910476D01*
X11985952Y-15910476D01*
X12166905Y-15910476D02*
X12147857Y-15900952D01*
X12138333Y-15881905D01*
X12138333Y-15710476D01*
X12319286Y-15900952D02*
X12300238Y-15910476D01*
X12262143Y-15910476D01*
X12243095Y-15900952D01*
X12233571Y-15881905D01*
X12233571Y-15805714D01*
X12243095Y-15786667D01*
X12262143Y-15777143D01*
X12300238Y-15777143D01*
X12319286Y-15786667D01*
X12328809Y-15805714D01*
X12328809Y-15824762D01*
X12233571Y-15843809D01*
X12405000Y-15900952D02*
X12424048Y-15910476D01*
X12462143Y-15910476D01*
X12481190Y-15900952D01*
X12490714Y-15881905D01*
X12490714Y-15872381D01*
X12481190Y-15853333D01*
X12462143Y-15843809D01*
X12433571Y-15843809D01*
X12414524Y-15834286D01*
X12405000Y-15815238D01*
X12405000Y-15805714D01*
X12414524Y-15786667D01*
X12433571Y-15777143D01*
X12462143Y-15777143D01*
X12481190Y-15786667D01*
X12557381Y-15986667D02*
X12566905Y-15977143D01*
X12585952Y-15948571D01*
X12595476Y-15929524D01*
X12605000Y-15900952D01*
X12614524Y-15853333D01*
X12614524Y-15815238D01*
X12605000Y-15767619D01*
X12595476Y-15739048D01*
X12585952Y-15720000D01*
X12566905Y-15691428D01*
X12557381Y-15681905D01*
D10*
X7495000Y-16034000D02*
X7595000Y-16134000D01*
X7595000Y-16034000D02*
X7495000Y-16134000D01*
X7545000Y-16034000D02*
X7545000Y-16134000D01*
X7495000Y-16084000D02*
X7595000Y-16084000D01*
D11*
X7957381Y-16174476D02*
X7843095Y-16174476D01*
X7900238Y-16174476D02*
X7900238Y-15974476D01*
X7881190Y-16003048D01*
X7862143Y-16022095D01*
X7843095Y-16031619D01*
X8043095Y-16155428D02*
X8052619Y-16164952D01*
X8043095Y-16174476D01*
X8033571Y-16164952D01*
X8043095Y-16155428D01*
X8043095Y-16174476D01*
X8176428Y-15974476D02*
X8195476Y-15974476D01*
X8214524Y-15984000D01*
X8224048Y-15993524D01*
X8233571Y-16012571D01*
X8243095Y-16050667D01*
X8243095Y-16098286D01*
X8233571Y-16136381D01*
X8224048Y-16155428D01*
X8214524Y-16164952D01*
X8195476Y-16174476D01*
X8176428Y-16174476D01*
X8157381Y-16164952D01*
X8147857Y-16155428D01*
X8138333Y-16136381D01*
X8128809Y-16098286D01*
X8128809Y-16050667D01*
X8138333Y-16012571D01*
X8147857Y-15993524D01*
X8157381Y-15984000D01*
X8176428Y-15974476D01*
X8366905Y-15974476D02*
X8385952Y-15974476D01*
X8405000Y-15984000D01*
X8414524Y-15993524D01*
X8424048Y-16012571D01*
X8433571Y-16050667D01*
X8433571Y-16098286D01*
X8424048Y-16136381D01*
X8414524Y-16155428D01*
X8405000Y-16164952D01*
X8385952Y-16174476D01*
X8366905Y-16174476D01*
X8347857Y-16164952D01*
X8338333Y-16155428D01*
X8328809Y-16136381D01*
X8319286Y-16098286D01*
X8319286Y-16050667D01*
X8328809Y-16012571D01*
X8338333Y-15993524D01*
X8347857Y-15984000D01*
X8366905Y-15974476D01*
X8557381Y-15974476D02*
X8576429Y-15974476D01*
X8595476Y-15984000D01*
X8605000Y-15993524D01*
X8614524Y-16012571D01*
X8624048Y-16050667D01*
X8624048Y-16098286D01*
X8614524Y-16136381D01*
X8605000Y-16155428D01*
X8595476Y-16164952D01*
X8576429Y-16174476D01*
X8557381Y-16174476D01*
X8538333Y-16164952D01*
X8528810Y-16155428D01*
X8519286Y-16136381D01*
X8509762Y-16098286D01*
X8509762Y-16050667D01*
X8519286Y-16012571D01*
X8528810Y-15993524D01*
X8538333Y-15984000D01*
X8557381Y-15974476D01*
X8709762Y-16174476D02*
X8709762Y-16041143D01*
X8709762Y-16060190D02*
X8719286Y-16050667D01*
X8738333Y-16041143D01*
X8766905Y-16041143D01*
X8785952Y-16050667D01*
X8795476Y-16069714D01*
X8795476Y-16174476D01*
X8795476Y-16069714D02*
X8805000Y-16050667D01*
X8824048Y-16041143D01*
X8852619Y-16041143D01*
X8871667Y-16050667D01*
X8881190Y-16069714D01*
X8881190Y-16174476D01*
X8976429Y-16174476D02*
X8976429Y-16041143D01*
X8976429Y-16060190D02*
X8985952Y-16050667D01*
X9005000Y-16041143D01*
X9033571Y-16041143D01*
X9052619Y-16050667D01*
X9062143Y-16069714D01*
X9062143Y-16174476D01*
X9062143Y-16069714D02*
X9071667Y-16050667D01*
X9090714Y-16041143D01*
X9119286Y-16041143D01*
X9138333Y-16050667D01*
X9147857Y-16069714D01*
X9147857Y-16174476D01*
X9538333Y-15964952D02*
X9366905Y-16222095D01*
X9795476Y-15974476D02*
X9814524Y-15974476D01*
X9833571Y-15984000D01*
X9843095Y-15993524D01*
X9852619Y-16012571D01*
X9862143Y-16050667D01*
X9862143Y-16098286D01*
X9852619Y-16136381D01*
X9843095Y-16155428D01*
X9833571Y-16164952D01*
X9814524Y-16174476D01*
X9795476Y-16174476D01*
X9776429Y-16164952D01*
X9766905Y-16155428D01*
X9757381Y-16136381D01*
X9747857Y-16098286D01*
X9747857Y-16050667D01*
X9757381Y-16012571D01*
X9766905Y-15993524D01*
X9776429Y-15984000D01*
X9795476Y-15974476D01*
X9947857Y-16155428D02*
X9957381Y-16164952D01*
X9947857Y-16174476D01*
X9938333Y-16164952D01*
X9947857Y-16155428D01*
X9947857Y-16174476D01*
X10081190Y-15974476D02*
X10100238Y-15974476D01*
X10119286Y-15984000D01*
X10128810Y-15993524D01*
X10138333Y-16012571D01*
X10147857Y-16050667D01*
X10147857Y-16098286D01*
X10138333Y-16136381D01*
X10128810Y-16155428D01*
X10119286Y-16164952D01*
X10100238Y-16174476D01*
X10081190Y-16174476D01*
X10062143Y-16164952D01*
X10052619Y-16155428D01*
X10043095Y-16136381D01*
X10033571Y-16098286D01*
X10033571Y-16050667D01*
X10043095Y-16012571D01*
X10052619Y-15993524D01*
X10062143Y-15984000D01*
X10081190Y-15974476D01*
X10214524Y-15974476D02*
X10338333Y-15974476D01*
X10271667Y-16050667D01*
X10300238Y-16050667D01*
X10319286Y-16060190D01*
X10328810Y-16069714D01*
X10338333Y-16088762D01*
X10338333Y-16136381D01*
X10328810Y-16155428D01*
X10319286Y-16164952D01*
X10300238Y-16174476D01*
X10243095Y-16174476D01*
X10224048Y-16164952D01*
X10214524Y-16155428D01*
X10433571Y-16174476D02*
X10471667Y-16174476D01*
X10490714Y-16164952D01*
X10500238Y-16155428D01*
X10519286Y-16126857D01*
X10528810Y-16088762D01*
X10528810Y-16012571D01*
X10519286Y-15993524D01*
X10509762Y-15984000D01*
X10490714Y-15974476D01*
X10452619Y-15974476D01*
X10433571Y-15984000D01*
X10424048Y-15993524D01*
X10414524Y-16012571D01*
X10414524Y-16060190D01*
X10424048Y-16079238D01*
X10433571Y-16088762D01*
X10452619Y-16098286D01*
X10490714Y-16098286D01*
X10509762Y-16088762D01*
X10519286Y-16079238D01*
X10528810Y-16060190D01*
X10700238Y-16041143D02*
X10700238Y-16174476D01*
X10652619Y-15964952D02*
X10605000Y-16107809D01*
X10728810Y-16107809D01*
X10795476Y-15974476D02*
X10795476Y-16012571D01*
X10871667Y-15974476D02*
X10871667Y-16012571D01*
X11166905Y-16250667D02*
X11157381Y-16241143D01*
X11138333Y-16212571D01*
X11128810Y-16193524D01*
X11119286Y-16164952D01*
X11109762Y-16117333D01*
X11109762Y-16079238D01*
X11119286Y-16031619D01*
X11128810Y-16003048D01*
X11138333Y-15984000D01*
X11157381Y-15955428D01*
X11166905Y-15945905D01*
X11233571Y-15993524D02*
X11243095Y-15984000D01*
X11262143Y-15974476D01*
X11309762Y-15974476D01*
X11328809Y-15984000D01*
X11338333Y-15993524D01*
X11347857Y-16012571D01*
X11347857Y-16031619D01*
X11338333Y-16060190D01*
X11224048Y-16174476D01*
X11347857Y-16174476D01*
X11585952Y-16174476D02*
X11585952Y-15974476D01*
X11671667Y-16174476D02*
X11671667Y-16069714D01*
X11662143Y-16050667D01*
X11643095Y-16041143D01*
X11614524Y-16041143D01*
X11595476Y-16050667D01*
X11585952Y-16060190D01*
X11795476Y-16174476D02*
X11776428Y-16164952D01*
X11766905Y-16155428D01*
X11757381Y-16136381D01*
X11757381Y-16079238D01*
X11766905Y-16060190D01*
X11776428Y-16050667D01*
X11795476Y-16041143D01*
X11824048Y-16041143D01*
X11843095Y-16050667D01*
X11852619Y-16060190D01*
X11862143Y-16079238D01*
X11862143Y-16136381D01*
X11852619Y-16155428D01*
X11843095Y-16164952D01*
X11824048Y-16174476D01*
X11795476Y-16174476D01*
X11976428Y-16174476D02*
X11957381Y-16164952D01*
X11947857Y-16145905D01*
X11947857Y-15974476D01*
X12128809Y-16164952D02*
X12109762Y-16174476D01*
X12071667Y-16174476D01*
X12052619Y-16164952D01*
X12043095Y-16145905D01*
X12043095Y-16069714D01*
X12052619Y-16050667D01*
X12071667Y-16041143D01*
X12109762Y-16041143D01*
X12128809Y-16050667D01*
X12138333Y-16069714D01*
X12138333Y-16088762D01*
X12043095Y-16107809D01*
X12214524Y-16164952D02*
X12233571Y-16174476D01*
X12271667Y-16174476D01*
X12290714Y-16164952D01*
X12300238Y-16145905D01*
X12300238Y-16136381D01*
X12290714Y-16117333D01*
X12271667Y-16107809D01*
X12243095Y-16107809D01*
X12224048Y-16098286D01*
X12214524Y-16079238D01*
X12214524Y-16069714D01*
X12224048Y-16050667D01*
X12243095Y-16041143D01*
X12271667Y-16041143D01*
X12290714Y-16050667D01*
X12366905Y-16250667D02*
X12376428Y-16241143D01*
X12395476Y-16212571D01*
X12405000Y-16193524D01*
X12414524Y-16164952D01*
X12424048Y-16117333D01*
X12424048Y-16079238D01*
X12414524Y-16031619D01*
X12405000Y-16003048D01*
X12395476Y-15984000D01*
X12376428Y-15955428D01*
X12366905Y-15945905D01*
M02*
