%TF.GenerationSoftware,KiCad,Pcbnew,(6.0.7-1)-1*%
%TF.CreationDate,2022-09-12T11:44:39+02:00*%
%TF.ProjectId,Flux_BMS,466c7578-5f42-44d5-932e-6b696361645f,rev?*%
%TF.SameCoordinates,Original*%
%TF.FileFunction,Soldermask,Bot*%
%TF.FilePolarity,Negative*%
%FSLAX46Y46*%
G04 Gerber Fmt 4.6, Leading zero omitted, Abs format (unit mm)*
G04 Created by KiCad (PCBNEW (6.0.7-1)-1) date 2022-09-12 11:44:39*
%MOMM*%
%LPD*%
G01*
G04 APERTURE LIST*
G04 Aperture macros list*
%AMRoundRect*
0 Rectangle with rounded corners*
0 $1 Rounding radius*
0 $2 $3 $4 $5 $6 $7 $8 $9 X,Y pos of 4 corners*
0 Add a 4 corners polygon primitive as box body*
4,1,4,$2,$3,$4,$5,$6,$7,$8,$9,$2,$3,0*
0 Add four circle primitives for the rounded corners*
1,1,$1+$1,$2,$3*
1,1,$1+$1,$4,$5*
1,1,$1+$1,$6,$7*
1,1,$1+$1,$8,$9*
0 Add four rect primitives between the rounded corners*
20,1,$1+$1,$2,$3,$4,$5,0*
20,1,$1+$1,$4,$5,$6,$7,0*
20,1,$1+$1,$6,$7,$8,$9,0*
20,1,$1+$1,$8,$9,$2,$3,0*%
G04 Aperture macros list end*
%ADD10C,0.600000*%
%ADD11O,1.000000X1.600000*%
%ADD12O,1.000000X2.100000*%
%ADD13C,0.650000*%
%ADD14RoundRect,0.250000X0.625000X-0.350000X0.625000X0.350000X-0.625000X0.350000X-0.625000X-0.350000X0*%
%ADD15O,1.750000X1.200000*%
%ADD16O,1.950000X1.700000*%
%ADD17RoundRect,0.250000X-0.725000X0.600000X-0.725000X-0.600000X0.725000X-0.600000X0.725000X0.600000X0*%
%ADD18R,1.700000X1.700000*%
%ADD19O,1.700000X1.700000*%
%ADD20RoundRect,0.250000X0.350000X0.625000X-0.350000X0.625000X-0.350000X-0.625000X0.350000X-0.625000X0*%
%ADD21O,1.200000X1.750000*%
G04 APERTURE END LIST*
D10*
%TO.C,TP4*%
X142200000Y-52200000D03*
X143200000Y-53200000D03*
X143200000Y-52200000D03*
X143200000Y-54200000D03*
X144200000Y-52200000D03*
X142200000Y-51200000D03*
X143200000Y-51200000D03*
X145200000Y-54200000D03*
X145200000Y-51200000D03*
X144200000Y-53200000D03*
X145200000Y-53200000D03*
X142200000Y-54200000D03*
X145200000Y-52200000D03*
X144200000Y-51200000D03*
X144200000Y-54200000D03*
X142200000Y-53200000D03*
%TD*%
%TO.C,TP3*%
X150200000Y-54100000D03*
X152200000Y-53100000D03*
X150200000Y-53100000D03*
X150200000Y-51100000D03*
X151200000Y-54100000D03*
X149200000Y-51100000D03*
X149200000Y-54100000D03*
X151200000Y-51100000D03*
X149200000Y-52100000D03*
X152200000Y-52100000D03*
X152200000Y-51100000D03*
X151200000Y-53100000D03*
X152200000Y-54100000D03*
X151200000Y-52100000D03*
X150200000Y-52100000D03*
X149200000Y-53100000D03*
%TD*%
%TO.C,TP2*%
X133600000Y-52960000D03*
X135600000Y-53960000D03*
X132600000Y-52960000D03*
X134600000Y-52960000D03*
X133600000Y-53960000D03*
X134600000Y-53960000D03*
X133600000Y-51960000D03*
X132600000Y-51960000D03*
X134600000Y-50960000D03*
X135600000Y-50960000D03*
X135600000Y-52960000D03*
X132600000Y-50960000D03*
X135600000Y-51960000D03*
X134600000Y-51960000D03*
X133600000Y-50960000D03*
X132600000Y-53960000D03*
%TD*%
D11*
%TO.C,J3*%
X148620000Y-147250000D03*
D12*
X139980000Y-143070000D03*
X148620000Y-143070000D03*
D11*
X139980000Y-147250000D03*
D13*
X141410000Y-143600000D03*
X147190000Y-143600000D03*
%TD*%
D14*
%TO.C,J7*%
X171700000Y-122000000D03*
D15*
X171700000Y-120000000D03*
X171700000Y-118000000D03*
X171700000Y-116000000D03*
X171700000Y-114000000D03*
%TD*%
D16*
%TO.C,J6*%
X78875000Y-129000000D03*
X78875000Y-126500000D03*
X78875000Y-124000000D03*
X78875000Y-121500000D03*
X78875000Y-119000000D03*
X78875000Y-116500000D03*
X78875000Y-114000000D03*
D17*
X78875000Y-111500000D03*
%TD*%
D18*
%TO.C,J8*%
X162700000Y-101400000D03*
D19*
X165240000Y-101400000D03*
X167780000Y-101400000D03*
X170320000Y-101400000D03*
X172860000Y-101400000D03*
%TD*%
D20*
%TO.C,J4*%
X165300000Y-144350000D03*
D21*
X163300000Y-144350000D03*
%TD*%
D17*
%TO.C,J5*%
X78975000Y-70900000D03*
D16*
X78975000Y-73400000D03*
X78975000Y-75900000D03*
X78975000Y-78400000D03*
X78975000Y-80900000D03*
X78975000Y-83400000D03*
X78975000Y-85900000D03*
X78975000Y-88400000D03*
%TD*%
D10*
%TO.C,TP1*%
X128600000Y-51975000D03*
X125600000Y-51975000D03*
X126600000Y-53975000D03*
X126600000Y-52975000D03*
X125600000Y-52975000D03*
X128600000Y-50975000D03*
X127600000Y-51975000D03*
X128600000Y-52975000D03*
X127600000Y-52975000D03*
X126600000Y-51975000D03*
X127600000Y-53975000D03*
X126600000Y-50975000D03*
X127600000Y-50975000D03*
X125600000Y-50975000D03*
X125600000Y-53975000D03*
X128600000Y-53975000D03*
%TD*%
M02*
