G04 #@! TF.GenerationSoftware,KiCad,Pcbnew,(6.0.7-1)-1*
G04 #@! TF.CreationDate,2023-01-13T15:06:51+01:00*
G04 #@! TF.ProjectId,Flux_BMS,466c7578-5f42-44d5-932e-6b696361645f,rev?*
G04 #@! TF.SameCoordinates,Original*
G04 #@! TF.FileFunction,Soldermask,Bot*
G04 #@! TF.FilePolarity,Negative*
%FSLAX46Y46*%
G04 Gerber Fmt 4.6, Leading zero omitted, Abs format (unit mm)*
G04 Created by KiCad (PCBNEW (6.0.7-1)-1) date 2023-01-13 15:06:51*
%MOMM*%
%LPD*%
G01*
G04 APERTURE LIST*
G04 Aperture macros list*
%AMRoundRect*
0 Rectangle with rounded corners*
0 $1 Rounding radius*
0 $2 $3 $4 $5 $6 $7 $8 $9 X,Y pos of 4 corners*
0 Add a 4 corners polygon primitive as box body*
4,1,4,$2,$3,$4,$5,$6,$7,$8,$9,$2,$3,0*
0 Add four circle primitives for the rounded corners*
1,1,$1+$1,$2,$3*
1,1,$1+$1,$4,$5*
1,1,$1+$1,$6,$7*
1,1,$1+$1,$8,$9*
0 Add four rect primitives between the rounded corners*
20,1,$1+$1,$2,$3,$4,$5,0*
20,1,$1+$1,$4,$5,$6,$7,0*
20,1,$1+$1,$6,$7,$8,$9,0*
20,1,$1+$1,$8,$9,$2,$3,0*%
G04 Aperture macros list end*
%ADD10O,1.200000X1.750000*%
%ADD11RoundRect,0.250000X-0.350000X-0.625000X0.350000X-0.625000X0.350000X0.625000X-0.350000X0.625000X0*%
%ADD12RoundRect,0.250000X0.625000X-0.350000X0.625000X0.350000X-0.625000X0.350000X-0.625000X-0.350000X0*%
%ADD13O,1.750000X1.200000*%
%ADD14C,1.000000*%
%ADD15C,0.600000*%
%ADD16O,1.000000X1.600000*%
%ADD17O,1.000000X2.100000*%
%ADD18C,0.650000*%
%ADD19C,3.200000*%
%ADD20RoundRect,0.250000X-0.625000X0.350000X-0.625000X-0.350000X0.625000X-0.350000X0.625000X0.350000X0*%
%ADD21O,1.700000X1.700000*%
%ADD22R,1.700000X1.700000*%
G04 APERTURE END LIST*
D10*
X149650000Y-135450000D03*
X147650000Y-135450000D03*
X145650000Y-135450000D03*
D11*
X143650000Y-135450000D03*
D12*
X155950000Y-113700000D03*
D13*
X155950000Y-111700000D03*
X155950000Y-104800000D03*
D12*
X155950000Y-106800000D03*
D14*
X86650000Y-116333330D03*
X86650000Y-124359996D03*
X86650000Y-100279998D03*
D15*
X142100000Y-74550000D03*
X141100000Y-77550000D03*
X140100000Y-76550000D03*
X139100000Y-76550000D03*
X142100000Y-77550000D03*
X139100000Y-75550000D03*
X139100000Y-77550000D03*
X140100000Y-77550000D03*
X142100000Y-76550000D03*
X141100000Y-76550000D03*
X140100000Y-74550000D03*
X141100000Y-74550000D03*
X140100000Y-75550000D03*
X142100000Y-75550000D03*
X139100000Y-74550000D03*
X141100000Y-75550000D03*
D14*
X86650000Y-92253332D03*
X86650000Y-120346663D03*
D16*
X127870000Y-135550000D03*
D17*
X119230000Y-131370000D03*
X127870000Y-131370000D03*
D16*
X119230000Y-135550000D03*
D18*
X120660000Y-131900000D03*
X126440000Y-131900000D03*
D19*
X79350000Y-77050000D03*
D12*
X155950000Y-126600000D03*
D13*
X155950000Y-124600000D03*
X155950000Y-122600000D03*
X155950000Y-120600000D03*
X155950000Y-118600000D03*
D14*
X86650000Y-80213333D03*
D15*
X123600000Y-74550000D03*
X121600000Y-75550000D03*
X123600000Y-75550000D03*
X123600000Y-77550000D03*
X122600000Y-74550000D03*
X124600000Y-77550000D03*
X124600000Y-74550000D03*
X122600000Y-77550000D03*
X124600000Y-76550000D03*
X121600000Y-76550000D03*
X121600000Y-77550000D03*
X122600000Y-75550000D03*
X121600000Y-74550000D03*
X122600000Y-76550000D03*
X123600000Y-76550000D03*
X124600000Y-75550000D03*
D13*
X82450000Y-124783332D03*
X82450000Y-122783332D03*
X82450000Y-120783332D03*
X82450000Y-118783332D03*
X82450000Y-116783332D03*
X82450000Y-114783332D03*
X82450000Y-112783332D03*
D20*
X82450000Y-110783332D03*
D14*
X86650000Y-88239999D03*
X86650000Y-76000000D03*
D19*
X155600000Y-77050000D03*
X79350000Y-135150000D03*
D14*
X86650000Y-108306664D03*
X86650000Y-112319997D03*
D13*
X82450000Y-101400000D03*
X82450000Y-99400000D03*
X82450000Y-97400000D03*
X82450000Y-95400000D03*
X82450000Y-93400000D03*
X82450000Y-91400000D03*
X82450000Y-89400000D03*
D20*
X82450000Y-87400000D03*
D14*
X86650000Y-136400000D03*
X86650000Y-128373329D03*
D21*
X129640000Y-117400000D03*
D22*
X127100000Y-117400000D03*
D14*
X86650000Y-104293331D03*
X86650000Y-132386662D03*
X86650000Y-84226666D03*
D15*
X146850000Y-74550000D03*
X149850000Y-74550000D03*
X149850000Y-77550000D03*
X147850000Y-77550000D03*
X148850000Y-77550000D03*
X147850000Y-74550000D03*
X148850000Y-76550000D03*
X147850000Y-75550000D03*
X146850000Y-75550000D03*
X147850000Y-76550000D03*
X146850000Y-77550000D03*
X149850000Y-75550000D03*
X148850000Y-75550000D03*
X148850000Y-74550000D03*
X149850000Y-76550000D03*
X146850000Y-76550000D03*
X131850000Y-76550000D03*
X130850000Y-75550000D03*
X130850000Y-76550000D03*
X130850000Y-74550000D03*
X129850000Y-76550000D03*
X131850000Y-77550000D03*
X130850000Y-77550000D03*
X128850000Y-74550000D03*
X128850000Y-77550000D03*
X129850000Y-75550000D03*
X128850000Y-75550000D03*
X131850000Y-74550000D03*
X128850000Y-76550000D03*
X129850000Y-77550000D03*
X129850000Y-74550000D03*
X131850000Y-75550000D03*
D19*
X155600000Y-135050000D03*
D14*
X86650000Y-96266665D03*
M02*
