%TF.GenerationSoftware,KiCad,Pcbnew,(6.0.7-1)-1*%
%TF.CreationDate,2022-09-12T11:44:54+02:00*%
%TF.ProjectId,Flux_BMS,466c7578-5f42-44d5-932e-6b696361645f,rev?*%
%TF.SameCoordinates,Original*%
%TF.FileFunction,Drillmap*%
%TF.FilePolarity,Positive*%
%FSLAX45Y45*%
G04 Gerber Fmt 4.5, Leading zero omitted, Abs format (unit mm)*
G04 Created by KiCad (PCBNEW (6.0.7-1)-1) date 2022-09-12 11:44:54*
%MOMM*%
%LPD*%
G01*
G04 APERTURE LIST*
%ADD10C,0.100000*%
%ADD11C,0.200000*%
%ADD12C,0.030000*%
%ADD13C,0.060000*%
%ADD14C,0.075000*%
%ADD15C,0.095000*%
G04 APERTURE END LIST*
D10*
X7500000Y-5000000D02*
X17500000Y-5000000D01*
X17500000Y-5000000D02*
X17500000Y-15000000D01*
X17500000Y-15000000D02*
X7500000Y-15000000D01*
X7500000Y-15000000D02*
X7500000Y-5000000D01*
D11*
D12*
X12545000Y-5082500D02*
X12575000Y-5112500D01*
X12575000Y-5082500D02*
X12545000Y-5112500D01*
X12545000Y-5182500D02*
X12575000Y-5212500D01*
X12575000Y-5182500D02*
X12545000Y-5212500D01*
X12545000Y-5282500D02*
X12575000Y-5312500D01*
X12575000Y-5282500D02*
X12545000Y-5312500D01*
X12545000Y-5382500D02*
X12575000Y-5412500D01*
X12575000Y-5382500D02*
X12545000Y-5412500D01*
X12645000Y-5082500D02*
X12675000Y-5112500D01*
X12675000Y-5082500D02*
X12645000Y-5112500D01*
X12645000Y-5182500D02*
X12675000Y-5212500D01*
X12675000Y-5182500D02*
X12645000Y-5212500D01*
X12645000Y-5282500D02*
X12675000Y-5312500D01*
X12675000Y-5282500D02*
X12645000Y-5312500D01*
X12645000Y-5382500D02*
X12675000Y-5412500D01*
X12675000Y-5382500D02*
X12645000Y-5412500D01*
X12745000Y-5082500D02*
X12775000Y-5112500D01*
X12775000Y-5082500D02*
X12745000Y-5112500D01*
X12745000Y-5182500D02*
X12775000Y-5212500D01*
X12775000Y-5182500D02*
X12745000Y-5212500D01*
X12745000Y-5282500D02*
X12775000Y-5312500D01*
X12775000Y-5282500D02*
X12745000Y-5312500D01*
X12745000Y-5382500D02*
X12775000Y-5412500D01*
X12775000Y-5382500D02*
X12745000Y-5412500D01*
X12845000Y-5082500D02*
X12875000Y-5112500D01*
X12875000Y-5082500D02*
X12845000Y-5112500D01*
X12845000Y-5182500D02*
X12875000Y-5212500D01*
X12875000Y-5182500D02*
X12845000Y-5212500D01*
X12845000Y-5282500D02*
X12875000Y-5312500D01*
X12875000Y-5282500D02*
X12845000Y-5312500D01*
X12845000Y-5382500D02*
X12875000Y-5412500D01*
X12875000Y-5382500D02*
X12845000Y-5412500D01*
X13245000Y-5081000D02*
X13275000Y-5111000D01*
X13275000Y-5081000D02*
X13245000Y-5111000D01*
X13245000Y-5181000D02*
X13275000Y-5211000D01*
X13275000Y-5181000D02*
X13245000Y-5211000D01*
X13245000Y-5281000D02*
X13275000Y-5311000D01*
X13275000Y-5281000D02*
X13245000Y-5311000D01*
X13245000Y-5381000D02*
X13275000Y-5411000D01*
X13275000Y-5381000D02*
X13245000Y-5411000D01*
X13345000Y-5081000D02*
X13375000Y-5111000D01*
X13375000Y-5081000D02*
X13345000Y-5111000D01*
X13345000Y-5181000D02*
X13375000Y-5211000D01*
X13375000Y-5181000D02*
X13345000Y-5211000D01*
X13345000Y-5281000D02*
X13375000Y-5311000D01*
X13375000Y-5281000D02*
X13345000Y-5311000D01*
X13345000Y-5381000D02*
X13375000Y-5411000D01*
X13375000Y-5381000D02*
X13345000Y-5411000D01*
X13445000Y-5081000D02*
X13475000Y-5111000D01*
X13475000Y-5081000D02*
X13445000Y-5111000D01*
X13445000Y-5181000D02*
X13475000Y-5211000D01*
X13475000Y-5181000D02*
X13445000Y-5211000D01*
X13445000Y-5281000D02*
X13475000Y-5311000D01*
X13475000Y-5281000D02*
X13445000Y-5311000D01*
X13445000Y-5381000D02*
X13475000Y-5411000D01*
X13475000Y-5381000D02*
X13445000Y-5411000D01*
X13545000Y-5081000D02*
X13575000Y-5111000D01*
X13575000Y-5081000D02*
X13545000Y-5111000D01*
X13545000Y-5181000D02*
X13575000Y-5211000D01*
X13575000Y-5181000D02*
X13545000Y-5211000D01*
X13545000Y-5281000D02*
X13575000Y-5311000D01*
X13575000Y-5281000D02*
X13545000Y-5311000D01*
X13545000Y-5381000D02*
X13575000Y-5411000D01*
X13575000Y-5381000D02*
X13545000Y-5411000D01*
X14205000Y-5105000D02*
X14235000Y-5135000D01*
X14235000Y-5105000D02*
X14205000Y-5135000D01*
X14205000Y-5205000D02*
X14235000Y-5235000D01*
X14235000Y-5205000D02*
X14205000Y-5235000D01*
X14205000Y-5305000D02*
X14235000Y-5335000D01*
X14235000Y-5305000D02*
X14205000Y-5335000D01*
X14205000Y-5405000D02*
X14235000Y-5435000D01*
X14235000Y-5405000D02*
X14205000Y-5435000D01*
X14305000Y-5105000D02*
X14335000Y-5135000D01*
X14335000Y-5105000D02*
X14305000Y-5135000D01*
X14305000Y-5205000D02*
X14335000Y-5235000D01*
X14335000Y-5205000D02*
X14305000Y-5235000D01*
X14305000Y-5305000D02*
X14335000Y-5335000D01*
X14335000Y-5305000D02*
X14305000Y-5335000D01*
X14305000Y-5405000D02*
X14335000Y-5435000D01*
X14335000Y-5405000D02*
X14305000Y-5435000D01*
X14405000Y-5105000D02*
X14435000Y-5135000D01*
X14435000Y-5105000D02*
X14405000Y-5135000D01*
X14405000Y-5205000D02*
X14435000Y-5235000D01*
X14435000Y-5205000D02*
X14405000Y-5235000D01*
X14405000Y-5305000D02*
X14435000Y-5335000D01*
X14435000Y-5305000D02*
X14405000Y-5335000D01*
X14405000Y-5405000D02*
X14435000Y-5435000D01*
X14435000Y-5405000D02*
X14405000Y-5435000D01*
X14505000Y-5105000D02*
X14535000Y-5135000D01*
X14535000Y-5105000D02*
X14505000Y-5135000D01*
X14505000Y-5205000D02*
X14535000Y-5235000D01*
X14535000Y-5205000D02*
X14505000Y-5235000D01*
X14505000Y-5305000D02*
X14535000Y-5335000D01*
X14535000Y-5305000D02*
X14505000Y-5335000D01*
X14505000Y-5405000D02*
X14535000Y-5435000D01*
X14535000Y-5405000D02*
X14505000Y-5435000D01*
X14905000Y-5095000D02*
X14935000Y-5125000D01*
X14935000Y-5095000D02*
X14905000Y-5125000D01*
X14905000Y-5195000D02*
X14935000Y-5225000D01*
X14935000Y-5195000D02*
X14905000Y-5225000D01*
X14905000Y-5295000D02*
X14935000Y-5325000D01*
X14935000Y-5295000D02*
X14905000Y-5325000D01*
X14905000Y-5395000D02*
X14935000Y-5425000D01*
X14935000Y-5395000D02*
X14905000Y-5425000D01*
X15005000Y-5095000D02*
X15035000Y-5125000D01*
X15035000Y-5095000D02*
X15005000Y-5125000D01*
X15005000Y-5195000D02*
X15035000Y-5225000D01*
X15035000Y-5195000D02*
X15005000Y-5225000D01*
X15005000Y-5295000D02*
X15035000Y-5325000D01*
X15035000Y-5295000D02*
X15005000Y-5325000D01*
X15005000Y-5395000D02*
X15035000Y-5425000D01*
X15035000Y-5395000D02*
X15005000Y-5425000D01*
X15105000Y-5095000D02*
X15135000Y-5125000D01*
X15135000Y-5095000D02*
X15105000Y-5125000D01*
X15105000Y-5195000D02*
X15135000Y-5225000D01*
X15135000Y-5195000D02*
X15105000Y-5225000D01*
X15105000Y-5295000D02*
X15135000Y-5325000D01*
X15135000Y-5295000D02*
X15105000Y-5325000D01*
X15105000Y-5395000D02*
X15135000Y-5425000D01*
X15135000Y-5395000D02*
X15105000Y-5425000D01*
X15205000Y-5095000D02*
X15235000Y-5125000D01*
X15235000Y-5095000D02*
X15205000Y-5125000D01*
X15205000Y-5195000D02*
X15235000Y-5225000D01*
X15235000Y-5195000D02*
X15205000Y-5225000D01*
X15205000Y-5295000D02*
X15235000Y-5325000D01*
X15235000Y-5295000D02*
X15205000Y-5325000D01*
X15205000Y-5395000D02*
X15235000Y-5425000D01*
X15235000Y-5395000D02*
X15205000Y-5425000D01*
D13*
X14028000Y-14307000D02*
G75*
G03*
X14028000Y-14307000I-30000J0D01*
G01*
D11*
X13968000Y-14252000D02*
X13968000Y-14362000D01*
X14028000Y-14252000D02*
X14028000Y-14362000D01*
X13968000Y-14362000D02*
G75*
G03*
X14028000Y-14362000I30000J0D01*
G01*
X14028000Y-14252000D02*
G75*
G03*
X13968000Y-14252000I-30000J0D01*
G01*
D13*
X14028000Y-14725000D02*
G75*
G03*
X14028000Y-14725000I-30000J0D01*
G01*
D11*
X13968000Y-14695000D02*
X13968000Y-14755000D01*
X14028000Y-14695000D02*
X14028000Y-14755000D01*
X13968000Y-14755000D02*
G75*
G03*
X14028000Y-14755000I30000J0D01*
G01*
X14028000Y-14695000D02*
G75*
G03*
X13968000Y-14695000I-30000J0D01*
G01*
D13*
X14892000Y-14307000D02*
G75*
G03*
X14892000Y-14307000I-30000J0D01*
G01*
D11*
X14832000Y-14252000D02*
X14832000Y-14362000D01*
X14892000Y-14252000D02*
X14892000Y-14362000D01*
X14832000Y-14362000D02*
G75*
G03*
X14892000Y-14362000I30000J0D01*
G01*
X14892000Y-14252000D02*
G75*
G03*
X14832000Y-14252000I-30000J0D01*
G01*
D13*
X14892000Y-14725000D02*
G75*
G03*
X14892000Y-14725000I-30000J0D01*
G01*
D11*
X14832000Y-14695000D02*
X14832000Y-14755000D01*
X14892000Y-14695000D02*
X14892000Y-14755000D01*
X14832000Y-14755000D02*
G75*
G03*
X14892000Y-14755000I30000J0D01*
G01*
X14892000Y-14695000D02*
G75*
G03*
X14832000Y-14695000I-30000J0D01*
G01*
D14*
X16330000Y-14397500D02*
X16330000Y-14472500D01*
X16292500Y-14435000D02*
X16367500Y-14435000D01*
X16530000Y-14397500D02*
X16530000Y-14472500D01*
X16492500Y-14435000D02*
X16567500Y-14435000D01*
X17170000Y-11362500D02*
X17170000Y-11437500D01*
X17132500Y-11400000D02*
X17207500Y-11400000D01*
X17170000Y-11562500D02*
X17170000Y-11637500D01*
X17132500Y-11600000D02*
X17207500Y-11600000D01*
X17170000Y-11762500D02*
X17170000Y-11837500D01*
X17132500Y-11800000D02*
X17207500Y-11800000D01*
X17170000Y-11962500D02*
X17170000Y-12037500D01*
X17132500Y-12000000D02*
X17207500Y-12000000D01*
X17170000Y-12162500D02*
X17170000Y-12237500D01*
X17132500Y-12200000D02*
X17207500Y-12200000D01*
D15*
X7921088Y-11183588D02*
X7921088Y-11116412D01*
X7853912Y-11116412D01*
X7853912Y-11183588D01*
X7921088Y-11183588D01*
X7921088Y-11433588D02*
X7921088Y-11366412D01*
X7853912Y-11366412D01*
X7853912Y-11433588D01*
X7921088Y-11433588D01*
X7921088Y-11683588D02*
X7921088Y-11616412D01*
X7853912Y-11616412D01*
X7853912Y-11683588D01*
X7921088Y-11683588D01*
X7921088Y-11933588D02*
X7921088Y-11866412D01*
X7853912Y-11866412D01*
X7853912Y-11933588D01*
X7921088Y-11933588D01*
X7921088Y-12183588D02*
X7921088Y-12116412D01*
X7853912Y-12116412D01*
X7853912Y-12183588D01*
X7921088Y-12183588D01*
X7921088Y-12433588D02*
X7921088Y-12366412D01*
X7853912Y-12366412D01*
X7853912Y-12433588D01*
X7921088Y-12433588D01*
X7921088Y-12683588D02*
X7921088Y-12616412D01*
X7853912Y-12616412D01*
X7853912Y-12683588D01*
X7921088Y-12683588D01*
X7921088Y-12933588D02*
X7921088Y-12866412D01*
X7853912Y-12866412D01*
X7853912Y-12933588D01*
X7921088Y-12933588D01*
X7931088Y-7123588D02*
X7931088Y-7056412D01*
X7863912Y-7056412D01*
X7863912Y-7123588D01*
X7931088Y-7123588D01*
X7931088Y-7373588D02*
X7931088Y-7306412D01*
X7863912Y-7306412D01*
X7863912Y-7373588D01*
X7931088Y-7373588D01*
X7931088Y-7623588D02*
X7931088Y-7556412D01*
X7863912Y-7556412D01*
X7863912Y-7623588D01*
X7931088Y-7623588D01*
X7931088Y-7873588D02*
X7931088Y-7806412D01*
X7863912Y-7806412D01*
X7863912Y-7873588D01*
X7931088Y-7873588D01*
X7931088Y-8123588D02*
X7931088Y-8056412D01*
X7863912Y-8056412D01*
X7863912Y-8123588D01*
X7931088Y-8123588D01*
X7931088Y-8373588D02*
X7931088Y-8306412D01*
X7863912Y-8306412D01*
X7863912Y-8373588D01*
X7931088Y-8373588D01*
X7931088Y-8623588D02*
X7931088Y-8556412D01*
X7863912Y-8556412D01*
X7863912Y-8623588D01*
X7931088Y-8623588D01*
X7931088Y-8873588D02*
X7931088Y-8806412D01*
X7863912Y-8806412D01*
X7863912Y-8873588D01*
X7931088Y-8873588D01*
D10*
X16270000Y-10190000D02*
X16320000Y-10140000D01*
X16270000Y-10090000D01*
X16220000Y-10140000D01*
X16270000Y-10190000D01*
X16524000Y-10190000D02*
X16574000Y-10140000D01*
X16524000Y-10090000D01*
X16474000Y-10140000D01*
X16524000Y-10190000D01*
X16778000Y-10190000D02*
X16828000Y-10140000D01*
X16778000Y-10090000D01*
X16728000Y-10140000D01*
X16778000Y-10190000D01*
X17032000Y-10190000D02*
X17082000Y-10140000D01*
X17032000Y-10090000D01*
X16982000Y-10140000D01*
X17032000Y-10190000D01*
X17286000Y-10190000D02*
X17336000Y-10140000D01*
X17286000Y-10090000D01*
X17236000Y-10140000D01*
X17286000Y-10190000D01*
D11*
X7752619Y-15315476D02*
X7752619Y-15115476D01*
X7800238Y-15115476D01*
X7828809Y-15125000D01*
X7847857Y-15144048D01*
X7857381Y-15163095D01*
X7866905Y-15201190D01*
X7866905Y-15229762D01*
X7857381Y-15267857D01*
X7847857Y-15286905D01*
X7828809Y-15305952D01*
X7800238Y-15315476D01*
X7752619Y-15315476D01*
X7952619Y-15315476D02*
X7952619Y-15182143D01*
X7952619Y-15220238D02*
X7962143Y-15201190D01*
X7971667Y-15191667D01*
X7990714Y-15182143D01*
X8009762Y-15182143D01*
X8076428Y-15315476D02*
X8076428Y-15182143D01*
X8076428Y-15115476D02*
X8066905Y-15125000D01*
X8076428Y-15134524D01*
X8085952Y-15125000D01*
X8076428Y-15115476D01*
X8076428Y-15134524D01*
X8200238Y-15315476D02*
X8181190Y-15305952D01*
X8171667Y-15286905D01*
X8171667Y-15115476D01*
X8305000Y-15315476D02*
X8285952Y-15305952D01*
X8276428Y-15286905D01*
X8276428Y-15115476D01*
X8533571Y-15315476D02*
X8533571Y-15115476D01*
X8600238Y-15258333D01*
X8666905Y-15115476D01*
X8666905Y-15315476D01*
X8847857Y-15315476D02*
X8847857Y-15210714D01*
X8838333Y-15191667D01*
X8819286Y-15182143D01*
X8781190Y-15182143D01*
X8762143Y-15191667D01*
X8847857Y-15305952D02*
X8828810Y-15315476D01*
X8781190Y-15315476D01*
X8762143Y-15305952D01*
X8752619Y-15286905D01*
X8752619Y-15267857D01*
X8762143Y-15248809D01*
X8781190Y-15239286D01*
X8828810Y-15239286D01*
X8847857Y-15229762D01*
X8943095Y-15182143D02*
X8943095Y-15382143D01*
X8943095Y-15191667D02*
X8962143Y-15182143D01*
X9000238Y-15182143D01*
X9019286Y-15191667D01*
X9028810Y-15201190D01*
X9038333Y-15220238D01*
X9038333Y-15277381D01*
X9028810Y-15296428D01*
X9019286Y-15305952D01*
X9000238Y-15315476D01*
X8962143Y-15315476D01*
X8943095Y-15305952D01*
X9124048Y-15296428D02*
X9133571Y-15305952D01*
X9124048Y-15315476D01*
X9114524Y-15305952D01*
X9124048Y-15296428D01*
X9124048Y-15315476D01*
X9124048Y-15191667D02*
X9133571Y-15201190D01*
X9124048Y-15210714D01*
X9114524Y-15201190D01*
X9124048Y-15191667D01*
X9124048Y-15210714D01*
D12*
X7465000Y-15630000D02*
X7495000Y-15660000D01*
X7495000Y-15630000D02*
X7465000Y-15660000D01*
D11*
X7790714Y-15535476D02*
X7809762Y-15535476D01*
X7828809Y-15545000D01*
X7838333Y-15554524D01*
X7847857Y-15573571D01*
X7857381Y-15611667D01*
X7857381Y-15659286D01*
X7847857Y-15697381D01*
X7838333Y-15716428D01*
X7828809Y-15725952D01*
X7809762Y-15735476D01*
X7790714Y-15735476D01*
X7771667Y-15725952D01*
X7762143Y-15716428D01*
X7752619Y-15697381D01*
X7743095Y-15659286D01*
X7743095Y-15611667D01*
X7752619Y-15573571D01*
X7762143Y-15554524D01*
X7771667Y-15545000D01*
X7790714Y-15535476D01*
X7943095Y-15716428D02*
X7952619Y-15725952D01*
X7943095Y-15735476D01*
X7933571Y-15725952D01*
X7943095Y-15716428D01*
X7943095Y-15735476D01*
X8019286Y-15535476D02*
X8143095Y-15535476D01*
X8076428Y-15611667D01*
X8105000Y-15611667D01*
X8124048Y-15621190D01*
X8133571Y-15630714D01*
X8143095Y-15649762D01*
X8143095Y-15697381D01*
X8133571Y-15716428D01*
X8124048Y-15725952D01*
X8105000Y-15735476D01*
X8047857Y-15735476D01*
X8028809Y-15725952D01*
X8019286Y-15716428D01*
X8266905Y-15535476D02*
X8285952Y-15535476D01*
X8305000Y-15545000D01*
X8314524Y-15554524D01*
X8324048Y-15573571D01*
X8333571Y-15611667D01*
X8333571Y-15659286D01*
X8324048Y-15697381D01*
X8314524Y-15716428D01*
X8305000Y-15725952D01*
X8285952Y-15735476D01*
X8266905Y-15735476D01*
X8247857Y-15725952D01*
X8238333Y-15716428D01*
X8228809Y-15697381D01*
X8219286Y-15659286D01*
X8219286Y-15611667D01*
X8228809Y-15573571D01*
X8238333Y-15554524D01*
X8247857Y-15545000D01*
X8266905Y-15535476D01*
X8457381Y-15535476D02*
X8476429Y-15535476D01*
X8495476Y-15545000D01*
X8505000Y-15554524D01*
X8514524Y-15573571D01*
X8524048Y-15611667D01*
X8524048Y-15659286D01*
X8514524Y-15697381D01*
X8505000Y-15716428D01*
X8495476Y-15725952D01*
X8476429Y-15735476D01*
X8457381Y-15735476D01*
X8438333Y-15725952D01*
X8428810Y-15716428D01*
X8419286Y-15697381D01*
X8409762Y-15659286D01*
X8409762Y-15611667D01*
X8419286Y-15573571D01*
X8428810Y-15554524D01*
X8438333Y-15545000D01*
X8457381Y-15535476D01*
X8609762Y-15735476D02*
X8609762Y-15602143D01*
X8609762Y-15621190D02*
X8619286Y-15611667D01*
X8638333Y-15602143D01*
X8666905Y-15602143D01*
X8685952Y-15611667D01*
X8695476Y-15630714D01*
X8695476Y-15735476D01*
X8695476Y-15630714D02*
X8705000Y-15611667D01*
X8724048Y-15602143D01*
X8752619Y-15602143D01*
X8771667Y-15611667D01*
X8781190Y-15630714D01*
X8781190Y-15735476D01*
X8876429Y-15735476D02*
X8876429Y-15602143D01*
X8876429Y-15621190D02*
X8885952Y-15611667D01*
X8905000Y-15602143D01*
X8933571Y-15602143D01*
X8952619Y-15611667D01*
X8962143Y-15630714D01*
X8962143Y-15735476D01*
X8962143Y-15630714D02*
X8971667Y-15611667D01*
X8990714Y-15602143D01*
X9019286Y-15602143D01*
X9038333Y-15611667D01*
X9047857Y-15630714D01*
X9047857Y-15735476D01*
X9438333Y-15525952D02*
X9266905Y-15783095D01*
X9695476Y-15535476D02*
X9714524Y-15535476D01*
X9733571Y-15545000D01*
X9743095Y-15554524D01*
X9752619Y-15573571D01*
X9762143Y-15611667D01*
X9762143Y-15659286D01*
X9752619Y-15697381D01*
X9743095Y-15716428D01*
X9733571Y-15725952D01*
X9714524Y-15735476D01*
X9695476Y-15735476D01*
X9676429Y-15725952D01*
X9666905Y-15716428D01*
X9657381Y-15697381D01*
X9647857Y-15659286D01*
X9647857Y-15611667D01*
X9657381Y-15573571D01*
X9666905Y-15554524D01*
X9676429Y-15545000D01*
X9695476Y-15535476D01*
X9847857Y-15716428D02*
X9857381Y-15725952D01*
X9847857Y-15735476D01*
X9838333Y-15725952D01*
X9847857Y-15716428D01*
X9847857Y-15735476D01*
X9981190Y-15535476D02*
X10000238Y-15535476D01*
X10019286Y-15545000D01*
X10028810Y-15554524D01*
X10038333Y-15573571D01*
X10047857Y-15611667D01*
X10047857Y-15659286D01*
X10038333Y-15697381D01*
X10028810Y-15716428D01*
X10019286Y-15725952D01*
X10000238Y-15735476D01*
X9981190Y-15735476D01*
X9962143Y-15725952D01*
X9952619Y-15716428D01*
X9943095Y-15697381D01*
X9933571Y-15659286D01*
X9933571Y-15611667D01*
X9943095Y-15573571D01*
X9952619Y-15554524D01*
X9962143Y-15545000D01*
X9981190Y-15535476D01*
X10238333Y-15735476D02*
X10124048Y-15735476D01*
X10181190Y-15735476D02*
X10181190Y-15535476D01*
X10162143Y-15564048D01*
X10143095Y-15583095D01*
X10124048Y-15592619D01*
X10428810Y-15735476D02*
X10314524Y-15735476D01*
X10371667Y-15735476D02*
X10371667Y-15535476D01*
X10352619Y-15564048D01*
X10333571Y-15583095D01*
X10314524Y-15592619D01*
X10543095Y-15621190D02*
X10524048Y-15611667D01*
X10514524Y-15602143D01*
X10505000Y-15583095D01*
X10505000Y-15573571D01*
X10514524Y-15554524D01*
X10524048Y-15545000D01*
X10543095Y-15535476D01*
X10581190Y-15535476D01*
X10600238Y-15545000D01*
X10609762Y-15554524D01*
X10619286Y-15573571D01*
X10619286Y-15583095D01*
X10609762Y-15602143D01*
X10600238Y-15611667D01*
X10581190Y-15621190D01*
X10543095Y-15621190D01*
X10524048Y-15630714D01*
X10514524Y-15640238D01*
X10505000Y-15659286D01*
X10505000Y-15697381D01*
X10514524Y-15716428D01*
X10524048Y-15725952D01*
X10543095Y-15735476D01*
X10581190Y-15735476D01*
X10600238Y-15725952D01*
X10609762Y-15716428D01*
X10619286Y-15697381D01*
X10619286Y-15659286D01*
X10609762Y-15640238D01*
X10600238Y-15630714D01*
X10581190Y-15621190D01*
X10695476Y-15535476D02*
X10695476Y-15573571D01*
X10771667Y-15535476D02*
X10771667Y-15573571D01*
X11066905Y-15811667D02*
X11057381Y-15802143D01*
X11038333Y-15773571D01*
X11028810Y-15754524D01*
X11019286Y-15725952D01*
X11009762Y-15678333D01*
X11009762Y-15640238D01*
X11019286Y-15592619D01*
X11028810Y-15564048D01*
X11038333Y-15545000D01*
X11057381Y-15516428D01*
X11066905Y-15506905D01*
X11228809Y-15535476D02*
X11190714Y-15535476D01*
X11171667Y-15545000D01*
X11162143Y-15554524D01*
X11143095Y-15583095D01*
X11133571Y-15621190D01*
X11133571Y-15697381D01*
X11143095Y-15716428D01*
X11152619Y-15725952D01*
X11171667Y-15735476D01*
X11209762Y-15735476D01*
X11228809Y-15725952D01*
X11238333Y-15716428D01*
X11247857Y-15697381D01*
X11247857Y-15649762D01*
X11238333Y-15630714D01*
X11228809Y-15621190D01*
X11209762Y-15611667D01*
X11171667Y-15611667D01*
X11152619Y-15621190D01*
X11143095Y-15630714D01*
X11133571Y-15649762D01*
X11419286Y-15602143D02*
X11419286Y-15735476D01*
X11371667Y-15525952D02*
X11324048Y-15668809D01*
X11447857Y-15668809D01*
X11676428Y-15735476D02*
X11676428Y-15535476D01*
X11762143Y-15735476D02*
X11762143Y-15630714D01*
X11752619Y-15611667D01*
X11733571Y-15602143D01*
X11705000Y-15602143D01*
X11685952Y-15611667D01*
X11676428Y-15621190D01*
X11885952Y-15735476D02*
X11866905Y-15725952D01*
X11857381Y-15716428D01*
X11847857Y-15697381D01*
X11847857Y-15640238D01*
X11857381Y-15621190D01*
X11866905Y-15611667D01*
X11885952Y-15602143D01*
X11914524Y-15602143D01*
X11933571Y-15611667D01*
X11943095Y-15621190D01*
X11952619Y-15640238D01*
X11952619Y-15697381D01*
X11943095Y-15716428D01*
X11933571Y-15725952D01*
X11914524Y-15735476D01*
X11885952Y-15735476D01*
X12066905Y-15735476D02*
X12047857Y-15725952D01*
X12038333Y-15706905D01*
X12038333Y-15535476D01*
X12219286Y-15725952D02*
X12200238Y-15735476D01*
X12162143Y-15735476D01*
X12143095Y-15725952D01*
X12133571Y-15706905D01*
X12133571Y-15630714D01*
X12143095Y-15611667D01*
X12162143Y-15602143D01*
X12200238Y-15602143D01*
X12219286Y-15611667D01*
X12228809Y-15630714D01*
X12228809Y-15649762D01*
X12133571Y-15668809D01*
X12305000Y-15725952D02*
X12324048Y-15735476D01*
X12362143Y-15735476D01*
X12381190Y-15725952D01*
X12390714Y-15706905D01*
X12390714Y-15697381D01*
X12381190Y-15678333D01*
X12362143Y-15668809D01*
X12333571Y-15668809D01*
X12314524Y-15659286D01*
X12305000Y-15640238D01*
X12305000Y-15630714D01*
X12314524Y-15611667D01*
X12333571Y-15602143D01*
X12362143Y-15602143D01*
X12381190Y-15611667D01*
X12457381Y-15811667D02*
X12466905Y-15802143D01*
X12485952Y-15773571D01*
X12495476Y-15754524D01*
X12505000Y-15725952D01*
X12514524Y-15678333D01*
X12514524Y-15640238D01*
X12505000Y-15592619D01*
X12495476Y-15564048D01*
X12485952Y-15545000D01*
X12466905Y-15516428D01*
X12457381Y-15506905D01*
D13*
X7495000Y-15909000D02*
G75*
G03*
X7495000Y-15909000I-30000J0D01*
G01*
D11*
X7790714Y-15799476D02*
X7809762Y-15799476D01*
X7828809Y-15809000D01*
X7838333Y-15818524D01*
X7847857Y-15837571D01*
X7857381Y-15875667D01*
X7857381Y-15923286D01*
X7847857Y-15961381D01*
X7838333Y-15980428D01*
X7828809Y-15989952D01*
X7809762Y-15999476D01*
X7790714Y-15999476D01*
X7771667Y-15989952D01*
X7762143Y-15980428D01*
X7752619Y-15961381D01*
X7743095Y-15923286D01*
X7743095Y-15875667D01*
X7752619Y-15837571D01*
X7762143Y-15818524D01*
X7771667Y-15809000D01*
X7790714Y-15799476D01*
X7943095Y-15980428D02*
X7952619Y-15989952D01*
X7943095Y-15999476D01*
X7933571Y-15989952D01*
X7943095Y-15980428D01*
X7943095Y-15999476D01*
X8124048Y-15799476D02*
X8085952Y-15799476D01*
X8066905Y-15809000D01*
X8057381Y-15818524D01*
X8038333Y-15847095D01*
X8028809Y-15885190D01*
X8028809Y-15961381D01*
X8038333Y-15980428D01*
X8047857Y-15989952D01*
X8066905Y-15999476D01*
X8105000Y-15999476D01*
X8124048Y-15989952D01*
X8133571Y-15980428D01*
X8143095Y-15961381D01*
X8143095Y-15913762D01*
X8133571Y-15894714D01*
X8124048Y-15885190D01*
X8105000Y-15875667D01*
X8066905Y-15875667D01*
X8047857Y-15885190D01*
X8038333Y-15894714D01*
X8028809Y-15913762D01*
X8266905Y-15799476D02*
X8285952Y-15799476D01*
X8305000Y-15809000D01*
X8314524Y-15818524D01*
X8324048Y-15837571D01*
X8333571Y-15875667D01*
X8333571Y-15923286D01*
X8324048Y-15961381D01*
X8314524Y-15980428D01*
X8305000Y-15989952D01*
X8285952Y-15999476D01*
X8266905Y-15999476D01*
X8247857Y-15989952D01*
X8238333Y-15980428D01*
X8228809Y-15961381D01*
X8219286Y-15923286D01*
X8219286Y-15875667D01*
X8228809Y-15837571D01*
X8238333Y-15818524D01*
X8247857Y-15809000D01*
X8266905Y-15799476D01*
X8457381Y-15799476D02*
X8476429Y-15799476D01*
X8495476Y-15809000D01*
X8505000Y-15818524D01*
X8514524Y-15837571D01*
X8524048Y-15875667D01*
X8524048Y-15923286D01*
X8514524Y-15961381D01*
X8505000Y-15980428D01*
X8495476Y-15989952D01*
X8476429Y-15999476D01*
X8457381Y-15999476D01*
X8438333Y-15989952D01*
X8428810Y-15980428D01*
X8419286Y-15961381D01*
X8409762Y-15923286D01*
X8409762Y-15875667D01*
X8419286Y-15837571D01*
X8428810Y-15818524D01*
X8438333Y-15809000D01*
X8457381Y-15799476D01*
X8609762Y-15999476D02*
X8609762Y-15866143D01*
X8609762Y-15885190D02*
X8619286Y-15875667D01*
X8638333Y-15866143D01*
X8666905Y-15866143D01*
X8685952Y-15875667D01*
X8695476Y-15894714D01*
X8695476Y-15999476D01*
X8695476Y-15894714D02*
X8705000Y-15875667D01*
X8724048Y-15866143D01*
X8752619Y-15866143D01*
X8771667Y-15875667D01*
X8781190Y-15894714D01*
X8781190Y-15999476D01*
X8876429Y-15999476D02*
X8876429Y-15866143D01*
X8876429Y-15885190D02*
X8885952Y-15875667D01*
X8905000Y-15866143D01*
X8933571Y-15866143D01*
X8952619Y-15875667D01*
X8962143Y-15894714D01*
X8962143Y-15999476D01*
X8962143Y-15894714D02*
X8971667Y-15875667D01*
X8990714Y-15866143D01*
X9019286Y-15866143D01*
X9038333Y-15875667D01*
X9047857Y-15894714D01*
X9047857Y-15999476D01*
X9438333Y-15789952D02*
X9266905Y-16047095D01*
X9695476Y-15799476D02*
X9714524Y-15799476D01*
X9733571Y-15809000D01*
X9743095Y-15818524D01*
X9752619Y-15837571D01*
X9762143Y-15875667D01*
X9762143Y-15923286D01*
X9752619Y-15961381D01*
X9743095Y-15980428D01*
X9733571Y-15989952D01*
X9714524Y-15999476D01*
X9695476Y-15999476D01*
X9676429Y-15989952D01*
X9666905Y-15980428D01*
X9657381Y-15961381D01*
X9647857Y-15923286D01*
X9647857Y-15875667D01*
X9657381Y-15837571D01*
X9666905Y-15818524D01*
X9676429Y-15809000D01*
X9695476Y-15799476D01*
X9847857Y-15980428D02*
X9857381Y-15989952D01*
X9847857Y-15999476D01*
X9838333Y-15989952D01*
X9847857Y-15980428D01*
X9847857Y-15999476D01*
X9981190Y-15799476D02*
X10000238Y-15799476D01*
X10019286Y-15809000D01*
X10028810Y-15818524D01*
X10038333Y-15837571D01*
X10047857Y-15875667D01*
X10047857Y-15923286D01*
X10038333Y-15961381D01*
X10028810Y-15980428D01*
X10019286Y-15989952D01*
X10000238Y-15999476D01*
X9981190Y-15999476D01*
X9962143Y-15989952D01*
X9952619Y-15980428D01*
X9943095Y-15961381D01*
X9933571Y-15923286D01*
X9933571Y-15875667D01*
X9943095Y-15837571D01*
X9952619Y-15818524D01*
X9962143Y-15809000D01*
X9981190Y-15799476D01*
X10124048Y-15818524D02*
X10133571Y-15809000D01*
X10152619Y-15799476D01*
X10200238Y-15799476D01*
X10219286Y-15809000D01*
X10228810Y-15818524D01*
X10238333Y-15837571D01*
X10238333Y-15856619D01*
X10228810Y-15885190D01*
X10114524Y-15999476D01*
X10238333Y-15999476D01*
X10305000Y-15799476D02*
X10428810Y-15799476D01*
X10362143Y-15875667D01*
X10390714Y-15875667D01*
X10409762Y-15885190D01*
X10419286Y-15894714D01*
X10428810Y-15913762D01*
X10428810Y-15961381D01*
X10419286Y-15980428D01*
X10409762Y-15989952D01*
X10390714Y-15999476D01*
X10333571Y-15999476D01*
X10314524Y-15989952D01*
X10305000Y-15980428D01*
X10600238Y-15799476D02*
X10562143Y-15799476D01*
X10543095Y-15809000D01*
X10533571Y-15818524D01*
X10514524Y-15847095D01*
X10505000Y-15885190D01*
X10505000Y-15961381D01*
X10514524Y-15980428D01*
X10524048Y-15989952D01*
X10543095Y-15999476D01*
X10581190Y-15999476D01*
X10600238Y-15989952D01*
X10609762Y-15980428D01*
X10619286Y-15961381D01*
X10619286Y-15913762D01*
X10609762Y-15894714D01*
X10600238Y-15885190D01*
X10581190Y-15875667D01*
X10543095Y-15875667D01*
X10524048Y-15885190D01*
X10514524Y-15894714D01*
X10505000Y-15913762D01*
X10695476Y-15799476D02*
X10695476Y-15837571D01*
X10771667Y-15799476D02*
X10771667Y-15837571D01*
X11066905Y-16075667D02*
X11057381Y-16066143D01*
X11038333Y-16037571D01*
X11028810Y-16018524D01*
X11019286Y-15989952D01*
X11009762Y-15942333D01*
X11009762Y-15904238D01*
X11019286Y-15856619D01*
X11028810Y-15828048D01*
X11038333Y-15809000D01*
X11057381Y-15780428D01*
X11066905Y-15770905D01*
X11181190Y-15799476D02*
X11200238Y-15799476D01*
X11219286Y-15809000D01*
X11228809Y-15818524D01*
X11238333Y-15837571D01*
X11247857Y-15875667D01*
X11247857Y-15923286D01*
X11238333Y-15961381D01*
X11228809Y-15980428D01*
X11219286Y-15989952D01*
X11200238Y-15999476D01*
X11181190Y-15999476D01*
X11162143Y-15989952D01*
X11152619Y-15980428D01*
X11143095Y-15961381D01*
X11133571Y-15923286D01*
X11133571Y-15875667D01*
X11143095Y-15837571D01*
X11152619Y-15818524D01*
X11162143Y-15809000D01*
X11181190Y-15799476D01*
X11485952Y-15999476D02*
X11485952Y-15799476D01*
X11571667Y-15999476D02*
X11571667Y-15894714D01*
X11562143Y-15875667D01*
X11543095Y-15866143D01*
X11514524Y-15866143D01*
X11495476Y-15875667D01*
X11485952Y-15885190D01*
X11695476Y-15999476D02*
X11676428Y-15989952D01*
X11666905Y-15980428D01*
X11657381Y-15961381D01*
X11657381Y-15904238D01*
X11666905Y-15885190D01*
X11676428Y-15875667D01*
X11695476Y-15866143D01*
X11724048Y-15866143D01*
X11743095Y-15875667D01*
X11752619Y-15885190D01*
X11762143Y-15904238D01*
X11762143Y-15961381D01*
X11752619Y-15980428D01*
X11743095Y-15989952D01*
X11724048Y-15999476D01*
X11695476Y-15999476D01*
X11876428Y-15999476D02*
X11857381Y-15989952D01*
X11847857Y-15970905D01*
X11847857Y-15799476D01*
X12028809Y-15989952D02*
X12009762Y-15999476D01*
X11971667Y-15999476D01*
X11952619Y-15989952D01*
X11943095Y-15970905D01*
X11943095Y-15894714D01*
X11952619Y-15875667D01*
X11971667Y-15866143D01*
X12009762Y-15866143D01*
X12028809Y-15875667D01*
X12038333Y-15894714D01*
X12038333Y-15913762D01*
X11943095Y-15932809D01*
X12114524Y-15989952D02*
X12133571Y-15999476D01*
X12171667Y-15999476D01*
X12190714Y-15989952D01*
X12200238Y-15970905D01*
X12200238Y-15961381D01*
X12190714Y-15942333D01*
X12171667Y-15932809D01*
X12143095Y-15932809D01*
X12124048Y-15923286D01*
X12114524Y-15904238D01*
X12114524Y-15894714D01*
X12124048Y-15875667D01*
X12143095Y-15866143D01*
X12171667Y-15866143D01*
X12190714Y-15875667D01*
X12438333Y-15923286D02*
X12590714Y-15923286D01*
X12514524Y-15999476D02*
X12514524Y-15847095D01*
X12924048Y-15866143D02*
X12924048Y-15999476D01*
X12876428Y-15789952D02*
X12828809Y-15932809D01*
X12952619Y-15932809D01*
X13171667Y-15989952D02*
X13190714Y-15999476D01*
X13228809Y-15999476D01*
X13247857Y-15989952D01*
X13257381Y-15970905D01*
X13257381Y-15961381D01*
X13247857Y-15942333D01*
X13228809Y-15932809D01*
X13200238Y-15932809D01*
X13181190Y-15923286D01*
X13171667Y-15904238D01*
X13171667Y-15894714D01*
X13181190Y-15875667D01*
X13200238Y-15866143D01*
X13228809Y-15866143D01*
X13247857Y-15875667D01*
X13371667Y-15999476D02*
X13352619Y-15989952D01*
X13343095Y-15970905D01*
X13343095Y-15799476D01*
X13476428Y-15999476D02*
X13457381Y-15989952D01*
X13447857Y-15980428D01*
X13438333Y-15961381D01*
X13438333Y-15904238D01*
X13447857Y-15885190D01*
X13457381Y-15875667D01*
X13476428Y-15866143D01*
X13505000Y-15866143D01*
X13524048Y-15875667D01*
X13533571Y-15885190D01*
X13543095Y-15904238D01*
X13543095Y-15961381D01*
X13533571Y-15980428D01*
X13524048Y-15989952D01*
X13505000Y-15999476D01*
X13476428Y-15999476D01*
X13600238Y-15866143D02*
X13676428Y-15866143D01*
X13628809Y-15799476D02*
X13628809Y-15970905D01*
X13638333Y-15989952D01*
X13657381Y-15999476D01*
X13676428Y-15999476D01*
X13733571Y-15989952D02*
X13752619Y-15999476D01*
X13790714Y-15999476D01*
X13809762Y-15989952D01*
X13819286Y-15970905D01*
X13819286Y-15961381D01*
X13809762Y-15942333D01*
X13790714Y-15932809D01*
X13762143Y-15932809D01*
X13743095Y-15923286D01*
X13733571Y-15904238D01*
X13733571Y-15894714D01*
X13743095Y-15875667D01*
X13762143Y-15866143D01*
X13790714Y-15866143D01*
X13809762Y-15875667D01*
X13885952Y-16075667D02*
X13895476Y-16066143D01*
X13914524Y-16037571D01*
X13924048Y-16018524D01*
X13933571Y-15989952D01*
X13943095Y-15942333D01*
X13943095Y-15904238D01*
X13933571Y-15856619D01*
X13924048Y-15828048D01*
X13914524Y-15809000D01*
X13895476Y-15780428D01*
X13885952Y-15770905D01*
D14*
X7457500Y-16135500D02*
X7457500Y-16210500D01*
X7420000Y-16173000D02*
X7495000Y-16173000D01*
D11*
X7790714Y-16063476D02*
X7809762Y-16063476D01*
X7828809Y-16073000D01*
X7838333Y-16082524D01*
X7847857Y-16101571D01*
X7857381Y-16139667D01*
X7857381Y-16187286D01*
X7847857Y-16225381D01*
X7838333Y-16244428D01*
X7828809Y-16253952D01*
X7809762Y-16263476D01*
X7790714Y-16263476D01*
X7771667Y-16253952D01*
X7762143Y-16244428D01*
X7752619Y-16225381D01*
X7743095Y-16187286D01*
X7743095Y-16139667D01*
X7752619Y-16101571D01*
X7762143Y-16082524D01*
X7771667Y-16073000D01*
X7790714Y-16063476D01*
X7943095Y-16244428D02*
X7952619Y-16253952D01*
X7943095Y-16263476D01*
X7933571Y-16253952D01*
X7943095Y-16244428D01*
X7943095Y-16263476D01*
X8019286Y-16063476D02*
X8152619Y-16063476D01*
X8066905Y-16263476D01*
X8324048Y-16063476D02*
X8228809Y-16063476D01*
X8219286Y-16158714D01*
X8228809Y-16149190D01*
X8247857Y-16139667D01*
X8295476Y-16139667D01*
X8314524Y-16149190D01*
X8324048Y-16158714D01*
X8333571Y-16177762D01*
X8333571Y-16225381D01*
X8324048Y-16244428D01*
X8314524Y-16253952D01*
X8295476Y-16263476D01*
X8247857Y-16263476D01*
X8228809Y-16253952D01*
X8219286Y-16244428D01*
X8457381Y-16063476D02*
X8476429Y-16063476D01*
X8495476Y-16073000D01*
X8505000Y-16082524D01*
X8514524Y-16101571D01*
X8524048Y-16139667D01*
X8524048Y-16187286D01*
X8514524Y-16225381D01*
X8505000Y-16244428D01*
X8495476Y-16253952D01*
X8476429Y-16263476D01*
X8457381Y-16263476D01*
X8438333Y-16253952D01*
X8428810Y-16244428D01*
X8419286Y-16225381D01*
X8409762Y-16187286D01*
X8409762Y-16139667D01*
X8419286Y-16101571D01*
X8428810Y-16082524D01*
X8438333Y-16073000D01*
X8457381Y-16063476D01*
X8609762Y-16263476D02*
X8609762Y-16130143D01*
X8609762Y-16149190D02*
X8619286Y-16139667D01*
X8638333Y-16130143D01*
X8666905Y-16130143D01*
X8685952Y-16139667D01*
X8695476Y-16158714D01*
X8695476Y-16263476D01*
X8695476Y-16158714D02*
X8705000Y-16139667D01*
X8724048Y-16130143D01*
X8752619Y-16130143D01*
X8771667Y-16139667D01*
X8781190Y-16158714D01*
X8781190Y-16263476D01*
X8876429Y-16263476D02*
X8876429Y-16130143D01*
X8876429Y-16149190D02*
X8885952Y-16139667D01*
X8905000Y-16130143D01*
X8933571Y-16130143D01*
X8952619Y-16139667D01*
X8962143Y-16158714D01*
X8962143Y-16263476D01*
X8962143Y-16158714D02*
X8971667Y-16139667D01*
X8990714Y-16130143D01*
X9019286Y-16130143D01*
X9038333Y-16139667D01*
X9047857Y-16158714D01*
X9047857Y-16263476D01*
X9438333Y-16053952D02*
X9266905Y-16311095D01*
X9695476Y-16063476D02*
X9714524Y-16063476D01*
X9733571Y-16073000D01*
X9743095Y-16082524D01*
X9752619Y-16101571D01*
X9762143Y-16139667D01*
X9762143Y-16187286D01*
X9752619Y-16225381D01*
X9743095Y-16244428D01*
X9733571Y-16253952D01*
X9714524Y-16263476D01*
X9695476Y-16263476D01*
X9676429Y-16253952D01*
X9666905Y-16244428D01*
X9657381Y-16225381D01*
X9647857Y-16187286D01*
X9647857Y-16139667D01*
X9657381Y-16101571D01*
X9666905Y-16082524D01*
X9676429Y-16073000D01*
X9695476Y-16063476D01*
X9847857Y-16244428D02*
X9857381Y-16253952D01*
X9847857Y-16263476D01*
X9838333Y-16253952D01*
X9847857Y-16244428D01*
X9847857Y-16263476D01*
X9981190Y-16063476D02*
X10000238Y-16063476D01*
X10019286Y-16073000D01*
X10028810Y-16082524D01*
X10038333Y-16101571D01*
X10047857Y-16139667D01*
X10047857Y-16187286D01*
X10038333Y-16225381D01*
X10028810Y-16244428D01*
X10019286Y-16253952D01*
X10000238Y-16263476D01*
X9981190Y-16263476D01*
X9962143Y-16253952D01*
X9952619Y-16244428D01*
X9943095Y-16225381D01*
X9933571Y-16187286D01*
X9933571Y-16139667D01*
X9943095Y-16101571D01*
X9952619Y-16082524D01*
X9962143Y-16073000D01*
X9981190Y-16063476D01*
X10124048Y-16082524D02*
X10133571Y-16073000D01*
X10152619Y-16063476D01*
X10200238Y-16063476D01*
X10219286Y-16073000D01*
X10228810Y-16082524D01*
X10238333Y-16101571D01*
X10238333Y-16120619D01*
X10228810Y-16149190D01*
X10114524Y-16263476D01*
X10238333Y-16263476D01*
X10333571Y-16263476D02*
X10371667Y-16263476D01*
X10390714Y-16253952D01*
X10400238Y-16244428D01*
X10419286Y-16215857D01*
X10428810Y-16177762D01*
X10428810Y-16101571D01*
X10419286Y-16082524D01*
X10409762Y-16073000D01*
X10390714Y-16063476D01*
X10352619Y-16063476D01*
X10333571Y-16073000D01*
X10324048Y-16082524D01*
X10314524Y-16101571D01*
X10314524Y-16149190D01*
X10324048Y-16168238D01*
X10333571Y-16177762D01*
X10352619Y-16187286D01*
X10390714Y-16187286D01*
X10409762Y-16177762D01*
X10419286Y-16168238D01*
X10428810Y-16149190D01*
X10609762Y-16063476D02*
X10514524Y-16063476D01*
X10505000Y-16158714D01*
X10514524Y-16149190D01*
X10533571Y-16139667D01*
X10581190Y-16139667D01*
X10600238Y-16149190D01*
X10609762Y-16158714D01*
X10619286Y-16177762D01*
X10619286Y-16225381D01*
X10609762Y-16244428D01*
X10600238Y-16253952D01*
X10581190Y-16263476D01*
X10533571Y-16263476D01*
X10514524Y-16253952D01*
X10505000Y-16244428D01*
X10695476Y-16063476D02*
X10695476Y-16101571D01*
X10771667Y-16063476D02*
X10771667Y-16101571D01*
X11066905Y-16339667D02*
X11057381Y-16330143D01*
X11038333Y-16301571D01*
X11028810Y-16282524D01*
X11019286Y-16253952D01*
X11009762Y-16206333D01*
X11009762Y-16168238D01*
X11019286Y-16120619D01*
X11028810Y-16092048D01*
X11038333Y-16073000D01*
X11057381Y-16044428D01*
X11066905Y-16034905D01*
X11124048Y-16063476D02*
X11257381Y-16063476D01*
X11171667Y-16263476D01*
X11485952Y-16263476D02*
X11485952Y-16063476D01*
X11571667Y-16263476D02*
X11571667Y-16158714D01*
X11562143Y-16139667D01*
X11543095Y-16130143D01*
X11514524Y-16130143D01*
X11495476Y-16139667D01*
X11485952Y-16149190D01*
X11695476Y-16263476D02*
X11676428Y-16253952D01*
X11666905Y-16244428D01*
X11657381Y-16225381D01*
X11657381Y-16168238D01*
X11666905Y-16149190D01*
X11676428Y-16139667D01*
X11695476Y-16130143D01*
X11724048Y-16130143D01*
X11743095Y-16139667D01*
X11752619Y-16149190D01*
X11762143Y-16168238D01*
X11762143Y-16225381D01*
X11752619Y-16244428D01*
X11743095Y-16253952D01*
X11724048Y-16263476D01*
X11695476Y-16263476D01*
X11876428Y-16263476D02*
X11857381Y-16253952D01*
X11847857Y-16234905D01*
X11847857Y-16063476D01*
X12028809Y-16253952D02*
X12009762Y-16263476D01*
X11971667Y-16263476D01*
X11952619Y-16253952D01*
X11943095Y-16234905D01*
X11943095Y-16158714D01*
X11952619Y-16139667D01*
X11971667Y-16130143D01*
X12009762Y-16130143D01*
X12028809Y-16139667D01*
X12038333Y-16158714D01*
X12038333Y-16177762D01*
X11943095Y-16196809D01*
X12114524Y-16253952D02*
X12133571Y-16263476D01*
X12171667Y-16263476D01*
X12190714Y-16253952D01*
X12200238Y-16234905D01*
X12200238Y-16225381D01*
X12190714Y-16206333D01*
X12171667Y-16196809D01*
X12143095Y-16196809D01*
X12124048Y-16187286D01*
X12114524Y-16168238D01*
X12114524Y-16158714D01*
X12124048Y-16139667D01*
X12143095Y-16130143D01*
X12171667Y-16130143D01*
X12190714Y-16139667D01*
X12266905Y-16339667D02*
X12276428Y-16330143D01*
X12295476Y-16301571D01*
X12305000Y-16282524D01*
X12314524Y-16253952D01*
X12324048Y-16206333D01*
X12324048Y-16168238D01*
X12314524Y-16120619D01*
X12305000Y-16092048D01*
X12295476Y-16073000D01*
X12276428Y-16044428D01*
X12266905Y-16034905D01*
D15*
X7481088Y-16470588D02*
X7481088Y-16403412D01*
X7413912Y-16403412D01*
X7413912Y-16470588D01*
X7481088Y-16470588D01*
D11*
X7790714Y-16327476D02*
X7809762Y-16327476D01*
X7828809Y-16337000D01*
X7838333Y-16346524D01*
X7847857Y-16365571D01*
X7857381Y-16403667D01*
X7857381Y-16451286D01*
X7847857Y-16489381D01*
X7838333Y-16508428D01*
X7828809Y-16517952D01*
X7809762Y-16527476D01*
X7790714Y-16527476D01*
X7771667Y-16517952D01*
X7762143Y-16508428D01*
X7752619Y-16489381D01*
X7743095Y-16451286D01*
X7743095Y-16403667D01*
X7752619Y-16365571D01*
X7762143Y-16346524D01*
X7771667Y-16337000D01*
X7790714Y-16327476D01*
X7943095Y-16508428D02*
X7952619Y-16517952D01*
X7943095Y-16527476D01*
X7933571Y-16517952D01*
X7943095Y-16508428D01*
X7943095Y-16527476D01*
X8047857Y-16527476D02*
X8085952Y-16527476D01*
X8105000Y-16517952D01*
X8114524Y-16508428D01*
X8133571Y-16479857D01*
X8143095Y-16441762D01*
X8143095Y-16365571D01*
X8133571Y-16346524D01*
X8124048Y-16337000D01*
X8105000Y-16327476D01*
X8066905Y-16327476D01*
X8047857Y-16337000D01*
X8038333Y-16346524D01*
X8028809Y-16365571D01*
X8028809Y-16413190D01*
X8038333Y-16432238D01*
X8047857Y-16441762D01*
X8066905Y-16451286D01*
X8105000Y-16451286D01*
X8124048Y-16441762D01*
X8133571Y-16432238D01*
X8143095Y-16413190D01*
X8324048Y-16327476D02*
X8228809Y-16327476D01*
X8219286Y-16422714D01*
X8228809Y-16413190D01*
X8247857Y-16403667D01*
X8295476Y-16403667D01*
X8314524Y-16413190D01*
X8324048Y-16422714D01*
X8333571Y-16441762D01*
X8333571Y-16489381D01*
X8324048Y-16508428D01*
X8314524Y-16517952D01*
X8295476Y-16527476D01*
X8247857Y-16527476D01*
X8228809Y-16517952D01*
X8219286Y-16508428D01*
X8457381Y-16327476D02*
X8476429Y-16327476D01*
X8495476Y-16337000D01*
X8505000Y-16346524D01*
X8514524Y-16365571D01*
X8524048Y-16403667D01*
X8524048Y-16451286D01*
X8514524Y-16489381D01*
X8505000Y-16508428D01*
X8495476Y-16517952D01*
X8476429Y-16527476D01*
X8457381Y-16527476D01*
X8438333Y-16517952D01*
X8428810Y-16508428D01*
X8419286Y-16489381D01*
X8409762Y-16451286D01*
X8409762Y-16403667D01*
X8419286Y-16365571D01*
X8428810Y-16346524D01*
X8438333Y-16337000D01*
X8457381Y-16327476D01*
X8609762Y-16527476D02*
X8609762Y-16394143D01*
X8609762Y-16413190D02*
X8619286Y-16403667D01*
X8638333Y-16394143D01*
X8666905Y-16394143D01*
X8685952Y-16403667D01*
X8695476Y-16422714D01*
X8695476Y-16527476D01*
X8695476Y-16422714D02*
X8705000Y-16403667D01*
X8724048Y-16394143D01*
X8752619Y-16394143D01*
X8771667Y-16403667D01*
X8781190Y-16422714D01*
X8781190Y-16527476D01*
X8876429Y-16527476D02*
X8876429Y-16394143D01*
X8876429Y-16413190D02*
X8885952Y-16403667D01*
X8905000Y-16394143D01*
X8933571Y-16394143D01*
X8952619Y-16403667D01*
X8962143Y-16422714D01*
X8962143Y-16527476D01*
X8962143Y-16422714D02*
X8971667Y-16403667D01*
X8990714Y-16394143D01*
X9019286Y-16394143D01*
X9038333Y-16403667D01*
X9047857Y-16422714D01*
X9047857Y-16527476D01*
X9438333Y-16317952D02*
X9266905Y-16575095D01*
X9695476Y-16327476D02*
X9714524Y-16327476D01*
X9733571Y-16337000D01*
X9743095Y-16346524D01*
X9752619Y-16365571D01*
X9762143Y-16403667D01*
X9762143Y-16451286D01*
X9752619Y-16489381D01*
X9743095Y-16508428D01*
X9733571Y-16517952D01*
X9714524Y-16527476D01*
X9695476Y-16527476D01*
X9676429Y-16517952D01*
X9666905Y-16508428D01*
X9657381Y-16489381D01*
X9647857Y-16451286D01*
X9647857Y-16403667D01*
X9657381Y-16365571D01*
X9666905Y-16346524D01*
X9676429Y-16337000D01*
X9695476Y-16327476D01*
X9847857Y-16508428D02*
X9857381Y-16517952D01*
X9847857Y-16527476D01*
X9838333Y-16517952D01*
X9847857Y-16508428D01*
X9847857Y-16527476D01*
X9981190Y-16327476D02*
X10000238Y-16327476D01*
X10019286Y-16337000D01*
X10028810Y-16346524D01*
X10038333Y-16365571D01*
X10047857Y-16403667D01*
X10047857Y-16451286D01*
X10038333Y-16489381D01*
X10028810Y-16508428D01*
X10019286Y-16517952D01*
X10000238Y-16527476D01*
X9981190Y-16527476D01*
X9962143Y-16517952D01*
X9952619Y-16508428D01*
X9943095Y-16489381D01*
X9933571Y-16451286D01*
X9933571Y-16403667D01*
X9943095Y-16365571D01*
X9952619Y-16346524D01*
X9962143Y-16337000D01*
X9981190Y-16327476D01*
X10114524Y-16327476D02*
X10238333Y-16327476D01*
X10171667Y-16403667D01*
X10200238Y-16403667D01*
X10219286Y-16413190D01*
X10228810Y-16422714D01*
X10238333Y-16441762D01*
X10238333Y-16489381D01*
X10228810Y-16508428D01*
X10219286Y-16517952D01*
X10200238Y-16527476D01*
X10143095Y-16527476D01*
X10124048Y-16517952D01*
X10114524Y-16508428D01*
X10305000Y-16327476D02*
X10438333Y-16327476D01*
X10352619Y-16527476D01*
X10600238Y-16394143D02*
X10600238Y-16527476D01*
X10552619Y-16317952D02*
X10505000Y-16460809D01*
X10628810Y-16460809D01*
X10695476Y-16327476D02*
X10695476Y-16365571D01*
X10771667Y-16327476D02*
X10771667Y-16365571D01*
X11066905Y-16603667D02*
X11057381Y-16594143D01*
X11038333Y-16565571D01*
X11028810Y-16546524D01*
X11019286Y-16517952D01*
X11009762Y-16470333D01*
X11009762Y-16432238D01*
X11019286Y-16384619D01*
X11028810Y-16356048D01*
X11038333Y-16337000D01*
X11057381Y-16308428D01*
X11066905Y-16298905D01*
X11247857Y-16527476D02*
X11133571Y-16527476D01*
X11190714Y-16527476D02*
X11190714Y-16327476D01*
X11171667Y-16356048D01*
X11152619Y-16375095D01*
X11133571Y-16384619D01*
X11419286Y-16327476D02*
X11381190Y-16327476D01*
X11362143Y-16337000D01*
X11352619Y-16346524D01*
X11333571Y-16375095D01*
X11324048Y-16413190D01*
X11324048Y-16489381D01*
X11333571Y-16508428D01*
X11343095Y-16517952D01*
X11362143Y-16527476D01*
X11400238Y-16527476D01*
X11419286Y-16517952D01*
X11428809Y-16508428D01*
X11438333Y-16489381D01*
X11438333Y-16441762D01*
X11428809Y-16422714D01*
X11419286Y-16413190D01*
X11400238Y-16403667D01*
X11362143Y-16403667D01*
X11343095Y-16413190D01*
X11333571Y-16422714D01*
X11324048Y-16441762D01*
X11676428Y-16527476D02*
X11676428Y-16327476D01*
X11762143Y-16527476D02*
X11762143Y-16422714D01*
X11752619Y-16403667D01*
X11733571Y-16394143D01*
X11705000Y-16394143D01*
X11685952Y-16403667D01*
X11676428Y-16413190D01*
X11885952Y-16527476D02*
X11866905Y-16517952D01*
X11857381Y-16508428D01*
X11847857Y-16489381D01*
X11847857Y-16432238D01*
X11857381Y-16413190D01*
X11866905Y-16403667D01*
X11885952Y-16394143D01*
X11914524Y-16394143D01*
X11933571Y-16403667D01*
X11943095Y-16413190D01*
X11952619Y-16432238D01*
X11952619Y-16489381D01*
X11943095Y-16508428D01*
X11933571Y-16517952D01*
X11914524Y-16527476D01*
X11885952Y-16527476D01*
X12066905Y-16527476D02*
X12047857Y-16517952D01*
X12038333Y-16498905D01*
X12038333Y-16327476D01*
X12219286Y-16517952D02*
X12200238Y-16527476D01*
X12162143Y-16527476D01*
X12143095Y-16517952D01*
X12133571Y-16498905D01*
X12133571Y-16422714D01*
X12143095Y-16403667D01*
X12162143Y-16394143D01*
X12200238Y-16394143D01*
X12219286Y-16403667D01*
X12228809Y-16422714D01*
X12228809Y-16441762D01*
X12133571Y-16460809D01*
X12305000Y-16517952D02*
X12324048Y-16527476D01*
X12362143Y-16527476D01*
X12381190Y-16517952D01*
X12390714Y-16498905D01*
X12390714Y-16489381D01*
X12381190Y-16470333D01*
X12362143Y-16460809D01*
X12333571Y-16460809D01*
X12314524Y-16451286D01*
X12305000Y-16432238D01*
X12305000Y-16422714D01*
X12314524Y-16403667D01*
X12333571Y-16394143D01*
X12362143Y-16394143D01*
X12381190Y-16403667D01*
X12457381Y-16603667D02*
X12466905Y-16594143D01*
X12485952Y-16565571D01*
X12495476Y-16546524D01*
X12505000Y-16517952D01*
X12514524Y-16470333D01*
X12514524Y-16432238D01*
X12505000Y-16384619D01*
X12495476Y-16356048D01*
X12485952Y-16337000D01*
X12466905Y-16308428D01*
X12457381Y-16298905D01*
D10*
X7445000Y-16751000D02*
X7495000Y-16701000D01*
X7445000Y-16651000D01*
X7395000Y-16701000D01*
X7445000Y-16751000D01*
D11*
X7857381Y-16791476D02*
X7743095Y-16791476D01*
X7800238Y-16791476D02*
X7800238Y-16591476D01*
X7781190Y-16620048D01*
X7762143Y-16639095D01*
X7743095Y-16648619D01*
X7943095Y-16772428D02*
X7952619Y-16781952D01*
X7943095Y-16791476D01*
X7933571Y-16781952D01*
X7943095Y-16772428D01*
X7943095Y-16791476D01*
X8076428Y-16591476D02*
X8095476Y-16591476D01*
X8114524Y-16601000D01*
X8124048Y-16610524D01*
X8133571Y-16629571D01*
X8143095Y-16667667D01*
X8143095Y-16715286D01*
X8133571Y-16753381D01*
X8124048Y-16772428D01*
X8114524Y-16781952D01*
X8095476Y-16791476D01*
X8076428Y-16791476D01*
X8057381Y-16781952D01*
X8047857Y-16772428D01*
X8038333Y-16753381D01*
X8028809Y-16715286D01*
X8028809Y-16667667D01*
X8038333Y-16629571D01*
X8047857Y-16610524D01*
X8057381Y-16601000D01*
X8076428Y-16591476D01*
X8266905Y-16591476D02*
X8285952Y-16591476D01*
X8305000Y-16601000D01*
X8314524Y-16610524D01*
X8324048Y-16629571D01*
X8333571Y-16667667D01*
X8333571Y-16715286D01*
X8324048Y-16753381D01*
X8314524Y-16772428D01*
X8305000Y-16781952D01*
X8285952Y-16791476D01*
X8266905Y-16791476D01*
X8247857Y-16781952D01*
X8238333Y-16772428D01*
X8228809Y-16753381D01*
X8219286Y-16715286D01*
X8219286Y-16667667D01*
X8228809Y-16629571D01*
X8238333Y-16610524D01*
X8247857Y-16601000D01*
X8266905Y-16591476D01*
X8457381Y-16591476D02*
X8476429Y-16591476D01*
X8495476Y-16601000D01*
X8505000Y-16610524D01*
X8514524Y-16629571D01*
X8524048Y-16667667D01*
X8524048Y-16715286D01*
X8514524Y-16753381D01*
X8505000Y-16772428D01*
X8495476Y-16781952D01*
X8476429Y-16791476D01*
X8457381Y-16791476D01*
X8438333Y-16781952D01*
X8428810Y-16772428D01*
X8419286Y-16753381D01*
X8409762Y-16715286D01*
X8409762Y-16667667D01*
X8419286Y-16629571D01*
X8428810Y-16610524D01*
X8438333Y-16601000D01*
X8457381Y-16591476D01*
X8609762Y-16791476D02*
X8609762Y-16658143D01*
X8609762Y-16677190D02*
X8619286Y-16667667D01*
X8638333Y-16658143D01*
X8666905Y-16658143D01*
X8685952Y-16667667D01*
X8695476Y-16686714D01*
X8695476Y-16791476D01*
X8695476Y-16686714D02*
X8705000Y-16667667D01*
X8724048Y-16658143D01*
X8752619Y-16658143D01*
X8771667Y-16667667D01*
X8781190Y-16686714D01*
X8781190Y-16791476D01*
X8876429Y-16791476D02*
X8876429Y-16658143D01*
X8876429Y-16677190D02*
X8885952Y-16667667D01*
X8905000Y-16658143D01*
X8933571Y-16658143D01*
X8952619Y-16667667D01*
X8962143Y-16686714D01*
X8962143Y-16791476D01*
X8962143Y-16686714D02*
X8971667Y-16667667D01*
X8990714Y-16658143D01*
X9019286Y-16658143D01*
X9038333Y-16667667D01*
X9047857Y-16686714D01*
X9047857Y-16791476D01*
X9438333Y-16581952D02*
X9266905Y-16839095D01*
X9695476Y-16591476D02*
X9714524Y-16591476D01*
X9733571Y-16601000D01*
X9743095Y-16610524D01*
X9752619Y-16629571D01*
X9762143Y-16667667D01*
X9762143Y-16715286D01*
X9752619Y-16753381D01*
X9743095Y-16772428D01*
X9733571Y-16781952D01*
X9714524Y-16791476D01*
X9695476Y-16791476D01*
X9676429Y-16781952D01*
X9666905Y-16772428D01*
X9657381Y-16753381D01*
X9647857Y-16715286D01*
X9647857Y-16667667D01*
X9657381Y-16629571D01*
X9666905Y-16610524D01*
X9676429Y-16601000D01*
X9695476Y-16591476D01*
X9847857Y-16772428D02*
X9857381Y-16781952D01*
X9847857Y-16791476D01*
X9838333Y-16781952D01*
X9847857Y-16772428D01*
X9847857Y-16791476D01*
X9981190Y-16591476D02*
X10000238Y-16591476D01*
X10019286Y-16601000D01*
X10028810Y-16610524D01*
X10038333Y-16629571D01*
X10047857Y-16667667D01*
X10047857Y-16715286D01*
X10038333Y-16753381D01*
X10028810Y-16772428D01*
X10019286Y-16781952D01*
X10000238Y-16791476D01*
X9981190Y-16791476D01*
X9962143Y-16781952D01*
X9952619Y-16772428D01*
X9943095Y-16753381D01*
X9933571Y-16715286D01*
X9933571Y-16667667D01*
X9943095Y-16629571D01*
X9952619Y-16610524D01*
X9962143Y-16601000D01*
X9981190Y-16591476D01*
X10114524Y-16591476D02*
X10238333Y-16591476D01*
X10171667Y-16667667D01*
X10200238Y-16667667D01*
X10219286Y-16677190D01*
X10228810Y-16686714D01*
X10238333Y-16705762D01*
X10238333Y-16753381D01*
X10228810Y-16772428D01*
X10219286Y-16781952D01*
X10200238Y-16791476D01*
X10143095Y-16791476D01*
X10124048Y-16781952D01*
X10114524Y-16772428D01*
X10333571Y-16791476D02*
X10371667Y-16791476D01*
X10390714Y-16781952D01*
X10400238Y-16772428D01*
X10419286Y-16743857D01*
X10428810Y-16705762D01*
X10428810Y-16629571D01*
X10419286Y-16610524D01*
X10409762Y-16601000D01*
X10390714Y-16591476D01*
X10352619Y-16591476D01*
X10333571Y-16601000D01*
X10324048Y-16610524D01*
X10314524Y-16629571D01*
X10314524Y-16677190D01*
X10324048Y-16696238D01*
X10333571Y-16705762D01*
X10352619Y-16715286D01*
X10390714Y-16715286D01*
X10409762Y-16705762D01*
X10419286Y-16696238D01*
X10428810Y-16677190D01*
X10600238Y-16658143D02*
X10600238Y-16791476D01*
X10552619Y-16581952D02*
X10505000Y-16724809D01*
X10628810Y-16724809D01*
X10695476Y-16591476D02*
X10695476Y-16629571D01*
X10771667Y-16591476D02*
X10771667Y-16629571D01*
X11066905Y-16867667D02*
X11057381Y-16858143D01*
X11038333Y-16829571D01*
X11028810Y-16810524D01*
X11019286Y-16781952D01*
X11009762Y-16734333D01*
X11009762Y-16696238D01*
X11019286Y-16648619D01*
X11028810Y-16620048D01*
X11038333Y-16601000D01*
X11057381Y-16572428D01*
X11066905Y-16562905D01*
X11238333Y-16591476D02*
X11143095Y-16591476D01*
X11133571Y-16686714D01*
X11143095Y-16677190D01*
X11162143Y-16667667D01*
X11209762Y-16667667D01*
X11228809Y-16677190D01*
X11238333Y-16686714D01*
X11247857Y-16705762D01*
X11247857Y-16753381D01*
X11238333Y-16772428D01*
X11228809Y-16781952D01*
X11209762Y-16791476D01*
X11162143Y-16791476D01*
X11143095Y-16781952D01*
X11133571Y-16772428D01*
X11485952Y-16791476D02*
X11485952Y-16591476D01*
X11571667Y-16791476D02*
X11571667Y-16686714D01*
X11562143Y-16667667D01*
X11543095Y-16658143D01*
X11514524Y-16658143D01*
X11495476Y-16667667D01*
X11485952Y-16677190D01*
X11695476Y-16791476D02*
X11676428Y-16781952D01*
X11666905Y-16772428D01*
X11657381Y-16753381D01*
X11657381Y-16696238D01*
X11666905Y-16677190D01*
X11676428Y-16667667D01*
X11695476Y-16658143D01*
X11724048Y-16658143D01*
X11743095Y-16667667D01*
X11752619Y-16677190D01*
X11762143Y-16696238D01*
X11762143Y-16753381D01*
X11752619Y-16772428D01*
X11743095Y-16781952D01*
X11724048Y-16791476D01*
X11695476Y-16791476D01*
X11876428Y-16791476D02*
X11857381Y-16781952D01*
X11847857Y-16762905D01*
X11847857Y-16591476D01*
X12028809Y-16781952D02*
X12009762Y-16791476D01*
X11971667Y-16791476D01*
X11952619Y-16781952D01*
X11943095Y-16762905D01*
X11943095Y-16686714D01*
X11952619Y-16667667D01*
X11971667Y-16658143D01*
X12009762Y-16658143D01*
X12028809Y-16667667D01*
X12038333Y-16686714D01*
X12038333Y-16705762D01*
X11943095Y-16724809D01*
X12114524Y-16781952D02*
X12133571Y-16791476D01*
X12171667Y-16791476D01*
X12190714Y-16781952D01*
X12200238Y-16762905D01*
X12200238Y-16753381D01*
X12190714Y-16734333D01*
X12171667Y-16724809D01*
X12143095Y-16724809D01*
X12124048Y-16715286D01*
X12114524Y-16696238D01*
X12114524Y-16686714D01*
X12124048Y-16667667D01*
X12143095Y-16658143D01*
X12171667Y-16658143D01*
X12190714Y-16667667D01*
X12266905Y-16867667D02*
X12276428Y-16858143D01*
X12295476Y-16829571D01*
X12305000Y-16810524D01*
X12314524Y-16781952D01*
X12324048Y-16734333D01*
X12324048Y-16696238D01*
X12314524Y-16648619D01*
X12305000Y-16620048D01*
X12295476Y-16601000D01*
X12276428Y-16572428D01*
X12266905Y-16562905D01*
M02*
