%TF.GenerationSoftware,KiCad,Pcbnew,6.0.5*%
%TF.CreationDate,2022-06-29T09:43:05+02:00*%
%TF.ProjectId,Flux_BMS,466c7578-5f42-44d5-932e-6b696361645f,rev?*%
%TF.SameCoordinates,Original*%
%TF.FileFunction,Paste,Top*%
%TF.FilePolarity,Positive*%
%FSLAX46Y46*%
G04 Gerber Fmt 4.6, Leading zero omitted, Abs format (unit mm)*
G04 Created by KiCad (PCBNEW 6.0.5) date 2022-06-29 09:43:05*
%MOMM*%
%LPD*%
G01*
G04 APERTURE LIST*
G04 Aperture macros list*
%AMRoundRect*
0 Rectangle with rounded corners*
0 $1 Rounding radius*
0 $2 $3 $4 $5 $6 $7 $8 $9 X,Y pos of 4 corners*
0 Add a 4 corners polygon primitive as box body*
4,1,4,$2,$3,$4,$5,$6,$7,$8,$9,$2,$3,0*
0 Add four circle primitives for the rounded corners*
1,1,$1+$1,$2,$3*
1,1,$1+$1,$4,$5*
1,1,$1+$1,$6,$7*
1,1,$1+$1,$8,$9*
0 Add four rect primitives between the rounded corners*
20,1,$1+$1,$2,$3,$4,$5,0*
20,1,$1+$1,$4,$5,$6,$7,0*
20,1,$1+$1,$6,$7,$8,$9,0*
20,1,$1+$1,$8,$9,$2,$3,0*%
G04 Aperture macros list end*
%ADD10RoundRect,0.250000X-0.450000X0.262500X-0.450000X-0.262500X0.450000X-0.262500X0.450000X0.262500X0*%
%ADD11RoundRect,0.250000X-0.362500X-1.425000X0.362500X-1.425000X0.362500X1.425000X-0.362500X1.425000X0*%
%ADD12RoundRect,0.243750X-0.243750X-0.456250X0.243750X-0.456250X0.243750X0.456250X-0.243750X0.456250X0*%
%ADD13RoundRect,0.250000X-0.250000X-0.475000X0.250000X-0.475000X0.250000X0.475000X-0.250000X0.475000X0*%
%ADD14RoundRect,0.250000X0.450000X-0.262500X0.450000X0.262500X-0.450000X0.262500X-0.450000X-0.262500X0*%
%ADD15RoundRect,0.150000X0.587500X0.150000X-0.587500X0.150000X-0.587500X-0.150000X0.587500X-0.150000X0*%
%ADD16RoundRect,0.250000X0.475000X-0.250000X0.475000X0.250000X-0.475000X0.250000X-0.475000X-0.250000X0*%
%ADD17RoundRect,0.250000X-0.475000X0.250000X-0.475000X-0.250000X0.475000X-0.250000X0.475000X0.250000X0*%
%ADD18R,1.100000X0.600000*%
%ADD19RoundRect,0.075000X-0.875000X-0.075000X0.875000X-0.075000X0.875000X0.075000X-0.875000X0.075000X0*%
%ADD20RoundRect,0.250000X-0.262500X-0.450000X0.262500X-0.450000X0.262500X0.450000X-0.262500X0.450000X0*%
%ADD21RoundRect,0.075000X-0.700000X-0.075000X0.700000X-0.075000X0.700000X0.075000X-0.700000X0.075000X0*%
%ADD22RoundRect,0.075000X-0.075000X-0.700000X0.075000X-0.700000X0.075000X0.700000X-0.075000X0.700000X0*%
G04 APERTURE END LIST*
D10*
%TO.C,R20*%
X118400000Y-53687500D03*
X118400000Y-55512500D03*
%TD*%
D11*
%TO.C,R3*%
X104037500Y-60600000D03*
X109962500Y-60600000D03*
%TD*%
D12*
%TO.C,D2*%
X170825000Y-64100000D03*
X172700000Y-64100000D03*
%TD*%
D13*
%TO.C,C15*%
X139600000Y-77900000D03*
X141500000Y-77900000D03*
%TD*%
D14*
%TO.C,R35*%
X117000000Y-80712500D03*
X117000000Y-78887500D03*
%TD*%
D10*
%TO.C,R2*%
X118400000Y-59887500D03*
X118400000Y-61712500D03*
%TD*%
%TO.C,R32*%
X99200000Y-53487500D03*
X99200000Y-55312500D03*
%TD*%
%TO.C,R14*%
X118600000Y-72687500D03*
X118600000Y-74512500D03*
%TD*%
D11*
%TO.C,R33*%
X84637500Y-54400000D03*
X90562500Y-54400000D03*
%TD*%
D15*
%TO.C,Q7*%
X114337500Y-55550000D03*
X114337500Y-53650000D03*
X112462500Y-54600000D03*
%TD*%
D16*
%TO.C,C4*%
X134000000Y-58750000D03*
X134000000Y-56850000D03*
%TD*%
D15*
%TO.C,Q12*%
X114937500Y-80750000D03*
X114937500Y-78850000D03*
X113062500Y-79800000D03*
%TD*%
%TO.C,Q5*%
X114737500Y-74550000D03*
X114737500Y-72650000D03*
X112862500Y-73600000D03*
%TD*%
D11*
%TO.C,R9*%
X104037500Y-67400000D03*
X109962500Y-67400000D03*
%TD*%
D13*
%TO.C,C20*%
X143350000Y-83900000D03*
X145250000Y-83900000D03*
%TD*%
%TO.C,C13*%
X140000000Y-71500000D03*
X141900000Y-71500000D03*
%TD*%
D11*
%TO.C,R27*%
X104237500Y-85400000D03*
X110162500Y-85400000D03*
%TD*%
D10*
%TO.C,R8*%
X118600000Y-66375000D03*
X118600000Y-68200000D03*
%TD*%
D12*
%TO.C,D1*%
X170825000Y-67700000D03*
X172700000Y-67700000D03*
%TD*%
D10*
%TO.C,R5*%
X99200000Y-59687500D03*
X99200000Y-61512500D03*
%TD*%
D11*
%TO.C,R15*%
X104037500Y-73600000D03*
X109962500Y-73600000D03*
%TD*%
%TO.C,R30*%
X84637500Y-85400000D03*
X90562500Y-85400000D03*
%TD*%
%TO.C,R18*%
X84837500Y-73200000D03*
X90762500Y-73200000D03*
%TD*%
D15*
%TO.C,Q11*%
X95400000Y-55400000D03*
X95400000Y-53500000D03*
X93525000Y-54450000D03*
%TD*%
D17*
%TO.C,C9*%
X123800000Y-80850000D03*
X123800000Y-82750000D03*
%TD*%
%TO.C,C8*%
X125800000Y-80850000D03*
X125800000Y-82750000D03*
%TD*%
D14*
%TO.C,R19*%
X116400000Y-55512500D03*
X116400000Y-53687500D03*
%TD*%
D17*
%TO.C,C5*%
X131800000Y-80850000D03*
X131800000Y-82750000D03*
%TD*%
D10*
%TO.C,R16*%
X99400000Y-72087500D03*
X99400000Y-73912500D03*
%TD*%
D16*
%TO.C,C7*%
X124000000Y-58750000D03*
X124000000Y-56850000D03*
%TD*%
D15*
%TO.C,Q4*%
X95337500Y-67750000D03*
X95337500Y-65850000D03*
X93462500Y-66800000D03*
%TD*%
%TO.C,Q3*%
X114337500Y-68150000D03*
X114337500Y-66250000D03*
X112462500Y-67200000D03*
%TD*%
D14*
%TO.C,R17*%
X97400000Y-73912500D03*
X97400000Y-72087500D03*
%TD*%
D10*
%TO.C,R13*%
X116600000Y-72687500D03*
X116600000Y-74512500D03*
%TD*%
D15*
%TO.C,Q6*%
X95337500Y-73950000D03*
X95337500Y-72050000D03*
X93462500Y-73000000D03*
%TD*%
D18*
%TO.C,X1*%
X143300000Y-75200000D03*
X143300000Y-73800000D03*
%TD*%
D10*
%TO.C,R10*%
X97400000Y-65887500D03*
X97400000Y-67712500D03*
%TD*%
D17*
%TO.C,C12*%
X127800000Y-80850000D03*
X127800000Y-82750000D03*
%TD*%
D13*
%TO.C,C16*%
X149150000Y-84900000D03*
X151050000Y-84900000D03*
%TD*%
D15*
%TO.C,Q10*%
X95137500Y-86350000D03*
X95137500Y-84450000D03*
X93262500Y-85400000D03*
%TD*%
D10*
%TO.C,R11*%
X99400000Y-65800000D03*
X99400000Y-67625000D03*
%TD*%
D11*
%TO.C,R21*%
X104037500Y-54600000D03*
X109962500Y-54600000D03*
%TD*%
D10*
%TO.C,R34*%
X119000000Y-78887500D03*
X119000000Y-80712500D03*
%TD*%
D11*
%TO.C,R24*%
X84637500Y-79400000D03*
X90562500Y-79400000D03*
%TD*%
%TO.C,R36*%
X104237500Y-79800000D03*
X110162500Y-79800000D03*
%TD*%
D19*
%TO.C,U1*%
X125500000Y-66050000D03*
X125500000Y-66550000D03*
X125500000Y-67050000D03*
X125500000Y-67550000D03*
X125500000Y-68050000D03*
X125500000Y-68550000D03*
X125500000Y-69050000D03*
X125500000Y-69550000D03*
X125500000Y-70050000D03*
X125500000Y-70550000D03*
X125500000Y-71050000D03*
X125500000Y-71550000D03*
X125500000Y-72050000D03*
X125500000Y-72550000D03*
X125500000Y-73050000D03*
X125500000Y-73550000D03*
X125500000Y-74050000D03*
X125500000Y-74550000D03*
X125500000Y-75050000D03*
X125500000Y-75550000D03*
X125500000Y-76050000D03*
X125500000Y-76550000D03*
X125500000Y-77050000D03*
X125500000Y-77550000D03*
X132500000Y-77550000D03*
X132500000Y-77050000D03*
X132500000Y-76550000D03*
X132500000Y-76050000D03*
X132500000Y-75550000D03*
X132500000Y-75050000D03*
X132500000Y-74550000D03*
X132500000Y-74050000D03*
X132500000Y-73550000D03*
X132500000Y-73050000D03*
X132500000Y-72550000D03*
X132500000Y-72050000D03*
X132500000Y-71550000D03*
X132500000Y-71050000D03*
X132500000Y-70550000D03*
X132500000Y-70050000D03*
X132500000Y-69550000D03*
X132500000Y-69050000D03*
X132500000Y-68550000D03*
X132500000Y-68050000D03*
X132500000Y-67550000D03*
X132500000Y-67050000D03*
X132500000Y-66550000D03*
X132500000Y-66050000D03*
%TD*%
D13*
%TO.C,C21*%
X154550000Y-85100000D03*
X156450000Y-85100000D03*
%TD*%
D20*
%TO.C,R38*%
X166675000Y-64100000D03*
X168500000Y-64100000D03*
%TD*%
D14*
%TO.C,R25*%
X117000000Y-86312500D03*
X117000000Y-84487500D03*
%TD*%
D16*
%TO.C,C10*%
X133800000Y-82750000D03*
X133800000Y-80850000D03*
%TD*%
D21*
%TO.C,U2*%
X145925000Y-72250000D03*
X145925000Y-72750000D03*
X145925000Y-73250000D03*
X145925000Y-73750000D03*
X145925000Y-74250000D03*
X145925000Y-74750000D03*
X145925000Y-75250000D03*
X145925000Y-75750000D03*
X145925000Y-76250000D03*
X145925000Y-76750000D03*
X145925000Y-77250000D03*
X145925000Y-77750000D03*
X145925000Y-78250000D03*
X145925000Y-78750000D03*
X145925000Y-79250000D03*
X145925000Y-79750000D03*
D22*
X147850000Y-81675000D03*
X148350000Y-81675000D03*
X148850000Y-81675000D03*
X149350000Y-81675000D03*
X149850000Y-81675000D03*
X150350000Y-81675000D03*
X150850000Y-81675000D03*
X151350000Y-81675000D03*
X151850000Y-81675000D03*
X152350000Y-81675000D03*
X152850000Y-81675000D03*
X153350000Y-81675000D03*
X153850000Y-81675000D03*
X154350000Y-81675000D03*
X154850000Y-81675000D03*
X155350000Y-81675000D03*
D21*
X157275000Y-79750000D03*
X157275000Y-79250000D03*
X157275000Y-78750000D03*
X157275000Y-78250000D03*
X157275000Y-77750000D03*
X157275000Y-77250000D03*
X157275000Y-76750000D03*
X157275000Y-76250000D03*
X157275000Y-75750000D03*
X157275000Y-75250000D03*
X157275000Y-74750000D03*
X157275000Y-74250000D03*
X157275000Y-73750000D03*
X157275000Y-73250000D03*
X157275000Y-72750000D03*
X157275000Y-72250000D03*
D22*
X155350000Y-70325000D03*
X154850000Y-70325000D03*
X154350000Y-70325000D03*
X153850000Y-70325000D03*
X153350000Y-70325000D03*
X152850000Y-70325000D03*
X152350000Y-70325000D03*
X151850000Y-70325000D03*
X151350000Y-70325000D03*
X150850000Y-70325000D03*
X150350000Y-70325000D03*
X149850000Y-70325000D03*
X149350000Y-70325000D03*
X148850000Y-70325000D03*
X148350000Y-70325000D03*
X147850000Y-70325000D03*
%TD*%
D13*
%TO.C,C17*%
X162150000Y-76100000D03*
X164050000Y-76100000D03*
%TD*%
D10*
%TO.C,R23*%
X99000000Y-78487500D03*
X99000000Y-80312500D03*
%TD*%
D14*
%TO.C,R28*%
X97000000Y-86312500D03*
X97000000Y-84487500D03*
%TD*%
%TO.C,R22*%
X97000000Y-80312500D03*
X97000000Y-78487500D03*
%TD*%
D13*
%TO.C,C14*%
X160800000Y-81700000D03*
X162700000Y-81700000D03*
%TD*%
D14*
%TO.C,R4*%
X97200000Y-61512500D03*
X97200000Y-59687500D03*
%TD*%
D15*
%TO.C,Q9*%
X115137500Y-86350000D03*
X115137500Y-84450000D03*
X113262500Y-85400000D03*
%TD*%
D20*
%TO.C,R37*%
X166987500Y-67700000D03*
X168812500Y-67700000D03*
%TD*%
D14*
%TO.C,R1*%
X116400000Y-61712500D03*
X116400000Y-59887500D03*
%TD*%
D16*
%TO.C,C3*%
X132000000Y-58750000D03*
X132000000Y-56850000D03*
%TD*%
D15*
%TO.C,Q2*%
X95200000Y-61600000D03*
X95200000Y-59700000D03*
X93325000Y-60650000D03*
%TD*%
%TO.C,Q8*%
X95137500Y-80350000D03*
X95137500Y-78450000D03*
X93262500Y-79400000D03*
%TD*%
D11*
%TO.C,R12*%
X84837500Y-66800000D03*
X90762500Y-66800000D03*
%TD*%
D16*
%TO.C,C1*%
X128000000Y-58750000D03*
X128000000Y-56850000D03*
%TD*%
D17*
%TO.C,C6*%
X129800000Y-80850000D03*
X129800000Y-82750000D03*
%TD*%
D14*
%TO.C,R7*%
X116600000Y-68112500D03*
X116600000Y-66287500D03*
%TD*%
D10*
%TO.C,R26*%
X119000000Y-84487500D03*
X119000000Y-86312500D03*
%TD*%
D14*
%TO.C,R31*%
X97200000Y-55312500D03*
X97200000Y-53487500D03*
%TD*%
D15*
%TO.C,Q1*%
X114337500Y-61750000D03*
X114337500Y-59850000D03*
X112462500Y-60800000D03*
%TD*%
D13*
%TO.C,C18*%
X161400000Y-71300000D03*
X163300000Y-71300000D03*
%TD*%
D16*
%TO.C,C2*%
X130000000Y-58750000D03*
X130000000Y-56850000D03*
%TD*%
D10*
%TO.C,R29*%
X99000000Y-84487500D03*
X99000000Y-86312500D03*
%TD*%
D13*
%TO.C,C19*%
X154350000Y-66700000D03*
X156250000Y-66700000D03*
%TD*%
D11*
%TO.C,R6*%
X84637500Y-60400000D03*
X90562500Y-60400000D03*
%TD*%
D16*
%TO.C,C11*%
X126000000Y-58750000D03*
X126000000Y-56850000D03*
%TD*%
M02*
