M48
; DRILL file {KiCad (6.0.7-1)-1} date 2022 September 12, Monday 11:44:53
; FORMAT={-:-/ absolute / metric / decimal}
; #@! TF.CreationDate,2022-09-12T11:44:53+02:00
; #@! TF.GenerationSoftware,Kicad,Pcbnew,(6.0.7-1)-1
; #@! TF.FileFunction,Plated,1,4,PTH
FMAT,2
METRIC
; #@! TA.AperFunction,Plated,PTH,ComponentDrill
T1C0.300
; #@! TA.AperFunction,Plated,PTH,ComponentDrill
T2C0.600
; #@! TA.AperFunction,Plated,PTH,ComponentDrill
T3C0.750
; #@! TA.AperFunction,Plated,PTH,ComponentDrill
T4C0.950
; #@! TA.AperFunction,Plated,PTH,ComponentDrill
T5C1.000
%
G90
G05
T1
X125.6Y-50.975
X125.6Y-51.975
X125.6Y-52.975
X125.6Y-53.975
X126.6Y-50.975
X126.6Y-51.975
X126.6Y-52.975
X126.6Y-53.975
X127.6Y-50.975
X127.6Y-51.975
X127.6Y-52.975
X127.6Y-53.975
X128.6Y-50.975
X128.6Y-51.975
X128.6Y-52.975
X128.6Y-53.975
X132.6Y-50.96
X132.6Y-51.96
X132.6Y-52.96
X132.6Y-53.96
X133.6Y-50.96
X133.6Y-51.96
X133.6Y-52.96
X133.6Y-53.96
X134.6Y-50.96
X134.6Y-51.96
X134.6Y-52.96
X134.6Y-53.96
X135.6Y-50.96
X135.6Y-51.96
X135.6Y-52.96
X135.6Y-53.96
X142.2Y-51.2
X142.2Y-52.2
X142.2Y-53.2
X142.2Y-54.2
X143.2Y-51.2
X143.2Y-52.2
X143.2Y-53.2
X143.2Y-54.2
X144.2Y-51.2
X144.2Y-52.2
X144.2Y-53.2
X144.2Y-54.2
X145.2Y-51.2
X145.2Y-52.2
X145.2Y-53.2
X145.2Y-54.2
X149.2Y-51.1
X149.2Y-52.1
X149.2Y-53.1
X149.2Y-54.1
X150.2Y-51.1
X150.2Y-52.1
X150.2Y-53.1
X150.2Y-54.1
X151.2Y-51.1
X151.2Y-52.1
X151.2Y-53.1
X151.2Y-54.1
X152.2Y-51.1
X152.2Y-52.1
X152.2Y-53.1
X152.2Y-54.1
T3
X163.3Y-144.35
X165.3Y-144.35
X171.7Y-114.0
X171.7Y-116.0
X171.7Y-118.0
X171.7Y-120.0
X171.7Y-122.0
T4
X78.875Y-111.5
X78.875Y-114.0
X78.875Y-116.5
X78.875Y-119.0
X78.875Y-121.5
X78.875Y-124.0
X78.875Y-126.5
X78.875Y-129.0
X78.975Y-70.9
X78.975Y-73.4
X78.975Y-75.9
X78.975Y-78.4
X78.975Y-80.9
X78.975Y-83.4
X78.975Y-85.9
X78.975Y-88.4
T5
X162.7Y-101.4
X165.24Y-101.4
X167.78Y-101.4
X170.32Y-101.4
X172.86Y-101.4
T2
X139.98Y-142.52G85X139.98Y-143.62
G05
X139.98Y-146.95G85X139.98Y-147.55
G05
X148.62Y-142.52G85X148.62Y-143.62
G05
X148.62Y-146.95G85X148.62Y-147.55
G05
T0
M30
