%TF.GenerationSoftware,KiCad,Pcbnew,(6.0.7-1)-1*%
%TF.CreationDate,2022-09-12T11:44:54+02:00*%
%TF.ProjectId,Flux_BMS,466c7578-5f42-44d5-932e-6b696361645f,rev?*%
%TF.SameCoordinates,Original*%
%TF.FileFunction,Drillmap*%
%TF.FilePolarity,Positive*%
%FSLAX45Y45*%
G04 Gerber Fmt 4.5, Leading zero omitted, Abs format (unit mm)*
G04 Created by KiCad (PCBNEW (6.0.7-1)-1) date 2022-09-12 11:44:54*
%MOMM*%
%LPD*%
G01*
G04 APERTURE LIST*
%ADD10C,0.100000*%
%ADD11C,0.200000*%
%ADD12C,0.065000*%
G04 APERTURE END LIST*
D10*
X7500000Y-5000000D02*
X17500000Y-5000000D01*
X17500000Y-5000000D02*
X17500000Y-15000000D01*
X17500000Y-15000000D02*
X7500000Y-15000000D01*
X7500000Y-15000000D02*
X7500000Y-5000000D01*
D11*
D12*
X14108500Y-14327500D02*
X14173500Y-14392500D01*
X14173500Y-14327500D02*
X14108500Y-14392500D01*
X14686500Y-14327500D02*
X14751500Y-14392500D01*
X14751500Y-14327500D02*
X14686500Y-14392500D01*
D11*
X7752619Y-15315476D02*
X7752619Y-15115476D01*
X7800238Y-15115476D01*
X7828809Y-15125000D01*
X7847857Y-15144048D01*
X7857381Y-15163095D01*
X7866905Y-15201190D01*
X7866905Y-15229762D01*
X7857381Y-15267857D01*
X7847857Y-15286905D01*
X7828809Y-15305952D01*
X7800238Y-15315476D01*
X7752619Y-15315476D01*
X7952619Y-15315476D02*
X7952619Y-15182143D01*
X7952619Y-15220238D02*
X7962143Y-15201190D01*
X7971667Y-15191667D01*
X7990714Y-15182143D01*
X8009762Y-15182143D01*
X8076428Y-15315476D02*
X8076428Y-15182143D01*
X8076428Y-15115476D02*
X8066905Y-15125000D01*
X8076428Y-15134524D01*
X8085952Y-15125000D01*
X8076428Y-15115476D01*
X8076428Y-15134524D01*
X8200238Y-15315476D02*
X8181190Y-15305952D01*
X8171667Y-15286905D01*
X8171667Y-15115476D01*
X8305000Y-15315476D02*
X8285952Y-15305952D01*
X8276428Y-15286905D01*
X8276428Y-15115476D01*
X8533571Y-15315476D02*
X8533571Y-15115476D01*
X8600238Y-15258333D01*
X8666905Y-15115476D01*
X8666905Y-15315476D01*
X8847857Y-15315476D02*
X8847857Y-15210714D01*
X8838333Y-15191667D01*
X8819286Y-15182143D01*
X8781190Y-15182143D01*
X8762143Y-15191667D01*
X8847857Y-15305952D02*
X8828810Y-15315476D01*
X8781190Y-15315476D01*
X8762143Y-15305952D01*
X8752619Y-15286905D01*
X8752619Y-15267857D01*
X8762143Y-15248809D01*
X8781190Y-15239286D01*
X8828810Y-15239286D01*
X8847857Y-15229762D01*
X8943095Y-15182143D02*
X8943095Y-15382143D01*
X8943095Y-15191667D02*
X8962143Y-15182143D01*
X9000238Y-15182143D01*
X9019286Y-15191667D01*
X9028810Y-15201190D01*
X9038333Y-15220238D01*
X9038333Y-15277381D01*
X9028810Y-15296428D01*
X9019286Y-15305952D01*
X9000238Y-15315476D01*
X8962143Y-15315476D01*
X8943095Y-15305952D01*
X9124048Y-15296428D02*
X9133571Y-15305952D01*
X9124048Y-15315476D01*
X9114524Y-15305952D01*
X9124048Y-15296428D01*
X9124048Y-15315476D01*
X9124048Y-15191667D02*
X9133571Y-15201190D01*
X9124048Y-15210714D01*
X9114524Y-15201190D01*
X9124048Y-15191667D01*
X9124048Y-15210714D01*
D12*
X7430000Y-15612500D02*
X7495000Y-15677500D01*
X7495000Y-15612500D02*
X7430000Y-15677500D01*
D11*
X7790714Y-15535476D02*
X7809762Y-15535476D01*
X7828809Y-15545000D01*
X7838333Y-15554524D01*
X7847857Y-15573571D01*
X7857381Y-15611667D01*
X7857381Y-15659286D01*
X7847857Y-15697381D01*
X7838333Y-15716428D01*
X7828809Y-15725952D01*
X7809762Y-15735476D01*
X7790714Y-15735476D01*
X7771667Y-15725952D01*
X7762143Y-15716428D01*
X7752619Y-15697381D01*
X7743095Y-15659286D01*
X7743095Y-15611667D01*
X7752619Y-15573571D01*
X7762143Y-15554524D01*
X7771667Y-15545000D01*
X7790714Y-15535476D01*
X7943095Y-15716428D02*
X7952619Y-15725952D01*
X7943095Y-15735476D01*
X7933571Y-15725952D01*
X7943095Y-15716428D01*
X7943095Y-15735476D01*
X8124048Y-15535476D02*
X8085952Y-15535476D01*
X8066905Y-15545000D01*
X8057381Y-15554524D01*
X8038333Y-15583095D01*
X8028809Y-15621190D01*
X8028809Y-15697381D01*
X8038333Y-15716428D01*
X8047857Y-15725952D01*
X8066905Y-15735476D01*
X8105000Y-15735476D01*
X8124048Y-15725952D01*
X8133571Y-15716428D01*
X8143095Y-15697381D01*
X8143095Y-15649762D01*
X8133571Y-15630714D01*
X8124048Y-15621190D01*
X8105000Y-15611667D01*
X8066905Y-15611667D01*
X8047857Y-15621190D01*
X8038333Y-15630714D01*
X8028809Y-15649762D01*
X8324048Y-15535476D02*
X8228809Y-15535476D01*
X8219286Y-15630714D01*
X8228809Y-15621190D01*
X8247857Y-15611667D01*
X8295476Y-15611667D01*
X8314524Y-15621190D01*
X8324048Y-15630714D01*
X8333571Y-15649762D01*
X8333571Y-15697381D01*
X8324048Y-15716428D01*
X8314524Y-15725952D01*
X8295476Y-15735476D01*
X8247857Y-15735476D01*
X8228809Y-15725952D01*
X8219286Y-15716428D01*
X8457381Y-15535476D02*
X8476429Y-15535476D01*
X8495476Y-15545000D01*
X8505000Y-15554524D01*
X8514524Y-15573571D01*
X8524048Y-15611667D01*
X8524048Y-15659286D01*
X8514524Y-15697381D01*
X8505000Y-15716428D01*
X8495476Y-15725952D01*
X8476429Y-15735476D01*
X8457381Y-15735476D01*
X8438333Y-15725952D01*
X8428810Y-15716428D01*
X8419286Y-15697381D01*
X8409762Y-15659286D01*
X8409762Y-15611667D01*
X8419286Y-15573571D01*
X8428810Y-15554524D01*
X8438333Y-15545000D01*
X8457381Y-15535476D01*
X8609762Y-15735476D02*
X8609762Y-15602143D01*
X8609762Y-15621190D02*
X8619286Y-15611667D01*
X8638333Y-15602143D01*
X8666905Y-15602143D01*
X8685952Y-15611667D01*
X8695476Y-15630714D01*
X8695476Y-15735476D01*
X8695476Y-15630714D02*
X8705000Y-15611667D01*
X8724048Y-15602143D01*
X8752619Y-15602143D01*
X8771667Y-15611667D01*
X8781190Y-15630714D01*
X8781190Y-15735476D01*
X8876429Y-15735476D02*
X8876429Y-15602143D01*
X8876429Y-15621190D02*
X8885952Y-15611667D01*
X8905000Y-15602143D01*
X8933571Y-15602143D01*
X8952619Y-15611667D01*
X8962143Y-15630714D01*
X8962143Y-15735476D01*
X8962143Y-15630714D02*
X8971667Y-15611667D01*
X8990714Y-15602143D01*
X9019286Y-15602143D01*
X9038333Y-15611667D01*
X9047857Y-15630714D01*
X9047857Y-15735476D01*
X9438333Y-15525952D02*
X9266905Y-15783095D01*
X9695476Y-15535476D02*
X9714524Y-15535476D01*
X9733571Y-15545000D01*
X9743095Y-15554524D01*
X9752619Y-15573571D01*
X9762143Y-15611667D01*
X9762143Y-15659286D01*
X9752619Y-15697381D01*
X9743095Y-15716428D01*
X9733571Y-15725952D01*
X9714524Y-15735476D01*
X9695476Y-15735476D01*
X9676429Y-15725952D01*
X9666905Y-15716428D01*
X9657381Y-15697381D01*
X9647857Y-15659286D01*
X9647857Y-15611667D01*
X9657381Y-15573571D01*
X9666905Y-15554524D01*
X9676429Y-15545000D01*
X9695476Y-15535476D01*
X9847857Y-15716428D02*
X9857381Y-15725952D01*
X9847857Y-15735476D01*
X9838333Y-15725952D01*
X9847857Y-15716428D01*
X9847857Y-15735476D01*
X9981190Y-15535476D02*
X10000238Y-15535476D01*
X10019286Y-15545000D01*
X10028810Y-15554524D01*
X10038333Y-15573571D01*
X10047857Y-15611667D01*
X10047857Y-15659286D01*
X10038333Y-15697381D01*
X10028810Y-15716428D01*
X10019286Y-15725952D01*
X10000238Y-15735476D01*
X9981190Y-15735476D01*
X9962143Y-15725952D01*
X9952619Y-15716428D01*
X9943095Y-15697381D01*
X9933571Y-15659286D01*
X9933571Y-15611667D01*
X9943095Y-15573571D01*
X9952619Y-15554524D01*
X9962143Y-15545000D01*
X9981190Y-15535476D01*
X10124048Y-15554524D02*
X10133571Y-15545000D01*
X10152619Y-15535476D01*
X10200238Y-15535476D01*
X10219286Y-15545000D01*
X10228810Y-15554524D01*
X10238333Y-15573571D01*
X10238333Y-15592619D01*
X10228810Y-15621190D01*
X10114524Y-15735476D01*
X10238333Y-15735476D01*
X10419286Y-15535476D02*
X10324048Y-15535476D01*
X10314524Y-15630714D01*
X10324048Y-15621190D01*
X10343095Y-15611667D01*
X10390714Y-15611667D01*
X10409762Y-15621190D01*
X10419286Y-15630714D01*
X10428810Y-15649762D01*
X10428810Y-15697381D01*
X10419286Y-15716428D01*
X10409762Y-15725952D01*
X10390714Y-15735476D01*
X10343095Y-15735476D01*
X10324048Y-15725952D01*
X10314524Y-15716428D01*
X10600238Y-15535476D02*
X10562143Y-15535476D01*
X10543095Y-15545000D01*
X10533571Y-15554524D01*
X10514524Y-15583095D01*
X10505000Y-15621190D01*
X10505000Y-15697381D01*
X10514524Y-15716428D01*
X10524048Y-15725952D01*
X10543095Y-15735476D01*
X10581190Y-15735476D01*
X10600238Y-15725952D01*
X10609762Y-15716428D01*
X10619286Y-15697381D01*
X10619286Y-15649762D01*
X10609762Y-15630714D01*
X10600238Y-15621190D01*
X10581190Y-15611667D01*
X10543095Y-15611667D01*
X10524048Y-15621190D01*
X10514524Y-15630714D01*
X10505000Y-15649762D01*
X10695476Y-15535476D02*
X10695476Y-15573571D01*
X10771667Y-15535476D02*
X10771667Y-15573571D01*
X11066905Y-15811667D02*
X11057381Y-15802143D01*
X11038333Y-15773571D01*
X11028810Y-15754524D01*
X11019286Y-15725952D01*
X11009762Y-15678333D01*
X11009762Y-15640238D01*
X11019286Y-15592619D01*
X11028810Y-15564048D01*
X11038333Y-15545000D01*
X11057381Y-15516428D01*
X11066905Y-15506905D01*
X11133571Y-15554524D02*
X11143095Y-15545000D01*
X11162143Y-15535476D01*
X11209762Y-15535476D01*
X11228809Y-15545000D01*
X11238333Y-15554524D01*
X11247857Y-15573571D01*
X11247857Y-15592619D01*
X11238333Y-15621190D01*
X11124048Y-15735476D01*
X11247857Y-15735476D01*
X11485952Y-15735476D02*
X11485952Y-15535476D01*
X11571667Y-15735476D02*
X11571667Y-15630714D01*
X11562143Y-15611667D01*
X11543095Y-15602143D01*
X11514524Y-15602143D01*
X11495476Y-15611667D01*
X11485952Y-15621190D01*
X11695476Y-15735476D02*
X11676428Y-15725952D01*
X11666905Y-15716428D01*
X11657381Y-15697381D01*
X11657381Y-15640238D01*
X11666905Y-15621190D01*
X11676428Y-15611667D01*
X11695476Y-15602143D01*
X11724048Y-15602143D01*
X11743095Y-15611667D01*
X11752619Y-15621190D01*
X11762143Y-15640238D01*
X11762143Y-15697381D01*
X11752619Y-15716428D01*
X11743095Y-15725952D01*
X11724048Y-15735476D01*
X11695476Y-15735476D01*
X11876428Y-15735476D02*
X11857381Y-15725952D01*
X11847857Y-15706905D01*
X11847857Y-15535476D01*
X12028809Y-15725952D02*
X12009762Y-15735476D01*
X11971667Y-15735476D01*
X11952619Y-15725952D01*
X11943095Y-15706905D01*
X11943095Y-15630714D01*
X11952619Y-15611667D01*
X11971667Y-15602143D01*
X12009762Y-15602143D01*
X12028809Y-15611667D01*
X12038333Y-15630714D01*
X12038333Y-15649762D01*
X11943095Y-15668809D01*
X12114524Y-15725952D02*
X12133571Y-15735476D01*
X12171667Y-15735476D01*
X12190714Y-15725952D01*
X12200238Y-15706905D01*
X12200238Y-15697381D01*
X12190714Y-15678333D01*
X12171667Y-15668809D01*
X12143095Y-15668809D01*
X12124048Y-15659286D01*
X12114524Y-15640238D01*
X12114524Y-15630714D01*
X12124048Y-15611667D01*
X12143095Y-15602143D01*
X12171667Y-15602143D01*
X12190714Y-15611667D01*
X12266905Y-15811667D02*
X12276428Y-15802143D01*
X12295476Y-15773571D01*
X12305000Y-15754524D01*
X12314524Y-15725952D01*
X12324048Y-15678333D01*
X12324048Y-15640238D01*
X12314524Y-15592619D01*
X12305000Y-15564048D01*
X12295476Y-15545000D01*
X12276428Y-15516428D01*
X12266905Y-15506905D01*
X12628809Y-15811667D02*
X12619286Y-15802143D01*
X12600238Y-15773571D01*
X12590714Y-15754524D01*
X12581190Y-15725952D01*
X12571667Y-15678333D01*
X12571667Y-15640238D01*
X12581190Y-15592619D01*
X12590714Y-15564048D01*
X12600238Y-15545000D01*
X12619286Y-15516428D01*
X12628809Y-15506905D01*
X12705000Y-15602143D02*
X12705000Y-15735476D01*
X12705000Y-15621190D02*
X12714524Y-15611667D01*
X12733571Y-15602143D01*
X12762143Y-15602143D01*
X12781190Y-15611667D01*
X12790714Y-15630714D01*
X12790714Y-15735476D01*
X12914524Y-15735476D02*
X12895476Y-15725952D01*
X12885952Y-15716428D01*
X12876428Y-15697381D01*
X12876428Y-15640238D01*
X12885952Y-15621190D01*
X12895476Y-15611667D01*
X12914524Y-15602143D01*
X12943095Y-15602143D01*
X12962143Y-15611667D01*
X12971667Y-15621190D01*
X12981190Y-15640238D01*
X12981190Y-15697381D01*
X12971667Y-15716428D01*
X12962143Y-15725952D01*
X12943095Y-15735476D01*
X12914524Y-15735476D01*
X13038333Y-15602143D02*
X13114524Y-15602143D01*
X13066905Y-15535476D02*
X13066905Y-15706905D01*
X13076428Y-15725952D01*
X13095476Y-15735476D01*
X13114524Y-15735476D01*
X13333571Y-15602143D02*
X13333571Y-15802143D01*
X13333571Y-15611667D02*
X13352619Y-15602143D01*
X13390714Y-15602143D01*
X13409762Y-15611667D01*
X13419286Y-15621190D01*
X13428809Y-15640238D01*
X13428809Y-15697381D01*
X13419286Y-15716428D01*
X13409762Y-15725952D01*
X13390714Y-15735476D01*
X13352619Y-15735476D01*
X13333571Y-15725952D01*
X13543095Y-15735476D02*
X13524048Y-15725952D01*
X13514524Y-15706905D01*
X13514524Y-15535476D01*
X13705000Y-15735476D02*
X13705000Y-15630714D01*
X13695476Y-15611667D01*
X13676428Y-15602143D01*
X13638333Y-15602143D01*
X13619286Y-15611667D01*
X13705000Y-15725952D02*
X13685952Y-15735476D01*
X13638333Y-15735476D01*
X13619286Y-15725952D01*
X13609762Y-15706905D01*
X13609762Y-15687857D01*
X13619286Y-15668809D01*
X13638333Y-15659286D01*
X13685952Y-15659286D01*
X13705000Y-15649762D01*
X13771667Y-15602143D02*
X13847857Y-15602143D01*
X13800238Y-15535476D02*
X13800238Y-15706905D01*
X13809762Y-15725952D01*
X13828809Y-15735476D01*
X13847857Y-15735476D01*
X13990714Y-15725952D02*
X13971667Y-15735476D01*
X13933571Y-15735476D01*
X13914524Y-15725952D01*
X13905000Y-15706905D01*
X13905000Y-15630714D01*
X13914524Y-15611667D01*
X13933571Y-15602143D01*
X13971667Y-15602143D01*
X13990714Y-15611667D01*
X14000238Y-15630714D01*
X14000238Y-15649762D01*
X13905000Y-15668809D01*
X14171667Y-15735476D02*
X14171667Y-15535476D01*
X14171667Y-15725952D02*
X14152619Y-15735476D01*
X14114524Y-15735476D01*
X14095476Y-15725952D01*
X14085952Y-15716428D01*
X14076428Y-15697381D01*
X14076428Y-15640238D01*
X14085952Y-15621190D01*
X14095476Y-15611667D01*
X14114524Y-15602143D01*
X14152619Y-15602143D01*
X14171667Y-15611667D01*
X14247857Y-15811667D02*
X14257381Y-15802143D01*
X14276428Y-15773571D01*
X14285952Y-15754524D01*
X14295476Y-15725952D01*
X14305000Y-15678333D01*
X14305000Y-15640238D01*
X14295476Y-15592619D01*
X14285952Y-15564048D01*
X14276428Y-15545000D01*
X14257381Y-15516428D01*
X14247857Y-15506905D01*
M02*
