%TF.GenerationSoftware,KiCad,Pcbnew,(7.0.0-0)*%
%TF.CreationDate,2023-03-08T11:07:40+01:00*%
%TF.ProjectId,Flux_BMS,466c7578-5f42-44d5-932e-6b696361645f,rev?*%
%TF.SameCoordinates,Original*%
%TF.FileFunction,Drillmap*%
%TF.FilePolarity,Positive*%
%FSLAX45Y45*%
G04 Gerber Fmt 4.5, Leading zero omitted, Abs format (unit mm)*
G04 Created by KiCad (PCBNEW (7.0.0-0)) date 2023-03-08 11:07:40*
%MOMM*%
%LPD*%
G01*
G04 APERTURE LIST*
%ADD10C,0.100000*%
%ADD11C,0.200000*%
%ADD12C,0.065000*%
%ADD13C,0.320000*%
G04 APERTURE END LIST*
D10*
X7600000Y-7355000D02*
X15900000Y-7355000D01*
X15900000Y-7355000D02*
X15900000Y-13855000D01*
X15900000Y-13855000D02*
X7600000Y-13855000D01*
X7600000Y-13855000D02*
X7600000Y-7355000D01*
D11*
D12*
X12033500Y-13157500D02*
X12098500Y-13222500D01*
X12098500Y-13157500D02*
X12033500Y-13222500D01*
X12611500Y-13157500D02*
X12676500Y-13222500D01*
X12676500Y-13157500D02*
X12611500Y-13222500D01*
D13*
X8095000Y-7705000D02*
G75*
G03*
X8095000Y-7705000I-160000J0D01*
G01*
X8095000Y-13515000D02*
G75*
G03*
X8095000Y-13515000I-160000J0D01*
G01*
X15720000Y-7705000D02*
G75*
G03*
X15720000Y-7705000I-160000J0D01*
G01*
X15720000Y-13505000D02*
G75*
G03*
X15720000Y-13505000I-160000J0D01*
G01*
D11*
X7842619Y-14153476D02*
X7842619Y-13953476D01*
X7842619Y-13953476D02*
X7890238Y-13953476D01*
X7890238Y-13953476D02*
X7918809Y-13963000D01*
X7918809Y-13963000D02*
X7937857Y-13982048D01*
X7937857Y-13982048D02*
X7947381Y-14001095D01*
X7947381Y-14001095D02*
X7956905Y-14039190D01*
X7956905Y-14039190D02*
X7956905Y-14067762D01*
X7956905Y-14067762D02*
X7947381Y-14105857D01*
X7947381Y-14105857D02*
X7937857Y-14124905D01*
X7937857Y-14124905D02*
X7918809Y-14143952D01*
X7918809Y-14143952D02*
X7890238Y-14153476D01*
X7890238Y-14153476D02*
X7842619Y-14153476D01*
X8042619Y-14153476D02*
X8042619Y-14020143D01*
X8042619Y-14058238D02*
X8052143Y-14039190D01*
X8052143Y-14039190D02*
X8061667Y-14029667D01*
X8061667Y-14029667D02*
X8080714Y-14020143D01*
X8080714Y-14020143D02*
X8099762Y-14020143D01*
X8166428Y-14153476D02*
X8166428Y-14020143D01*
X8166428Y-13953476D02*
X8156905Y-13963000D01*
X8156905Y-13963000D02*
X8166428Y-13972524D01*
X8166428Y-13972524D02*
X8175952Y-13963000D01*
X8175952Y-13963000D02*
X8166428Y-13953476D01*
X8166428Y-13953476D02*
X8166428Y-13972524D01*
X8290238Y-14153476D02*
X8271190Y-14143952D01*
X8271190Y-14143952D02*
X8261667Y-14124905D01*
X8261667Y-14124905D02*
X8261667Y-13953476D01*
X8395000Y-14153476D02*
X8375952Y-14143952D01*
X8375952Y-14143952D02*
X8366428Y-14124905D01*
X8366428Y-14124905D02*
X8366428Y-13953476D01*
X8591190Y-14153476D02*
X8591190Y-13953476D01*
X8591190Y-13953476D02*
X8657857Y-14096333D01*
X8657857Y-14096333D02*
X8724524Y-13953476D01*
X8724524Y-13953476D02*
X8724524Y-14153476D01*
X8905476Y-14153476D02*
X8905476Y-14048714D01*
X8905476Y-14048714D02*
X8895952Y-14029667D01*
X8895952Y-14029667D02*
X8876905Y-14020143D01*
X8876905Y-14020143D02*
X8838809Y-14020143D01*
X8838809Y-14020143D02*
X8819762Y-14029667D01*
X8905476Y-14143952D02*
X8886429Y-14153476D01*
X8886429Y-14153476D02*
X8838809Y-14153476D01*
X8838809Y-14153476D02*
X8819762Y-14143952D01*
X8819762Y-14143952D02*
X8810238Y-14124905D01*
X8810238Y-14124905D02*
X8810238Y-14105857D01*
X8810238Y-14105857D02*
X8819762Y-14086809D01*
X8819762Y-14086809D02*
X8838809Y-14077286D01*
X8838809Y-14077286D02*
X8886429Y-14077286D01*
X8886429Y-14077286D02*
X8905476Y-14067762D01*
X9000714Y-14020143D02*
X9000714Y-14220143D01*
X9000714Y-14029667D02*
X9019762Y-14020143D01*
X9019762Y-14020143D02*
X9057857Y-14020143D01*
X9057857Y-14020143D02*
X9076905Y-14029667D01*
X9076905Y-14029667D02*
X9086429Y-14039190D01*
X9086429Y-14039190D02*
X9095952Y-14058238D01*
X9095952Y-14058238D02*
X9095952Y-14115381D01*
X9095952Y-14115381D02*
X9086429Y-14134428D01*
X9086429Y-14134428D02*
X9076905Y-14143952D01*
X9076905Y-14143952D02*
X9057857Y-14153476D01*
X9057857Y-14153476D02*
X9019762Y-14153476D01*
X9019762Y-14153476D02*
X9000714Y-14143952D01*
X9181667Y-14134428D02*
X9191190Y-14143952D01*
X9191190Y-14143952D02*
X9181667Y-14153476D01*
X9181667Y-14153476D02*
X9172143Y-14143952D01*
X9172143Y-14143952D02*
X9181667Y-14134428D01*
X9181667Y-14134428D02*
X9181667Y-14153476D01*
X9181667Y-14029667D02*
X9191190Y-14039190D01*
X9191190Y-14039190D02*
X9181667Y-14048714D01*
X9181667Y-14048714D02*
X9172143Y-14039190D01*
X9172143Y-14039190D02*
X9181667Y-14029667D01*
X9181667Y-14029667D02*
X9181667Y-14048714D01*
D12*
X7530000Y-14467500D02*
X7595000Y-14532500D01*
X7595000Y-14467500D02*
X7530000Y-14532500D01*
D11*
X7880714Y-14373476D02*
X7899762Y-14373476D01*
X7899762Y-14373476D02*
X7918809Y-14383000D01*
X7918809Y-14383000D02*
X7928333Y-14392524D01*
X7928333Y-14392524D02*
X7937857Y-14411571D01*
X7937857Y-14411571D02*
X7947381Y-14449667D01*
X7947381Y-14449667D02*
X7947381Y-14497286D01*
X7947381Y-14497286D02*
X7937857Y-14535381D01*
X7937857Y-14535381D02*
X7928333Y-14554428D01*
X7928333Y-14554428D02*
X7918809Y-14563952D01*
X7918809Y-14563952D02*
X7899762Y-14573476D01*
X7899762Y-14573476D02*
X7880714Y-14573476D01*
X7880714Y-14573476D02*
X7861667Y-14563952D01*
X7861667Y-14563952D02*
X7852143Y-14554428D01*
X7852143Y-14554428D02*
X7842619Y-14535381D01*
X7842619Y-14535381D02*
X7833095Y-14497286D01*
X7833095Y-14497286D02*
X7833095Y-14449667D01*
X7833095Y-14449667D02*
X7842619Y-14411571D01*
X7842619Y-14411571D02*
X7852143Y-14392524D01*
X7852143Y-14392524D02*
X7861667Y-14383000D01*
X7861667Y-14383000D02*
X7880714Y-14373476D01*
X8033095Y-14554428D02*
X8042619Y-14563952D01*
X8042619Y-14563952D02*
X8033095Y-14573476D01*
X8033095Y-14573476D02*
X8023571Y-14563952D01*
X8023571Y-14563952D02*
X8033095Y-14554428D01*
X8033095Y-14554428D02*
X8033095Y-14573476D01*
X8214048Y-14373476D02*
X8175952Y-14373476D01*
X8175952Y-14373476D02*
X8156905Y-14383000D01*
X8156905Y-14383000D02*
X8147381Y-14392524D01*
X8147381Y-14392524D02*
X8128333Y-14421095D01*
X8128333Y-14421095D02*
X8118809Y-14459190D01*
X8118809Y-14459190D02*
X8118809Y-14535381D01*
X8118809Y-14535381D02*
X8128333Y-14554428D01*
X8128333Y-14554428D02*
X8137857Y-14563952D01*
X8137857Y-14563952D02*
X8156905Y-14573476D01*
X8156905Y-14573476D02*
X8195000Y-14573476D01*
X8195000Y-14573476D02*
X8214048Y-14563952D01*
X8214048Y-14563952D02*
X8223571Y-14554428D01*
X8223571Y-14554428D02*
X8233095Y-14535381D01*
X8233095Y-14535381D02*
X8233095Y-14487762D01*
X8233095Y-14487762D02*
X8223571Y-14468714D01*
X8223571Y-14468714D02*
X8214048Y-14459190D01*
X8214048Y-14459190D02*
X8195000Y-14449667D01*
X8195000Y-14449667D02*
X8156905Y-14449667D01*
X8156905Y-14449667D02*
X8137857Y-14459190D01*
X8137857Y-14459190D02*
X8128333Y-14468714D01*
X8128333Y-14468714D02*
X8118809Y-14487762D01*
X8414048Y-14373476D02*
X8318809Y-14373476D01*
X8318809Y-14373476D02*
X8309286Y-14468714D01*
X8309286Y-14468714D02*
X8318809Y-14459190D01*
X8318809Y-14459190D02*
X8337857Y-14449667D01*
X8337857Y-14449667D02*
X8385476Y-14449667D01*
X8385476Y-14449667D02*
X8404524Y-14459190D01*
X8404524Y-14459190D02*
X8414048Y-14468714D01*
X8414048Y-14468714D02*
X8423571Y-14487762D01*
X8423571Y-14487762D02*
X8423571Y-14535381D01*
X8423571Y-14535381D02*
X8414048Y-14554428D01*
X8414048Y-14554428D02*
X8404524Y-14563952D01*
X8404524Y-14563952D02*
X8385476Y-14573476D01*
X8385476Y-14573476D02*
X8337857Y-14573476D01*
X8337857Y-14573476D02*
X8318809Y-14563952D01*
X8318809Y-14563952D02*
X8309286Y-14554428D01*
X8547381Y-14373476D02*
X8566429Y-14373476D01*
X8566429Y-14373476D02*
X8585476Y-14383000D01*
X8585476Y-14383000D02*
X8595000Y-14392524D01*
X8595000Y-14392524D02*
X8604524Y-14411571D01*
X8604524Y-14411571D02*
X8614048Y-14449667D01*
X8614048Y-14449667D02*
X8614048Y-14497286D01*
X8614048Y-14497286D02*
X8604524Y-14535381D01*
X8604524Y-14535381D02*
X8595000Y-14554428D01*
X8595000Y-14554428D02*
X8585476Y-14563952D01*
X8585476Y-14563952D02*
X8566429Y-14573476D01*
X8566429Y-14573476D02*
X8547381Y-14573476D01*
X8547381Y-14573476D02*
X8528333Y-14563952D01*
X8528333Y-14563952D02*
X8518810Y-14554428D01*
X8518810Y-14554428D02*
X8509286Y-14535381D01*
X8509286Y-14535381D02*
X8499762Y-14497286D01*
X8499762Y-14497286D02*
X8499762Y-14449667D01*
X8499762Y-14449667D02*
X8509286Y-14411571D01*
X8509286Y-14411571D02*
X8518810Y-14392524D01*
X8518810Y-14392524D02*
X8528333Y-14383000D01*
X8528333Y-14383000D02*
X8547381Y-14373476D01*
X8699762Y-14573476D02*
X8699762Y-14440143D01*
X8699762Y-14459190D02*
X8709286Y-14449667D01*
X8709286Y-14449667D02*
X8728333Y-14440143D01*
X8728333Y-14440143D02*
X8756905Y-14440143D01*
X8756905Y-14440143D02*
X8775952Y-14449667D01*
X8775952Y-14449667D02*
X8785476Y-14468714D01*
X8785476Y-14468714D02*
X8785476Y-14573476D01*
X8785476Y-14468714D02*
X8795000Y-14449667D01*
X8795000Y-14449667D02*
X8814048Y-14440143D01*
X8814048Y-14440143D02*
X8842619Y-14440143D01*
X8842619Y-14440143D02*
X8861667Y-14449667D01*
X8861667Y-14449667D02*
X8871191Y-14468714D01*
X8871191Y-14468714D02*
X8871191Y-14573476D01*
X8966429Y-14573476D02*
X8966429Y-14440143D01*
X8966429Y-14459190D02*
X8975952Y-14449667D01*
X8975952Y-14449667D02*
X8995000Y-14440143D01*
X8995000Y-14440143D02*
X9023572Y-14440143D01*
X9023572Y-14440143D02*
X9042619Y-14449667D01*
X9042619Y-14449667D02*
X9052143Y-14468714D01*
X9052143Y-14468714D02*
X9052143Y-14573476D01*
X9052143Y-14468714D02*
X9061667Y-14449667D01*
X9061667Y-14449667D02*
X9080714Y-14440143D01*
X9080714Y-14440143D02*
X9109286Y-14440143D01*
X9109286Y-14440143D02*
X9128333Y-14449667D01*
X9128333Y-14449667D02*
X9137857Y-14468714D01*
X9137857Y-14468714D02*
X9137857Y-14573476D01*
X9495952Y-14363952D02*
X9324524Y-14621095D01*
X9720714Y-14373476D02*
X9739762Y-14373476D01*
X9739762Y-14373476D02*
X9758810Y-14383000D01*
X9758810Y-14383000D02*
X9768333Y-14392524D01*
X9768333Y-14392524D02*
X9777857Y-14411571D01*
X9777857Y-14411571D02*
X9787381Y-14449667D01*
X9787381Y-14449667D02*
X9787381Y-14497286D01*
X9787381Y-14497286D02*
X9777857Y-14535381D01*
X9777857Y-14535381D02*
X9768333Y-14554428D01*
X9768333Y-14554428D02*
X9758810Y-14563952D01*
X9758810Y-14563952D02*
X9739762Y-14573476D01*
X9739762Y-14573476D02*
X9720714Y-14573476D01*
X9720714Y-14573476D02*
X9701667Y-14563952D01*
X9701667Y-14563952D02*
X9692143Y-14554428D01*
X9692143Y-14554428D02*
X9682619Y-14535381D01*
X9682619Y-14535381D02*
X9673095Y-14497286D01*
X9673095Y-14497286D02*
X9673095Y-14449667D01*
X9673095Y-14449667D02*
X9682619Y-14411571D01*
X9682619Y-14411571D02*
X9692143Y-14392524D01*
X9692143Y-14392524D02*
X9701667Y-14383000D01*
X9701667Y-14383000D02*
X9720714Y-14373476D01*
X9873095Y-14554428D02*
X9882619Y-14563952D01*
X9882619Y-14563952D02*
X9873095Y-14573476D01*
X9873095Y-14573476D02*
X9863572Y-14563952D01*
X9863572Y-14563952D02*
X9873095Y-14554428D01*
X9873095Y-14554428D02*
X9873095Y-14573476D01*
X10006429Y-14373476D02*
X10025476Y-14373476D01*
X10025476Y-14373476D02*
X10044524Y-14383000D01*
X10044524Y-14383000D02*
X10054048Y-14392524D01*
X10054048Y-14392524D02*
X10063572Y-14411571D01*
X10063572Y-14411571D02*
X10073095Y-14449667D01*
X10073095Y-14449667D02*
X10073095Y-14497286D01*
X10073095Y-14497286D02*
X10063572Y-14535381D01*
X10063572Y-14535381D02*
X10054048Y-14554428D01*
X10054048Y-14554428D02*
X10044524Y-14563952D01*
X10044524Y-14563952D02*
X10025476Y-14573476D01*
X10025476Y-14573476D02*
X10006429Y-14573476D01*
X10006429Y-14573476D02*
X9987381Y-14563952D01*
X9987381Y-14563952D02*
X9977857Y-14554428D01*
X9977857Y-14554428D02*
X9968333Y-14535381D01*
X9968333Y-14535381D02*
X9958810Y-14497286D01*
X9958810Y-14497286D02*
X9958810Y-14449667D01*
X9958810Y-14449667D02*
X9968333Y-14411571D01*
X9968333Y-14411571D02*
X9977857Y-14392524D01*
X9977857Y-14392524D02*
X9987381Y-14383000D01*
X9987381Y-14383000D02*
X10006429Y-14373476D01*
X10149286Y-14392524D02*
X10158810Y-14383000D01*
X10158810Y-14383000D02*
X10177857Y-14373476D01*
X10177857Y-14373476D02*
X10225476Y-14373476D01*
X10225476Y-14373476D02*
X10244524Y-14383000D01*
X10244524Y-14383000D02*
X10254048Y-14392524D01*
X10254048Y-14392524D02*
X10263572Y-14411571D01*
X10263572Y-14411571D02*
X10263572Y-14430619D01*
X10263572Y-14430619D02*
X10254048Y-14459190D01*
X10254048Y-14459190D02*
X10139762Y-14573476D01*
X10139762Y-14573476D02*
X10263572Y-14573476D01*
X10444524Y-14373476D02*
X10349286Y-14373476D01*
X10349286Y-14373476D02*
X10339762Y-14468714D01*
X10339762Y-14468714D02*
X10349286Y-14459190D01*
X10349286Y-14459190D02*
X10368333Y-14449667D01*
X10368333Y-14449667D02*
X10415953Y-14449667D01*
X10415953Y-14449667D02*
X10435000Y-14459190D01*
X10435000Y-14459190D02*
X10444524Y-14468714D01*
X10444524Y-14468714D02*
X10454048Y-14487762D01*
X10454048Y-14487762D02*
X10454048Y-14535381D01*
X10454048Y-14535381D02*
X10444524Y-14554428D01*
X10444524Y-14554428D02*
X10435000Y-14563952D01*
X10435000Y-14563952D02*
X10415953Y-14573476D01*
X10415953Y-14573476D02*
X10368333Y-14573476D01*
X10368333Y-14573476D02*
X10349286Y-14563952D01*
X10349286Y-14563952D02*
X10339762Y-14554428D01*
X10625476Y-14373476D02*
X10587381Y-14373476D01*
X10587381Y-14373476D02*
X10568333Y-14383000D01*
X10568333Y-14383000D02*
X10558810Y-14392524D01*
X10558810Y-14392524D02*
X10539762Y-14421095D01*
X10539762Y-14421095D02*
X10530238Y-14459190D01*
X10530238Y-14459190D02*
X10530238Y-14535381D01*
X10530238Y-14535381D02*
X10539762Y-14554428D01*
X10539762Y-14554428D02*
X10549286Y-14563952D01*
X10549286Y-14563952D02*
X10568333Y-14573476D01*
X10568333Y-14573476D02*
X10606429Y-14573476D01*
X10606429Y-14573476D02*
X10625476Y-14563952D01*
X10625476Y-14563952D02*
X10635000Y-14554428D01*
X10635000Y-14554428D02*
X10644524Y-14535381D01*
X10644524Y-14535381D02*
X10644524Y-14487762D01*
X10644524Y-14487762D02*
X10635000Y-14468714D01*
X10635000Y-14468714D02*
X10625476Y-14459190D01*
X10625476Y-14459190D02*
X10606429Y-14449667D01*
X10606429Y-14449667D02*
X10568333Y-14449667D01*
X10568333Y-14449667D02*
X10549286Y-14459190D01*
X10549286Y-14459190D02*
X10539762Y-14468714D01*
X10539762Y-14468714D02*
X10530238Y-14487762D01*
X10720714Y-14373476D02*
X10720714Y-14411571D01*
X10796905Y-14373476D02*
X10796905Y-14411571D01*
X11059762Y-14649667D02*
X11050238Y-14640143D01*
X11050238Y-14640143D02*
X11031191Y-14611571D01*
X11031191Y-14611571D02*
X11021667Y-14592524D01*
X11021667Y-14592524D02*
X11012143Y-14563952D01*
X11012143Y-14563952D02*
X11002619Y-14516333D01*
X11002619Y-14516333D02*
X11002619Y-14478238D01*
X11002619Y-14478238D02*
X11012143Y-14430619D01*
X11012143Y-14430619D02*
X11021667Y-14402048D01*
X11021667Y-14402048D02*
X11031191Y-14383000D01*
X11031191Y-14383000D02*
X11050238Y-14354428D01*
X11050238Y-14354428D02*
X11059762Y-14344905D01*
X11126429Y-14392524D02*
X11135953Y-14383000D01*
X11135953Y-14383000D02*
X11155000Y-14373476D01*
X11155000Y-14373476D02*
X11202619Y-14373476D01*
X11202619Y-14373476D02*
X11221667Y-14383000D01*
X11221667Y-14383000D02*
X11231191Y-14392524D01*
X11231191Y-14392524D02*
X11240714Y-14411571D01*
X11240714Y-14411571D02*
X11240714Y-14430619D01*
X11240714Y-14430619D02*
X11231191Y-14459190D01*
X11231191Y-14459190D02*
X11116905Y-14573476D01*
X11116905Y-14573476D02*
X11240714Y-14573476D01*
X11446429Y-14573476D02*
X11446429Y-14373476D01*
X11532143Y-14573476D02*
X11532143Y-14468714D01*
X11532143Y-14468714D02*
X11522619Y-14449667D01*
X11522619Y-14449667D02*
X11503572Y-14440143D01*
X11503572Y-14440143D02*
X11475000Y-14440143D01*
X11475000Y-14440143D02*
X11455952Y-14449667D01*
X11455952Y-14449667D02*
X11446429Y-14459190D01*
X11655952Y-14573476D02*
X11636905Y-14563952D01*
X11636905Y-14563952D02*
X11627381Y-14554428D01*
X11627381Y-14554428D02*
X11617857Y-14535381D01*
X11617857Y-14535381D02*
X11617857Y-14478238D01*
X11617857Y-14478238D02*
X11627381Y-14459190D01*
X11627381Y-14459190D02*
X11636905Y-14449667D01*
X11636905Y-14449667D02*
X11655952Y-14440143D01*
X11655952Y-14440143D02*
X11684524Y-14440143D01*
X11684524Y-14440143D02*
X11703572Y-14449667D01*
X11703572Y-14449667D02*
X11713095Y-14459190D01*
X11713095Y-14459190D02*
X11722619Y-14478238D01*
X11722619Y-14478238D02*
X11722619Y-14535381D01*
X11722619Y-14535381D02*
X11713095Y-14554428D01*
X11713095Y-14554428D02*
X11703572Y-14563952D01*
X11703572Y-14563952D02*
X11684524Y-14573476D01*
X11684524Y-14573476D02*
X11655952Y-14573476D01*
X11836905Y-14573476D02*
X11817857Y-14563952D01*
X11817857Y-14563952D02*
X11808333Y-14544905D01*
X11808333Y-14544905D02*
X11808333Y-14373476D01*
X11989286Y-14563952D02*
X11970238Y-14573476D01*
X11970238Y-14573476D02*
X11932143Y-14573476D01*
X11932143Y-14573476D02*
X11913095Y-14563952D01*
X11913095Y-14563952D02*
X11903572Y-14544905D01*
X11903572Y-14544905D02*
X11903572Y-14468714D01*
X11903572Y-14468714D02*
X11913095Y-14449667D01*
X11913095Y-14449667D02*
X11932143Y-14440143D01*
X11932143Y-14440143D02*
X11970238Y-14440143D01*
X11970238Y-14440143D02*
X11989286Y-14449667D01*
X11989286Y-14449667D02*
X11998810Y-14468714D01*
X11998810Y-14468714D02*
X11998810Y-14487762D01*
X11998810Y-14487762D02*
X11903572Y-14506809D01*
X12075000Y-14563952D02*
X12094048Y-14573476D01*
X12094048Y-14573476D02*
X12132143Y-14573476D01*
X12132143Y-14573476D02*
X12151191Y-14563952D01*
X12151191Y-14563952D02*
X12160714Y-14544905D01*
X12160714Y-14544905D02*
X12160714Y-14535381D01*
X12160714Y-14535381D02*
X12151191Y-14516333D01*
X12151191Y-14516333D02*
X12132143Y-14506809D01*
X12132143Y-14506809D02*
X12103572Y-14506809D01*
X12103572Y-14506809D02*
X12084524Y-14497286D01*
X12084524Y-14497286D02*
X12075000Y-14478238D01*
X12075000Y-14478238D02*
X12075000Y-14468714D01*
X12075000Y-14468714D02*
X12084524Y-14449667D01*
X12084524Y-14449667D02*
X12103572Y-14440143D01*
X12103572Y-14440143D02*
X12132143Y-14440143D01*
X12132143Y-14440143D02*
X12151191Y-14449667D01*
X12227381Y-14649667D02*
X12236905Y-14640143D01*
X12236905Y-14640143D02*
X12255953Y-14611571D01*
X12255953Y-14611571D02*
X12265476Y-14592524D01*
X12265476Y-14592524D02*
X12275000Y-14563952D01*
X12275000Y-14563952D02*
X12284524Y-14516333D01*
X12284524Y-14516333D02*
X12284524Y-14478238D01*
X12284524Y-14478238D02*
X12275000Y-14430619D01*
X12275000Y-14430619D02*
X12265476Y-14402048D01*
X12265476Y-14402048D02*
X12255953Y-14383000D01*
X12255953Y-14383000D02*
X12236905Y-14354428D01*
X12236905Y-14354428D02*
X12227381Y-14344905D01*
X12556905Y-14649667D02*
X12547381Y-14640143D01*
X12547381Y-14640143D02*
X12528333Y-14611571D01*
X12528333Y-14611571D02*
X12518810Y-14592524D01*
X12518810Y-14592524D02*
X12509286Y-14563952D01*
X12509286Y-14563952D02*
X12499762Y-14516333D01*
X12499762Y-14516333D02*
X12499762Y-14478238D01*
X12499762Y-14478238D02*
X12509286Y-14430619D01*
X12509286Y-14430619D02*
X12518810Y-14402048D01*
X12518810Y-14402048D02*
X12528333Y-14383000D01*
X12528333Y-14383000D02*
X12547381Y-14354428D01*
X12547381Y-14354428D02*
X12556905Y-14344905D01*
X12633095Y-14440143D02*
X12633095Y-14573476D01*
X12633095Y-14459190D02*
X12642619Y-14449667D01*
X12642619Y-14449667D02*
X12661667Y-14440143D01*
X12661667Y-14440143D02*
X12690238Y-14440143D01*
X12690238Y-14440143D02*
X12709286Y-14449667D01*
X12709286Y-14449667D02*
X12718810Y-14468714D01*
X12718810Y-14468714D02*
X12718810Y-14573476D01*
X12842619Y-14573476D02*
X12823572Y-14563952D01*
X12823572Y-14563952D02*
X12814048Y-14554428D01*
X12814048Y-14554428D02*
X12804524Y-14535381D01*
X12804524Y-14535381D02*
X12804524Y-14478238D01*
X12804524Y-14478238D02*
X12814048Y-14459190D01*
X12814048Y-14459190D02*
X12823572Y-14449667D01*
X12823572Y-14449667D02*
X12842619Y-14440143D01*
X12842619Y-14440143D02*
X12871191Y-14440143D01*
X12871191Y-14440143D02*
X12890238Y-14449667D01*
X12890238Y-14449667D02*
X12899762Y-14459190D01*
X12899762Y-14459190D02*
X12909286Y-14478238D01*
X12909286Y-14478238D02*
X12909286Y-14535381D01*
X12909286Y-14535381D02*
X12899762Y-14554428D01*
X12899762Y-14554428D02*
X12890238Y-14563952D01*
X12890238Y-14563952D02*
X12871191Y-14573476D01*
X12871191Y-14573476D02*
X12842619Y-14573476D01*
X12966429Y-14440143D02*
X13042619Y-14440143D01*
X12995000Y-14373476D02*
X12995000Y-14544905D01*
X12995000Y-14544905D02*
X13004524Y-14563952D01*
X13004524Y-14563952D02*
X13023572Y-14573476D01*
X13023572Y-14573476D02*
X13042619Y-14573476D01*
X13229286Y-14440143D02*
X13229286Y-14640143D01*
X13229286Y-14449667D02*
X13248333Y-14440143D01*
X13248333Y-14440143D02*
X13286429Y-14440143D01*
X13286429Y-14440143D02*
X13305476Y-14449667D01*
X13305476Y-14449667D02*
X13315000Y-14459190D01*
X13315000Y-14459190D02*
X13324524Y-14478238D01*
X13324524Y-14478238D02*
X13324524Y-14535381D01*
X13324524Y-14535381D02*
X13315000Y-14554428D01*
X13315000Y-14554428D02*
X13305476Y-14563952D01*
X13305476Y-14563952D02*
X13286429Y-14573476D01*
X13286429Y-14573476D02*
X13248333Y-14573476D01*
X13248333Y-14573476D02*
X13229286Y-14563952D01*
X13438810Y-14573476D02*
X13419762Y-14563952D01*
X13419762Y-14563952D02*
X13410238Y-14544905D01*
X13410238Y-14544905D02*
X13410238Y-14373476D01*
X13600714Y-14573476D02*
X13600714Y-14468714D01*
X13600714Y-14468714D02*
X13591191Y-14449667D01*
X13591191Y-14449667D02*
X13572143Y-14440143D01*
X13572143Y-14440143D02*
X13534048Y-14440143D01*
X13534048Y-14440143D02*
X13515000Y-14449667D01*
X13600714Y-14563952D02*
X13581667Y-14573476D01*
X13581667Y-14573476D02*
X13534048Y-14573476D01*
X13534048Y-14573476D02*
X13515000Y-14563952D01*
X13515000Y-14563952D02*
X13505476Y-14544905D01*
X13505476Y-14544905D02*
X13505476Y-14525857D01*
X13505476Y-14525857D02*
X13515000Y-14506809D01*
X13515000Y-14506809D02*
X13534048Y-14497286D01*
X13534048Y-14497286D02*
X13581667Y-14497286D01*
X13581667Y-14497286D02*
X13600714Y-14487762D01*
X13667381Y-14440143D02*
X13743572Y-14440143D01*
X13695953Y-14373476D02*
X13695953Y-14544905D01*
X13695953Y-14544905D02*
X13705476Y-14563952D01*
X13705476Y-14563952D02*
X13724524Y-14573476D01*
X13724524Y-14573476D02*
X13743572Y-14573476D01*
X13886429Y-14563952D02*
X13867381Y-14573476D01*
X13867381Y-14573476D02*
X13829286Y-14573476D01*
X13829286Y-14573476D02*
X13810238Y-14563952D01*
X13810238Y-14563952D02*
X13800714Y-14544905D01*
X13800714Y-14544905D02*
X13800714Y-14468714D01*
X13800714Y-14468714D02*
X13810238Y-14449667D01*
X13810238Y-14449667D02*
X13829286Y-14440143D01*
X13829286Y-14440143D02*
X13867381Y-14440143D01*
X13867381Y-14440143D02*
X13886429Y-14449667D01*
X13886429Y-14449667D02*
X13895953Y-14468714D01*
X13895953Y-14468714D02*
X13895953Y-14487762D01*
X13895953Y-14487762D02*
X13800714Y-14506809D01*
X14067381Y-14573476D02*
X14067381Y-14373476D01*
X14067381Y-14563952D02*
X14048334Y-14573476D01*
X14048334Y-14573476D02*
X14010238Y-14573476D01*
X14010238Y-14573476D02*
X13991191Y-14563952D01*
X13991191Y-14563952D02*
X13981667Y-14554428D01*
X13981667Y-14554428D02*
X13972143Y-14535381D01*
X13972143Y-14535381D02*
X13972143Y-14478238D01*
X13972143Y-14478238D02*
X13981667Y-14459190D01*
X13981667Y-14459190D02*
X13991191Y-14449667D01*
X13991191Y-14449667D02*
X14010238Y-14440143D01*
X14010238Y-14440143D02*
X14048334Y-14440143D01*
X14048334Y-14440143D02*
X14067381Y-14449667D01*
X14143572Y-14649667D02*
X14153095Y-14640143D01*
X14153095Y-14640143D02*
X14172143Y-14611571D01*
X14172143Y-14611571D02*
X14181667Y-14592524D01*
X14181667Y-14592524D02*
X14191191Y-14563952D01*
X14191191Y-14563952D02*
X14200714Y-14516333D01*
X14200714Y-14516333D02*
X14200714Y-14478238D01*
X14200714Y-14478238D02*
X14191191Y-14430619D01*
X14191191Y-14430619D02*
X14181667Y-14402048D01*
X14181667Y-14402048D02*
X14172143Y-14383000D01*
X14172143Y-14383000D02*
X14153095Y-14354428D01*
X14153095Y-14354428D02*
X14143572Y-14344905D01*
X7595000Y-14764000D02*
G75*
G03*
X7595000Y-14764000I-100000J0D01*
G01*
X7823571Y-14637476D02*
X7947381Y-14637476D01*
X7947381Y-14637476D02*
X7880714Y-14713667D01*
X7880714Y-14713667D02*
X7909286Y-14713667D01*
X7909286Y-14713667D02*
X7928333Y-14723190D01*
X7928333Y-14723190D02*
X7937857Y-14732714D01*
X7937857Y-14732714D02*
X7947381Y-14751762D01*
X7947381Y-14751762D02*
X7947381Y-14799381D01*
X7947381Y-14799381D02*
X7937857Y-14818428D01*
X7937857Y-14818428D02*
X7928333Y-14827952D01*
X7928333Y-14827952D02*
X7909286Y-14837476D01*
X7909286Y-14837476D02*
X7852143Y-14837476D01*
X7852143Y-14837476D02*
X7833095Y-14827952D01*
X7833095Y-14827952D02*
X7823571Y-14818428D01*
X8033095Y-14818428D02*
X8042619Y-14827952D01*
X8042619Y-14827952D02*
X8033095Y-14837476D01*
X8033095Y-14837476D02*
X8023571Y-14827952D01*
X8023571Y-14827952D02*
X8033095Y-14818428D01*
X8033095Y-14818428D02*
X8033095Y-14837476D01*
X8118809Y-14656524D02*
X8128333Y-14647000D01*
X8128333Y-14647000D02*
X8147381Y-14637476D01*
X8147381Y-14637476D02*
X8195000Y-14637476D01*
X8195000Y-14637476D02*
X8214048Y-14647000D01*
X8214048Y-14647000D02*
X8223571Y-14656524D01*
X8223571Y-14656524D02*
X8233095Y-14675571D01*
X8233095Y-14675571D02*
X8233095Y-14694619D01*
X8233095Y-14694619D02*
X8223571Y-14723190D01*
X8223571Y-14723190D02*
X8109286Y-14837476D01*
X8109286Y-14837476D02*
X8233095Y-14837476D01*
X8356905Y-14637476D02*
X8375952Y-14637476D01*
X8375952Y-14637476D02*
X8395000Y-14647000D01*
X8395000Y-14647000D02*
X8404524Y-14656524D01*
X8404524Y-14656524D02*
X8414048Y-14675571D01*
X8414048Y-14675571D02*
X8423571Y-14713667D01*
X8423571Y-14713667D02*
X8423571Y-14761286D01*
X8423571Y-14761286D02*
X8414048Y-14799381D01*
X8414048Y-14799381D02*
X8404524Y-14818428D01*
X8404524Y-14818428D02*
X8395000Y-14827952D01*
X8395000Y-14827952D02*
X8375952Y-14837476D01*
X8375952Y-14837476D02*
X8356905Y-14837476D01*
X8356905Y-14837476D02*
X8337857Y-14827952D01*
X8337857Y-14827952D02*
X8328333Y-14818428D01*
X8328333Y-14818428D02*
X8318809Y-14799381D01*
X8318809Y-14799381D02*
X8309286Y-14761286D01*
X8309286Y-14761286D02*
X8309286Y-14713667D01*
X8309286Y-14713667D02*
X8318809Y-14675571D01*
X8318809Y-14675571D02*
X8328333Y-14656524D01*
X8328333Y-14656524D02*
X8337857Y-14647000D01*
X8337857Y-14647000D02*
X8356905Y-14637476D01*
X8547381Y-14637476D02*
X8566429Y-14637476D01*
X8566429Y-14637476D02*
X8585476Y-14647000D01*
X8585476Y-14647000D02*
X8595000Y-14656524D01*
X8595000Y-14656524D02*
X8604524Y-14675571D01*
X8604524Y-14675571D02*
X8614048Y-14713667D01*
X8614048Y-14713667D02*
X8614048Y-14761286D01*
X8614048Y-14761286D02*
X8604524Y-14799381D01*
X8604524Y-14799381D02*
X8595000Y-14818428D01*
X8595000Y-14818428D02*
X8585476Y-14827952D01*
X8585476Y-14827952D02*
X8566429Y-14837476D01*
X8566429Y-14837476D02*
X8547381Y-14837476D01*
X8547381Y-14837476D02*
X8528333Y-14827952D01*
X8528333Y-14827952D02*
X8518810Y-14818428D01*
X8518810Y-14818428D02*
X8509286Y-14799381D01*
X8509286Y-14799381D02*
X8499762Y-14761286D01*
X8499762Y-14761286D02*
X8499762Y-14713667D01*
X8499762Y-14713667D02*
X8509286Y-14675571D01*
X8509286Y-14675571D02*
X8518810Y-14656524D01*
X8518810Y-14656524D02*
X8528333Y-14647000D01*
X8528333Y-14647000D02*
X8547381Y-14637476D01*
X8699762Y-14837476D02*
X8699762Y-14704143D01*
X8699762Y-14723190D02*
X8709286Y-14713667D01*
X8709286Y-14713667D02*
X8728333Y-14704143D01*
X8728333Y-14704143D02*
X8756905Y-14704143D01*
X8756905Y-14704143D02*
X8775952Y-14713667D01*
X8775952Y-14713667D02*
X8785476Y-14732714D01*
X8785476Y-14732714D02*
X8785476Y-14837476D01*
X8785476Y-14732714D02*
X8795000Y-14713667D01*
X8795000Y-14713667D02*
X8814048Y-14704143D01*
X8814048Y-14704143D02*
X8842619Y-14704143D01*
X8842619Y-14704143D02*
X8861667Y-14713667D01*
X8861667Y-14713667D02*
X8871191Y-14732714D01*
X8871191Y-14732714D02*
X8871191Y-14837476D01*
X8966429Y-14837476D02*
X8966429Y-14704143D01*
X8966429Y-14723190D02*
X8975952Y-14713667D01*
X8975952Y-14713667D02*
X8995000Y-14704143D01*
X8995000Y-14704143D02*
X9023572Y-14704143D01*
X9023572Y-14704143D02*
X9042619Y-14713667D01*
X9042619Y-14713667D02*
X9052143Y-14732714D01*
X9052143Y-14732714D02*
X9052143Y-14837476D01*
X9052143Y-14732714D02*
X9061667Y-14713667D01*
X9061667Y-14713667D02*
X9080714Y-14704143D01*
X9080714Y-14704143D02*
X9109286Y-14704143D01*
X9109286Y-14704143D02*
X9128333Y-14713667D01*
X9128333Y-14713667D02*
X9137857Y-14732714D01*
X9137857Y-14732714D02*
X9137857Y-14837476D01*
X9495952Y-14627952D02*
X9324524Y-14885095D01*
X9720714Y-14637476D02*
X9739762Y-14637476D01*
X9739762Y-14637476D02*
X9758810Y-14647000D01*
X9758810Y-14647000D02*
X9768333Y-14656524D01*
X9768333Y-14656524D02*
X9777857Y-14675571D01*
X9777857Y-14675571D02*
X9787381Y-14713667D01*
X9787381Y-14713667D02*
X9787381Y-14761286D01*
X9787381Y-14761286D02*
X9777857Y-14799381D01*
X9777857Y-14799381D02*
X9768333Y-14818428D01*
X9768333Y-14818428D02*
X9758810Y-14827952D01*
X9758810Y-14827952D02*
X9739762Y-14837476D01*
X9739762Y-14837476D02*
X9720714Y-14837476D01*
X9720714Y-14837476D02*
X9701667Y-14827952D01*
X9701667Y-14827952D02*
X9692143Y-14818428D01*
X9692143Y-14818428D02*
X9682619Y-14799381D01*
X9682619Y-14799381D02*
X9673095Y-14761286D01*
X9673095Y-14761286D02*
X9673095Y-14713667D01*
X9673095Y-14713667D02*
X9682619Y-14675571D01*
X9682619Y-14675571D02*
X9692143Y-14656524D01*
X9692143Y-14656524D02*
X9701667Y-14647000D01*
X9701667Y-14647000D02*
X9720714Y-14637476D01*
X9873095Y-14818428D02*
X9882619Y-14827952D01*
X9882619Y-14827952D02*
X9873095Y-14837476D01*
X9873095Y-14837476D02*
X9863572Y-14827952D01*
X9863572Y-14827952D02*
X9873095Y-14818428D01*
X9873095Y-14818428D02*
X9873095Y-14837476D01*
X10073095Y-14837476D02*
X9958810Y-14837476D01*
X10015952Y-14837476D02*
X10015952Y-14637476D01*
X10015952Y-14637476D02*
X9996905Y-14666048D01*
X9996905Y-14666048D02*
X9977857Y-14685095D01*
X9977857Y-14685095D02*
X9958810Y-14694619D01*
X10149286Y-14656524D02*
X10158810Y-14647000D01*
X10158810Y-14647000D02*
X10177857Y-14637476D01*
X10177857Y-14637476D02*
X10225476Y-14637476D01*
X10225476Y-14637476D02*
X10244524Y-14647000D01*
X10244524Y-14647000D02*
X10254048Y-14656524D01*
X10254048Y-14656524D02*
X10263572Y-14675571D01*
X10263572Y-14675571D02*
X10263572Y-14694619D01*
X10263572Y-14694619D02*
X10254048Y-14723190D01*
X10254048Y-14723190D02*
X10139762Y-14837476D01*
X10139762Y-14837476D02*
X10263572Y-14837476D01*
X10435000Y-14637476D02*
X10396905Y-14637476D01*
X10396905Y-14637476D02*
X10377857Y-14647000D01*
X10377857Y-14647000D02*
X10368333Y-14656524D01*
X10368333Y-14656524D02*
X10349286Y-14685095D01*
X10349286Y-14685095D02*
X10339762Y-14723190D01*
X10339762Y-14723190D02*
X10339762Y-14799381D01*
X10339762Y-14799381D02*
X10349286Y-14818428D01*
X10349286Y-14818428D02*
X10358810Y-14827952D01*
X10358810Y-14827952D02*
X10377857Y-14837476D01*
X10377857Y-14837476D02*
X10415953Y-14837476D01*
X10415953Y-14837476D02*
X10435000Y-14827952D01*
X10435000Y-14827952D02*
X10444524Y-14818428D01*
X10444524Y-14818428D02*
X10454048Y-14799381D01*
X10454048Y-14799381D02*
X10454048Y-14751762D01*
X10454048Y-14751762D02*
X10444524Y-14732714D01*
X10444524Y-14732714D02*
X10435000Y-14723190D01*
X10435000Y-14723190D02*
X10415953Y-14713667D01*
X10415953Y-14713667D02*
X10377857Y-14713667D01*
X10377857Y-14713667D02*
X10358810Y-14723190D01*
X10358810Y-14723190D02*
X10349286Y-14732714D01*
X10349286Y-14732714D02*
X10339762Y-14751762D01*
X10577857Y-14637476D02*
X10596905Y-14637476D01*
X10596905Y-14637476D02*
X10615953Y-14647000D01*
X10615953Y-14647000D02*
X10625476Y-14656524D01*
X10625476Y-14656524D02*
X10635000Y-14675571D01*
X10635000Y-14675571D02*
X10644524Y-14713667D01*
X10644524Y-14713667D02*
X10644524Y-14761286D01*
X10644524Y-14761286D02*
X10635000Y-14799381D01*
X10635000Y-14799381D02*
X10625476Y-14818428D01*
X10625476Y-14818428D02*
X10615953Y-14827952D01*
X10615953Y-14827952D02*
X10596905Y-14837476D01*
X10596905Y-14837476D02*
X10577857Y-14837476D01*
X10577857Y-14837476D02*
X10558810Y-14827952D01*
X10558810Y-14827952D02*
X10549286Y-14818428D01*
X10549286Y-14818428D02*
X10539762Y-14799381D01*
X10539762Y-14799381D02*
X10530238Y-14761286D01*
X10530238Y-14761286D02*
X10530238Y-14713667D01*
X10530238Y-14713667D02*
X10539762Y-14675571D01*
X10539762Y-14675571D02*
X10549286Y-14656524D01*
X10549286Y-14656524D02*
X10558810Y-14647000D01*
X10558810Y-14647000D02*
X10577857Y-14637476D01*
X10720714Y-14637476D02*
X10720714Y-14675571D01*
X10796905Y-14637476D02*
X10796905Y-14675571D01*
X11059762Y-14913667D02*
X11050238Y-14904143D01*
X11050238Y-14904143D02*
X11031191Y-14875571D01*
X11031191Y-14875571D02*
X11021667Y-14856524D01*
X11021667Y-14856524D02*
X11012143Y-14827952D01*
X11012143Y-14827952D02*
X11002619Y-14780333D01*
X11002619Y-14780333D02*
X11002619Y-14742238D01*
X11002619Y-14742238D02*
X11012143Y-14694619D01*
X11012143Y-14694619D02*
X11021667Y-14666048D01*
X11021667Y-14666048D02*
X11031191Y-14647000D01*
X11031191Y-14647000D02*
X11050238Y-14618428D01*
X11050238Y-14618428D02*
X11059762Y-14608905D01*
X11221667Y-14704143D02*
X11221667Y-14837476D01*
X11174048Y-14627952D02*
X11126429Y-14770809D01*
X11126429Y-14770809D02*
X11250238Y-14770809D01*
X11446429Y-14837476D02*
X11446429Y-14637476D01*
X11532143Y-14837476D02*
X11532143Y-14732714D01*
X11532143Y-14732714D02*
X11522619Y-14713667D01*
X11522619Y-14713667D02*
X11503572Y-14704143D01*
X11503572Y-14704143D02*
X11475000Y-14704143D01*
X11475000Y-14704143D02*
X11455952Y-14713667D01*
X11455952Y-14713667D02*
X11446429Y-14723190D01*
X11655952Y-14837476D02*
X11636905Y-14827952D01*
X11636905Y-14827952D02*
X11627381Y-14818428D01*
X11627381Y-14818428D02*
X11617857Y-14799381D01*
X11617857Y-14799381D02*
X11617857Y-14742238D01*
X11617857Y-14742238D02*
X11627381Y-14723190D01*
X11627381Y-14723190D02*
X11636905Y-14713667D01*
X11636905Y-14713667D02*
X11655952Y-14704143D01*
X11655952Y-14704143D02*
X11684524Y-14704143D01*
X11684524Y-14704143D02*
X11703572Y-14713667D01*
X11703572Y-14713667D02*
X11713095Y-14723190D01*
X11713095Y-14723190D02*
X11722619Y-14742238D01*
X11722619Y-14742238D02*
X11722619Y-14799381D01*
X11722619Y-14799381D02*
X11713095Y-14818428D01*
X11713095Y-14818428D02*
X11703572Y-14827952D01*
X11703572Y-14827952D02*
X11684524Y-14837476D01*
X11684524Y-14837476D02*
X11655952Y-14837476D01*
X11836905Y-14837476D02*
X11817857Y-14827952D01*
X11817857Y-14827952D02*
X11808333Y-14808905D01*
X11808333Y-14808905D02*
X11808333Y-14637476D01*
X11989286Y-14827952D02*
X11970238Y-14837476D01*
X11970238Y-14837476D02*
X11932143Y-14837476D01*
X11932143Y-14837476D02*
X11913095Y-14827952D01*
X11913095Y-14827952D02*
X11903572Y-14808905D01*
X11903572Y-14808905D02*
X11903572Y-14732714D01*
X11903572Y-14732714D02*
X11913095Y-14713667D01*
X11913095Y-14713667D02*
X11932143Y-14704143D01*
X11932143Y-14704143D02*
X11970238Y-14704143D01*
X11970238Y-14704143D02*
X11989286Y-14713667D01*
X11989286Y-14713667D02*
X11998810Y-14732714D01*
X11998810Y-14732714D02*
X11998810Y-14751762D01*
X11998810Y-14751762D02*
X11903572Y-14770809D01*
X12075000Y-14827952D02*
X12094048Y-14837476D01*
X12094048Y-14837476D02*
X12132143Y-14837476D01*
X12132143Y-14837476D02*
X12151191Y-14827952D01*
X12151191Y-14827952D02*
X12160714Y-14808905D01*
X12160714Y-14808905D02*
X12160714Y-14799381D01*
X12160714Y-14799381D02*
X12151191Y-14780333D01*
X12151191Y-14780333D02*
X12132143Y-14770809D01*
X12132143Y-14770809D02*
X12103572Y-14770809D01*
X12103572Y-14770809D02*
X12084524Y-14761286D01*
X12084524Y-14761286D02*
X12075000Y-14742238D01*
X12075000Y-14742238D02*
X12075000Y-14732714D01*
X12075000Y-14732714D02*
X12084524Y-14713667D01*
X12084524Y-14713667D02*
X12103572Y-14704143D01*
X12103572Y-14704143D02*
X12132143Y-14704143D01*
X12132143Y-14704143D02*
X12151191Y-14713667D01*
X12227381Y-14913667D02*
X12236905Y-14904143D01*
X12236905Y-14904143D02*
X12255953Y-14875571D01*
X12255953Y-14875571D02*
X12265476Y-14856524D01*
X12265476Y-14856524D02*
X12275000Y-14827952D01*
X12275000Y-14827952D02*
X12284524Y-14780333D01*
X12284524Y-14780333D02*
X12284524Y-14742238D01*
X12284524Y-14742238D02*
X12275000Y-14694619D01*
X12275000Y-14694619D02*
X12265476Y-14666048D01*
X12265476Y-14666048D02*
X12255953Y-14647000D01*
X12255953Y-14647000D02*
X12236905Y-14618428D01*
X12236905Y-14618428D02*
X12227381Y-14608905D01*
X12556905Y-14913667D02*
X12547381Y-14904143D01*
X12547381Y-14904143D02*
X12528333Y-14875571D01*
X12528333Y-14875571D02*
X12518810Y-14856524D01*
X12518810Y-14856524D02*
X12509286Y-14827952D01*
X12509286Y-14827952D02*
X12499762Y-14780333D01*
X12499762Y-14780333D02*
X12499762Y-14742238D01*
X12499762Y-14742238D02*
X12509286Y-14694619D01*
X12509286Y-14694619D02*
X12518810Y-14666048D01*
X12518810Y-14666048D02*
X12528333Y-14647000D01*
X12528333Y-14647000D02*
X12547381Y-14618428D01*
X12547381Y-14618428D02*
X12556905Y-14608905D01*
X12633095Y-14704143D02*
X12633095Y-14837476D01*
X12633095Y-14723190D02*
X12642619Y-14713667D01*
X12642619Y-14713667D02*
X12661667Y-14704143D01*
X12661667Y-14704143D02*
X12690238Y-14704143D01*
X12690238Y-14704143D02*
X12709286Y-14713667D01*
X12709286Y-14713667D02*
X12718810Y-14732714D01*
X12718810Y-14732714D02*
X12718810Y-14837476D01*
X12842619Y-14837476D02*
X12823572Y-14827952D01*
X12823572Y-14827952D02*
X12814048Y-14818428D01*
X12814048Y-14818428D02*
X12804524Y-14799381D01*
X12804524Y-14799381D02*
X12804524Y-14742238D01*
X12804524Y-14742238D02*
X12814048Y-14723190D01*
X12814048Y-14723190D02*
X12823572Y-14713667D01*
X12823572Y-14713667D02*
X12842619Y-14704143D01*
X12842619Y-14704143D02*
X12871191Y-14704143D01*
X12871191Y-14704143D02*
X12890238Y-14713667D01*
X12890238Y-14713667D02*
X12899762Y-14723190D01*
X12899762Y-14723190D02*
X12909286Y-14742238D01*
X12909286Y-14742238D02*
X12909286Y-14799381D01*
X12909286Y-14799381D02*
X12899762Y-14818428D01*
X12899762Y-14818428D02*
X12890238Y-14827952D01*
X12890238Y-14827952D02*
X12871191Y-14837476D01*
X12871191Y-14837476D02*
X12842619Y-14837476D01*
X12966429Y-14704143D02*
X13042619Y-14704143D01*
X12995000Y-14637476D02*
X12995000Y-14808905D01*
X12995000Y-14808905D02*
X13004524Y-14827952D01*
X13004524Y-14827952D02*
X13023572Y-14837476D01*
X13023572Y-14837476D02*
X13042619Y-14837476D01*
X13229286Y-14704143D02*
X13229286Y-14904143D01*
X13229286Y-14713667D02*
X13248333Y-14704143D01*
X13248333Y-14704143D02*
X13286429Y-14704143D01*
X13286429Y-14704143D02*
X13305476Y-14713667D01*
X13305476Y-14713667D02*
X13315000Y-14723190D01*
X13315000Y-14723190D02*
X13324524Y-14742238D01*
X13324524Y-14742238D02*
X13324524Y-14799381D01*
X13324524Y-14799381D02*
X13315000Y-14818428D01*
X13315000Y-14818428D02*
X13305476Y-14827952D01*
X13305476Y-14827952D02*
X13286429Y-14837476D01*
X13286429Y-14837476D02*
X13248333Y-14837476D01*
X13248333Y-14837476D02*
X13229286Y-14827952D01*
X13438810Y-14837476D02*
X13419762Y-14827952D01*
X13419762Y-14827952D02*
X13410238Y-14808905D01*
X13410238Y-14808905D02*
X13410238Y-14637476D01*
X13600714Y-14837476D02*
X13600714Y-14732714D01*
X13600714Y-14732714D02*
X13591191Y-14713667D01*
X13591191Y-14713667D02*
X13572143Y-14704143D01*
X13572143Y-14704143D02*
X13534048Y-14704143D01*
X13534048Y-14704143D02*
X13515000Y-14713667D01*
X13600714Y-14827952D02*
X13581667Y-14837476D01*
X13581667Y-14837476D02*
X13534048Y-14837476D01*
X13534048Y-14837476D02*
X13515000Y-14827952D01*
X13515000Y-14827952D02*
X13505476Y-14808905D01*
X13505476Y-14808905D02*
X13505476Y-14789857D01*
X13505476Y-14789857D02*
X13515000Y-14770809D01*
X13515000Y-14770809D02*
X13534048Y-14761286D01*
X13534048Y-14761286D02*
X13581667Y-14761286D01*
X13581667Y-14761286D02*
X13600714Y-14751762D01*
X13667381Y-14704143D02*
X13743572Y-14704143D01*
X13695953Y-14637476D02*
X13695953Y-14808905D01*
X13695953Y-14808905D02*
X13705476Y-14827952D01*
X13705476Y-14827952D02*
X13724524Y-14837476D01*
X13724524Y-14837476D02*
X13743572Y-14837476D01*
X13886429Y-14827952D02*
X13867381Y-14837476D01*
X13867381Y-14837476D02*
X13829286Y-14837476D01*
X13829286Y-14837476D02*
X13810238Y-14827952D01*
X13810238Y-14827952D02*
X13800714Y-14808905D01*
X13800714Y-14808905D02*
X13800714Y-14732714D01*
X13800714Y-14732714D02*
X13810238Y-14713667D01*
X13810238Y-14713667D02*
X13829286Y-14704143D01*
X13829286Y-14704143D02*
X13867381Y-14704143D01*
X13867381Y-14704143D02*
X13886429Y-14713667D01*
X13886429Y-14713667D02*
X13895953Y-14732714D01*
X13895953Y-14732714D02*
X13895953Y-14751762D01*
X13895953Y-14751762D02*
X13800714Y-14770809D01*
X14067381Y-14837476D02*
X14067381Y-14637476D01*
X14067381Y-14827952D02*
X14048334Y-14837476D01*
X14048334Y-14837476D02*
X14010238Y-14837476D01*
X14010238Y-14837476D02*
X13991191Y-14827952D01*
X13991191Y-14827952D02*
X13981667Y-14818428D01*
X13981667Y-14818428D02*
X13972143Y-14799381D01*
X13972143Y-14799381D02*
X13972143Y-14742238D01*
X13972143Y-14742238D02*
X13981667Y-14723190D01*
X13981667Y-14723190D02*
X13991191Y-14713667D01*
X13991191Y-14713667D02*
X14010238Y-14704143D01*
X14010238Y-14704143D02*
X14048334Y-14704143D01*
X14048334Y-14704143D02*
X14067381Y-14713667D01*
X14143572Y-14913667D02*
X14153095Y-14904143D01*
X14153095Y-14904143D02*
X14172143Y-14875571D01*
X14172143Y-14875571D02*
X14181667Y-14856524D01*
X14181667Y-14856524D02*
X14191191Y-14827952D01*
X14191191Y-14827952D02*
X14200714Y-14780333D01*
X14200714Y-14780333D02*
X14200714Y-14742238D01*
X14200714Y-14742238D02*
X14191191Y-14694619D01*
X14191191Y-14694619D02*
X14181667Y-14666048D01*
X14181667Y-14666048D02*
X14172143Y-14647000D01*
X14172143Y-14647000D02*
X14153095Y-14618428D01*
X14153095Y-14618428D02*
X14143572Y-14608905D01*
M02*
