%TF.GenerationSoftware,KiCad,Pcbnew,(6.0.7-1)-1*%
%TF.CreationDate,2022-09-12T11:44:39+02:00*%
%TF.ProjectId,Flux_BMS,466c7578-5f42-44d5-932e-6b696361645f,rev?*%
%TF.SameCoordinates,Original*%
%TF.FileFunction,Soldermask,Top*%
%TF.FilePolarity,Negative*%
%FSLAX46Y46*%
G04 Gerber Fmt 4.6, Leading zero omitted, Abs format (unit mm)*
G04 Created by KiCad (PCBNEW (6.0.7-1)-1) date 2022-09-12 11:44:39*
%MOMM*%
%LPD*%
G01*
G04 APERTURE LIST*
G04 Aperture macros list*
%AMRoundRect*
0 Rectangle with rounded corners*
0 $1 Rounding radius*
0 $2 $3 $4 $5 $6 $7 $8 $9 X,Y pos of 4 corners*
0 Add a 4 corners polygon primitive as box body*
4,1,4,$2,$3,$4,$5,$6,$7,$8,$9,$2,$3,0*
0 Add four circle primitives for the rounded corners*
1,1,$1+$1,$2,$3*
1,1,$1+$1,$4,$5*
1,1,$1+$1,$6,$7*
1,1,$1+$1,$8,$9*
0 Add four rect primitives between the rounded corners*
20,1,$1+$1,$2,$3,$4,$5,0*
20,1,$1+$1,$4,$5,$6,$7,0*
20,1,$1+$1,$6,$7,$8,$9,0*
20,1,$1+$1,$8,$9,$2,$3,0*%
%AMFreePoly0*
4,1,9,3.862500,-0.866500,0.737500,-0.866500,0.737500,-0.450000,-0.737500,-0.450000,-0.737500,0.450000,0.737500,0.450000,0.737500,0.866500,3.862500,0.866500,3.862500,-0.866500,3.862500,-0.866500,$1*%
G04 Aperture macros list end*
%ADD10C,0.600000*%
%ADD11R,4.000000X4.000000*%
%ADD12R,0.850000X0.500000*%
%ADD13R,3.750000X4.410000*%
%ADD14R,0.800000X0.600000*%
%ADD15RoundRect,0.250000X-0.362500X-1.425000X0.362500X-1.425000X0.362500X1.425000X-0.362500X1.425000X0*%
%ADD16RoundRect,0.150000X-0.150000X0.587500X-0.150000X-0.587500X0.150000X-0.587500X0.150000X0.587500X0*%
%ADD17RoundRect,0.243750X0.456250X-0.243750X0.456250X0.243750X-0.456250X0.243750X-0.456250X-0.243750X0*%
%ADD18C,1.500000*%
%ADD19R,2.410000X3.100000*%
%ADD20RoundRect,0.150000X-0.650000X-0.150000X0.650000X-0.150000X0.650000X0.150000X-0.650000X0.150000X0*%
%ADD21RoundRect,0.250000X0.262500X0.450000X-0.262500X0.450000X-0.262500X-0.450000X0.262500X-0.450000X0*%
%ADD22RoundRect,0.250000X0.650000X-0.325000X0.650000X0.325000X-0.650000X0.325000X-0.650000X-0.325000X0*%
%ADD23RoundRect,0.250000X-0.250000X-0.475000X0.250000X-0.475000X0.250000X0.475000X-0.250000X0.475000X0*%
%ADD24RoundRect,0.250000X-0.475000X0.250000X-0.475000X-0.250000X0.475000X-0.250000X0.475000X0.250000X0*%
%ADD25RoundRect,0.250000X0.450000X-0.262500X0.450000X0.262500X-0.450000X0.262500X-0.450000X-0.262500X0*%
%ADD26RoundRect,0.250000X-1.425000X0.362500X-1.425000X-0.362500X1.425000X-0.362500X1.425000X0.362500X0*%
%ADD27O,1.000000X1.600000*%
%ADD28O,1.000000X2.100000*%
%ADD29R,0.600000X1.450000*%
%ADD30R,0.300000X1.450000*%
%ADD31C,0.650000*%
%ADD32RoundRect,0.250000X0.475000X-0.250000X0.475000X0.250000X-0.475000X0.250000X-0.475000X-0.250000X0*%
%ADD33RoundRect,0.150000X-0.150000X0.825000X-0.150000X-0.825000X0.150000X-0.825000X0.150000X0.825000X0*%
%ADD34RoundRect,0.250000X0.625000X-0.350000X0.625000X0.350000X-0.625000X0.350000X-0.625000X-0.350000X0*%
%ADD35O,1.750000X1.200000*%
%ADD36O,1.950000X1.700000*%
%ADD37RoundRect,0.250000X-0.725000X0.600000X-0.725000X-0.600000X0.725000X-0.600000X0.725000X0.600000X0*%
%ADD38RoundRect,0.250000X0.250000X0.475000X-0.250000X0.475000X-0.250000X-0.475000X0.250000X-0.475000X0*%
%ADD39RoundRect,0.250000X-0.262500X-0.450000X0.262500X-0.450000X0.262500X0.450000X-0.262500X0.450000X0*%
%ADD40R,0.900000X1.300000*%
%ADD41FreePoly0,270.000000*%
%ADD42R,0.450000X0.600000*%
%ADD43RoundRect,0.100000X0.100000X-0.637500X0.100000X0.637500X-0.100000X0.637500X-0.100000X-0.637500X0*%
%ADD44R,2.000000X2.400000*%
%ADD45R,1.100000X0.285000*%
%ADD46R,1.700000X1.700000*%
%ADD47O,1.700000X1.700000*%
%ADD48RoundRect,0.250000X-0.325000X-0.650000X0.325000X-0.650000X0.325000X0.650000X-0.325000X0.650000X0*%
%ADD49RoundRect,0.250000X-0.450000X0.262500X-0.450000X-0.262500X0.450000X-0.262500X0.450000X0.262500X0*%
%ADD50RoundRect,0.243750X-0.456250X0.243750X-0.456250X-0.243750X0.456250X-0.243750X0.456250X0.243750X0*%
%ADD51R,1.500000X4.000000*%
%ADD52RoundRect,0.075000X-0.075000X0.700000X-0.075000X-0.700000X0.075000X-0.700000X0.075000X0.700000X0*%
%ADD53RoundRect,0.075000X-0.700000X0.075000X-0.700000X-0.075000X0.700000X-0.075000X0.700000X0.075000X0*%
%ADD54RoundRect,0.250000X0.350000X0.625000X-0.350000X0.625000X-0.350000X-0.625000X0.350000X-0.625000X0*%
%ADD55O,1.200000X1.750000*%
%ADD56RoundRect,0.150000X-0.512500X-0.150000X0.512500X-0.150000X0.512500X0.150000X-0.512500X0.150000X0*%
%ADD57RoundRect,0.250000X-0.650000X0.325000X-0.650000X-0.325000X0.650000X-0.325000X0.650000X0.325000X0*%
G04 APERTURE END LIST*
D10*
%TO.C,TP4*%
X142200000Y-52200000D03*
X143200000Y-53200000D03*
X143200000Y-52200000D03*
X143200000Y-54200000D03*
X144200000Y-52200000D03*
X142200000Y-51200000D03*
X143200000Y-51200000D03*
X145200000Y-54200000D03*
X145200000Y-51200000D03*
X144200000Y-53200000D03*
X145200000Y-53200000D03*
X142200000Y-54200000D03*
X145200000Y-52200000D03*
D11*
X143700000Y-52700000D03*
D10*
X144200000Y-51200000D03*
X144200000Y-54200000D03*
X142200000Y-53200000D03*
%TD*%
%TO.C,TP3*%
X150200000Y-54100000D03*
X152200000Y-53100000D03*
X150200000Y-53100000D03*
X150200000Y-51100000D03*
X151200000Y-54100000D03*
X149200000Y-51100000D03*
X149200000Y-54100000D03*
X151200000Y-51100000D03*
X149200000Y-52100000D03*
X152200000Y-52100000D03*
X152200000Y-51100000D03*
X151200000Y-53100000D03*
X152200000Y-54100000D03*
D11*
X150700000Y-52600000D03*
D10*
X151200000Y-52100000D03*
X150200000Y-52100000D03*
X149200000Y-53100000D03*
%TD*%
D12*
%TO.C,Q14*%
X128697500Y-57265000D03*
X128697500Y-58535000D03*
X128697500Y-55995000D03*
D13*
X132247500Y-57900000D03*
D14*
X134522500Y-55995000D03*
X134522500Y-57265000D03*
X134522500Y-58535000D03*
X134522500Y-59805000D03*
D12*
X128697500Y-59805000D03*
%TD*%
D15*
%TO.C,R17*%
X94662500Y-106571424D03*
X88737500Y-106571424D03*
%TD*%
D16*
%TO.C,Q4*%
X99000000Y-105600000D03*
X97100000Y-105600000D03*
X98050000Y-107475000D03*
%TD*%
D17*
%TO.C,D31*%
X147550000Y-90587500D03*
X147550000Y-88712500D03*
%TD*%
D18*
%TO.C,TP5*%
X146035000Y-70535000D03*
%TD*%
D19*
%TO.C,U6*%
X135435000Y-77335000D03*
D20*
X138085000Y-75430000D03*
X138085000Y-76700000D03*
X138085000Y-77970000D03*
X138085000Y-79240000D03*
X132785000Y-79240000D03*
X132785000Y-77970000D03*
X132785000Y-76700000D03*
X132785000Y-75430000D03*
%TD*%
D16*
%TO.C,Q7*%
X99000000Y-73662500D03*
X97100000Y-73662500D03*
X98050000Y-75537500D03*
%TD*%
D17*
%TO.C,D26*%
X123050000Y-140737500D03*
X123050000Y-138862500D03*
%TD*%
D21*
%TO.C,R63*%
X163612500Y-137200000D03*
X161787500Y-137200000D03*
%TD*%
D22*
%TO.C,C34*%
X128235000Y-76410000D03*
X128235000Y-73460000D03*
%TD*%
D23*
%TO.C,C16*%
X141750000Y-104650000D03*
X143650000Y-104650000D03*
%TD*%
D16*
%TO.C,Q9*%
X99000000Y-137662500D03*
X97100000Y-137662500D03*
X98050000Y-139537500D03*
%TD*%
D24*
%TO.C,C39*%
X134450000Y-92100000D03*
X134450000Y-94000000D03*
%TD*%
D10*
%TO.C,TP2*%
X133600000Y-52960000D03*
X135600000Y-53960000D03*
X132600000Y-52960000D03*
X134600000Y-52960000D03*
X133600000Y-53960000D03*
X134600000Y-53960000D03*
X133600000Y-51960000D03*
X132600000Y-51960000D03*
X134600000Y-50960000D03*
X135600000Y-50960000D03*
X135600000Y-52960000D03*
D11*
X134100000Y-52460000D03*
D10*
X132600000Y-50960000D03*
X135600000Y-51960000D03*
X134600000Y-51960000D03*
X133600000Y-50960000D03*
X132600000Y-53960000D03*
%TD*%
D25*
%TO.C,R69*%
X145550000Y-90562500D03*
X145550000Y-88737500D03*
%TD*%
D26*
%TO.C,R61*%
X150800000Y-55537500D03*
X150800000Y-61462500D03*
%TD*%
D27*
%TO.C,J3*%
X148620000Y-147250000D03*
D28*
X139980000Y-143070000D03*
X148620000Y-143070000D03*
D27*
X139980000Y-147250000D03*
D29*
X141050000Y-142155000D03*
X141850000Y-142155000D03*
D30*
X142550000Y-142155000D03*
X143550000Y-142155000D03*
X145050000Y-142155000D03*
X146050000Y-142155000D03*
D29*
X146750000Y-142155000D03*
X147550000Y-142155000D03*
X147550000Y-142155000D03*
X146750000Y-142155000D03*
D30*
X145550000Y-142155000D03*
X144550000Y-142155000D03*
X144050000Y-142155000D03*
X143050000Y-142155000D03*
D29*
X141850000Y-142155000D03*
X141050000Y-142155000D03*
D31*
X141410000Y-143600000D03*
X147190000Y-143600000D03*
%TD*%
D15*
%TO.C,R41*%
X88737500Y-144950000D03*
X94662500Y-144950000D03*
%TD*%
D12*
%TO.C,Q15*%
X141700000Y-57265000D03*
X141700000Y-59805000D03*
X141700000Y-58535000D03*
D14*
X135875000Y-57265000D03*
X135875000Y-58535000D03*
D13*
X138150000Y-57900000D03*
D14*
X135875000Y-55995000D03*
X135875000Y-59805000D03*
D12*
X141700000Y-55995000D03*
%TD*%
D32*
%TO.C,C32*%
X160900000Y-134100000D03*
X160900000Y-132200000D03*
%TD*%
D33*
%TO.C,U5*%
X166655000Y-128675000D03*
X165385000Y-128675000D03*
X164115000Y-128675000D03*
X162845000Y-128675000D03*
X162845000Y-133625000D03*
X164115000Y-133625000D03*
X165385000Y-133625000D03*
X166655000Y-133625000D03*
%TD*%
D15*
%TO.C,R72*%
X94662500Y-61796428D03*
X88737500Y-61796428D03*
%TD*%
D34*
%TO.C,J7*%
X171700000Y-122000000D03*
D35*
X171700000Y-120000000D03*
X171700000Y-118000000D03*
X171700000Y-116000000D03*
X171700000Y-114000000D03*
%TD*%
D23*
%TO.C,C17*%
X136850000Y-109450000D03*
X138750000Y-109450000D03*
%TD*%
D36*
%TO.C,J6*%
X78875000Y-129000000D03*
X78875000Y-126500000D03*
X78875000Y-124000000D03*
X78875000Y-121500000D03*
X78875000Y-119000000D03*
X78875000Y-116500000D03*
X78875000Y-114000000D03*
D37*
X78875000Y-111500000D03*
%TD*%
D16*
%TO.C,Q1*%
X99000000Y-86462500D03*
X97100000Y-86462500D03*
X98050000Y-88337500D03*
%TD*%
D38*
%TO.C,C15*%
X147150000Y-104650000D03*
X145250000Y-104650000D03*
%TD*%
D39*
%TO.C,R1*%
X146987500Y-139500000D03*
X148812500Y-139500000D03*
%TD*%
D16*
%TO.C,Q3*%
X99000000Y-99312500D03*
X97100000Y-99312500D03*
X98050000Y-101187500D03*
%TD*%
D24*
%TO.C,C26*%
X157850000Y-86000000D03*
X157850000Y-87900000D03*
%TD*%
%TO.C,C38*%
X141635000Y-78785000D03*
X141635000Y-80685000D03*
%TD*%
D17*
%TO.C,D25*%
X121040000Y-140737500D03*
X121040000Y-138862500D03*
%TD*%
D16*
%TO.C,Q17*%
X99000000Y-54462500D03*
X97100000Y-54462500D03*
X98050000Y-56337500D03*
%TD*%
D21*
%TO.C,R68*%
X139547500Y-82735000D03*
X137722500Y-82735000D03*
%TD*%
D40*
%TO.C,U7*%
X139650000Y-92262500D03*
D41*
X138150000Y-92350000D03*
D40*
X136650000Y-92262500D03*
%TD*%
D17*
%TO.C,D29*%
X152030000Y-73422500D03*
X152030000Y-71547500D03*
%TD*%
D15*
%TO.C,R9*%
X94662500Y-93778568D03*
X88737500Y-93778568D03*
%TD*%
D42*
%TO.C,D34*%
X100950000Y-54350000D03*
X100950000Y-56450000D03*
%TD*%
D39*
%TO.C,R64*%
X128922500Y-78335000D03*
X130747500Y-78335000D03*
%TD*%
D43*
%TO.C,U3*%
X164124159Y-87662020D03*
X164774159Y-87662020D03*
X165424159Y-87662020D03*
X166074159Y-87662020D03*
X166724159Y-87662020D03*
X167374159Y-87662020D03*
X168024159Y-87662020D03*
X168674159Y-87662020D03*
X168674159Y-81937020D03*
X168024159Y-81937020D03*
X167374159Y-81937020D03*
X166724159Y-81937020D03*
X166074159Y-81937020D03*
X165424159Y-81937020D03*
X164774159Y-81937020D03*
X164124159Y-81937020D03*
%TD*%
D16*
%TO.C,Q5*%
X99000000Y-112112500D03*
X97100000Y-112112500D03*
X98050000Y-113987500D03*
%TD*%
D21*
%TO.C,R62*%
X167212500Y-137200000D03*
X165387500Y-137200000D03*
%TD*%
D15*
%TO.C,R25*%
X94662500Y-119364280D03*
X88737500Y-119364280D03*
%TD*%
D25*
%TO.C,R65*%
X149930000Y-73397500D03*
X149930000Y-71572500D03*
%TD*%
D39*
%TO.C,R58*%
X161037500Y-70350000D03*
X162862500Y-70350000D03*
%TD*%
D15*
%TO.C,R49*%
X94662500Y-80985712D03*
X88737500Y-80985712D03*
%TD*%
D44*
%TO.C,X1*%
X143050000Y-108450000D03*
X146750000Y-108450000D03*
%TD*%
D45*
%TO.C,U1*%
X112650000Y-92200000D03*
X112650000Y-92700000D03*
X112650000Y-93200000D03*
X112650000Y-93700000D03*
X112650000Y-94200000D03*
X112650000Y-94700000D03*
X112650000Y-95200000D03*
X112650000Y-95700000D03*
X112650000Y-96200000D03*
X112650000Y-96700000D03*
X112650000Y-97200000D03*
X112650000Y-97700000D03*
X112650000Y-98200000D03*
X112650000Y-98700000D03*
X112650000Y-99200000D03*
X112650000Y-99700000D03*
X112650000Y-100200000D03*
X112650000Y-100700000D03*
X112650000Y-101200000D03*
X112650000Y-101700000D03*
X112650000Y-102200000D03*
X112650000Y-102700000D03*
X118350000Y-102700000D03*
X118350000Y-102200000D03*
X118350000Y-101700000D03*
X118350000Y-101200000D03*
X118350000Y-100700000D03*
X118350000Y-100200000D03*
X118350000Y-99700000D03*
X118350000Y-99200000D03*
X118350000Y-98700000D03*
X118350000Y-98200000D03*
X118350000Y-97700000D03*
X118350000Y-97200000D03*
X118350000Y-96700000D03*
X118350000Y-96200000D03*
X118350000Y-95700000D03*
X118350000Y-95200000D03*
X118350000Y-94700000D03*
X118350000Y-94200000D03*
X118350000Y-93700000D03*
X118350000Y-93200000D03*
X118350000Y-92700000D03*
X118350000Y-92200000D03*
%TD*%
D23*
%TO.C,C28*%
X169050000Y-70650000D03*
X170950000Y-70650000D03*
%TD*%
D46*
%TO.C,J8*%
X162700000Y-101400000D03*
D47*
X165240000Y-101400000D03*
X167780000Y-101400000D03*
X170320000Y-101400000D03*
X172860000Y-101400000D03*
%TD*%
D32*
%TO.C,C35*%
X130435000Y-76485000D03*
X130435000Y-74585000D03*
%TD*%
D21*
%TO.C,R67*%
X145747500Y-82735000D03*
X143922500Y-82735000D03*
%TD*%
D32*
%TO.C,C20*%
X134550000Y-113550000D03*
X134550000Y-111650000D03*
%TD*%
D16*
%TO.C,Q10*%
X99000000Y-144012500D03*
X97100000Y-144012500D03*
X98050000Y-145887500D03*
%TD*%
D21*
%TO.C,R2*%
X141612500Y-139500000D03*
X139787500Y-139500000D03*
%TD*%
D16*
%TO.C,Q16*%
X99000000Y-60862500D03*
X97100000Y-60862500D03*
X98050000Y-62737500D03*
%TD*%
D15*
%TO.C,R55*%
X94662500Y-125760708D03*
X88737500Y-125760708D03*
%TD*%
%TO.C,R13*%
X94662500Y-100174996D03*
X88737500Y-100174996D03*
%TD*%
%TO.C,R37*%
X88737500Y-138553564D03*
X94662500Y-138553564D03*
%TD*%
D18*
%TO.C,TP6*%
X147050000Y-94350000D03*
%TD*%
D32*
%TO.C,C33*%
X141035000Y-76885000D03*
X141035000Y-74985000D03*
%TD*%
D48*
%TO.C,C37*%
X148325000Y-78950000D03*
X151275000Y-78950000D03*
%TD*%
D15*
%TO.C,R21*%
X94662500Y-112967852D03*
X88737500Y-112967852D03*
%TD*%
D23*
%TO.C,C18*%
X136850000Y-107450000D03*
X138750000Y-107450000D03*
%TD*%
D49*
%TO.C,R52*%
X123040000Y-135287500D03*
X123040000Y-137112500D03*
%TD*%
D50*
%TO.C,D35*%
X103050000Y-54462500D03*
X103050000Y-56337500D03*
%TD*%
D51*
%TO.C,L1*%
X138435000Y-71335000D03*
X142035000Y-71335000D03*
%TD*%
D15*
%TO.C,R29*%
X94662500Y-74589284D03*
X88737500Y-74589284D03*
%TD*%
%TO.C,R76*%
X94662500Y-55400000D03*
X88737500Y-55400000D03*
%TD*%
D52*
%TO.C,U2*%
X146250000Y-113375000D03*
X145750000Y-113375000D03*
X145250000Y-113375000D03*
X144750000Y-113375000D03*
X144250000Y-113375000D03*
X143750000Y-113375000D03*
X143250000Y-113375000D03*
X142750000Y-113375000D03*
X142250000Y-113375000D03*
X141750000Y-113375000D03*
X141250000Y-113375000D03*
X140750000Y-113375000D03*
X140250000Y-113375000D03*
X139750000Y-113375000D03*
X139250000Y-113375000D03*
X138750000Y-113375000D03*
D53*
X136825000Y-115300000D03*
X136825000Y-115800000D03*
X136825000Y-116300000D03*
X136825000Y-116800000D03*
X136825000Y-117300000D03*
X136825000Y-117800000D03*
X136825000Y-118300000D03*
X136825000Y-118800000D03*
X136825000Y-119300000D03*
X136825000Y-119800000D03*
X136825000Y-120300000D03*
X136825000Y-120800000D03*
X136825000Y-121300000D03*
X136825000Y-121800000D03*
X136825000Y-122300000D03*
X136825000Y-122800000D03*
D52*
X138750000Y-124725000D03*
X139250000Y-124725000D03*
X139750000Y-124725000D03*
X140250000Y-124725000D03*
X140750000Y-124725000D03*
X141250000Y-124725000D03*
X141750000Y-124725000D03*
X142250000Y-124725000D03*
X142750000Y-124725000D03*
X143250000Y-124725000D03*
X143750000Y-124725000D03*
X144250000Y-124725000D03*
X144750000Y-124725000D03*
X145250000Y-124725000D03*
X145750000Y-124725000D03*
X146250000Y-124725000D03*
D53*
X148175000Y-122800000D03*
X148175000Y-122300000D03*
X148175000Y-121800000D03*
X148175000Y-121300000D03*
X148175000Y-120800000D03*
X148175000Y-120300000D03*
X148175000Y-119800000D03*
X148175000Y-119300000D03*
X148175000Y-118800000D03*
X148175000Y-118300000D03*
X148175000Y-117800000D03*
X148175000Y-117300000D03*
X148175000Y-116800000D03*
X148175000Y-116300000D03*
X148175000Y-115800000D03*
X148175000Y-115300000D03*
%TD*%
D32*
%TO.C,C21*%
X132900000Y-123600000D03*
X132900000Y-121700000D03*
%TD*%
D39*
%TO.C,R66*%
X128922500Y-80335000D03*
X130747500Y-80335000D03*
%TD*%
D38*
%TO.C,C27*%
X166450000Y-70400000D03*
X164550000Y-70400000D03*
%TD*%
D54*
%TO.C,J4*%
X165300000Y-144350000D03*
D55*
X163300000Y-144350000D03*
%TD*%
D16*
%TO.C,Q11*%
X99000000Y-67312500D03*
X97100000Y-67312500D03*
X98050000Y-69187500D03*
%TD*%
D32*
%TO.C,C19*%
X149350000Y-112100000D03*
X149350000Y-110200000D03*
%TD*%
D56*
%TO.C,U4*%
X156087500Y-114900000D03*
X156087500Y-116800000D03*
X153812500Y-116800000D03*
X153812500Y-115850000D03*
X153812500Y-114900000D03*
%TD*%
D49*
%TO.C,R51*%
X121040000Y-135287500D03*
X121040000Y-137112500D03*
%TD*%
%TO.C,R57*%
X160000000Y-86037500D03*
X160000000Y-87862500D03*
%TD*%
D16*
%TO.C,Q12*%
X99000000Y-80062500D03*
X97100000Y-80062500D03*
X98050000Y-81937500D03*
%TD*%
D15*
%TO.C,R45*%
X94662500Y-68192856D03*
X88737500Y-68192856D03*
%TD*%
D23*
%TO.C,C31*%
X161750000Y-139250000D03*
X163650000Y-139250000D03*
%TD*%
D15*
%TO.C,R33*%
X94662500Y-132157136D03*
X88737500Y-132157136D03*
%TD*%
D32*
%TO.C,C25*%
X162150000Y-87900000D03*
X162150000Y-86000000D03*
%TD*%
D23*
%TO.C,C30*%
X163700000Y-125450000D03*
X165600000Y-125450000D03*
%TD*%
D15*
%TO.C,R5*%
X94662500Y-87382140D03*
X88737500Y-87382140D03*
%TD*%
D24*
%TO.C,C40*%
X141850000Y-92100000D03*
X141850000Y-94000000D03*
%TD*%
D37*
%TO.C,J5*%
X78975000Y-70900000D03*
D36*
X78975000Y-73400000D03*
X78975000Y-75900000D03*
X78975000Y-78400000D03*
X78975000Y-80900000D03*
X78975000Y-83400000D03*
X78975000Y-85900000D03*
X78975000Y-88400000D03*
%TD*%
D24*
%TO.C,C22*%
X148500000Y-125900000D03*
X148500000Y-127800000D03*
%TD*%
D16*
%TO.C,Q13*%
X99000000Y-124900000D03*
X97100000Y-124900000D03*
X98050000Y-126775000D03*
%TD*%
D32*
%TO.C,C23*%
X151400000Y-112100000D03*
X151400000Y-110200000D03*
%TD*%
D57*
%TO.C,C36*%
X143035000Y-74460000D03*
X143035000Y-77410000D03*
%TD*%
D16*
%TO.C,Q6*%
X99000000Y-118462500D03*
X97100000Y-118462500D03*
X98050000Y-120337500D03*
%TD*%
%TO.C,Q2*%
X99000000Y-92762500D03*
X97100000Y-92762500D03*
X98050000Y-94637500D03*
%TD*%
%TO.C,Q8*%
X99000000Y-131262500D03*
X97100000Y-131262500D03*
X98050000Y-133137500D03*
%TD*%
D10*
%TO.C,TP1*%
X128600000Y-51975000D03*
X125600000Y-51975000D03*
X126600000Y-53975000D03*
D11*
X127100000Y-52475000D03*
D10*
X126600000Y-52975000D03*
X125600000Y-52975000D03*
X128600000Y-50975000D03*
X127600000Y-51975000D03*
X128600000Y-52975000D03*
X127600000Y-52975000D03*
X126600000Y-51975000D03*
X127600000Y-53975000D03*
X126600000Y-50975000D03*
X127600000Y-50975000D03*
X125600000Y-50975000D03*
X125600000Y-53975000D03*
X128600000Y-53975000D03*
%TD*%
M02*
