%TF.GenerationSoftware,KiCad,Pcbnew,6.0.5*%
%TF.CreationDate,2022-06-29T09:43:05+02:00*%
%TF.ProjectId,Flux_BMS,466c7578-5f42-44d5-932e-6b696361645f,rev?*%
%TF.SameCoordinates,Original*%
%TF.FileFunction,Legend,Top*%
%TF.FilePolarity,Positive*%
%FSLAX46Y46*%
G04 Gerber Fmt 4.6, Leading zero omitted, Abs format (unit mm)*
G04 Created by KiCad (PCBNEW 6.0.5) date 2022-06-29 09:43:05*
%MOMM*%
%LPD*%
G01*
G04 APERTURE LIST*
%ADD10C,0.150000*%
%ADD11C,0.120000*%
G04 APERTURE END LIST*
D10*
%TO.C,R20*%
X120502380Y-55242857D02*
X120026190Y-55576190D01*
X120502380Y-55814285D02*
X119502380Y-55814285D01*
X119502380Y-55433333D01*
X119550000Y-55338095D01*
X119597619Y-55290476D01*
X119692857Y-55242857D01*
X119835714Y-55242857D01*
X119930952Y-55290476D01*
X119978571Y-55338095D01*
X120026190Y-55433333D01*
X120026190Y-55814285D01*
X119597619Y-54861904D02*
X119550000Y-54814285D01*
X119502380Y-54719047D01*
X119502380Y-54480952D01*
X119550000Y-54385714D01*
X119597619Y-54338095D01*
X119692857Y-54290476D01*
X119788095Y-54290476D01*
X119930952Y-54338095D01*
X120502380Y-54909523D01*
X120502380Y-54290476D01*
X119502380Y-53671428D02*
X119502380Y-53576190D01*
X119550000Y-53480952D01*
X119597619Y-53433333D01*
X119692857Y-53385714D01*
X119883333Y-53338095D01*
X120121428Y-53338095D01*
X120311904Y-53385714D01*
X120407142Y-53433333D01*
X120454761Y-53480952D01*
X120502380Y-53576190D01*
X120502380Y-53671428D01*
X120454761Y-53766666D01*
X120407142Y-53814285D01*
X120311904Y-53861904D01*
X120121428Y-53909523D01*
X119883333Y-53909523D01*
X119692857Y-53861904D01*
X119597619Y-53814285D01*
X119550000Y-53766666D01*
X119502380Y-53671428D01*
%TO.C,R3*%
X106833333Y-58432380D02*
X106500000Y-57956190D01*
X106261904Y-58432380D02*
X106261904Y-57432380D01*
X106642857Y-57432380D01*
X106738095Y-57480000D01*
X106785714Y-57527619D01*
X106833333Y-57622857D01*
X106833333Y-57765714D01*
X106785714Y-57860952D01*
X106738095Y-57908571D01*
X106642857Y-57956190D01*
X106261904Y-57956190D01*
X107166666Y-57432380D02*
X107785714Y-57432380D01*
X107452380Y-57813333D01*
X107595238Y-57813333D01*
X107690476Y-57860952D01*
X107738095Y-57908571D01*
X107785714Y-58003809D01*
X107785714Y-58241904D01*
X107738095Y-58337142D01*
X107690476Y-58384761D01*
X107595238Y-58432380D01*
X107309523Y-58432380D01*
X107214285Y-58384761D01*
X107166666Y-58337142D01*
%TO.C,D2*%
X171024404Y-62902380D02*
X171024404Y-61902380D01*
X171262500Y-61902380D01*
X171405357Y-61950000D01*
X171500595Y-62045238D01*
X171548214Y-62140476D01*
X171595833Y-62330952D01*
X171595833Y-62473809D01*
X171548214Y-62664285D01*
X171500595Y-62759523D01*
X171405357Y-62854761D01*
X171262500Y-62902380D01*
X171024404Y-62902380D01*
X171976785Y-61997619D02*
X172024404Y-61950000D01*
X172119642Y-61902380D01*
X172357738Y-61902380D01*
X172452976Y-61950000D01*
X172500595Y-61997619D01*
X172548214Y-62092857D01*
X172548214Y-62188095D01*
X172500595Y-62330952D01*
X171929166Y-62902380D01*
X172548214Y-62902380D01*
%TO.C,C15*%
X139907142Y-76577142D02*
X139859523Y-76624761D01*
X139716666Y-76672380D01*
X139621428Y-76672380D01*
X139478571Y-76624761D01*
X139383333Y-76529523D01*
X139335714Y-76434285D01*
X139288095Y-76243809D01*
X139288095Y-76100952D01*
X139335714Y-75910476D01*
X139383333Y-75815238D01*
X139478571Y-75720000D01*
X139621428Y-75672380D01*
X139716666Y-75672380D01*
X139859523Y-75720000D01*
X139907142Y-75767619D01*
X140859523Y-76672380D02*
X140288095Y-76672380D01*
X140573809Y-76672380D02*
X140573809Y-75672380D01*
X140478571Y-75815238D01*
X140383333Y-75910476D01*
X140288095Y-75958095D01*
X141764285Y-75672380D02*
X141288095Y-75672380D01*
X141240476Y-76148571D01*
X141288095Y-76100952D01*
X141383333Y-76053333D01*
X141621428Y-76053333D01*
X141716666Y-76100952D01*
X141764285Y-76148571D01*
X141811904Y-76243809D01*
X141811904Y-76481904D01*
X141764285Y-76577142D01*
X141716666Y-76624761D01*
X141621428Y-76672380D01*
X141383333Y-76672380D01*
X141288095Y-76624761D01*
X141240476Y-76577142D01*
%TO.C,J1*%
X82202380Y-70533333D02*
X82916666Y-70533333D01*
X83059523Y-70580952D01*
X83154761Y-70676190D01*
X83202380Y-70819047D01*
X83202380Y-70914285D01*
X83202380Y-69533333D02*
X83202380Y-70104761D01*
X83202380Y-69819047D02*
X82202380Y-69819047D01*
X82345238Y-69914285D01*
X82440476Y-70009523D01*
X82488095Y-70104761D01*
%TO.C,R35*%
X117452380Y-77642857D02*
X116976190Y-77976190D01*
X117452380Y-78214285D02*
X116452380Y-78214285D01*
X116452380Y-77833333D01*
X116500000Y-77738095D01*
X116547619Y-77690476D01*
X116642857Y-77642857D01*
X116785714Y-77642857D01*
X116880952Y-77690476D01*
X116928571Y-77738095D01*
X116976190Y-77833333D01*
X116976190Y-78214285D01*
X116452380Y-77309523D02*
X116452380Y-76690476D01*
X116833333Y-77023809D01*
X116833333Y-76880952D01*
X116880952Y-76785714D01*
X116928571Y-76738095D01*
X117023809Y-76690476D01*
X117261904Y-76690476D01*
X117357142Y-76738095D01*
X117404761Y-76785714D01*
X117452380Y-76880952D01*
X117452380Y-77166666D01*
X117404761Y-77261904D01*
X117357142Y-77309523D01*
X116452380Y-75785714D02*
X116452380Y-76261904D01*
X116928571Y-76309523D01*
X116880952Y-76261904D01*
X116833333Y-76166666D01*
X116833333Y-75928571D01*
X116880952Y-75833333D01*
X116928571Y-75785714D01*
X117023809Y-75738095D01*
X117261904Y-75738095D01*
X117357142Y-75785714D01*
X117404761Y-75833333D01*
X117452380Y-75928571D01*
X117452380Y-76166666D01*
X117404761Y-76261904D01*
X117357142Y-76309523D01*
%TO.C,R2*%
X120502380Y-60966666D02*
X120026190Y-61300000D01*
X120502380Y-61538095D02*
X119502380Y-61538095D01*
X119502380Y-61157142D01*
X119550000Y-61061904D01*
X119597619Y-61014285D01*
X119692857Y-60966666D01*
X119835714Y-60966666D01*
X119930952Y-61014285D01*
X119978571Y-61061904D01*
X120026190Y-61157142D01*
X120026190Y-61538095D01*
X119597619Y-60585714D02*
X119550000Y-60538095D01*
X119502380Y-60442857D01*
X119502380Y-60204761D01*
X119550000Y-60109523D01*
X119597619Y-60061904D01*
X119692857Y-60014285D01*
X119788095Y-60014285D01*
X119930952Y-60061904D01*
X120502380Y-60633333D01*
X120502380Y-60014285D01*
%TO.C,R32*%
X101302380Y-55042857D02*
X100826190Y-55376190D01*
X101302380Y-55614285D02*
X100302380Y-55614285D01*
X100302380Y-55233333D01*
X100350000Y-55138095D01*
X100397619Y-55090476D01*
X100492857Y-55042857D01*
X100635714Y-55042857D01*
X100730952Y-55090476D01*
X100778571Y-55138095D01*
X100826190Y-55233333D01*
X100826190Y-55614285D01*
X100302380Y-54709523D02*
X100302380Y-54090476D01*
X100683333Y-54423809D01*
X100683333Y-54280952D01*
X100730952Y-54185714D01*
X100778571Y-54138095D01*
X100873809Y-54090476D01*
X101111904Y-54090476D01*
X101207142Y-54138095D01*
X101254761Y-54185714D01*
X101302380Y-54280952D01*
X101302380Y-54566666D01*
X101254761Y-54661904D01*
X101207142Y-54709523D01*
X100397619Y-53709523D02*
X100350000Y-53661904D01*
X100302380Y-53566666D01*
X100302380Y-53328571D01*
X100350000Y-53233333D01*
X100397619Y-53185714D01*
X100492857Y-53138095D01*
X100588095Y-53138095D01*
X100730952Y-53185714D01*
X101302380Y-53757142D01*
X101302380Y-53138095D01*
%TO.C,R14*%
X119052380Y-77442857D02*
X118576190Y-77776190D01*
X119052380Y-78014285D02*
X118052380Y-78014285D01*
X118052380Y-77633333D01*
X118100000Y-77538095D01*
X118147619Y-77490476D01*
X118242857Y-77442857D01*
X118385714Y-77442857D01*
X118480952Y-77490476D01*
X118528571Y-77538095D01*
X118576190Y-77633333D01*
X118576190Y-78014285D01*
X119052380Y-76490476D02*
X119052380Y-77061904D01*
X119052380Y-76776190D02*
X118052380Y-76776190D01*
X118195238Y-76871428D01*
X118290476Y-76966666D01*
X118338095Y-77061904D01*
X118385714Y-75633333D02*
X119052380Y-75633333D01*
X118004761Y-75871428D02*
X118719047Y-76109523D01*
X118719047Y-75490476D01*
%TO.C,R33*%
X86957142Y-52232380D02*
X86623809Y-51756190D01*
X86385714Y-52232380D02*
X86385714Y-51232380D01*
X86766666Y-51232380D01*
X86861904Y-51280000D01*
X86909523Y-51327619D01*
X86957142Y-51422857D01*
X86957142Y-51565714D01*
X86909523Y-51660952D01*
X86861904Y-51708571D01*
X86766666Y-51756190D01*
X86385714Y-51756190D01*
X87290476Y-51232380D02*
X87909523Y-51232380D01*
X87576190Y-51613333D01*
X87719047Y-51613333D01*
X87814285Y-51660952D01*
X87861904Y-51708571D01*
X87909523Y-51803809D01*
X87909523Y-52041904D01*
X87861904Y-52137142D01*
X87814285Y-52184761D01*
X87719047Y-52232380D01*
X87433333Y-52232380D01*
X87338095Y-52184761D01*
X87290476Y-52137142D01*
X88242857Y-51232380D02*
X88861904Y-51232380D01*
X88528571Y-51613333D01*
X88671428Y-51613333D01*
X88766666Y-51660952D01*
X88814285Y-51708571D01*
X88861904Y-51803809D01*
X88861904Y-52041904D01*
X88814285Y-52137142D01*
X88766666Y-52184761D01*
X88671428Y-52232380D01*
X88385714Y-52232380D01*
X88290476Y-52184761D01*
X88242857Y-52137142D01*
%TO.C,Q7*%
X113304761Y-57547619D02*
X113209523Y-57500000D01*
X113114285Y-57404761D01*
X112971428Y-57261904D01*
X112876190Y-57214285D01*
X112780952Y-57214285D01*
X112828571Y-57452380D02*
X112733333Y-57404761D01*
X112638095Y-57309523D01*
X112590476Y-57119047D01*
X112590476Y-56785714D01*
X112638095Y-56595238D01*
X112733333Y-56500000D01*
X112828571Y-56452380D01*
X113019047Y-56452380D01*
X113114285Y-56500000D01*
X113209523Y-56595238D01*
X113257142Y-56785714D01*
X113257142Y-57119047D01*
X113209523Y-57309523D01*
X113114285Y-57404761D01*
X113019047Y-57452380D01*
X112828571Y-57452380D01*
X113590476Y-56452380D02*
X114257142Y-56452380D01*
X113828571Y-57452380D01*
%TO.C,C4*%
X132677142Y-57966666D02*
X132724761Y-58014285D01*
X132772380Y-58157142D01*
X132772380Y-58252380D01*
X132724761Y-58395238D01*
X132629523Y-58490476D01*
X132534285Y-58538095D01*
X132343809Y-58585714D01*
X132200952Y-58585714D01*
X132010476Y-58538095D01*
X131915238Y-58490476D01*
X131820000Y-58395238D01*
X131772380Y-58252380D01*
X131772380Y-58157142D01*
X131820000Y-58014285D01*
X131867619Y-57966666D01*
X132105714Y-57109523D02*
X132772380Y-57109523D01*
X131724761Y-57347619D02*
X132439047Y-57585714D01*
X132439047Y-56966666D01*
%TO.C,Q12*%
X113428571Y-82747619D02*
X113333333Y-82700000D01*
X113238095Y-82604761D01*
X113095238Y-82461904D01*
X113000000Y-82414285D01*
X112904761Y-82414285D01*
X112952380Y-82652380D02*
X112857142Y-82604761D01*
X112761904Y-82509523D01*
X112714285Y-82319047D01*
X112714285Y-81985714D01*
X112761904Y-81795238D01*
X112857142Y-81700000D01*
X112952380Y-81652380D01*
X113142857Y-81652380D01*
X113238095Y-81700000D01*
X113333333Y-81795238D01*
X113380952Y-81985714D01*
X113380952Y-82319047D01*
X113333333Y-82509523D01*
X113238095Y-82604761D01*
X113142857Y-82652380D01*
X112952380Y-82652380D01*
X114333333Y-82652380D02*
X113761904Y-82652380D01*
X114047619Y-82652380D02*
X114047619Y-81652380D01*
X113952380Y-81795238D01*
X113857142Y-81890476D01*
X113761904Y-81938095D01*
X114714285Y-81747619D02*
X114761904Y-81700000D01*
X114857142Y-81652380D01*
X115095238Y-81652380D01*
X115190476Y-81700000D01*
X115238095Y-81747619D01*
X115285714Y-81842857D01*
X115285714Y-81938095D01*
X115238095Y-82080952D01*
X114666666Y-82652380D01*
X115285714Y-82652380D01*
%TO.C,Q5*%
X113704761Y-76547619D02*
X113609523Y-76500000D01*
X113514285Y-76404761D01*
X113371428Y-76261904D01*
X113276190Y-76214285D01*
X113180952Y-76214285D01*
X113228571Y-76452380D02*
X113133333Y-76404761D01*
X113038095Y-76309523D01*
X112990476Y-76119047D01*
X112990476Y-75785714D01*
X113038095Y-75595238D01*
X113133333Y-75500000D01*
X113228571Y-75452380D01*
X113419047Y-75452380D01*
X113514285Y-75500000D01*
X113609523Y-75595238D01*
X113657142Y-75785714D01*
X113657142Y-76119047D01*
X113609523Y-76309523D01*
X113514285Y-76404761D01*
X113419047Y-76452380D01*
X113228571Y-76452380D01*
X114561904Y-75452380D02*
X114085714Y-75452380D01*
X114038095Y-75928571D01*
X114085714Y-75880952D01*
X114180952Y-75833333D01*
X114419047Y-75833333D01*
X114514285Y-75880952D01*
X114561904Y-75928571D01*
X114609523Y-76023809D01*
X114609523Y-76261904D01*
X114561904Y-76357142D01*
X114514285Y-76404761D01*
X114419047Y-76452380D01*
X114180952Y-76452380D01*
X114085714Y-76404761D01*
X114038095Y-76357142D01*
%TO.C,R9*%
X106833333Y-65232380D02*
X106500000Y-64756190D01*
X106261904Y-65232380D02*
X106261904Y-64232380D01*
X106642857Y-64232380D01*
X106738095Y-64280000D01*
X106785714Y-64327619D01*
X106833333Y-64422857D01*
X106833333Y-64565714D01*
X106785714Y-64660952D01*
X106738095Y-64708571D01*
X106642857Y-64756190D01*
X106261904Y-64756190D01*
X107309523Y-65232380D02*
X107500000Y-65232380D01*
X107595238Y-65184761D01*
X107642857Y-65137142D01*
X107738095Y-64994285D01*
X107785714Y-64803809D01*
X107785714Y-64422857D01*
X107738095Y-64327619D01*
X107690476Y-64280000D01*
X107595238Y-64232380D01*
X107404761Y-64232380D01*
X107309523Y-64280000D01*
X107261904Y-64327619D01*
X107214285Y-64422857D01*
X107214285Y-64660952D01*
X107261904Y-64756190D01*
X107309523Y-64803809D01*
X107404761Y-64851428D01*
X107595238Y-64851428D01*
X107690476Y-64803809D01*
X107738095Y-64756190D01*
X107785714Y-64660952D01*
%TO.C,C20*%
X143657142Y-82577142D02*
X143609523Y-82624761D01*
X143466666Y-82672380D01*
X143371428Y-82672380D01*
X143228571Y-82624761D01*
X143133333Y-82529523D01*
X143085714Y-82434285D01*
X143038095Y-82243809D01*
X143038095Y-82100952D01*
X143085714Y-81910476D01*
X143133333Y-81815238D01*
X143228571Y-81720000D01*
X143371428Y-81672380D01*
X143466666Y-81672380D01*
X143609523Y-81720000D01*
X143657142Y-81767619D01*
X144038095Y-81767619D02*
X144085714Y-81720000D01*
X144180952Y-81672380D01*
X144419047Y-81672380D01*
X144514285Y-81720000D01*
X144561904Y-81767619D01*
X144609523Y-81862857D01*
X144609523Y-81958095D01*
X144561904Y-82100952D01*
X143990476Y-82672380D01*
X144609523Y-82672380D01*
X145228571Y-81672380D02*
X145323809Y-81672380D01*
X145419047Y-81720000D01*
X145466666Y-81767619D01*
X145514285Y-81862857D01*
X145561904Y-82053333D01*
X145561904Y-82291428D01*
X145514285Y-82481904D01*
X145466666Y-82577142D01*
X145419047Y-82624761D01*
X145323809Y-82672380D01*
X145228571Y-82672380D01*
X145133333Y-82624761D01*
X145085714Y-82577142D01*
X145038095Y-82481904D01*
X144990476Y-82291428D01*
X144990476Y-82053333D01*
X145038095Y-81862857D01*
X145085714Y-81767619D01*
X145133333Y-81720000D01*
X145228571Y-81672380D01*
%TO.C,C13*%
X140307142Y-70177142D02*
X140259523Y-70224761D01*
X140116666Y-70272380D01*
X140021428Y-70272380D01*
X139878571Y-70224761D01*
X139783333Y-70129523D01*
X139735714Y-70034285D01*
X139688095Y-69843809D01*
X139688095Y-69700952D01*
X139735714Y-69510476D01*
X139783333Y-69415238D01*
X139878571Y-69320000D01*
X140021428Y-69272380D01*
X140116666Y-69272380D01*
X140259523Y-69320000D01*
X140307142Y-69367619D01*
X141259523Y-70272380D02*
X140688095Y-70272380D01*
X140973809Y-70272380D02*
X140973809Y-69272380D01*
X140878571Y-69415238D01*
X140783333Y-69510476D01*
X140688095Y-69558095D01*
X141592857Y-69272380D02*
X142211904Y-69272380D01*
X141878571Y-69653333D01*
X142021428Y-69653333D01*
X142116666Y-69700952D01*
X142164285Y-69748571D01*
X142211904Y-69843809D01*
X142211904Y-70081904D01*
X142164285Y-70177142D01*
X142116666Y-70224761D01*
X142021428Y-70272380D01*
X141735714Y-70272380D01*
X141640476Y-70224761D01*
X141592857Y-70177142D01*
%TO.C,R27*%
X104157142Y-88652380D02*
X103823809Y-88176190D01*
X103585714Y-88652380D02*
X103585714Y-87652380D01*
X103966666Y-87652380D01*
X104061904Y-87700000D01*
X104109523Y-87747619D01*
X104157142Y-87842857D01*
X104157142Y-87985714D01*
X104109523Y-88080952D01*
X104061904Y-88128571D01*
X103966666Y-88176190D01*
X103585714Y-88176190D01*
X104538095Y-87747619D02*
X104585714Y-87700000D01*
X104680952Y-87652380D01*
X104919047Y-87652380D01*
X105014285Y-87700000D01*
X105061904Y-87747619D01*
X105109523Y-87842857D01*
X105109523Y-87938095D01*
X105061904Y-88080952D01*
X104490476Y-88652380D01*
X105109523Y-88652380D01*
X105442857Y-87652380D02*
X106109523Y-87652380D01*
X105680952Y-88652380D01*
%TO.C,R8*%
X120702380Y-67454166D02*
X120226190Y-67787500D01*
X120702380Y-68025595D02*
X119702380Y-68025595D01*
X119702380Y-67644642D01*
X119750000Y-67549404D01*
X119797619Y-67501785D01*
X119892857Y-67454166D01*
X120035714Y-67454166D01*
X120130952Y-67501785D01*
X120178571Y-67549404D01*
X120226190Y-67644642D01*
X120226190Y-68025595D01*
X120130952Y-66882738D02*
X120083333Y-66977976D01*
X120035714Y-67025595D01*
X119940476Y-67073214D01*
X119892857Y-67073214D01*
X119797619Y-67025595D01*
X119750000Y-66977976D01*
X119702380Y-66882738D01*
X119702380Y-66692261D01*
X119750000Y-66597023D01*
X119797619Y-66549404D01*
X119892857Y-66501785D01*
X119940476Y-66501785D01*
X120035714Y-66549404D01*
X120083333Y-66597023D01*
X120130952Y-66692261D01*
X120130952Y-66882738D01*
X120178571Y-66977976D01*
X120226190Y-67025595D01*
X120321428Y-67073214D01*
X120511904Y-67073214D01*
X120607142Y-67025595D01*
X120654761Y-66977976D01*
X120702380Y-66882738D01*
X120702380Y-66692261D01*
X120654761Y-66597023D01*
X120607142Y-66549404D01*
X120511904Y-66501785D01*
X120321428Y-66501785D01*
X120226190Y-66549404D01*
X120178571Y-66597023D01*
X120130952Y-66692261D01*
%TO.C,D1*%
X171024404Y-66502380D02*
X171024404Y-65502380D01*
X171262500Y-65502380D01*
X171405357Y-65550000D01*
X171500595Y-65645238D01*
X171548214Y-65740476D01*
X171595833Y-65930952D01*
X171595833Y-66073809D01*
X171548214Y-66264285D01*
X171500595Y-66359523D01*
X171405357Y-66454761D01*
X171262500Y-66502380D01*
X171024404Y-66502380D01*
X172548214Y-66502380D02*
X171976785Y-66502380D01*
X172262500Y-66502380D02*
X172262500Y-65502380D01*
X172167261Y-65645238D01*
X172072023Y-65740476D01*
X171976785Y-65788095D01*
%TO.C,R5*%
X101302380Y-60766666D02*
X100826190Y-61100000D01*
X101302380Y-61338095D02*
X100302380Y-61338095D01*
X100302380Y-60957142D01*
X100350000Y-60861904D01*
X100397619Y-60814285D01*
X100492857Y-60766666D01*
X100635714Y-60766666D01*
X100730952Y-60814285D01*
X100778571Y-60861904D01*
X100826190Y-60957142D01*
X100826190Y-61338095D01*
X100302380Y-59861904D02*
X100302380Y-60338095D01*
X100778571Y-60385714D01*
X100730952Y-60338095D01*
X100683333Y-60242857D01*
X100683333Y-60004761D01*
X100730952Y-59909523D01*
X100778571Y-59861904D01*
X100873809Y-59814285D01*
X101111904Y-59814285D01*
X101207142Y-59861904D01*
X101254761Y-59909523D01*
X101302380Y-60004761D01*
X101302380Y-60242857D01*
X101254761Y-60338095D01*
X101207142Y-60385714D01*
%TO.C,R15*%
X106357142Y-71432380D02*
X106023809Y-70956190D01*
X105785714Y-71432380D02*
X105785714Y-70432380D01*
X106166666Y-70432380D01*
X106261904Y-70480000D01*
X106309523Y-70527619D01*
X106357142Y-70622857D01*
X106357142Y-70765714D01*
X106309523Y-70860952D01*
X106261904Y-70908571D01*
X106166666Y-70956190D01*
X105785714Y-70956190D01*
X107309523Y-71432380D02*
X106738095Y-71432380D01*
X107023809Y-71432380D02*
X107023809Y-70432380D01*
X106928571Y-70575238D01*
X106833333Y-70670476D01*
X106738095Y-70718095D01*
X108214285Y-70432380D02*
X107738095Y-70432380D01*
X107690476Y-70908571D01*
X107738095Y-70860952D01*
X107833333Y-70813333D01*
X108071428Y-70813333D01*
X108166666Y-70860952D01*
X108214285Y-70908571D01*
X108261904Y-71003809D01*
X108261904Y-71241904D01*
X108214285Y-71337142D01*
X108166666Y-71384761D01*
X108071428Y-71432380D01*
X107833333Y-71432380D01*
X107738095Y-71384761D01*
X107690476Y-71337142D01*
%TO.C,R30*%
X84557142Y-88652380D02*
X84223809Y-88176190D01*
X83985714Y-88652380D02*
X83985714Y-87652380D01*
X84366666Y-87652380D01*
X84461904Y-87700000D01*
X84509523Y-87747619D01*
X84557142Y-87842857D01*
X84557142Y-87985714D01*
X84509523Y-88080952D01*
X84461904Y-88128571D01*
X84366666Y-88176190D01*
X83985714Y-88176190D01*
X84890476Y-87652380D02*
X85509523Y-87652380D01*
X85176190Y-88033333D01*
X85319047Y-88033333D01*
X85414285Y-88080952D01*
X85461904Y-88128571D01*
X85509523Y-88223809D01*
X85509523Y-88461904D01*
X85461904Y-88557142D01*
X85414285Y-88604761D01*
X85319047Y-88652380D01*
X85033333Y-88652380D01*
X84938095Y-88604761D01*
X84890476Y-88557142D01*
X86128571Y-87652380D02*
X86223809Y-87652380D01*
X86319047Y-87700000D01*
X86366666Y-87747619D01*
X86414285Y-87842857D01*
X86461904Y-88033333D01*
X86461904Y-88271428D01*
X86414285Y-88461904D01*
X86366666Y-88557142D01*
X86319047Y-88604761D01*
X86223809Y-88652380D01*
X86128571Y-88652380D01*
X86033333Y-88604761D01*
X85985714Y-88557142D01*
X85938095Y-88461904D01*
X85890476Y-88271428D01*
X85890476Y-88033333D01*
X85938095Y-87842857D01*
X85985714Y-87747619D01*
X86033333Y-87700000D01*
X86128571Y-87652380D01*
%TO.C,R18*%
X87157142Y-71032380D02*
X86823809Y-70556190D01*
X86585714Y-71032380D02*
X86585714Y-70032380D01*
X86966666Y-70032380D01*
X87061904Y-70080000D01*
X87109523Y-70127619D01*
X87157142Y-70222857D01*
X87157142Y-70365714D01*
X87109523Y-70460952D01*
X87061904Y-70508571D01*
X86966666Y-70556190D01*
X86585714Y-70556190D01*
X88109523Y-71032380D02*
X87538095Y-71032380D01*
X87823809Y-71032380D02*
X87823809Y-70032380D01*
X87728571Y-70175238D01*
X87633333Y-70270476D01*
X87538095Y-70318095D01*
X88680952Y-70460952D02*
X88585714Y-70413333D01*
X88538095Y-70365714D01*
X88490476Y-70270476D01*
X88490476Y-70222857D01*
X88538095Y-70127619D01*
X88585714Y-70080000D01*
X88680952Y-70032380D01*
X88871428Y-70032380D01*
X88966666Y-70080000D01*
X89014285Y-70127619D01*
X89061904Y-70222857D01*
X89061904Y-70270476D01*
X89014285Y-70365714D01*
X88966666Y-70413333D01*
X88871428Y-70460952D01*
X88680952Y-70460952D01*
X88585714Y-70508571D01*
X88538095Y-70556190D01*
X88490476Y-70651428D01*
X88490476Y-70841904D01*
X88538095Y-70937142D01*
X88585714Y-70984761D01*
X88680952Y-71032380D01*
X88871428Y-71032380D01*
X88966666Y-70984761D01*
X89014285Y-70937142D01*
X89061904Y-70841904D01*
X89061904Y-70651428D01*
X89014285Y-70556190D01*
X88966666Y-70508571D01*
X88871428Y-70460952D01*
%TO.C,Q11*%
X93891071Y-57397619D02*
X93795833Y-57350000D01*
X93700595Y-57254761D01*
X93557738Y-57111904D01*
X93462500Y-57064285D01*
X93367261Y-57064285D01*
X93414880Y-57302380D02*
X93319642Y-57254761D01*
X93224404Y-57159523D01*
X93176785Y-56969047D01*
X93176785Y-56635714D01*
X93224404Y-56445238D01*
X93319642Y-56350000D01*
X93414880Y-56302380D01*
X93605357Y-56302380D01*
X93700595Y-56350000D01*
X93795833Y-56445238D01*
X93843452Y-56635714D01*
X93843452Y-56969047D01*
X93795833Y-57159523D01*
X93700595Y-57254761D01*
X93605357Y-57302380D01*
X93414880Y-57302380D01*
X94795833Y-57302380D02*
X94224404Y-57302380D01*
X94510119Y-57302380D02*
X94510119Y-56302380D01*
X94414880Y-56445238D01*
X94319642Y-56540476D01*
X94224404Y-56588095D01*
X95748214Y-57302380D02*
X95176785Y-57302380D01*
X95462500Y-57302380D02*
X95462500Y-56302380D01*
X95367261Y-56445238D01*
X95272023Y-56540476D01*
X95176785Y-56588095D01*
%TO.C,C9*%
X124157142Y-85166666D02*
X124204761Y-85214285D01*
X124252380Y-85357142D01*
X124252380Y-85452380D01*
X124204761Y-85595238D01*
X124109523Y-85690476D01*
X124014285Y-85738095D01*
X123823809Y-85785714D01*
X123680952Y-85785714D01*
X123490476Y-85738095D01*
X123395238Y-85690476D01*
X123300000Y-85595238D01*
X123252380Y-85452380D01*
X123252380Y-85357142D01*
X123300000Y-85214285D01*
X123347619Y-85166666D01*
X124252380Y-84690476D02*
X124252380Y-84500000D01*
X124204761Y-84404761D01*
X124157142Y-84357142D01*
X124014285Y-84261904D01*
X123823809Y-84214285D01*
X123442857Y-84214285D01*
X123347619Y-84261904D01*
X123300000Y-84309523D01*
X123252380Y-84404761D01*
X123252380Y-84595238D01*
X123300000Y-84690476D01*
X123347619Y-84738095D01*
X123442857Y-84785714D01*
X123680952Y-84785714D01*
X123776190Y-84738095D01*
X123823809Y-84690476D01*
X123871428Y-84595238D01*
X123871428Y-84404761D01*
X123823809Y-84309523D01*
X123776190Y-84261904D01*
X123680952Y-84214285D01*
%TO.C,C8*%
X125957142Y-84566666D02*
X126004761Y-84614285D01*
X126052380Y-84757142D01*
X126052380Y-84852380D01*
X126004761Y-84995238D01*
X125909523Y-85090476D01*
X125814285Y-85138095D01*
X125623809Y-85185714D01*
X125480952Y-85185714D01*
X125290476Y-85138095D01*
X125195238Y-85090476D01*
X125100000Y-84995238D01*
X125052380Y-84852380D01*
X125052380Y-84757142D01*
X125100000Y-84614285D01*
X125147619Y-84566666D01*
X125480952Y-83995238D02*
X125433333Y-84090476D01*
X125385714Y-84138095D01*
X125290476Y-84185714D01*
X125242857Y-84185714D01*
X125147619Y-84138095D01*
X125100000Y-84090476D01*
X125052380Y-83995238D01*
X125052380Y-83804761D01*
X125100000Y-83709523D01*
X125147619Y-83661904D01*
X125242857Y-83614285D01*
X125290476Y-83614285D01*
X125385714Y-83661904D01*
X125433333Y-83709523D01*
X125480952Y-83804761D01*
X125480952Y-83995238D01*
X125528571Y-84090476D01*
X125576190Y-84138095D01*
X125671428Y-84185714D01*
X125861904Y-84185714D01*
X125957142Y-84138095D01*
X126004761Y-84090476D01*
X126052380Y-83995238D01*
X126052380Y-83804761D01*
X126004761Y-83709523D01*
X125957142Y-83661904D01*
X125861904Y-83614285D01*
X125671428Y-83614285D01*
X125576190Y-83661904D01*
X125528571Y-83709523D01*
X125480952Y-83804761D01*
%TO.C,R19*%
X115202380Y-55242857D02*
X114726190Y-55576190D01*
X115202380Y-55814285D02*
X114202380Y-55814285D01*
X114202380Y-55433333D01*
X114250000Y-55338095D01*
X114297619Y-55290476D01*
X114392857Y-55242857D01*
X114535714Y-55242857D01*
X114630952Y-55290476D01*
X114678571Y-55338095D01*
X114726190Y-55433333D01*
X114726190Y-55814285D01*
X115202380Y-54290476D02*
X115202380Y-54861904D01*
X115202380Y-54576190D02*
X114202380Y-54576190D01*
X114345238Y-54671428D01*
X114440476Y-54766666D01*
X114488095Y-54861904D01*
X115202380Y-53814285D02*
X115202380Y-53623809D01*
X115154761Y-53528571D01*
X115107142Y-53480952D01*
X114964285Y-53385714D01*
X114773809Y-53338095D01*
X114392857Y-53338095D01*
X114297619Y-53385714D01*
X114250000Y-53433333D01*
X114202380Y-53528571D01*
X114202380Y-53719047D01*
X114250000Y-53814285D01*
X114297619Y-53861904D01*
X114392857Y-53909523D01*
X114630952Y-53909523D01*
X114726190Y-53861904D01*
X114773809Y-53814285D01*
X114821428Y-53719047D01*
X114821428Y-53528571D01*
X114773809Y-53433333D01*
X114726190Y-53385714D01*
X114630952Y-53338095D01*
%TO.C,C5*%
X133837142Y-81966666D02*
X133884761Y-82014285D01*
X133932380Y-82157142D01*
X133932380Y-82252380D01*
X133884761Y-82395238D01*
X133789523Y-82490476D01*
X133694285Y-82538095D01*
X133503809Y-82585714D01*
X133360952Y-82585714D01*
X133170476Y-82538095D01*
X133075238Y-82490476D01*
X132980000Y-82395238D01*
X132932380Y-82252380D01*
X132932380Y-82157142D01*
X132980000Y-82014285D01*
X133027619Y-81966666D01*
X132932380Y-81061904D02*
X132932380Y-81538095D01*
X133408571Y-81585714D01*
X133360952Y-81538095D01*
X133313333Y-81442857D01*
X133313333Y-81204761D01*
X133360952Y-81109523D01*
X133408571Y-81061904D01*
X133503809Y-81014285D01*
X133741904Y-81014285D01*
X133837142Y-81061904D01*
X133884761Y-81109523D01*
X133932380Y-81204761D01*
X133932380Y-81442857D01*
X133884761Y-81538095D01*
X133837142Y-81585714D01*
%TO.C,R16*%
X99852380Y-76842857D02*
X99376190Y-77176190D01*
X99852380Y-77414285D02*
X98852380Y-77414285D01*
X98852380Y-77033333D01*
X98900000Y-76938095D01*
X98947619Y-76890476D01*
X99042857Y-76842857D01*
X99185714Y-76842857D01*
X99280952Y-76890476D01*
X99328571Y-76938095D01*
X99376190Y-77033333D01*
X99376190Y-77414285D01*
X99852380Y-75890476D02*
X99852380Y-76461904D01*
X99852380Y-76176190D02*
X98852380Y-76176190D01*
X98995238Y-76271428D01*
X99090476Y-76366666D01*
X99138095Y-76461904D01*
X98852380Y-75033333D02*
X98852380Y-75223809D01*
X98900000Y-75319047D01*
X98947619Y-75366666D01*
X99090476Y-75461904D01*
X99280952Y-75509523D01*
X99661904Y-75509523D01*
X99757142Y-75461904D01*
X99804761Y-75414285D01*
X99852380Y-75319047D01*
X99852380Y-75128571D01*
X99804761Y-75033333D01*
X99757142Y-74985714D01*
X99661904Y-74938095D01*
X99423809Y-74938095D01*
X99328571Y-74985714D01*
X99280952Y-75033333D01*
X99233333Y-75128571D01*
X99233333Y-75319047D01*
X99280952Y-75414285D01*
X99328571Y-75461904D01*
X99423809Y-75509523D01*
%TO.C,C7*%
X122677142Y-57966666D02*
X122724761Y-58014285D01*
X122772380Y-58157142D01*
X122772380Y-58252380D01*
X122724761Y-58395238D01*
X122629523Y-58490476D01*
X122534285Y-58538095D01*
X122343809Y-58585714D01*
X122200952Y-58585714D01*
X122010476Y-58538095D01*
X121915238Y-58490476D01*
X121820000Y-58395238D01*
X121772380Y-58252380D01*
X121772380Y-58157142D01*
X121820000Y-58014285D01*
X121867619Y-57966666D01*
X121772380Y-57633333D02*
X121772380Y-56966666D01*
X122772380Y-57395238D01*
%TO.C,Q4*%
X94304761Y-69747619D02*
X94209523Y-69700000D01*
X94114285Y-69604761D01*
X93971428Y-69461904D01*
X93876190Y-69414285D01*
X93780952Y-69414285D01*
X93828571Y-69652380D02*
X93733333Y-69604761D01*
X93638095Y-69509523D01*
X93590476Y-69319047D01*
X93590476Y-68985714D01*
X93638095Y-68795238D01*
X93733333Y-68700000D01*
X93828571Y-68652380D01*
X94019047Y-68652380D01*
X94114285Y-68700000D01*
X94209523Y-68795238D01*
X94257142Y-68985714D01*
X94257142Y-69319047D01*
X94209523Y-69509523D01*
X94114285Y-69604761D01*
X94019047Y-69652380D01*
X93828571Y-69652380D01*
X95114285Y-68985714D02*
X95114285Y-69652380D01*
X94876190Y-68604761D02*
X94638095Y-69319047D01*
X95257142Y-69319047D01*
%TO.C,Q3*%
X113304761Y-70147619D02*
X113209523Y-70100000D01*
X113114285Y-70004761D01*
X112971428Y-69861904D01*
X112876190Y-69814285D01*
X112780952Y-69814285D01*
X112828571Y-70052380D02*
X112733333Y-70004761D01*
X112638095Y-69909523D01*
X112590476Y-69719047D01*
X112590476Y-69385714D01*
X112638095Y-69195238D01*
X112733333Y-69100000D01*
X112828571Y-69052380D01*
X113019047Y-69052380D01*
X113114285Y-69100000D01*
X113209523Y-69195238D01*
X113257142Y-69385714D01*
X113257142Y-69719047D01*
X113209523Y-69909523D01*
X113114285Y-70004761D01*
X113019047Y-70052380D01*
X112828571Y-70052380D01*
X113590476Y-69052380D02*
X114209523Y-69052380D01*
X113876190Y-69433333D01*
X114019047Y-69433333D01*
X114114285Y-69480952D01*
X114161904Y-69528571D01*
X114209523Y-69623809D01*
X114209523Y-69861904D01*
X114161904Y-69957142D01*
X114114285Y-70004761D01*
X114019047Y-70052380D01*
X113733333Y-70052380D01*
X113638095Y-70004761D01*
X113590476Y-69957142D01*
%TO.C,R17*%
X98052380Y-76842857D02*
X97576190Y-77176190D01*
X98052380Y-77414285D02*
X97052380Y-77414285D01*
X97052380Y-77033333D01*
X97100000Y-76938095D01*
X97147619Y-76890476D01*
X97242857Y-76842857D01*
X97385714Y-76842857D01*
X97480952Y-76890476D01*
X97528571Y-76938095D01*
X97576190Y-77033333D01*
X97576190Y-77414285D01*
X98052380Y-75890476D02*
X98052380Y-76461904D01*
X98052380Y-76176190D02*
X97052380Y-76176190D01*
X97195238Y-76271428D01*
X97290476Y-76366666D01*
X97338095Y-76461904D01*
X97052380Y-75557142D02*
X97052380Y-74890476D01*
X98052380Y-75319047D01*
%TO.C,R13*%
X117052380Y-77442857D02*
X116576190Y-77776190D01*
X117052380Y-78014285D02*
X116052380Y-78014285D01*
X116052380Y-77633333D01*
X116100000Y-77538095D01*
X116147619Y-77490476D01*
X116242857Y-77442857D01*
X116385714Y-77442857D01*
X116480952Y-77490476D01*
X116528571Y-77538095D01*
X116576190Y-77633333D01*
X116576190Y-78014285D01*
X117052380Y-76490476D02*
X117052380Y-77061904D01*
X117052380Y-76776190D02*
X116052380Y-76776190D01*
X116195238Y-76871428D01*
X116290476Y-76966666D01*
X116338095Y-77061904D01*
X116052380Y-76157142D02*
X116052380Y-75538095D01*
X116433333Y-75871428D01*
X116433333Y-75728571D01*
X116480952Y-75633333D01*
X116528571Y-75585714D01*
X116623809Y-75538095D01*
X116861904Y-75538095D01*
X116957142Y-75585714D01*
X117004761Y-75633333D01*
X117052380Y-75728571D01*
X117052380Y-76014285D01*
X117004761Y-76109523D01*
X116957142Y-76157142D01*
%TO.C,Q6*%
X94304761Y-75947619D02*
X94209523Y-75900000D01*
X94114285Y-75804761D01*
X93971428Y-75661904D01*
X93876190Y-75614285D01*
X93780952Y-75614285D01*
X93828571Y-75852380D02*
X93733333Y-75804761D01*
X93638095Y-75709523D01*
X93590476Y-75519047D01*
X93590476Y-75185714D01*
X93638095Y-74995238D01*
X93733333Y-74900000D01*
X93828571Y-74852380D01*
X94019047Y-74852380D01*
X94114285Y-74900000D01*
X94209523Y-74995238D01*
X94257142Y-75185714D01*
X94257142Y-75519047D01*
X94209523Y-75709523D01*
X94114285Y-75804761D01*
X94019047Y-75852380D01*
X93828571Y-75852380D01*
X95114285Y-74852380D02*
X94923809Y-74852380D01*
X94828571Y-74900000D01*
X94780952Y-74947619D01*
X94685714Y-75090476D01*
X94638095Y-75280952D01*
X94638095Y-75661904D01*
X94685714Y-75757142D01*
X94733333Y-75804761D01*
X94828571Y-75852380D01*
X95019047Y-75852380D01*
X95114285Y-75804761D01*
X95161904Y-75757142D01*
X95209523Y-75661904D01*
X95209523Y-75423809D01*
X95161904Y-75328571D01*
X95114285Y-75280952D01*
X95019047Y-75233333D01*
X94828571Y-75233333D01*
X94733333Y-75280952D01*
X94685714Y-75328571D01*
X94638095Y-75423809D01*
%TO.C,X1*%
X140952380Y-75309523D02*
X141952380Y-74642857D01*
X140952380Y-74642857D02*
X141952380Y-75309523D01*
X141952380Y-73738095D02*
X141952380Y-74309523D01*
X141952380Y-74023809D02*
X140952380Y-74023809D01*
X141095238Y-74119047D01*
X141190476Y-74214285D01*
X141238095Y-74309523D01*
%TO.C,R10*%
X97852380Y-70442857D02*
X97376190Y-70776190D01*
X97852380Y-71014285D02*
X96852380Y-71014285D01*
X96852380Y-70633333D01*
X96900000Y-70538095D01*
X96947619Y-70490476D01*
X97042857Y-70442857D01*
X97185714Y-70442857D01*
X97280952Y-70490476D01*
X97328571Y-70538095D01*
X97376190Y-70633333D01*
X97376190Y-71014285D01*
X97852380Y-69490476D02*
X97852380Y-70061904D01*
X97852380Y-69776190D02*
X96852380Y-69776190D01*
X96995238Y-69871428D01*
X97090476Y-69966666D01*
X97138095Y-70061904D01*
X96852380Y-68871428D02*
X96852380Y-68776190D01*
X96900000Y-68680952D01*
X96947619Y-68633333D01*
X97042857Y-68585714D01*
X97233333Y-68538095D01*
X97471428Y-68538095D01*
X97661904Y-68585714D01*
X97757142Y-68633333D01*
X97804761Y-68680952D01*
X97852380Y-68776190D01*
X97852380Y-68871428D01*
X97804761Y-68966666D01*
X97757142Y-69014285D01*
X97661904Y-69061904D01*
X97471428Y-69109523D01*
X97233333Y-69109523D01*
X97042857Y-69061904D01*
X96947619Y-69014285D01*
X96900000Y-68966666D01*
X96852380Y-68871428D01*
%TO.C,C12*%
X129837142Y-82442857D02*
X129884761Y-82490476D01*
X129932380Y-82633333D01*
X129932380Y-82728571D01*
X129884761Y-82871428D01*
X129789523Y-82966666D01*
X129694285Y-83014285D01*
X129503809Y-83061904D01*
X129360952Y-83061904D01*
X129170476Y-83014285D01*
X129075238Y-82966666D01*
X128980000Y-82871428D01*
X128932380Y-82728571D01*
X128932380Y-82633333D01*
X128980000Y-82490476D01*
X129027619Y-82442857D01*
X129932380Y-81490476D02*
X129932380Y-82061904D01*
X129932380Y-81776190D02*
X128932380Y-81776190D01*
X129075238Y-81871428D01*
X129170476Y-81966666D01*
X129218095Y-82061904D01*
X129027619Y-81109523D02*
X128980000Y-81061904D01*
X128932380Y-80966666D01*
X128932380Y-80728571D01*
X128980000Y-80633333D01*
X129027619Y-80585714D01*
X129122857Y-80538095D01*
X129218095Y-80538095D01*
X129360952Y-80585714D01*
X129932380Y-81157142D01*
X129932380Y-80538095D01*
%TO.C,C16*%
X149457142Y-83577142D02*
X149409523Y-83624761D01*
X149266666Y-83672380D01*
X149171428Y-83672380D01*
X149028571Y-83624761D01*
X148933333Y-83529523D01*
X148885714Y-83434285D01*
X148838095Y-83243809D01*
X148838095Y-83100952D01*
X148885714Y-82910476D01*
X148933333Y-82815238D01*
X149028571Y-82720000D01*
X149171428Y-82672380D01*
X149266666Y-82672380D01*
X149409523Y-82720000D01*
X149457142Y-82767619D01*
X150409523Y-83672380D02*
X149838095Y-83672380D01*
X150123809Y-83672380D02*
X150123809Y-82672380D01*
X150028571Y-82815238D01*
X149933333Y-82910476D01*
X149838095Y-82958095D01*
X151266666Y-82672380D02*
X151076190Y-82672380D01*
X150980952Y-82720000D01*
X150933333Y-82767619D01*
X150838095Y-82910476D01*
X150790476Y-83100952D01*
X150790476Y-83481904D01*
X150838095Y-83577142D01*
X150885714Y-83624761D01*
X150980952Y-83672380D01*
X151171428Y-83672380D01*
X151266666Y-83624761D01*
X151314285Y-83577142D01*
X151361904Y-83481904D01*
X151361904Y-83243809D01*
X151314285Y-83148571D01*
X151266666Y-83100952D01*
X151171428Y-83053333D01*
X150980952Y-83053333D01*
X150885714Y-83100952D01*
X150838095Y-83148571D01*
X150790476Y-83243809D01*
%TO.C,Q10*%
X92828571Y-88547619D02*
X92733333Y-88500000D01*
X92638095Y-88404761D01*
X92495238Y-88261904D01*
X92400000Y-88214285D01*
X92304761Y-88214285D01*
X92352380Y-88452380D02*
X92257142Y-88404761D01*
X92161904Y-88309523D01*
X92114285Y-88119047D01*
X92114285Y-87785714D01*
X92161904Y-87595238D01*
X92257142Y-87500000D01*
X92352380Y-87452380D01*
X92542857Y-87452380D01*
X92638095Y-87500000D01*
X92733333Y-87595238D01*
X92780952Y-87785714D01*
X92780952Y-88119047D01*
X92733333Y-88309523D01*
X92638095Y-88404761D01*
X92542857Y-88452380D01*
X92352380Y-88452380D01*
X93733333Y-88452380D02*
X93161904Y-88452380D01*
X93447619Y-88452380D02*
X93447619Y-87452380D01*
X93352380Y-87595238D01*
X93257142Y-87690476D01*
X93161904Y-87738095D01*
X94352380Y-87452380D02*
X94447619Y-87452380D01*
X94542857Y-87500000D01*
X94590476Y-87547619D01*
X94638095Y-87642857D01*
X94685714Y-87833333D01*
X94685714Y-88071428D01*
X94638095Y-88261904D01*
X94590476Y-88357142D01*
X94542857Y-88404761D01*
X94447619Y-88452380D01*
X94352380Y-88452380D01*
X94257142Y-88404761D01*
X94209523Y-88357142D01*
X94161904Y-88261904D01*
X94114285Y-88071428D01*
X94114285Y-87833333D01*
X94161904Y-87642857D01*
X94209523Y-87547619D01*
X94257142Y-87500000D01*
X94352380Y-87452380D01*
%TO.C,R11*%
X99652380Y-70442857D02*
X99176190Y-70776190D01*
X99652380Y-71014285D02*
X98652380Y-71014285D01*
X98652380Y-70633333D01*
X98700000Y-70538095D01*
X98747619Y-70490476D01*
X98842857Y-70442857D01*
X98985714Y-70442857D01*
X99080952Y-70490476D01*
X99128571Y-70538095D01*
X99176190Y-70633333D01*
X99176190Y-71014285D01*
X99652380Y-69490476D02*
X99652380Y-70061904D01*
X99652380Y-69776190D02*
X98652380Y-69776190D01*
X98795238Y-69871428D01*
X98890476Y-69966666D01*
X98938095Y-70061904D01*
X99652380Y-68538095D02*
X99652380Y-69109523D01*
X99652380Y-68823809D02*
X98652380Y-68823809D01*
X98795238Y-68919047D01*
X98890476Y-69014285D01*
X98938095Y-69109523D01*
%TO.C,R21*%
X106357142Y-52432380D02*
X106023809Y-51956190D01*
X105785714Y-52432380D02*
X105785714Y-51432380D01*
X106166666Y-51432380D01*
X106261904Y-51480000D01*
X106309523Y-51527619D01*
X106357142Y-51622857D01*
X106357142Y-51765714D01*
X106309523Y-51860952D01*
X106261904Y-51908571D01*
X106166666Y-51956190D01*
X105785714Y-51956190D01*
X106738095Y-51527619D02*
X106785714Y-51480000D01*
X106880952Y-51432380D01*
X107119047Y-51432380D01*
X107214285Y-51480000D01*
X107261904Y-51527619D01*
X107309523Y-51622857D01*
X107309523Y-51718095D01*
X107261904Y-51860952D01*
X106690476Y-52432380D01*
X107309523Y-52432380D01*
X108261904Y-52432380D02*
X107690476Y-52432380D01*
X107976190Y-52432380D02*
X107976190Y-51432380D01*
X107880952Y-51575238D01*
X107785714Y-51670476D01*
X107690476Y-51718095D01*
%TO.C,R34*%
X119652380Y-83242857D02*
X119176190Y-83576190D01*
X119652380Y-83814285D02*
X118652380Y-83814285D01*
X118652380Y-83433333D01*
X118700000Y-83338095D01*
X118747619Y-83290476D01*
X118842857Y-83242857D01*
X118985714Y-83242857D01*
X119080952Y-83290476D01*
X119128571Y-83338095D01*
X119176190Y-83433333D01*
X119176190Y-83814285D01*
X118652380Y-82909523D02*
X118652380Y-82290476D01*
X119033333Y-82623809D01*
X119033333Y-82480952D01*
X119080952Y-82385714D01*
X119128571Y-82338095D01*
X119223809Y-82290476D01*
X119461904Y-82290476D01*
X119557142Y-82338095D01*
X119604761Y-82385714D01*
X119652380Y-82480952D01*
X119652380Y-82766666D01*
X119604761Y-82861904D01*
X119557142Y-82909523D01*
X118985714Y-81433333D02*
X119652380Y-81433333D01*
X118604761Y-81671428D02*
X119319047Y-81909523D01*
X119319047Y-81290476D01*
%TO.C,R24*%
X86957142Y-77232380D02*
X86623809Y-76756190D01*
X86385714Y-77232380D02*
X86385714Y-76232380D01*
X86766666Y-76232380D01*
X86861904Y-76280000D01*
X86909523Y-76327619D01*
X86957142Y-76422857D01*
X86957142Y-76565714D01*
X86909523Y-76660952D01*
X86861904Y-76708571D01*
X86766666Y-76756190D01*
X86385714Y-76756190D01*
X87338095Y-76327619D02*
X87385714Y-76280000D01*
X87480952Y-76232380D01*
X87719047Y-76232380D01*
X87814285Y-76280000D01*
X87861904Y-76327619D01*
X87909523Y-76422857D01*
X87909523Y-76518095D01*
X87861904Y-76660952D01*
X87290476Y-77232380D01*
X87909523Y-77232380D01*
X88766666Y-76565714D02*
X88766666Y-77232380D01*
X88528571Y-76184761D02*
X88290476Y-76899047D01*
X88909523Y-76899047D01*
%TO.C,R36*%
X106557142Y-77632380D02*
X106223809Y-77156190D01*
X105985714Y-77632380D02*
X105985714Y-76632380D01*
X106366666Y-76632380D01*
X106461904Y-76680000D01*
X106509523Y-76727619D01*
X106557142Y-76822857D01*
X106557142Y-76965714D01*
X106509523Y-77060952D01*
X106461904Y-77108571D01*
X106366666Y-77156190D01*
X105985714Y-77156190D01*
X106890476Y-76632380D02*
X107509523Y-76632380D01*
X107176190Y-77013333D01*
X107319047Y-77013333D01*
X107414285Y-77060952D01*
X107461904Y-77108571D01*
X107509523Y-77203809D01*
X107509523Y-77441904D01*
X107461904Y-77537142D01*
X107414285Y-77584761D01*
X107319047Y-77632380D01*
X107033333Y-77632380D01*
X106938095Y-77584761D01*
X106890476Y-77537142D01*
X108366666Y-76632380D02*
X108176190Y-76632380D01*
X108080952Y-76680000D01*
X108033333Y-76727619D01*
X107938095Y-76870476D01*
X107890476Y-77060952D01*
X107890476Y-77441904D01*
X107938095Y-77537142D01*
X107985714Y-77584761D01*
X108080952Y-77632380D01*
X108271428Y-77632380D01*
X108366666Y-77584761D01*
X108414285Y-77537142D01*
X108461904Y-77441904D01*
X108461904Y-77203809D01*
X108414285Y-77108571D01*
X108366666Y-77060952D01*
X108271428Y-77013333D01*
X108080952Y-77013333D01*
X107985714Y-77060952D01*
X107938095Y-77108571D01*
X107890476Y-77203809D01*
%TO.C,U1*%
X128238095Y-63902380D02*
X128238095Y-64711904D01*
X128285714Y-64807142D01*
X128333333Y-64854761D01*
X128428571Y-64902380D01*
X128619047Y-64902380D01*
X128714285Y-64854761D01*
X128761904Y-64807142D01*
X128809523Y-64711904D01*
X128809523Y-63902380D01*
X129809523Y-64902380D02*
X129238095Y-64902380D01*
X129523809Y-64902380D02*
X129523809Y-63902380D01*
X129428571Y-64045238D01*
X129333333Y-64140476D01*
X129238095Y-64188095D01*
%TO.C,C21*%
X154857142Y-83777142D02*
X154809523Y-83824761D01*
X154666666Y-83872380D01*
X154571428Y-83872380D01*
X154428571Y-83824761D01*
X154333333Y-83729523D01*
X154285714Y-83634285D01*
X154238095Y-83443809D01*
X154238095Y-83300952D01*
X154285714Y-83110476D01*
X154333333Y-83015238D01*
X154428571Y-82920000D01*
X154571428Y-82872380D01*
X154666666Y-82872380D01*
X154809523Y-82920000D01*
X154857142Y-82967619D01*
X155238095Y-82967619D02*
X155285714Y-82920000D01*
X155380952Y-82872380D01*
X155619047Y-82872380D01*
X155714285Y-82920000D01*
X155761904Y-82967619D01*
X155809523Y-83062857D01*
X155809523Y-83158095D01*
X155761904Y-83300952D01*
X155190476Y-83872380D01*
X155809523Y-83872380D01*
X156761904Y-83872380D02*
X156190476Y-83872380D01*
X156476190Y-83872380D02*
X156476190Y-82872380D01*
X156380952Y-83015238D01*
X156285714Y-83110476D01*
X156190476Y-83158095D01*
%TO.C,R38*%
X166944642Y-62902380D02*
X166611309Y-62426190D01*
X166373214Y-62902380D02*
X166373214Y-61902380D01*
X166754166Y-61902380D01*
X166849404Y-61950000D01*
X166897023Y-61997619D01*
X166944642Y-62092857D01*
X166944642Y-62235714D01*
X166897023Y-62330952D01*
X166849404Y-62378571D01*
X166754166Y-62426190D01*
X166373214Y-62426190D01*
X167277976Y-61902380D02*
X167897023Y-61902380D01*
X167563690Y-62283333D01*
X167706547Y-62283333D01*
X167801785Y-62330952D01*
X167849404Y-62378571D01*
X167897023Y-62473809D01*
X167897023Y-62711904D01*
X167849404Y-62807142D01*
X167801785Y-62854761D01*
X167706547Y-62902380D01*
X167420833Y-62902380D01*
X167325595Y-62854761D01*
X167277976Y-62807142D01*
X168468452Y-62330952D02*
X168373214Y-62283333D01*
X168325595Y-62235714D01*
X168277976Y-62140476D01*
X168277976Y-62092857D01*
X168325595Y-61997619D01*
X168373214Y-61950000D01*
X168468452Y-61902380D01*
X168658928Y-61902380D01*
X168754166Y-61950000D01*
X168801785Y-61997619D01*
X168849404Y-62092857D01*
X168849404Y-62140476D01*
X168801785Y-62235714D01*
X168754166Y-62283333D01*
X168658928Y-62330952D01*
X168468452Y-62330952D01*
X168373214Y-62378571D01*
X168325595Y-62426190D01*
X168277976Y-62521428D01*
X168277976Y-62711904D01*
X168325595Y-62807142D01*
X168373214Y-62854761D01*
X168468452Y-62902380D01*
X168658928Y-62902380D01*
X168754166Y-62854761D01*
X168801785Y-62807142D01*
X168849404Y-62711904D01*
X168849404Y-62521428D01*
X168801785Y-62426190D01*
X168754166Y-62378571D01*
X168658928Y-62330952D01*
%TO.C,R25*%
X117452380Y-82842857D02*
X116976190Y-83176190D01*
X117452380Y-83414285D02*
X116452380Y-83414285D01*
X116452380Y-83033333D01*
X116500000Y-82938095D01*
X116547619Y-82890476D01*
X116642857Y-82842857D01*
X116785714Y-82842857D01*
X116880952Y-82890476D01*
X116928571Y-82938095D01*
X116976190Y-83033333D01*
X116976190Y-83414285D01*
X116547619Y-82461904D02*
X116500000Y-82414285D01*
X116452380Y-82319047D01*
X116452380Y-82080952D01*
X116500000Y-81985714D01*
X116547619Y-81938095D01*
X116642857Y-81890476D01*
X116738095Y-81890476D01*
X116880952Y-81938095D01*
X117452380Y-82509523D01*
X117452380Y-81890476D01*
X116452380Y-80985714D02*
X116452380Y-81461904D01*
X116928571Y-81509523D01*
X116880952Y-81461904D01*
X116833333Y-81366666D01*
X116833333Y-81128571D01*
X116880952Y-81033333D01*
X116928571Y-80985714D01*
X117023809Y-80938095D01*
X117261904Y-80938095D01*
X117357142Y-80985714D01*
X117404761Y-81033333D01*
X117452380Y-81128571D01*
X117452380Y-81366666D01*
X117404761Y-81461904D01*
X117357142Y-81509523D01*
%TO.C,C10*%
X134157142Y-85642857D02*
X134204761Y-85690476D01*
X134252380Y-85833333D01*
X134252380Y-85928571D01*
X134204761Y-86071428D01*
X134109523Y-86166666D01*
X134014285Y-86214285D01*
X133823809Y-86261904D01*
X133680952Y-86261904D01*
X133490476Y-86214285D01*
X133395238Y-86166666D01*
X133300000Y-86071428D01*
X133252380Y-85928571D01*
X133252380Y-85833333D01*
X133300000Y-85690476D01*
X133347619Y-85642857D01*
X134252380Y-84690476D02*
X134252380Y-85261904D01*
X134252380Y-84976190D02*
X133252380Y-84976190D01*
X133395238Y-85071428D01*
X133490476Y-85166666D01*
X133538095Y-85261904D01*
X133252380Y-84071428D02*
X133252380Y-83976190D01*
X133300000Y-83880952D01*
X133347619Y-83833333D01*
X133442857Y-83785714D01*
X133633333Y-83738095D01*
X133871428Y-83738095D01*
X134061904Y-83785714D01*
X134157142Y-83833333D01*
X134204761Y-83880952D01*
X134252380Y-83976190D01*
X134252380Y-84071428D01*
X134204761Y-84166666D01*
X134157142Y-84214285D01*
X134061904Y-84261904D01*
X133871428Y-84309523D01*
X133633333Y-84309523D01*
X133442857Y-84261904D01*
X133347619Y-84214285D01*
X133300000Y-84166666D01*
X133252380Y-84071428D01*
%TO.C,U2*%
X150838095Y-68052380D02*
X150838095Y-68861904D01*
X150885714Y-68957142D01*
X150933333Y-69004761D01*
X151028571Y-69052380D01*
X151219047Y-69052380D01*
X151314285Y-69004761D01*
X151361904Y-68957142D01*
X151409523Y-68861904D01*
X151409523Y-68052380D01*
X151838095Y-68147619D02*
X151885714Y-68100000D01*
X151980952Y-68052380D01*
X152219047Y-68052380D01*
X152314285Y-68100000D01*
X152361904Y-68147619D01*
X152409523Y-68242857D01*
X152409523Y-68338095D01*
X152361904Y-68480952D01*
X151790476Y-69052380D01*
X152409523Y-69052380D01*
%TO.C,C17*%
X162457142Y-74777142D02*
X162409523Y-74824761D01*
X162266666Y-74872380D01*
X162171428Y-74872380D01*
X162028571Y-74824761D01*
X161933333Y-74729523D01*
X161885714Y-74634285D01*
X161838095Y-74443809D01*
X161838095Y-74300952D01*
X161885714Y-74110476D01*
X161933333Y-74015238D01*
X162028571Y-73920000D01*
X162171428Y-73872380D01*
X162266666Y-73872380D01*
X162409523Y-73920000D01*
X162457142Y-73967619D01*
X163409523Y-74872380D02*
X162838095Y-74872380D01*
X163123809Y-74872380D02*
X163123809Y-73872380D01*
X163028571Y-74015238D01*
X162933333Y-74110476D01*
X162838095Y-74158095D01*
X163742857Y-73872380D02*
X164409523Y-73872380D01*
X163980952Y-74872380D01*
%TO.C,R23*%
X99452380Y-83042857D02*
X98976190Y-83376190D01*
X99452380Y-83614285D02*
X98452380Y-83614285D01*
X98452380Y-83233333D01*
X98500000Y-83138095D01*
X98547619Y-83090476D01*
X98642857Y-83042857D01*
X98785714Y-83042857D01*
X98880952Y-83090476D01*
X98928571Y-83138095D01*
X98976190Y-83233333D01*
X98976190Y-83614285D01*
X98547619Y-82661904D02*
X98500000Y-82614285D01*
X98452380Y-82519047D01*
X98452380Y-82280952D01*
X98500000Y-82185714D01*
X98547619Y-82138095D01*
X98642857Y-82090476D01*
X98738095Y-82090476D01*
X98880952Y-82138095D01*
X99452380Y-82709523D01*
X99452380Y-82090476D01*
X98452380Y-81757142D02*
X98452380Y-81138095D01*
X98833333Y-81471428D01*
X98833333Y-81328571D01*
X98880952Y-81233333D01*
X98928571Y-81185714D01*
X99023809Y-81138095D01*
X99261904Y-81138095D01*
X99357142Y-81185714D01*
X99404761Y-81233333D01*
X99452380Y-81328571D01*
X99452380Y-81614285D01*
X99404761Y-81709523D01*
X99357142Y-81757142D01*
%TO.C,R28*%
X97652380Y-89242857D02*
X97176190Y-89576190D01*
X97652380Y-89814285D02*
X96652380Y-89814285D01*
X96652380Y-89433333D01*
X96700000Y-89338095D01*
X96747619Y-89290476D01*
X96842857Y-89242857D01*
X96985714Y-89242857D01*
X97080952Y-89290476D01*
X97128571Y-89338095D01*
X97176190Y-89433333D01*
X97176190Y-89814285D01*
X96747619Y-88861904D02*
X96700000Y-88814285D01*
X96652380Y-88719047D01*
X96652380Y-88480952D01*
X96700000Y-88385714D01*
X96747619Y-88338095D01*
X96842857Y-88290476D01*
X96938095Y-88290476D01*
X97080952Y-88338095D01*
X97652380Y-88909523D01*
X97652380Y-88290476D01*
X97080952Y-87719047D02*
X97033333Y-87814285D01*
X96985714Y-87861904D01*
X96890476Y-87909523D01*
X96842857Y-87909523D01*
X96747619Y-87861904D01*
X96700000Y-87814285D01*
X96652380Y-87719047D01*
X96652380Y-87528571D01*
X96700000Y-87433333D01*
X96747619Y-87385714D01*
X96842857Y-87338095D01*
X96890476Y-87338095D01*
X96985714Y-87385714D01*
X97033333Y-87433333D01*
X97080952Y-87528571D01*
X97080952Y-87719047D01*
X97128571Y-87814285D01*
X97176190Y-87861904D01*
X97271428Y-87909523D01*
X97461904Y-87909523D01*
X97557142Y-87861904D01*
X97604761Y-87814285D01*
X97652380Y-87719047D01*
X97652380Y-87528571D01*
X97604761Y-87433333D01*
X97557142Y-87385714D01*
X97461904Y-87338095D01*
X97271428Y-87338095D01*
X97176190Y-87385714D01*
X97128571Y-87433333D01*
X97080952Y-87528571D01*
%TO.C,R22*%
X97252380Y-77042857D02*
X96776190Y-77376190D01*
X97252380Y-77614285D02*
X96252380Y-77614285D01*
X96252380Y-77233333D01*
X96300000Y-77138095D01*
X96347619Y-77090476D01*
X96442857Y-77042857D01*
X96585714Y-77042857D01*
X96680952Y-77090476D01*
X96728571Y-77138095D01*
X96776190Y-77233333D01*
X96776190Y-77614285D01*
X96347619Y-76661904D02*
X96300000Y-76614285D01*
X96252380Y-76519047D01*
X96252380Y-76280952D01*
X96300000Y-76185714D01*
X96347619Y-76138095D01*
X96442857Y-76090476D01*
X96538095Y-76090476D01*
X96680952Y-76138095D01*
X97252380Y-76709523D01*
X97252380Y-76090476D01*
X96347619Y-75709523D02*
X96300000Y-75661904D01*
X96252380Y-75566666D01*
X96252380Y-75328571D01*
X96300000Y-75233333D01*
X96347619Y-75185714D01*
X96442857Y-75138095D01*
X96538095Y-75138095D01*
X96680952Y-75185714D01*
X97252380Y-75757142D01*
X97252380Y-75138095D01*
%TO.C,C14*%
X161107142Y-80377142D02*
X161059523Y-80424761D01*
X160916666Y-80472380D01*
X160821428Y-80472380D01*
X160678571Y-80424761D01*
X160583333Y-80329523D01*
X160535714Y-80234285D01*
X160488095Y-80043809D01*
X160488095Y-79900952D01*
X160535714Y-79710476D01*
X160583333Y-79615238D01*
X160678571Y-79520000D01*
X160821428Y-79472380D01*
X160916666Y-79472380D01*
X161059523Y-79520000D01*
X161107142Y-79567619D01*
X162059523Y-80472380D02*
X161488095Y-80472380D01*
X161773809Y-80472380D02*
X161773809Y-79472380D01*
X161678571Y-79615238D01*
X161583333Y-79710476D01*
X161488095Y-79758095D01*
X162916666Y-79805714D02*
X162916666Y-80472380D01*
X162678571Y-79424761D02*
X162440476Y-80139047D01*
X163059523Y-80139047D01*
%TO.C,R4*%
X96002380Y-60766666D02*
X95526190Y-61100000D01*
X96002380Y-61338095D02*
X95002380Y-61338095D01*
X95002380Y-60957142D01*
X95050000Y-60861904D01*
X95097619Y-60814285D01*
X95192857Y-60766666D01*
X95335714Y-60766666D01*
X95430952Y-60814285D01*
X95478571Y-60861904D01*
X95526190Y-60957142D01*
X95526190Y-61338095D01*
X95335714Y-59909523D02*
X96002380Y-59909523D01*
X94954761Y-60147619D02*
X95669047Y-60385714D01*
X95669047Y-59766666D01*
%TO.C,Q9*%
X112504761Y-88347619D02*
X112409523Y-88300000D01*
X112314285Y-88204761D01*
X112171428Y-88061904D01*
X112076190Y-88014285D01*
X111980952Y-88014285D01*
X112028571Y-88252380D02*
X111933333Y-88204761D01*
X111838095Y-88109523D01*
X111790476Y-87919047D01*
X111790476Y-87585714D01*
X111838095Y-87395238D01*
X111933333Y-87300000D01*
X112028571Y-87252380D01*
X112219047Y-87252380D01*
X112314285Y-87300000D01*
X112409523Y-87395238D01*
X112457142Y-87585714D01*
X112457142Y-87919047D01*
X112409523Y-88109523D01*
X112314285Y-88204761D01*
X112219047Y-88252380D01*
X112028571Y-88252380D01*
X112933333Y-88252380D02*
X113123809Y-88252380D01*
X113219047Y-88204761D01*
X113266666Y-88157142D01*
X113361904Y-88014285D01*
X113409523Y-87823809D01*
X113409523Y-87442857D01*
X113361904Y-87347619D01*
X113314285Y-87300000D01*
X113219047Y-87252380D01*
X113028571Y-87252380D01*
X112933333Y-87300000D01*
X112885714Y-87347619D01*
X112838095Y-87442857D01*
X112838095Y-87680952D01*
X112885714Y-87776190D01*
X112933333Y-87823809D01*
X113028571Y-87871428D01*
X113219047Y-87871428D01*
X113314285Y-87823809D01*
X113361904Y-87776190D01*
X113409523Y-87680952D01*
%TO.C,R37*%
X167257142Y-66502380D02*
X166923809Y-66026190D01*
X166685714Y-66502380D02*
X166685714Y-65502380D01*
X167066666Y-65502380D01*
X167161904Y-65550000D01*
X167209523Y-65597619D01*
X167257142Y-65692857D01*
X167257142Y-65835714D01*
X167209523Y-65930952D01*
X167161904Y-65978571D01*
X167066666Y-66026190D01*
X166685714Y-66026190D01*
X167590476Y-65502380D02*
X168209523Y-65502380D01*
X167876190Y-65883333D01*
X168019047Y-65883333D01*
X168114285Y-65930952D01*
X168161904Y-65978571D01*
X168209523Y-66073809D01*
X168209523Y-66311904D01*
X168161904Y-66407142D01*
X168114285Y-66454761D01*
X168019047Y-66502380D01*
X167733333Y-66502380D01*
X167638095Y-66454761D01*
X167590476Y-66407142D01*
X168542857Y-65502380D02*
X169209523Y-65502380D01*
X168780952Y-66502380D01*
%TO.C,R1*%
X116652380Y-63766666D02*
X116176190Y-64100000D01*
X116652380Y-64338095D02*
X115652380Y-64338095D01*
X115652380Y-63957142D01*
X115700000Y-63861904D01*
X115747619Y-63814285D01*
X115842857Y-63766666D01*
X115985714Y-63766666D01*
X116080952Y-63814285D01*
X116128571Y-63861904D01*
X116176190Y-63957142D01*
X116176190Y-64338095D01*
X116652380Y-62814285D02*
X116652380Y-63385714D01*
X116652380Y-63100000D02*
X115652380Y-63100000D01*
X115795238Y-63195238D01*
X115890476Y-63290476D01*
X115938095Y-63385714D01*
%TO.C,C3*%
X130677142Y-57966666D02*
X130724761Y-58014285D01*
X130772380Y-58157142D01*
X130772380Y-58252380D01*
X130724761Y-58395238D01*
X130629523Y-58490476D01*
X130534285Y-58538095D01*
X130343809Y-58585714D01*
X130200952Y-58585714D01*
X130010476Y-58538095D01*
X129915238Y-58490476D01*
X129820000Y-58395238D01*
X129772380Y-58252380D01*
X129772380Y-58157142D01*
X129820000Y-58014285D01*
X129867619Y-57966666D01*
X129772380Y-57633333D02*
X129772380Y-57014285D01*
X130153333Y-57347619D01*
X130153333Y-57204761D01*
X130200952Y-57109523D01*
X130248571Y-57061904D01*
X130343809Y-57014285D01*
X130581904Y-57014285D01*
X130677142Y-57061904D01*
X130724761Y-57109523D01*
X130772380Y-57204761D01*
X130772380Y-57490476D01*
X130724761Y-57585714D01*
X130677142Y-57633333D01*
%TO.C,Q2*%
X94167261Y-63597619D02*
X94072023Y-63550000D01*
X93976785Y-63454761D01*
X93833928Y-63311904D01*
X93738690Y-63264285D01*
X93643452Y-63264285D01*
X93691071Y-63502380D02*
X93595833Y-63454761D01*
X93500595Y-63359523D01*
X93452976Y-63169047D01*
X93452976Y-62835714D01*
X93500595Y-62645238D01*
X93595833Y-62550000D01*
X93691071Y-62502380D01*
X93881547Y-62502380D01*
X93976785Y-62550000D01*
X94072023Y-62645238D01*
X94119642Y-62835714D01*
X94119642Y-63169047D01*
X94072023Y-63359523D01*
X93976785Y-63454761D01*
X93881547Y-63502380D01*
X93691071Y-63502380D01*
X94500595Y-62597619D02*
X94548214Y-62550000D01*
X94643452Y-62502380D01*
X94881547Y-62502380D01*
X94976785Y-62550000D01*
X95024404Y-62597619D01*
X95072023Y-62692857D01*
X95072023Y-62788095D01*
X95024404Y-62930952D01*
X94452976Y-63502380D01*
X95072023Y-63502380D01*
%TO.C,Q8*%
X91504761Y-78747619D02*
X91409523Y-78700000D01*
X91314285Y-78604761D01*
X91171428Y-78461904D01*
X91076190Y-78414285D01*
X90980952Y-78414285D01*
X91028571Y-78652380D02*
X90933333Y-78604761D01*
X90838095Y-78509523D01*
X90790476Y-78319047D01*
X90790476Y-77985714D01*
X90838095Y-77795238D01*
X90933333Y-77700000D01*
X91028571Y-77652380D01*
X91219047Y-77652380D01*
X91314285Y-77700000D01*
X91409523Y-77795238D01*
X91457142Y-77985714D01*
X91457142Y-78319047D01*
X91409523Y-78509523D01*
X91314285Y-78604761D01*
X91219047Y-78652380D01*
X91028571Y-78652380D01*
X92028571Y-78080952D02*
X91933333Y-78033333D01*
X91885714Y-77985714D01*
X91838095Y-77890476D01*
X91838095Y-77842857D01*
X91885714Y-77747619D01*
X91933333Y-77700000D01*
X92028571Y-77652380D01*
X92219047Y-77652380D01*
X92314285Y-77700000D01*
X92361904Y-77747619D01*
X92409523Y-77842857D01*
X92409523Y-77890476D01*
X92361904Y-77985714D01*
X92314285Y-78033333D01*
X92219047Y-78080952D01*
X92028571Y-78080952D01*
X91933333Y-78128571D01*
X91885714Y-78176190D01*
X91838095Y-78271428D01*
X91838095Y-78461904D01*
X91885714Y-78557142D01*
X91933333Y-78604761D01*
X92028571Y-78652380D01*
X92219047Y-78652380D01*
X92314285Y-78604761D01*
X92361904Y-78557142D01*
X92409523Y-78461904D01*
X92409523Y-78271428D01*
X92361904Y-78176190D01*
X92314285Y-78128571D01*
X92219047Y-78080952D01*
%TO.C,R12*%
X87157142Y-64632380D02*
X86823809Y-64156190D01*
X86585714Y-64632380D02*
X86585714Y-63632380D01*
X86966666Y-63632380D01*
X87061904Y-63680000D01*
X87109523Y-63727619D01*
X87157142Y-63822857D01*
X87157142Y-63965714D01*
X87109523Y-64060952D01*
X87061904Y-64108571D01*
X86966666Y-64156190D01*
X86585714Y-64156190D01*
X88109523Y-64632380D02*
X87538095Y-64632380D01*
X87823809Y-64632380D02*
X87823809Y-63632380D01*
X87728571Y-63775238D01*
X87633333Y-63870476D01*
X87538095Y-63918095D01*
X88490476Y-63727619D02*
X88538095Y-63680000D01*
X88633333Y-63632380D01*
X88871428Y-63632380D01*
X88966666Y-63680000D01*
X89014285Y-63727619D01*
X89061904Y-63822857D01*
X89061904Y-63918095D01*
X89014285Y-64060952D01*
X88442857Y-64632380D01*
X89061904Y-64632380D01*
%TO.C,C1*%
X128357142Y-60366666D02*
X128404761Y-60414285D01*
X128452380Y-60557142D01*
X128452380Y-60652380D01*
X128404761Y-60795238D01*
X128309523Y-60890476D01*
X128214285Y-60938095D01*
X128023809Y-60985714D01*
X127880952Y-60985714D01*
X127690476Y-60938095D01*
X127595238Y-60890476D01*
X127500000Y-60795238D01*
X127452380Y-60652380D01*
X127452380Y-60557142D01*
X127500000Y-60414285D01*
X127547619Y-60366666D01*
X128452380Y-59414285D02*
X128452380Y-59985714D01*
X128452380Y-59700000D02*
X127452380Y-59700000D01*
X127595238Y-59795238D01*
X127690476Y-59890476D01*
X127738095Y-59985714D01*
%TO.C,C6*%
X130157142Y-84766666D02*
X130204761Y-84814285D01*
X130252380Y-84957142D01*
X130252380Y-85052380D01*
X130204761Y-85195238D01*
X130109523Y-85290476D01*
X130014285Y-85338095D01*
X129823809Y-85385714D01*
X129680952Y-85385714D01*
X129490476Y-85338095D01*
X129395238Y-85290476D01*
X129300000Y-85195238D01*
X129252380Y-85052380D01*
X129252380Y-84957142D01*
X129300000Y-84814285D01*
X129347619Y-84766666D01*
X129252380Y-83909523D02*
X129252380Y-84100000D01*
X129300000Y-84195238D01*
X129347619Y-84242857D01*
X129490476Y-84338095D01*
X129680952Y-84385714D01*
X130061904Y-84385714D01*
X130157142Y-84338095D01*
X130204761Y-84290476D01*
X130252380Y-84195238D01*
X130252380Y-84004761D01*
X130204761Y-83909523D01*
X130157142Y-83861904D01*
X130061904Y-83814285D01*
X129823809Y-83814285D01*
X129728571Y-83861904D01*
X129680952Y-83909523D01*
X129633333Y-84004761D01*
X129633333Y-84195238D01*
X129680952Y-84290476D01*
X129728571Y-84338095D01*
X129823809Y-84385714D01*
%TO.C,R7*%
X115402380Y-67366666D02*
X114926190Y-67700000D01*
X115402380Y-67938095D02*
X114402380Y-67938095D01*
X114402380Y-67557142D01*
X114450000Y-67461904D01*
X114497619Y-67414285D01*
X114592857Y-67366666D01*
X114735714Y-67366666D01*
X114830952Y-67414285D01*
X114878571Y-67461904D01*
X114926190Y-67557142D01*
X114926190Y-67938095D01*
X114402380Y-67033333D02*
X114402380Y-66366666D01*
X115402380Y-66795238D01*
%TO.C,R26*%
X119252380Y-89242857D02*
X118776190Y-89576190D01*
X119252380Y-89814285D02*
X118252380Y-89814285D01*
X118252380Y-89433333D01*
X118300000Y-89338095D01*
X118347619Y-89290476D01*
X118442857Y-89242857D01*
X118585714Y-89242857D01*
X118680952Y-89290476D01*
X118728571Y-89338095D01*
X118776190Y-89433333D01*
X118776190Y-89814285D01*
X118347619Y-88861904D02*
X118300000Y-88814285D01*
X118252380Y-88719047D01*
X118252380Y-88480952D01*
X118300000Y-88385714D01*
X118347619Y-88338095D01*
X118442857Y-88290476D01*
X118538095Y-88290476D01*
X118680952Y-88338095D01*
X119252380Y-88909523D01*
X119252380Y-88290476D01*
X118252380Y-87433333D02*
X118252380Y-87623809D01*
X118300000Y-87719047D01*
X118347619Y-87766666D01*
X118490476Y-87861904D01*
X118680952Y-87909523D01*
X119061904Y-87909523D01*
X119157142Y-87861904D01*
X119204761Y-87814285D01*
X119252380Y-87719047D01*
X119252380Y-87528571D01*
X119204761Y-87433333D01*
X119157142Y-87385714D01*
X119061904Y-87338095D01*
X118823809Y-87338095D01*
X118728571Y-87385714D01*
X118680952Y-87433333D01*
X118633333Y-87528571D01*
X118633333Y-87719047D01*
X118680952Y-87814285D01*
X118728571Y-87861904D01*
X118823809Y-87909523D01*
%TO.C,R31*%
X96002380Y-55042857D02*
X95526190Y-55376190D01*
X96002380Y-55614285D02*
X95002380Y-55614285D01*
X95002380Y-55233333D01*
X95050000Y-55138095D01*
X95097619Y-55090476D01*
X95192857Y-55042857D01*
X95335714Y-55042857D01*
X95430952Y-55090476D01*
X95478571Y-55138095D01*
X95526190Y-55233333D01*
X95526190Y-55614285D01*
X95002380Y-54709523D02*
X95002380Y-54090476D01*
X95383333Y-54423809D01*
X95383333Y-54280952D01*
X95430952Y-54185714D01*
X95478571Y-54138095D01*
X95573809Y-54090476D01*
X95811904Y-54090476D01*
X95907142Y-54138095D01*
X95954761Y-54185714D01*
X96002380Y-54280952D01*
X96002380Y-54566666D01*
X95954761Y-54661904D01*
X95907142Y-54709523D01*
X96002380Y-53138095D02*
X96002380Y-53709523D01*
X96002380Y-53423809D02*
X95002380Y-53423809D01*
X95145238Y-53519047D01*
X95240476Y-53614285D01*
X95288095Y-53709523D01*
%TO.C,Q1*%
X113304761Y-63747619D02*
X113209523Y-63700000D01*
X113114285Y-63604761D01*
X112971428Y-63461904D01*
X112876190Y-63414285D01*
X112780952Y-63414285D01*
X112828571Y-63652380D02*
X112733333Y-63604761D01*
X112638095Y-63509523D01*
X112590476Y-63319047D01*
X112590476Y-62985714D01*
X112638095Y-62795238D01*
X112733333Y-62700000D01*
X112828571Y-62652380D01*
X113019047Y-62652380D01*
X113114285Y-62700000D01*
X113209523Y-62795238D01*
X113257142Y-62985714D01*
X113257142Y-63319047D01*
X113209523Y-63509523D01*
X113114285Y-63604761D01*
X113019047Y-63652380D01*
X112828571Y-63652380D01*
X114209523Y-63652380D02*
X113638095Y-63652380D01*
X113923809Y-63652380D02*
X113923809Y-62652380D01*
X113828571Y-62795238D01*
X113733333Y-62890476D01*
X113638095Y-62938095D01*
%TO.C,C18*%
X161707142Y-69977142D02*
X161659523Y-70024761D01*
X161516666Y-70072380D01*
X161421428Y-70072380D01*
X161278571Y-70024761D01*
X161183333Y-69929523D01*
X161135714Y-69834285D01*
X161088095Y-69643809D01*
X161088095Y-69500952D01*
X161135714Y-69310476D01*
X161183333Y-69215238D01*
X161278571Y-69120000D01*
X161421428Y-69072380D01*
X161516666Y-69072380D01*
X161659523Y-69120000D01*
X161707142Y-69167619D01*
X162659523Y-70072380D02*
X162088095Y-70072380D01*
X162373809Y-70072380D02*
X162373809Y-69072380D01*
X162278571Y-69215238D01*
X162183333Y-69310476D01*
X162088095Y-69358095D01*
X163230952Y-69500952D02*
X163135714Y-69453333D01*
X163088095Y-69405714D01*
X163040476Y-69310476D01*
X163040476Y-69262857D01*
X163088095Y-69167619D01*
X163135714Y-69120000D01*
X163230952Y-69072380D01*
X163421428Y-69072380D01*
X163516666Y-69120000D01*
X163564285Y-69167619D01*
X163611904Y-69262857D01*
X163611904Y-69310476D01*
X163564285Y-69405714D01*
X163516666Y-69453333D01*
X163421428Y-69500952D01*
X163230952Y-69500952D01*
X163135714Y-69548571D01*
X163088095Y-69596190D01*
X163040476Y-69691428D01*
X163040476Y-69881904D01*
X163088095Y-69977142D01*
X163135714Y-70024761D01*
X163230952Y-70072380D01*
X163421428Y-70072380D01*
X163516666Y-70024761D01*
X163564285Y-69977142D01*
X163611904Y-69881904D01*
X163611904Y-69691428D01*
X163564285Y-69596190D01*
X163516666Y-69548571D01*
X163421428Y-69500952D01*
%TO.C,C2*%
X128677142Y-57966666D02*
X128724761Y-58014285D01*
X128772380Y-58157142D01*
X128772380Y-58252380D01*
X128724761Y-58395238D01*
X128629523Y-58490476D01*
X128534285Y-58538095D01*
X128343809Y-58585714D01*
X128200952Y-58585714D01*
X128010476Y-58538095D01*
X127915238Y-58490476D01*
X127820000Y-58395238D01*
X127772380Y-58252380D01*
X127772380Y-58157142D01*
X127820000Y-58014285D01*
X127867619Y-57966666D01*
X127867619Y-57585714D02*
X127820000Y-57538095D01*
X127772380Y-57442857D01*
X127772380Y-57204761D01*
X127820000Y-57109523D01*
X127867619Y-57061904D01*
X127962857Y-57014285D01*
X128058095Y-57014285D01*
X128200952Y-57061904D01*
X128772380Y-57633333D01*
X128772380Y-57014285D01*
%TO.C,R29*%
X99652380Y-89242857D02*
X99176190Y-89576190D01*
X99652380Y-89814285D02*
X98652380Y-89814285D01*
X98652380Y-89433333D01*
X98700000Y-89338095D01*
X98747619Y-89290476D01*
X98842857Y-89242857D01*
X98985714Y-89242857D01*
X99080952Y-89290476D01*
X99128571Y-89338095D01*
X99176190Y-89433333D01*
X99176190Y-89814285D01*
X98747619Y-88861904D02*
X98700000Y-88814285D01*
X98652380Y-88719047D01*
X98652380Y-88480952D01*
X98700000Y-88385714D01*
X98747619Y-88338095D01*
X98842857Y-88290476D01*
X98938095Y-88290476D01*
X99080952Y-88338095D01*
X99652380Y-88909523D01*
X99652380Y-88290476D01*
X99652380Y-87814285D02*
X99652380Y-87623809D01*
X99604761Y-87528571D01*
X99557142Y-87480952D01*
X99414285Y-87385714D01*
X99223809Y-87338095D01*
X98842857Y-87338095D01*
X98747619Y-87385714D01*
X98700000Y-87433333D01*
X98652380Y-87528571D01*
X98652380Y-87719047D01*
X98700000Y-87814285D01*
X98747619Y-87861904D01*
X98842857Y-87909523D01*
X99080952Y-87909523D01*
X99176190Y-87861904D01*
X99223809Y-87814285D01*
X99271428Y-87719047D01*
X99271428Y-87528571D01*
X99223809Y-87433333D01*
X99176190Y-87385714D01*
X99080952Y-87338095D01*
%TO.C,C19*%
X154657142Y-65377142D02*
X154609523Y-65424761D01*
X154466666Y-65472380D01*
X154371428Y-65472380D01*
X154228571Y-65424761D01*
X154133333Y-65329523D01*
X154085714Y-65234285D01*
X154038095Y-65043809D01*
X154038095Y-64900952D01*
X154085714Y-64710476D01*
X154133333Y-64615238D01*
X154228571Y-64520000D01*
X154371428Y-64472380D01*
X154466666Y-64472380D01*
X154609523Y-64520000D01*
X154657142Y-64567619D01*
X155609523Y-65472380D02*
X155038095Y-65472380D01*
X155323809Y-65472380D02*
X155323809Y-64472380D01*
X155228571Y-64615238D01*
X155133333Y-64710476D01*
X155038095Y-64758095D01*
X156085714Y-65472380D02*
X156276190Y-65472380D01*
X156371428Y-65424761D01*
X156419047Y-65377142D01*
X156514285Y-65234285D01*
X156561904Y-65043809D01*
X156561904Y-64662857D01*
X156514285Y-64567619D01*
X156466666Y-64520000D01*
X156371428Y-64472380D01*
X156180952Y-64472380D01*
X156085714Y-64520000D01*
X156038095Y-64567619D01*
X155990476Y-64662857D01*
X155990476Y-64900952D01*
X156038095Y-64996190D01*
X156085714Y-65043809D01*
X156180952Y-65091428D01*
X156371428Y-65091428D01*
X156466666Y-65043809D01*
X156514285Y-64996190D01*
X156561904Y-64900952D01*
%TO.C,R6*%
X87433333Y-58232380D02*
X87100000Y-57756190D01*
X86861904Y-58232380D02*
X86861904Y-57232380D01*
X87242857Y-57232380D01*
X87338095Y-57280000D01*
X87385714Y-57327619D01*
X87433333Y-57422857D01*
X87433333Y-57565714D01*
X87385714Y-57660952D01*
X87338095Y-57708571D01*
X87242857Y-57756190D01*
X86861904Y-57756190D01*
X88290476Y-57232380D02*
X88100000Y-57232380D01*
X88004761Y-57280000D01*
X87957142Y-57327619D01*
X87861904Y-57470476D01*
X87814285Y-57660952D01*
X87814285Y-58041904D01*
X87861904Y-58137142D01*
X87909523Y-58184761D01*
X88004761Y-58232380D01*
X88195238Y-58232380D01*
X88290476Y-58184761D01*
X88338095Y-58137142D01*
X88385714Y-58041904D01*
X88385714Y-57803809D01*
X88338095Y-57708571D01*
X88290476Y-57660952D01*
X88195238Y-57613333D01*
X88004761Y-57613333D01*
X87909523Y-57660952D01*
X87861904Y-57708571D01*
X87814285Y-57803809D01*
%TO.C,C11*%
X124677142Y-58442857D02*
X124724761Y-58490476D01*
X124772380Y-58633333D01*
X124772380Y-58728571D01*
X124724761Y-58871428D01*
X124629523Y-58966666D01*
X124534285Y-59014285D01*
X124343809Y-59061904D01*
X124200952Y-59061904D01*
X124010476Y-59014285D01*
X123915238Y-58966666D01*
X123820000Y-58871428D01*
X123772380Y-58728571D01*
X123772380Y-58633333D01*
X123820000Y-58490476D01*
X123867619Y-58442857D01*
X124772380Y-57490476D02*
X124772380Y-58061904D01*
X124772380Y-57776190D02*
X123772380Y-57776190D01*
X123915238Y-57871428D01*
X124010476Y-57966666D01*
X124058095Y-58061904D01*
X124772380Y-56538095D02*
X124772380Y-57109523D01*
X124772380Y-56823809D02*
X123772380Y-56823809D01*
X123915238Y-56919047D01*
X124010476Y-57014285D01*
X124058095Y-57109523D01*
D11*
%TO.C,R20*%
X117665000Y-54372936D02*
X117665000Y-54827064D01*
X119135000Y-54372936D02*
X119135000Y-54827064D01*
%TO.C,R3*%
X104822936Y-62310000D02*
X109177064Y-62310000D01*
X104822936Y-58890000D02*
X109177064Y-58890000D01*
%TO.C,D2*%
X170077500Y-65060000D02*
X172762500Y-65060000D01*
X170077500Y-63140000D02*
X170077500Y-65060000D01*
X172762500Y-63140000D02*
X170077500Y-63140000D01*
%TO.C,C15*%
X140288748Y-77165000D02*
X140811252Y-77165000D01*
X140288748Y-78635000D02*
X140811252Y-78635000D01*
%TO.C,J1*%
X79400000Y-52650000D02*
X79400000Y-53400000D01*
X76450000Y-87000000D02*
X76450000Y-70200000D01*
X81650000Y-85950000D02*
X80900000Y-85950000D01*
X81660000Y-52640000D02*
X75690000Y-52640000D01*
X81650000Y-55950000D02*
X80900000Y-55950000D01*
X79400000Y-53400000D02*
X76450000Y-53400000D01*
X81950000Y-53600000D02*
X81950000Y-52350000D01*
X79400000Y-87000000D02*
X76450000Y-87000000D01*
X80900000Y-54450000D02*
X81650000Y-54450000D01*
X81950000Y-52350000D02*
X80700000Y-52350000D01*
X81650000Y-54450000D02*
X81650000Y-52650000D01*
X80900000Y-52650000D02*
X80900000Y-54450000D01*
X81660000Y-87760000D02*
X81660000Y-52640000D01*
X80900000Y-55950000D02*
X80900000Y-84450000D01*
X75690000Y-52640000D02*
X75690000Y-87760000D01*
X81650000Y-52650000D02*
X80900000Y-52650000D01*
X80900000Y-85950000D02*
X80900000Y-87750000D01*
X80900000Y-87750000D02*
X81650000Y-87750000D01*
X80900000Y-84450000D02*
X81650000Y-84450000D01*
X75690000Y-87760000D02*
X81660000Y-87760000D01*
X81650000Y-87750000D02*
X81650000Y-85950000D01*
X76450000Y-53400000D02*
X76450000Y-70200000D01*
X79400000Y-87750000D02*
X79400000Y-87000000D01*
X81650000Y-84450000D02*
X81650000Y-55950000D01*
%TO.C,R35*%
X117735000Y-80027064D02*
X117735000Y-79572936D01*
X116265000Y-80027064D02*
X116265000Y-79572936D01*
%TO.C,R2*%
X119135000Y-60572936D02*
X119135000Y-61027064D01*
X117665000Y-60572936D02*
X117665000Y-61027064D01*
%TO.C,R32*%
X99935000Y-54172936D02*
X99935000Y-54627064D01*
X98465000Y-54172936D02*
X98465000Y-54627064D01*
%TO.C,R14*%
X119335000Y-73372936D02*
X119335000Y-73827064D01*
X117865000Y-73372936D02*
X117865000Y-73827064D01*
%TO.C,R33*%
X85422936Y-56110000D02*
X89777064Y-56110000D01*
X85422936Y-52690000D02*
X89777064Y-52690000D01*
%TO.C,Q7*%
X113400000Y-53040000D02*
X114050000Y-53040000D01*
X113400000Y-53040000D02*
X112750000Y-53040000D01*
X113400000Y-56160000D02*
X112750000Y-56160000D01*
X113400000Y-56160000D02*
X115075000Y-56160000D01*
%TO.C,C4*%
X134735000Y-58061252D02*
X134735000Y-57538748D01*
X133265000Y-58061252D02*
X133265000Y-57538748D01*
%TO.C,Q12*%
X114000000Y-81360000D02*
X115675000Y-81360000D01*
X114000000Y-78240000D02*
X113350000Y-78240000D01*
X114000000Y-81360000D02*
X113350000Y-81360000D01*
X114000000Y-78240000D02*
X114650000Y-78240000D01*
%TO.C,Q5*%
X113800000Y-72040000D02*
X113150000Y-72040000D01*
X113800000Y-75160000D02*
X115475000Y-75160000D01*
X113800000Y-75160000D02*
X113150000Y-75160000D01*
X113800000Y-72040000D02*
X114450000Y-72040000D01*
%TO.C,R9*%
X104822936Y-65690000D02*
X109177064Y-65690000D01*
X104822936Y-69110000D02*
X109177064Y-69110000D01*
%TO.C,C20*%
X144038748Y-84635000D02*
X144561252Y-84635000D01*
X144038748Y-83165000D02*
X144561252Y-83165000D01*
%TO.C,C13*%
X140688748Y-72235000D02*
X141211252Y-72235000D01*
X140688748Y-70765000D02*
X141211252Y-70765000D01*
%TO.C,R27*%
X105022936Y-87110000D02*
X109377064Y-87110000D01*
X105022936Y-83690000D02*
X109377064Y-83690000D01*
%TO.C,R8*%
X117865000Y-67060436D02*
X117865000Y-67514564D01*
X119335000Y-67060436D02*
X119335000Y-67514564D01*
%TO.C,D1*%
X170077500Y-68660000D02*
X172762500Y-68660000D01*
X172762500Y-66740000D02*
X170077500Y-66740000D01*
X170077500Y-66740000D02*
X170077500Y-68660000D01*
%TO.C,R5*%
X99935000Y-60372936D02*
X99935000Y-60827064D01*
X98465000Y-60372936D02*
X98465000Y-60827064D01*
%TO.C,R15*%
X104822936Y-75310000D02*
X109177064Y-75310000D01*
X104822936Y-71890000D02*
X109177064Y-71890000D01*
%TO.C,R30*%
X85422936Y-87110000D02*
X89777064Y-87110000D01*
X85422936Y-83690000D02*
X89777064Y-83690000D01*
%TO.C,R18*%
X85622936Y-74910000D02*
X89977064Y-74910000D01*
X85622936Y-71490000D02*
X89977064Y-71490000D01*
%TO.C,Q11*%
X94462500Y-52890000D02*
X95112500Y-52890000D01*
X94462500Y-56010000D02*
X96137500Y-56010000D01*
X94462500Y-52890000D02*
X93812500Y-52890000D01*
X94462500Y-56010000D02*
X93812500Y-56010000D01*
%TO.C,C9*%
X123065000Y-81538748D02*
X123065000Y-82061252D01*
X124535000Y-81538748D02*
X124535000Y-82061252D01*
%TO.C,C8*%
X125065000Y-81538748D02*
X125065000Y-82061252D01*
X126535000Y-81538748D02*
X126535000Y-82061252D01*
%TO.C,R19*%
X115665000Y-54827064D02*
X115665000Y-54372936D01*
X117135000Y-54827064D02*
X117135000Y-54372936D01*
%TO.C,C5*%
X131065000Y-81538748D02*
X131065000Y-82061252D01*
X132535000Y-81538748D02*
X132535000Y-82061252D01*
%TO.C,R16*%
X100135000Y-72772936D02*
X100135000Y-73227064D01*
X98665000Y-72772936D02*
X98665000Y-73227064D01*
%TO.C,C7*%
X124735000Y-58061252D02*
X124735000Y-57538748D01*
X123265000Y-58061252D02*
X123265000Y-57538748D01*
%TO.C,Q4*%
X94400000Y-65240000D02*
X95050000Y-65240000D01*
X94400000Y-65240000D02*
X93750000Y-65240000D01*
X94400000Y-68360000D02*
X96075000Y-68360000D01*
X94400000Y-68360000D02*
X93750000Y-68360000D01*
%TO.C,Q3*%
X113400000Y-65640000D02*
X112750000Y-65640000D01*
X113400000Y-65640000D02*
X114050000Y-65640000D01*
X113400000Y-68760000D02*
X115075000Y-68760000D01*
X113400000Y-68760000D02*
X112750000Y-68760000D01*
%TO.C,R17*%
X98135000Y-73227064D02*
X98135000Y-72772936D01*
X96665000Y-73227064D02*
X96665000Y-72772936D01*
%TO.C,R13*%
X115865000Y-73372936D02*
X115865000Y-73827064D01*
X117335000Y-73372936D02*
X117335000Y-73827064D01*
%TO.C,Q6*%
X94400000Y-71440000D02*
X93750000Y-71440000D01*
X94400000Y-71440000D02*
X95050000Y-71440000D01*
X94400000Y-74560000D02*
X96075000Y-74560000D01*
X94400000Y-74560000D02*
X93750000Y-74560000D01*
%TO.C,X1*%
X142500000Y-73300000D02*
X142500000Y-75700000D01*
X144100000Y-75700000D02*
X144100000Y-73300000D01*
X142500000Y-75700000D02*
X144100000Y-75700000D01*
%TO.C,R10*%
X98135000Y-66572936D02*
X98135000Y-67027064D01*
X96665000Y-66572936D02*
X96665000Y-67027064D01*
%TO.C,C12*%
X127065000Y-81538748D02*
X127065000Y-82061252D01*
X128535000Y-81538748D02*
X128535000Y-82061252D01*
%TO.C,C16*%
X149838748Y-85635000D02*
X150361252Y-85635000D01*
X149838748Y-84165000D02*
X150361252Y-84165000D01*
%TO.C,Q10*%
X94200000Y-86960000D02*
X95875000Y-86960000D01*
X94200000Y-86960000D02*
X93550000Y-86960000D01*
X94200000Y-83840000D02*
X94850000Y-83840000D01*
X94200000Y-83840000D02*
X93550000Y-83840000D01*
%TO.C,R11*%
X100135000Y-66485436D02*
X100135000Y-66939564D01*
X98665000Y-66485436D02*
X98665000Y-66939564D01*
%TO.C,R21*%
X104822936Y-52890000D02*
X109177064Y-52890000D01*
X104822936Y-56310000D02*
X109177064Y-56310000D01*
%TO.C,R34*%
X118265000Y-79572936D02*
X118265000Y-80027064D01*
X119735000Y-79572936D02*
X119735000Y-80027064D01*
%TO.C,R24*%
X85422936Y-77690000D02*
X89777064Y-77690000D01*
X85422936Y-81110000D02*
X89777064Y-81110000D01*
%TO.C,R36*%
X105022936Y-81510000D02*
X109377064Y-81510000D01*
X105022936Y-78090000D02*
X109377064Y-78090000D01*
%TO.C,U1*%
X129000000Y-78310000D02*
X126240000Y-78310000D01*
X126240000Y-65640000D02*
X124550000Y-65640000D01*
X129000000Y-65290000D02*
X131760000Y-65290000D01*
X131760000Y-65290000D02*
X131760000Y-65640000D01*
X126240000Y-65290000D02*
X126240000Y-65640000D01*
X126240000Y-78310000D02*
X126240000Y-77960000D01*
X129000000Y-78310000D02*
X131760000Y-78310000D01*
X131760000Y-78310000D02*
X131760000Y-77960000D01*
X129000000Y-65290000D02*
X126240000Y-65290000D01*
%TO.C,C21*%
X155238748Y-85835000D02*
X155761252Y-85835000D01*
X155238748Y-84365000D02*
X155761252Y-84365000D01*
%TO.C,R38*%
X167360436Y-64835000D02*
X167814564Y-64835000D01*
X167360436Y-63365000D02*
X167814564Y-63365000D01*
%TO.C,R25*%
X116265000Y-85627064D02*
X116265000Y-85172936D01*
X117735000Y-85627064D02*
X117735000Y-85172936D01*
%TO.C,C10*%
X134535000Y-82061252D02*
X134535000Y-81538748D01*
X133065000Y-82061252D02*
X133065000Y-81538748D01*
%TO.C,U2*%
X146490000Y-71840000D02*
X145150000Y-71840000D01*
X146490000Y-70890000D02*
X146490000Y-71840000D01*
X156710000Y-81110000D02*
X156710000Y-80160000D01*
X156710000Y-70890000D02*
X156710000Y-71840000D01*
X147440000Y-70890000D02*
X146490000Y-70890000D01*
X155760000Y-81110000D02*
X156710000Y-81110000D01*
X155760000Y-70890000D02*
X156710000Y-70890000D01*
X146490000Y-81110000D02*
X146490000Y-80160000D01*
X147440000Y-81110000D02*
X146490000Y-81110000D01*
%TO.C,C17*%
X162838748Y-75365000D02*
X163361252Y-75365000D01*
X162838748Y-76835000D02*
X163361252Y-76835000D01*
%TO.C,R23*%
X99735000Y-79172936D02*
X99735000Y-79627064D01*
X98265000Y-79172936D02*
X98265000Y-79627064D01*
%TO.C,R28*%
X97735000Y-85627064D02*
X97735000Y-85172936D01*
X96265000Y-85627064D02*
X96265000Y-85172936D01*
%TO.C,R22*%
X97735000Y-79627064D02*
X97735000Y-79172936D01*
X96265000Y-79627064D02*
X96265000Y-79172936D01*
%TO.C,C14*%
X161488748Y-82435000D02*
X162011252Y-82435000D01*
X161488748Y-80965000D02*
X162011252Y-80965000D01*
%TO.C,R4*%
X96465000Y-60827064D02*
X96465000Y-60372936D01*
X97935000Y-60827064D02*
X97935000Y-60372936D01*
%TO.C,Q9*%
X114200000Y-83840000D02*
X114850000Y-83840000D01*
X114200000Y-83840000D02*
X113550000Y-83840000D01*
X114200000Y-86960000D02*
X113550000Y-86960000D01*
X114200000Y-86960000D02*
X115875000Y-86960000D01*
%TO.C,R37*%
X167672936Y-68435000D02*
X168127064Y-68435000D01*
X167672936Y-66965000D02*
X168127064Y-66965000D01*
%TO.C,R1*%
X115665000Y-61027064D02*
X115665000Y-60572936D01*
X117135000Y-61027064D02*
X117135000Y-60572936D01*
%TO.C,C3*%
X132735000Y-58061252D02*
X132735000Y-57538748D01*
X131265000Y-58061252D02*
X131265000Y-57538748D01*
%TO.C,Q2*%
X94262500Y-59090000D02*
X93612500Y-59090000D01*
X94262500Y-62210000D02*
X93612500Y-62210000D01*
X94262500Y-59090000D02*
X94912500Y-59090000D01*
X94262500Y-62210000D02*
X95937500Y-62210000D01*
%TO.C,Q8*%
X94200000Y-77840000D02*
X94850000Y-77840000D01*
X94200000Y-80960000D02*
X95875000Y-80960000D01*
X94200000Y-77840000D02*
X93550000Y-77840000D01*
X94200000Y-80960000D02*
X93550000Y-80960000D01*
%TO.C,R12*%
X85622936Y-68510000D02*
X89977064Y-68510000D01*
X85622936Y-65090000D02*
X89977064Y-65090000D01*
%TO.C,C1*%
X127265000Y-58061252D02*
X127265000Y-57538748D01*
X128735000Y-58061252D02*
X128735000Y-57538748D01*
%TO.C,C6*%
X130535000Y-81538748D02*
X130535000Y-82061252D01*
X129065000Y-81538748D02*
X129065000Y-82061252D01*
%TO.C,R7*%
X117335000Y-67427064D02*
X117335000Y-66972936D01*
X115865000Y-67427064D02*
X115865000Y-66972936D01*
%TO.C,R26*%
X119735000Y-85172936D02*
X119735000Y-85627064D01*
X118265000Y-85172936D02*
X118265000Y-85627064D01*
%TO.C,R31*%
X97935000Y-54627064D02*
X97935000Y-54172936D01*
X96465000Y-54627064D02*
X96465000Y-54172936D01*
%TO.C,Q1*%
X113400000Y-59240000D02*
X114050000Y-59240000D01*
X113400000Y-62360000D02*
X115075000Y-62360000D01*
X113400000Y-62360000D02*
X112750000Y-62360000D01*
X113400000Y-59240000D02*
X112750000Y-59240000D01*
%TO.C,C18*%
X162088748Y-72035000D02*
X162611252Y-72035000D01*
X162088748Y-70565000D02*
X162611252Y-70565000D01*
%TO.C,C2*%
X129265000Y-58061252D02*
X129265000Y-57538748D01*
X130735000Y-58061252D02*
X130735000Y-57538748D01*
%TO.C,R29*%
X99735000Y-85172936D02*
X99735000Y-85627064D01*
X98265000Y-85172936D02*
X98265000Y-85627064D01*
%TO.C,C19*%
X155038748Y-67435000D02*
X155561252Y-67435000D01*
X155038748Y-65965000D02*
X155561252Y-65965000D01*
%TO.C,R6*%
X85422936Y-62110000D02*
X89777064Y-62110000D01*
X85422936Y-58690000D02*
X89777064Y-58690000D01*
%TO.C,C11*%
X126735000Y-58061252D02*
X126735000Y-57538748D01*
X125265000Y-58061252D02*
X125265000Y-57538748D01*
%TD*%
M02*
