%TF.GenerationSoftware,KiCad,Pcbnew,(6.0.7-1)-1*%
%TF.CreationDate,2022-09-12T11:44:39+02:00*%
%TF.ProjectId,Flux_BMS,466c7578-5f42-44d5-932e-6b696361645f,rev?*%
%TF.SameCoordinates,Original*%
%TF.FileFunction,Copper,L2,Inr*%
%TF.FilePolarity,Positive*%
%FSLAX46Y46*%
G04 Gerber Fmt 4.6, Leading zero omitted, Abs format (unit mm)*
G04 Created by KiCad (PCBNEW (6.0.7-1)-1) date 2022-09-12 11:44:39*
%MOMM*%
%LPD*%
G01*
G04 APERTURE LIST*
G04 Aperture macros list*
%AMRoundRect*
0 Rectangle with rounded corners*
0 $1 Rounding radius*
0 $2 $3 $4 $5 $6 $7 $8 $9 X,Y pos of 4 corners*
0 Add a 4 corners polygon primitive as box body*
4,1,4,$2,$3,$4,$5,$6,$7,$8,$9,$2,$3,0*
0 Add four circle primitives for the rounded corners*
1,1,$1+$1,$2,$3*
1,1,$1+$1,$4,$5*
1,1,$1+$1,$6,$7*
1,1,$1+$1,$8,$9*
0 Add four rect primitives between the rounded corners*
20,1,$1+$1,$2,$3,$4,$5,0*
20,1,$1+$1,$4,$5,$6,$7,0*
20,1,$1+$1,$6,$7,$8,$9,0*
20,1,$1+$1,$8,$9,$2,$3,0*%
G04 Aperture macros list end*
%TA.AperFunction,ComponentPad*%
%ADD10C,0.600000*%
%TD*%
%TA.AperFunction,ComponentPad*%
%ADD11O,1.000000X1.600000*%
%TD*%
%TA.AperFunction,ComponentPad*%
%ADD12O,1.000000X2.100000*%
%TD*%
%TA.AperFunction,ComponentPad*%
%ADD13RoundRect,0.250000X0.625000X-0.350000X0.625000X0.350000X-0.625000X0.350000X-0.625000X-0.350000X0*%
%TD*%
%TA.AperFunction,ComponentPad*%
%ADD14O,1.750000X1.200000*%
%TD*%
%TA.AperFunction,ComponentPad*%
%ADD15O,1.950000X1.700000*%
%TD*%
%TA.AperFunction,ComponentPad*%
%ADD16RoundRect,0.250000X-0.725000X0.600000X-0.725000X-0.600000X0.725000X-0.600000X0.725000X0.600000X0*%
%TD*%
%TA.AperFunction,ComponentPad*%
%ADD17R,1.700000X1.700000*%
%TD*%
%TA.AperFunction,ComponentPad*%
%ADD18O,1.700000X1.700000*%
%TD*%
%TA.AperFunction,ComponentPad*%
%ADD19RoundRect,0.250000X0.350000X0.625000X-0.350000X0.625000X-0.350000X-0.625000X0.350000X-0.625000X0*%
%TD*%
%TA.AperFunction,ComponentPad*%
%ADD20O,1.200000X1.750000*%
%TD*%
G04 APERTURE END LIST*
D10*
%TO.N,CHARGER+*%
%TO.C,TP4*%
X142200000Y-52200000D03*
X143200000Y-53200000D03*
X143200000Y-52200000D03*
X143200000Y-54200000D03*
X144200000Y-52200000D03*
X142200000Y-51200000D03*
X143200000Y-51200000D03*
X145200000Y-54200000D03*
X145200000Y-51200000D03*
X144200000Y-53200000D03*
X145200000Y-53200000D03*
X142200000Y-54200000D03*
X145200000Y-52200000D03*
X144200000Y-51200000D03*
X144200000Y-54200000D03*
X142200000Y-53200000D03*
%TD*%
%TO.N,Net-(R61-Pad1)*%
%TO.C,TP3*%
X150200000Y-54100000D03*
X152200000Y-53100000D03*
X150200000Y-53100000D03*
X150200000Y-51100000D03*
X151200000Y-54100000D03*
X149200000Y-51100000D03*
X149200000Y-54100000D03*
X151200000Y-51100000D03*
X149200000Y-52100000D03*
X152200000Y-52100000D03*
X152200000Y-51100000D03*
X151200000Y-53100000D03*
X152200000Y-54100000D03*
X151200000Y-52100000D03*
X150200000Y-52100000D03*
X149200000Y-53100000D03*
%TD*%
%TO.N,GND*%
%TO.C,TP2*%
X133600000Y-52960000D03*
X135600000Y-53960000D03*
X132600000Y-52960000D03*
X134600000Y-52960000D03*
X133600000Y-53960000D03*
X134600000Y-53960000D03*
X133600000Y-51960000D03*
X132600000Y-51960000D03*
X134600000Y-50960000D03*
X135600000Y-50960000D03*
X135600000Y-52960000D03*
X132600000Y-50960000D03*
X135600000Y-51960000D03*
X134600000Y-51960000D03*
X133600000Y-50960000D03*
X132600000Y-53960000D03*
%TD*%
D11*
%TO.N,GND*%
%TO.C,J3*%
X148620000Y-147250000D03*
D12*
X139980000Y-143070000D03*
X148620000Y-143070000D03*
D11*
X139980000Y-147250000D03*
%TD*%
D13*
%TO.N,+3V3*%
%TO.C,J7*%
X171700000Y-122000000D03*
D14*
%TO.N,/STM32L476/NRST*%
X171700000Y-120000000D03*
%TO.N,/STM32L476/SWCLK*%
X171700000Y-118000000D03*
%TO.N,/STM32L476/SWDIO*%
X171700000Y-116000000D03*
%TO.N,GND*%
X171700000Y-114000000D03*
%TD*%
D15*
%TO.N,/BQ76940/CELL-_1*%
%TO.C,J6*%
X78875000Y-129000000D03*
%TO.N,/BQ76940/CELL+_1*%
X78875000Y-126500000D03*
%TO.N,/BQ76940/CELL+_2*%
X78875000Y-124000000D03*
%TO.N,/BQ76940/CELL+_3*%
X78875000Y-121500000D03*
%TO.N,/BQ76940/CELL+_4*%
X78875000Y-119000000D03*
%TO.N,/BQ76940/CELL+_5*%
X78875000Y-116500000D03*
%TO.N,/BQ76940/CELL+_6*%
X78875000Y-114000000D03*
D16*
%TO.N,/BQ76940/CELL+_7*%
X78875000Y-111500000D03*
%TD*%
D17*
%TO.N,/Charge_control/BQ_CHG_EN*%
%TO.C,J8*%
X162700000Y-101400000D03*
D18*
%TO.N,/Charge_control/BQ_CP_EN*%
X165240000Y-101400000D03*
%TO.N,/Charge_control/BQ_DSG_EN*%
X167780000Y-101400000D03*
%TO.N,/Charge_control/BQ_PCHG_EN*%
X170320000Y-101400000D03*
%TO.N,/Charge_control/BQ_PMON_EN*%
X172860000Y-101400000D03*
%TD*%
D19*
%TO.N,/CAN/CAN_H*%
%TO.C,J4*%
X165300000Y-144350000D03*
D20*
%TO.N,/CAN/CAN_L*%
X163300000Y-144350000D03*
%TD*%
D16*
%TO.N,/BQ76940/CELL+_15*%
%TO.C,J5*%
X78975000Y-70900000D03*
D15*
%TO.N,/BQ76940/CELL+_14*%
X78975000Y-73400000D03*
%TO.N,/BQ76940/CELL+_13*%
X78975000Y-75900000D03*
%TO.N,/BQ76940/CELL+_12*%
X78975000Y-78400000D03*
%TO.N,/BQ76940/CELL+_11*%
X78975000Y-80900000D03*
%TO.N,/BQ76940/CELL+_10*%
X78975000Y-83400000D03*
%TO.N,/BQ76940/CELL+_9*%
X78975000Y-85900000D03*
%TO.N,/BQ76940/CELL+_8*%
X78975000Y-88400000D03*
%TD*%
D10*
%TO.N,V+*%
%TO.C,TP1*%
X128600000Y-51975000D03*
X125600000Y-51975000D03*
X126600000Y-53975000D03*
X126600000Y-52975000D03*
X125600000Y-52975000D03*
X128600000Y-50975000D03*
X127600000Y-51975000D03*
X128600000Y-52975000D03*
X127600000Y-52975000D03*
X126600000Y-51975000D03*
X127600000Y-53975000D03*
X126600000Y-50975000D03*
X127600000Y-50975000D03*
X125600000Y-50975000D03*
X125600000Y-53975000D03*
X128600000Y-53975000D03*
%TD*%
%TA.AperFunction,Conductor*%
%TO.N,GND*%
G36*
X124797531Y-50528502D02*
G01*
X124844024Y-50582158D01*
X124854128Y-50652432D01*
X124847811Y-50677595D01*
X124813010Y-50773210D01*
X124809197Y-50783685D01*
X124786463Y-50963640D01*
X124804163Y-51144160D01*
X124861418Y-51316273D01*
X124865065Y-51322295D01*
X124865066Y-51322297D01*
X124866424Y-51324539D01*
X124915435Y-51405465D01*
X124918106Y-51409876D01*
X124936285Y-51478505D01*
X124916243Y-51543399D01*
X124871235Y-51613238D01*
X124868826Y-51619858D01*
X124868824Y-51619861D01*
X124812069Y-51775795D01*
X124809197Y-51783685D01*
X124786463Y-51963640D01*
X124804163Y-52144160D01*
X124861418Y-52316273D01*
X124865065Y-52322295D01*
X124865066Y-52322297D01*
X124866424Y-52324539D01*
X124915435Y-52405465D01*
X124918106Y-52409876D01*
X124936285Y-52478505D01*
X124916243Y-52543399D01*
X124871235Y-52613238D01*
X124868826Y-52619858D01*
X124868824Y-52619861D01*
X124812069Y-52775795D01*
X124809197Y-52783685D01*
X124786463Y-52963640D01*
X124804163Y-53144160D01*
X124861418Y-53316273D01*
X124865065Y-53322295D01*
X124865066Y-53322297D01*
X124866424Y-53324539D01*
X124915435Y-53405465D01*
X124918106Y-53409876D01*
X124936285Y-53478505D01*
X124916243Y-53543399D01*
X124871235Y-53613238D01*
X124868826Y-53619858D01*
X124868824Y-53619861D01*
X124812069Y-53775795D01*
X124809197Y-53783685D01*
X124786463Y-53963640D01*
X124804163Y-54144160D01*
X124861418Y-54316273D01*
X124865065Y-54322295D01*
X124865066Y-54322297D01*
X124951680Y-54465314D01*
X124955380Y-54471424D01*
X125081382Y-54601902D01*
X125104624Y-54617111D01*
X125216623Y-54690401D01*
X125233159Y-54701222D01*
X125239763Y-54703678D01*
X125239765Y-54703679D01*
X125396558Y-54761990D01*
X125396560Y-54761990D01*
X125403168Y-54764448D01*
X125486995Y-54775633D01*
X125575980Y-54787507D01*
X125575984Y-54787507D01*
X125582961Y-54788438D01*
X125589972Y-54787800D01*
X125589976Y-54787800D01*
X125732459Y-54774832D01*
X125763600Y-54771998D01*
X125770302Y-54769820D01*
X125770304Y-54769820D01*
X125929409Y-54718124D01*
X125929412Y-54718123D01*
X125936108Y-54715947D01*
X126035701Y-54656577D01*
X126104454Y-54638878D01*
X126169210Y-54659375D01*
X126216623Y-54690401D01*
X126233159Y-54701222D01*
X126239763Y-54703678D01*
X126239765Y-54703679D01*
X126396558Y-54761990D01*
X126396560Y-54761990D01*
X126403168Y-54764448D01*
X126486995Y-54775633D01*
X126575980Y-54787507D01*
X126575984Y-54787507D01*
X126582961Y-54788438D01*
X126589972Y-54787800D01*
X126589976Y-54787800D01*
X126732459Y-54774832D01*
X126763600Y-54771998D01*
X126770302Y-54769820D01*
X126770304Y-54769820D01*
X126929409Y-54718124D01*
X126929412Y-54718123D01*
X126936108Y-54715947D01*
X127035701Y-54656577D01*
X127104454Y-54638878D01*
X127169210Y-54659375D01*
X127216623Y-54690401D01*
X127233159Y-54701222D01*
X127239763Y-54703678D01*
X127239765Y-54703679D01*
X127396558Y-54761990D01*
X127396560Y-54761990D01*
X127403168Y-54764448D01*
X127486995Y-54775633D01*
X127575980Y-54787507D01*
X127575984Y-54787507D01*
X127582961Y-54788438D01*
X127589972Y-54787800D01*
X127589976Y-54787800D01*
X127732459Y-54774832D01*
X127763600Y-54771998D01*
X127770302Y-54769820D01*
X127770304Y-54769820D01*
X127929409Y-54718124D01*
X127929412Y-54718123D01*
X127936108Y-54715947D01*
X128035701Y-54656577D01*
X128104454Y-54638878D01*
X128169210Y-54659375D01*
X128216623Y-54690401D01*
X128233159Y-54701222D01*
X128239763Y-54703678D01*
X128239765Y-54703679D01*
X128396558Y-54761990D01*
X128396560Y-54761990D01*
X128403168Y-54764448D01*
X128486995Y-54775633D01*
X128575980Y-54787507D01*
X128575984Y-54787507D01*
X128582961Y-54788438D01*
X128589972Y-54787800D01*
X128589976Y-54787800D01*
X128732459Y-54774832D01*
X128763600Y-54771998D01*
X128770302Y-54769820D01*
X128770304Y-54769820D01*
X128929409Y-54718124D01*
X128929412Y-54718123D01*
X128936108Y-54715947D01*
X128987428Y-54685354D01*
X132239475Y-54685354D01*
X132242258Y-54689073D01*
X132396680Y-54746502D01*
X132410278Y-54749892D01*
X132575990Y-54772004D01*
X132589986Y-54772297D01*
X132756477Y-54757144D01*
X132770204Y-54754327D01*
X132929202Y-54702666D01*
X132941953Y-54696881D01*
X132948769Y-54692818D01*
X132955690Y-54685354D01*
X133239475Y-54685354D01*
X133242258Y-54689073D01*
X133396680Y-54746502D01*
X133410278Y-54749892D01*
X133575990Y-54772004D01*
X133589986Y-54772297D01*
X133756477Y-54757144D01*
X133770204Y-54754327D01*
X133929202Y-54702666D01*
X133941953Y-54696881D01*
X133948769Y-54692818D01*
X133955690Y-54685354D01*
X134239475Y-54685354D01*
X134242258Y-54689073D01*
X134396680Y-54746502D01*
X134410278Y-54749892D01*
X134575990Y-54772004D01*
X134589986Y-54772297D01*
X134756477Y-54757144D01*
X134770204Y-54754327D01*
X134929202Y-54702666D01*
X134941953Y-54696881D01*
X134948769Y-54692818D01*
X134955690Y-54685354D01*
X135239475Y-54685354D01*
X135242258Y-54689073D01*
X135396680Y-54746502D01*
X135410278Y-54749892D01*
X135575990Y-54772004D01*
X135589986Y-54772297D01*
X135756477Y-54757144D01*
X135770204Y-54754327D01*
X135929202Y-54702666D01*
X135941953Y-54696881D01*
X135948769Y-54692818D01*
X135958358Y-54682476D01*
X135954852Y-54674062D01*
X135612812Y-54332022D01*
X135598868Y-54324408D01*
X135597035Y-54324539D01*
X135590421Y-54328790D01*
X135246232Y-54672979D01*
X135239475Y-54685354D01*
X134955690Y-54685354D01*
X134958358Y-54682476D01*
X134954852Y-54674062D01*
X134612812Y-54332022D01*
X134598868Y-54324408D01*
X134597035Y-54324539D01*
X134590421Y-54328790D01*
X134246232Y-54672979D01*
X134239475Y-54685354D01*
X133955690Y-54685354D01*
X133958358Y-54682476D01*
X133954852Y-54674062D01*
X133612812Y-54332022D01*
X133598868Y-54324408D01*
X133597035Y-54324539D01*
X133590421Y-54328790D01*
X133246232Y-54672979D01*
X133239475Y-54685354D01*
X132955690Y-54685354D01*
X132958358Y-54682476D01*
X132954852Y-54674062D01*
X132612812Y-54332022D01*
X132598868Y-54324408D01*
X132597035Y-54324539D01*
X132590421Y-54328790D01*
X132246232Y-54672979D01*
X132239475Y-54685354D01*
X128987428Y-54685354D01*
X129091912Y-54623069D01*
X129223266Y-54497982D01*
X129323643Y-54346902D01*
X129372321Y-54218757D01*
X129385555Y-54183920D01*
X129385556Y-54183918D01*
X129388055Y-54177338D01*
X129391162Y-54155233D01*
X129412748Y-54001639D01*
X129412748Y-54001636D01*
X129413299Y-53997717D01*
X129413616Y-53975000D01*
X129411447Y-53955660D01*
X131787654Y-53955660D01*
X131803968Y-54122047D01*
X131806879Y-54135741D01*
X131859650Y-54294375D01*
X131865524Y-54307088D01*
X131866768Y-54309143D01*
X131877174Y-54318657D01*
X131885794Y-54314995D01*
X132227979Y-53972811D01*
X132234357Y-53961130D01*
X132964408Y-53961130D01*
X132964539Y-53962966D01*
X132968789Y-53969579D01*
X133087192Y-54087981D01*
X133101130Y-54095592D01*
X133102966Y-54095460D01*
X133109579Y-54091211D01*
X133227981Y-53972808D01*
X133234358Y-53961130D01*
X133964408Y-53961130D01*
X133964539Y-53962966D01*
X133968789Y-53969579D01*
X134087192Y-54087981D01*
X134101130Y-54095592D01*
X134102966Y-54095460D01*
X134109579Y-54091211D01*
X134227981Y-53972808D01*
X134234358Y-53961130D01*
X134964408Y-53961130D01*
X134964539Y-53962966D01*
X134968789Y-53969579D01*
X135087192Y-54087981D01*
X135101130Y-54095592D01*
X135102966Y-54095460D01*
X135109579Y-54091211D01*
X135227981Y-53972808D01*
X135234357Y-53961132D01*
X135964408Y-53961132D01*
X135964539Y-53962966D01*
X135968790Y-53969579D01*
X136312504Y-54313293D01*
X136324879Y-54320050D01*
X136328696Y-54317193D01*
X136385065Y-54168802D01*
X136388549Y-54155233D01*
X136412244Y-53986627D01*
X136412851Y-53978741D01*
X136413058Y-53963962D01*
X136412671Y-53956061D01*
X136393692Y-53786855D01*
X136390590Y-53773202D01*
X136335610Y-53615322D01*
X136332281Y-53608372D01*
X136323605Y-53600659D01*
X136314558Y-53604653D01*
X135972021Y-53947189D01*
X135964408Y-53961132D01*
X135234357Y-53961132D01*
X135235592Y-53958870D01*
X135235461Y-53957034D01*
X135231211Y-53950421D01*
X135112808Y-53832019D01*
X135098870Y-53824408D01*
X135097034Y-53824540D01*
X135090421Y-53828789D01*
X134972019Y-53947192D01*
X134964408Y-53961130D01*
X134234358Y-53961130D01*
X134235592Y-53958870D01*
X134235461Y-53957034D01*
X134231211Y-53950421D01*
X134112808Y-53832019D01*
X134098870Y-53824408D01*
X134097034Y-53824540D01*
X134090421Y-53828789D01*
X133972019Y-53947192D01*
X133964408Y-53961130D01*
X133234358Y-53961130D01*
X133235592Y-53958870D01*
X133235461Y-53957034D01*
X133231211Y-53950421D01*
X133112808Y-53832019D01*
X133098870Y-53824408D01*
X133097034Y-53824540D01*
X133090421Y-53828789D01*
X132972019Y-53947192D01*
X132964408Y-53961130D01*
X132234357Y-53961130D01*
X132235592Y-53958868D01*
X132235461Y-53957034D01*
X132231210Y-53950421D01*
X131887458Y-53606669D01*
X131875083Y-53599912D01*
X131869926Y-53603772D01*
X131869273Y-53605089D01*
X131812096Y-53762180D01*
X131808803Y-53775795D01*
X131787850Y-53941653D01*
X131787654Y-53955660D01*
X129411447Y-53955660D01*
X129393397Y-53794745D01*
X129391080Y-53788091D01*
X129336064Y-53630106D01*
X129336062Y-53630103D01*
X129333745Y-53623448D01*
X129282826Y-53541960D01*
X129263691Y-53473594D01*
X129267541Y-53461130D01*
X132464408Y-53461130D01*
X132464540Y-53462966D01*
X132468789Y-53469579D01*
X132587192Y-53587981D01*
X132601130Y-53595592D01*
X132602966Y-53595461D01*
X132609579Y-53591211D01*
X132727981Y-53472808D01*
X132734358Y-53461130D01*
X133464408Y-53461130D01*
X133464540Y-53462966D01*
X133468789Y-53469579D01*
X133587192Y-53587981D01*
X133601130Y-53595592D01*
X133602966Y-53595461D01*
X133609579Y-53591211D01*
X133727981Y-53472808D01*
X133734358Y-53461130D01*
X134464408Y-53461130D01*
X134464540Y-53462966D01*
X134468789Y-53469579D01*
X134587192Y-53587981D01*
X134601130Y-53595592D01*
X134602966Y-53595461D01*
X134609579Y-53591211D01*
X134727981Y-53472808D01*
X134734358Y-53461130D01*
X135464408Y-53461130D01*
X135464540Y-53462966D01*
X135468789Y-53469579D01*
X135587192Y-53587981D01*
X135601130Y-53595592D01*
X135602966Y-53595461D01*
X135609579Y-53591211D01*
X135727981Y-53472808D01*
X135735592Y-53458870D01*
X135735460Y-53457034D01*
X135731211Y-53450421D01*
X135612808Y-53332019D01*
X135598870Y-53324408D01*
X135597034Y-53324539D01*
X135590421Y-53328789D01*
X135472019Y-53447192D01*
X135464408Y-53461130D01*
X134734358Y-53461130D01*
X134735592Y-53458870D01*
X134735460Y-53457034D01*
X134731211Y-53450421D01*
X134612808Y-53332019D01*
X134598870Y-53324408D01*
X134597034Y-53324539D01*
X134590421Y-53328789D01*
X134472019Y-53447192D01*
X134464408Y-53461130D01*
X133734358Y-53461130D01*
X133735592Y-53458870D01*
X133735460Y-53457034D01*
X133731211Y-53450421D01*
X133612808Y-53332019D01*
X133598870Y-53324408D01*
X133597034Y-53324539D01*
X133590421Y-53328789D01*
X133472019Y-53447192D01*
X133464408Y-53461130D01*
X132734358Y-53461130D01*
X132735592Y-53458870D01*
X132735460Y-53457034D01*
X132731211Y-53450421D01*
X132612808Y-53332019D01*
X132598870Y-53324408D01*
X132597034Y-53324539D01*
X132590421Y-53328789D01*
X132472019Y-53447192D01*
X132464408Y-53461130D01*
X129267541Y-53461130D01*
X129284732Y-53405468D01*
X129323643Y-53346902D01*
X129372321Y-53218757D01*
X129385555Y-53183920D01*
X129385556Y-53183918D01*
X129388055Y-53177338D01*
X129391162Y-53155233D01*
X129412748Y-53001639D01*
X129412748Y-53001636D01*
X129413299Y-52997717D01*
X129413616Y-52975000D01*
X129411447Y-52955660D01*
X131787654Y-52955660D01*
X131803968Y-53122047D01*
X131806879Y-53135741D01*
X131859650Y-53294375D01*
X131865524Y-53307088D01*
X131866768Y-53309143D01*
X131877174Y-53318657D01*
X131885794Y-53314995D01*
X132227979Y-52972811D01*
X132234357Y-52961130D01*
X132964408Y-52961130D01*
X132964539Y-52962966D01*
X132968789Y-52969579D01*
X133087192Y-53087981D01*
X133101130Y-53095592D01*
X133102966Y-53095460D01*
X133109579Y-53091211D01*
X133227981Y-52972808D01*
X133234358Y-52961130D01*
X133964408Y-52961130D01*
X133964539Y-52962966D01*
X133968789Y-52969579D01*
X134087192Y-53087981D01*
X134101130Y-53095592D01*
X134102966Y-53095460D01*
X134109579Y-53091211D01*
X134227981Y-52972808D01*
X134234358Y-52961130D01*
X134964408Y-52961130D01*
X134964539Y-52962966D01*
X134968789Y-52969579D01*
X135087192Y-53087981D01*
X135101130Y-53095592D01*
X135102966Y-53095460D01*
X135109579Y-53091211D01*
X135227981Y-52972808D01*
X135234357Y-52961132D01*
X135964408Y-52961132D01*
X135964539Y-52962966D01*
X135968790Y-52969579D01*
X136312504Y-53313293D01*
X136324879Y-53320050D01*
X136328696Y-53317193D01*
X136385065Y-53168802D01*
X136388549Y-53155233D01*
X136412244Y-52986627D01*
X136412851Y-52978741D01*
X136413058Y-52963962D01*
X136412671Y-52956061D01*
X136393692Y-52786855D01*
X136390590Y-52773202D01*
X136335610Y-52615322D01*
X136332281Y-52608372D01*
X136323605Y-52600659D01*
X136314558Y-52604653D01*
X135972021Y-52947189D01*
X135964408Y-52961132D01*
X135234357Y-52961132D01*
X135235592Y-52958870D01*
X135235461Y-52957034D01*
X135231211Y-52950421D01*
X135112808Y-52832019D01*
X135098870Y-52824408D01*
X135097034Y-52824540D01*
X135090421Y-52828789D01*
X134972019Y-52947192D01*
X134964408Y-52961130D01*
X134234358Y-52961130D01*
X134235592Y-52958870D01*
X134235461Y-52957034D01*
X134231211Y-52950421D01*
X134112808Y-52832019D01*
X134098870Y-52824408D01*
X134097034Y-52824540D01*
X134090421Y-52828789D01*
X133972019Y-52947192D01*
X133964408Y-52961130D01*
X133234358Y-52961130D01*
X133235592Y-52958870D01*
X133235461Y-52957034D01*
X133231211Y-52950421D01*
X133112808Y-52832019D01*
X133098870Y-52824408D01*
X133097034Y-52824540D01*
X133090421Y-52828789D01*
X132972019Y-52947192D01*
X132964408Y-52961130D01*
X132234357Y-52961130D01*
X132235592Y-52958868D01*
X132235461Y-52957034D01*
X132231210Y-52950421D01*
X131887458Y-52606669D01*
X131875083Y-52599912D01*
X131869926Y-52603772D01*
X131869273Y-52605089D01*
X131812096Y-52762180D01*
X131808803Y-52775795D01*
X131787850Y-52941653D01*
X131787654Y-52955660D01*
X129411447Y-52955660D01*
X129393397Y-52794745D01*
X129391080Y-52788091D01*
X129336064Y-52630106D01*
X129336062Y-52630103D01*
X129333745Y-52623448D01*
X129282826Y-52541960D01*
X129263691Y-52473594D01*
X129267541Y-52461130D01*
X132464408Y-52461130D01*
X132464540Y-52462966D01*
X132468789Y-52469579D01*
X132587192Y-52587981D01*
X132601130Y-52595592D01*
X132602966Y-52595461D01*
X132609579Y-52591211D01*
X132727981Y-52472808D01*
X132734358Y-52461130D01*
X133464408Y-52461130D01*
X133464540Y-52462966D01*
X133468789Y-52469579D01*
X133587192Y-52587981D01*
X133601130Y-52595592D01*
X133602966Y-52595461D01*
X133609579Y-52591211D01*
X133727981Y-52472808D01*
X133734358Y-52461130D01*
X134464408Y-52461130D01*
X134464540Y-52462966D01*
X134468789Y-52469579D01*
X134587192Y-52587981D01*
X134601130Y-52595592D01*
X134602966Y-52595461D01*
X134609579Y-52591211D01*
X134727981Y-52472808D01*
X134734358Y-52461130D01*
X135464408Y-52461130D01*
X135464540Y-52462966D01*
X135468789Y-52469579D01*
X135587192Y-52587981D01*
X135601130Y-52595592D01*
X135602966Y-52595461D01*
X135609579Y-52591211D01*
X135727981Y-52472808D01*
X135735592Y-52458870D01*
X135735460Y-52457034D01*
X135731211Y-52450421D01*
X135612808Y-52332019D01*
X135598870Y-52324408D01*
X135597034Y-52324539D01*
X135590421Y-52328789D01*
X135472019Y-52447192D01*
X135464408Y-52461130D01*
X134734358Y-52461130D01*
X134735592Y-52458870D01*
X134735460Y-52457034D01*
X134731211Y-52450421D01*
X134612808Y-52332019D01*
X134598870Y-52324408D01*
X134597034Y-52324539D01*
X134590421Y-52328789D01*
X134472019Y-52447192D01*
X134464408Y-52461130D01*
X133734358Y-52461130D01*
X133735592Y-52458870D01*
X133735460Y-52457034D01*
X133731211Y-52450421D01*
X133612808Y-52332019D01*
X133598870Y-52324408D01*
X133597034Y-52324539D01*
X133590421Y-52328789D01*
X133472019Y-52447192D01*
X133464408Y-52461130D01*
X132734358Y-52461130D01*
X132735592Y-52458870D01*
X132735460Y-52457034D01*
X132731211Y-52450421D01*
X132612808Y-52332019D01*
X132598870Y-52324408D01*
X132597034Y-52324539D01*
X132590421Y-52328789D01*
X132472019Y-52447192D01*
X132464408Y-52461130D01*
X129267541Y-52461130D01*
X129284732Y-52405468D01*
X129323643Y-52346902D01*
X129372321Y-52218757D01*
X129385555Y-52183920D01*
X129385556Y-52183918D01*
X129388055Y-52177338D01*
X129391162Y-52155233D01*
X129412748Y-52001639D01*
X129412748Y-52001636D01*
X129413299Y-51997717D01*
X129413616Y-51975000D01*
X129411447Y-51955660D01*
X131787654Y-51955660D01*
X131803968Y-52122047D01*
X131806879Y-52135741D01*
X131859650Y-52294375D01*
X131865524Y-52307088D01*
X131866768Y-52309143D01*
X131877174Y-52318657D01*
X131885794Y-52314995D01*
X132227979Y-51972811D01*
X132234357Y-51961130D01*
X132964408Y-51961130D01*
X132964539Y-51962966D01*
X132968789Y-51969579D01*
X133087192Y-52087981D01*
X133101130Y-52095592D01*
X133102966Y-52095460D01*
X133109579Y-52091211D01*
X133227981Y-51972808D01*
X133234358Y-51961130D01*
X133964408Y-51961130D01*
X133964539Y-51962966D01*
X133968789Y-51969579D01*
X134087192Y-52087981D01*
X134101130Y-52095592D01*
X134102966Y-52095460D01*
X134109579Y-52091211D01*
X134227981Y-51972808D01*
X134234358Y-51961130D01*
X134964408Y-51961130D01*
X134964539Y-51962966D01*
X134968789Y-51969579D01*
X135087192Y-52087981D01*
X135101130Y-52095592D01*
X135102966Y-52095460D01*
X135109579Y-52091211D01*
X135227981Y-51972808D01*
X135234357Y-51961132D01*
X135964408Y-51961132D01*
X135964539Y-51962966D01*
X135968790Y-51969579D01*
X136312504Y-52313293D01*
X136324879Y-52320050D01*
X136328696Y-52317193D01*
X136385065Y-52168802D01*
X136388549Y-52155233D01*
X136412244Y-51986627D01*
X136412851Y-51978741D01*
X136413058Y-51963962D01*
X136412671Y-51956061D01*
X136393692Y-51786855D01*
X136390590Y-51773202D01*
X136335610Y-51615322D01*
X136332281Y-51608372D01*
X136323605Y-51600659D01*
X136314558Y-51604653D01*
X135972021Y-51947189D01*
X135964408Y-51961132D01*
X135234357Y-51961132D01*
X135235592Y-51958870D01*
X135235461Y-51957034D01*
X135231211Y-51950421D01*
X135112808Y-51832019D01*
X135098870Y-51824408D01*
X135097034Y-51824540D01*
X135090421Y-51828789D01*
X134972019Y-51947192D01*
X134964408Y-51961130D01*
X134234358Y-51961130D01*
X134235592Y-51958870D01*
X134235461Y-51957034D01*
X134231211Y-51950421D01*
X134112808Y-51832019D01*
X134098870Y-51824408D01*
X134097034Y-51824540D01*
X134090421Y-51828789D01*
X133972019Y-51947192D01*
X133964408Y-51961130D01*
X133234358Y-51961130D01*
X133235592Y-51958870D01*
X133235461Y-51957034D01*
X133231211Y-51950421D01*
X133112808Y-51832019D01*
X133098870Y-51824408D01*
X133097034Y-51824540D01*
X133090421Y-51828789D01*
X132972019Y-51947192D01*
X132964408Y-51961130D01*
X132234357Y-51961130D01*
X132235592Y-51958868D01*
X132235461Y-51957034D01*
X132231210Y-51950421D01*
X131887458Y-51606669D01*
X131875083Y-51599912D01*
X131869926Y-51603772D01*
X131869273Y-51605089D01*
X131812096Y-51762180D01*
X131808803Y-51775795D01*
X131787850Y-51941653D01*
X131787654Y-51955660D01*
X129411447Y-51955660D01*
X129393397Y-51794745D01*
X129391080Y-51788091D01*
X129336064Y-51630106D01*
X129336062Y-51630103D01*
X129333745Y-51623448D01*
X129282826Y-51541960D01*
X129263691Y-51473594D01*
X129267541Y-51461130D01*
X132464408Y-51461130D01*
X132464540Y-51462966D01*
X132468789Y-51469579D01*
X132587192Y-51587981D01*
X132601130Y-51595592D01*
X132602966Y-51595461D01*
X132609579Y-51591211D01*
X132727981Y-51472808D01*
X132734358Y-51461130D01*
X133464408Y-51461130D01*
X133464540Y-51462966D01*
X133468789Y-51469579D01*
X133587192Y-51587981D01*
X133601130Y-51595592D01*
X133602966Y-51595461D01*
X133609579Y-51591211D01*
X133727981Y-51472808D01*
X133734358Y-51461130D01*
X134464408Y-51461130D01*
X134464540Y-51462966D01*
X134468789Y-51469579D01*
X134587192Y-51587981D01*
X134601130Y-51595592D01*
X134602966Y-51595461D01*
X134609579Y-51591211D01*
X134727981Y-51472808D01*
X134734358Y-51461130D01*
X135464408Y-51461130D01*
X135464540Y-51462966D01*
X135468789Y-51469579D01*
X135587192Y-51587981D01*
X135601130Y-51595592D01*
X135602966Y-51595461D01*
X135609579Y-51591211D01*
X135727981Y-51472808D01*
X135735592Y-51458870D01*
X135735460Y-51457034D01*
X135731211Y-51450421D01*
X135612808Y-51332019D01*
X135598870Y-51324408D01*
X135597034Y-51324539D01*
X135590421Y-51328789D01*
X135472019Y-51447192D01*
X135464408Y-51461130D01*
X134734358Y-51461130D01*
X134735592Y-51458870D01*
X134735460Y-51457034D01*
X134731211Y-51450421D01*
X134612808Y-51332019D01*
X134598870Y-51324408D01*
X134597034Y-51324539D01*
X134590421Y-51328789D01*
X134472019Y-51447192D01*
X134464408Y-51461130D01*
X133734358Y-51461130D01*
X133735592Y-51458870D01*
X133735460Y-51457034D01*
X133731211Y-51450421D01*
X133612808Y-51332019D01*
X133598870Y-51324408D01*
X133597034Y-51324539D01*
X133590421Y-51328789D01*
X133472019Y-51447192D01*
X133464408Y-51461130D01*
X132734358Y-51461130D01*
X132735592Y-51458870D01*
X132735460Y-51457034D01*
X132731211Y-51450421D01*
X132612808Y-51332019D01*
X132598870Y-51324408D01*
X132597034Y-51324539D01*
X132590421Y-51328789D01*
X132472019Y-51447192D01*
X132464408Y-51461130D01*
X129267541Y-51461130D01*
X129284732Y-51405468D01*
X129323643Y-51346902D01*
X129372321Y-51218757D01*
X129385555Y-51183920D01*
X129385556Y-51183918D01*
X129388055Y-51177338D01*
X129391162Y-51155233D01*
X129412748Y-51001639D01*
X129412748Y-51001636D01*
X129413299Y-50997717D01*
X129413616Y-50975000D01*
X129393397Y-50794745D01*
X129352023Y-50675935D01*
X129348510Y-50605027D01*
X129383892Y-50543475D01*
X129446934Y-50510823D01*
X129471015Y-50508500D01*
X131724482Y-50508500D01*
X131792603Y-50528502D01*
X131839096Y-50582158D01*
X131849200Y-50652432D01*
X131842883Y-50677594D01*
X131812096Y-50762180D01*
X131808803Y-50775795D01*
X131787850Y-50941653D01*
X131787654Y-50955660D01*
X131803968Y-51122047D01*
X131806879Y-51135741D01*
X131859650Y-51294375D01*
X131865524Y-51307088D01*
X131866768Y-51309143D01*
X131877174Y-51318657D01*
X131885794Y-51314995D01*
X132239659Y-50961130D01*
X132964408Y-50961130D01*
X132964539Y-50962966D01*
X132968789Y-50969579D01*
X133087192Y-51087981D01*
X133101130Y-51095592D01*
X133102966Y-51095460D01*
X133109579Y-51091211D01*
X133227981Y-50972808D01*
X133234358Y-50961130D01*
X133964408Y-50961130D01*
X133964539Y-50962966D01*
X133968789Y-50969579D01*
X134087192Y-51087981D01*
X134101130Y-51095592D01*
X134102966Y-51095460D01*
X134109579Y-51091211D01*
X134227981Y-50972808D01*
X134234358Y-50961130D01*
X134964408Y-50961130D01*
X134964539Y-50962966D01*
X134968789Y-50969579D01*
X135087192Y-51087981D01*
X135101130Y-51095592D01*
X135102966Y-51095460D01*
X135109579Y-51091211D01*
X135227981Y-50972808D01*
X135235592Y-50958870D01*
X135235461Y-50957034D01*
X135231211Y-50950421D01*
X135112808Y-50832019D01*
X135098870Y-50824408D01*
X135097034Y-50824540D01*
X135090421Y-50828789D01*
X134972019Y-50947192D01*
X134964408Y-50961130D01*
X134234358Y-50961130D01*
X134235592Y-50958870D01*
X134235461Y-50957034D01*
X134231211Y-50950421D01*
X134112808Y-50832019D01*
X134098870Y-50824408D01*
X134097034Y-50824540D01*
X134090421Y-50828789D01*
X133972019Y-50947192D01*
X133964408Y-50961130D01*
X133234358Y-50961130D01*
X133235592Y-50958870D01*
X133235461Y-50957034D01*
X133231211Y-50950421D01*
X133112808Y-50832019D01*
X133098870Y-50824408D01*
X133097034Y-50824540D01*
X133090421Y-50828789D01*
X132972019Y-50947192D01*
X132964408Y-50961130D01*
X132239659Y-50961130D01*
X132600000Y-50600790D01*
X132655384Y-50545405D01*
X132717696Y-50511380D01*
X132744480Y-50508500D01*
X133455520Y-50508500D01*
X133523641Y-50528502D01*
X133544616Y-50545405D01*
X133587192Y-50587982D01*
X133601130Y-50595592D01*
X133602966Y-50595461D01*
X133609579Y-50591211D01*
X133655384Y-50545405D01*
X133717696Y-50511380D01*
X133744480Y-50508500D01*
X134455520Y-50508500D01*
X134523641Y-50528502D01*
X134544616Y-50545405D01*
X134587192Y-50587982D01*
X134601130Y-50595592D01*
X134602966Y-50595461D01*
X134609579Y-50591211D01*
X134655384Y-50545405D01*
X134717696Y-50511380D01*
X134744480Y-50508500D01*
X135455520Y-50508500D01*
X135523641Y-50528502D01*
X135544616Y-50545405D01*
X135599999Y-50600789D01*
X136312503Y-51313292D01*
X136324879Y-51320050D01*
X136328696Y-51317193D01*
X136385065Y-51168802D01*
X136388549Y-51155233D01*
X136412244Y-50986627D01*
X136412851Y-50978741D01*
X136413058Y-50963962D01*
X136412671Y-50956061D01*
X136393692Y-50786855D01*
X136390592Y-50773210D01*
X136356718Y-50675937D01*
X136353206Y-50605027D01*
X136388587Y-50543475D01*
X136451629Y-50510823D01*
X136475710Y-50508500D01*
X141452637Y-50508500D01*
X141520758Y-50528502D01*
X141567251Y-50582158D01*
X141577355Y-50652432D01*
X141558549Y-50702753D01*
X141471235Y-50838238D01*
X141468826Y-50844858D01*
X141468824Y-50844861D01*
X141411606Y-51002066D01*
X141409197Y-51008685D01*
X141386463Y-51188640D01*
X141404163Y-51369160D01*
X141461418Y-51541273D01*
X141515435Y-51630465D01*
X141518106Y-51634876D01*
X141536285Y-51703505D01*
X141516243Y-51768399D01*
X141471235Y-51838238D01*
X141468826Y-51844858D01*
X141468824Y-51844861D01*
X141411606Y-52002066D01*
X141409197Y-52008685D01*
X141386463Y-52188640D01*
X141404163Y-52369160D01*
X141461418Y-52541273D01*
X141515435Y-52630465D01*
X141518106Y-52634876D01*
X141536285Y-52703505D01*
X141516243Y-52768399D01*
X141471235Y-52838238D01*
X141468826Y-52844858D01*
X141468824Y-52844861D01*
X141411606Y-53002066D01*
X141409197Y-53008685D01*
X141386463Y-53188640D01*
X141404163Y-53369160D01*
X141461418Y-53541273D01*
X141515435Y-53630465D01*
X141518106Y-53634876D01*
X141536285Y-53703505D01*
X141516243Y-53768399D01*
X141471235Y-53838238D01*
X141468826Y-53844858D01*
X141468824Y-53844861D01*
X141411606Y-54002066D01*
X141409197Y-54008685D01*
X141386463Y-54188640D01*
X141404163Y-54369160D01*
X141461418Y-54541273D01*
X141465065Y-54547295D01*
X141465066Y-54547297D01*
X141548676Y-54685354D01*
X141555380Y-54696424D01*
X141560269Y-54701487D01*
X141560270Y-54701488D01*
X141611297Y-54754327D01*
X141681382Y-54826902D01*
X141702845Y-54840947D01*
X141789477Y-54897637D01*
X141833159Y-54926222D01*
X141839763Y-54928678D01*
X141839765Y-54928679D01*
X141996558Y-54986990D01*
X141996560Y-54986990D01*
X142003168Y-54989448D01*
X142086995Y-55000633D01*
X142175980Y-55012507D01*
X142175984Y-55012507D01*
X142182961Y-55013438D01*
X142189972Y-55012800D01*
X142189976Y-55012800D01*
X142332459Y-54999832D01*
X142363600Y-54996998D01*
X142370302Y-54994820D01*
X142370304Y-54994820D01*
X142529409Y-54943124D01*
X142529412Y-54943123D01*
X142536108Y-54940947D01*
X142635701Y-54881577D01*
X142704454Y-54863878D01*
X142769210Y-54884375D01*
X142789477Y-54897637D01*
X142833159Y-54926222D01*
X142839763Y-54928678D01*
X142839765Y-54928679D01*
X142996558Y-54986990D01*
X142996560Y-54986990D01*
X143003168Y-54989448D01*
X143086995Y-55000633D01*
X143175980Y-55012507D01*
X143175984Y-55012507D01*
X143182961Y-55013438D01*
X143189972Y-55012800D01*
X143189976Y-55012800D01*
X143332459Y-54999832D01*
X143363600Y-54996998D01*
X143370302Y-54994820D01*
X143370304Y-54994820D01*
X143529409Y-54943124D01*
X143529412Y-54943123D01*
X143536108Y-54940947D01*
X143635701Y-54881577D01*
X143704454Y-54863878D01*
X143769210Y-54884375D01*
X143789477Y-54897637D01*
X143833159Y-54926222D01*
X143839763Y-54928678D01*
X143839765Y-54928679D01*
X143996558Y-54986990D01*
X143996560Y-54986990D01*
X144003168Y-54989448D01*
X144086995Y-55000633D01*
X144175980Y-55012507D01*
X144175984Y-55012507D01*
X144182961Y-55013438D01*
X144189972Y-55012800D01*
X144189976Y-55012800D01*
X144332459Y-54999832D01*
X144363600Y-54996998D01*
X144370302Y-54994820D01*
X144370304Y-54994820D01*
X144529409Y-54943124D01*
X144529412Y-54943123D01*
X144536108Y-54940947D01*
X144635701Y-54881577D01*
X144704454Y-54863878D01*
X144769210Y-54884375D01*
X144789477Y-54897637D01*
X144833159Y-54926222D01*
X144839763Y-54928678D01*
X144839765Y-54928679D01*
X144996558Y-54986990D01*
X144996560Y-54986990D01*
X145003168Y-54989448D01*
X145086995Y-55000633D01*
X145175980Y-55012507D01*
X145175984Y-55012507D01*
X145182961Y-55013438D01*
X145189972Y-55012800D01*
X145189976Y-55012800D01*
X145332459Y-54999832D01*
X145363600Y-54996998D01*
X145370302Y-54994820D01*
X145370304Y-54994820D01*
X145529409Y-54943124D01*
X145529412Y-54943123D01*
X145536108Y-54940947D01*
X145691912Y-54848069D01*
X145823266Y-54722982D01*
X145923643Y-54571902D01*
X145965423Y-54461917D01*
X145985555Y-54408920D01*
X145985556Y-54408918D01*
X145988055Y-54402338D01*
X145989035Y-54395366D01*
X146012748Y-54226639D01*
X146012748Y-54226636D01*
X146013299Y-54222717D01*
X146013616Y-54200000D01*
X145993397Y-54019745D01*
X145991080Y-54013091D01*
X145936064Y-53855106D01*
X145936062Y-53855103D01*
X145933745Y-53848448D01*
X145882826Y-53766960D01*
X145863691Y-53698594D01*
X145884732Y-53630468D01*
X145923643Y-53571902D01*
X145969790Y-53450421D01*
X145985555Y-53408920D01*
X145985556Y-53408918D01*
X145988055Y-53402338D01*
X145989035Y-53395366D01*
X146012748Y-53226639D01*
X146012748Y-53226636D01*
X146013299Y-53222717D01*
X146013616Y-53200000D01*
X145993397Y-53019745D01*
X145991080Y-53013091D01*
X145936064Y-52855106D01*
X145936062Y-52855103D01*
X145933745Y-52848448D01*
X145882826Y-52766960D01*
X145863691Y-52698594D01*
X145884732Y-52630468D01*
X145923643Y-52571902D01*
X145969790Y-52450421D01*
X145985555Y-52408920D01*
X145985556Y-52408918D01*
X145988055Y-52402338D01*
X145989035Y-52395366D01*
X146012748Y-52226639D01*
X146012748Y-52226636D01*
X146013299Y-52222717D01*
X146013616Y-52200000D01*
X145993397Y-52019745D01*
X145991080Y-52013091D01*
X145936064Y-51855106D01*
X145936062Y-51855103D01*
X145933745Y-51848448D01*
X145882826Y-51766960D01*
X145863691Y-51698594D01*
X145884732Y-51630468D01*
X145923643Y-51571902D01*
X145969790Y-51450421D01*
X145985555Y-51408920D01*
X145985556Y-51408918D01*
X145988055Y-51402338D01*
X145989035Y-51395366D01*
X146012748Y-51226639D01*
X146012748Y-51226636D01*
X146013299Y-51222717D01*
X146013616Y-51200000D01*
X145993397Y-51019745D01*
X145991080Y-51013091D01*
X145936064Y-50855106D01*
X145936062Y-50855103D01*
X145933745Y-50848448D01*
X145841778Y-50701268D01*
X145822642Y-50632900D01*
X145843507Y-50565039D01*
X145897749Y-50519231D01*
X145948632Y-50508500D01*
X148388191Y-50508500D01*
X148456312Y-50528502D01*
X148502805Y-50582158D01*
X148512909Y-50652432D01*
X148494104Y-50702752D01*
X148471235Y-50738238D01*
X148468826Y-50744858D01*
X148468824Y-50744861D01*
X148428698Y-50855106D01*
X148409197Y-50908685D01*
X148386463Y-51088640D01*
X148404163Y-51269160D01*
X148461418Y-51441273D01*
X148517933Y-51534590D01*
X148518106Y-51534876D01*
X148536285Y-51603505D01*
X148516243Y-51668399D01*
X148471235Y-51738238D01*
X148468826Y-51744858D01*
X148468824Y-51744861D01*
X148428698Y-51855106D01*
X148409197Y-51908685D01*
X148386463Y-52088640D01*
X148404163Y-52269160D01*
X148461418Y-52441273D01*
X148517933Y-52534590D01*
X148518106Y-52534876D01*
X148536285Y-52603505D01*
X148516243Y-52668399D01*
X148471235Y-52738238D01*
X148468826Y-52744858D01*
X148468824Y-52744861D01*
X148428698Y-52855106D01*
X148409197Y-52908685D01*
X148386463Y-53088640D01*
X148404163Y-53269160D01*
X148461418Y-53441273D01*
X148517933Y-53534590D01*
X148518106Y-53534876D01*
X148536285Y-53603505D01*
X148516243Y-53668399D01*
X148471235Y-53738238D01*
X148468826Y-53744858D01*
X148468824Y-53744861D01*
X148428698Y-53855106D01*
X148409197Y-53908685D01*
X148386463Y-54088640D01*
X148404163Y-54269160D01*
X148461418Y-54441273D01*
X148465065Y-54447295D01*
X148465066Y-54447297D01*
X148544085Y-54577773D01*
X148555380Y-54596424D01*
X148560269Y-54601487D01*
X148560270Y-54601488D01*
X148613470Y-54656578D01*
X148681382Y-54726902D01*
X148833159Y-54826222D01*
X148839763Y-54828678D01*
X148839765Y-54828679D01*
X148996558Y-54886990D01*
X148996560Y-54886990D01*
X149003168Y-54889448D01*
X149086995Y-54900633D01*
X149175980Y-54912507D01*
X149175984Y-54912507D01*
X149182961Y-54913438D01*
X149189972Y-54912800D01*
X149189976Y-54912800D01*
X149332459Y-54899832D01*
X149363600Y-54896998D01*
X149370302Y-54894820D01*
X149370304Y-54894820D01*
X149529409Y-54843124D01*
X149529412Y-54843123D01*
X149536108Y-54840947D01*
X149635701Y-54781577D01*
X149704454Y-54763878D01*
X149769210Y-54784375D01*
X149773997Y-54787507D01*
X149833159Y-54826222D01*
X149839763Y-54828678D01*
X149839765Y-54828679D01*
X149996558Y-54886990D01*
X149996560Y-54886990D01*
X150003168Y-54889448D01*
X150086995Y-54900633D01*
X150175980Y-54912507D01*
X150175984Y-54912507D01*
X150182961Y-54913438D01*
X150189972Y-54912800D01*
X150189976Y-54912800D01*
X150332459Y-54899832D01*
X150363600Y-54896998D01*
X150370302Y-54894820D01*
X150370304Y-54894820D01*
X150529409Y-54843124D01*
X150529412Y-54843123D01*
X150536108Y-54840947D01*
X150635701Y-54781577D01*
X150704454Y-54763878D01*
X150769210Y-54784375D01*
X150773997Y-54787507D01*
X150833159Y-54826222D01*
X150839763Y-54828678D01*
X150839765Y-54828679D01*
X150996558Y-54886990D01*
X150996560Y-54886990D01*
X151003168Y-54889448D01*
X151086995Y-54900633D01*
X151175980Y-54912507D01*
X151175984Y-54912507D01*
X151182961Y-54913438D01*
X151189972Y-54912800D01*
X151189976Y-54912800D01*
X151332459Y-54899832D01*
X151363600Y-54896998D01*
X151370302Y-54894820D01*
X151370304Y-54894820D01*
X151529409Y-54843124D01*
X151529412Y-54843123D01*
X151536108Y-54840947D01*
X151635701Y-54781577D01*
X151704454Y-54763878D01*
X151769210Y-54784375D01*
X151773997Y-54787507D01*
X151833159Y-54826222D01*
X151839763Y-54828678D01*
X151839765Y-54828679D01*
X151996558Y-54886990D01*
X151996560Y-54886990D01*
X152003168Y-54889448D01*
X152086995Y-54900633D01*
X152175980Y-54912507D01*
X152175984Y-54912507D01*
X152182961Y-54913438D01*
X152189972Y-54912800D01*
X152189976Y-54912800D01*
X152332459Y-54899832D01*
X152363600Y-54896998D01*
X152370302Y-54894820D01*
X152370304Y-54894820D01*
X152529409Y-54843124D01*
X152529412Y-54843123D01*
X152536108Y-54840947D01*
X152651771Y-54771998D01*
X152685860Y-54751677D01*
X152685862Y-54751676D01*
X152691912Y-54748069D01*
X152823266Y-54622982D01*
X152923643Y-54471902D01*
X152979622Y-54324539D01*
X152985555Y-54308920D01*
X152985556Y-54308918D01*
X152988055Y-54302338D01*
X152989174Y-54294375D01*
X153012748Y-54126639D01*
X153012748Y-54126636D01*
X153013299Y-54122717D01*
X153013616Y-54100000D01*
X152993397Y-53919745D01*
X152991080Y-53913091D01*
X152936064Y-53755106D01*
X152936062Y-53755103D01*
X152933745Y-53748448D01*
X152882826Y-53666960D01*
X152863691Y-53598594D01*
X152884732Y-53530468D01*
X152923643Y-53471902D01*
X152979622Y-53324539D01*
X152985555Y-53308920D01*
X152985556Y-53308918D01*
X152988055Y-53302338D01*
X152989174Y-53294375D01*
X153012748Y-53126639D01*
X153012748Y-53126636D01*
X153013299Y-53122717D01*
X153013616Y-53100000D01*
X152993397Y-52919745D01*
X152991080Y-52913091D01*
X152936064Y-52755106D01*
X152936062Y-52755103D01*
X152933745Y-52748448D01*
X152882826Y-52666960D01*
X152863691Y-52598594D01*
X152884732Y-52530468D01*
X152923643Y-52471902D01*
X152979622Y-52324539D01*
X152985555Y-52308920D01*
X152985556Y-52308918D01*
X152988055Y-52302338D01*
X152989174Y-52294375D01*
X153012748Y-52126639D01*
X153012748Y-52126636D01*
X153013299Y-52122717D01*
X153013616Y-52100000D01*
X152993397Y-51919745D01*
X152991080Y-51913091D01*
X152936064Y-51755106D01*
X152936062Y-51755103D01*
X152933745Y-51748448D01*
X152882826Y-51666960D01*
X152863691Y-51598594D01*
X152884732Y-51530468D01*
X152923643Y-51471902D01*
X152979622Y-51324539D01*
X152985555Y-51308920D01*
X152985556Y-51308918D01*
X152988055Y-51302338D01*
X152989174Y-51294375D01*
X153012748Y-51126639D01*
X153012748Y-51126636D01*
X153013299Y-51122717D01*
X153013616Y-51100000D01*
X152993397Y-50919745D01*
X152991080Y-50913091D01*
X152936064Y-50755106D01*
X152936062Y-50755103D01*
X152933745Y-50748448D01*
X152904264Y-50701267D01*
X152885129Y-50632899D01*
X152905995Y-50565038D01*
X152960237Y-50519231D01*
X153011119Y-50508500D01*
X174365500Y-50508500D01*
X174433621Y-50528502D01*
X174480114Y-50582158D01*
X174491500Y-50634500D01*
X174491500Y-149365500D01*
X174471498Y-149433621D01*
X174417842Y-149480114D01*
X174365500Y-149491500D01*
X75634500Y-149491500D01*
X75566379Y-149471498D01*
X75519886Y-149417842D01*
X75508500Y-149365500D01*
X75508500Y-147596657D01*
X138972000Y-147596657D01*
X138972301Y-147602805D01*
X138985812Y-147740603D01*
X138988195Y-147752638D01*
X139041767Y-147930076D01*
X139046441Y-147941416D01*
X139133460Y-148105077D01*
X139140249Y-148115294D01*
X139257397Y-148258933D01*
X139266041Y-148267637D01*
X139408856Y-148385784D01*
X139419027Y-148392644D01*
X139582076Y-148480804D01*
X139593381Y-148485556D01*
X139708692Y-148521250D01*
X139722795Y-148521456D01*
X139726000Y-148514701D01*
X139726000Y-148507924D01*
X140234000Y-148507924D01*
X140237973Y-148521455D01*
X140245768Y-148522575D01*
X140353521Y-148490862D01*
X140364889Y-148486269D01*
X140529154Y-148400393D01*
X140539415Y-148393679D01*
X140683873Y-148277532D01*
X140692632Y-148268954D01*
X140811778Y-148126961D01*
X140818708Y-148116841D01*
X140908002Y-147954415D01*
X140912834Y-147943142D01*
X140968880Y-147766462D01*
X140971430Y-147754468D01*
X140987607Y-147610239D01*
X140988000Y-147603215D01*
X140988000Y-147596657D01*
X147612000Y-147596657D01*
X147612301Y-147602805D01*
X147625812Y-147740603D01*
X147628195Y-147752638D01*
X147681767Y-147930076D01*
X147686441Y-147941416D01*
X147773460Y-148105077D01*
X147780249Y-148115294D01*
X147897397Y-148258933D01*
X147906041Y-148267637D01*
X148048856Y-148385784D01*
X148059027Y-148392644D01*
X148222076Y-148480804D01*
X148233381Y-148485556D01*
X148348692Y-148521250D01*
X148362795Y-148521456D01*
X148366000Y-148514701D01*
X148366000Y-148507924D01*
X148874000Y-148507924D01*
X148877973Y-148521455D01*
X148885768Y-148522575D01*
X148993521Y-148490862D01*
X149004889Y-148486269D01*
X149169154Y-148400393D01*
X149179415Y-148393679D01*
X149323873Y-148277532D01*
X149332632Y-148268954D01*
X149451778Y-148126961D01*
X149458708Y-148116841D01*
X149548002Y-147954415D01*
X149552834Y-147943142D01*
X149608880Y-147766462D01*
X149611430Y-147754468D01*
X149627607Y-147610239D01*
X149628000Y-147603215D01*
X149628000Y-147522115D01*
X149623525Y-147506876D01*
X149622135Y-147505671D01*
X149614452Y-147504000D01*
X148892115Y-147504000D01*
X148876876Y-147508475D01*
X148875671Y-147509865D01*
X148874000Y-147517548D01*
X148874000Y-148507924D01*
X148366000Y-148507924D01*
X148366000Y-147522115D01*
X148361525Y-147506876D01*
X148360135Y-147505671D01*
X148352452Y-147504000D01*
X147630115Y-147504000D01*
X147614876Y-147508475D01*
X147613671Y-147509865D01*
X147612000Y-147517548D01*
X147612000Y-147596657D01*
X140988000Y-147596657D01*
X140988000Y-147522115D01*
X140983525Y-147506876D01*
X140982135Y-147505671D01*
X140974452Y-147504000D01*
X140252115Y-147504000D01*
X140236876Y-147508475D01*
X140235671Y-147509865D01*
X140234000Y-147517548D01*
X140234000Y-148507924D01*
X139726000Y-148507924D01*
X139726000Y-147522115D01*
X139721525Y-147506876D01*
X139720135Y-147505671D01*
X139712452Y-147504000D01*
X138990115Y-147504000D01*
X138974876Y-147508475D01*
X138973671Y-147509865D01*
X138972000Y-147517548D01*
X138972000Y-147596657D01*
X75508500Y-147596657D01*
X75508500Y-146977885D01*
X138972000Y-146977885D01*
X138976475Y-146993124D01*
X138977865Y-146994329D01*
X138985548Y-146996000D01*
X139707885Y-146996000D01*
X139723124Y-146991525D01*
X139724329Y-146990135D01*
X139726000Y-146982452D01*
X139726000Y-146977885D01*
X140234000Y-146977885D01*
X140238475Y-146993124D01*
X140239865Y-146994329D01*
X140247548Y-146996000D01*
X140969885Y-146996000D01*
X140985124Y-146991525D01*
X140986329Y-146990135D01*
X140988000Y-146982452D01*
X140988000Y-146977885D01*
X147612000Y-146977885D01*
X147616475Y-146993124D01*
X147617865Y-146994329D01*
X147625548Y-146996000D01*
X148347885Y-146996000D01*
X148363124Y-146991525D01*
X148364329Y-146990135D01*
X148366000Y-146982452D01*
X148366000Y-146977885D01*
X148874000Y-146977885D01*
X148878475Y-146993124D01*
X148879865Y-146994329D01*
X148887548Y-146996000D01*
X149609885Y-146996000D01*
X149625124Y-146991525D01*
X149626329Y-146990135D01*
X149628000Y-146982452D01*
X149628000Y-146903343D01*
X149627699Y-146897195D01*
X149614188Y-146759397D01*
X149611805Y-146747362D01*
X149558233Y-146569924D01*
X149553559Y-146558584D01*
X149466540Y-146394923D01*
X149459751Y-146384706D01*
X149342603Y-146241067D01*
X149333959Y-146232363D01*
X149191144Y-146114216D01*
X149180973Y-146107356D01*
X149017924Y-146019196D01*
X149006619Y-146014444D01*
X148891308Y-145978750D01*
X148877205Y-145978544D01*
X148874000Y-145985299D01*
X148874000Y-146977885D01*
X148366000Y-146977885D01*
X148366000Y-145992076D01*
X148362027Y-145978545D01*
X148354232Y-145977425D01*
X148246479Y-146009138D01*
X148235111Y-146013731D01*
X148070846Y-146099607D01*
X148060585Y-146106321D01*
X147916127Y-146222468D01*
X147907368Y-146231046D01*
X147788222Y-146373039D01*
X147781292Y-146383159D01*
X147691998Y-146545585D01*
X147687166Y-146556858D01*
X147631120Y-146733538D01*
X147628570Y-146745532D01*
X147612393Y-146889761D01*
X147612000Y-146896785D01*
X147612000Y-146977885D01*
X140988000Y-146977885D01*
X140988000Y-146903343D01*
X140987699Y-146897195D01*
X140974188Y-146759397D01*
X140971805Y-146747362D01*
X140918233Y-146569924D01*
X140913559Y-146558584D01*
X140826540Y-146394923D01*
X140819751Y-146384706D01*
X140702603Y-146241067D01*
X140693959Y-146232363D01*
X140551144Y-146114216D01*
X140540973Y-146107356D01*
X140377924Y-146019196D01*
X140366619Y-146014444D01*
X140251308Y-145978750D01*
X140237205Y-145978544D01*
X140234000Y-145985299D01*
X140234000Y-146977885D01*
X139726000Y-146977885D01*
X139726000Y-145992076D01*
X139722027Y-145978545D01*
X139714232Y-145977425D01*
X139606479Y-146009138D01*
X139595111Y-146013731D01*
X139430846Y-146099607D01*
X139420585Y-146106321D01*
X139276127Y-146222468D01*
X139267368Y-146231046D01*
X139148222Y-146373039D01*
X139141292Y-146383159D01*
X139051998Y-146545585D01*
X139047166Y-146556858D01*
X138991120Y-146733538D01*
X138988570Y-146745532D01*
X138972393Y-146889761D01*
X138972000Y-146896785D01*
X138972000Y-146977885D01*
X75508500Y-146977885D01*
X75508500Y-144677846D01*
X162191500Y-144677846D01*
X162206548Y-144835566D01*
X162266092Y-145038534D01*
X162268836Y-145043861D01*
X162268836Y-145043862D01*
X162316491Y-145136389D01*
X162362942Y-145226580D01*
X162493604Y-145392920D01*
X162498135Y-145396852D01*
X162498138Y-145396855D01*
X162584058Y-145471412D01*
X162653363Y-145531552D01*
X162658549Y-145534552D01*
X162658553Y-145534555D01*
X162754957Y-145590326D01*
X162836454Y-145637473D01*
X163036271Y-145706861D01*
X163042206Y-145707722D01*
X163042208Y-145707722D01*
X163239664Y-145736352D01*
X163239667Y-145736352D01*
X163245604Y-145737213D01*
X163456899Y-145727433D01*
X163588077Y-145695819D01*
X163656701Y-145679281D01*
X163656703Y-145679280D01*
X163662534Y-145677875D01*
X163667992Y-145675393D01*
X163667996Y-145675392D01*
X163783041Y-145623084D01*
X163855087Y-145590326D01*
X164027611Y-145467946D01*
X164031753Y-145463619D01*
X164031759Y-145463614D01*
X164118806Y-145372683D01*
X164180361Y-145337306D01*
X164251270Y-145340825D01*
X164309021Y-145382121D01*
X164316965Y-145393504D01*
X164351522Y-145449348D01*
X164476697Y-145574305D01*
X164482927Y-145578145D01*
X164482928Y-145578146D01*
X164620090Y-145662694D01*
X164627262Y-145667115D01*
X164652217Y-145675392D01*
X164788611Y-145720632D01*
X164788613Y-145720632D01*
X164795139Y-145722797D01*
X164801975Y-145723497D01*
X164801978Y-145723498D01*
X164840386Y-145727433D01*
X164899600Y-145733500D01*
X165700400Y-145733500D01*
X165703646Y-145733163D01*
X165703650Y-145733163D01*
X165799308Y-145723238D01*
X165799312Y-145723237D01*
X165806166Y-145722526D01*
X165812702Y-145720345D01*
X165812704Y-145720345D01*
X165947443Y-145675392D01*
X165973946Y-145666550D01*
X166124348Y-145573478D01*
X166249305Y-145448303D01*
X166286352Y-145388202D01*
X166338275Y-145303968D01*
X166338276Y-145303966D01*
X166342115Y-145297738D01*
X166397797Y-145129861D01*
X166408500Y-145025400D01*
X166408500Y-143674600D01*
X166397526Y-143568834D01*
X166393749Y-143557511D01*
X166343868Y-143408002D01*
X166341550Y-143401054D01*
X166248478Y-143250652D01*
X166123303Y-143125695D01*
X166020375Y-143062249D01*
X165978968Y-143036725D01*
X165978966Y-143036724D01*
X165972738Y-143032885D01*
X165852907Y-142993139D01*
X165811389Y-142979368D01*
X165811387Y-142979368D01*
X165804861Y-142977203D01*
X165798025Y-142976503D01*
X165798022Y-142976502D01*
X165754969Y-142972091D01*
X165700400Y-142966500D01*
X164899600Y-142966500D01*
X164896354Y-142966837D01*
X164896350Y-142966837D01*
X164800692Y-142976762D01*
X164800688Y-142976763D01*
X164793834Y-142977474D01*
X164787298Y-142979655D01*
X164787296Y-142979655D01*
X164732139Y-142998057D01*
X164626054Y-143033450D01*
X164475652Y-143126522D01*
X164350695Y-143251697D01*
X164346855Y-143257927D01*
X164346854Y-143257928D01*
X164318926Y-143303236D01*
X164266154Y-143350729D01*
X164196082Y-143362153D01*
X164130958Y-143333879D01*
X164112582Y-143314955D01*
X164106396Y-143307080D01*
X164101865Y-143303148D01*
X164101862Y-143303145D01*
X163951167Y-143172379D01*
X163946637Y-143168448D01*
X163941451Y-143165448D01*
X163941447Y-143165445D01*
X163768742Y-143065533D01*
X163763546Y-143062527D01*
X163563729Y-142993139D01*
X163557794Y-142992278D01*
X163557792Y-142992278D01*
X163360336Y-142963648D01*
X163360333Y-142963648D01*
X163354396Y-142962787D01*
X163143101Y-142972567D01*
X163011923Y-143004181D01*
X162943299Y-143020719D01*
X162943297Y-143020720D01*
X162937466Y-143022125D01*
X162932008Y-143024607D01*
X162932004Y-143024608D01*
X162816959Y-143076916D01*
X162744913Y-143109674D01*
X162572389Y-143232054D01*
X162426119Y-143384850D01*
X162311380Y-143562548D01*
X162232314Y-143758737D01*
X162191772Y-143966337D01*
X162191500Y-143971899D01*
X162191500Y-144677846D01*
X75508500Y-144677846D01*
X75508500Y-143666657D01*
X138972000Y-143666657D01*
X138972301Y-143672805D01*
X138985812Y-143810603D01*
X138988195Y-143822638D01*
X139041767Y-144000076D01*
X139046441Y-144011416D01*
X139133460Y-144175077D01*
X139140249Y-144185294D01*
X139257397Y-144328933D01*
X139266041Y-144337637D01*
X139408856Y-144455784D01*
X139419027Y-144462644D01*
X139582076Y-144550804D01*
X139593381Y-144555556D01*
X139708692Y-144591250D01*
X139722795Y-144591456D01*
X139726000Y-144584701D01*
X139726000Y-144577924D01*
X140234000Y-144577924D01*
X140237973Y-144591455D01*
X140245768Y-144592575D01*
X140353521Y-144560862D01*
X140364889Y-144556269D01*
X140529154Y-144470393D01*
X140539415Y-144463679D01*
X140683873Y-144347532D01*
X140692632Y-144338954D01*
X140737000Y-144286079D01*
X140796110Y-144246752D01*
X140867098Y-144245626D01*
X140910048Y-144266972D01*
X140975678Y-144317150D01*
X141062372Y-144357576D01*
X141133631Y-144390805D01*
X141133634Y-144390806D01*
X141139808Y-144393685D01*
X141146456Y-144395171D01*
X141146459Y-144395172D01*
X141252421Y-144418857D01*
X141316543Y-144433190D01*
X141322088Y-144433500D01*
X141455244Y-144433500D01*
X141590037Y-144418857D01*
X141708190Y-144379094D01*
X141755204Y-144363272D01*
X141755206Y-144363271D01*
X141761675Y-144361094D01*
X141916905Y-144267823D01*
X141921862Y-144263135D01*
X141921865Y-144263133D01*
X142043527Y-144148082D01*
X142043529Y-144148080D01*
X142048485Y-144143393D01*
X142052317Y-144137755D01*
X142052320Y-144137751D01*
X142146442Y-143999255D01*
X142150277Y-143993612D01*
X142217530Y-143825466D01*
X142218644Y-143818738D01*
X142218645Y-143818734D01*
X142245993Y-143653539D01*
X142245993Y-143653536D01*
X142247108Y-143646802D01*
X142243382Y-143575692D01*
X142242203Y-143553198D01*
X146352892Y-143553198D01*
X146353249Y-143560015D01*
X146353249Y-143560019D01*
X146358151Y-143653539D01*
X146362370Y-143734047D01*
X146364181Y-143740620D01*
X146364181Y-143740623D01*
X146386772Y-143822638D01*
X146410461Y-143908641D01*
X146494922Y-144068836D01*
X146499327Y-144074049D01*
X146499330Y-144074053D01*
X146607406Y-144201943D01*
X146607410Y-144201947D01*
X146611813Y-144207157D01*
X146617237Y-144211304D01*
X146617238Y-144211305D01*
X146750257Y-144313006D01*
X146750261Y-144313009D01*
X146755678Y-144317150D01*
X146842372Y-144357576D01*
X146913631Y-144390805D01*
X146913634Y-144390806D01*
X146919808Y-144393685D01*
X146926456Y-144395171D01*
X146926459Y-144395172D01*
X147032421Y-144418857D01*
X147096543Y-144433190D01*
X147102088Y-144433500D01*
X147235244Y-144433500D01*
X147370037Y-144418857D01*
X147488190Y-144379094D01*
X147535204Y-144363272D01*
X147535206Y-144363271D01*
X147541675Y-144361094D01*
X147693651Y-144269778D01*
X147693654Y-144269777D01*
X147696905Y-144267823D01*
X147697255Y-144268406D01*
X147758917Y-144244935D01*
X147828391Y-144259561D01*
X147866391Y-144290915D01*
X147897397Y-144328933D01*
X147906041Y-144337637D01*
X148048856Y-144455784D01*
X148059027Y-144462644D01*
X148222076Y-144550804D01*
X148233381Y-144555556D01*
X148348692Y-144591250D01*
X148362795Y-144591456D01*
X148366000Y-144584701D01*
X148366000Y-144577924D01*
X148874000Y-144577924D01*
X148877973Y-144591455D01*
X148885768Y-144592575D01*
X148993521Y-144560862D01*
X149004889Y-144556269D01*
X149169154Y-144470393D01*
X149179415Y-144463679D01*
X149323873Y-144347532D01*
X149332632Y-144338954D01*
X149451778Y-144196961D01*
X149458708Y-144186841D01*
X149548002Y-144024415D01*
X149552834Y-144013142D01*
X149608880Y-143836462D01*
X149611430Y-143824468D01*
X149627607Y-143680239D01*
X149628000Y-143673215D01*
X149628000Y-143342115D01*
X149623525Y-143326876D01*
X149622135Y-143325671D01*
X149614452Y-143324000D01*
X148892115Y-143324000D01*
X148876876Y-143328475D01*
X148875671Y-143329865D01*
X148874000Y-143337548D01*
X148874000Y-144577924D01*
X148366000Y-144577924D01*
X148366000Y-142797885D01*
X148874000Y-142797885D01*
X148878475Y-142813124D01*
X148879865Y-142814329D01*
X148887548Y-142816000D01*
X149609885Y-142816000D01*
X149625124Y-142811525D01*
X149626329Y-142810135D01*
X149628000Y-142802452D01*
X149628000Y-142473343D01*
X149627699Y-142467195D01*
X149614188Y-142329397D01*
X149611805Y-142317362D01*
X149558233Y-142139924D01*
X149553559Y-142128584D01*
X149466540Y-141964923D01*
X149459751Y-141954706D01*
X149342603Y-141811067D01*
X149333959Y-141802363D01*
X149191144Y-141684216D01*
X149180973Y-141677356D01*
X149017924Y-141589196D01*
X149006619Y-141584444D01*
X148891308Y-141548750D01*
X148877205Y-141548544D01*
X148874000Y-141555299D01*
X148874000Y-142797885D01*
X148366000Y-142797885D01*
X148366000Y-141562076D01*
X148362027Y-141548545D01*
X148354232Y-141547425D01*
X148246479Y-141579138D01*
X148235111Y-141583731D01*
X148070846Y-141669607D01*
X148060585Y-141676321D01*
X147916127Y-141792468D01*
X147907368Y-141801046D01*
X147788222Y-141943039D01*
X147781292Y-141953159D01*
X147691998Y-142115585D01*
X147687166Y-142126858D01*
X147631120Y-142303538D01*
X147628570Y-142315532D01*
X147612393Y-142459761D01*
X147612000Y-142466785D01*
X147612000Y-142682974D01*
X147591998Y-142751095D01*
X147538342Y-142797588D01*
X147468068Y-142807692D01*
X147458514Y-142805939D01*
X147288506Y-142767938D01*
X147288499Y-142767937D01*
X147283457Y-142766810D01*
X147277912Y-142766500D01*
X147144756Y-142766500D01*
X147009963Y-142781143D01*
X146891810Y-142820906D01*
X146844796Y-142836728D01*
X146844794Y-142836729D01*
X146838325Y-142838906D01*
X146683095Y-142932177D01*
X146678138Y-142936865D01*
X146678135Y-142936867D01*
X146572539Y-143036725D01*
X146551515Y-143056607D01*
X146547683Y-143062245D01*
X146547680Y-143062249D01*
X146496740Y-143137205D01*
X146449723Y-143206388D01*
X146382470Y-143374534D01*
X146381356Y-143381262D01*
X146381355Y-143381266D01*
X146354007Y-143546461D01*
X146352892Y-143553198D01*
X142242203Y-143553198D01*
X142237987Y-143472766D01*
X142237630Y-143465953D01*
X142216678Y-143389885D01*
X142191352Y-143297941D01*
X142189539Y-143291359D01*
X142105078Y-143131164D01*
X142100673Y-143125951D01*
X142100670Y-143125947D01*
X141992594Y-142998057D01*
X141992590Y-142998053D01*
X141988187Y-142992843D01*
X141970938Y-142979655D01*
X141849743Y-142886994D01*
X141849739Y-142886991D01*
X141844322Y-142882850D01*
X141700962Y-142816000D01*
X141686369Y-142809195D01*
X141686366Y-142809194D01*
X141680192Y-142806315D01*
X141673544Y-142804829D01*
X141673541Y-142804828D01*
X141508494Y-142767936D01*
X141508495Y-142767936D01*
X141503457Y-142766810D01*
X141497912Y-142766500D01*
X141364756Y-142766500D01*
X141229963Y-142781143D01*
X141223499Y-142783318D01*
X141223496Y-142783319D01*
X141166645Y-142802452D01*
X141155167Y-142806315D01*
X141154189Y-142806644D01*
X141083247Y-142809414D01*
X141022068Y-142773391D01*
X140990077Y-142710010D01*
X140988000Y-142687225D01*
X140988000Y-142473343D01*
X140987699Y-142467195D01*
X140974188Y-142329397D01*
X140971805Y-142317362D01*
X140918233Y-142139924D01*
X140913559Y-142128584D01*
X140826540Y-141964923D01*
X140819751Y-141954706D01*
X140702603Y-141811067D01*
X140693959Y-141802363D01*
X140551144Y-141684216D01*
X140540973Y-141677356D01*
X140377924Y-141589196D01*
X140366619Y-141584444D01*
X140251308Y-141548750D01*
X140237205Y-141548544D01*
X140234000Y-141555299D01*
X140234000Y-144577924D01*
X139726000Y-144577924D01*
X139726000Y-143342115D01*
X139721525Y-143326876D01*
X139720135Y-143325671D01*
X139712452Y-143324000D01*
X138990115Y-143324000D01*
X138974876Y-143328475D01*
X138973671Y-143329865D01*
X138972000Y-143337548D01*
X138972000Y-143666657D01*
X75508500Y-143666657D01*
X75508500Y-142797885D01*
X138972000Y-142797885D01*
X138976475Y-142813124D01*
X138977865Y-142814329D01*
X138985548Y-142816000D01*
X139707885Y-142816000D01*
X139723124Y-142811525D01*
X139724329Y-142810135D01*
X139726000Y-142802452D01*
X139726000Y-141562076D01*
X139722027Y-141548545D01*
X139714232Y-141547425D01*
X139606479Y-141579138D01*
X139595111Y-141583731D01*
X139430846Y-141669607D01*
X139420585Y-141676321D01*
X139276127Y-141792468D01*
X139267368Y-141801046D01*
X139148222Y-141943039D01*
X139141292Y-141953159D01*
X139051998Y-142115585D01*
X139047166Y-142126858D01*
X138991120Y-142303538D01*
X138988570Y-142315532D01*
X138972393Y-142459761D01*
X138972000Y-142466785D01*
X138972000Y-142797885D01*
X75508500Y-142797885D01*
X75508500Y-128935774D01*
X77388102Y-128935774D01*
X77396751Y-129166158D01*
X77444093Y-129391791D01*
X77528776Y-129606221D01*
X77648377Y-129803317D01*
X77651874Y-129807347D01*
X77738438Y-129907103D01*
X77799477Y-129977445D01*
X77803608Y-129980832D01*
X77973627Y-130120240D01*
X77973633Y-130120244D01*
X77977755Y-130123624D01*
X77982391Y-130126263D01*
X77982394Y-130126265D01*
X78091422Y-130188327D01*
X78178114Y-130237675D01*
X78394825Y-130316337D01*
X78400074Y-130317286D01*
X78400077Y-130317287D01*
X78617608Y-130356623D01*
X78617615Y-130356624D01*
X78621692Y-130357361D01*
X78639414Y-130358197D01*
X78644356Y-130358430D01*
X78644363Y-130358430D01*
X78645844Y-130358500D01*
X79057890Y-130358500D01*
X79124809Y-130352822D01*
X79224409Y-130344371D01*
X79224413Y-130344370D01*
X79229720Y-130343920D01*
X79234875Y-130342582D01*
X79234881Y-130342581D01*
X79447703Y-130287343D01*
X79447707Y-130287342D01*
X79452872Y-130286001D01*
X79457738Y-130283809D01*
X79457741Y-130283808D01*
X79658202Y-130193507D01*
X79663075Y-130191312D01*
X79854319Y-130062559D01*
X80021135Y-129903424D01*
X80158754Y-129718458D01*
X80263240Y-129512949D01*
X80299321Y-129396752D01*
X80330024Y-129297871D01*
X80331607Y-129292773D01*
X80332308Y-129287484D01*
X80361198Y-129069511D01*
X80361198Y-129069506D01*
X80361898Y-129064226D01*
X80353249Y-128833842D01*
X80305907Y-128608209D01*
X80221224Y-128393779D01*
X80101623Y-128196683D01*
X80014755Y-128096576D01*
X79954023Y-128026588D01*
X79954021Y-128026586D01*
X79950523Y-128022555D01*
X79908970Y-127988484D01*
X79776373Y-127879760D01*
X79776367Y-127879756D01*
X79772245Y-127876376D01*
X79740750Y-127858448D01*
X79691445Y-127807368D01*
X79677583Y-127737738D01*
X79703566Y-127671667D01*
X79732716Y-127644427D01*
X79768642Y-127620240D01*
X79854319Y-127562559D01*
X80021135Y-127403424D01*
X80158754Y-127218458D01*
X80263240Y-127012949D01*
X80299321Y-126896752D01*
X80330024Y-126797871D01*
X80331607Y-126792773D01*
X80332308Y-126787484D01*
X80361198Y-126569511D01*
X80361198Y-126569506D01*
X80361898Y-126564226D01*
X80353249Y-126333842D01*
X80305907Y-126108209D01*
X80221224Y-125893779D01*
X80101623Y-125696683D01*
X80014755Y-125596576D01*
X79954023Y-125526588D01*
X79954021Y-125526586D01*
X79950523Y-125522555D01*
X79908970Y-125488484D01*
X79776373Y-125379760D01*
X79776367Y-125379756D01*
X79772245Y-125376376D01*
X79740750Y-125358448D01*
X79691445Y-125307368D01*
X79677583Y-125237738D01*
X79703566Y-125171667D01*
X79732716Y-125144427D01*
X79768642Y-125120240D01*
X79854319Y-125062559D01*
X80021135Y-124903424D01*
X80158754Y-124718458D01*
X80263240Y-124512949D01*
X80299321Y-124396752D01*
X80330024Y-124297871D01*
X80331607Y-124292773D01*
X80332308Y-124287484D01*
X80361198Y-124069511D01*
X80361198Y-124069506D01*
X80361898Y-124064226D01*
X80353249Y-123833842D01*
X80305907Y-123608209D01*
X80221224Y-123393779D01*
X80101623Y-123196683D01*
X80025102Y-123108500D01*
X79954023Y-123026588D01*
X79954021Y-123026586D01*
X79950523Y-123022555D01*
X79864880Y-122952332D01*
X79776373Y-122879760D01*
X79776367Y-122879756D01*
X79772245Y-122876376D01*
X79740750Y-122858448D01*
X79691445Y-122807368D01*
X79677583Y-122737738D01*
X79703566Y-122671667D01*
X79732716Y-122644427D01*
X79768642Y-122620240D01*
X79854319Y-122562559D01*
X80021135Y-122403424D01*
X80025779Y-122397183D01*
X80155568Y-122222740D01*
X80158754Y-122218458D01*
X80263240Y-122012949D01*
X80299321Y-121896752D01*
X80330024Y-121797871D01*
X80331607Y-121792773D01*
X80332308Y-121787484D01*
X80361198Y-121569511D01*
X80361198Y-121569506D01*
X80361898Y-121564226D01*
X80353249Y-121333842D01*
X80305907Y-121108209D01*
X80283520Y-121051522D01*
X80223185Y-120898744D01*
X80223184Y-120898742D01*
X80221224Y-120893779D01*
X80101623Y-120696683D01*
X80062126Y-120651167D01*
X79954023Y-120526588D01*
X79954021Y-120526586D01*
X79950523Y-120522555D01*
X79908970Y-120488484D01*
X79776373Y-120379760D01*
X79776367Y-120379756D01*
X79772245Y-120376376D01*
X79740750Y-120358448D01*
X79691445Y-120307368D01*
X79677583Y-120237738D01*
X79703566Y-120171667D01*
X79732716Y-120144427D01*
X79768642Y-120120240D01*
X79854319Y-120062559D01*
X79869163Y-120048399D01*
X79947769Y-119973412D01*
X79976919Y-119945604D01*
X170312787Y-119945604D01*
X170322567Y-120156899D01*
X170323971Y-120162724D01*
X170323971Y-120162725D01*
X170363883Y-120328333D01*
X170372125Y-120362534D01*
X170374607Y-120367992D01*
X170374608Y-120367996D01*
X170418053Y-120463546D01*
X170459674Y-120555087D01*
X170582054Y-120727611D01*
X170586381Y-120731753D01*
X170586386Y-120731759D01*
X170677317Y-120818806D01*
X170712694Y-120880361D01*
X170709175Y-120951270D01*
X170667879Y-121009021D01*
X170656496Y-121016965D01*
X170600652Y-121051522D01*
X170475695Y-121176697D01*
X170382885Y-121327262D01*
X170327203Y-121495139D01*
X170316500Y-121599600D01*
X170316500Y-122400400D01*
X170316837Y-122403646D01*
X170316837Y-122403650D01*
X170324076Y-122473412D01*
X170327474Y-122506166D01*
X170383450Y-122673946D01*
X170476522Y-122824348D01*
X170601697Y-122949305D01*
X170607927Y-122953145D01*
X170607928Y-122953146D01*
X170745090Y-123037694D01*
X170752262Y-123042115D01*
X170832005Y-123068564D01*
X170913611Y-123095632D01*
X170913613Y-123095632D01*
X170920139Y-123097797D01*
X170926975Y-123098497D01*
X170926978Y-123098498D01*
X170970031Y-123102909D01*
X171024600Y-123108500D01*
X172375400Y-123108500D01*
X172378646Y-123108163D01*
X172378650Y-123108163D01*
X172474308Y-123098238D01*
X172474312Y-123098237D01*
X172481166Y-123097526D01*
X172487702Y-123095345D01*
X172487704Y-123095345D01*
X172619806Y-123051272D01*
X172648946Y-123041550D01*
X172799348Y-122948478D01*
X172924305Y-122823303D01*
X172961893Y-122762325D01*
X173013275Y-122678968D01*
X173013276Y-122678966D01*
X173017115Y-122672738D01*
X173053660Y-122562559D01*
X173070632Y-122511389D01*
X173070632Y-122511387D01*
X173072797Y-122504861D01*
X173083500Y-122400400D01*
X173083500Y-121599600D01*
X173072526Y-121493834D01*
X173051393Y-121430489D01*
X173018868Y-121333002D01*
X173016550Y-121326054D01*
X172923478Y-121175652D01*
X172798303Y-121050695D01*
X172746764Y-121018925D01*
X172699271Y-120966154D01*
X172687847Y-120896082D01*
X172716121Y-120830958D01*
X172735045Y-120812582D01*
X172742920Y-120806396D01*
X172746852Y-120801865D01*
X172746855Y-120801862D01*
X172877621Y-120651167D01*
X172881552Y-120646637D01*
X172884552Y-120641451D01*
X172884555Y-120641447D01*
X172984467Y-120468742D01*
X172987473Y-120463546D01*
X173056861Y-120263729D01*
X173058702Y-120251033D01*
X173086352Y-120060336D01*
X173086352Y-120060333D01*
X173087213Y-120054396D01*
X173077433Y-119843101D01*
X173027875Y-119637466D01*
X173011412Y-119601256D01*
X172942806Y-119450368D01*
X172940326Y-119444913D01*
X172817946Y-119272389D01*
X172665150Y-119126119D01*
X172659255Y-119122312D01*
X172632837Y-119105254D01*
X172586460Y-119051499D01*
X172576507Y-118981203D01*
X172606139Y-118916686D01*
X172623353Y-118900317D01*
X172630446Y-118894746D01*
X172742920Y-118806396D01*
X172746852Y-118801865D01*
X172746855Y-118801862D01*
X172877621Y-118651167D01*
X172881552Y-118646637D01*
X172884552Y-118641451D01*
X172884555Y-118641447D01*
X172984467Y-118468742D01*
X172987473Y-118463546D01*
X173056861Y-118263729D01*
X173087213Y-118054396D01*
X173077433Y-117843101D01*
X173040852Y-117691312D01*
X173029281Y-117643299D01*
X173029280Y-117643297D01*
X173027875Y-117637466D01*
X173021582Y-117623624D01*
X172942806Y-117450368D01*
X172940326Y-117444913D01*
X172817946Y-117272389D01*
X172665150Y-117126119D01*
X172659255Y-117122312D01*
X172632837Y-117105254D01*
X172586460Y-117051499D01*
X172576507Y-116981203D01*
X172606139Y-116916686D01*
X172623353Y-116900317D01*
X172627892Y-116896752D01*
X172742920Y-116806396D01*
X172746852Y-116801865D01*
X172746855Y-116801862D01*
X172877621Y-116651167D01*
X172881552Y-116646637D01*
X172884552Y-116641451D01*
X172884555Y-116641447D01*
X172984467Y-116468742D01*
X172987473Y-116463546D01*
X173056861Y-116263729D01*
X173064287Y-116212516D01*
X173086352Y-116060336D01*
X173086352Y-116060333D01*
X173087213Y-116054396D01*
X173077433Y-115843101D01*
X173027875Y-115637466D01*
X173011229Y-115600854D01*
X172942806Y-115450368D01*
X172940326Y-115444913D01*
X172817946Y-115272389D01*
X172684275Y-115144427D01*
X172669480Y-115130264D01*
X172665150Y-115126119D01*
X172660119Y-115122870D01*
X172660112Y-115122865D01*
X172632393Y-115104967D01*
X172586016Y-115051211D01*
X172576063Y-114980915D01*
X172605696Y-114916398D01*
X172622909Y-114900030D01*
X172737857Y-114809738D01*
X172746506Y-114801501D01*
X172877212Y-114650877D01*
X172884147Y-114641153D01*
X172984010Y-114468533D01*
X172988984Y-114457669D01*
X173054407Y-114269273D01*
X173054648Y-114268284D01*
X173053180Y-114257992D01*
X173039615Y-114254000D01*
X170364598Y-114254000D01*
X170351067Y-114257973D01*
X170349712Y-114267399D01*
X170371194Y-114356537D01*
X170375083Y-114367832D01*
X170457629Y-114549382D01*
X170463576Y-114559724D01*
X170578968Y-114722397D01*
X170586761Y-114731425D01*
X170730831Y-114869342D01*
X170740200Y-114876741D01*
X170767577Y-114894418D01*
X170813955Y-114948172D01*
X170823909Y-115018468D01*
X170794278Y-115082985D01*
X170777063Y-115099356D01*
X170657080Y-115193604D01*
X170653148Y-115198135D01*
X170653145Y-115198138D01*
X170584474Y-115277275D01*
X170518448Y-115353363D01*
X170515448Y-115358549D01*
X170515445Y-115358553D01*
X170468312Y-115440026D01*
X170412527Y-115536454D01*
X170343139Y-115736271D01*
X170342278Y-115742206D01*
X170342278Y-115742208D01*
X170335886Y-115786297D01*
X170312787Y-115945604D01*
X170322567Y-116156899D01*
X170372125Y-116362534D01*
X170374607Y-116367992D01*
X170374608Y-116367996D01*
X170418053Y-116463546D01*
X170459674Y-116555087D01*
X170582054Y-116727611D01*
X170734850Y-116873881D01*
X170739888Y-116877134D01*
X170767163Y-116894746D01*
X170813540Y-116948501D01*
X170823493Y-117018797D01*
X170793861Y-117083314D01*
X170776649Y-117099681D01*
X170657080Y-117193604D01*
X170653148Y-117198135D01*
X170653145Y-117198138D01*
X170584474Y-117277275D01*
X170518448Y-117353363D01*
X170515448Y-117358549D01*
X170515445Y-117358553D01*
X170444705Y-117480832D01*
X170412527Y-117536454D01*
X170343139Y-117736271D01*
X170342278Y-117742206D01*
X170342278Y-117742208D01*
X170313971Y-117937441D01*
X170312787Y-117945604D01*
X170322567Y-118156899D01*
X170372125Y-118362534D01*
X170374607Y-118367992D01*
X170374608Y-118367996D01*
X170418053Y-118463546D01*
X170459674Y-118555087D01*
X170582054Y-118727611D01*
X170734850Y-118873881D01*
X170739888Y-118877134D01*
X170767163Y-118894746D01*
X170813540Y-118948501D01*
X170823493Y-119018797D01*
X170793861Y-119083314D01*
X170776649Y-119099681D01*
X170657080Y-119193604D01*
X170653148Y-119198135D01*
X170653145Y-119198138D01*
X170534554Y-119334802D01*
X170518448Y-119353363D01*
X170515448Y-119358549D01*
X170515445Y-119358553D01*
X170468312Y-119440026D01*
X170412527Y-119536454D01*
X170343139Y-119736271D01*
X170312787Y-119945604D01*
X79976919Y-119945604D01*
X80021135Y-119903424D01*
X80158754Y-119718458D01*
X80263240Y-119512949D01*
X80285884Y-119440026D01*
X80330024Y-119297871D01*
X80331607Y-119292773D01*
X80345242Y-119189898D01*
X80361198Y-119069511D01*
X80361198Y-119069506D01*
X80361898Y-119064226D01*
X80353249Y-118833842D01*
X80305907Y-118608209D01*
X80256181Y-118482296D01*
X80223185Y-118398744D01*
X80223184Y-118398742D01*
X80221224Y-118393779D01*
X80205579Y-118367996D01*
X80104390Y-118201243D01*
X80101623Y-118196683D01*
X80067100Y-118156899D01*
X79954023Y-118026588D01*
X79954021Y-118026586D01*
X79950523Y-118022555D01*
X79908970Y-117988484D01*
X79776373Y-117879760D01*
X79776367Y-117879756D01*
X79772245Y-117876376D01*
X79740750Y-117858448D01*
X79691445Y-117807368D01*
X79677583Y-117737738D01*
X79703566Y-117671667D01*
X79732716Y-117644427D01*
X79768642Y-117620240D01*
X79854319Y-117562559D01*
X79875743Y-117542122D01*
X80017278Y-117407103D01*
X80021135Y-117403424D01*
X80158754Y-117218458D01*
X80169086Y-117198138D01*
X80243640Y-117051499D01*
X80263240Y-117012949D01*
X80270795Y-116988620D01*
X80330024Y-116797871D01*
X80331607Y-116792773D01*
X80332308Y-116787484D01*
X80361198Y-116569511D01*
X80361198Y-116569506D01*
X80361898Y-116564226D01*
X80353249Y-116333842D01*
X80305907Y-116108209D01*
X80221224Y-115893779D01*
X80101623Y-115696683D01*
X80014755Y-115596576D01*
X79954023Y-115526588D01*
X79954021Y-115526586D01*
X79950523Y-115522555D01*
X79855832Y-115444913D01*
X79776373Y-115379760D01*
X79776367Y-115379756D01*
X79772245Y-115376376D01*
X79740750Y-115358448D01*
X79691445Y-115307368D01*
X79677583Y-115237738D01*
X79703566Y-115171667D01*
X79732716Y-115144427D01*
X79823979Y-115082985D01*
X79854319Y-115062559D01*
X80021135Y-114903424D01*
X80158754Y-114718458D01*
X80263240Y-114512949D01*
X80299321Y-114396752D01*
X80330024Y-114297871D01*
X80331607Y-114292773D01*
X80336746Y-114254000D01*
X80361198Y-114069511D01*
X80361198Y-114069506D01*
X80361898Y-114064226D01*
X80353249Y-113833842D01*
X80331821Y-113731716D01*
X170345352Y-113731716D01*
X170346820Y-113742008D01*
X170360385Y-113746000D01*
X171427885Y-113746000D01*
X171443124Y-113741525D01*
X171444329Y-113740135D01*
X171446000Y-113732452D01*
X171446000Y-113727885D01*
X171954000Y-113727885D01*
X171958475Y-113743124D01*
X171959865Y-113744329D01*
X171967548Y-113746000D01*
X173035402Y-113746000D01*
X173048933Y-113742027D01*
X173050288Y-113732601D01*
X173028806Y-113643463D01*
X173024917Y-113632168D01*
X172942371Y-113450618D01*
X172936424Y-113440276D01*
X172821032Y-113277603D01*
X172813239Y-113268575D01*
X172669169Y-113130658D01*
X172659804Y-113123262D01*
X172492259Y-113015079D01*
X172481655Y-113009583D01*
X172296688Y-112935039D01*
X172285230Y-112931645D01*
X172088072Y-112893143D01*
X172079209Y-112892066D01*
X172076500Y-112892000D01*
X171972115Y-112892000D01*
X171956876Y-112896475D01*
X171955671Y-112897865D01*
X171954000Y-112905548D01*
X171954000Y-113727885D01*
X171446000Y-113727885D01*
X171446000Y-112910115D01*
X171441525Y-112894876D01*
X171440135Y-112893671D01*
X171432452Y-112892000D01*
X171375168Y-112892000D01*
X171369192Y-112892285D01*
X171220506Y-112906471D01*
X171208772Y-112908730D01*
X171017401Y-112964872D01*
X171006325Y-112969302D01*
X170829022Y-113060619D01*
X170818976Y-113067069D01*
X170662143Y-113190262D01*
X170653494Y-113198499D01*
X170522788Y-113349123D01*
X170515853Y-113358847D01*
X170415990Y-113531467D01*
X170411016Y-113542331D01*
X170345593Y-113730727D01*
X170345352Y-113731716D01*
X80331821Y-113731716D01*
X80305907Y-113608209D01*
X80303948Y-113603248D01*
X80223185Y-113398744D01*
X80223184Y-113398742D01*
X80221224Y-113393779D01*
X80101623Y-113196683D01*
X80014755Y-113096576D01*
X79954023Y-113026588D01*
X79954021Y-113026586D01*
X79950523Y-113022555D01*
X79914880Y-112993330D01*
X79874886Y-112934671D01*
X79872954Y-112863701D01*
X79909698Y-112802952D01*
X79928468Y-112788752D01*
X80068120Y-112702332D01*
X80074348Y-112698478D01*
X80199305Y-112573303D01*
X80292115Y-112422738D01*
X80347797Y-112254861D01*
X80358500Y-112150400D01*
X80358500Y-110849600D01*
X80347526Y-110743834D01*
X80291550Y-110576054D01*
X80198478Y-110425652D01*
X80073303Y-110300695D01*
X80067072Y-110296854D01*
X79928968Y-110211725D01*
X79928966Y-110211724D01*
X79922738Y-110207885D01*
X79762254Y-110154655D01*
X79761389Y-110154368D01*
X79761387Y-110154368D01*
X79754861Y-110152203D01*
X79748025Y-110151503D01*
X79748022Y-110151502D01*
X79704969Y-110147091D01*
X79650400Y-110141500D01*
X78099600Y-110141500D01*
X78096354Y-110141837D01*
X78096350Y-110141837D01*
X78000692Y-110151762D01*
X78000688Y-110151763D01*
X77993834Y-110152474D01*
X77987298Y-110154655D01*
X77987296Y-110154655D01*
X77855194Y-110198728D01*
X77826054Y-110208450D01*
X77675652Y-110301522D01*
X77550695Y-110426697D01*
X77457885Y-110577262D01*
X77402203Y-110745139D01*
X77391500Y-110849600D01*
X77391500Y-112150400D01*
X77402474Y-112256166D01*
X77458450Y-112423946D01*
X77551522Y-112574348D01*
X77676697Y-112699305D01*
X77822340Y-112789081D01*
X77869832Y-112841852D01*
X77881256Y-112911924D01*
X77852982Y-112977048D01*
X77843195Y-112987510D01*
X77728865Y-113096576D01*
X77591246Y-113281542D01*
X77486760Y-113487051D01*
X77485178Y-113492145D01*
X77485177Y-113492148D01*
X77441700Y-113632168D01*
X77418393Y-113707227D01*
X77417692Y-113712516D01*
X77402304Y-113828623D01*
X77388102Y-113935774D01*
X77396751Y-114166158D01*
X77444093Y-114391791D01*
X77446051Y-114396750D01*
X77446052Y-114396752D01*
X77470110Y-114457669D01*
X77528776Y-114606221D01*
X77648377Y-114803317D01*
X77651874Y-114807347D01*
X77738438Y-114907103D01*
X77799477Y-114977445D01*
X77803608Y-114980832D01*
X77973627Y-115120240D01*
X77973633Y-115120244D01*
X77977755Y-115123624D01*
X78009250Y-115141552D01*
X78058555Y-115192632D01*
X78072417Y-115262262D01*
X78046434Y-115328333D01*
X78017284Y-115355573D01*
X77895681Y-115437441D01*
X77728865Y-115596576D01*
X77591246Y-115781542D01*
X77486760Y-115987051D01*
X77485178Y-115992145D01*
X77485177Y-115992148D01*
X77435880Y-116150909D01*
X77418393Y-116207227D01*
X77417692Y-116212516D01*
X77402304Y-116328623D01*
X77388102Y-116435774D01*
X77396751Y-116666158D01*
X77444093Y-116891791D01*
X77446051Y-116896750D01*
X77446052Y-116896752D01*
X77519730Y-117083314D01*
X77528776Y-117106221D01*
X77531543Y-117110780D01*
X77531544Y-117110783D01*
X77581801Y-117193604D01*
X77648377Y-117303317D01*
X77651874Y-117307347D01*
X77767007Y-117440026D01*
X77799477Y-117477445D01*
X77803608Y-117480832D01*
X77973627Y-117620240D01*
X77973633Y-117620244D01*
X77977755Y-117623624D01*
X78009250Y-117641552D01*
X78058555Y-117692632D01*
X78072417Y-117762262D01*
X78046434Y-117828333D01*
X78017284Y-117855573D01*
X77895681Y-117937441D01*
X77891824Y-117941120D01*
X77891822Y-117941122D01*
X77822464Y-118007287D01*
X77728865Y-118096576D01*
X77591246Y-118281542D01*
X77486760Y-118487051D01*
X77485178Y-118492145D01*
X77485177Y-118492148D01*
X77438818Y-118641447D01*
X77418393Y-118707227D01*
X77417692Y-118712516D01*
X77390632Y-118916686D01*
X77388102Y-118935774D01*
X77396751Y-119166158D01*
X77444093Y-119391791D01*
X77446051Y-119396750D01*
X77446052Y-119396752D01*
X77501224Y-119536454D01*
X77528776Y-119606221D01*
X77531543Y-119610780D01*
X77531544Y-119610783D01*
X77593998Y-119713703D01*
X77648377Y-119803317D01*
X77651874Y-119807347D01*
X77777051Y-119951601D01*
X77799477Y-119977445D01*
X77803608Y-119980832D01*
X77973627Y-120120240D01*
X77973633Y-120120244D01*
X77977755Y-120123624D01*
X78009250Y-120141552D01*
X78058555Y-120192632D01*
X78072417Y-120262262D01*
X78046434Y-120328333D01*
X78017284Y-120355573D01*
X77895681Y-120437441D01*
X77891824Y-120441120D01*
X77891822Y-120441122D01*
X77868316Y-120463546D01*
X77728865Y-120596576D01*
X77591246Y-120781542D01*
X77588830Y-120786293D01*
X77588828Y-120786297D01*
X77541004Y-120880361D01*
X77486760Y-120987051D01*
X77485178Y-120992145D01*
X77485177Y-120992148D01*
X77425938Y-121182928D01*
X77418393Y-121207227D01*
X77417692Y-121212516D01*
X77402304Y-121328623D01*
X77388102Y-121435774D01*
X77396751Y-121666158D01*
X77444093Y-121891791D01*
X77528776Y-122106221D01*
X77648377Y-122303317D01*
X77651874Y-122307347D01*
X77738438Y-122407103D01*
X77799477Y-122477445D01*
X77826141Y-122499308D01*
X77973627Y-122620240D01*
X77973633Y-122620244D01*
X77977755Y-122623624D01*
X78009250Y-122641552D01*
X78058555Y-122692632D01*
X78072417Y-122762262D01*
X78046434Y-122828333D01*
X78017284Y-122855573D01*
X77895681Y-122937441D01*
X77728865Y-123096576D01*
X77591246Y-123281542D01*
X77486760Y-123487051D01*
X77485178Y-123492145D01*
X77485177Y-123492148D01*
X77423115Y-123692020D01*
X77418393Y-123707227D01*
X77417692Y-123712516D01*
X77402304Y-123828623D01*
X77388102Y-123935774D01*
X77396751Y-124166158D01*
X77444093Y-124391791D01*
X77528776Y-124606221D01*
X77648377Y-124803317D01*
X77651874Y-124807347D01*
X77738438Y-124907103D01*
X77799477Y-124977445D01*
X77803608Y-124980832D01*
X77973627Y-125120240D01*
X77973633Y-125120244D01*
X77977755Y-125123624D01*
X78009250Y-125141552D01*
X78058555Y-125192632D01*
X78072417Y-125262262D01*
X78046434Y-125328333D01*
X78017284Y-125355573D01*
X77895681Y-125437441D01*
X77728865Y-125596576D01*
X77591246Y-125781542D01*
X77486760Y-125987051D01*
X77485178Y-125992145D01*
X77485177Y-125992148D01*
X77423115Y-126192020D01*
X77418393Y-126207227D01*
X77417692Y-126212516D01*
X77402304Y-126328623D01*
X77388102Y-126435774D01*
X77396751Y-126666158D01*
X77444093Y-126891791D01*
X77528776Y-127106221D01*
X77648377Y-127303317D01*
X77651874Y-127307347D01*
X77738438Y-127407103D01*
X77799477Y-127477445D01*
X77803608Y-127480832D01*
X77973627Y-127620240D01*
X77973633Y-127620244D01*
X77977755Y-127623624D01*
X78009250Y-127641552D01*
X78058555Y-127692632D01*
X78072417Y-127762262D01*
X78046434Y-127828333D01*
X78017284Y-127855573D01*
X77895681Y-127937441D01*
X77728865Y-128096576D01*
X77591246Y-128281542D01*
X77486760Y-128487051D01*
X77485178Y-128492145D01*
X77485177Y-128492148D01*
X77423115Y-128692020D01*
X77418393Y-128707227D01*
X77417692Y-128712516D01*
X77402304Y-128828623D01*
X77388102Y-128935774D01*
X75508500Y-128935774D01*
X75508500Y-102298134D01*
X161341500Y-102298134D01*
X161348255Y-102360316D01*
X161399385Y-102496705D01*
X161486739Y-102613261D01*
X161603295Y-102700615D01*
X161739684Y-102751745D01*
X161801866Y-102758500D01*
X163598134Y-102758500D01*
X163660316Y-102751745D01*
X163796705Y-102700615D01*
X163913261Y-102613261D01*
X164000615Y-102496705D01*
X164022799Y-102437529D01*
X164044598Y-102379382D01*
X164087240Y-102322618D01*
X164153802Y-102297918D01*
X164223150Y-102313126D01*
X164257817Y-102341114D01*
X164286250Y-102373938D01*
X164458126Y-102516632D01*
X164651000Y-102629338D01*
X164859692Y-102709030D01*
X164864760Y-102710061D01*
X164864763Y-102710062D01*
X164972017Y-102731883D01*
X165078597Y-102753567D01*
X165083772Y-102753757D01*
X165083774Y-102753757D01*
X165296673Y-102761564D01*
X165296677Y-102761564D01*
X165301837Y-102761753D01*
X165306957Y-102761097D01*
X165306959Y-102761097D01*
X165518288Y-102734025D01*
X165518289Y-102734025D01*
X165523416Y-102733368D01*
X165528366Y-102731883D01*
X165732429Y-102670661D01*
X165732434Y-102670659D01*
X165737384Y-102669174D01*
X165937994Y-102570896D01*
X166119860Y-102441173D01*
X166278096Y-102283489D01*
X166408453Y-102102077D01*
X166409776Y-102103028D01*
X166456645Y-102059857D01*
X166526580Y-102047625D01*
X166592026Y-102075144D01*
X166619875Y-102106994D01*
X166679987Y-102205088D01*
X166826250Y-102373938D01*
X166998126Y-102516632D01*
X167191000Y-102629338D01*
X167399692Y-102709030D01*
X167404760Y-102710061D01*
X167404763Y-102710062D01*
X167512017Y-102731883D01*
X167618597Y-102753567D01*
X167623772Y-102753757D01*
X167623774Y-102753757D01*
X167836673Y-102761564D01*
X167836677Y-102761564D01*
X167841837Y-102761753D01*
X167846957Y-102761097D01*
X167846959Y-102761097D01*
X168058288Y-102734025D01*
X168058289Y-102734025D01*
X168063416Y-102733368D01*
X168068366Y-102731883D01*
X168272429Y-102670661D01*
X168272434Y-102670659D01*
X168277384Y-102669174D01*
X168477994Y-102570896D01*
X168659860Y-102441173D01*
X168818096Y-102283489D01*
X168948453Y-102102077D01*
X168949776Y-102103028D01*
X168996645Y-102059857D01*
X169066580Y-102047625D01*
X169132026Y-102075144D01*
X169159875Y-102106994D01*
X169219987Y-102205088D01*
X169366250Y-102373938D01*
X169538126Y-102516632D01*
X169731000Y-102629338D01*
X169939692Y-102709030D01*
X169944760Y-102710061D01*
X169944763Y-102710062D01*
X170052017Y-102731883D01*
X170158597Y-102753567D01*
X170163772Y-102753757D01*
X170163774Y-102753757D01*
X170376673Y-102761564D01*
X170376677Y-102761564D01*
X170381837Y-102761753D01*
X170386957Y-102761097D01*
X170386959Y-102761097D01*
X170598288Y-102734025D01*
X170598289Y-102734025D01*
X170603416Y-102733368D01*
X170608366Y-102731883D01*
X170812429Y-102670661D01*
X170812434Y-102670659D01*
X170817384Y-102669174D01*
X171017994Y-102570896D01*
X171199860Y-102441173D01*
X171358096Y-102283489D01*
X171488453Y-102102077D01*
X171489776Y-102103028D01*
X171536645Y-102059857D01*
X171606580Y-102047625D01*
X171672026Y-102075144D01*
X171699875Y-102106994D01*
X171759987Y-102205088D01*
X171906250Y-102373938D01*
X172078126Y-102516632D01*
X172271000Y-102629338D01*
X172479692Y-102709030D01*
X172484760Y-102710061D01*
X172484763Y-102710062D01*
X172592017Y-102731883D01*
X172698597Y-102753567D01*
X172703772Y-102753757D01*
X172703774Y-102753757D01*
X172916673Y-102761564D01*
X172916677Y-102761564D01*
X172921837Y-102761753D01*
X172926957Y-102761097D01*
X172926959Y-102761097D01*
X173138288Y-102734025D01*
X173138289Y-102734025D01*
X173143416Y-102733368D01*
X173148366Y-102731883D01*
X173352429Y-102670661D01*
X173352434Y-102670659D01*
X173357384Y-102669174D01*
X173557994Y-102570896D01*
X173739860Y-102441173D01*
X173898096Y-102283489D01*
X174028453Y-102102077D01*
X174049320Y-102059857D01*
X174125136Y-101906453D01*
X174125137Y-101906451D01*
X174127430Y-101901811D01*
X174192370Y-101688069D01*
X174221529Y-101466590D01*
X174223156Y-101400000D01*
X174204852Y-101177361D01*
X174150431Y-100960702D01*
X174061354Y-100755840D01*
X173940014Y-100568277D01*
X173789670Y-100403051D01*
X173785619Y-100399852D01*
X173785615Y-100399848D01*
X173618414Y-100267800D01*
X173618410Y-100267798D01*
X173614359Y-100264598D01*
X173418789Y-100156638D01*
X173413920Y-100154914D01*
X173413916Y-100154912D01*
X173213087Y-100083795D01*
X173213083Y-100083794D01*
X173208212Y-100082069D01*
X173203119Y-100081162D01*
X173203116Y-100081161D01*
X172993373Y-100043800D01*
X172993367Y-100043799D01*
X172988284Y-100042894D01*
X172914452Y-100041992D01*
X172770081Y-100040228D01*
X172770079Y-100040228D01*
X172764911Y-100040165D01*
X172544091Y-100073955D01*
X172331756Y-100143357D01*
X172133607Y-100246507D01*
X172129474Y-100249610D01*
X172129471Y-100249612D01*
X171959100Y-100377530D01*
X171954965Y-100380635D01*
X171951393Y-100384373D01*
X171843729Y-100497037D01*
X171800629Y-100542138D01*
X171693201Y-100699621D01*
X171638293Y-100744621D01*
X171567768Y-100752792D01*
X171504021Y-100721538D01*
X171483324Y-100697054D01*
X171402822Y-100572617D01*
X171402820Y-100572614D01*
X171400014Y-100568277D01*
X171249670Y-100403051D01*
X171245619Y-100399852D01*
X171245615Y-100399848D01*
X171078414Y-100267800D01*
X171078410Y-100267798D01*
X171074359Y-100264598D01*
X170878789Y-100156638D01*
X170873920Y-100154914D01*
X170873916Y-100154912D01*
X170673087Y-100083795D01*
X170673083Y-100083794D01*
X170668212Y-100082069D01*
X170663119Y-100081162D01*
X170663116Y-100081161D01*
X170453373Y-100043800D01*
X170453367Y-100043799D01*
X170448284Y-100042894D01*
X170374452Y-100041992D01*
X170230081Y-100040228D01*
X170230079Y-100040228D01*
X170224911Y-100040165D01*
X170004091Y-100073955D01*
X169791756Y-100143357D01*
X169593607Y-100246507D01*
X169589474Y-100249610D01*
X169589471Y-100249612D01*
X169419100Y-100377530D01*
X169414965Y-100380635D01*
X169411393Y-100384373D01*
X169303729Y-100497037D01*
X169260629Y-100542138D01*
X169153201Y-100699621D01*
X169098293Y-100744621D01*
X169027768Y-100752792D01*
X168964021Y-100721538D01*
X168943324Y-100697054D01*
X168862822Y-100572617D01*
X168862820Y-100572614D01*
X168860014Y-100568277D01*
X168709670Y-100403051D01*
X168705619Y-100399852D01*
X168705615Y-100399848D01*
X168538414Y-100267800D01*
X168538410Y-100267798D01*
X168534359Y-100264598D01*
X168338789Y-100156638D01*
X168333920Y-100154914D01*
X168333916Y-100154912D01*
X168133087Y-100083795D01*
X168133083Y-100083794D01*
X168128212Y-100082069D01*
X168123119Y-100081162D01*
X168123116Y-100081161D01*
X167913373Y-100043800D01*
X167913367Y-100043799D01*
X167908284Y-100042894D01*
X167834452Y-100041992D01*
X167690081Y-100040228D01*
X167690079Y-100040228D01*
X167684911Y-100040165D01*
X167464091Y-100073955D01*
X167251756Y-100143357D01*
X167053607Y-100246507D01*
X167049474Y-100249610D01*
X167049471Y-100249612D01*
X166879100Y-100377530D01*
X166874965Y-100380635D01*
X166871393Y-100384373D01*
X166763729Y-100497037D01*
X166720629Y-100542138D01*
X166613201Y-100699621D01*
X166558293Y-100744621D01*
X166487768Y-100752792D01*
X166424021Y-100721538D01*
X166403324Y-100697054D01*
X166322822Y-100572617D01*
X166322820Y-100572614D01*
X166320014Y-100568277D01*
X166169670Y-100403051D01*
X166165619Y-100399852D01*
X166165615Y-100399848D01*
X165998414Y-100267800D01*
X165998410Y-100267798D01*
X165994359Y-100264598D01*
X165798789Y-100156638D01*
X165793920Y-100154914D01*
X165793916Y-100154912D01*
X165593087Y-100083795D01*
X165593083Y-100083794D01*
X165588212Y-100082069D01*
X165583119Y-100081162D01*
X165583116Y-100081161D01*
X165373373Y-100043800D01*
X165373367Y-100043799D01*
X165368284Y-100042894D01*
X165294452Y-100041992D01*
X165150081Y-100040228D01*
X165150079Y-100040228D01*
X165144911Y-100040165D01*
X164924091Y-100073955D01*
X164711756Y-100143357D01*
X164513607Y-100246507D01*
X164509474Y-100249610D01*
X164509471Y-100249612D01*
X164339100Y-100377530D01*
X164334965Y-100380635D01*
X164278537Y-100439684D01*
X164254283Y-100465064D01*
X164192759Y-100500494D01*
X164121846Y-100497037D01*
X164064060Y-100455791D01*
X164045207Y-100422243D01*
X164003767Y-100311703D01*
X164000615Y-100303295D01*
X163913261Y-100186739D01*
X163796705Y-100099385D01*
X163660316Y-100048255D01*
X163598134Y-100041500D01*
X161801866Y-100041500D01*
X161739684Y-100048255D01*
X161603295Y-100099385D01*
X161486739Y-100186739D01*
X161399385Y-100303295D01*
X161348255Y-100439684D01*
X161341500Y-100501866D01*
X161341500Y-102298134D01*
X75508500Y-102298134D01*
X75508500Y-88335774D01*
X77488102Y-88335774D01*
X77496751Y-88566158D01*
X77544093Y-88791791D01*
X77628776Y-89006221D01*
X77748377Y-89203317D01*
X77751874Y-89207347D01*
X77838438Y-89307103D01*
X77899477Y-89377445D01*
X77903608Y-89380832D01*
X78073627Y-89520240D01*
X78073633Y-89520244D01*
X78077755Y-89523624D01*
X78082391Y-89526263D01*
X78082394Y-89526265D01*
X78191422Y-89588327D01*
X78278114Y-89637675D01*
X78494825Y-89716337D01*
X78500074Y-89717286D01*
X78500077Y-89717287D01*
X78717608Y-89756623D01*
X78717615Y-89756624D01*
X78721692Y-89757361D01*
X78739414Y-89758197D01*
X78744356Y-89758430D01*
X78744363Y-89758430D01*
X78745844Y-89758500D01*
X79157890Y-89758500D01*
X79224809Y-89752822D01*
X79324409Y-89744371D01*
X79324413Y-89744370D01*
X79329720Y-89743920D01*
X79334875Y-89742582D01*
X79334881Y-89742581D01*
X79547703Y-89687343D01*
X79547707Y-89687342D01*
X79552872Y-89686001D01*
X79557738Y-89683809D01*
X79557741Y-89683808D01*
X79758202Y-89593507D01*
X79763075Y-89591312D01*
X79954319Y-89462559D01*
X80121135Y-89303424D01*
X80258754Y-89118458D01*
X80363240Y-88912949D01*
X80399321Y-88796752D01*
X80430024Y-88697871D01*
X80431607Y-88692773D01*
X80432308Y-88687484D01*
X80461198Y-88469511D01*
X80461198Y-88469506D01*
X80461898Y-88464226D01*
X80453249Y-88233842D01*
X80405907Y-88008209D01*
X80321224Y-87793779D01*
X80201623Y-87596683D01*
X80114755Y-87496576D01*
X80054023Y-87426588D01*
X80054021Y-87426586D01*
X80050523Y-87422555D01*
X80008970Y-87388484D01*
X79876373Y-87279760D01*
X79876367Y-87279756D01*
X79872245Y-87276376D01*
X79840750Y-87258448D01*
X79791445Y-87207368D01*
X79777583Y-87137738D01*
X79803566Y-87071667D01*
X79832716Y-87044427D01*
X79868642Y-87020240D01*
X79954319Y-86962559D01*
X80121135Y-86803424D01*
X80258754Y-86618458D01*
X80363240Y-86412949D01*
X80399321Y-86296752D01*
X80430024Y-86197871D01*
X80431607Y-86192773D01*
X80432308Y-86187484D01*
X80461198Y-85969511D01*
X80461198Y-85969506D01*
X80461898Y-85964226D01*
X80453249Y-85733842D01*
X80405907Y-85508209D01*
X80321224Y-85293779D01*
X80201623Y-85096683D01*
X80114755Y-84996576D01*
X80054023Y-84926588D01*
X80054021Y-84926586D01*
X80050523Y-84922555D01*
X80008970Y-84888484D01*
X79876373Y-84779760D01*
X79876367Y-84779756D01*
X79872245Y-84776376D01*
X79840750Y-84758448D01*
X79791445Y-84707368D01*
X79777583Y-84637738D01*
X79803566Y-84571667D01*
X79832716Y-84544427D01*
X79868642Y-84520240D01*
X79954319Y-84462559D01*
X80121135Y-84303424D01*
X80258754Y-84118458D01*
X80363240Y-83912949D01*
X80399321Y-83796752D01*
X80430024Y-83697871D01*
X80431607Y-83692773D01*
X80432308Y-83687484D01*
X80461198Y-83469511D01*
X80461198Y-83469506D01*
X80461898Y-83464226D01*
X80453249Y-83233842D01*
X80405907Y-83008209D01*
X80321224Y-82793779D01*
X80201623Y-82596683D01*
X80114755Y-82496576D01*
X80054023Y-82426588D01*
X80054021Y-82426586D01*
X80050523Y-82422555D01*
X80008970Y-82388484D01*
X79876373Y-82279760D01*
X79876367Y-82279756D01*
X79872245Y-82276376D01*
X79840750Y-82258448D01*
X79791445Y-82207368D01*
X79777583Y-82137738D01*
X79803566Y-82071667D01*
X79832716Y-82044427D01*
X79868642Y-82020240D01*
X79954319Y-81962559D01*
X80121135Y-81803424D01*
X80258754Y-81618458D01*
X80363240Y-81412949D01*
X80399321Y-81296752D01*
X80430024Y-81197871D01*
X80431607Y-81192773D01*
X80432308Y-81187484D01*
X80461198Y-80969511D01*
X80461198Y-80969506D01*
X80461898Y-80964226D01*
X80453249Y-80733842D01*
X80405907Y-80508209D01*
X80321224Y-80293779D01*
X80201623Y-80096683D01*
X80114755Y-79996576D01*
X80054023Y-79926588D01*
X80054021Y-79926586D01*
X80050523Y-79922555D01*
X80008970Y-79888484D01*
X79876373Y-79779760D01*
X79876367Y-79779756D01*
X79872245Y-79776376D01*
X79840750Y-79758448D01*
X79791445Y-79707368D01*
X79777583Y-79637738D01*
X79803566Y-79571667D01*
X79832716Y-79544427D01*
X79868642Y-79520240D01*
X79954319Y-79462559D01*
X80121135Y-79303424D01*
X80258754Y-79118458D01*
X80363240Y-78912949D01*
X80399321Y-78796752D01*
X80430024Y-78697871D01*
X80431607Y-78692773D01*
X80432308Y-78687484D01*
X80461198Y-78469511D01*
X80461198Y-78469506D01*
X80461898Y-78464226D01*
X80453249Y-78233842D01*
X80405907Y-78008209D01*
X80321224Y-77793779D01*
X80201623Y-77596683D01*
X80114755Y-77496576D01*
X80054023Y-77426588D01*
X80054021Y-77426586D01*
X80050523Y-77422555D01*
X80008970Y-77388484D01*
X79876373Y-77279760D01*
X79876367Y-77279756D01*
X79872245Y-77276376D01*
X79840750Y-77258448D01*
X79791445Y-77207368D01*
X79777583Y-77137738D01*
X79803566Y-77071667D01*
X79832716Y-77044427D01*
X79868642Y-77020240D01*
X79954319Y-76962559D01*
X80121135Y-76803424D01*
X80258754Y-76618458D01*
X80363240Y-76412949D01*
X80399321Y-76296752D01*
X80430024Y-76197871D01*
X80431607Y-76192773D01*
X80432308Y-76187484D01*
X80461198Y-75969511D01*
X80461198Y-75969506D01*
X80461898Y-75964226D01*
X80453249Y-75733842D01*
X80405907Y-75508209D01*
X80321224Y-75293779D01*
X80201623Y-75096683D01*
X80114755Y-74996576D01*
X80054023Y-74926588D01*
X80054021Y-74926586D01*
X80050523Y-74922555D01*
X80008970Y-74888484D01*
X79876373Y-74779760D01*
X79876367Y-74779756D01*
X79872245Y-74776376D01*
X79840750Y-74758448D01*
X79791445Y-74707368D01*
X79777583Y-74637738D01*
X79803566Y-74571667D01*
X79832716Y-74544427D01*
X79868642Y-74520240D01*
X79954319Y-74462559D01*
X80121135Y-74303424D01*
X80258754Y-74118458D01*
X80363240Y-73912949D01*
X80399321Y-73796752D01*
X80430024Y-73697871D01*
X80431607Y-73692773D01*
X80432308Y-73687484D01*
X80461198Y-73469511D01*
X80461198Y-73469506D01*
X80461898Y-73464226D01*
X80453249Y-73233842D01*
X80405907Y-73008209D01*
X80321224Y-72793779D01*
X80201623Y-72596683D01*
X80114755Y-72496576D01*
X80054023Y-72426588D01*
X80054021Y-72426586D01*
X80050523Y-72422555D01*
X80014880Y-72393330D01*
X79974886Y-72334671D01*
X79972954Y-72263701D01*
X80009698Y-72202952D01*
X80028468Y-72188752D01*
X80168120Y-72102332D01*
X80174348Y-72098478D01*
X80299305Y-71973303D01*
X80392115Y-71822738D01*
X80447797Y-71654861D01*
X80458500Y-71550400D01*
X80458500Y-70249600D01*
X80447526Y-70143834D01*
X80391550Y-69976054D01*
X80298478Y-69825652D01*
X80173303Y-69700695D01*
X80167072Y-69696854D01*
X80028968Y-69611725D01*
X80028966Y-69611724D01*
X80022738Y-69607885D01*
X79862254Y-69554655D01*
X79861389Y-69554368D01*
X79861387Y-69554368D01*
X79854861Y-69552203D01*
X79848025Y-69551503D01*
X79848022Y-69551502D01*
X79804969Y-69547091D01*
X79750400Y-69541500D01*
X78199600Y-69541500D01*
X78196354Y-69541837D01*
X78196350Y-69541837D01*
X78100692Y-69551762D01*
X78100688Y-69551763D01*
X78093834Y-69552474D01*
X78087298Y-69554655D01*
X78087296Y-69554655D01*
X77955194Y-69598728D01*
X77926054Y-69608450D01*
X77775652Y-69701522D01*
X77650695Y-69826697D01*
X77557885Y-69977262D01*
X77502203Y-70145139D01*
X77491500Y-70249600D01*
X77491500Y-71550400D01*
X77502474Y-71656166D01*
X77558450Y-71823946D01*
X77651522Y-71974348D01*
X77776697Y-72099305D01*
X77922340Y-72189081D01*
X77969832Y-72241852D01*
X77981256Y-72311924D01*
X77952982Y-72377048D01*
X77943195Y-72387510D01*
X77828865Y-72496576D01*
X77691246Y-72681542D01*
X77586760Y-72887051D01*
X77585178Y-72892145D01*
X77585177Y-72892148D01*
X77523115Y-73092020D01*
X77518393Y-73107227D01*
X77517692Y-73112516D01*
X77502304Y-73228623D01*
X77488102Y-73335774D01*
X77496751Y-73566158D01*
X77544093Y-73791791D01*
X77628776Y-74006221D01*
X77748377Y-74203317D01*
X77751874Y-74207347D01*
X77838438Y-74307103D01*
X77899477Y-74377445D01*
X77903608Y-74380832D01*
X78073627Y-74520240D01*
X78073633Y-74520244D01*
X78077755Y-74523624D01*
X78109250Y-74541552D01*
X78158555Y-74592632D01*
X78172417Y-74662262D01*
X78146434Y-74728333D01*
X78117284Y-74755573D01*
X77995681Y-74837441D01*
X77828865Y-74996576D01*
X77691246Y-75181542D01*
X77586760Y-75387051D01*
X77585178Y-75392145D01*
X77585177Y-75392148D01*
X77523115Y-75592020D01*
X77518393Y-75607227D01*
X77517692Y-75612516D01*
X77502304Y-75728623D01*
X77488102Y-75835774D01*
X77496751Y-76066158D01*
X77544093Y-76291791D01*
X77628776Y-76506221D01*
X77748377Y-76703317D01*
X77751874Y-76707347D01*
X77838438Y-76807103D01*
X77899477Y-76877445D01*
X77903608Y-76880832D01*
X78073627Y-77020240D01*
X78073633Y-77020244D01*
X78077755Y-77023624D01*
X78109250Y-77041552D01*
X78158555Y-77092632D01*
X78172417Y-77162262D01*
X78146434Y-77228333D01*
X78117284Y-77255573D01*
X77995681Y-77337441D01*
X77828865Y-77496576D01*
X77691246Y-77681542D01*
X77586760Y-77887051D01*
X77585178Y-77892145D01*
X77585177Y-77892148D01*
X77523115Y-78092020D01*
X77518393Y-78107227D01*
X77517692Y-78112516D01*
X77502304Y-78228623D01*
X77488102Y-78335774D01*
X77496751Y-78566158D01*
X77544093Y-78791791D01*
X77628776Y-79006221D01*
X77748377Y-79203317D01*
X77751874Y-79207347D01*
X77838438Y-79307103D01*
X77899477Y-79377445D01*
X77903608Y-79380832D01*
X78073627Y-79520240D01*
X78073633Y-79520244D01*
X78077755Y-79523624D01*
X78109250Y-79541552D01*
X78158555Y-79592632D01*
X78172417Y-79662262D01*
X78146434Y-79728333D01*
X78117284Y-79755573D01*
X77995681Y-79837441D01*
X77828865Y-79996576D01*
X77691246Y-80181542D01*
X77586760Y-80387051D01*
X77585178Y-80392145D01*
X77585177Y-80392148D01*
X77523115Y-80592020D01*
X77518393Y-80607227D01*
X77517692Y-80612516D01*
X77502304Y-80728623D01*
X77488102Y-80835774D01*
X77496751Y-81066158D01*
X77544093Y-81291791D01*
X77628776Y-81506221D01*
X77748377Y-81703317D01*
X77751874Y-81707347D01*
X77838438Y-81807103D01*
X77899477Y-81877445D01*
X77903608Y-81880832D01*
X78073627Y-82020240D01*
X78073633Y-82020244D01*
X78077755Y-82023624D01*
X78109250Y-82041552D01*
X78158555Y-82092632D01*
X78172417Y-82162262D01*
X78146434Y-82228333D01*
X78117284Y-82255573D01*
X77995681Y-82337441D01*
X77828865Y-82496576D01*
X77691246Y-82681542D01*
X77586760Y-82887051D01*
X77585178Y-82892145D01*
X77585177Y-82892148D01*
X77523115Y-83092020D01*
X77518393Y-83107227D01*
X77517692Y-83112516D01*
X77502304Y-83228623D01*
X77488102Y-83335774D01*
X77496751Y-83566158D01*
X77544093Y-83791791D01*
X77628776Y-84006221D01*
X77748377Y-84203317D01*
X77751874Y-84207347D01*
X77838438Y-84307103D01*
X77899477Y-84377445D01*
X77903608Y-84380832D01*
X78073627Y-84520240D01*
X78073633Y-84520244D01*
X78077755Y-84523624D01*
X78109250Y-84541552D01*
X78158555Y-84592632D01*
X78172417Y-84662262D01*
X78146434Y-84728333D01*
X78117284Y-84755573D01*
X77995681Y-84837441D01*
X77828865Y-84996576D01*
X77691246Y-85181542D01*
X77586760Y-85387051D01*
X77585178Y-85392145D01*
X77585177Y-85392148D01*
X77523115Y-85592020D01*
X77518393Y-85607227D01*
X77517692Y-85612516D01*
X77502304Y-85728623D01*
X77488102Y-85835774D01*
X77496751Y-86066158D01*
X77544093Y-86291791D01*
X77628776Y-86506221D01*
X77748377Y-86703317D01*
X77751874Y-86707347D01*
X77838438Y-86807103D01*
X77899477Y-86877445D01*
X77903608Y-86880832D01*
X78073627Y-87020240D01*
X78073633Y-87020244D01*
X78077755Y-87023624D01*
X78109250Y-87041552D01*
X78158555Y-87092632D01*
X78172417Y-87162262D01*
X78146434Y-87228333D01*
X78117284Y-87255573D01*
X77995681Y-87337441D01*
X77828865Y-87496576D01*
X77691246Y-87681542D01*
X77586760Y-87887051D01*
X77585178Y-87892145D01*
X77585177Y-87892148D01*
X77523115Y-88092020D01*
X77518393Y-88107227D01*
X77517692Y-88112516D01*
X77502304Y-88228623D01*
X77488102Y-88335774D01*
X75508500Y-88335774D01*
X75508500Y-50634500D01*
X75528502Y-50566379D01*
X75582158Y-50519886D01*
X75634500Y-50508500D01*
X124729410Y-50508500D01*
X124797531Y-50528502D01*
G37*
%TD.AperFunction*%
%TD*%
M02*
