M48
; DRILL file {KiCad (6.0.7-1)-1} date 2022 August 24, Wednesday 14:53:57
; FORMAT={-:-/ absolute / inch / decimal}
; #@! TF.CreationDate,2022-08-24T14:53:57+02:00
; #@! TF.GenerationSoftware,Kicad,Pcbnew,(6.0.7-1)-1
; #@! TF.FileFunction,Plated,1,4,PTH
FMAT,2
INCH
; #@! TA.AperFunction,Plated,PTH,ComponentDrill
T1C0.0118
; #@! TA.AperFunction,Plated,PTH,ViaDrill
T2C0.0157
; #@! TA.AperFunction,Plated,PTH,ComponentDrill
T3C0.0236
; #@! TA.AperFunction,Plated,PTH,ComponentDrill
T4C0.0295
; #@! TA.AperFunction,Plated,PTH,ComponentDrill
T5C0.0374
; #@! TA.AperFunction,Plated,PTH,ComponentDrill
T6C0.0394
; #@! TA.AperFunction,Plated,PTH,ComponentDrill
T7C0.1772
%
G90
G05
T1
X4.9449Y-2.0069
X4.9449Y-2.0463
X4.9449Y-2.0856
X4.9449Y-2.125
X4.9843Y-2.0069
X4.9843Y-2.0463
X4.9843Y-2.0856
X4.9843Y-2.125
X5.0236Y-2.0069
X5.0236Y-2.0463
X5.0236Y-2.0856
X5.0236Y-2.125
X5.063Y-2.0069
X5.063Y-2.0463
X5.063Y-2.0856
X5.063Y-2.125
X5.2205Y-2.0063
X5.2205Y-2.0457
X5.2205Y-2.085
X5.2205Y-2.1244
X5.2598Y-2.0063
X5.2598Y-2.0457
X5.2598Y-2.085
X5.2598Y-2.1244
X5.2992Y-2.0063
X5.2992Y-2.0457
X5.2992Y-2.085
X5.2992Y-2.1244
X5.3386Y-2.0063
X5.3386Y-2.0457
X5.3386Y-2.085
X5.3386Y-2.1244
X5.9291Y-2.0167
X5.9291Y-2.0561
X5.9291Y-2.0955
X5.9291Y-2.1348
X5.9685Y-2.0167
X5.9685Y-2.0561
X5.9685Y-2.0955
X5.9685Y-2.1348
X6.0079Y-2.0167
X6.0079Y-2.0561
X6.0079Y-2.0955
X6.0079Y-2.1348
X6.0472Y-2.0167
X6.0472Y-2.0561
X6.0472Y-2.0955
X6.0472Y-2.1348
X6.2047Y-2.0128
X6.2047Y-2.0522
X6.2047Y-2.0915
X6.2047Y-2.1309
X6.2441Y-2.0128
X6.2441Y-2.0522
X6.2441Y-2.0915
X6.2441Y-2.1309
X6.2835Y-2.0128
X6.2835Y-2.0522
X6.2835Y-2.0915
X6.2835Y-2.1309
X6.3228Y-2.0128
X6.3228Y-2.0522
X6.3228Y-2.0915
X6.3228Y-2.1309
T2
X4.9606Y-4.0472
X4.9884Y-2.935
X5.0157Y-3.8622
X5.0787Y-3.8336
X5.0986Y-2.7382
X5.252Y-3.7717
X5.2795Y-3.9488
X5.2872Y-3.7541
X5.6142Y-2.4961
X5.6654Y-2.5118
X6.374Y-3.6575
X6.3858Y-3.1772
X6.4173Y-4.1535
X6.4972Y-4.0562
X6.8031Y-3.9173
T4
X6.8012Y-4.3386
X6.8012Y-4.4173
T5
X3.1073Y-3.3228
X3.1073Y-3.4213
X3.1073Y-3.5197
X3.1073Y-3.6181
X3.1073Y-3.7165
X3.1073Y-3.815
X3.1073Y-3.9134
X3.1073Y-4.0118
X3.1073Y-4.1102
X3.1073Y-4.2087
X3.1073Y-4.3071
X3.1073Y-4.4055
X3.1073Y-4.5039
T6
X6.4055Y-3.9921
X6.5055Y-3.9921
X6.6055Y-3.9921
X6.7055Y-3.9921
X6.8055Y-3.9921
T7
X5.0157Y-1.8031
X5.2992Y-1.8031
X6.0Y-1.8031
X6.2835Y-1.8031
T3
G00X5.511Y-5.611
M15
G01X5.511Y-5.6543
M16
G05
G00X5.511Y-5.7854
M15
G01X5.511Y-5.8091
M16
G05
G00X5.8512Y-5.611
M15
G01X5.8512Y-5.6543
M16
G05
G00X5.8512Y-5.7854
M15
G01X5.8512Y-5.8091
M16
G05
T0
M30
