%TF.GenerationSoftware,KiCad,Pcbnew,(6.0.7-1)-1*%
%TF.CreationDate,2022-08-24T14:53:57+02:00*%
%TF.ProjectId,Flux_BMS,466c7578-5f42-44d5-932e-6b696361645f,rev?*%
%TF.SameCoordinates,Original*%
%TF.FileFunction,Soldermask,Top*%
%TF.FilePolarity,Negative*%
%FSLAX46Y46*%
G04 Gerber Fmt 4.6, Leading zero omitted, Abs format (unit mm)*
G04 Created by KiCad (PCBNEW (6.0.7-1)-1) date 2022-08-24 14:53:57*
%MOMM*%
%LPD*%
G01*
G04 APERTURE LIST*
G04 Aperture macros list*
%AMRoundRect*
0 Rectangle with rounded corners*
0 $1 Rounding radius*
0 $2 $3 $4 $5 $6 $7 $8 $9 X,Y pos of 4 corners*
0 Add a 4 corners polygon primitive as box body*
4,1,4,$2,$3,$4,$5,$6,$7,$8,$9,$2,$3,0*
0 Add four circle primitives for the rounded corners*
1,1,$1+$1,$2,$3*
1,1,$1+$1,$4,$5*
1,1,$1+$1,$6,$7*
1,1,$1+$1,$8,$9*
0 Add four rect primitives between the rounded corners*
20,1,$1+$1,$2,$3,$4,$5,0*
20,1,$1+$1,$4,$5,$6,$7,0*
20,1,$1+$1,$6,$7,$8,$9,0*
20,1,$1+$1,$8,$9,$2,$3,0*%
%AMFreePoly0*
4,1,9,3.862500,-0.866500,0.737500,-0.866500,0.737500,-0.450000,-0.737500,-0.450000,-0.737500,0.450000,0.737500,0.450000,0.737500,0.866500,3.862500,0.866500,3.862500,-0.866500,3.862500,-0.866500,$1*%
G04 Aperture macros list end*
%ADD10C,0.010000*%
%ADD11RoundRect,0.243750X0.456250X-0.243750X0.456250X0.243750X-0.456250X0.243750X-0.456250X-0.243750X0*%
%ADD12RoundRect,0.250000X-0.450000X0.262500X-0.450000X-0.262500X0.450000X-0.262500X0.450000X0.262500X0*%
%ADD13C,1.500000*%
%ADD14RoundRect,0.250000X-0.362500X-1.425000X0.362500X-1.425000X0.362500X1.425000X-0.362500X1.425000X0*%
%ADD15RoundRect,0.150000X-0.650000X-0.150000X0.650000X-0.150000X0.650000X0.150000X-0.650000X0.150000X0*%
%ADD16R,2.410000X3.100000*%
%ADD17RoundRect,1.500000X1.500000X1.500000X-1.500000X1.500000X-1.500000X-1.500000X1.500000X-1.500000X0*%
%ADD18C,6.000000*%
%ADD19RoundRect,0.250000X0.650000X-0.325000X0.650000X0.325000X-0.650000X0.325000X-0.650000X-0.325000X0*%
%ADD20RoundRect,0.250000X-0.250000X-0.475000X0.250000X-0.475000X0.250000X0.475000X-0.250000X0.475000X0*%
%ADD21RoundRect,0.250000X-0.725000X0.600000X-0.725000X-0.600000X0.725000X-0.600000X0.725000X0.600000X0*%
%ADD22O,1.950000X1.700000*%
%ADD23RoundRect,0.250000X-0.262500X-0.450000X0.262500X-0.450000X0.262500X0.450000X-0.262500X0.450000X0*%
%ADD24RoundRect,0.250000X-0.475000X0.250000X-0.475000X-0.250000X0.475000X-0.250000X0.475000X0.250000X0*%
%ADD25R,2.287000X1.010000*%
%ADD26R,0.762000X1.010000*%
%ADD27C,0.600000*%
%ADD28R,4.000000X4.000000*%
%ADD29RoundRect,0.250000X0.450000X-0.262500X0.450000X0.262500X-0.450000X0.262500X-0.450000X-0.262500X0*%
%ADD30C,0.650000*%
%ADD31R,0.600000X1.450000*%
%ADD32R,0.300000X1.450000*%
%ADD33O,1.000000X1.600000*%
%ADD34O,1.000000X2.100000*%
%ADD35RoundRect,0.150000X-0.150000X0.587500X-0.150000X-0.587500X0.150000X-0.587500X0.150000X0.587500X0*%
%ADD36RoundRect,0.243750X-0.243750X-0.456250X0.243750X-0.456250X0.243750X0.456250X-0.243750X0.456250X0*%
%ADD37R,0.610000X1.270000*%
%ADD38RoundRect,0.250000X0.475000X-0.250000X0.475000X0.250000X-0.475000X0.250000X-0.475000X-0.250000X0*%
%ADD39RoundRect,0.150000X-0.825000X-0.150000X0.825000X-0.150000X0.825000X0.150000X-0.825000X0.150000X0*%
%ADD40RoundRect,0.250000X0.250000X0.475000X-0.250000X0.475000X-0.250000X-0.475000X0.250000X-0.475000X0*%
%ADD41RoundRect,0.250000X0.262500X0.450000X-0.262500X0.450000X-0.262500X-0.450000X0.262500X-0.450000X0*%
%ADD42R,0.900000X1.300000*%
%ADD43FreePoly0,270.000000*%
%ADD44RoundRect,0.100000X0.100000X-0.637500X0.100000X0.637500X-0.100000X0.637500X-0.100000X-0.637500X0*%
%ADD45R,2.000000X2.400000*%
%ADD46R,1.700000X1.700000*%
%ADD47O,1.700000X1.700000*%
%ADD48R,1.270000X0.610000*%
%ADD49RoundRect,0.075000X-0.875000X-0.075000X0.875000X-0.075000X0.875000X0.075000X-0.875000X0.075000X0*%
%ADD50R,1.500000X4.000000*%
%ADD51RoundRect,0.075000X-0.075000X0.700000X-0.075000X-0.700000X0.075000X-0.700000X0.075000X0.700000X0*%
%ADD52RoundRect,0.075000X-0.700000X0.075000X-0.700000X-0.075000X0.700000X-0.075000X0.700000X0.075000X0*%
%ADD53RoundRect,0.250000X-0.625000X0.350000X-0.625000X-0.350000X0.625000X-0.350000X0.625000X0.350000X0*%
%ADD54O,1.750000X1.200000*%
%ADD55RoundRect,0.150000X-0.512500X-0.150000X0.512500X-0.150000X0.512500X0.150000X-0.512500X0.150000X0*%
G04 APERTURE END LIST*
%TO.C,Q14*%
G36*
X156455000Y-61550000D02*
G01*
X156710000Y-61550000D01*
X156710000Y-62770000D01*
X155900000Y-62770000D01*
X155900000Y-62060000D01*
X155440000Y-62060000D01*
X155440000Y-62770000D01*
X154630000Y-62770000D01*
X154630000Y-62060000D01*
X154170000Y-62060000D01*
X154170000Y-62770000D01*
X153360000Y-62770000D01*
X153360000Y-62060000D01*
X152900000Y-62060000D01*
X152900000Y-62770000D01*
X152090000Y-62770000D01*
X152090000Y-61550000D01*
X152345000Y-61550000D01*
X152345000Y-58050000D01*
X156455000Y-58050000D01*
X156455000Y-61550000D01*
G37*
D10*
X156455000Y-61550000D02*
X156710000Y-61550000D01*
X156710000Y-62770000D01*
X155900000Y-62770000D01*
X155900000Y-62060000D01*
X155440000Y-62060000D01*
X155440000Y-62770000D01*
X154630000Y-62770000D01*
X154630000Y-62060000D01*
X154170000Y-62060000D01*
X154170000Y-62770000D01*
X153360000Y-62770000D01*
X153360000Y-62060000D01*
X152900000Y-62060000D01*
X152900000Y-62770000D01*
X152090000Y-62770000D01*
X152090000Y-61550000D01*
X152345000Y-61550000D01*
X152345000Y-58050000D01*
X156455000Y-58050000D01*
X156455000Y-61550000D01*
%TO.C,Q13*%
G36*
X149770000Y-58900000D02*
G01*
X149060000Y-58900000D01*
X149060000Y-59360000D01*
X149770000Y-59360000D01*
X149770000Y-60170000D01*
X149060000Y-60170000D01*
X149060000Y-60630000D01*
X149770000Y-60630000D01*
X149770000Y-61440000D01*
X149060000Y-61440000D01*
X149060000Y-61900000D01*
X149770000Y-61900000D01*
X149770000Y-62710000D01*
X148550000Y-62710000D01*
X148550000Y-62455000D01*
X145050000Y-62455000D01*
X145050000Y-58345000D01*
X148550000Y-58345000D01*
X148550000Y-58090000D01*
X149770000Y-58090000D01*
X149770000Y-58900000D01*
G37*
X149770000Y-58900000D02*
X149060000Y-58900000D01*
X149060000Y-59360000D01*
X149770000Y-59360000D01*
X149770000Y-60170000D01*
X149060000Y-60170000D01*
X149060000Y-60630000D01*
X149770000Y-60630000D01*
X149770000Y-61440000D01*
X149060000Y-61440000D01*
X149060000Y-61900000D01*
X149770000Y-61900000D01*
X149770000Y-62710000D01*
X148550000Y-62710000D01*
X148550000Y-62455000D01*
X145050000Y-62455000D01*
X145050000Y-58345000D01*
X148550000Y-58345000D01*
X148550000Y-58090000D01*
X149770000Y-58090000D01*
X149770000Y-58900000D01*
%TD*%
D11*
%TO.C,D16*%
X156100000Y-66237500D03*
X156100000Y-64362500D03*
%TD*%
D12*
%TO.C,R20*%
X99600000Y-54087500D03*
X99600000Y-55912500D03*
%TD*%
D13*
%TO.C,TP1*%
X131105000Y-63150000D03*
%TD*%
D14*
%TO.C,R3*%
X85437500Y-72400000D03*
X91362500Y-72400000D03*
%TD*%
D15*
%TO.C,U7*%
X117855000Y-68045000D03*
X117855000Y-69315000D03*
X117855000Y-70585000D03*
X117855000Y-71855000D03*
X123155000Y-71855000D03*
X123155000Y-70585000D03*
X123155000Y-69315000D03*
X123155000Y-68045000D03*
D16*
X120505000Y-69950000D03*
%TD*%
D11*
%TO.C,D2*%
X125010000Y-144337500D03*
X125010000Y-142462500D03*
%TD*%
D17*
%TO.C,J6*%
X159600000Y-45800000D03*
D18*
X152400000Y-45800000D03*
%TD*%
D19*
%TO.C,C33*%
X113305000Y-69025000D03*
X113305000Y-66075000D03*
%TD*%
D20*
%TO.C,C15*%
X136850000Y-83400000D03*
X138750000Y-83400000D03*
%TD*%
D21*
%TO.C,J1*%
X78925000Y-84400000D03*
D22*
X78925000Y-86900000D03*
X78925000Y-89400000D03*
X78925000Y-91900000D03*
X78925000Y-94400000D03*
X78925000Y-96900000D03*
X78925000Y-99400000D03*
X78925000Y-101900000D03*
X78925000Y-104400000D03*
X78925000Y-106900000D03*
X78925000Y-109400000D03*
X78925000Y-111900000D03*
X78925000Y-114400000D03*
%TD*%
D23*
%TO.C,R42*%
X89887500Y-84000000D03*
X91712500Y-84000000D03*
%TD*%
D12*
%TO.C,R35*%
X100200000Y-120887500D03*
X100200000Y-122712500D03*
%TD*%
D13*
%TO.C,TP2*%
X124200000Y-100200000D03*
%TD*%
D23*
%TO.C,R51*%
X89487500Y-67200000D03*
X91312500Y-67200000D03*
%TD*%
D24*
%TO.C,C38*%
X143000000Y-67750000D03*
X143000000Y-69650000D03*
%TD*%
D25*
%TO.C,R67*%
X135128000Y-54015000D03*
D26*
X137034000Y-54015000D03*
X137034000Y-55785000D03*
D25*
X135128500Y-55785000D03*
%TD*%
D12*
%TO.C,R2*%
X99800000Y-71687500D03*
X99800000Y-73512500D03*
%TD*%
D27*
%TO.C,TP7*%
X133600000Y-52960000D03*
X135600000Y-53960000D03*
X132600000Y-52960000D03*
X134600000Y-52960000D03*
X133600000Y-53960000D03*
X134600000Y-53960000D03*
X133600000Y-51960000D03*
X132600000Y-51960000D03*
X134600000Y-50960000D03*
X135600000Y-50960000D03*
X135600000Y-52960000D03*
D28*
X134100000Y-52460000D03*
D27*
X132600000Y-50960000D03*
X135600000Y-51960000D03*
X134600000Y-51960000D03*
X133600000Y-50960000D03*
X132600000Y-53960000D03*
%TD*%
D29*
%TO.C,R59*%
X154100000Y-66212500D03*
X154100000Y-64387500D03*
%TD*%
D12*
%TO.C,R32*%
X99800000Y-62887500D03*
X99800000Y-64712500D03*
%TD*%
%TO.C,R14*%
X100200000Y-104487500D03*
X100200000Y-106312500D03*
%TD*%
D14*
%TO.C,R33*%
X85237500Y-63800000D03*
X91162500Y-63800000D03*
%TD*%
D30*
%TO.C,J5*%
X147190000Y-143600000D03*
X141410000Y-143600000D03*
D31*
X141050000Y-142155000D03*
X141850000Y-142155000D03*
D32*
X143050000Y-142155000D03*
X144050000Y-142155000D03*
X144550000Y-142155000D03*
X145550000Y-142155000D03*
D31*
X146750000Y-142155000D03*
X147550000Y-142155000D03*
X147550000Y-142155000D03*
X146750000Y-142155000D03*
D32*
X146050000Y-142155000D03*
X145050000Y-142155000D03*
X143550000Y-142155000D03*
X142550000Y-142155000D03*
D31*
X141850000Y-142155000D03*
X141050000Y-142155000D03*
D33*
X139980000Y-147250000D03*
D34*
X148620000Y-143070000D03*
X139980000Y-143070000D03*
D33*
X148620000Y-147250000D03*
%TD*%
D35*
%TO.C,Q7*%
X95550000Y-54062500D03*
X93650000Y-54062500D03*
X94600000Y-55937500D03*
%TD*%
D36*
%TO.C,D3*%
X93862500Y-76000000D03*
X95737500Y-76000000D03*
%TD*%
D37*
%TO.C,Q14*%
X153765000Y-56695000D03*
X155035000Y-56695000D03*
X156305000Y-56695000D03*
X152495000Y-56695000D03*
%TD*%
D38*
%TO.C,C4*%
X119600000Y-83150000D03*
X119600000Y-81250000D03*
%TD*%
D20*
%TO.C,C24*%
X163250000Y-114800000D03*
X165150000Y-114800000D03*
%TD*%
D35*
%TO.C,Q12*%
X96350000Y-120862500D03*
X94450000Y-120862500D03*
X95400000Y-122737500D03*
%TD*%
D39*
%TO.C,U4*%
X159725000Y-108895000D03*
X159725000Y-110165000D03*
X159725000Y-111435000D03*
X159725000Y-112705000D03*
X164675000Y-112705000D03*
X164675000Y-111435000D03*
X164675000Y-110165000D03*
X164675000Y-108895000D03*
%TD*%
D35*
%TO.C,Q5*%
X96350000Y-104462500D03*
X94450000Y-104462500D03*
X95400000Y-106337500D03*
%TD*%
D14*
%TO.C,R9*%
X85637500Y-89200000D03*
X91562500Y-89200000D03*
%TD*%
D20*
%TO.C,C20*%
X133450000Y-87800000D03*
X135350000Y-87800000D03*
%TD*%
D40*
%TO.C,C13*%
X142750000Y-83400000D03*
X140850000Y-83400000D03*
%TD*%
D23*
%TO.C,R65*%
X146987500Y-139500000D03*
X148812500Y-139500000D03*
%TD*%
D14*
%TO.C,R27*%
X86037500Y-136600000D03*
X91962500Y-136600000D03*
%TD*%
D36*
%TO.C,D15*%
X129167500Y-71350000D03*
X131042500Y-71350000D03*
%TD*%
D20*
%TO.C,C22*%
X163449159Y-93869520D03*
X165349159Y-93869520D03*
%TD*%
D24*
%TO.C,C35*%
X126705000Y-71400000D03*
X126705000Y-73300000D03*
%TD*%
D12*
%TO.C,R8*%
X100200000Y-88175000D03*
X100200000Y-90000000D03*
%TD*%
D11*
%TO.C,D1*%
X123000000Y-144337500D03*
X123000000Y-142462500D03*
%TD*%
D12*
%TO.C,R5*%
X100200000Y-79887500D03*
X100200000Y-81712500D03*
%TD*%
D14*
%TO.C,R15*%
X85637500Y-105400000D03*
X91562500Y-105400000D03*
%TD*%
D23*
%TO.C,R41*%
X89687500Y-76000000D03*
X91512500Y-76000000D03*
%TD*%
%TO.C,R49*%
X90087500Y-139800000D03*
X91912500Y-139800000D03*
%TD*%
D14*
%TO.C,R30*%
X86237500Y-144400000D03*
X92162500Y-144400000D03*
%TD*%
D41*
%TO.C,R58*%
X124617500Y-75350000D03*
X122792500Y-75350000D03*
%TD*%
D14*
%TO.C,R18*%
X85637500Y-113400000D03*
X91562500Y-113400000D03*
%TD*%
D35*
%TO.C,Q11*%
X96012500Y-62912500D03*
X94112500Y-62912500D03*
X95062500Y-64787500D03*
%TD*%
D42*
%TO.C,U8*%
X148200000Y-67912500D03*
D43*
X146700000Y-68000000D03*
D42*
X145200000Y-67912500D03*
%TD*%
D11*
%TO.C,D17*%
X137100000Y-66037500D03*
X137100000Y-64162500D03*
%TD*%
D13*
%TO.C,TP3*%
X124200000Y-102800000D03*
%TD*%
D24*
%TO.C,C9*%
X109800000Y-108300000D03*
X109800000Y-110200000D03*
%TD*%
D27*
%TO.C,TP10*%
X160600000Y-54125000D03*
X159600000Y-53125000D03*
X157600000Y-51125000D03*
X159600000Y-51125000D03*
X158600000Y-51125000D03*
X160600000Y-51125000D03*
X157600000Y-53125000D03*
D28*
X159100000Y-52625000D03*
D27*
X159600000Y-52125000D03*
X159600000Y-54125000D03*
X160600000Y-53125000D03*
X158600000Y-53125000D03*
X158600000Y-54125000D03*
X158600000Y-52125000D03*
X157600000Y-52125000D03*
X157600000Y-54125000D03*
X160600000Y-52125000D03*
%TD*%
D24*
%TO.C,C8*%
X111800000Y-108300000D03*
X111800000Y-110200000D03*
%TD*%
D29*
%TO.C,R19*%
X97600000Y-55912500D03*
X97600000Y-54087500D03*
%TD*%
D36*
%TO.C,D10*%
X94862500Y-132400000D03*
X96737500Y-132400000D03*
%TD*%
D23*
%TO.C,R55*%
X113992500Y-70950000D03*
X115817500Y-70950000D03*
%TD*%
D24*
%TO.C,C5*%
X117800000Y-108300000D03*
X117800000Y-110200000D03*
%TD*%
D36*
%TO.C,D12*%
X94862500Y-147800000D03*
X96737500Y-147800000D03*
%TD*%
D44*
%TO.C,U3*%
X164124159Y-87662020D03*
X164774159Y-87662020D03*
X165424159Y-87662020D03*
X166074159Y-87662020D03*
X166724159Y-87662020D03*
X167374159Y-87662020D03*
X168024159Y-87662020D03*
X168674159Y-87662020D03*
X168674159Y-81937020D03*
X168024159Y-81937020D03*
X167374159Y-81937020D03*
X166724159Y-81937020D03*
X166074159Y-81937020D03*
X165424159Y-81937020D03*
X164774159Y-81937020D03*
X164124159Y-81937020D03*
%TD*%
D36*
%TO.C,D13*%
X94062500Y-67400000D03*
X95937500Y-67400000D03*
%TD*%
D29*
%TO.C,R16*%
X98000000Y-114112500D03*
X98000000Y-112287500D03*
%TD*%
D38*
%TO.C,C7*%
X109600000Y-83150000D03*
X109600000Y-81250000D03*
%TD*%
D12*
%TO.C,R40*%
X167200000Y-109887500D03*
X167200000Y-111712500D03*
%TD*%
D35*
%TO.C,Q4*%
X96150000Y-96662500D03*
X94250000Y-96662500D03*
X95200000Y-98537500D03*
%TD*%
%TO.C,Q3*%
X95950000Y-88062500D03*
X94050000Y-88062500D03*
X95000000Y-89937500D03*
%TD*%
D29*
%TO.C,R60*%
X135000000Y-66012500D03*
X135000000Y-64187500D03*
%TD*%
D12*
%TO.C,R17*%
X100000000Y-112287500D03*
X100000000Y-114112500D03*
%TD*%
D29*
%TO.C,R13*%
X98200000Y-106312500D03*
X98200000Y-104487500D03*
%TD*%
D35*
%TO.C,Q6*%
X96150000Y-112262500D03*
X94250000Y-112262500D03*
X95200000Y-114137500D03*
%TD*%
D45*
%TO.C,X1*%
X137950000Y-86800000D03*
X141650000Y-86800000D03*
%TD*%
D29*
%TO.C,R10*%
X98200000Y-98512500D03*
X98200000Y-96687500D03*
%TD*%
D46*
%TO.C,J4*%
X162700000Y-101400000D03*
D47*
X165240000Y-101400000D03*
X167780000Y-101400000D03*
X170320000Y-101400000D03*
X172860000Y-101400000D03*
%TD*%
D36*
%TO.C,D6*%
X94262500Y-101000000D03*
X96137500Y-101000000D03*
%TD*%
D23*
%TO.C,R45*%
X87887500Y-108600000D03*
X89712500Y-108600000D03*
%TD*%
D36*
%TO.C,D11*%
X95125000Y-139800000D03*
X97000000Y-139800000D03*
%TD*%
D38*
%TO.C,C34*%
X115505000Y-69100000D03*
X115505000Y-67200000D03*
%TD*%
D27*
%TO.C,TP9*%
X152600000Y-53225000D03*
X153600000Y-54225000D03*
X151600000Y-53225000D03*
X151600000Y-54225000D03*
X150600000Y-52225000D03*
X150600000Y-51225000D03*
X152600000Y-54225000D03*
X150600000Y-54225000D03*
X153600000Y-53225000D03*
X150600000Y-53225000D03*
X153600000Y-51225000D03*
X152600000Y-52225000D03*
X152600000Y-51225000D03*
X153600000Y-52225000D03*
X151600000Y-52225000D03*
D28*
X152100000Y-52725000D03*
D27*
X151600000Y-51225000D03*
%TD*%
D24*
%TO.C,C12*%
X113800000Y-108300000D03*
X113800000Y-110200000D03*
%TD*%
D41*
%TO.C,R57*%
X130817500Y-75350000D03*
X128992500Y-75350000D03*
%TD*%
D38*
%TO.C,C16*%
X127800000Y-95350000D03*
X127800000Y-93450000D03*
%TD*%
D23*
%TO.C,R43*%
X87687500Y-92400000D03*
X89512500Y-92400000D03*
%TD*%
D41*
%TO.C,R66*%
X141612500Y-139500000D03*
X139787500Y-139500000D03*
%TD*%
D35*
%TO.C,Q10*%
X96750000Y-143462500D03*
X94850000Y-143462500D03*
X95800000Y-145337500D03*
%TD*%
D12*
%TO.C,R11*%
X100200000Y-96600000D03*
X100200000Y-98425000D03*
%TD*%
D14*
%TO.C,R21*%
X85237500Y-55000000D03*
X91162500Y-55000000D03*
%TD*%
D29*
%TO.C,R34*%
X98200000Y-122712500D03*
X98200000Y-120887500D03*
%TD*%
D13*
%TO.C,TP8*%
X155600000Y-70000000D03*
%TD*%
D38*
%TO.C,C36*%
X126105000Y-69500000D03*
X126105000Y-67600000D03*
%TD*%
D14*
%TO.C,R24*%
X86237500Y-129000000D03*
X92162500Y-129000000D03*
%TD*%
D48*
%TO.C,Q13*%
X143695000Y-58495000D03*
X143695000Y-61035000D03*
X143695000Y-59765000D03*
X143695000Y-62305000D03*
%TD*%
D14*
%TO.C,R36*%
X85637500Y-121800000D03*
X91562500Y-121800000D03*
%TD*%
D13*
%TO.C,TP4*%
X124200000Y-88000000D03*
%TD*%
D49*
%TO.C,U1*%
X111100000Y-90450000D03*
X111100000Y-90950000D03*
X111100000Y-91450000D03*
X111100000Y-91950000D03*
X111100000Y-92450000D03*
X111100000Y-92950000D03*
X111100000Y-93450000D03*
X111100000Y-93950000D03*
X111100000Y-94450000D03*
X111100000Y-94950000D03*
X111100000Y-95450000D03*
X111100000Y-95950000D03*
X111100000Y-96450000D03*
X111100000Y-96950000D03*
X111100000Y-97450000D03*
X111100000Y-97950000D03*
X111100000Y-98450000D03*
X111100000Y-98950000D03*
X111100000Y-99450000D03*
X111100000Y-99950000D03*
X111100000Y-100450000D03*
X111100000Y-100950000D03*
X111100000Y-101450000D03*
X111100000Y-101950000D03*
X118100000Y-101950000D03*
X118100000Y-101450000D03*
X118100000Y-100950000D03*
X118100000Y-100450000D03*
X118100000Y-99950000D03*
X118100000Y-99450000D03*
X118100000Y-98950000D03*
X118100000Y-98450000D03*
X118100000Y-97950000D03*
X118100000Y-97450000D03*
X118100000Y-96950000D03*
X118100000Y-96450000D03*
X118100000Y-95950000D03*
X118100000Y-95450000D03*
X118100000Y-94950000D03*
X118100000Y-94450000D03*
X118100000Y-93950000D03*
X118100000Y-93450000D03*
X118100000Y-92950000D03*
X118100000Y-92450000D03*
X118100000Y-91950000D03*
X118100000Y-91450000D03*
X118100000Y-90950000D03*
X118100000Y-90450000D03*
%TD*%
D20*
%TO.C,C21*%
X133450000Y-85800000D03*
X135350000Y-85800000D03*
%TD*%
D12*
%TO.C,R38*%
X125000000Y-138887500D03*
X125000000Y-140712500D03*
%TD*%
D36*
%TO.C,D5*%
X94062500Y-92400000D03*
X95937500Y-92400000D03*
%TD*%
D29*
%TO.C,R25*%
X98800000Y-137512500D03*
X98800000Y-135687500D03*
%TD*%
D13*
%TO.C,TP5*%
X124200000Y-90600000D03*
%TD*%
D50*
%TO.C,L2*%
X123505000Y-63950000D03*
X127105000Y-63950000D03*
%TD*%
D23*
%TO.C,R48*%
X90487500Y-132200000D03*
X92312500Y-132200000D03*
%TD*%
D38*
%TO.C,C10*%
X119800000Y-110200000D03*
X119800000Y-108300000D03*
%TD*%
D51*
%TO.C,U2*%
X141150000Y-91725000D03*
X140650000Y-91725000D03*
X140150000Y-91725000D03*
X139650000Y-91725000D03*
X139150000Y-91725000D03*
X138650000Y-91725000D03*
X138150000Y-91725000D03*
X137650000Y-91725000D03*
X137150000Y-91725000D03*
X136650000Y-91725000D03*
X136150000Y-91725000D03*
X135650000Y-91725000D03*
X135150000Y-91725000D03*
X134650000Y-91725000D03*
X134150000Y-91725000D03*
X133650000Y-91725000D03*
D52*
X131725000Y-93650000D03*
X131725000Y-94150000D03*
X131725000Y-94650000D03*
X131725000Y-95150000D03*
X131725000Y-95650000D03*
X131725000Y-96150000D03*
X131725000Y-96650000D03*
X131725000Y-97150000D03*
X131725000Y-97650000D03*
X131725000Y-98150000D03*
X131725000Y-98650000D03*
X131725000Y-99150000D03*
X131725000Y-99650000D03*
X131725000Y-100150000D03*
X131725000Y-100650000D03*
X131725000Y-101150000D03*
D51*
X133650000Y-103075000D03*
X134150000Y-103075000D03*
X134650000Y-103075000D03*
X135150000Y-103075000D03*
X135650000Y-103075000D03*
X136150000Y-103075000D03*
X136650000Y-103075000D03*
X137150000Y-103075000D03*
X137650000Y-103075000D03*
X138150000Y-103075000D03*
X138650000Y-103075000D03*
X139150000Y-103075000D03*
X139650000Y-103075000D03*
X140150000Y-103075000D03*
X140650000Y-103075000D03*
X141150000Y-103075000D03*
D52*
X143075000Y-101150000D03*
X143075000Y-100650000D03*
X143075000Y-100150000D03*
X143075000Y-99650000D03*
X143075000Y-99150000D03*
X143075000Y-98650000D03*
X143075000Y-98150000D03*
X143075000Y-97650000D03*
X143075000Y-97150000D03*
X143075000Y-96650000D03*
X143075000Y-96150000D03*
X143075000Y-95650000D03*
X143075000Y-95150000D03*
X143075000Y-94650000D03*
X143075000Y-94150000D03*
X143075000Y-93650000D03*
%TD*%
D38*
%TO.C,C17*%
X127800000Y-101950000D03*
X127800000Y-100050000D03*
%TD*%
D12*
%TO.C,R23*%
X100600000Y-128087500D03*
X100600000Y-129912500D03*
%TD*%
D23*
%TO.C,R56*%
X113992500Y-72950000D03*
X115817500Y-72950000D03*
%TD*%
D36*
%TO.C,D9*%
X93662500Y-58600000D03*
X95537500Y-58600000D03*
%TD*%
D29*
%TO.C,R28*%
X98600000Y-145312500D03*
X98600000Y-143487500D03*
%TD*%
%TO.C,R22*%
X98600000Y-129912500D03*
X98600000Y-128087500D03*
%TD*%
D23*
%TO.C,R52*%
X89887500Y-125000000D03*
X91712500Y-125000000D03*
%TD*%
%TO.C,R47*%
X89487500Y-58600000D03*
X91312500Y-58600000D03*
%TD*%
D53*
%TO.C,J2*%
X172750000Y-110200000D03*
D54*
X172750000Y-112200000D03*
%TD*%
D24*
%TO.C,C14*%
X148400000Y-92250000D03*
X148400000Y-94150000D03*
%TD*%
D29*
%TO.C,R4*%
X98200000Y-81712500D03*
X98200000Y-79887500D03*
%TD*%
D35*
%TO.C,Q9*%
X96950000Y-135662500D03*
X95050000Y-135662500D03*
X96000000Y-137537500D03*
%TD*%
D12*
%TO.C,R37*%
X123000000Y-138887500D03*
X123000000Y-140712500D03*
%TD*%
D29*
%TO.C,R1*%
X97800000Y-73512500D03*
X97800000Y-71687500D03*
%TD*%
D23*
%TO.C,R39*%
X163486659Y-91669520D03*
X165311659Y-91669520D03*
%TD*%
%TO.C,R46*%
X89887500Y-116600000D03*
X91712500Y-116600000D03*
%TD*%
D38*
%TO.C,C3*%
X117600000Y-83150000D03*
X117600000Y-81250000D03*
%TD*%
D35*
%TO.C,Q2*%
X96212500Y-79912500D03*
X94312500Y-79912500D03*
X95262500Y-81787500D03*
%TD*%
D36*
%TO.C,D8*%
X94325000Y-116600000D03*
X96200000Y-116600000D03*
%TD*%
D35*
%TO.C,Q8*%
X96750000Y-128062500D03*
X94850000Y-128062500D03*
X95800000Y-129937500D03*
%TD*%
D17*
%TO.C,J3*%
X134600000Y-45800000D03*
D18*
X127400000Y-45800000D03*
%TD*%
D14*
%TO.C,R12*%
X85637500Y-97600000D03*
X91562500Y-97600000D03*
%TD*%
D38*
%TO.C,C1*%
X113600000Y-83150000D03*
X113600000Y-81250000D03*
%TD*%
%TO.C,C23*%
X162299159Y-88819520D03*
X162299159Y-86919520D03*
%TD*%
D24*
%TO.C,C6*%
X115800000Y-108300000D03*
X115800000Y-110200000D03*
%TD*%
D29*
%TO.C,R7*%
X98200000Y-89912500D03*
X98200000Y-88087500D03*
%TD*%
D38*
%TO.C,C25*%
X157200000Y-111750000D03*
X157200000Y-109850000D03*
%TD*%
D12*
%TO.C,R26*%
X100800000Y-135687500D03*
X100800000Y-137512500D03*
%TD*%
D36*
%TO.C,D7*%
X94462500Y-108600000D03*
X96337500Y-108600000D03*
%TD*%
D29*
%TO.C,R31*%
X97800000Y-64712500D03*
X97800000Y-62887500D03*
%TD*%
D24*
%TO.C,C39*%
X150400000Y-67750000D03*
X150400000Y-69650000D03*
%TD*%
D23*
%TO.C,R44*%
X87887500Y-101000000D03*
X89712500Y-101000000D03*
%TD*%
D36*
%TO.C,D4*%
X94262500Y-84000000D03*
X96137500Y-84000000D03*
%TD*%
D55*
%TO.C,U9*%
X139762500Y-54150000D03*
X139762500Y-55100000D03*
X139762500Y-56050000D03*
X142037500Y-56050000D03*
X142037500Y-54150000D03*
%TD*%
D35*
%TO.C,Q1*%
X95750000Y-71662500D03*
X93850000Y-71662500D03*
X94800000Y-73537500D03*
%TD*%
D40*
%TO.C,C18*%
X142150000Y-107600000D03*
X140250000Y-107600000D03*
%TD*%
D23*
%TO.C,R50*%
X90375000Y-147600000D03*
X92200000Y-147600000D03*
%TD*%
D38*
%TO.C,C2*%
X115600000Y-83150000D03*
X115600000Y-81250000D03*
%TD*%
D12*
%TO.C,R29*%
X100600000Y-143487500D03*
X100600000Y-145312500D03*
%TD*%
D24*
%TO.C,C19*%
X150400000Y-92250000D03*
X150400000Y-94150000D03*
%TD*%
D14*
%TO.C,R6*%
X85637500Y-80600000D03*
X91562500Y-80600000D03*
%TD*%
D24*
%TO.C,C37*%
X128105000Y-67600000D03*
X128105000Y-69500000D03*
%TD*%
D36*
%TO.C,D14*%
X94462500Y-125000000D03*
X96337500Y-125000000D03*
%TD*%
D38*
%TO.C,C11*%
X111600000Y-83150000D03*
X111600000Y-81250000D03*
%TD*%
D27*
%TO.C,TP6*%
X128600000Y-51975000D03*
X125600000Y-51975000D03*
X126600000Y-53975000D03*
D28*
X127100000Y-52475000D03*
D27*
X126600000Y-52975000D03*
X125600000Y-52975000D03*
X128600000Y-50975000D03*
X127600000Y-51975000D03*
X128600000Y-52975000D03*
X127600000Y-52975000D03*
X126600000Y-51975000D03*
X127600000Y-53975000D03*
X126600000Y-50975000D03*
X127600000Y-50975000D03*
X125600000Y-50975000D03*
X125600000Y-53975000D03*
X128600000Y-53975000D03*
%TD*%
M02*
