%TF.GenerationSoftware,KiCad,Pcbnew,(6.0.7-1)-1*%
%TF.CreationDate,2022-08-24T14:53:57+02:00*%
%TF.ProjectId,Flux_BMS,466c7578-5f42-44d5-932e-6b696361645f,rev?*%
%TF.SameCoordinates,Original*%
%TF.FileFunction,Legend,Bot*%
%TF.FilePolarity,Positive*%
%FSLAX46Y46*%
G04 Gerber Fmt 4.6, Leading zero omitted, Abs format (unit mm)*
G04 Created by KiCad (PCBNEW (6.0.7-1)-1) date 2022-08-24 14:53:57*
%MOMM*%
%LPD*%
G01*
G04 APERTURE LIST*
G04 Aperture macros list*
%AMRoundRect*
0 Rectangle with rounded corners*
0 $1 Rounding radius*
0 $2 $3 $4 $5 $6 $7 $8 $9 X,Y pos of 4 corners*
0 Add a 4 corners polygon primitive as box body*
4,1,4,$2,$3,$4,$5,$6,$7,$8,$9,$2,$3,0*
0 Add four circle primitives for the rounded corners*
1,1,$1+$1,$2,$3*
1,1,$1+$1,$4,$5*
1,1,$1+$1,$6,$7*
1,1,$1+$1,$8,$9*
0 Add four rect primitives between the rounded corners*
20,1,$1+$1,$2,$3,$4,$5,0*
20,1,$1+$1,$4,$5,$6,$7,0*
20,1,$1+$1,$6,$7,$8,$9,0*
20,1,$1+$1,$8,$9,$2,$3,0*%
G04 Aperture macros list end*
%ADD10RoundRect,1.500000X1.500000X1.500000X-1.500000X1.500000X-1.500000X-1.500000X1.500000X-1.500000X0*%
%ADD11C,6.000000*%
%ADD12RoundRect,0.250000X-0.725000X0.600000X-0.725000X-0.600000X0.725000X-0.600000X0.725000X0.600000X0*%
%ADD13O,1.950000X1.700000*%
%ADD14C,0.600000*%
%ADD15C,0.650000*%
%ADD16O,1.000000X1.600000*%
%ADD17O,1.000000X2.100000*%
%ADD18R,1.700000X1.700000*%
%ADD19O,1.700000X1.700000*%
%ADD20RoundRect,0.250000X-0.625000X0.350000X-0.625000X-0.350000X0.625000X-0.350000X0.625000X0.350000X0*%
%ADD21O,1.750000X1.200000*%
G04 APERTURE END LIST*
%LPC*%
D10*
%TO.C,J6*%
X159600000Y-45800000D03*
D11*
X152400000Y-45800000D03*
%TD*%
D12*
%TO.C,J1*%
X78925000Y-84400000D03*
D13*
X78925000Y-86900000D03*
X78925000Y-89400000D03*
X78925000Y-91900000D03*
X78925000Y-94400000D03*
X78925000Y-96900000D03*
X78925000Y-99400000D03*
X78925000Y-101900000D03*
X78925000Y-104400000D03*
X78925000Y-106900000D03*
X78925000Y-109400000D03*
X78925000Y-111900000D03*
X78925000Y-114400000D03*
%TD*%
D14*
%TO.C,TP7*%
X133600000Y-52960000D03*
X135600000Y-53960000D03*
X132600000Y-52960000D03*
X134600000Y-52960000D03*
X133600000Y-53960000D03*
X134600000Y-53960000D03*
X133600000Y-51960000D03*
X132600000Y-51960000D03*
X134600000Y-50960000D03*
X135600000Y-50960000D03*
X135600000Y-52960000D03*
X132600000Y-50960000D03*
X135600000Y-51960000D03*
X134600000Y-51960000D03*
X133600000Y-50960000D03*
X132600000Y-53960000D03*
%TD*%
D15*
%TO.C,J5*%
X147190000Y-143600000D03*
X141410000Y-143600000D03*
D16*
X139980000Y-147250000D03*
D17*
X148620000Y-143070000D03*
X139980000Y-143070000D03*
D16*
X148620000Y-147250000D03*
%TD*%
D14*
%TO.C,TP10*%
X160600000Y-54125000D03*
X159600000Y-53125000D03*
X157600000Y-51125000D03*
X159600000Y-51125000D03*
X158600000Y-51125000D03*
X160600000Y-51125000D03*
X157600000Y-53125000D03*
X159600000Y-52125000D03*
X159600000Y-54125000D03*
X160600000Y-53125000D03*
X158600000Y-53125000D03*
X158600000Y-54125000D03*
X158600000Y-52125000D03*
X157600000Y-52125000D03*
X157600000Y-54125000D03*
X160600000Y-52125000D03*
%TD*%
D18*
%TO.C,J4*%
X162700000Y-101400000D03*
D19*
X165240000Y-101400000D03*
X167780000Y-101400000D03*
X170320000Y-101400000D03*
X172860000Y-101400000D03*
%TD*%
D14*
%TO.C,TP9*%
X152600000Y-53225000D03*
X153600000Y-54225000D03*
X151600000Y-53225000D03*
X151600000Y-54225000D03*
X150600000Y-52225000D03*
X150600000Y-51225000D03*
X152600000Y-54225000D03*
X150600000Y-54225000D03*
X153600000Y-53225000D03*
X150600000Y-53225000D03*
X153600000Y-51225000D03*
X152600000Y-52225000D03*
X152600000Y-51225000D03*
X153600000Y-52225000D03*
X151600000Y-52225000D03*
X151600000Y-51225000D03*
%TD*%
D20*
%TO.C,J2*%
X172750000Y-110200000D03*
D21*
X172750000Y-112200000D03*
%TD*%
D10*
%TO.C,J3*%
X134600000Y-45800000D03*
D11*
X127400000Y-45800000D03*
%TD*%
D14*
%TO.C,TP6*%
X128600000Y-51975000D03*
X125600000Y-51975000D03*
X126600000Y-53975000D03*
X126600000Y-52975000D03*
X125600000Y-52975000D03*
X128600000Y-50975000D03*
X127600000Y-51975000D03*
X128600000Y-52975000D03*
X127600000Y-52975000D03*
X126600000Y-51975000D03*
X127600000Y-53975000D03*
X126600000Y-50975000D03*
X127600000Y-50975000D03*
X125600000Y-50975000D03*
X125600000Y-53975000D03*
X128600000Y-53975000D03*
%TD*%
M02*
