%TF.GenerationSoftware,KiCad,Pcbnew,(6.0.7-1)-1*%
%TF.CreationDate,2022-08-24T14:53:57+02:00*%
%TF.ProjectId,Flux_BMS,466c7578-5f42-44d5-932e-6b696361645f,rev?*%
%TF.SameCoordinates,Original*%
%TF.FileFunction,Legend,Top*%
%TF.FilePolarity,Positive*%
%FSLAX46Y46*%
G04 Gerber Fmt 4.6, Leading zero omitted, Abs format (unit mm)*
G04 Created by KiCad (PCBNEW (6.0.7-1)-1) date 2022-08-24 14:53:57*
%MOMM*%
%LPD*%
G01*
G04 APERTURE LIST*
G04 Aperture macros list*
%AMRoundRect*
0 Rectangle with rounded corners*
0 $1 Rounding radius*
0 $2 $3 $4 $5 $6 $7 $8 $9 X,Y pos of 4 corners*
0 Add a 4 corners polygon primitive as box body*
4,1,4,$2,$3,$4,$5,$6,$7,$8,$9,$2,$3,0*
0 Add four circle primitives for the rounded corners*
1,1,$1+$1,$2,$3*
1,1,$1+$1,$4,$5*
1,1,$1+$1,$6,$7*
1,1,$1+$1,$8,$9*
0 Add four rect primitives between the rounded corners*
20,1,$1+$1,$2,$3,$4,$5,0*
20,1,$1+$1,$4,$5,$6,$7,0*
20,1,$1+$1,$6,$7,$8,$9,0*
20,1,$1+$1,$8,$9,$2,$3,0*%
%AMFreePoly0*
4,1,9,3.862500,-0.866500,0.737500,-0.866500,0.737500,-0.450000,-0.737500,-0.450000,-0.737500,0.450000,0.737500,0.450000,0.737500,0.866500,3.862500,0.866500,3.862500,-0.866500,3.862500,-0.866500,$1*%
G04 Aperture macros list end*
%ADD10C,0.150000*%
%ADD11C,0.120000*%
%ADD12C,0.127000*%
%ADD13C,0.200000*%
%ADD14C,0.010000*%
%ADD15RoundRect,0.243750X0.456250X-0.243750X0.456250X0.243750X-0.456250X0.243750X-0.456250X-0.243750X0*%
%ADD16RoundRect,0.250000X-0.450000X0.262500X-0.450000X-0.262500X0.450000X-0.262500X0.450000X0.262500X0*%
%ADD17C,1.500000*%
%ADD18RoundRect,0.250000X-0.362500X-1.425000X0.362500X-1.425000X0.362500X1.425000X-0.362500X1.425000X0*%
%ADD19RoundRect,0.150000X-0.650000X-0.150000X0.650000X-0.150000X0.650000X0.150000X-0.650000X0.150000X0*%
%ADD20R,2.410000X3.100000*%
%ADD21RoundRect,1.500000X1.500000X1.500000X-1.500000X1.500000X-1.500000X-1.500000X1.500000X-1.500000X0*%
%ADD22C,6.000000*%
%ADD23RoundRect,0.250000X0.650000X-0.325000X0.650000X0.325000X-0.650000X0.325000X-0.650000X-0.325000X0*%
%ADD24RoundRect,0.250000X-0.250000X-0.475000X0.250000X-0.475000X0.250000X0.475000X-0.250000X0.475000X0*%
%ADD25RoundRect,0.250000X-0.725000X0.600000X-0.725000X-0.600000X0.725000X-0.600000X0.725000X0.600000X0*%
%ADD26O,1.950000X1.700000*%
%ADD27RoundRect,0.250000X-0.262500X-0.450000X0.262500X-0.450000X0.262500X0.450000X-0.262500X0.450000X0*%
%ADD28RoundRect,0.250000X-0.475000X0.250000X-0.475000X-0.250000X0.475000X-0.250000X0.475000X0.250000X0*%
%ADD29R,2.287000X1.010000*%
%ADD30R,0.762000X1.010000*%
%ADD31C,0.600000*%
%ADD32R,4.000000X4.000000*%
%ADD33RoundRect,0.250000X0.450000X-0.262500X0.450000X0.262500X-0.450000X0.262500X-0.450000X-0.262500X0*%
%ADD34C,0.650000*%
%ADD35R,0.600000X1.450000*%
%ADD36R,0.300000X1.450000*%
%ADD37O,1.000000X1.600000*%
%ADD38O,1.000000X2.100000*%
%ADD39RoundRect,0.150000X-0.150000X0.587500X-0.150000X-0.587500X0.150000X-0.587500X0.150000X0.587500X0*%
%ADD40RoundRect,0.243750X-0.243750X-0.456250X0.243750X-0.456250X0.243750X0.456250X-0.243750X0.456250X0*%
%ADD41R,0.610000X1.270000*%
%ADD42RoundRect,0.250000X0.475000X-0.250000X0.475000X0.250000X-0.475000X0.250000X-0.475000X-0.250000X0*%
%ADD43RoundRect,0.150000X-0.825000X-0.150000X0.825000X-0.150000X0.825000X0.150000X-0.825000X0.150000X0*%
%ADD44RoundRect,0.250000X0.250000X0.475000X-0.250000X0.475000X-0.250000X-0.475000X0.250000X-0.475000X0*%
%ADD45RoundRect,0.250000X0.262500X0.450000X-0.262500X0.450000X-0.262500X-0.450000X0.262500X-0.450000X0*%
%ADD46R,0.900000X1.300000*%
%ADD47FreePoly0,270.000000*%
%ADD48RoundRect,0.100000X0.100000X-0.637500X0.100000X0.637500X-0.100000X0.637500X-0.100000X-0.637500X0*%
%ADD49R,2.000000X2.400000*%
%ADD50R,1.700000X1.700000*%
%ADD51O,1.700000X1.700000*%
%ADD52R,1.270000X0.610000*%
%ADD53RoundRect,0.075000X-0.875000X-0.075000X0.875000X-0.075000X0.875000X0.075000X-0.875000X0.075000X0*%
%ADD54R,1.500000X4.000000*%
%ADD55RoundRect,0.075000X-0.075000X0.700000X-0.075000X-0.700000X0.075000X-0.700000X0.075000X0.700000X0*%
%ADD56RoundRect,0.075000X-0.700000X0.075000X-0.700000X-0.075000X0.700000X-0.075000X0.700000X0.075000X0*%
%ADD57RoundRect,0.250000X-0.625000X0.350000X-0.625000X-0.350000X0.625000X-0.350000X0.625000X0.350000X0*%
%ADD58O,1.750000X1.200000*%
%ADD59RoundRect,0.150000X-0.512500X-0.150000X0.512500X-0.150000X0.512500X0.150000X-0.512500X0.150000X0*%
G04 APERTURE END LIST*
D10*
X107600000Y-51200000D02*
X172800000Y-51200000D01*
X172800000Y-51200000D02*
X172800000Y-78200000D01*
X172800000Y-78200000D02*
X107600000Y-78200000D01*
X107600000Y-78200000D02*
X107600000Y-51200000D01*
X107400000Y-79600000D02*
X121800000Y-79600000D01*
X121800000Y-119600000D01*
X113000000Y-119600000D01*
X113000000Y-149200000D01*
X75200000Y-149200000D01*
X75200000Y-50400000D01*
X107400000Y-50400000D01*
X107400000Y-79600000D01*
X175000000Y-103400000D02*
X154200000Y-103400000D01*
X154200000Y-103400000D02*
X154200000Y-79600000D01*
X154200000Y-79600000D02*
X175000000Y-79600000D01*
X175000000Y-79600000D02*
X175000000Y-103400000D01*
X154200000Y-104400000D02*
X175000000Y-104400000D01*
X175000000Y-104400000D02*
X175000000Y-119600000D01*
X175000000Y-119600000D02*
X154200000Y-119600000D01*
X154200000Y-119600000D02*
X154200000Y-104400000D01*
X122800000Y-79600000D02*
X153800000Y-79600000D01*
X153800000Y-79600000D02*
X153800000Y-119600000D01*
X153800000Y-119600000D02*
X122800000Y-119600000D01*
X122800000Y-119600000D02*
X122800000Y-79600000D01*
X134200000Y-135400000D02*
X156000000Y-135400000D01*
X156000000Y-135400000D02*
X156000000Y-150000000D01*
X156000000Y-150000000D02*
X134200000Y-150000000D01*
X134200000Y-150000000D02*
X134200000Y-135400000D01*
X117200000Y-135400000D02*
X131200000Y-135400000D01*
X131200000Y-135400000D02*
X131200000Y-150000000D01*
X131200000Y-150000000D02*
X117200000Y-150000000D01*
X117200000Y-150000000D02*
X117200000Y-135400000D01*
X155357142Y-105957142D02*
X155309523Y-106004761D01*
X155166666Y-106052380D01*
X155071428Y-106052380D01*
X154928571Y-106004761D01*
X154833333Y-105909523D01*
X154785714Y-105814285D01*
X154738095Y-105623809D01*
X154738095Y-105480952D01*
X154785714Y-105290476D01*
X154833333Y-105195238D01*
X154928571Y-105100000D01*
X155071428Y-105052380D01*
X155166666Y-105052380D01*
X155309523Y-105100000D01*
X155357142Y-105147619D01*
X155738095Y-105766666D02*
X156214285Y-105766666D01*
X155642857Y-106052380D02*
X155976190Y-105052380D01*
X156309523Y-106052380D01*
X156642857Y-106052380D02*
X156642857Y-105052380D01*
X157214285Y-106052380D01*
X157214285Y-105052380D01*
X134838095Y-135952380D02*
X134838095Y-136761904D01*
X134885714Y-136857142D01*
X134933333Y-136904761D01*
X135028571Y-136952380D01*
X135219047Y-136952380D01*
X135314285Y-136904761D01*
X135361904Y-136857142D01*
X135409523Y-136761904D01*
X135409523Y-135952380D01*
X135838095Y-136904761D02*
X135980952Y-136952380D01*
X136219047Y-136952380D01*
X136314285Y-136904761D01*
X136361904Y-136857142D01*
X136409523Y-136761904D01*
X136409523Y-136666666D01*
X136361904Y-136571428D01*
X136314285Y-136523809D01*
X136219047Y-136476190D01*
X136028571Y-136428571D01*
X135933333Y-136380952D01*
X135885714Y-136333333D01*
X135838095Y-136238095D01*
X135838095Y-136142857D01*
X135885714Y-136047619D01*
X135933333Y-136000000D01*
X136028571Y-135952380D01*
X136266666Y-135952380D01*
X136409523Y-136000000D01*
X137171428Y-136428571D02*
X137314285Y-136476190D01*
X137361904Y-136523809D01*
X137409523Y-136619047D01*
X137409523Y-136761904D01*
X137361904Y-136857142D01*
X137314285Y-136904761D01*
X137219047Y-136952380D01*
X136838095Y-136952380D01*
X136838095Y-135952380D01*
X137171428Y-135952380D01*
X137266666Y-136000000D01*
X137314285Y-136047619D01*
X137361904Y-136142857D01*
X137361904Y-136238095D01*
X137314285Y-136333333D01*
X137266666Y-136380952D01*
X137171428Y-136428571D01*
X136838095Y-136428571D01*
X123442857Y-81452380D02*
X123442857Y-80452380D01*
X123776190Y-81166666D01*
X124109523Y-80452380D01*
X124109523Y-81452380D01*
X125157142Y-81357142D02*
X125109523Y-81404761D01*
X124966666Y-81452380D01*
X124871428Y-81452380D01*
X124728571Y-81404761D01*
X124633333Y-81309523D01*
X124585714Y-81214285D01*
X124538095Y-81023809D01*
X124538095Y-80880952D01*
X124585714Y-80690476D01*
X124633333Y-80595238D01*
X124728571Y-80500000D01*
X124871428Y-80452380D01*
X124966666Y-80452380D01*
X125109523Y-80500000D01*
X125157142Y-80547619D01*
X125585714Y-80452380D02*
X125585714Y-81261904D01*
X125633333Y-81357142D01*
X125680952Y-81404761D01*
X125776190Y-81452380D01*
X125966666Y-81452380D01*
X126061904Y-81404761D01*
X126109523Y-81357142D01*
X126157142Y-81261904D01*
X126157142Y-80452380D01*
X155166666Y-81128571D02*
X155309523Y-81176190D01*
X155357142Y-81223809D01*
X155404761Y-81319047D01*
X155404761Y-81461904D01*
X155357142Y-81557142D01*
X155309523Y-81604761D01*
X155214285Y-81652380D01*
X154833333Y-81652380D01*
X154833333Y-80652380D01*
X155166666Y-80652380D01*
X155261904Y-80700000D01*
X155309523Y-80747619D01*
X155357142Y-80842857D01*
X155357142Y-80938095D01*
X155309523Y-81033333D01*
X155261904Y-81080952D01*
X155166666Y-81128571D01*
X154833333Y-81128571D01*
X156500000Y-81747619D02*
X156404761Y-81700000D01*
X156309523Y-81604761D01*
X156166666Y-81461904D01*
X156071428Y-81414285D01*
X155976190Y-81414285D01*
X156023809Y-81652380D02*
X155928571Y-81604761D01*
X155833333Y-81509523D01*
X155785714Y-81319047D01*
X155785714Y-80985714D01*
X155833333Y-80795238D01*
X155928571Y-80700000D01*
X156023809Y-80652380D01*
X156214285Y-80652380D01*
X156309523Y-80700000D01*
X156404761Y-80795238D01*
X156452380Y-80985714D01*
X156452380Y-81319047D01*
X156404761Y-81509523D01*
X156309523Y-81604761D01*
X156214285Y-81652380D01*
X156023809Y-81652380D01*
X156785714Y-80652380D02*
X157452380Y-80652380D01*
X157023809Y-81652380D01*
X158261904Y-80652380D02*
X158071428Y-80652380D01*
X157976190Y-80700000D01*
X157928571Y-80747619D01*
X157833333Y-80890476D01*
X157785714Y-81080952D01*
X157785714Y-81461904D01*
X157833333Y-81557142D01*
X157880952Y-81604761D01*
X157976190Y-81652380D01*
X158166666Y-81652380D01*
X158261904Y-81604761D01*
X158309523Y-81557142D01*
X158357142Y-81461904D01*
X158357142Y-81223809D01*
X158309523Y-81128571D01*
X158261904Y-81080952D01*
X158166666Y-81033333D01*
X157976190Y-81033333D01*
X157880952Y-81080952D01*
X157833333Y-81128571D01*
X157785714Y-81223809D01*
X158738095Y-80747619D02*
X158785714Y-80700000D01*
X158880952Y-80652380D01*
X159119047Y-80652380D01*
X159214285Y-80700000D01*
X159261904Y-80747619D01*
X159309523Y-80842857D01*
X159309523Y-80938095D01*
X159261904Y-81080952D01*
X158690476Y-81652380D01*
X159309523Y-81652380D01*
X159928571Y-80652380D02*
X160023809Y-80652380D01*
X160119047Y-80700000D01*
X160166666Y-80747619D01*
X160214285Y-80842857D01*
X160261904Y-81033333D01*
X160261904Y-81271428D01*
X160214285Y-81461904D01*
X160166666Y-81557142D01*
X160119047Y-81604761D01*
X160023809Y-81652380D01*
X159928571Y-81652380D01*
X159833333Y-81604761D01*
X159785714Y-81557142D01*
X159738095Y-81461904D01*
X159690476Y-81271428D01*
X159690476Y-81033333D01*
X159738095Y-80842857D01*
X159785714Y-80747619D01*
X159833333Y-80700000D01*
X159928571Y-80652380D01*
X160880952Y-80652380D02*
X160976190Y-80652380D01*
X161071428Y-80700000D01*
X161119047Y-80747619D01*
X161166666Y-80842857D01*
X161214285Y-81033333D01*
X161214285Y-81271428D01*
X161166666Y-81461904D01*
X161119047Y-81557142D01*
X161071428Y-81604761D01*
X160976190Y-81652380D01*
X160880952Y-81652380D01*
X160785714Y-81604761D01*
X160738095Y-81557142D01*
X160690476Y-81461904D01*
X160642857Y-81271428D01*
X160642857Y-81033333D01*
X160690476Y-80842857D01*
X160738095Y-80747619D01*
X160785714Y-80700000D01*
X160880952Y-80652380D01*
X108290476Y-52852380D02*
X108290476Y-51852380D01*
X108671428Y-51852380D01*
X108766666Y-51900000D01*
X108814285Y-51947619D01*
X108861904Y-52042857D01*
X108861904Y-52185714D01*
X108814285Y-52280952D01*
X108766666Y-52328571D01*
X108671428Y-52376190D01*
X108290476Y-52376190D01*
X109480952Y-51852380D02*
X109671428Y-51852380D01*
X109766666Y-51900000D01*
X109861904Y-51995238D01*
X109909523Y-52185714D01*
X109909523Y-52519047D01*
X109861904Y-52709523D01*
X109766666Y-52804761D01*
X109671428Y-52852380D01*
X109480952Y-52852380D01*
X109385714Y-52804761D01*
X109290476Y-52709523D01*
X109242857Y-52519047D01*
X109242857Y-52185714D01*
X109290476Y-51995238D01*
X109385714Y-51900000D01*
X109480952Y-51852380D01*
X110242857Y-51852380D02*
X110480952Y-52852380D01*
X110671428Y-52138095D01*
X110861904Y-52852380D01*
X111100000Y-51852380D01*
X111480952Y-52328571D02*
X111814285Y-52328571D01*
X111957142Y-52852380D02*
X111480952Y-52852380D01*
X111480952Y-51852380D01*
X111957142Y-51852380D01*
X112957142Y-52852380D02*
X112623809Y-52376190D01*
X112385714Y-52852380D02*
X112385714Y-51852380D01*
X112766666Y-51852380D01*
X112861904Y-51900000D01*
X112909523Y-51947619D01*
X112957142Y-52042857D01*
X112957142Y-52185714D01*
X112909523Y-52280952D01*
X112861904Y-52328571D01*
X112766666Y-52376190D01*
X112385714Y-52376190D01*
X118280952Y-137052380D02*
X117804761Y-137052380D01*
X117804761Y-136052380D01*
X118614285Y-136528571D02*
X118947619Y-136528571D01*
X119090476Y-137052380D02*
X118614285Y-137052380D01*
X118614285Y-136052380D01*
X119090476Y-136052380D01*
X119519047Y-137052380D02*
X119519047Y-136052380D01*
X119757142Y-136052380D01*
X119900000Y-136100000D01*
X119995238Y-136195238D01*
X120042857Y-136290476D01*
X120090476Y-136480952D01*
X120090476Y-136623809D01*
X120042857Y-136814285D01*
X119995238Y-136909523D01*
X119900000Y-137004761D01*
X119757142Y-137052380D01*
X119519047Y-137052380D01*
X120471428Y-137004761D02*
X120614285Y-137052380D01*
X120852380Y-137052380D01*
X120947619Y-137004761D01*
X120995238Y-136957142D01*
X121042857Y-136861904D01*
X121042857Y-136766666D01*
X120995238Y-136671428D01*
X120947619Y-136623809D01*
X120852380Y-136576190D01*
X120661904Y-136528571D01*
X120566666Y-136480952D01*
X120519047Y-136433333D01*
X120471428Y-136338095D01*
X120471428Y-136242857D01*
X120519047Y-136147619D01*
X120566666Y-136100000D01*
X120661904Y-136052380D01*
X120900000Y-136052380D01*
X121042857Y-136100000D01*
X76123809Y-52052380D02*
X75647619Y-52052380D01*
X75647619Y-51052380D01*
X76314285Y-51052380D02*
X76885714Y-51052380D01*
X76600000Y-52052380D02*
X76600000Y-51052380D01*
X77790476Y-51957142D02*
X77742857Y-52004761D01*
X77600000Y-52052380D01*
X77504761Y-52052380D01*
X77361904Y-52004761D01*
X77266666Y-51909523D01*
X77219047Y-51814285D01*
X77171428Y-51623809D01*
X77171428Y-51480952D01*
X77219047Y-51290476D01*
X77266666Y-51195238D01*
X77361904Y-51100000D01*
X77504761Y-51052380D01*
X77600000Y-51052380D01*
X77742857Y-51100000D01*
X77790476Y-51147619D01*
X78647619Y-51052380D02*
X78457142Y-51052380D01*
X78361904Y-51100000D01*
X78314285Y-51147619D01*
X78219047Y-51290476D01*
X78171428Y-51480952D01*
X78171428Y-51861904D01*
X78219047Y-51957142D01*
X78266666Y-52004761D01*
X78361904Y-52052380D01*
X78552380Y-52052380D01*
X78647619Y-52004761D01*
X78695238Y-51957142D01*
X78742857Y-51861904D01*
X78742857Y-51623809D01*
X78695238Y-51528571D01*
X78647619Y-51480952D01*
X78552380Y-51433333D01*
X78361904Y-51433333D01*
X78266666Y-51480952D01*
X78219047Y-51528571D01*
X78171428Y-51623809D01*
X79314285Y-51480952D02*
X79219047Y-51433333D01*
X79171428Y-51385714D01*
X79123809Y-51290476D01*
X79123809Y-51242857D01*
X79171428Y-51147619D01*
X79219047Y-51100000D01*
X79314285Y-51052380D01*
X79504761Y-51052380D01*
X79600000Y-51100000D01*
X79647619Y-51147619D01*
X79695238Y-51242857D01*
X79695238Y-51290476D01*
X79647619Y-51385714D01*
X79600000Y-51433333D01*
X79504761Y-51480952D01*
X79314285Y-51480952D01*
X79219047Y-51528571D01*
X79171428Y-51576190D01*
X79123809Y-51671428D01*
X79123809Y-51861904D01*
X79171428Y-51957142D01*
X79219047Y-52004761D01*
X79314285Y-52052380D01*
X79504761Y-52052380D01*
X79600000Y-52004761D01*
X79647619Y-51957142D01*
X79695238Y-51861904D01*
X79695238Y-51671428D01*
X79647619Y-51576190D01*
X79600000Y-51528571D01*
X79504761Y-51480952D01*
X80647619Y-52052380D02*
X80076190Y-52052380D01*
X80361904Y-52052380D02*
X80361904Y-51052380D01*
X80266666Y-51195238D01*
X80171428Y-51290476D01*
X80076190Y-51338095D01*
X81600000Y-52052380D02*
X81028571Y-52052380D01*
X81314285Y-52052380D02*
X81314285Y-51052380D01*
X81219047Y-51195238D01*
X81123809Y-51290476D01*
X81028571Y-51338095D01*
%TO.C,D16*%
X154902380Y-66514285D02*
X153902380Y-66514285D01*
X153902380Y-66276190D01*
X153950000Y-66133333D01*
X154045238Y-66038095D01*
X154140476Y-65990476D01*
X154330952Y-65942857D01*
X154473809Y-65942857D01*
X154664285Y-65990476D01*
X154759523Y-66038095D01*
X154854761Y-66133333D01*
X154902380Y-66276190D01*
X154902380Y-66514285D01*
X154902380Y-64990476D02*
X154902380Y-65561904D01*
X154902380Y-65276190D02*
X153902380Y-65276190D01*
X154045238Y-65371428D01*
X154140476Y-65466666D01*
X154188095Y-65561904D01*
X153902380Y-64133333D02*
X153902380Y-64323809D01*
X153950000Y-64419047D01*
X153997619Y-64466666D01*
X154140476Y-64561904D01*
X154330952Y-64609523D01*
X154711904Y-64609523D01*
X154807142Y-64561904D01*
X154854761Y-64514285D01*
X154902380Y-64419047D01*
X154902380Y-64228571D01*
X154854761Y-64133333D01*
X154807142Y-64085714D01*
X154711904Y-64038095D01*
X154473809Y-64038095D01*
X154378571Y-64085714D01*
X154330952Y-64133333D01*
X154283333Y-64228571D01*
X154283333Y-64419047D01*
X154330952Y-64514285D01*
X154378571Y-64561904D01*
X154473809Y-64609523D01*
%TO.C,R20*%
X101702380Y-55642857D02*
X101226190Y-55976190D01*
X101702380Y-56214285D02*
X100702380Y-56214285D01*
X100702380Y-55833333D01*
X100750000Y-55738095D01*
X100797619Y-55690476D01*
X100892857Y-55642857D01*
X101035714Y-55642857D01*
X101130952Y-55690476D01*
X101178571Y-55738095D01*
X101226190Y-55833333D01*
X101226190Y-56214285D01*
X100797619Y-55261904D02*
X100750000Y-55214285D01*
X100702380Y-55119047D01*
X100702380Y-54880952D01*
X100750000Y-54785714D01*
X100797619Y-54738095D01*
X100892857Y-54690476D01*
X100988095Y-54690476D01*
X101130952Y-54738095D01*
X101702380Y-55309523D01*
X101702380Y-54690476D01*
X100702380Y-54071428D02*
X100702380Y-53976190D01*
X100750000Y-53880952D01*
X100797619Y-53833333D01*
X100892857Y-53785714D01*
X101083333Y-53738095D01*
X101321428Y-53738095D01*
X101511904Y-53785714D01*
X101607142Y-53833333D01*
X101654761Y-53880952D01*
X101702380Y-53976190D01*
X101702380Y-54071428D01*
X101654761Y-54166666D01*
X101607142Y-54214285D01*
X101511904Y-54261904D01*
X101321428Y-54309523D01*
X101083333Y-54309523D01*
X100892857Y-54261904D01*
X100797619Y-54214285D01*
X100750000Y-54166666D01*
X100702380Y-54071428D01*
%TO.C,TP1*%
X129619285Y-61021428D02*
X130381190Y-61021428D01*
X130000238Y-61402380D02*
X130000238Y-60640476D01*
X131333571Y-60402380D02*
X130857380Y-60402380D01*
X130809761Y-60878571D01*
X130857380Y-60830952D01*
X130952619Y-60783333D01*
X131190714Y-60783333D01*
X131285952Y-60830952D01*
X131333571Y-60878571D01*
X131381190Y-60973809D01*
X131381190Y-61211904D01*
X131333571Y-61307142D01*
X131285952Y-61354761D01*
X131190714Y-61402380D01*
X130952619Y-61402380D01*
X130857380Y-61354761D01*
X130809761Y-61307142D01*
X131666904Y-60402380D02*
X132000238Y-61402380D01*
X132333571Y-60402380D01*
%TO.C,R3*%
X88233333Y-70232380D02*
X87900000Y-69756190D01*
X87661904Y-70232380D02*
X87661904Y-69232380D01*
X88042857Y-69232380D01*
X88138095Y-69280000D01*
X88185714Y-69327619D01*
X88233333Y-69422857D01*
X88233333Y-69565714D01*
X88185714Y-69660952D01*
X88138095Y-69708571D01*
X88042857Y-69756190D01*
X87661904Y-69756190D01*
X88566666Y-69232380D02*
X89185714Y-69232380D01*
X88852380Y-69613333D01*
X88995238Y-69613333D01*
X89090476Y-69660952D01*
X89138095Y-69708571D01*
X89185714Y-69803809D01*
X89185714Y-70041904D01*
X89138095Y-70137142D01*
X89090476Y-70184761D01*
X88995238Y-70232380D01*
X88709523Y-70232380D01*
X88614285Y-70184761D01*
X88566666Y-70137142D01*
%TO.C,U7*%
X119743095Y-66002380D02*
X119743095Y-66811904D01*
X119790714Y-66907142D01*
X119838333Y-66954761D01*
X119933571Y-67002380D01*
X120124047Y-67002380D01*
X120219285Y-66954761D01*
X120266904Y-66907142D01*
X120314523Y-66811904D01*
X120314523Y-66002380D01*
X120695476Y-66002380D02*
X121362142Y-66002380D01*
X120933571Y-67002380D01*
%TO.C,D2*%
X127272380Y-144198095D02*
X126272380Y-144198095D01*
X126272380Y-143960000D01*
X126320000Y-143817142D01*
X126415238Y-143721904D01*
X126510476Y-143674285D01*
X126700952Y-143626666D01*
X126843809Y-143626666D01*
X127034285Y-143674285D01*
X127129523Y-143721904D01*
X127224761Y-143817142D01*
X127272380Y-143960000D01*
X127272380Y-144198095D01*
X126367619Y-143245714D02*
X126320000Y-143198095D01*
X126272380Y-143102857D01*
X126272380Y-142864761D01*
X126320000Y-142769523D01*
X126367619Y-142721904D01*
X126462857Y-142674285D01*
X126558095Y-142674285D01*
X126700952Y-142721904D01*
X127272380Y-143293333D01*
X127272380Y-142674285D01*
%TO.C,J6*%
X155666666Y-50552380D02*
X155666666Y-51266666D01*
X155619047Y-51409523D01*
X155523809Y-51504761D01*
X155380952Y-51552380D01*
X155285714Y-51552380D01*
X156571428Y-50552380D02*
X156380952Y-50552380D01*
X156285714Y-50600000D01*
X156238095Y-50647619D01*
X156142857Y-50790476D01*
X156095238Y-50980952D01*
X156095238Y-51361904D01*
X156142857Y-51457142D01*
X156190476Y-51504761D01*
X156285714Y-51552380D01*
X156476190Y-51552380D01*
X156571428Y-51504761D01*
X156619047Y-51457142D01*
X156666666Y-51361904D01*
X156666666Y-51123809D01*
X156619047Y-51028571D01*
X156571428Y-50980952D01*
X156476190Y-50933333D01*
X156285714Y-50933333D01*
X156190476Y-50980952D01*
X156142857Y-51028571D01*
X156095238Y-51123809D01*
%TO.C,C33*%
X113862142Y-63992857D02*
X113909761Y-64040476D01*
X113957380Y-64183333D01*
X113957380Y-64278571D01*
X113909761Y-64421428D01*
X113814523Y-64516666D01*
X113719285Y-64564285D01*
X113528809Y-64611904D01*
X113385952Y-64611904D01*
X113195476Y-64564285D01*
X113100238Y-64516666D01*
X113005000Y-64421428D01*
X112957380Y-64278571D01*
X112957380Y-64183333D01*
X113005000Y-64040476D01*
X113052619Y-63992857D01*
X112957380Y-63659523D02*
X112957380Y-63040476D01*
X113338333Y-63373809D01*
X113338333Y-63230952D01*
X113385952Y-63135714D01*
X113433571Y-63088095D01*
X113528809Y-63040476D01*
X113766904Y-63040476D01*
X113862142Y-63088095D01*
X113909761Y-63135714D01*
X113957380Y-63230952D01*
X113957380Y-63516666D01*
X113909761Y-63611904D01*
X113862142Y-63659523D01*
X112957380Y-62707142D02*
X112957380Y-62088095D01*
X113338333Y-62421428D01*
X113338333Y-62278571D01*
X113385952Y-62183333D01*
X113433571Y-62135714D01*
X113528809Y-62088095D01*
X113766904Y-62088095D01*
X113862142Y-62135714D01*
X113909761Y-62183333D01*
X113957380Y-62278571D01*
X113957380Y-62564285D01*
X113909761Y-62659523D01*
X113862142Y-62707142D01*
%TO.C,C15*%
X137157142Y-82077142D02*
X137109523Y-82124761D01*
X136966666Y-82172380D01*
X136871428Y-82172380D01*
X136728571Y-82124761D01*
X136633333Y-82029523D01*
X136585714Y-81934285D01*
X136538095Y-81743809D01*
X136538095Y-81600952D01*
X136585714Y-81410476D01*
X136633333Y-81315238D01*
X136728571Y-81220000D01*
X136871428Y-81172380D01*
X136966666Y-81172380D01*
X137109523Y-81220000D01*
X137157142Y-81267619D01*
X138109523Y-82172380D02*
X137538095Y-82172380D01*
X137823809Y-82172380D02*
X137823809Y-81172380D01*
X137728571Y-81315238D01*
X137633333Y-81410476D01*
X137538095Y-81458095D01*
X139014285Y-81172380D02*
X138538095Y-81172380D01*
X138490476Y-81648571D01*
X138538095Y-81600952D01*
X138633333Y-81553333D01*
X138871428Y-81553333D01*
X138966666Y-81600952D01*
X139014285Y-81648571D01*
X139061904Y-81743809D01*
X139061904Y-81981904D01*
X139014285Y-82077142D01*
X138966666Y-82124761D01*
X138871428Y-82172380D01*
X138633333Y-82172380D01*
X138538095Y-82124761D01*
X138490476Y-82077142D01*
%TO.C,J1*%
X81927380Y-99733333D02*
X82641666Y-99733333D01*
X82784523Y-99780952D01*
X82879761Y-99876190D01*
X82927380Y-100019047D01*
X82927380Y-100114285D01*
X82927380Y-98733333D02*
X82927380Y-99304761D01*
X82927380Y-99019047D02*
X81927380Y-99019047D01*
X82070238Y-99114285D01*
X82165476Y-99209523D01*
X82213095Y-99304761D01*
%TO.C,R42*%
X90157142Y-82802380D02*
X89823809Y-82326190D01*
X89585714Y-82802380D02*
X89585714Y-81802380D01*
X89966666Y-81802380D01*
X90061904Y-81850000D01*
X90109523Y-81897619D01*
X90157142Y-81992857D01*
X90157142Y-82135714D01*
X90109523Y-82230952D01*
X90061904Y-82278571D01*
X89966666Y-82326190D01*
X89585714Y-82326190D01*
X91014285Y-82135714D02*
X91014285Y-82802380D01*
X90776190Y-81754761D02*
X90538095Y-82469047D01*
X91157142Y-82469047D01*
X91490476Y-81897619D02*
X91538095Y-81850000D01*
X91633333Y-81802380D01*
X91871428Y-81802380D01*
X91966666Y-81850000D01*
X92014285Y-81897619D01*
X92061904Y-81992857D01*
X92061904Y-82088095D01*
X92014285Y-82230952D01*
X91442857Y-82802380D01*
X92061904Y-82802380D01*
%TO.C,R35*%
X100652380Y-125242857D02*
X100176190Y-125576190D01*
X100652380Y-125814285D02*
X99652380Y-125814285D01*
X99652380Y-125433333D01*
X99700000Y-125338095D01*
X99747619Y-125290476D01*
X99842857Y-125242857D01*
X99985714Y-125242857D01*
X100080952Y-125290476D01*
X100128571Y-125338095D01*
X100176190Y-125433333D01*
X100176190Y-125814285D01*
X99652380Y-124909523D02*
X99652380Y-124290476D01*
X100033333Y-124623809D01*
X100033333Y-124480952D01*
X100080952Y-124385714D01*
X100128571Y-124338095D01*
X100223809Y-124290476D01*
X100461904Y-124290476D01*
X100557142Y-124338095D01*
X100604761Y-124385714D01*
X100652380Y-124480952D01*
X100652380Y-124766666D01*
X100604761Y-124861904D01*
X100557142Y-124909523D01*
X99652380Y-123385714D02*
X99652380Y-123861904D01*
X100128571Y-123909523D01*
X100080952Y-123861904D01*
X100033333Y-123766666D01*
X100033333Y-123528571D01*
X100080952Y-123433333D01*
X100128571Y-123385714D01*
X100223809Y-123338095D01*
X100461904Y-123338095D01*
X100557142Y-123385714D01*
X100604761Y-123433333D01*
X100652380Y-123528571D01*
X100652380Y-123766666D01*
X100604761Y-123861904D01*
X100557142Y-123909523D01*
%TO.C,TP2*%
X124033333Y-98557142D02*
X123985714Y-98604761D01*
X123842857Y-98652380D01*
X123747619Y-98652380D01*
X123604761Y-98604761D01*
X123509523Y-98509523D01*
X123461904Y-98414285D01*
X123414285Y-98223809D01*
X123414285Y-98080952D01*
X123461904Y-97890476D01*
X123509523Y-97795238D01*
X123604761Y-97700000D01*
X123747619Y-97652380D01*
X123842857Y-97652380D01*
X123985714Y-97700000D01*
X124033333Y-97747619D01*
X124414285Y-98604761D02*
X124557142Y-98652380D01*
X124795238Y-98652380D01*
X124890476Y-98604761D01*
X124938095Y-98557142D01*
X124985714Y-98461904D01*
X124985714Y-98366666D01*
X124938095Y-98271428D01*
X124890476Y-98223809D01*
X124795238Y-98176190D01*
X124604761Y-98128571D01*
X124509523Y-98080952D01*
X124461904Y-98033333D01*
X124414285Y-97938095D01*
X124414285Y-97842857D01*
X124461904Y-97747619D01*
X124509523Y-97700000D01*
X124604761Y-97652380D01*
X124842857Y-97652380D01*
X124985714Y-97700000D01*
%TO.C,R51*%
X89757142Y-66002380D02*
X89423809Y-65526190D01*
X89185714Y-66002380D02*
X89185714Y-65002380D01*
X89566666Y-65002380D01*
X89661904Y-65050000D01*
X89709523Y-65097619D01*
X89757142Y-65192857D01*
X89757142Y-65335714D01*
X89709523Y-65430952D01*
X89661904Y-65478571D01*
X89566666Y-65526190D01*
X89185714Y-65526190D01*
X90661904Y-65002380D02*
X90185714Y-65002380D01*
X90138095Y-65478571D01*
X90185714Y-65430952D01*
X90280952Y-65383333D01*
X90519047Y-65383333D01*
X90614285Y-65430952D01*
X90661904Y-65478571D01*
X90709523Y-65573809D01*
X90709523Y-65811904D01*
X90661904Y-65907142D01*
X90614285Y-65954761D01*
X90519047Y-66002380D01*
X90280952Y-66002380D01*
X90185714Y-65954761D01*
X90138095Y-65907142D01*
X91661904Y-66002380D02*
X91090476Y-66002380D01*
X91376190Y-66002380D02*
X91376190Y-65002380D01*
X91280952Y-65145238D01*
X91185714Y-65240476D01*
X91090476Y-65288095D01*
%TO.C,C38*%
X145037142Y-69342857D02*
X145084761Y-69390476D01*
X145132380Y-69533333D01*
X145132380Y-69628571D01*
X145084761Y-69771428D01*
X144989523Y-69866666D01*
X144894285Y-69914285D01*
X144703809Y-69961904D01*
X144560952Y-69961904D01*
X144370476Y-69914285D01*
X144275238Y-69866666D01*
X144180000Y-69771428D01*
X144132380Y-69628571D01*
X144132380Y-69533333D01*
X144180000Y-69390476D01*
X144227619Y-69342857D01*
X144132380Y-69009523D02*
X144132380Y-68390476D01*
X144513333Y-68723809D01*
X144513333Y-68580952D01*
X144560952Y-68485714D01*
X144608571Y-68438095D01*
X144703809Y-68390476D01*
X144941904Y-68390476D01*
X145037142Y-68438095D01*
X145084761Y-68485714D01*
X145132380Y-68580952D01*
X145132380Y-68866666D01*
X145084761Y-68961904D01*
X145037142Y-69009523D01*
X144560952Y-67819047D02*
X144513333Y-67914285D01*
X144465714Y-67961904D01*
X144370476Y-68009523D01*
X144322857Y-68009523D01*
X144227619Y-67961904D01*
X144180000Y-67914285D01*
X144132380Y-67819047D01*
X144132380Y-67628571D01*
X144180000Y-67533333D01*
X144227619Y-67485714D01*
X144322857Y-67438095D01*
X144370476Y-67438095D01*
X144465714Y-67485714D01*
X144513333Y-67533333D01*
X144560952Y-67628571D01*
X144560952Y-67819047D01*
X144608571Y-67914285D01*
X144656190Y-67961904D01*
X144751428Y-68009523D01*
X144941904Y-68009523D01*
X145037142Y-67961904D01*
X145084761Y-67914285D01*
X145132380Y-67819047D01*
X145132380Y-67628571D01*
X145084761Y-67533333D01*
X145037142Y-67485714D01*
X144941904Y-67438095D01*
X144751428Y-67438095D01*
X144656190Y-67485714D01*
X144608571Y-67533333D01*
X144560952Y-67628571D01*
%TO.C,R67*%
X135057142Y-53052380D02*
X134723809Y-52576190D01*
X134485714Y-53052380D02*
X134485714Y-52052380D01*
X134866666Y-52052380D01*
X134961904Y-52100000D01*
X135009523Y-52147619D01*
X135057142Y-52242857D01*
X135057142Y-52385714D01*
X135009523Y-52480952D01*
X134961904Y-52528571D01*
X134866666Y-52576190D01*
X134485714Y-52576190D01*
X135914285Y-52052380D02*
X135723809Y-52052380D01*
X135628571Y-52100000D01*
X135580952Y-52147619D01*
X135485714Y-52290476D01*
X135438095Y-52480952D01*
X135438095Y-52861904D01*
X135485714Y-52957142D01*
X135533333Y-53004761D01*
X135628571Y-53052380D01*
X135819047Y-53052380D01*
X135914285Y-53004761D01*
X135961904Y-52957142D01*
X136009523Y-52861904D01*
X136009523Y-52623809D01*
X135961904Y-52528571D01*
X135914285Y-52480952D01*
X135819047Y-52433333D01*
X135628571Y-52433333D01*
X135533333Y-52480952D01*
X135485714Y-52528571D01*
X135438095Y-52623809D01*
X136342857Y-52052380D02*
X137009523Y-52052380D01*
X136580952Y-53052380D01*
%TO.C,R2*%
X101902380Y-72766666D02*
X101426190Y-73100000D01*
X101902380Y-73338095D02*
X100902380Y-73338095D01*
X100902380Y-72957142D01*
X100950000Y-72861904D01*
X100997619Y-72814285D01*
X101092857Y-72766666D01*
X101235714Y-72766666D01*
X101330952Y-72814285D01*
X101378571Y-72861904D01*
X101426190Y-72957142D01*
X101426190Y-73338095D01*
X100997619Y-72385714D02*
X100950000Y-72338095D01*
X100902380Y-72242857D01*
X100902380Y-72004761D01*
X100950000Y-71909523D01*
X100997619Y-71861904D01*
X101092857Y-71814285D01*
X101188095Y-71814285D01*
X101330952Y-71861904D01*
X101902380Y-72433333D01*
X101902380Y-71814285D01*
%TO.C,TP7*%
X132838095Y-48412380D02*
X133409523Y-48412380D01*
X133123809Y-49412380D02*
X133123809Y-48412380D01*
X133742857Y-49412380D02*
X133742857Y-48412380D01*
X134123809Y-48412380D01*
X134219047Y-48460000D01*
X134266666Y-48507619D01*
X134314285Y-48602857D01*
X134314285Y-48745714D01*
X134266666Y-48840952D01*
X134219047Y-48888571D01*
X134123809Y-48936190D01*
X133742857Y-48936190D01*
X134647619Y-48412380D02*
X135314285Y-48412380D01*
X134885714Y-49412380D01*
%TO.C,R59*%
X152902380Y-65942857D02*
X152426190Y-66276190D01*
X152902380Y-66514285D02*
X151902380Y-66514285D01*
X151902380Y-66133333D01*
X151950000Y-66038095D01*
X151997619Y-65990476D01*
X152092857Y-65942857D01*
X152235714Y-65942857D01*
X152330952Y-65990476D01*
X152378571Y-66038095D01*
X152426190Y-66133333D01*
X152426190Y-66514285D01*
X151902380Y-65038095D02*
X151902380Y-65514285D01*
X152378571Y-65561904D01*
X152330952Y-65514285D01*
X152283333Y-65419047D01*
X152283333Y-65180952D01*
X152330952Y-65085714D01*
X152378571Y-65038095D01*
X152473809Y-64990476D01*
X152711904Y-64990476D01*
X152807142Y-65038095D01*
X152854761Y-65085714D01*
X152902380Y-65180952D01*
X152902380Y-65419047D01*
X152854761Y-65514285D01*
X152807142Y-65561904D01*
X152902380Y-64514285D02*
X152902380Y-64323809D01*
X152854761Y-64228571D01*
X152807142Y-64180952D01*
X152664285Y-64085714D01*
X152473809Y-64038095D01*
X152092857Y-64038095D01*
X151997619Y-64085714D01*
X151950000Y-64133333D01*
X151902380Y-64228571D01*
X151902380Y-64419047D01*
X151950000Y-64514285D01*
X151997619Y-64561904D01*
X152092857Y-64609523D01*
X152330952Y-64609523D01*
X152426190Y-64561904D01*
X152473809Y-64514285D01*
X152521428Y-64419047D01*
X152521428Y-64228571D01*
X152473809Y-64133333D01*
X152426190Y-64085714D01*
X152330952Y-64038095D01*
%TO.C,R32*%
X101902380Y-64442857D02*
X101426190Y-64776190D01*
X101902380Y-65014285D02*
X100902380Y-65014285D01*
X100902380Y-64633333D01*
X100950000Y-64538095D01*
X100997619Y-64490476D01*
X101092857Y-64442857D01*
X101235714Y-64442857D01*
X101330952Y-64490476D01*
X101378571Y-64538095D01*
X101426190Y-64633333D01*
X101426190Y-65014285D01*
X100902380Y-64109523D02*
X100902380Y-63490476D01*
X101283333Y-63823809D01*
X101283333Y-63680952D01*
X101330952Y-63585714D01*
X101378571Y-63538095D01*
X101473809Y-63490476D01*
X101711904Y-63490476D01*
X101807142Y-63538095D01*
X101854761Y-63585714D01*
X101902380Y-63680952D01*
X101902380Y-63966666D01*
X101854761Y-64061904D01*
X101807142Y-64109523D01*
X100997619Y-63109523D02*
X100950000Y-63061904D01*
X100902380Y-62966666D01*
X100902380Y-62728571D01*
X100950000Y-62633333D01*
X100997619Y-62585714D01*
X101092857Y-62538095D01*
X101188095Y-62538095D01*
X101330952Y-62585714D01*
X101902380Y-63157142D01*
X101902380Y-62538095D01*
%TO.C,R14*%
X100652380Y-109242857D02*
X100176190Y-109576190D01*
X100652380Y-109814285D02*
X99652380Y-109814285D01*
X99652380Y-109433333D01*
X99700000Y-109338095D01*
X99747619Y-109290476D01*
X99842857Y-109242857D01*
X99985714Y-109242857D01*
X100080952Y-109290476D01*
X100128571Y-109338095D01*
X100176190Y-109433333D01*
X100176190Y-109814285D01*
X100652380Y-108290476D02*
X100652380Y-108861904D01*
X100652380Y-108576190D02*
X99652380Y-108576190D01*
X99795238Y-108671428D01*
X99890476Y-108766666D01*
X99938095Y-108861904D01*
X99985714Y-107433333D02*
X100652380Y-107433333D01*
X99604761Y-107671428D02*
X100319047Y-107909523D01*
X100319047Y-107290476D01*
%TO.C,R33*%
X87557142Y-61632380D02*
X87223809Y-61156190D01*
X86985714Y-61632380D02*
X86985714Y-60632380D01*
X87366666Y-60632380D01*
X87461904Y-60680000D01*
X87509523Y-60727619D01*
X87557142Y-60822857D01*
X87557142Y-60965714D01*
X87509523Y-61060952D01*
X87461904Y-61108571D01*
X87366666Y-61156190D01*
X86985714Y-61156190D01*
X87890476Y-60632380D02*
X88509523Y-60632380D01*
X88176190Y-61013333D01*
X88319047Y-61013333D01*
X88414285Y-61060952D01*
X88461904Y-61108571D01*
X88509523Y-61203809D01*
X88509523Y-61441904D01*
X88461904Y-61537142D01*
X88414285Y-61584761D01*
X88319047Y-61632380D01*
X88033333Y-61632380D01*
X87938095Y-61584761D01*
X87890476Y-61537142D01*
X88842857Y-60632380D02*
X89461904Y-60632380D01*
X89128571Y-61013333D01*
X89271428Y-61013333D01*
X89366666Y-61060952D01*
X89414285Y-61108571D01*
X89461904Y-61203809D01*
X89461904Y-61441904D01*
X89414285Y-61537142D01*
X89366666Y-61584761D01*
X89271428Y-61632380D01*
X88985714Y-61632380D01*
X88890476Y-61584761D01*
X88842857Y-61537142D01*
%TO.C,J5*%
X143966666Y-140007380D02*
X143966666Y-140721666D01*
X143919047Y-140864523D01*
X143823809Y-140959761D01*
X143680952Y-141007380D01*
X143585714Y-141007380D01*
X144919047Y-140007380D02*
X144442857Y-140007380D01*
X144395238Y-140483571D01*
X144442857Y-140435952D01*
X144538095Y-140388333D01*
X144776190Y-140388333D01*
X144871428Y-140435952D01*
X144919047Y-140483571D01*
X144966666Y-140578809D01*
X144966666Y-140816904D01*
X144919047Y-140912142D01*
X144871428Y-140959761D01*
X144776190Y-141007380D01*
X144538095Y-141007380D01*
X144442857Y-140959761D01*
X144395238Y-140912142D01*
%TO.C,Q7*%
X97547619Y-55095238D02*
X97500000Y-55190476D01*
X97404761Y-55285714D01*
X97261904Y-55428571D01*
X97214285Y-55523809D01*
X97214285Y-55619047D01*
X97452380Y-55571428D02*
X97404761Y-55666666D01*
X97309523Y-55761904D01*
X97119047Y-55809523D01*
X96785714Y-55809523D01*
X96595238Y-55761904D01*
X96500000Y-55666666D01*
X96452380Y-55571428D01*
X96452380Y-55380952D01*
X96500000Y-55285714D01*
X96595238Y-55190476D01*
X96785714Y-55142857D01*
X97119047Y-55142857D01*
X97309523Y-55190476D01*
X97404761Y-55285714D01*
X97452380Y-55380952D01*
X97452380Y-55571428D01*
X96452380Y-54809523D02*
X96452380Y-54142857D01*
X97452380Y-54571428D01*
%TO.C,D3*%
X94061904Y-74802380D02*
X94061904Y-73802380D01*
X94300000Y-73802380D01*
X94442857Y-73850000D01*
X94538095Y-73945238D01*
X94585714Y-74040476D01*
X94633333Y-74230952D01*
X94633333Y-74373809D01*
X94585714Y-74564285D01*
X94538095Y-74659523D01*
X94442857Y-74754761D01*
X94300000Y-74802380D01*
X94061904Y-74802380D01*
X94966666Y-73802380D02*
X95585714Y-73802380D01*
X95252380Y-74183333D01*
X95395238Y-74183333D01*
X95490476Y-74230952D01*
X95538095Y-74278571D01*
X95585714Y-74373809D01*
X95585714Y-74611904D01*
X95538095Y-74707142D01*
X95490476Y-74754761D01*
X95395238Y-74802380D01*
X95109523Y-74802380D01*
X95014285Y-74754761D01*
X94966666Y-74707142D01*
%TO.C,Q14*%
X158582619Y-60111428D02*
X158535000Y-60206666D01*
X158439761Y-60301904D01*
X158296904Y-60444761D01*
X158249285Y-60540000D01*
X158249285Y-60635238D01*
X158487380Y-60587619D02*
X158439761Y-60682857D01*
X158344523Y-60778095D01*
X158154047Y-60825714D01*
X157820714Y-60825714D01*
X157630238Y-60778095D01*
X157535000Y-60682857D01*
X157487380Y-60587619D01*
X157487380Y-60397142D01*
X157535000Y-60301904D01*
X157630238Y-60206666D01*
X157820714Y-60159047D01*
X158154047Y-60159047D01*
X158344523Y-60206666D01*
X158439761Y-60301904D01*
X158487380Y-60397142D01*
X158487380Y-60587619D01*
X158487380Y-59206666D02*
X158487380Y-59778095D01*
X158487380Y-59492380D02*
X157487380Y-59492380D01*
X157630238Y-59587619D01*
X157725476Y-59682857D01*
X157773095Y-59778095D01*
X157820714Y-58349523D02*
X158487380Y-58349523D01*
X157439761Y-58587619D02*
X158154047Y-58825714D01*
X158154047Y-58206666D01*
%TO.C,C4*%
X118277142Y-82366666D02*
X118324761Y-82414285D01*
X118372380Y-82557142D01*
X118372380Y-82652380D01*
X118324761Y-82795238D01*
X118229523Y-82890476D01*
X118134285Y-82938095D01*
X117943809Y-82985714D01*
X117800952Y-82985714D01*
X117610476Y-82938095D01*
X117515238Y-82890476D01*
X117420000Y-82795238D01*
X117372380Y-82652380D01*
X117372380Y-82557142D01*
X117420000Y-82414285D01*
X117467619Y-82366666D01*
X117705714Y-81509523D02*
X118372380Y-81509523D01*
X117324761Y-81747619D02*
X118039047Y-81985714D01*
X118039047Y-81366666D01*
%TO.C,C24*%
X163457142Y-116957142D02*
X163409523Y-117004761D01*
X163266666Y-117052380D01*
X163171428Y-117052380D01*
X163028571Y-117004761D01*
X162933333Y-116909523D01*
X162885714Y-116814285D01*
X162838095Y-116623809D01*
X162838095Y-116480952D01*
X162885714Y-116290476D01*
X162933333Y-116195238D01*
X163028571Y-116100000D01*
X163171428Y-116052380D01*
X163266666Y-116052380D01*
X163409523Y-116100000D01*
X163457142Y-116147619D01*
X163838095Y-116147619D02*
X163885714Y-116100000D01*
X163980952Y-116052380D01*
X164219047Y-116052380D01*
X164314285Y-116100000D01*
X164361904Y-116147619D01*
X164409523Y-116242857D01*
X164409523Y-116338095D01*
X164361904Y-116480952D01*
X163790476Y-117052380D01*
X164409523Y-117052380D01*
X165266666Y-116385714D02*
X165266666Y-117052380D01*
X165028571Y-116004761D02*
X164790476Y-116719047D01*
X165409523Y-116719047D01*
%TO.C,Q12*%
X98347619Y-122371428D02*
X98300000Y-122466666D01*
X98204761Y-122561904D01*
X98061904Y-122704761D01*
X98014285Y-122800000D01*
X98014285Y-122895238D01*
X98252380Y-122847619D02*
X98204761Y-122942857D01*
X98109523Y-123038095D01*
X97919047Y-123085714D01*
X97585714Y-123085714D01*
X97395238Y-123038095D01*
X97300000Y-122942857D01*
X97252380Y-122847619D01*
X97252380Y-122657142D01*
X97300000Y-122561904D01*
X97395238Y-122466666D01*
X97585714Y-122419047D01*
X97919047Y-122419047D01*
X98109523Y-122466666D01*
X98204761Y-122561904D01*
X98252380Y-122657142D01*
X98252380Y-122847619D01*
X98252380Y-121466666D02*
X98252380Y-122038095D01*
X98252380Y-121752380D02*
X97252380Y-121752380D01*
X97395238Y-121847619D01*
X97490476Y-121942857D01*
X97538095Y-122038095D01*
X97347619Y-121085714D02*
X97300000Y-121038095D01*
X97252380Y-120942857D01*
X97252380Y-120704761D01*
X97300000Y-120609523D01*
X97347619Y-120561904D01*
X97442857Y-120514285D01*
X97538095Y-120514285D01*
X97680952Y-120561904D01*
X98252380Y-121133333D01*
X98252380Y-120514285D01*
%TO.C,U4*%
X161438095Y-106852380D02*
X161438095Y-107661904D01*
X161485714Y-107757142D01*
X161533333Y-107804761D01*
X161628571Y-107852380D01*
X161819047Y-107852380D01*
X161914285Y-107804761D01*
X161961904Y-107757142D01*
X162009523Y-107661904D01*
X162009523Y-106852380D01*
X162914285Y-107185714D02*
X162914285Y-107852380D01*
X162676190Y-106804761D02*
X162438095Y-107519047D01*
X163057142Y-107519047D01*
%TO.C,Q5*%
X98347619Y-105495238D02*
X98300000Y-105590476D01*
X98204761Y-105685714D01*
X98061904Y-105828571D01*
X98014285Y-105923809D01*
X98014285Y-106019047D01*
X98252380Y-105971428D02*
X98204761Y-106066666D01*
X98109523Y-106161904D01*
X97919047Y-106209523D01*
X97585714Y-106209523D01*
X97395238Y-106161904D01*
X97300000Y-106066666D01*
X97252380Y-105971428D01*
X97252380Y-105780952D01*
X97300000Y-105685714D01*
X97395238Y-105590476D01*
X97585714Y-105542857D01*
X97919047Y-105542857D01*
X98109523Y-105590476D01*
X98204761Y-105685714D01*
X98252380Y-105780952D01*
X98252380Y-105971428D01*
X97252380Y-104638095D02*
X97252380Y-105114285D01*
X97728571Y-105161904D01*
X97680952Y-105114285D01*
X97633333Y-105019047D01*
X97633333Y-104780952D01*
X97680952Y-104685714D01*
X97728571Y-104638095D01*
X97823809Y-104590476D01*
X98061904Y-104590476D01*
X98157142Y-104638095D01*
X98204761Y-104685714D01*
X98252380Y-104780952D01*
X98252380Y-105019047D01*
X98204761Y-105114285D01*
X98157142Y-105161904D01*
%TO.C,R9*%
X88433333Y-87032380D02*
X88100000Y-86556190D01*
X87861904Y-87032380D02*
X87861904Y-86032380D01*
X88242857Y-86032380D01*
X88338095Y-86080000D01*
X88385714Y-86127619D01*
X88433333Y-86222857D01*
X88433333Y-86365714D01*
X88385714Y-86460952D01*
X88338095Y-86508571D01*
X88242857Y-86556190D01*
X87861904Y-86556190D01*
X88909523Y-87032380D02*
X89100000Y-87032380D01*
X89195238Y-86984761D01*
X89242857Y-86937142D01*
X89338095Y-86794285D01*
X89385714Y-86603809D01*
X89385714Y-86222857D01*
X89338095Y-86127619D01*
X89290476Y-86080000D01*
X89195238Y-86032380D01*
X89004761Y-86032380D01*
X88909523Y-86080000D01*
X88861904Y-86127619D01*
X88814285Y-86222857D01*
X88814285Y-86460952D01*
X88861904Y-86556190D01*
X88909523Y-86603809D01*
X89004761Y-86651428D01*
X89195238Y-86651428D01*
X89290476Y-86603809D01*
X89338095Y-86556190D01*
X89385714Y-86460952D01*
%TO.C,C20*%
X133757142Y-86477142D02*
X133709523Y-86524761D01*
X133566666Y-86572380D01*
X133471428Y-86572380D01*
X133328571Y-86524761D01*
X133233333Y-86429523D01*
X133185714Y-86334285D01*
X133138095Y-86143809D01*
X133138095Y-86000952D01*
X133185714Y-85810476D01*
X133233333Y-85715238D01*
X133328571Y-85620000D01*
X133471428Y-85572380D01*
X133566666Y-85572380D01*
X133709523Y-85620000D01*
X133757142Y-85667619D01*
X134138095Y-85667619D02*
X134185714Y-85620000D01*
X134280952Y-85572380D01*
X134519047Y-85572380D01*
X134614285Y-85620000D01*
X134661904Y-85667619D01*
X134709523Y-85762857D01*
X134709523Y-85858095D01*
X134661904Y-86000952D01*
X134090476Y-86572380D01*
X134709523Y-86572380D01*
X135328571Y-85572380D02*
X135423809Y-85572380D01*
X135519047Y-85620000D01*
X135566666Y-85667619D01*
X135614285Y-85762857D01*
X135661904Y-85953333D01*
X135661904Y-86191428D01*
X135614285Y-86381904D01*
X135566666Y-86477142D01*
X135519047Y-86524761D01*
X135423809Y-86572380D01*
X135328571Y-86572380D01*
X135233333Y-86524761D01*
X135185714Y-86477142D01*
X135138095Y-86381904D01*
X135090476Y-86191428D01*
X135090476Y-85953333D01*
X135138095Y-85762857D01*
X135185714Y-85667619D01*
X135233333Y-85620000D01*
X135328571Y-85572380D01*
%TO.C,C13*%
X141157142Y-85437142D02*
X141109523Y-85484761D01*
X140966666Y-85532380D01*
X140871428Y-85532380D01*
X140728571Y-85484761D01*
X140633333Y-85389523D01*
X140585714Y-85294285D01*
X140538095Y-85103809D01*
X140538095Y-84960952D01*
X140585714Y-84770476D01*
X140633333Y-84675238D01*
X140728571Y-84580000D01*
X140871428Y-84532380D01*
X140966666Y-84532380D01*
X141109523Y-84580000D01*
X141157142Y-84627619D01*
X142109523Y-85532380D02*
X141538095Y-85532380D01*
X141823809Y-85532380D02*
X141823809Y-84532380D01*
X141728571Y-84675238D01*
X141633333Y-84770476D01*
X141538095Y-84818095D01*
X142442857Y-84532380D02*
X143061904Y-84532380D01*
X142728571Y-84913333D01*
X142871428Y-84913333D01*
X142966666Y-84960952D01*
X143014285Y-85008571D01*
X143061904Y-85103809D01*
X143061904Y-85341904D01*
X143014285Y-85437142D01*
X142966666Y-85484761D01*
X142871428Y-85532380D01*
X142585714Y-85532380D01*
X142490476Y-85484761D01*
X142442857Y-85437142D01*
%TO.C,R65*%
X147257142Y-138302380D02*
X146923809Y-137826190D01*
X146685714Y-138302380D02*
X146685714Y-137302380D01*
X147066666Y-137302380D01*
X147161904Y-137350000D01*
X147209523Y-137397619D01*
X147257142Y-137492857D01*
X147257142Y-137635714D01*
X147209523Y-137730952D01*
X147161904Y-137778571D01*
X147066666Y-137826190D01*
X146685714Y-137826190D01*
X148114285Y-137302380D02*
X147923809Y-137302380D01*
X147828571Y-137350000D01*
X147780952Y-137397619D01*
X147685714Y-137540476D01*
X147638095Y-137730952D01*
X147638095Y-138111904D01*
X147685714Y-138207142D01*
X147733333Y-138254761D01*
X147828571Y-138302380D01*
X148019047Y-138302380D01*
X148114285Y-138254761D01*
X148161904Y-138207142D01*
X148209523Y-138111904D01*
X148209523Y-137873809D01*
X148161904Y-137778571D01*
X148114285Y-137730952D01*
X148019047Y-137683333D01*
X147828571Y-137683333D01*
X147733333Y-137730952D01*
X147685714Y-137778571D01*
X147638095Y-137873809D01*
X149114285Y-137302380D02*
X148638095Y-137302380D01*
X148590476Y-137778571D01*
X148638095Y-137730952D01*
X148733333Y-137683333D01*
X148971428Y-137683333D01*
X149066666Y-137730952D01*
X149114285Y-137778571D01*
X149161904Y-137873809D01*
X149161904Y-138111904D01*
X149114285Y-138207142D01*
X149066666Y-138254761D01*
X148971428Y-138302380D01*
X148733333Y-138302380D01*
X148638095Y-138254761D01*
X148590476Y-138207142D01*
%TO.C,R27*%
X85957142Y-139852380D02*
X85623809Y-139376190D01*
X85385714Y-139852380D02*
X85385714Y-138852380D01*
X85766666Y-138852380D01*
X85861904Y-138900000D01*
X85909523Y-138947619D01*
X85957142Y-139042857D01*
X85957142Y-139185714D01*
X85909523Y-139280952D01*
X85861904Y-139328571D01*
X85766666Y-139376190D01*
X85385714Y-139376190D01*
X86338095Y-138947619D02*
X86385714Y-138900000D01*
X86480952Y-138852380D01*
X86719047Y-138852380D01*
X86814285Y-138900000D01*
X86861904Y-138947619D01*
X86909523Y-139042857D01*
X86909523Y-139138095D01*
X86861904Y-139280952D01*
X86290476Y-139852380D01*
X86909523Y-139852380D01*
X87242857Y-138852380D02*
X87909523Y-138852380D01*
X87480952Y-139852380D01*
%TO.C,D15*%
X132090714Y-71802380D02*
X132090714Y-70802380D01*
X132328809Y-70802380D01*
X132471666Y-70850000D01*
X132566904Y-70945238D01*
X132614523Y-71040476D01*
X132662142Y-71230952D01*
X132662142Y-71373809D01*
X132614523Y-71564285D01*
X132566904Y-71659523D01*
X132471666Y-71754761D01*
X132328809Y-71802380D01*
X132090714Y-71802380D01*
X133614523Y-71802380D02*
X133043095Y-71802380D01*
X133328809Y-71802380D02*
X133328809Y-70802380D01*
X133233571Y-70945238D01*
X133138333Y-71040476D01*
X133043095Y-71088095D01*
X134519285Y-70802380D02*
X134043095Y-70802380D01*
X133995476Y-71278571D01*
X134043095Y-71230952D01*
X134138333Y-71183333D01*
X134376428Y-71183333D01*
X134471666Y-71230952D01*
X134519285Y-71278571D01*
X134566904Y-71373809D01*
X134566904Y-71611904D01*
X134519285Y-71707142D01*
X134471666Y-71754761D01*
X134376428Y-71802380D01*
X134138333Y-71802380D01*
X134043095Y-71754761D01*
X133995476Y-71707142D01*
%TO.C,C22*%
X163756301Y-92546662D02*
X163708682Y-92594281D01*
X163565825Y-92641900D01*
X163470587Y-92641900D01*
X163327730Y-92594281D01*
X163232492Y-92499043D01*
X163184873Y-92403805D01*
X163137254Y-92213329D01*
X163137254Y-92070472D01*
X163184873Y-91879996D01*
X163232492Y-91784758D01*
X163327730Y-91689520D01*
X163470587Y-91641900D01*
X163565825Y-91641900D01*
X163708682Y-91689520D01*
X163756301Y-91737139D01*
X164137254Y-91737139D02*
X164184873Y-91689520D01*
X164280111Y-91641900D01*
X164518206Y-91641900D01*
X164613444Y-91689520D01*
X164661063Y-91737139D01*
X164708682Y-91832377D01*
X164708682Y-91927615D01*
X164661063Y-92070472D01*
X164089635Y-92641900D01*
X164708682Y-92641900D01*
X165089635Y-91737139D02*
X165137254Y-91689520D01*
X165232492Y-91641900D01*
X165470587Y-91641900D01*
X165565825Y-91689520D01*
X165613444Y-91737139D01*
X165661063Y-91832377D01*
X165661063Y-91927615D01*
X165613444Y-92070472D01*
X165042016Y-92641900D01*
X165661063Y-92641900D01*
%TO.C,C35*%
X125462142Y-72992857D02*
X125509761Y-73040476D01*
X125557380Y-73183333D01*
X125557380Y-73278571D01*
X125509761Y-73421428D01*
X125414523Y-73516666D01*
X125319285Y-73564285D01*
X125128809Y-73611904D01*
X124985952Y-73611904D01*
X124795476Y-73564285D01*
X124700238Y-73516666D01*
X124605000Y-73421428D01*
X124557380Y-73278571D01*
X124557380Y-73183333D01*
X124605000Y-73040476D01*
X124652619Y-72992857D01*
X124557380Y-72659523D02*
X124557380Y-72040476D01*
X124938333Y-72373809D01*
X124938333Y-72230952D01*
X124985952Y-72135714D01*
X125033571Y-72088095D01*
X125128809Y-72040476D01*
X125366904Y-72040476D01*
X125462142Y-72088095D01*
X125509761Y-72135714D01*
X125557380Y-72230952D01*
X125557380Y-72516666D01*
X125509761Y-72611904D01*
X125462142Y-72659523D01*
X124557380Y-71135714D02*
X124557380Y-71611904D01*
X125033571Y-71659523D01*
X124985952Y-71611904D01*
X124938333Y-71516666D01*
X124938333Y-71278571D01*
X124985952Y-71183333D01*
X125033571Y-71135714D01*
X125128809Y-71088095D01*
X125366904Y-71088095D01*
X125462142Y-71135714D01*
X125509761Y-71183333D01*
X125557380Y-71278571D01*
X125557380Y-71516666D01*
X125509761Y-71611904D01*
X125462142Y-71659523D01*
%TO.C,R8*%
X102302380Y-89254166D02*
X101826190Y-89587500D01*
X102302380Y-89825595D02*
X101302380Y-89825595D01*
X101302380Y-89444642D01*
X101350000Y-89349404D01*
X101397619Y-89301785D01*
X101492857Y-89254166D01*
X101635714Y-89254166D01*
X101730952Y-89301785D01*
X101778571Y-89349404D01*
X101826190Y-89444642D01*
X101826190Y-89825595D01*
X101730952Y-88682738D02*
X101683333Y-88777976D01*
X101635714Y-88825595D01*
X101540476Y-88873214D01*
X101492857Y-88873214D01*
X101397619Y-88825595D01*
X101350000Y-88777976D01*
X101302380Y-88682738D01*
X101302380Y-88492261D01*
X101350000Y-88397023D01*
X101397619Y-88349404D01*
X101492857Y-88301785D01*
X101540476Y-88301785D01*
X101635714Y-88349404D01*
X101683333Y-88397023D01*
X101730952Y-88492261D01*
X101730952Y-88682738D01*
X101778571Y-88777976D01*
X101826190Y-88825595D01*
X101921428Y-88873214D01*
X102111904Y-88873214D01*
X102207142Y-88825595D01*
X102254761Y-88777976D01*
X102302380Y-88682738D01*
X102302380Y-88492261D01*
X102254761Y-88397023D01*
X102207142Y-88349404D01*
X102111904Y-88301785D01*
X101921428Y-88301785D01*
X101826190Y-88349404D01*
X101778571Y-88397023D01*
X101730952Y-88492261D01*
%TO.C,D1*%
X121802380Y-144138095D02*
X120802380Y-144138095D01*
X120802380Y-143900000D01*
X120850000Y-143757142D01*
X120945238Y-143661904D01*
X121040476Y-143614285D01*
X121230952Y-143566666D01*
X121373809Y-143566666D01*
X121564285Y-143614285D01*
X121659523Y-143661904D01*
X121754761Y-143757142D01*
X121802380Y-143900000D01*
X121802380Y-144138095D01*
X121802380Y-142614285D02*
X121802380Y-143185714D01*
X121802380Y-142900000D02*
X120802380Y-142900000D01*
X120945238Y-142995238D01*
X121040476Y-143090476D01*
X121088095Y-143185714D01*
%TO.C,R5*%
X102302380Y-80966666D02*
X101826190Y-81300000D01*
X102302380Y-81538095D02*
X101302380Y-81538095D01*
X101302380Y-81157142D01*
X101350000Y-81061904D01*
X101397619Y-81014285D01*
X101492857Y-80966666D01*
X101635714Y-80966666D01*
X101730952Y-81014285D01*
X101778571Y-81061904D01*
X101826190Y-81157142D01*
X101826190Y-81538095D01*
X101302380Y-80061904D02*
X101302380Y-80538095D01*
X101778571Y-80585714D01*
X101730952Y-80538095D01*
X101683333Y-80442857D01*
X101683333Y-80204761D01*
X101730952Y-80109523D01*
X101778571Y-80061904D01*
X101873809Y-80014285D01*
X102111904Y-80014285D01*
X102207142Y-80061904D01*
X102254761Y-80109523D01*
X102302380Y-80204761D01*
X102302380Y-80442857D01*
X102254761Y-80538095D01*
X102207142Y-80585714D01*
%TO.C,R15*%
X87957142Y-103232380D02*
X87623809Y-102756190D01*
X87385714Y-103232380D02*
X87385714Y-102232380D01*
X87766666Y-102232380D01*
X87861904Y-102280000D01*
X87909523Y-102327619D01*
X87957142Y-102422857D01*
X87957142Y-102565714D01*
X87909523Y-102660952D01*
X87861904Y-102708571D01*
X87766666Y-102756190D01*
X87385714Y-102756190D01*
X88909523Y-103232380D02*
X88338095Y-103232380D01*
X88623809Y-103232380D02*
X88623809Y-102232380D01*
X88528571Y-102375238D01*
X88433333Y-102470476D01*
X88338095Y-102518095D01*
X89814285Y-102232380D02*
X89338095Y-102232380D01*
X89290476Y-102708571D01*
X89338095Y-102660952D01*
X89433333Y-102613333D01*
X89671428Y-102613333D01*
X89766666Y-102660952D01*
X89814285Y-102708571D01*
X89861904Y-102803809D01*
X89861904Y-103041904D01*
X89814285Y-103137142D01*
X89766666Y-103184761D01*
X89671428Y-103232380D01*
X89433333Y-103232380D01*
X89338095Y-103184761D01*
X89290476Y-103137142D01*
%TO.C,R41*%
X89957142Y-74802380D02*
X89623809Y-74326190D01*
X89385714Y-74802380D02*
X89385714Y-73802380D01*
X89766666Y-73802380D01*
X89861904Y-73850000D01*
X89909523Y-73897619D01*
X89957142Y-73992857D01*
X89957142Y-74135714D01*
X89909523Y-74230952D01*
X89861904Y-74278571D01*
X89766666Y-74326190D01*
X89385714Y-74326190D01*
X90814285Y-74135714D02*
X90814285Y-74802380D01*
X90576190Y-73754761D02*
X90338095Y-74469047D01*
X90957142Y-74469047D01*
X91861904Y-74802380D02*
X91290476Y-74802380D01*
X91576190Y-74802380D02*
X91576190Y-73802380D01*
X91480952Y-73945238D01*
X91385714Y-74040476D01*
X91290476Y-74088095D01*
%TO.C,R49*%
X90357142Y-138602380D02*
X90023809Y-138126190D01*
X89785714Y-138602380D02*
X89785714Y-137602380D01*
X90166666Y-137602380D01*
X90261904Y-137650000D01*
X90309523Y-137697619D01*
X90357142Y-137792857D01*
X90357142Y-137935714D01*
X90309523Y-138030952D01*
X90261904Y-138078571D01*
X90166666Y-138126190D01*
X89785714Y-138126190D01*
X91214285Y-137935714D02*
X91214285Y-138602380D01*
X90976190Y-137554761D02*
X90738095Y-138269047D01*
X91357142Y-138269047D01*
X91785714Y-138602380D02*
X91976190Y-138602380D01*
X92071428Y-138554761D01*
X92119047Y-138507142D01*
X92214285Y-138364285D01*
X92261904Y-138173809D01*
X92261904Y-137792857D01*
X92214285Y-137697619D01*
X92166666Y-137650000D01*
X92071428Y-137602380D01*
X91880952Y-137602380D01*
X91785714Y-137650000D01*
X91738095Y-137697619D01*
X91690476Y-137792857D01*
X91690476Y-138030952D01*
X91738095Y-138126190D01*
X91785714Y-138173809D01*
X91880952Y-138221428D01*
X92071428Y-138221428D01*
X92166666Y-138173809D01*
X92214285Y-138126190D01*
X92261904Y-138030952D01*
%TO.C,R30*%
X86157142Y-147652380D02*
X85823809Y-147176190D01*
X85585714Y-147652380D02*
X85585714Y-146652380D01*
X85966666Y-146652380D01*
X86061904Y-146700000D01*
X86109523Y-146747619D01*
X86157142Y-146842857D01*
X86157142Y-146985714D01*
X86109523Y-147080952D01*
X86061904Y-147128571D01*
X85966666Y-147176190D01*
X85585714Y-147176190D01*
X86490476Y-146652380D02*
X87109523Y-146652380D01*
X86776190Y-147033333D01*
X86919047Y-147033333D01*
X87014285Y-147080952D01*
X87061904Y-147128571D01*
X87109523Y-147223809D01*
X87109523Y-147461904D01*
X87061904Y-147557142D01*
X87014285Y-147604761D01*
X86919047Y-147652380D01*
X86633333Y-147652380D01*
X86538095Y-147604761D01*
X86490476Y-147557142D01*
X87728571Y-146652380D02*
X87823809Y-146652380D01*
X87919047Y-146700000D01*
X87966666Y-146747619D01*
X88014285Y-146842857D01*
X88061904Y-147033333D01*
X88061904Y-147271428D01*
X88014285Y-147461904D01*
X87966666Y-147557142D01*
X87919047Y-147604761D01*
X87823809Y-147652380D01*
X87728571Y-147652380D01*
X87633333Y-147604761D01*
X87585714Y-147557142D01*
X87538095Y-147461904D01*
X87490476Y-147271428D01*
X87490476Y-147033333D01*
X87538095Y-146842857D01*
X87585714Y-146747619D01*
X87633333Y-146700000D01*
X87728571Y-146652380D01*
%TO.C,R58*%
X123062142Y-77452380D02*
X122728809Y-76976190D01*
X122490714Y-77452380D02*
X122490714Y-76452380D01*
X122871666Y-76452380D01*
X122966904Y-76500000D01*
X123014523Y-76547619D01*
X123062142Y-76642857D01*
X123062142Y-76785714D01*
X123014523Y-76880952D01*
X122966904Y-76928571D01*
X122871666Y-76976190D01*
X122490714Y-76976190D01*
X123966904Y-76452380D02*
X123490714Y-76452380D01*
X123443095Y-76928571D01*
X123490714Y-76880952D01*
X123585952Y-76833333D01*
X123824047Y-76833333D01*
X123919285Y-76880952D01*
X123966904Y-76928571D01*
X124014523Y-77023809D01*
X124014523Y-77261904D01*
X123966904Y-77357142D01*
X123919285Y-77404761D01*
X123824047Y-77452380D01*
X123585952Y-77452380D01*
X123490714Y-77404761D01*
X123443095Y-77357142D01*
X124585952Y-76880952D02*
X124490714Y-76833333D01*
X124443095Y-76785714D01*
X124395476Y-76690476D01*
X124395476Y-76642857D01*
X124443095Y-76547619D01*
X124490714Y-76500000D01*
X124585952Y-76452380D01*
X124776428Y-76452380D01*
X124871666Y-76500000D01*
X124919285Y-76547619D01*
X124966904Y-76642857D01*
X124966904Y-76690476D01*
X124919285Y-76785714D01*
X124871666Y-76833333D01*
X124776428Y-76880952D01*
X124585952Y-76880952D01*
X124490714Y-76928571D01*
X124443095Y-76976190D01*
X124395476Y-77071428D01*
X124395476Y-77261904D01*
X124443095Y-77357142D01*
X124490714Y-77404761D01*
X124585952Y-77452380D01*
X124776428Y-77452380D01*
X124871666Y-77404761D01*
X124919285Y-77357142D01*
X124966904Y-77261904D01*
X124966904Y-77071428D01*
X124919285Y-76976190D01*
X124871666Y-76928571D01*
X124776428Y-76880952D01*
%TO.C,R18*%
X87957142Y-111232380D02*
X87623809Y-110756190D01*
X87385714Y-111232380D02*
X87385714Y-110232380D01*
X87766666Y-110232380D01*
X87861904Y-110280000D01*
X87909523Y-110327619D01*
X87957142Y-110422857D01*
X87957142Y-110565714D01*
X87909523Y-110660952D01*
X87861904Y-110708571D01*
X87766666Y-110756190D01*
X87385714Y-110756190D01*
X88909523Y-111232380D02*
X88338095Y-111232380D01*
X88623809Y-111232380D02*
X88623809Y-110232380D01*
X88528571Y-110375238D01*
X88433333Y-110470476D01*
X88338095Y-110518095D01*
X89480952Y-110660952D02*
X89385714Y-110613333D01*
X89338095Y-110565714D01*
X89290476Y-110470476D01*
X89290476Y-110422857D01*
X89338095Y-110327619D01*
X89385714Y-110280000D01*
X89480952Y-110232380D01*
X89671428Y-110232380D01*
X89766666Y-110280000D01*
X89814285Y-110327619D01*
X89861904Y-110422857D01*
X89861904Y-110470476D01*
X89814285Y-110565714D01*
X89766666Y-110613333D01*
X89671428Y-110660952D01*
X89480952Y-110660952D01*
X89385714Y-110708571D01*
X89338095Y-110756190D01*
X89290476Y-110851428D01*
X89290476Y-111041904D01*
X89338095Y-111137142D01*
X89385714Y-111184761D01*
X89480952Y-111232380D01*
X89671428Y-111232380D01*
X89766666Y-111184761D01*
X89814285Y-111137142D01*
X89861904Y-111041904D01*
X89861904Y-110851428D01*
X89814285Y-110756190D01*
X89766666Y-110708571D01*
X89671428Y-110660952D01*
%TO.C,Q11*%
X98010119Y-64421428D02*
X97962500Y-64516666D01*
X97867261Y-64611904D01*
X97724404Y-64754761D01*
X97676785Y-64850000D01*
X97676785Y-64945238D01*
X97914880Y-64897619D02*
X97867261Y-64992857D01*
X97772023Y-65088095D01*
X97581547Y-65135714D01*
X97248214Y-65135714D01*
X97057738Y-65088095D01*
X96962500Y-64992857D01*
X96914880Y-64897619D01*
X96914880Y-64707142D01*
X96962500Y-64611904D01*
X97057738Y-64516666D01*
X97248214Y-64469047D01*
X97581547Y-64469047D01*
X97772023Y-64516666D01*
X97867261Y-64611904D01*
X97914880Y-64707142D01*
X97914880Y-64897619D01*
X97914880Y-63516666D02*
X97914880Y-64088095D01*
X97914880Y-63802380D02*
X96914880Y-63802380D01*
X97057738Y-63897619D01*
X97152976Y-63992857D01*
X97200595Y-64088095D01*
X97914880Y-62564285D02*
X97914880Y-63135714D01*
X97914880Y-62850000D02*
X96914880Y-62850000D01*
X97057738Y-62945238D01*
X97152976Y-63040476D01*
X97200595Y-63135714D01*
%TO.C,U8*%
X149652380Y-70624404D02*
X150461904Y-70624404D01*
X150557142Y-70576785D01*
X150604761Y-70529166D01*
X150652380Y-70433928D01*
X150652380Y-70243452D01*
X150604761Y-70148214D01*
X150557142Y-70100595D01*
X150461904Y-70052976D01*
X149652380Y-70052976D01*
X150080952Y-69433928D02*
X150033333Y-69529166D01*
X149985714Y-69576785D01*
X149890476Y-69624404D01*
X149842857Y-69624404D01*
X149747619Y-69576785D01*
X149700000Y-69529166D01*
X149652380Y-69433928D01*
X149652380Y-69243452D01*
X149700000Y-69148214D01*
X149747619Y-69100595D01*
X149842857Y-69052976D01*
X149890476Y-69052976D01*
X149985714Y-69100595D01*
X150033333Y-69148214D01*
X150080952Y-69243452D01*
X150080952Y-69433928D01*
X150128571Y-69529166D01*
X150176190Y-69576785D01*
X150271428Y-69624404D01*
X150461904Y-69624404D01*
X150557142Y-69576785D01*
X150604761Y-69529166D01*
X150652380Y-69433928D01*
X150652380Y-69243452D01*
X150604761Y-69148214D01*
X150557142Y-69100595D01*
X150461904Y-69052976D01*
X150271428Y-69052976D01*
X150176190Y-69100595D01*
X150128571Y-69148214D01*
X150080952Y-69243452D01*
%TO.C,D17*%
X135902380Y-66314285D02*
X134902380Y-66314285D01*
X134902380Y-66076190D01*
X134950000Y-65933333D01*
X135045238Y-65838095D01*
X135140476Y-65790476D01*
X135330952Y-65742857D01*
X135473809Y-65742857D01*
X135664285Y-65790476D01*
X135759523Y-65838095D01*
X135854761Y-65933333D01*
X135902380Y-66076190D01*
X135902380Y-66314285D01*
X135902380Y-64790476D02*
X135902380Y-65361904D01*
X135902380Y-65076190D02*
X134902380Y-65076190D01*
X135045238Y-65171428D01*
X135140476Y-65266666D01*
X135188095Y-65361904D01*
X134902380Y-64457142D02*
X134902380Y-63790476D01*
X135902380Y-64219047D01*
%TO.C,TP3*%
X123114285Y-105004761D02*
X123257142Y-105052380D01*
X123495238Y-105052380D01*
X123590476Y-105004761D01*
X123638095Y-104957142D01*
X123685714Y-104861904D01*
X123685714Y-104766666D01*
X123638095Y-104671428D01*
X123590476Y-104623809D01*
X123495238Y-104576190D01*
X123304761Y-104528571D01*
X123209523Y-104480952D01*
X123161904Y-104433333D01*
X123114285Y-104338095D01*
X123114285Y-104242857D01*
X123161904Y-104147619D01*
X123209523Y-104100000D01*
X123304761Y-104052380D01*
X123542857Y-104052380D01*
X123685714Y-104100000D01*
X124685714Y-104957142D02*
X124638095Y-105004761D01*
X124495238Y-105052380D01*
X124400000Y-105052380D01*
X124257142Y-105004761D01*
X124161904Y-104909523D01*
X124114285Y-104814285D01*
X124066666Y-104623809D01*
X124066666Y-104480952D01*
X124114285Y-104290476D01*
X124161904Y-104195238D01*
X124257142Y-104100000D01*
X124400000Y-104052380D01*
X124495238Y-104052380D01*
X124638095Y-104100000D01*
X124685714Y-104147619D01*
X125114285Y-105052380D02*
X125114285Y-104052380D01*
X125685714Y-105052380D02*
X125257142Y-104480952D01*
X125685714Y-104052380D02*
X125114285Y-104623809D01*
%TO.C,C9*%
X110157142Y-112616666D02*
X110204761Y-112664285D01*
X110252380Y-112807142D01*
X110252380Y-112902380D01*
X110204761Y-113045238D01*
X110109523Y-113140476D01*
X110014285Y-113188095D01*
X109823809Y-113235714D01*
X109680952Y-113235714D01*
X109490476Y-113188095D01*
X109395238Y-113140476D01*
X109300000Y-113045238D01*
X109252380Y-112902380D01*
X109252380Y-112807142D01*
X109300000Y-112664285D01*
X109347619Y-112616666D01*
X110252380Y-112140476D02*
X110252380Y-111950000D01*
X110204761Y-111854761D01*
X110157142Y-111807142D01*
X110014285Y-111711904D01*
X109823809Y-111664285D01*
X109442857Y-111664285D01*
X109347619Y-111711904D01*
X109300000Y-111759523D01*
X109252380Y-111854761D01*
X109252380Y-112045238D01*
X109300000Y-112140476D01*
X109347619Y-112188095D01*
X109442857Y-112235714D01*
X109680952Y-112235714D01*
X109776190Y-112188095D01*
X109823809Y-112140476D01*
X109871428Y-112045238D01*
X109871428Y-111854761D01*
X109823809Y-111759523D01*
X109776190Y-111711904D01*
X109680952Y-111664285D01*
%TO.C,TP10*%
X157361904Y-48577380D02*
X157933333Y-48577380D01*
X157647619Y-49577380D02*
X157647619Y-48577380D01*
X158266666Y-49577380D02*
X158266666Y-48577380D01*
X158647619Y-48577380D01*
X158742857Y-48625000D01*
X158790476Y-48672619D01*
X158838095Y-48767857D01*
X158838095Y-48910714D01*
X158790476Y-49005952D01*
X158742857Y-49053571D01*
X158647619Y-49101190D01*
X158266666Y-49101190D01*
X159790476Y-49577380D02*
X159219047Y-49577380D01*
X159504761Y-49577380D02*
X159504761Y-48577380D01*
X159409523Y-48720238D01*
X159314285Y-48815476D01*
X159219047Y-48863095D01*
X160409523Y-48577380D02*
X160504761Y-48577380D01*
X160600000Y-48625000D01*
X160647619Y-48672619D01*
X160695238Y-48767857D01*
X160742857Y-48958333D01*
X160742857Y-49196428D01*
X160695238Y-49386904D01*
X160647619Y-49482142D01*
X160600000Y-49529761D01*
X160504761Y-49577380D01*
X160409523Y-49577380D01*
X160314285Y-49529761D01*
X160266666Y-49482142D01*
X160219047Y-49386904D01*
X160171428Y-49196428D01*
X160171428Y-48958333D01*
X160219047Y-48767857D01*
X160266666Y-48672619D01*
X160314285Y-48625000D01*
X160409523Y-48577380D01*
%TO.C,C8*%
X111957142Y-112016666D02*
X112004761Y-112064285D01*
X112052380Y-112207142D01*
X112052380Y-112302380D01*
X112004761Y-112445238D01*
X111909523Y-112540476D01*
X111814285Y-112588095D01*
X111623809Y-112635714D01*
X111480952Y-112635714D01*
X111290476Y-112588095D01*
X111195238Y-112540476D01*
X111100000Y-112445238D01*
X111052380Y-112302380D01*
X111052380Y-112207142D01*
X111100000Y-112064285D01*
X111147619Y-112016666D01*
X111480952Y-111445238D02*
X111433333Y-111540476D01*
X111385714Y-111588095D01*
X111290476Y-111635714D01*
X111242857Y-111635714D01*
X111147619Y-111588095D01*
X111100000Y-111540476D01*
X111052380Y-111445238D01*
X111052380Y-111254761D01*
X111100000Y-111159523D01*
X111147619Y-111111904D01*
X111242857Y-111064285D01*
X111290476Y-111064285D01*
X111385714Y-111111904D01*
X111433333Y-111159523D01*
X111480952Y-111254761D01*
X111480952Y-111445238D01*
X111528571Y-111540476D01*
X111576190Y-111588095D01*
X111671428Y-111635714D01*
X111861904Y-111635714D01*
X111957142Y-111588095D01*
X112004761Y-111540476D01*
X112052380Y-111445238D01*
X112052380Y-111254761D01*
X112004761Y-111159523D01*
X111957142Y-111111904D01*
X111861904Y-111064285D01*
X111671428Y-111064285D01*
X111576190Y-111111904D01*
X111528571Y-111159523D01*
X111480952Y-111254761D01*
%TO.C,R19*%
X96402380Y-55642857D02*
X95926190Y-55976190D01*
X96402380Y-56214285D02*
X95402380Y-56214285D01*
X95402380Y-55833333D01*
X95450000Y-55738095D01*
X95497619Y-55690476D01*
X95592857Y-55642857D01*
X95735714Y-55642857D01*
X95830952Y-55690476D01*
X95878571Y-55738095D01*
X95926190Y-55833333D01*
X95926190Y-56214285D01*
X96402380Y-54690476D02*
X96402380Y-55261904D01*
X96402380Y-54976190D02*
X95402380Y-54976190D01*
X95545238Y-55071428D01*
X95640476Y-55166666D01*
X95688095Y-55261904D01*
X96402380Y-54214285D02*
X96402380Y-54023809D01*
X96354761Y-53928571D01*
X96307142Y-53880952D01*
X96164285Y-53785714D01*
X95973809Y-53738095D01*
X95592857Y-53738095D01*
X95497619Y-53785714D01*
X95450000Y-53833333D01*
X95402380Y-53928571D01*
X95402380Y-54119047D01*
X95450000Y-54214285D01*
X95497619Y-54261904D01*
X95592857Y-54309523D01*
X95830952Y-54309523D01*
X95926190Y-54261904D01*
X95973809Y-54214285D01*
X96021428Y-54119047D01*
X96021428Y-53928571D01*
X95973809Y-53833333D01*
X95926190Y-53785714D01*
X95830952Y-53738095D01*
%TO.C,D10*%
X94585714Y-131202380D02*
X94585714Y-130202380D01*
X94823809Y-130202380D01*
X94966666Y-130250000D01*
X95061904Y-130345238D01*
X95109523Y-130440476D01*
X95157142Y-130630952D01*
X95157142Y-130773809D01*
X95109523Y-130964285D01*
X95061904Y-131059523D01*
X94966666Y-131154761D01*
X94823809Y-131202380D01*
X94585714Y-131202380D01*
X96109523Y-131202380D02*
X95538095Y-131202380D01*
X95823809Y-131202380D02*
X95823809Y-130202380D01*
X95728571Y-130345238D01*
X95633333Y-130440476D01*
X95538095Y-130488095D01*
X96728571Y-130202380D02*
X96823809Y-130202380D01*
X96919047Y-130250000D01*
X96966666Y-130297619D01*
X97014285Y-130392857D01*
X97061904Y-130583333D01*
X97061904Y-130821428D01*
X97014285Y-131011904D01*
X96966666Y-131107142D01*
X96919047Y-131154761D01*
X96823809Y-131202380D01*
X96728571Y-131202380D01*
X96633333Y-131154761D01*
X96585714Y-131107142D01*
X96538095Y-131011904D01*
X96490476Y-130821428D01*
X96490476Y-130583333D01*
X96538095Y-130392857D01*
X96585714Y-130297619D01*
X96633333Y-130250000D01*
X96728571Y-130202380D01*
%TO.C,R55*%
X111062142Y-71202380D02*
X110728809Y-70726190D01*
X110490714Y-71202380D02*
X110490714Y-70202380D01*
X110871666Y-70202380D01*
X110966904Y-70250000D01*
X111014523Y-70297619D01*
X111062142Y-70392857D01*
X111062142Y-70535714D01*
X111014523Y-70630952D01*
X110966904Y-70678571D01*
X110871666Y-70726190D01*
X110490714Y-70726190D01*
X111966904Y-70202380D02*
X111490714Y-70202380D01*
X111443095Y-70678571D01*
X111490714Y-70630952D01*
X111585952Y-70583333D01*
X111824047Y-70583333D01*
X111919285Y-70630952D01*
X111966904Y-70678571D01*
X112014523Y-70773809D01*
X112014523Y-71011904D01*
X111966904Y-71107142D01*
X111919285Y-71154761D01*
X111824047Y-71202380D01*
X111585952Y-71202380D01*
X111490714Y-71154761D01*
X111443095Y-71107142D01*
X112919285Y-70202380D02*
X112443095Y-70202380D01*
X112395476Y-70678571D01*
X112443095Y-70630952D01*
X112538333Y-70583333D01*
X112776428Y-70583333D01*
X112871666Y-70630952D01*
X112919285Y-70678571D01*
X112966904Y-70773809D01*
X112966904Y-71011904D01*
X112919285Y-71107142D01*
X112871666Y-71154761D01*
X112776428Y-71202380D01*
X112538333Y-71202380D01*
X112443095Y-71154761D01*
X112395476Y-71107142D01*
%TO.C,C5*%
X119837142Y-109416666D02*
X119884761Y-109464285D01*
X119932380Y-109607142D01*
X119932380Y-109702380D01*
X119884761Y-109845238D01*
X119789523Y-109940476D01*
X119694285Y-109988095D01*
X119503809Y-110035714D01*
X119360952Y-110035714D01*
X119170476Y-109988095D01*
X119075238Y-109940476D01*
X118980000Y-109845238D01*
X118932380Y-109702380D01*
X118932380Y-109607142D01*
X118980000Y-109464285D01*
X119027619Y-109416666D01*
X118932380Y-108511904D02*
X118932380Y-108988095D01*
X119408571Y-109035714D01*
X119360952Y-108988095D01*
X119313333Y-108892857D01*
X119313333Y-108654761D01*
X119360952Y-108559523D01*
X119408571Y-108511904D01*
X119503809Y-108464285D01*
X119741904Y-108464285D01*
X119837142Y-108511904D01*
X119884761Y-108559523D01*
X119932380Y-108654761D01*
X119932380Y-108892857D01*
X119884761Y-108988095D01*
X119837142Y-109035714D01*
%TO.C,D12*%
X94585714Y-146602380D02*
X94585714Y-145602380D01*
X94823809Y-145602380D01*
X94966666Y-145650000D01*
X95061904Y-145745238D01*
X95109523Y-145840476D01*
X95157142Y-146030952D01*
X95157142Y-146173809D01*
X95109523Y-146364285D01*
X95061904Y-146459523D01*
X94966666Y-146554761D01*
X94823809Y-146602380D01*
X94585714Y-146602380D01*
X96109523Y-146602380D02*
X95538095Y-146602380D01*
X95823809Y-146602380D02*
X95823809Y-145602380D01*
X95728571Y-145745238D01*
X95633333Y-145840476D01*
X95538095Y-145888095D01*
X96490476Y-145697619D02*
X96538095Y-145650000D01*
X96633333Y-145602380D01*
X96871428Y-145602380D01*
X96966666Y-145650000D01*
X97014285Y-145697619D01*
X97061904Y-145792857D01*
X97061904Y-145888095D01*
X97014285Y-146030952D01*
X96442857Y-146602380D01*
X97061904Y-146602380D01*
%TO.C,U3*%
X162401539Y-85561424D02*
X163211063Y-85561424D01*
X163306301Y-85513805D01*
X163353920Y-85466186D01*
X163401539Y-85370948D01*
X163401539Y-85180472D01*
X163353920Y-85085234D01*
X163306301Y-85037615D01*
X163211063Y-84989996D01*
X162401539Y-84989996D01*
X162401539Y-84609043D02*
X162401539Y-83989996D01*
X162782492Y-84323329D01*
X162782492Y-84180472D01*
X162830111Y-84085234D01*
X162877730Y-84037615D01*
X162972968Y-83989996D01*
X163211063Y-83989996D01*
X163306301Y-84037615D01*
X163353920Y-84085234D01*
X163401539Y-84180472D01*
X163401539Y-84466186D01*
X163353920Y-84561424D01*
X163306301Y-84609043D01*
%TO.C,D13*%
X93785714Y-66202380D02*
X93785714Y-65202380D01*
X94023809Y-65202380D01*
X94166666Y-65250000D01*
X94261904Y-65345238D01*
X94309523Y-65440476D01*
X94357142Y-65630952D01*
X94357142Y-65773809D01*
X94309523Y-65964285D01*
X94261904Y-66059523D01*
X94166666Y-66154761D01*
X94023809Y-66202380D01*
X93785714Y-66202380D01*
X95309523Y-66202380D02*
X94738095Y-66202380D01*
X95023809Y-66202380D02*
X95023809Y-65202380D01*
X94928571Y-65345238D01*
X94833333Y-65440476D01*
X94738095Y-65488095D01*
X95642857Y-65202380D02*
X96261904Y-65202380D01*
X95928571Y-65583333D01*
X96071428Y-65583333D01*
X96166666Y-65630952D01*
X96214285Y-65678571D01*
X96261904Y-65773809D01*
X96261904Y-66011904D01*
X96214285Y-66107142D01*
X96166666Y-66154761D01*
X96071428Y-66202380D01*
X95785714Y-66202380D01*
X95690476Y-66154761D01*
X95642857Y-66107142D01*
%TO.C,R16*%
X98452380Y-110642857D02*
X97976190Y-110976190D01*
X98452380Y-111214285D02*
X97452380Y-111214285D01*
X97452380Y-110833333D01*
X97500000Y-110738095D01*
X97547619Y-110690476D01*
X97642857Y-110642857D01*
X97785714Y-110642857D01*
X97880952Y-110690476D01*
X97928571Y-110738095D01*
X97976190Y-110833333D01*
X97976190Y-111214285D01*
X98452380Y-109690476D02*
X98452380Y-110261904D01*
X98452380Y-109976190D02*
X97452380Y-109976190D01*
X97595238Y-110071428D01*
X97690476Y-110166666D01*
X97738095Y-110261904D01*
X97452380Y-108833333D02*
X97452380Y-109023809D01*
X97500000Y-109119047D01*
X97547619Y-109166666D01*
X97690476Y-109261904D01*
X97880952Y-109309523D01*
X98261904Y-109309523D01*
X98357142Y-109261904D01*
X98404761Y-109214285D01*
X98452380Y-109119047D01*
X98452380Y-108928571D01*
X98404761Y-108833333D01*
X98357142Y-108785714D01*
X98261904Y-108738095D01*
X98023809Y-108738095D01*
X97928571Y-108785714D01*
X97880952Y-108833333D01*
X97833333Y-108928571D01*
X97833333Y-109119047D01*
X97880952Y-109214285D01*
X97928571Y-109261904D01*
X98023809Y-109309523D01*
%TO.C,C7*%
X108277142Y-82366666D02*
X108324761Y-82414285D01*
X108372380Y-82557142D01*
X108372380Y-82652380D01*
X108324761Y-82795238D01*
X108229523Y-82890476D01*
X108134285Y-82938095D01*
X107943809Y-82985714D01*
X107800952Y-82985714D01*
X107610476Y-82938095D01*
X107515238Y-82890476D01*
X107420000Y-82795238D01*
X107372380Y-82652380D01*
X107372380Y-82557142D01*
X107420000Y-82414285D01*
X107467619Y-82366666D01*
X107372380Y-82033333D02*
X107372380Y-81366666D01*
X108372380Y-81795238D01*
%TO.C,R40*%
X169302380Y-111442857D02*
X168826190Y-111776190D01*
X169302380Y-112014285D02*
X168302380Y-112014285D01*
X168302380Y-111633333D01*
X168350000Y-111538095D01*
X168397619Y-111490476D01*
X168492857Y-111442857D01*
X168635714Y-111442857D01*
X168730952Y-111490476D01*
X168778571Y-111538095D01*
X168826190Y-111633333D01*
X168826190Y-112014285D01*
X168635714Y-110585714D02*
X169302380Y-110585714D01*
X168254761Y-110823809D02*
X168969047Y-111061904D01*
X168969047Y-110442857D01*
X168302380Y-109871428D02*
X168302380Y-109776190D01*
X168350000Y-109680952D01*
X168397619Y-109633333D01*
X168492857Y-109585714D01*
X168683333Y-109538095D01*
X168921428Y-109538095D01*
X169111904Y-109585714D01*
X169207142Y-109633333D01*
X169254761Y-109680952D01*
X169302380Y-109776190D01*
X169302380Y-109871428D01*
X169254761Y-109966666D01*
X169207142Y-110014285D01*
X169111904Y-110061904D01*
X168921428Y-110109523D01*
X168683333Y-110109523D01*
X168492857Y-110061904D01*
X168397619Y-110014285D01*
X168350000Y-109966666D01*
X168302380Y-109871428D01*
%TO.C,Q4*%
X98147619Y-97695238D02*
X98100000Y-97790476D01*
X98004761Y-97885714D01*
X97861904Y-98028571D01*
X97814285Y-98123809D01*
X97814285Y-98219047D01*
X98052380Y-98171428D02*
X98004761Y-98266666D01*
X97909523Y-98361904D01*
X97719047Y-98409523D01*
X97385714Y-98409523D01*
X97195238Y-98361904D01*
X97100000Y-98266666D01*
X97052380Y-98171428D01*
X97052380Y-97980952D01*
X97100000Y-97885714D01*
X97195238Y-97790476D01*
X97385714Y-97742857D01*
X97719047Y-97742857D01*
X97909523Y-97790476D01*
X98004761Y-97885714D01*
X98052380Y-97980952D01*
X98052380Y-98171428D01*
X97385714Y-96885714D02*
X98052380Y-96885714D01*
X97004761Y-97123809D02*
X97719047Y-97361904D01*
X97719047Y-96742857D01*
%TO.C,Q3*%
X97947619Y-89095238D02*
X97900000Y-89190476D01*
X97804761Y-89285714D01*
X97661904Y-89428571D01*
X97614285Y-89523809D01*
X97614285Y-89619047D01*
X97852380Y-89571428D02*
X97804761Y-89666666D01*
X97709523Y-89761904D01*
X97519047Y-89809523D01*
X97185714Y-89809523D01*
X96995238Y-89761904D01*
X96900000Y-89666666D01*
X96852380Y-89571428D01*
X96852380Y-89380952D01*
X96900000Y-89285714D01*
X96995238Y-89190476D01*
X97185714Y-89142857D01*
X97519047Y-89142857D01*
X97709523Y-89190476D01*
X97804761Y-89285714D01*
X97852380Y-89380952D01*
X97852380Y-89571428D01*
X96852380Y-88809523D02*
X96852380Y-88190476D01*
X97233333Y-88523809D01*
X97233333Y-88380952D01*
X97280952Y-88285714D01*
X97328571Y-88238095D01*
X97423809Y-88190476D01*
X97661904Y-88190476D01*
X97757142Y-88238095D01*
X97804761Y-88285714D01*
X97852380Y-88380952D01*
X97852380Y-88666666D01*
X97804761Y-88761904D01*
X97757142Y-88809523D01*
%TO.C,R60*%
X133802380Y-65742857D02*
X133326190Y-66076190D01*
X133802380Y-66314285D02*
X132802380Y-66314285D01*
X132802380Y-65933333D01*
X132850000Y-65838095D01*
X132897619Y-65790476D01*
X132992857Y-65742857D01*
X133135714Y-65742857D01*
X133230952Y-65790476D01*
X133278571Y-65838095D01*
X133326190Y-65933333D01*
X133326190Y-66314285D01*
X132802380Y-64885714D02*
X132802380Y-65076190D01*
X132850000Y-65171428D01*
X132897619Y-65219047D01*
X133040476Y-65314285D01*
X133230952Y-65361904D01*
X133611904Y-65361904D01*
X133707142Y-65314285D01*
X133754761Y-65266666D01*
X133802380Y-65171428D01*
X133802380Y-64980952D01*
X133754761Y-64885714D01*
X133707142Y-64838095D01*
X133611904Y-64790476D01*
X133373809Y-64790476D01*
X133278571Y-64838095D01*
X133230952Y-64885714D01*
X133183333Y-64980952D01*
X133183333Y-65171428D01*
X133230952Y-65266666D01*
X133278571Y-65314285D01*
X133373809Y-65361904D01*
X132802380Y-64171428D02*
X132802380Y-64076190D01*
X132850000Y-63980952D01*
X132897619Y-63933333D01*
X132992857Y-63885714D01*
X133183333Y-63838095D01*
X133421428Y-63838095D01*
X133611904Y-63885714D01*
X133707142Y-63933333D01*
X133754761Y-63980952D01*
X133802380Y-64076190D01*
X133802380Y-64171428D01*
X133754761Y-64266666D01*
X133707142Y-64314285D01*
X133611904Y-64361904D01*
X133421428Y-64409523D01*
X133183333Y-64409523D01*
X132992857Y-64361904D01*
X132897619Y-64314285D01*
X132850000Y-64266666D01*
X132802380Y-64171428D01*
%TO.C,R17*%
X100252380Y-110642857D02*
X99776190Y-110976190D01*
X100252380Y-111214285D02*
X99252380Y-111214285D01*
X99252380Y-110833333D01*
X99300000Y-110738095D01*
X99347619Y-110690476D01*
X99442857Y-110642857D01*
X99585714Y-110642857D01*
X99680952Y-110690476D01*
X99728571Y-110738095D01*
X99776190Y-110833333D01*
X99776190Y-111214285D01*
X100252380Y-109690476D02*
X100252380Y-110261904D01*
X100252380Y-109976190D02*
X99252380Y-109976190D01*
X99395238Y-110071428D01*
X99490476Y-110166666D01*
X99538095Y-110261904D01*
X99252380Y-109357142D02*
X99252380Y-108690476D01*
X100252380Y-109119047D01*
%TO.C,R13*%
X98652380Y-102842857D02*
X98176190Y-103176190D01*
X98652380Y-103414285D02*
X97652380Y-103414285D01*
X97652380Y-103033333D01*
X97700000Y-102938095D01*
X97747619Y-102890476D01*
X97842857Y-102842857D01*
X97985714Y-102842857D01*
X98080952Y-102890476D01*
X98128571Y-102938095D01*
X98176190Y-103033333D01*
X98176190Y-103414285D01*
X98652380Y-101890476D02*
X98652380Y-102461904D01*
X98652380Y-102176190D02*
X97652380Y-102176190D01*
X97795238Y-102271428D01*
X97890476Y-102366666D01*
X97938095Y-102461904D01*
X97652380Y-101557142D02*
X97652380Y-100938095D01*
X98033333Y-101271428D01*
X98033333Y-101128571D01*
X98080952Y-101033333D01*
X98128571Y-100985714D01*
X98223809Y-100938095D01*
X98461904Y-100938095D01*
X98557142Y-100985714D01*
X98604761Y-101033333D01*
X98652380Y-101128571D01*
X98652380Y-101414285D01*
X98604761Y-101509523D01*
X98557142Y-101557142D01*
%TO.C,Q6*%
X98147619Y-113295238D02*
X98100000Y-113390476D01*
X98004761Y-113485714D01*
X97861904Y-113628571D01*
X97814285Y-113723809D01*
X97814285Y-113819047D01*
X98052380Y-113771428D02*
X98004761Y-113866666D01*
X97909523Y-113961904D01*
X97719047Y-114009523D01*
X97385714Y-114009523D01*
X97195238Y-113961904D01*
X97100000Y-113866666D01*
X97052380Y-113771428D01*
X97052380Y-113580952D01*
X97100000Y-113485714D01*
X97195238Y-113390476D01*
X97385714Y-113342857D01*
X97719047Y-113342857D01*
X97909523Y-113390476D01*
X98004761Y-113485714D01*
X98052380Y-113580952D01*
X98052380Y-113771428D01*
X97052380Y-112485714D02*
X97052380Y-112676190D01*
X97100000Y-112771428D01*
X97147619Y-112819047D01*
X97290476Y-112914285D01*
X97480952Y-112961904D01*
X97861904Y-112961904D01*
X97957142Y-112914285D01*
X98004761Y-112866666D01*
X98052380Y-112771428D01*
X98052380Y-112580952D01*
X98004761Y-112485714D01*
X97957142Y-112438095D01*
X97861904Y-112390476D01*
X97623809Y-112390476D01*
X97528571Y-112438095D01*
X97480952Y-112485714D01*
X97433333Y-112580952D01*
X97433333Y-112771428D01*
X97480952Y-112866666D01*
X97528571Y-112914285D01*
X97623809Y-112961904D01*
%TO.C,X1*%
X138990476Y-83452380D02*
X139657142Y-84452380D01*
X139657142Y-83452380D02*
X138990476Y-84452380D01*
X140561904Y-84452380D02*
X139990476Y-84452380D01*
X140276190Y-84452380D02*
X140276190Y-83452380D01*
X140180952Y-83595238D01*
X140085714Y-83690476D01*
X139990476Y-83738095D01*
%TO.C,R10*%
X98652380Y-95242857D02*
X98176190Y-95576190D01*
X98652380Y-95814285D02*
X97652380Y-95814285D01*
X97652380Y-95433333D01*
X97700000Y-95338095D01*
X97747619Y-95290476D01*
X97842857Y-95242857D01*
X97985714Y-95242857D01*
X98080952Y-95290476D01*
X98128571Y-95338095D01*
X98176190Y-95433333D01*
X98176190Y-95814285D01*
X98652380Y-94290476D02*
X98652380Y-94861904D01*
X98652380Y-94576190D02*
X97652380Y-94576190D01*
X97795238Y-94671428D01*
X97890476Y-94766666D01*
X97938095Y-94861904D01*
X97652380Y-93671428D02*
X97652380Y-93576190D01*
X97700000Y-93480952D01*
X97747619Y-93433333D01*
X97842857Y-93385714D01*
X98033333Y-93338095D01*
X98271428Y-93338095D01*
X98461904Y-93385714D01*
X98557142Y-93433333D01*
X98604761Y-93480952D01*
X98652380Y-93576190D01*
X98652380Y-93671428D01*
X98604761Y-93766666D01*
X98557142Y-93814285D01*
X98461904Y-93861904D01*
X98271428Y-93909523D01*
X98033333Y-93909523D01*
X97842857Y-93861904D01*
X97747619Y-93814285D01*
X97700000Y-93766666D01*
X97652380Y-93671428D01*
%TO.C,J4*%
X159382380Y-101733333D02*
X160096666Y-101733333D01*
X160239523Y-101780952D01*
X160334761Y-101876190D01*
X160382380Y-102019047D01*
X160382380Y-102114285D01*
X159715714Y-100828571D02*
X160382380Y-100828571D01*
X159334761Y-101066666D02*
X160049047Y-101304761D01*
X160049047Y-100685714D01*
%TO.C,D6*%
X94461904Y-99802380D02*
X94461904Y-98802380D01*
X94700000Y-98802380D01*
X94842857Y-98850000D01*
X94938095Y-98945238D01*
X94985714Y-99040476D01*
X95033333Y-99230952D01*
X95033333Y-99373809D01*
X94985714Y-99564285D01*
X94938095Y-99659523D01*
X94842857Y-99754761D01*
X94700000Y-99802380D01*
X94461904Y-99802380D01*
X95890476Y-98802380D02*
X95700000Y-98802380D01*
X95604761Y-98850000D01*
X95557142Y-98897619D01*
X95461904Y-99040476D01*
X95414285Y-99230952D01*
X95414285Y-99611904D01*
X95461904Y-99707142D01*
X95509523Y-99754761D01*
X95604761Y-99802380D01*
X95795238Y-99802380D01*
X95890476Y-99754761D01*
X95938095Y-99707142D01*
X95985714Y-99611904D01*
X95985714Y-99373809D01*
X95938095Y-99278571D01*
X95890476Y-99230952D01*
X95795238Y-99183333D01*
X95604761Y-99183333D01*
X95509523Y-99230952D01*
X95461904Y-99278571D01*
X95414285Y-99373809D01*
%TO.C,R45*%
X88157142Y-107402380D02*
X87823809Y-106926190D01*
X87585714Y-107402380D02*
X87585714Y-106402380D01*
X87966666Y-106402380D01*
X88061904Y-106450000D01*
X88109523Y-106497619D01*
X88157142Y-106592857D01*
X88157142Y-106735714D01*
X88109523Y-106830952D01*
X88061904Y-106878571D01*
X87966666Y-106926190D01*
X87585714Y-106926190D01*
X89014285Y-106735714D02*
X89014285Y-107402380D01*
X88776190Y-106354761D02*
X88538095Y-107069047D01*
X89157142Y-107069047D01*
X90014285Y-106402380D02*
X89538095Y-106402380D01*
X89490476Y-106878571D01*
X89538095Y-106830952D01*
X89633333Y-106783333D01*
X89871428Y-106783333D01*
X89966666Y-106830952D01*
X90014285Y-106878571D01*
X90061904Y-106973809D01*
X90061904Y-107211904D01*
X90014285Y-107307142D01*
X89966666Y-107354761D01*
X89871428Y-107402380D01*
X89633333Y-107402380D01*
X89538095Y-107354761D01*
X89490476Y-107307142D01*
%TO.C,D11*%
X94848214Y-138602380D02*
X94848214Y-137602380D01*
X95086309Y-137602380D01*
X95229166Y-137650000D01*
X95324404Y-137745238D01*
X95372023Y-137840476D01*
X95419642Y-138030952D01*
X95419642Y-138173809D01*
X95372023Y-138364285D01*
X95324404Y-138459523D01*
X95229166Y-138554761D01*
X95086309Y-138602380D01*
X94848214Y-138602380D01*
X96372023Y-138602380D02*
X95800595Y-138602380D01*
X96086309Y-138602380D02*
X96086309Y-137602380D01*
X95991071Y-137745238D01*
X95895833Y-137840476D01*
X95800595Y-137888095D01*
X97324404Y-138602380D02*
X96752976Y-138602380D01*
X97038690Y-138602380D02*
X97038690Y-137602380D01*
X96943452Y-137745238D01*
X96848214Y-137840476D01*
X96752976Y-137888095D01*
%TO.C,C34*%
X115862142Y-65592857D02*
X115909761Y-65640476D01*
X115957380Y-65783333D01*
X115957380Y-65878571D01*
X115909761Y-66021428D01*
X115814523Y-66116666D01*
X115719285Y-66164285D01*
X115528809Y-66211904D01*
X115385952Y-66211904D01*
X115195476Y-66164285D01*
X115100238Y-66116666D01*
X115005000Y-66021428D01*
X114957380Y-65878571D01*
X114957380Y-65783333D01*
X115005000Y-65640476D01*
X115052619Y-65592857D01*
X114957380Y-65259523D02*
X114957380Y-64640476D01*
X115338333Y-64973809D01*
X115338333Y-64830952D01*
X115385952Y-64735714D01*
X115433571Y-64688095D01*
X115528809Y-64640476D01*
X115766904Y-64640476D01*
X115862142Y-64688095D01*
X115909761Y-64735714D01*
X115957380Y-64830952D01*
X115957380Y-65116666D01*
X115909761Y-65211904D01*
X115862142Y-65259523D01*
X115290714Y-63783333D02*
X115957380Y-63783333D01*
X114909761Y-64021428D02*
X115624047Y-64259523D01*
X115624047Y-63640476D01*
%TO.C,TP9*%
X150838095Y-48677380D02*
X151409523Y-48677380D01*
X151123809Y-49677380D02*
X151123809Y-48677380D01*
X151742857Y-49677380D02*
X151742857Y-48677380D01*
X152123809Y-48677380D01*
X152219047Y-48725000D01*
X152266666Y-48772619D01*
X152314285Y-48867857D01*
X152314285Y-49010714D01*
X152266666Y-49105952D01*
X152219047Y-49153571D01*
X152123809Y-49201190D01*
X151742857Y-49201190D01*
X152790476Y-49677380D02*
X152980952Y-49677380D01*
X153076190Y-49629761D01*
X153123809Y-49582142D01*
X153219047Y-49439285D01*
X153266666Y-49248809D01*
X153266666Y-48867857D01*
X153219047Y-48772619D01*
X153171428Y-48725000D01*
X153076190Y-48677380D01*
X152885714Y-48677380D01*
X152790476Y-48725000D01*
X152742857Y-48772619D01*
X152695238Y-48867857D01*
X152695238Y-49105952D01*
X152742857Y-49201190D01*
X152790476Y-49248809D01*
X152885714Y-49296428D01*
X153076190Y-49296428D01*
X153171428Y-49248809D01*
X153219047Y-49201190D01*
X153266666Y-49105952D01*
%TO.C,C12*%
X115837142Y-109892857D02*
X115884761Y-109940476D01*
X115932380Y-110083333D01*
X115932380Y-110178571D01*
X115884761Y-110321428D01*
X115789523Y-110416666D01*
X115694285Y-110464285D01*
X115503809Y-110511904D01*
X115360952Y-110511904D01*
X115170476Y-110464285D01*
X115075238Y-110416666D01*
X114980000Y-110321428D01*
X114932380Y-110178571D01*
X114932380Y-110083333D01*
X114980000Y-109940476D01*
X115027619Y-109892857D01*
X115932380Y-108940476D02*
X115932380Y-109511904D01*
X115932380Y-109226190D02*
X114932380Y-109226190D01*
X115075238Y-109321428D01*
X115170476Y-109416666D01*
X115218095Y-109511904D01*
X115027619Y-108559523D02*
X114980000Y-108511904D01*
X114932380Y-108416666D01*
X114932380Y-108178571D01*
X114980000Y-108083333D01*
X115027619Y-108035714D01*
X115122857Y-107988095D01*
X115218095Y-107988095D01*
X115360952Y-108035714D01*
X115932380Y-108607142D01*
X115932380Y-107988095D01*
%TO.C,R57*%
X129262142Y-77452380D02*
X128928809Y-76976190D01*
X128690714Y-77452380D02*
X128690714Y-76452380D01*
X129071666Y-76452380D01*
X129166904Y-76500000D01*
X129214523Y-76547619D01*
X129262142Y-76642857D01*
X129262142Y-76785714D01*
X129214523Y-76880952D01*
X129166904Y-76928571D01*
X129071666Y-76976190D01*
X128690714Y-76976190D01*
X130166904Y-76452380D02*
X129690714Y-76452380D01*
X129643095Y-76928571D01*
X129690714Y-76880952D01*
X129785952Y-76833333D01*
X130024047Y-76833333D01*
X130119285Y-76880952D01*
X130166904Y-76928571D01*
X130214523Y-77023809D01*
X130214523Y-77261904D01*
X130166904Y-77357142D01*
X130119285Y-77404761D01*
X130024047Y-77452380D01*
X129785952Y-77452380D01*
X129690714Y-77404761D01*
X129643095Y-77357142D01*
X130547857Y-76452380D02*
X131214523Y-76452380D01*
X130785952Y-77452380D01*
%TO.C,C16*%
X126477142Y-95042857D02*
X126524761Y-95090476D01*
X126572380Y-95233333D01*
X126572380Y-95328571D01*
X126524761Y-95471428D01*
X126429523Y-95566666D01*
X126334285Y-95614285D01*
X126143809Y-95661904D01*
X126000952Y-95661904D01*
X125810476Y-95614285D01*
X125715238Y-95566666D01*
X125620000Y-95471428D01*
X125572380Y-95328571D01*
X125572380Y-95233333D01*
X125620000Y-95090476D01*
X125667619Y-95042857D01*
X126572380Y-94090476D02*
X126572380Y-94661904D01*
X126572380Y-94376190D02*
X125572380Y-94376190D01*
X125715238Y-94471428D01*
X125810476Y-94566666D01*
X125858095Y-94661904D01*
X125572380Y-93233333D02*
X125572380Y-93423809D01*
X125620000Y-93519047D01*
X125667619Y-93566666D01*
X125810476Y-93661904D01*
X126000952Y-93709523D01*
X126381904Y-93709523D01*
X126477142Y-93661904D01*
X126524761Y-93614285D01*
X126572380Y-93519047D01*
X126572380Y-93328571D01*
X126524761Y-93233333D01*
X126477142Y-93185714D01*
X126381904Y-93138095D01*
X126143809Y-93138095D01*
X126048571Y-93185714D01*
X126000952Y-93233333D01*
X125953333Y-93328571D01*
X125953333Y-93519047D01*
X126000952Y-93614285D01*
X126048571Y-93661904D01*
X126143809Y-93709523D01*
%TO.C,R43*%
X87957142Y-91202380D02*
X87623809Y-90726190D01*
X87385714Y-91202380D02*
X87385714Y-90202380D01*
X87766666Y-90202380D01*
X87861904Y-90250000D01*
X87909523Y-90297619D01*
X87957142Y-90392857D01*
X87957142Y-90535714D01*
X87909523Y-90630952D01*
X87861904Y-90678571D01*
X87766666Y-90726190D01*
X87385714Y-90726190D01*
X88814285Y-90535714D02*
X88814285Y-91202380D01*
X88576190Y-90154761D02*
X88338095Y-90869047D01*
X88957142Y-90869047D01*
X89242857Y-90202380D02*
X89861904Y-90202380D01*
X89528571Y-90583333D01*
X89671428Y-90583333D01*
X89766666Y-90630952D01*
X89814285Y-90678571D01*
X89861904Y-90773809D01*
X89861904Y-91011904D01*
X89814285Y-91107142D01*
X89766666Y-91154761D01*
X89671428Y-91202380D01*
X89385714Y-91202380D01*
X89290476Y-91154761D01*
X89242857Y-91107142D01*
%TO.C,R66*%
X140057142Y-138152380D02*
X139723809Y-137676190D01*
X139485714Y-138152380D02*
X139485714Y-137152380D01*
X139866666Y-137152380D01*
X139961904Y-137200000D01*
X140009523Y-137247619D01*
X140057142Y-137342857D01*
X140057142Y-137485714D01*
X140009523Y-137580952D01*
X139961904Y-137628571D01*
X139866666Y-137676190D01*
X139485714Y-137676190D01*
X140914285Y-137152380D02*
X140723809Y-137152380D01*
X140628571Y-137200000D01*
X140580952Y-137247619D01*
X140485714Y-137390476D01*
X140438095Y-137580952D01*
X140438095Y-137961904D01*
X140485714Y-138057142D01*
X140533333Y-138104761D01*
X140628571Y-138152380D01*
X140819047Y-138152380D01*
X140914285Y-138104761D01*
X140961904Y-138057142D01*
X141009523Y-137961904D01*
X141009523Y-137723809D01*
X140961904Y-137628571D01*
X140914285Y-137580952D01*
X140819047Y-137533333D01*
X140628571Y-137533333D01*
X140533333Y-137580952D01*
X140485714Y-137628571D01*
X140438095Y-137723809D01*
X141866666Y-137152380D02*
X141676190Y-137152380D01*
X141580952Y-137200000D01*
X141533333Y-137247619D01*
X141438095Y-137390476D01*
X141390476Y-137580952D01*
X141390476Y-137961904D01*
X141438095Y-138057142D01*
X141485714Y-138104761D01*
X141580952Y-138152380D01*
X141771428Y-138152380D01*
X141866666Y-138104761D01*
X141914285Y-138057142D01*
X141961904Y-137961904D01*
X141961904Y-137723809D01*
X141914285Y-137628571D01*
X141866666Y-137580952D01*
X141771428Y-137533333D01*
X141580952Y-137533333D01*
X141485714Y-137580952D01*
X141438095Y-137628571D01*
X141390476Y-137723809D01*
%TO.C,Q10*%
X98947619Y-145771428D02*
X98900000Y-145866666D01*
X98804761Y-145961904D01*
X98661904Y-146104761D01*
X98614285Y-146200000D01*
X98614285Y-146295238D01*
X98852380Y-146247619D02*
X98804761Y-146342857D01*
X98709523Y-146438095D01*
X98519047Y-146485714D01*
X98185714Y-146485714D01*
X97995238Y-146438095D01*
X97900000Y-146342857D01*
X97852380Y-146247619D01*
X97852380Y-146057142D01*
X97900000Y-145961904D01*
X97995238Y-145866666D01*
X98185714Y-145819047D01*
X98519047Y-145819047D01*
X98709523Y-145866666D01*
X98804761Y-145961904D01*
X98852380Y-146057142D01*
X98852380Y-146247619D01*
X98852380Y-144866666D02*
X98852380Y-145438095D01*
X98852380Y-145152380D02*
X97852380Y-145152380D01*
X97995238Y-145247619D01*
X98090476Y-145342857D01*
X98138095Y-145438095D01*
X97852380Y-144247619D02*
X97852380Y-144152380D01*
X97900000Y-144057142D01*
X97947619Y-144009523D01*
X98042857Y-143961904D01*
X98233333Y-143914285D01*
X98471428Y-143914285D01*
X98661904Y-143961904D01*
X98757142Y-144009523D01*
X98804761Y-144057142D01*
X98852380Y-144152380D01*
X98852380Y-144247619D01*
X98804761Y-144342857D01*
X98757142Y-144390476D01*
X98661904Y-144438095D01*
X98471428Y-144485714D01*
X98233333Y-144485714D01*
X98042857Y-144438095D01*
X97947619Y-144390476D01*
X97900000Y-144342857D01*
X97852380Y-144247619D01*
%TO.C,R11*%
X100452380Y-101242857D02*
X99976190Y-101576190D01*
X100452380Y-101814285D02*
X99452380Y-101814285D01*
X99452380Y-101433333D01*
X99500000Y-101338095D01*
X99547619Y-101290476D01*
X99642857Y-101242857D01*
X99785714Y-101242857D01*
X99880952Y-101290476D01*
X99928571Y-101338095D01*
X99976190Y-101433333D01*
X99976190Y-101814285D01*
X100452380Y-100290476D02*
X100452380Y-100861904D01*
X100452380Y-100576190D02*
X99452380Y-100576190D01*
X99595238Y-100671428D01*
X99690476Y-100766666D01*
X99738095Y-100861904D01*
X100452380Y-99338095D02*
X100452380Y-99909523D01*
X100452380Y-99623809D02*
X99452380Y-99623809D01*
X99595238Y-99719047D01*
X99690476Y-99814285D01*
X99738095Y-99909523D01*
%TO.C,R21*%
X87557142Y-52832380D02*
X87223809Y-52356190D01*
X86985714Y-52832380D02*
X86985714Y-51832380D01*
X87366666Y-51832380D01*
X87461904Y-51880000D01*
X87509523Y-51927619D01*
X87557142Y-52022857D01*
X87557142Y-52165714D01*
X87509523Y-52260952D01*
X87461904Y-52308571D01*
X87366666Y-52356190D01*
X86985714Y-52356190D01*
X87938095Y-51927619D02*
X87985714Y-51880000D01*
X88080952Y-51832380D01*
X88319047Y-51832380D01*
X88414285Y-51880000D01*
X88461904Y-51927619D01*
X88509523Y-52022857D01*
X88509523Y-52118095D01*
X88461904Y-52260952D01*
X87890476Y-52832380D01*
X88509523Y-52832380D01*
X89461904Y-52832380D02*
X88890476Y-52832380D01*
X89176190Y-52832380D02*
X89176190Y-51832380D01*
X89080952Y-51975238D01*
X88985714Y-52070476D01*
X88890476Y-52118095D01*
%TO.C,R34*%
X98452380Y-119642857D02*
X97976190Y-119976190D01*
X98452380Y-120214285D02*
X97452380Y-120214285D01*
X97452380Y-119833333D01*
X97500000Y-119738095D01*
X97547619Y-119690476D01*
X97642857Y-119642857D01*
X97785714Y-119642857D01*
X97880952Y-119690476D01*
X97928571Y-119738095D01*
X97976190Y-119833333D01*
X97976190Y-120214285D01*
X97452380Y-119309523D02*
X97452380Y-118690476D01*
X97833333Y-119023809D01*
X97833333Y-118880952D01*
X97880952Y-118785714D01*
X97928571Y-118738095D01*
X98023809Y-118690476D01*
X98261904Y-118690476D01*
X98357142Y-118738095D01*
X98404761Y-118785714D01*
X98452380Y-118880952D01*
X98452380Y-119166666D01*
X98404761Y-119261904D01*
X98357142Y-119309523D01*
X97785714Y-117833333D02*
X98452380Y-117833333D01*
X97404761Y-118071428D02*
X98119047Y-118309523D01*
X98119047Y-117690476D01*
%TO.C,TP8*%
X153538095Y-68371428D02*
X154300000Y-68371428D01*
X153919047Y-68752380D02*
X153919047Y-67990476D01*
X154680952Y-67752380D02*
X155300000Y-67752380D01*
X154966666Y-68133333D01*
X155109523Y-68133333D01*
X155204761Y-68180952D01*
X155252380Y-68228571D01*
X155300000Y-68323809D01*
X155300000Y-68561904D01*
X155252380Y-68657142D01*
X155204761Y-68704761D01*
X155109523Y-68752380D01*
X154823809Y-68752380D01*
X154728571Y-68704761D01*
X154680952Y-68657142D01*
X155585714Y-67752380D02*
X155919047Y-68752380D01*
X156252380Y-67752380D01*
X156490476Y-67752380D02*
X157109523Y-67752380D01*
X156776190Y-68133333D01*
X156919047Y-68133333D01*
X157014285Y-68180952D01*
X157061904Y-68228571D01*
X157109523Y-68323809D01*
X157109523Y-68561904D01*
X157061904Y-68657142D01*
X157014285Y-68704761D01*
X156919047Y-68752380D01*
X156633333Y-68752380D01*
X156538095Y-68704761D01*
X156490476Y-68657142D01*
%TO.C,C36*%
X131062142Y-69192857D02*
X131109761Y-69240476D01*
X131157380Y-69383333D01*
X131157380Y-69478571D01*
X131109761Y-69621428D01*
X131014523Y-69716666D01*
X130919285Y-69764285D01*
X130728809Y-69811904D01*
X130585952Y-69811904D01*
X130395476Y-69764285D01*
X130300238Y-69716666D01*
X130205000Y-69621428D01*
X130157380Y-69478571D01*
X130157380Y-69383333D01*
X130205000Y-69240476D01*
X130252619Y-69192857D01*
X130157380Y-68859523D02*
X130157380Y-68240476D01*
X130538333Y-68573809D01*
X130538333Y-68430952D01*
X130585952Y-68335714D01*
X130633571Y-68288095D01*
X130728809Y-68240476D01*
X130966904Y-68240476D01*
X131062142Y-68288095D01*
X131109761Y-68335714D01*
X131157380Y-68430952D01*
X131157380Y-68716666D01*
X131109761Y-68811904D01*
X131062142Y-68859523D01*
X130157380Y-67383333D02*
X130157380Y-67573809D01*
X130205000Y-67669047D01*
X130252619Y-67716666D01*
X130395476Y-67811904D01*
X130585952Y-67859523D01*
X130966904Y-67859523D01*
X131062142Y-67811904D01*
X131109761Y-67764285D01*
X131157380Y-67669047D01*
X131157380Y-67478571D01*
X131109761Y-67383333D01*
X131062142Y-67335714D01*
X130966904Y-67288095D01*
X130728809Y-67288095D01*
X130633571Y-67335714D01*
X130585952Y-67383333D01*
X130538333Y-67478571D01*
X130538333Y-67669047D01*
X130585952Y-67764285D01*
X130633571Y-67811904D01*
X130728809Y-67859523D01*
%TO.C,R24*%
X88557142Y-126832380D02*
X88223809Y-126356190D01*
X87985714Y-126832380D02*
X87985714Y-125832380D01*
X88366666Y-125832380D01*
X88461904Y-125880000D01*
X88509523Y-125927619D01*
X88557142Y-126022857D01*
X88557142Y-126165714D01*
X88509523Y-126260952D01*
X88461904Y-126308571D01*
X88366666Y-126356190D01*
X87985714Y-126356190D01*
X88938095Y-125927619D02*
X88985714Y-125880000D01*
X89080952Y-125832380D01*
X89319047Y-125832380D01*
X89414285Y-125880000D01*
X89461904Y-125927619D01*
X89509523Y-126022857D01*
X89509523Y-126118095D01*
X89461904Y-126260952D01*
X88890476Y-126832380D01*
X89509523Y-126832380D01*
X90366666Y-126165714D02*
X90366666Y-126832380D01*
X90128571Y-125784761D02*
X89890476Y-126499047D01*
X90509523Y-126499047D01*
%TO.C,Q13*%
X145968571Y-57312619D02*
X145873333Y-57265000D01*
X145778095Y-57169761D01*
X145635238Y-57026904D01*
X145540000Y-56979285D01*
X145444761Y-56979285D01*
X145492380Y-57217380D02*
X145397142Y-57169761D01*
X145301904Y-57074523D01*
X145254285Y-56884047D01*
X145254285Y-56550714D01*
X145301904Y-56360238D01*
X145397142Y-56265000D01*
X145492380Y-56217380D01*
X145682857Y-56217380D01*
X145778095Y-56265000D01*
X145873333Y-56360238D01*
X145920952Y-56550714D01*
X145920952Y-56884047D01*
X145873333Y-57074523D01*
X145778095Y-57169761D01*
X145682857Y-57217380D01*
X145492380Y-57217380D01*
X146873333Y-57217380D02*
X146301904Y-57217380D01*
X146587619Y-57217380D02*
X146587619Y-56217380D01*
X146492380Y-56360238D01*
X146397142Y-56455476D01*
X146301904Y-56503095D01*
X147206666Y-56217380D02*
X147825714Y-56217380D01*
X147492380Y-56598333D01*
X147635238Y-56598333D01*
X147730476Y-56645952D01*
X147778095Y-56693571D01*
X147825714Y-56788809D01*
X147825714Y-57026904D01*
X147778095Y-57122142D01*
X147730476Y-57169761D01*
X147635238Y-57217380D01*
X147349523Y-57217380D01*
X147254285Y-57169761D01*
X147206666Y-57122142D01*
%TO.C,R36*%
X87957142Y-119632380D02*
X87623809Y-119156190D01*
X87385714Y-119632380D02*
X87385714Y-118632380D01*
X87766666Y-118632380D01*
X87861904Y-118680000D01*
X87909523Y-118727619D01*
X87957142Y-118822857D01*
X87957142Y-118965714D01*
X87909523Y-119060952D01*
X87861904Y-119108571D01*
X87766666Y-119156190D01*
X87385714Y-119156190D01*
X88290476Y-118632380D02*
X88909523Y-118632380D01*
X88576190Y-119013333D01*
X88719047Y-119013333D01*
X88814285Y-119060952D01*
X88861904Y-119108571D01*
X88909523Y-119203809D01*
X88909523Y-119441904D01*
X88861904Y-119537142D01*
X88814285Y-119584761D01*
X88719047Y-119632380D01*
X88433333Y-119632380D01*
X88338095Y-119584761D01*
X88290476Y-119537142D01*
X89766666Y-118632380D02*
X89576190Y-118632380D01*
X89480952Y-118680000D01*
X89433333Y-118727619D01*
X89338095Y-118870476D01*
X89290476Y-119060952D01*
X89290476Y-119441904D01*
X89338095Y-119537142D01*
X89385714Y-119584761D01*
X89480952Y-119632380D01*
X89671428Y-119632380D01*
X89766666Y-119584761D01*
X89814285Y-119537142D01*
X89861904Y-119441904D01*
X89861904Y-119203809D01*
X89814285Y-119108571D01*
X89766666Y-119060952D01*
X89671428Y-119013333D01*
X89480952Y-119013333D01*
X89385714Y-119060952D01*
X89338095Y-119108571D01*
X89290476Y-119203809D01*
%TO.C,TP4*%
X125776190Y-88404761D02*
X125919047Y-88452380D01*
X126157142Y-88452380D01*
X126252380Y-88404761D01*
X126300000Y-88357142D01*
X126347619Y-88261904D01*
X126347619Y-88166666D01*
X126300000Y-88071428D01*
X126252380Y-88023809D01*
X126157142Y-87976190D01*
X125966666Y-87928571D01*
X125871428Y-87880952D01*
X125823809Y-87833333D01*
X125776190Y-87738095D01*
X125776190Y-87642857D01*
X125823809Y-87547619D01*
X125871428Y-87500000D01*
X125966666Y-87452380D01*
X126204761Y-87452380D01*
X126347619Y-87500000D01*
X126776190Y-88452380D02*
X126776190Y-87452380D01*
X127014285Y-87452380D01*
X127157142Y-87500000D01*
X127252380Y-87595238D01*
X127300000Y-87690476D01*
X127347619Y-87880952D01*
X127347619Y-88023809D01*
X127300000Y-88214285D01*
X127252380Y-88309523D01*
X127157142Y-88404761D01*
X127014285Y-88452380D01*
X126776190Y-88452380D01*
X127776190Y-88452380D02*
X127776190Y-87452380D01*
%TO.C,U1*%
X113838095Y-88302380D02*
X113838095Y-89111904D01*
X113885714Y-89207142D01*
X113933333Y-89254761D01*
X114028571Y-89302380D01*
X114219047Y-89302380D01*
X114314285Y-89254761D01*
X114361904Y-89207142D01*
X114409523Y-89111904D01*
X114409523Y-88302380D01*
X115409523Y-89302380D02*
X114838095Y-89302380D01*
X115123809Y-89302380D02*
X115123809Y-88302380D01*
X115028571Y-88445238D01*
X114933333Y-88540476D01*
X114838095Y-88588095D01*
%TO.C,C21*%
X133757142Y-84477142D02*
X133709523Y-84524761D01*
X133566666Y-84572380D01*
X133471428Y-84572380D01*
X133328571Y-84524761D01*
X133233333Y-84429523D01*
X133185714Y-84334285D01*
X133138095Y-84143809D01*
X133138095Y-84000952D01*
X133185714Y-83810476D01*
X133233333Y-83715238D01*
X133328571Y-83620000D01*
X133471428Y-83572380D01*
X133566666Y-83572380D01*
X133709523Y-83620000D01*
X133757142Y-83667619D01*
X134138095Y-83667619D02*
X134185714Y-83620000D01*
X134280952Y-83572380D01*
X134519047Y-83572380D01*
X134614285Y-83620000D01*
X134661904Y-83667619D01*
X134709523Y-83762857D01*
X134709523Y-83858095D01*
X134661904Y-84000952D01*
X134090476Y-84572380D01*
X134709523Y-84572380D01*
X135661904Y-84572380D02*
X135090476Y-84572380D01*
X135376190Y-84572380D02*
X135376190Y-83572380D01*
X135280952Y-83715238D01*
X135185714Y-83810476D01*
X135090476Y-83858095D01*
%TO.C,R38*%
X127102380Y-140442857D02*
X126626190Y-140776190D01*
X127102380Y-141014285D02*
X126102380Y-141014285D01*
X126102380Y-140633333D01*
X126150000Y-140538095D01*
X126197619Y-140490476D01*
X126292857Y-140442857D01*
X126435714Y-140442857D01*
X126530952Y-140490476D01*
X126578571Y-140538095D01*
X126626190Y-140633333D01*
X126626190Y-141014285D01*
X126102380Y-140109523D02*
X126102380Y-139490476D01*
X126483333Y-139823809D01*
X126483333Y-139680952D01*
X126530952Y-139585714D01*
X126578571Y-139538095D01*
X126673809Y-139490476D01*
X126911904Y-139490476D01*
X127007142Y-139538095D01*
X127054761Y-139585714D01*
X127102380Y-139680952D01*
X127102380Y-139966666D01*
X127054761Y-140061904D01*
X127007142Y-140109523D01*
X126530952Y-138919047D02*
X126483333Y-139014285D01*
X126435714Y-139061904D01*
X126340476Y-139109523D01*
X126292857Y-139109523D01*
X126197619Y-139061904D01*
X126150000Y-139014285D01*
X126102380Y-138919047D01*
X126102380Y-138728571D01*
X126150000Y-138633333D01*
X126197619Y-138585714D01*
X126292857Y-138538095D01*
X126340476Y-138538095D01*
X126435714Y-138585714D01*
X126483333Y-138633333D01*
X126530952Y-138728571D01*
X126530952Y-138919047D01*
X126578571Y-139014285D01*
X126626190Y-139061904D01*
X126721428Y-139109523D01*
X126911904Y-139109523D01*
X127007142Y-139061904D01*
X127054761Y-139014285D01*
X127102380Y-138919047D01*
X127102380Y-138728571D01*
X127054761Y-138633333D01*
X127007142Y-138585714D01*
X126911904Y-138538095D01*
X126721428Y-138538095D01*
X126626190Y-138585714D01*
X126578571Y-138633333D01*
X126530952Y-138728571D01*
%TO.C,D5*%
X94261904Y-91202380D02*
X94261904Y-90202380D01*
X94500000Y-90202380D01*
X94642857Y-90250000D01*
X94738095Y-90345238D01*
X94785714Y-90440476D01*
X94833333Y-90630952D01*
X94833333Y-90773809D01*
X94785714Y-90964285D01*
X94738095Y-91059523D01*
X94642857Y-91154761D01*
X94500000Y-91202380D01*
X94261904Y-91202380D01*
X95738095Y-90202380D02*
X95261904Y-90202380D01*
X95214285Y-90678571D01*
X95261904Y-90630952D01*
X95357142Y-90583333D01*
X95595238Y-90583333D01*
X95690476Y-90630952D01*
X95738095Y-90678571D01*
X95785714Y-90773809D01*
X95785714Y-91011904D01*
X95738095Y-91107142D01*
X95690476Y-91154761D01*
X95595238Y-91202380D01*
X95357142Y-91202380D01*
X95261904Y-91154761D01*
X95214285Y-91107142D01*
%TO.C,R25*%
X99252380Y-134042857D02*
X98776190Y-134376190D01*
X99252380Y-134614285D02*
X98252380Y-134614285D01*
X98252380Y-134233333D01*
X98300000Y-134138095D01*
X98347619Y-134090476D01*
X98442857Y-134042857D01*
X98585714Y-134042857D01*
X98680952Y-134090476D01*
X98728571Y-134138095D01*
X98776190Y-134233333D01*
X98776190Y-134614285D01*
X98347619Y-133661904D02*
X98300000Y-133614285D01*
X98252380Y-133519047D01*
X98252380Y-133280952D01*
X98300000Y-133185714D01*
X98347619Y-133138095D01*
X98442857Y-133090476D01*
X98538095Y-133090476D01*
X98680952Y-133138095D01*
X99252380Y-133709523D01*
X99252380Y-133090476D01*
X98252380Y-132185714D02*
X98252380Y-132661904D01*
X98728571Y-132709523D01*
X98680952Y-132661904D01*
X98633333Y-132566666D01*
X98633333Y-132328571D01*
X98680952Y-132233333D01*
X98728571Y-132185714D01*
X98823809Y-132138095D01*
X99061904Y-132138095D01*
X99157142Y-132185714D01*
X99204761Y-132233333D01*
X99252380Y-132328571D01*
X99252380Y-132566666D01*
X99204761Y-132661904D01*
X99157142Y-132709523D01*
%TO.C,TP5*%
X125690476Y-91004761D02*
X125833333Y-91052380D01*
X126071428Y-91052380D01*
X126166666Y-91004761D01*
X126214285Y-90957142D01*
X126261904Y-90861904D01*
X126261904Y-90766666D01*
X126214285Y-90671428D01*
X126166666Y-90623809D01*
X126071428Y-90576190D01*
X125880952Y-90528571D01*
X125785714Y-90480952D01*
X125738095Y-90433333D01*
X125690476Y-90338095D01*
X125690476Y-90242857D01*
X125738095Y-90147619D01*
X125785714Y-90100000D01*
X125880952Y-90052380D01*
X126119047Y-90052380D01*
X126261904Y-90100000D01*
X126690476Y-91052380D02*
X126690476Y-90052380D01*
X126928571Y-90052380D01*
X127071428Y-90100000D01*
X127166666Y-90195238D01*
X127214285Y-90290476D01*
X127261904Y-90480952D01*
X127261904Y-90623809D01*
X127214285Y-90814285D01*
X127166666Y-90909523D01*
X127071428Y-91004761D01*
X126928571Y-91052380D01*
X126690476Y-91052380D01*
X127880952Y-90052380D02*
X128071428Y-90052380D01*
X128166666Y-90100000D01*
X128261904Y-90195238D01*
X128309523Y-90385714D01*
X128309523Y-90719047D01*
X128261904Y-90909523D01*
X128166666Y-91004761D01*
X128071428Y-91052380D01*
X127880952Y-91052380D01*
X127785714Y-91004761D01*
X127690476Y-90909523D01*
X127642857Y-90719047D01*
X127642857Y-90385714D01*
X127690476Y-90195238D01*
X127785714Y-90100000D01*
X127880952Y-90052380D01*
%TO.C,L2*%
X125138333Y-60952380D02*
X124662142Y-60952380D01*
X124662142Y-59952380D01*
X125424047Y-60047619D02*
X125471666Y-60000000D01*
X125566904Y-59952380D01*
X125805000Y-59952380D01*
X125900238Y-60000000D01*
X125947857Y-60047619D01*
X125995476Y-60142857D01*
X125995476Y-60238095D01*
X125947857Y-60380952D01*
X125376428Y-60952380D01*
X125995476Y-60952380D01*
%TO.C,R48*%
X90757142Y-131002380D02*
X90423809Y-130526190D01*
X90185714Y-131002380D02*
X90185714Y-130002380D01*
X90566666Y-130002380D01*
X90661904Y-130050000D01*
X90709523Y-130097619D01*
X90757142Y-130192857D01*
X90757142Y-130335714D01*
X90709523Y-130430952D01*
X90661904Y-130478571D01*
X90566666Y-130526190D01*
X90185714Y-130526190D01*
X91614285Y-130335714D02*
X91614285Y-131002380D01*
X91376190Y-129954761D02*
X91138095Y-130669047D01*
X91757142Y-130669047D01*
X92280952Y-130430952D02*
X92185714Y-130383333D01*
X92138095Y-130335714D01*
X92090476Y-130240476D01*
X92090476Y-130192857D01*
X92138095Y-130097619D01*
X92185714Y-130050000D01*
X92280952Y-130002380D01*
X92471428Y-130002380D01*
X92566666Y-130050000D01*
X92614285Y-130097619D01*
X92661904Y-130192857D01*
X92661904Y-130240476D01*
X92614285Y-130335714D01*
X92566666Y-130383333D01*
X92471428Y-130430952D01*
X92280952Y-130430952D01*
X92185714Y-130478571D01*
X92138095Y-130526190D01*
X92090476Y-130621428D01*
X92090476Y-130811904D01*
X92138095Y-130907142D01*
X92185714Y-130954761D01*
X92280952Y-131002380D01*
X92471428Y-131002380D01*
X92566666Y-130954761D01*
X92614285Y-130907142D01*
X92661904Y-130811904D01*
X92661904Y-130621428D01*
X92614285Y-130526190D01*
X92566666Y-130478571D01*
X92471428Y-130430952D01*
%TO.C,C10*%
X120157142Y-113092857D02*
X120204761Y-113140476D01*
X120252380Y-113283333D01*
X120252380Y-113378571D01*
X120204761Y-113521428D01*
X120109523Y-113616666D01*
X120014285Y-113664285D01*
X119823809Y-113711904D01*
X119680952Y-113711904D01*
X119490476Y-113664285D01*
X119395238Y-113616666D01*
X119300000Y-113521428D01*
X119252380Y-113378571D01*
X119252380Y-113283333D01*
X119300000Y-113140476D01*
X119347619Y-113092857D01*
X120252380Y-112140476D02*
X120252380Y-112711904D01*
X120252380Y-112426190D02*
X119252380Y-112426190D01*
X119395238Y-112521428D01*
X119490476Y-112616666D01*
X119538095Y-112711904D01*
X119252380Y-111521428D02*
X119252380Y-111426190D01*
X119300000Y-111330952D01*
X119347619Y-111283333D01*
X119442857Y-111235714D01*
X119633333Y-111188095D01*
X119871428Y-111188095D01*
X120061904Y-111235714D01*
X120157142Y-111283333D01*
X120204761Y-111330952D01*
X120252380Y-111426190D01*
X120252380Y-111521428D01*
X120204761Y-111616666D01*
X120157142Y-111664285D01*
X120061904Y-111711904D01*
X119871428Y-111759523D01*
X119633333Y-111759523D01*
X119442857Y-111711904D01*
X119347619Y-111664285D01*
X119300000Y-111616666D01*
X119252380Y-111521428D01*
%TO.C,U2*%
X144252380Y-98161904D02*
X145061904Y-98161904D01*
X145157142Y-98114285D01*
X145204761Y-98066666D01*
X145252380Y-97971428D01*
X145252380Y-97780952D01*
X145204761Y-97685714D01*
X145157142Y-97638095D01*
X145061904Y-97590476D01*
X144252380Y-97590476D01*
X144347619Y-97161904D02*
X144300000Y-97114285D01*
X144252380Y-97019047D01*
X144252380Y-96780952D01*
X144300000Y-96685714D01*
X144347619Y-96638095D01*
X144442857Y-96590476D01*
X144538095Y-96590476D01*
X144680952Y-96638095D01*
X145252380Y-97209523D01*
X145252380Y-96590476D01*
%TO.C,C17*%
X126477142Y-101642857D02*
X126524761Y-101690476D01*
X126572380Y-101833333D01*
X126572380Y-101928571D01*
X126524761Y-102071428D01*
X126429523Y-102166666D01*
X126334285Y-102214285D01*
X126143809Y-102261904D01*
X126000952Y-102261904D01*
X125810476Y-102214285D01*
X125715238Y-102166666D01*
X125620000Y-102071428D01*
X125572380Y-101928571D01*
X125572380Y-101833333D01*
X125620000Y-101690476D01*
X125667619Y-101642857D01*
X126572380Y-100690476D02*
X126572380Y-101261904D01*
X126572380Y-100976190D02*
X125572380Y-100976190D01*
X125715238Y-101071428D01*
X125810476Y-101166666D01*
X125858095Y-101261904D01*
X125572380Y-100357142D02*
X125572380Y-99690476D01*
X126572380Y-100119047D01*
%TO.C,R23*%
X102652380Y-191642857D02*
X102176190Y-191976190D01*
X102652380Y-192214285D02*
X101652380Y-192214285D01*
X101652380Y-191833333D01*
X101700000Y-191738095D01*
X101747619Y-191690476D01*
X101842857Y-191642857D01*
X101985714Y-191642857D01*
X102080952Y-191690476D01*
X102128571Y-191738095D01*
X102176190Y-191833333D01*
X102176190Y-192214285D01*
X101747619Y-191261904D02*
X101700000Y-191214285D01*
X101652380Y-191119047D01*
X101652380Y-190880952D01*
X101700000Y-190785714D01*
X101747619Y-190738095D01*
X101842857Y-190690476D01*
X101938095Y-190690476D01*
X102080952Y-190738095D01*
X102652380Y-191309523D01*
X102652380Y-190690476D01*
X101652380Y-190357142D02*
X101652380Y-189738095D01*
X102033333Y-190071428D01*
X102033333Y-189928571D01*
X102080952Y-189833333D01*
X102128571Y-189785714D01*
X102223809Y-189738095D01*
X102461904Y-189738095D01*
X102557142Y-189785714D01*
X102604761Y-189833333D01*
X102652380Y-189928571D01*
X102652380Y-190214285D01*
X102604761Y-190309523D01*
X102557142Y-190357142D01*
%TO.C,R56*%
X111062142Y-73402380D02*
X110728809Y-72926190D01*
X110490714Y-73402380D02*
X110490714Y-72402380D01*
X110871666Y-72402380D01*
X110966904Y-72450000D01*
X111014523Y-72497619D01*
X111062142Y-72592857D01*
X111062142Y-72735714D01*
X111014523Y-72830952D01*
X110966904Y-72878571D01*
X110871666Y-72926190D01*
X110490714Y-72926190D01*
X111966904Y-72402380D02*
X111490714Y-72402380D01*
X111443095Y-72878571D01*
X111490714Y-72830952D01*
X111585952Y-72783333D01*
X111824047Y-72783333D01*
X111919285Y-72830952D01*
X111966904Y-72878571D01*
X112014523Y-72973809D01*
X112014523Y-73211904D01*
X111966904Y-73307142D01*
X111919285Y-73354761D01*
X111824047Y-73402380D01*
X111585952Y-73402380D01*
X111490714Y-73354761D01*
X111443095Y-73307142D01*
X112871666Y-72402380D02*
X112681190Y-72402380D01*
X112585952Y-72450000D01*
X112538333Y-72497619D01*
X112443095Y-72640476D01*
X112395476Y-72830952D01*
X112395476Y-73211904D01*
X112443095Y-73307142D01*
X112490714Y-73354761D01*
X112585952Y-73402380D01*
X112776428Y-73402380D01*
X112871666Y-73354761D01*
X112919285Y-73307142D01*
X112966904Y-73211904D01*
X112966904Y-72973809D01*
X112919285Y-72878571D01*
X112871666Y-72830952D01*
X112776428Y-72783333D01*
X112585952Y-72783333D01*
X112490714Y-72830952D01*
X112443095Y-72878571D01*
X112395476Y-72973809D01*
%TO.C,D9*%
X93861904Y-57402380D02*
X93861904Y-56402380D01*
X94100000Y-56402380D01*
X94242857Y-56450000D01*
X94338095Y-56545238D01*
X94385714Y-56640476D01*
X94433333Y-56830952D01*
X94433333Y-56973809D01*
X94385714Y-57164285D01*
X94338095Y-57259523D01*
X94242857Y-57354761D01*
X94100000Y-57402380D01*
X93861904Y-57402380D01*
X94909523Y-57402380D02*
X95100000Y-57402380D01*
X95195238Y-57354761D01*
X95242857Y-57307142D01*
X95338095Y-57164285D01*
X95385714Y-56973809D01*
X95385714Y-56592857D01*
X95338095Y-56497619D01*
X95290476Y-56450000D01*
X95195238Y-56402380D01*
X95004761Y-56402380D01*
X94909523Y-56450000D01*
X94861904Y-56497619D01*
X94814285Y-56592857D01*
X94814285Y-56830952D01*
X94861904Y-56926190D01*
X94909523Y-56973809D01*
X95004761Y-57021428D01*
X95195238Y-57021428D01*
X95290476Y-56973809D01*
X95338095Y-56926190D01*
X95385714Y-56830952D01*
%TO.C,R28*%
X99252380Y-148242857D02*
X98776190Y-148576190D01*
X99252380Y-148814285D02*
X98252380Y-148814285D01*
X98252380Y-148433333D01*
X98300000Y-148338095D01*
X98347619Y-148290476D01*
X98442857Y-148242857D01*
X98585714Y-148242857D01*
X98680952Y-148290476D01*
X98728571Y-148338095D01*
X98776190Y-148433333D01*
X98776190Y-148814285D01*
X98347619Y-147861904D02*
X98300000Y-147814285D01*
X98252380Y-147719047D01*
X98252380Y-147480952D01*
X98300000Y-147385714D01*
X98347619Y-147338095D01*
X98442857Y-147290476D01*
X98538095Y-147290476D01*
X98680952Y-147338095D01*
X99252380Y-147909523D01*
X99252380Y-147290476D01*
X98680952Y-146719047D02*
X98633333Y-146814285D01*
X98585714Y-146861904D01*
X98490476Y-146909523D01*
X98442857Y-146909523D01*
X98347619Y-146861904D01*
X98300000Y-146814285D01*
X98252380Y-146719047D01*
X98252380Y-146528571D01*
X98300000Y-146433333D01*
X98347619Y-146385714D01*
X98442857Y-146338095D01*
X98490476Y-146338095D01*
X98585714Y-146385714D01*
X98633333Y-146433333D01*
X98680952Y-146528571D01*
X98680952Y-146719047D01*
X98728571Y-146814285D01*
X98776190Y-146861904D01*
X98871428Y-146909523D01*
X99061904Y-146909523D01*
X99157142Y-146861904D01*
X99204761Y-146814285D01*
X99252380Y-146719047D01*
X99252380Y-146528571D01*
X99204761Y-146433333D01*
X99157142Y-146385714D01*
X99061904Y-146338095D01*
X98871428Y-146338095D01*
X98776190Y-146385714D01*
X98728571Y-146433333D01*
X98680952Y-146528571D01*
%TO.C,R22*%
X98852380Y-126642857D02*
X98376190Y-126976190D01*
X98852380Y-127214285D02*
X97852380Y-127214285D01*
X97852380Y-126833333D01*
X97900000Y-126738095D01*
X97947619Y-126690476D01*
X98042857Y-126642857D01*
X98185714Y-126642857D01*
X98280952Y-126690476D01*
X98328571Y-126738095D01*
X98376190Y-126833333D01*
X98376190Y-127214285D01*
X97947619Y-126261904D02*
X97900000Y-126214285D01*
X97852380Y-126119047D01*
X97852380Y-125880952D01*
X97900000Y-125785714D01*
X97947619Y-125738095D01*
X98042857Y-125690476D01*
X98138095Y-125690476D01*
X98280952Y-125738095D01*
X98852380Y-126309523D01*
X98852380Y-125690476D01*
X97947619Y-125309523D02*
X97900000Y-125261904D01*
X97852380Y-125166666D01*
X97852380Y-124928571D01*
X97900000Y-124833333D01*
X97947619Y-124785714D01*
X98042857Y-124738095D01*
X98138095Y-124738095D01*
X98280952Y-124785714D01*
X98852380Y-125357142D01*
X98852380Y-124738095D01*
%TO.C,R52*%
X90157142Y-123802380D02*
X89823809Y-123326190D01*
X89585714Y-123802380D02*
X89585714Y-122802380D01*
X89966666Y-122802380D01*
X90061904Y-122850000D01*
X90109523Y-122897619D01*
X90157142Y-122992857D01*
X90157142Y-123135714D01*
X90109523Y-123230952D01*
X90061904Y-123278571D01*
X89966666Y-123326190D01*
X89585714Y-123326190D01*
X91061904Y-122802380D02*
X90585714Y-122802380D01*
X90538095Y-123278571D01*
X90585714Y-123230952D01*
X90680952Y-123183333D01*
X90919047Y-123183333D01*
X91014285Y-123230952D01*
X91061904Y-123278571D01*
X91109523Y-123373809D01*
X91109523Y-123611904D01*
X91061904Y-123707142D01*
X91014285Y-123754761D01*
X90919047Y-123802380D01*
X90680952Y-123802380D01*
X90585714Y-123754761D01*
X90538095Y-123707142D01*
X91490476Y-122897619D02*
X91538095Y-122850000D01*
X91633333Y-122802380D01*
X91871428Y-122802380D01*
X91966666Y-122850000D01*
X92014285Y-122897619D01*
X92061904Y-122992857D01*
X92061904Y-123088095D01*
X92014285Y-123230952D01*
X91442857Y-123802380D01*
X92061904Y-123802380D01*
%TO.C,R47*%
X89757142Y-57402380D02*
X89423809Y-56926190D01*
X89185714Y-57402380D02*
X89185714Y-56402380D01*
X89566666Y-56402380D01*
X89661904Y-56450000D01*
X89709523Y-56497619D01*
X89757142Y-56592857D01*
X89757142Y-56735714D01*
X89709523Y-56830952D01*
X89661904Y-56878571D01*
X89566666Y-56926190D01*
X89185714Y-56926190D01*
X90614285Y-56735714D02*
X90614285Y-57402380D01*
X90376190Y-56354761D02*
X90138095Y-57069047D01*
X90757142Y-57069047D01*
X91042857Y-56402380D02*
X91709523Y-56402380D01*
X91280952Y-57402380D01*
%TO.C,J2*%
X175102380Y-111533333D02*
X175816666Y-111533333D01*
X175959523Y-111580952D01*
X176054761Y-111676190D01*
X176102380Y-111819047D01*
X176102380Y-111914285D01*
X175197619Y-111104761D02*
X175150000Y-111057142D01*
X175102380Y-110961904D01*
X175102380Y-110723809D01*
X175150000Y-110628571D01*
X175197619Y-110580952D01*
X175292857Y-110533333D01*
X175388095Y-110533333D01*
X175530952Y-110580952D01*
X176102380Y-111152380D01*
X176102380Y-110533333D01*
X172757142Y-117242857D02*
X172804761Y-117290476D01*
X172852380Y-117433333D01*
X172852380Y-117528571D01*
X172804761Y-117671428D01*
X172709523Y-117766666D01*
X172614285Y-117814285D01*
X172423809Y-117861904D01*
X172280952Y-117861904D01*
X172090476Y-117814285D01*
X171995238Y-117766666D01*
X171900000Y-117671428D01*
X171852380Y-117528571D01*
X171852380Y-117433333D01*
X171900000Y-117290476D01*
X171947619Y-117242857D01*
X172566666Y-116861904D02*
X172566666Y-116385714D01*
X172852380Y-116957142D02*
X171852380Y-116623809D01*
X172852380Y-116290476D01*
X172852380Y-115957142D02*
X171852380Y-115957142D01*
X172852380Y-115385714D01*
X171852380Y-115385714D01*
%TO.C,C14*%
X150437142Y-93842857D02*
X150484761Y-93890476D01*
X150532380Y-94033333D01*
X150532380Y-94128571D01*
X150484761Y-94271428D01*
X150389523Y-94366666D01*
X150294285Y-94414285D01*
X150103809Y-94461904D01*
X149960952Y-94461904D01*
X149770476Y-94414285D01*
X149675238Y-94366666D01*
X149580000Y-94271428D01*
X149532380Y-94128571D01*
X149532380Y-94033333D01*
X149580000Y-93890476D01*
X149627619Y-93842857D01*
X150532380Y-92890476D02*
X150532380Y-93461904D01*
X150532380Y-93176190D02*
X149532380Y-93176190D01*
X149675238Y-93271428D01*
X149770476Y-93366666D01*
X149818095Y-93461904D01*
X149865714Y-92033333D02*
X150532380Y-92033333D01*
X149484761Y-92271428D02*
X150199047Y-92509523D01*
X150199047Y-91890476D01*
%TO.C,R4*%
X97002380Y-80966666D02*
X96526190Y-81300000D01*
X97002380Y-81538095D02*
X96002380Y-81538095D01*
X96002380Y-81157142D01*
X96050000Y-81061904D01*
X96097619Y-81014285D01*
X96192857Y-80966666D01*
X96335714Y-80966666D01*
X96430952Y-81014285D01*
X96478571Y-81061904D01*
X96526190Y-81157142D01*
X96526190Y-81538095D01*
X96335714Y-80109523D02*
X97002380Y-80109523D01*
X95954761Y-80347619D02*
X96669047Y-80585714D01*
X96669047Y-79966666D01*
%TO.C,Q9*%
X98947619Y-138295238D02*
X98900000Y-138390476D01*
X98804761Y-138485714D01*
X98661904Y-138628571D01*
X98614285Y-138723809D01*
X98614285Y-138819047D01*
X98852380Y-138771428D02*
X98804761Y-138866666D01*
X98709523Y-138961904D01*
X98519047Y-139009523D01*
X98185714Y-139009523D01*
X97995238Y-138961904D01*
X97900000Y-138866666D01*
X97852380Y-138771428D01*
X97852380Y-138580952D01*
X97900000Y-138485714D01*
X97995238Y-138390476D01*
X98185714Y-138342857D01*
X98519047Y-138342857D01*
X98709523Y-138390476D01*
X98804761Y-138485714D01*
X98852380Y-138580952D01*
X98852380Y-138771428D01*
X98852380Y-137866666D02*
X98852380Y-137676190D01*
X98804761Y-137580952D01*
X98757142Y-137533333D01*
X98614285Y-137438095D01*
X98423809Y-137390476D01*
X98042857Y-137390476D01*
X97947619Y-137438095D01*
X97900000Y-137485714D01*
X97852380Y-137580952D01*
X97852380Y-137771428D01*
X97900000Y-137866666D01*
X97947619Y-137914285D01*
X98042857Y-137961904D01*
X98280952Y-137961904D01*
X98376190Y-137914285D01*
X98423809Y-137866666D01*
X98471428Y-137771428D01*
X98471428Y-137580952D01*
X98423809Y-137485714D01*
X98376190Y-137438095D01*
X98280952Y-137390476D01*
%TO.C,R37*%
X121852380Y-140442857D02*
X121376190Y-140776190D01*
X121852380Y-141014285D02*
X120852380Y-141014285D01*
X120852380Y-140633333D01*
X120900000Y-140538095D01*
X120947619Y-140490476D01*
X121042857Y-140442857D01*
X121185714Y-140442857D01*
X121280952Y-140490476D01*
X121328571Y-140538095D01*
X121376190Y-140633333D01*
X121376190Y-141014285D01*
X120852380Y-140109523D02*
X120852380Y-139490476D01*
X121233333Y-139823809D01*
X121233333Y-139680952D01*
X121280952Y-139585714D01*
X121328571Y-139538095D01*
X121423809Y-139490476D01*
X121661904Y-139490476D01*
X121757142Y-139538095D01*
X121804761Y-139585714D01*
X121852380Y-139680952D01*
X121852380Y-139966666D01*
X121804761Y-140061904D01*
X121757142Y-140109523D01*
X120852380Y-139157142D02*
X120852380Y-138490476D01*
X121852380Y-138919047D01*
%TO.C,R1*%
X98052380Y-75566666D02*
X97576190Y-75900000D01*
X98052380Y-76138095D02*
X97052380Y-76138095D01*
X97052380Y-75757142D01*
X97100000Y-75661904D01*
X97147619Y-75614285D01*
X97242857Y-75566666D01*
X97385714Y-75566666D01*
X97480952Y-75614285D01*
X97528571Y-75661904D01*
X97576190Y-75757142D01*
X97576190Y-76138095D01*
X98052380Y-74614285D02*
X98052380Y-75185714D01*
X98052380Y-74900000D02*
X97052380Y-74900000D01*
X97195238Y-74995238D01*
X97290476Y-75090476D01*
X97338095Y-75185714D01*
%TO.C,R39*%
X163756301Y-90471900D02*
X163422968Y-89995710D01*
X163184873Y-90471900D02*
X163184873Y-89471900D01*
X163565825Y-89471900D01*
X163661063Y-89519520D01*
X163708682Y-89567139D01*
X163756301Y-89662377D01*
X163756301Y-89805234D01*
X163708682Y-89900472D01*
X163661063Y-89948091D01*
X163565825Y-89995710D01*
X163184873Y-89995710D01*
X164089635Y-89471900D02*
X164708682Y-89471900D01*
X164375349Y-89852853D01*
X164518206Y-89852853D01*
X164613444Y-89900472D01*
X164661063Y-89948091D01*
X164708682Y-90043329D01*
X164708682Y-90281424D01*
X164661063Y-90376662D01*
X164613444Y-90424281D01*
X164518206Y-90471900D01*
X164232492Y-90471900D01*
X164137254Y-90424281D01*
X164089635Y-90376662D01*
X165184873Y-90471900D02*
X165375349Y-90471900D01*
X165470587Y-90424281D01*
X165518206Y-90376662D01*
X165613444Y-90233805D01*
X165661063Y-90043329D01*
X165661063Y-89662377D01*
X165613444Y-89567139D01*
X165565825Y-89519520D01*
X165470587Y-89471900D01*
X165280111Y-89471900D01*
X165184873Y-89519520D01*
X165137254Y-89567139D01*
X165089635Y-89662377D01*
X165089635Y-89900472D01*
X165137254Y-89995710D01*
X165184873Y-90043329D01*
X165280111Y-90090948D01*
X165470587Y-90090948D01*
X165565825Y-90043329D01*
X165613444Y-89995710D01*
X165661063Y-89900472D01*
%TO.C,R46*%
X90157142Y-115402380D02*
X89823809Y-114926190D01*
X89585714Y-115402380D02*
X89585714Y-114402380D01*
X89966666Y-114402380D01*
X90061904Y-114450000D01*
X90109523Y-114497619D01*
X90157142Y-114592857D01*
X90157142Y-114735714D01*
X90109523Y-114830952D01*
X90061904Y-114878571D01*
X89966666Y-114926190D01*
X89585714Y-114926190D01*
X91014285Y-114735714D02*
X91014285Y-115402380D01*
X90776190Y-114354761D02*
X90538095Y-115069047D01*
X91157142Y-115069047D01*
X91966666Y-114402380D02*
X91776190Y-114402380D01*
X91680952Y-114450000D01*
X91633333Y-114497619D01*
X91538095Y-114640476D01*
X91490476Y-114830952D01*
X91490476Y-115211904D01*
X91538095Y-115307142D01*
X91585714Y-115354761D01*
X91680952Y-115402380D01*
X91871428Y-115402380D01*
X91966666Y-115354761D01*
X92014285Y-115307142D01*
X92061904Y-115211904D01*
X92061904Y-114973809D01*
X92014285Y-114878571D01*
X91966666Y-114830952D01*
X91871428Y-114783333D01*
X91680952Y-114783333D01*
X91585714Y-114830952D01*
X91538095Y-114878571D01*
X91490476Y-114973809D01*
%TO.C,C3*%
X116277142Y-82366666D02*
X116324761Y-82414285D01*
X116372380Y-82557142D01*
X116372380Y-82652380D01*
X116324761Y-82795238D01*
X116229523Y-82890476D01*
X116134285Y-82938095D01*
X115943809Y-82985714D01*
X115800952Y-82985714D01*
X115610476Y-82938095D01*
X115515238Y-82890476D01*
X115420000Y-82795238D01*
X115372380Y-82652380D01*
X115372380Y-82557142D01*
X115420000Y-82414285D01*
X115467619Y-82366666D01*
X115372380Y-82033333D02*
X115372380Y-81414285D01*
X115753333Y-81747619D01*
X115753333Y-81604761D01*
X115800952Y-81509523D01*
X115848571Y-81461904D01*
X115943809Y-81414285D01*
X116181904Y-81414285D01*
X116277142Y-81461904D01*
X116324761Y-81509523D01*
X116372380Y-81604761D01*
X116372380Y-81890476D01*
X116324761Y-81985714D01*
X116277142Y-82033333D01*
%TO.C,Q2*%
X98210119Y-80945238D02*
X98162500Y-81040476D01*
X98067261Y-81135714D01*
X97924404Y-81278571D01*
X97876785Y-81373809D01*
X97876785Y-81469047D01*
X98114880Y-81421428D02*
X98067261Y-81516666D01*
X97972023Y-81611904D01*
X97781547Y-81659523D01*
X97448214Y-81659523D01*
X97257738Y-81611904D01*
X97162500Y-81516666D01*
X97114880Y-81421428D01*
X97114880Y-81230952D01*
X97162500Y-81135714D01*
X97257738Y-81040476D01*
X97448214Y-80992857D01*
X97781547Y-80992857D01*
X97972023Y-81040476D01*
X98067261Y-81135714D01*
X98114880Y-81230952D01*
X98114880Y-81421428D01*
X97210119Y-80611904D02*
X97162500Y-80564285D01*
X97114880Y-80469047D01*
X97114880Y-80230952D01*
X97162500Y-80135714D01*
X97210119Y-80088095D01*
X97305357Y-80040476D01*
X97400595Y-80040476D01*
X97543452Y-80088095D01*
X98114880Y-80659523D01*
X98114880Y-80040476D01*
%TO.C,D8*%
X94524404Y-115402380D02*
X94524404Y-114402380D01*
X94762500Y-114402380D01*
X94905357Y-114450000D01*
X95000595Y-114545238D01*
X95048214Y-114640476D01*
X95095833Y-114830952D01*
X95095833Y-114973809D01*
X95048214Y-115164285D01*
X95000595Y-115259523D01*
X94905357Y-115354761D01*
X94762500Y-115402380D01*
X94524404Y-115402380D01*
X95667261Y-114830952D02*
X95572023Y-114783333D01*
X95524404Y-114735714D01*
X95476785Y-114640476D01*
X95476785Y-114592857D01*
X95524404Y-114497619D01*
X95572023Y-114450000D01*
X95667261Y-114402380D01*
X95857738Y-114402380D01*
X95952976Y-114450000D01*
X96000595Y-114497619D01*
X96048214Y-114592857D01*
X96048214Y-114640476D01*
X96000595Y-114735714D01*
X95952976Y-114783333D01*
X95857738Y-114830952D01*
X95667261Y-114830952D01*
X95572023Y-114878571D01*
X95524404Y-114926190D01*
X95476785Y-115021428D01*
X95476785Y-115211904D01*
X95524404Y-115307142D01*
X95572023Y-115354761D01*
X95667261Y-115402380D01*
X95857738Y-115402380D01*
X95952976Y-115354761D01*
X96000595Y-115307142D01*
X96048214Y-115211904D01*
X96048214Y-115021428D01*
X96000595Y-114926190D01*
X95952976Y-114878571D01*
X95857738Y-114830952D01*
%TO.C,Q8*%
X95147619Y-131695238D02*
X95100000Y-131790476D01*
X95004761Y-131885714D01*
X94861904Y-132028571D01*
X94814285Y-132123809D01*
X94814285Y-132219047D01*
X95052380Y-132171428D02*
X95004761Y-132266666D01*
X94909523Y-132361904D01*
X94719047Y-132409523D01*
X94385714Y-132409523D01*
X94195238Y-132361904D01*
X94100000Y-132266666D01*
X94052380Y-132171428D01*
X94052380Y-131980952D01*
X94100000Y-131885714D01*
X94195238Y-131790476D01*
X94385714Y-131742857D01*
X94719047Y-131742857D01*
X94909523Y-131790476D01*
X95004761Y-131885714D01*
X95052380Y-131980952D01*
X95052380Y-132171428D01*
X94480952Y-131171428D02*
X94433333Y-131266666D01*
X94385714Y-131314285D01*
X94290476Y-131361904D01*
X94242857Y-131361904D01*
X94147619Y-131314285D01*
X94100000Y-131266666D01*
X94052380Y-131171428D01*
X94052380Y-130980952D01*
X94100000Y-130885714D01*
X94147619Y-130838095D01*
X94242857Y-130790476D01*
X94290476Y-130790476D01*
X94385714Y-130838095D01*
X94433333Y-130885714D01*
X94480952Y-130980952D01*
X94480952Y-131171428D01*
X94528571Y-131266666D01*
X94576190Y-131314285D01*
X94671428Y-131361904D01*
X94861904Y-131361904D01*
X94957142Y-131314285D01*
X95004761Y-131266666D01*
X95052380Y-131171428D01*
X95052380Y-130980952D01*
X95004761Y-130885714D01*
X94957142Y-130838095D01*
X94861904Y-130790476D01*
X94671428Y-130790476D01*
X94576190Y-130838095D01*
X94528571Y-130885714D01*
X94480952Y-130980952D01*
%TO.C,J3*%
X130666666Y-50552380D02*
X130666666Y-51266666D01*
X130619047Y-51409523D01*
X130523809Y-51504761D01*
X130380952Y-51552380D01*
X130285714Y-51552380D01*
X131047619Y-50552380D02*
X131666666Y-50552380D01*
X131333333Y-50933333D01*
X131476190Y-50933333D01*
X131571428Y-50980952D01*
X131619047Y-51028571D01*
X131666666Y-51123809D01*
X131666666Y-51361904D01*
X131619047Y-51457142D01*
X131571428Y-51504761D01*
X131476190Y-51552380D01*
X131190476Y-51552380D01*
X131095238Y-51504761D01*
X131047619Y-51457142D01*
%TO.C,R12*%
X87957142Y-95432380D02*
X87623809Y-94956190D01*
X87385714Y-95432380D02*
X87385714Y-94432380D01*
X87766666Y-94432380D01*
X87861904Y-94480000D01*
X87909523Y-94527619D01*
X87957142Y-94622857D01*
X87957142Y-94765714D01*
X87909523Y-94860952D01*
X87861904Y-94908571D01*
X87766666Y-94956190D01*
X87385714Y-94956190D01*
X88909523Y-95432380D02*
X88338095Y-95432380D01*
X88623809Y-95432380D02*
X88623809Y-94432380D01*
X88528571Y-94575238D01*
X88433333Y-94670476D01*
X88338095Y-94718095D01*
X89290476Y-94527619D02*
X89338095Y-94480000D01*
X89433333Y-94432380D01*
X89671428Y-94432380D01*
X89766666Y-94480000D01*
X89814285Y-94527619D01*
X89861904Y-94622857D01*
X89861904Y-94718095D01*
X89814285Y-94860952D01*
X89242857Y-95432380D01*
X89861904Y-95432380D01*
%TO.C,C1*%
X113957142Y-84766666D02*
X114004761Y-84814285D01*
X114052380Y-84957142D01*
X114052380Y-85052380D01*
X114004761Y-85195238D01*
X113909523Y-85290476D01*
X113814285Y-85338095D01*
X113623809Y-85385714D01*
X113480952Y-85385714D01*
X113290476Y-85338095D01*
X113195238Y-85290476D01*
X113100000Y-85195238D01*
X113052380Y-85052380D01*
X113052380Y-84957142D01*
X113100000Y-84814285D01*
X113147619Y-84766666D01*
X114052380Y-83814285D02*
X114052380Y-84385714D01*
X114052380Y-84100000D02*
X113052380Y-84100000D01*
X113195238Y-84195238D01*
X113290476Y-84290476D01*
X113338095Y-84385714D01*
%TO.C,C23*%
X160976301Y-88512377D02*
X161023920Y-88559996D01*
X161071539Y-88702853D01*
X161071539Y-88798091D01*
X161023920Y-88940948D01*
X160928682Y-89036186D01*
X160833444Y-89083805D01*
X160642968Y-89131424D01*
X160500111Y-89131424D01*
X160309635Y-89083805D01*
X160214397Y-89036186D01*
X160119159Y-88940948D01*
X160071539Y-88798091D01*
X160071539Y-88702853D01*
X160119159Y-88559996D01*
X160166778Y-88512377D01*
X160166778Y-88131424D02*
X160119159Y-88083805D01*
X160071539Y-87988567D01*
X160071539Y-87750472D01*
X160119159Y-87655234D01*
X160166778Y-87607615D01*
X160262016Y-87559996D01*
X160357254Y-87559996D01*
X160500111Y-87607615D01*
X161071539Y-88179043D01*
X161071539Y-87559996D01*
X160071539Y-87226662D02*
X160071539Y-86607615D01*
X160452492Y-86940948D01*
X160452492Y-86798091D01*
X160500111Y-86702853D01*
X160547730Y-86655234D01*
X160642968Y-86607615D01*
X160881063Y-86607615D01*
X160976301Y-86655234D01*
X161023920Y-86702853D01*
X161071539Y-86798091D01*
X161071539Y-87083805D01*
X161023920Y-87179043D01*
X160976301Y-87226662D01*
%TO.C,C6*%
X116157142Y-112216666D02*
X116204761Y-112264285D01*
X116252380Y-112407142D01*
X116252380Y-112502380D01*
X116204761Y-112645238D01*
X116109523Y-112740476D01*
X116014285Y-112788095D01*
X115823809Y-112835714D01*
X115680952Y-112835714D01*
X115490476Y-112788095D01*
X115395238Y-112740476D01*
X115300000Y-112645238D01*
X115252380Y-112502380D01*
X115252380Y-112407142D01*
X115300000Y-112264285D01*
X115347619Y-112216666D01*
X115252380Y-111359523D02*
X115252380Y-111550000D01*
X115300000Y-111645238D01*
X115347619Y-111692857D01*
X115490476Y-111788095D01*
X115680952Y-111835714D01*
X116061904Y-111835714D01*
X116157142Y-111788095D01*
X116204761Y-111740476D01*
X116252380Y-111645238D01*
X116252380Y-111454761D01*
X116204761Y-111359523D01*
X116157142Y-111311904D01*
X116061904Y-111264285D01*
X115823809Y-111264285D01*
X115728571Y-111311904D01*
X115680952Y-111359523D01*
X115633333Y-111454761D01*
X115633333Y-111645238D01*
X115680952Y-111740476D01*
X115728571Y-111788095D01*
X115823809Y-111835714D01*
%TO.C,R7*%
X97002380Y-89166666D02*
X96526190Y-89500000D01*
X97002380Y-89738095D02*
X96002380Y-89738095D01*
X96002380Y-89357142D01*
X96050000Y-89261904D01*
X96097619Y-89214285D01*
X96192857Y-89166666D01*
X96335714Y-89166666D01*
X96430952Y-89214285D01*
X96478571Y-89261904D01*
X96526190Y-89357142D01*
X96526190Y-89738095D01*
X96002380Y-88833333D02*
X96002380Y-88166666D01*
X97002380Y-88595238D01*
%TO.C,C25*%
X155877142Y-111442857D02*
X155924761Y-111490476D01*
X155972380Y-111633333D01*
X155972380Y-111728571D01*
X155924761Y-111871428D01*
X155829523Y-111966666D01*
X155734285Y-112014285D01*
X155543809Y-112061904D01*
X155400952Y-112061904D01*
X155210476Y-112014285D01*
X155115238Y-111966666D01*
X155020000Y-111871428D01*
X154972380Y-111728571D01*
X154972380Y-111633333D01*
X155020000Y-111490476D01*
X155067619Y-111442857D01*
X155067619Y-111061904D02*
X155020000Y-111014285D01*
X154972380Y-110919047D01*
X154972380Y-110680952D01*
X155020000Y-110585714D01*
X155067619Y-110538095D01*
X155162857Y-110490476D01*
X155258095Y-110490476D01*
X155400952Y-110538095D01*
X155972380Y-111109523D01*
X155972380Y-110490476D01*
X154972380Y-109585714D02*
X154972380Y-110061904D01*
X155448571Y-110109523D01*
X155400952Y-110061904D01*
X155353333Y-109966666D01*
X155353333Y-109728571D01*
X155400952Y-109633333D01*
X155448571Y-109585714D01*
X155543809Y-109538095D01*
X155781904Y-109538095D01*
X155877142Y-109585714D01*
X155924761Y-109633333D01*
X155972380Y-109728571D01*
X155972380Y-109966666D01*
X155924761Y-110061904D01*
X155877142Y-110109523D01*
%TO.C,R26*%
X101052380Y-140442857D02*
X100576190Y-140776190D01*
X101052380Y-141014285D02*
X100052380Y-141014285D01*
X100052380Y-140633333D01*
X100100000Y-140538095D01*
X100147619Y-140490476D01*
X100242857Y-140442857D01*
X100385714Y-140442857D01*
X100480952Y-140490476D01*
X100528571Y-140538095D01*
X100576190Y-140633333D01*
X100576190Y-141014285D01*
X100147619Y-140061904D02*
X100100000Y-140014285D01*
X100052380Y-139919047D01*
X100052380Y-139680952D01*
X100100000Y-139585714D01*
X100147619Y-139538095D01*
X100242857Y-139490476D01*
X100338095Y-139490476D01*
X100480952Y-139538095D01*
X101052380Y-140109523D01*
X101052380Y-139490476D01*
X100052380Y-138633333D02*
X100052380Y-138823809D01*
X100100000Y-138919047D01*
X100147619Y-138966666D01*
X100290476Y-139061904D01*
X100480952Y-139109523D01*
X100861904Y-139109523D01*
X100957142Y-139061904D01*
X101004761Y-139014285D01*
X101052380Y-138919047D01*
X101052380Y-138728571D01*
X101004761Y-138633333D01*
X100957142Y-138585714D01*
X100861904Y-138538095D01*
X100623809Y-138538095D01*
X100528571Y-138585714D01*
X100480952Y-138633333D01*
X100433333Y-138728571D01*
X100433333Y-138919047D01*
X100480952Y-139014285D01*
X100528571Y-139061904D01*
X100623809Y-139109523D01*
%TO.C,D7*%
X94661904Y-107402380D02*
X94661904Y-106402380D01*
X94900000Y-106402380D01*
X95042857Y-106450000D01*
X95138095Y-106545238D01*
X95185714Y-106640476D01*
X95233333Y-106830952D01*
X95233333Y-106973809D01*
X95185714Y-107164285D01*
X95138095Y-107259523D01*
X95042857Y-107354761D01*
X94900000Y-107402380D01*
X94661904Y-107402380D01*
X95566666Y-106402380D02*
X96233333Y-106402380D01*
X95804761Y-107402380D01*
%TO.C,R31*%
X96602380Y-64442857D02*
X96126190Y-64776190D01*
X96602380Y-65014285D02*
X95602380Y-65014285D01*
X95602380Y-64633333D01*
X95650000Y-64538095D01*
X95697619Y-64490476D01*
X95792857Y-64442857D01*
X95935714Y-64442857D01*
X96030952Y-64490476D01*
X96078571Y-64538095D01*
X96126190Y-64633333D01*
X96126190Y-65014285D01*
X95602380Y-64109523D02*
X95602380Y-63490476D01*
X95983333Y-63823809D01*
X95983333Y-63680952D01*
X96030952Y-63585714D01*
X96078571Y-63538095D01*
X96173809Y-63490476D01*
X96411904Y-63490476D01*
X96507142Y-63538095D01*
X96554761Y-63585714D01*
X96602380Y-63680952D01*
X96602380Y-63966666D01*
X96554761Y-64061904D01*
X96507142Y-64109523D01*
X96602380Y-62538095D02*
X96602380Y-63109523D01*
X96602380Y-62823809D02*
X95602380Y-62823809D01*
X95745238Y-62919047D01*
X95840476Y-63014285D01*
X95888095Y-63109523D01*
%TO.C,C39*%
X152437142Y-69342857D02*
X152484761Y-69390476D01*
X152532380Y-69533333D01*
X152532380Y-69628571D01*
X152484761Y-69771428D01*
X152389523Y-69866666D01*
X152294285Y-69914285D01*
X152103809Y-69961904D01*
X151960952Y-69961904D01*
X151770476Y-69914285D01*
X151675238Y-69866666D01*
X151580000Y-69771428D01*
X151532380Y-69628571D01*
X151532380Y-69533333D01*
X151580000Y-69390476D01*
X151627619Y-69342857D01*
X151532380Y-69009523D02*
X151532380Y-68390476D01*
X151913333Y-68723809D01*
X151913333Y-68580952D01*
X151960952Y-68485714D01*
X152008571Y-68438095D01*
X152103809Y-68390476D01*
X152341904Y-68390476D01*
X152437142Y-68438095D01*
X152484761Y-68485714D01*
X152532380Y-68580952D01*
X152532380Y-68866666D01*
X152484761Y-68961904D01*
X152437142Y-69009523D01*
X152532380Y-67914285D02*
X152532380Y-67723809D01*
X152484761Y-67628571D01*
X152437142Y-67580952D01*
X152294285Y-67485714D01*
X152103809Y-67438095D01*
X151722857Y-67438095D01*
X151627619Y-67485714D01*
X151580000Y-67533333D01*
X151532380Y-67628571D01*
X151532380Y-67819047D01*
X151580000Y-67914285D01*
X151627619Y-67961904D01*
X151722857Y-68009523D01*
X151960952Y-68009523D01*
X152056190Y-67961904D01*
X152103809Y-67914285D01*
X152151428Y-67819047D01*
X152151428Y-67628571D01*
X152103809Y-67533333D01*
X152056190Y-67485714D01*
X151960952Y-67438095D01*
%TO.C,R44*%
X88157142Y-99802380D02*
X87823809Y-99326190D01*
X87585714Y-99802380D02*
X87585714Y-98802380D01*
X87966666Y-98802380D01*
X88061904Y-98850000D01*
X88109523Y-98897619D01*
X88157142Y-98992857D01*
X88157142Y-99135714D01*
X88109523Y-99230952D01*
X88061904Y-99278571D01*
X87966666Y-99326190D01*
X87585714Y-99326190D01*
X89014285Y-99135714D02*
X89014285Y-99802380D01*
X88776190Y-98754761D02*
X88538095Y-99469047D01*
X89157142Y-99469047D01*
X89966666Y-99135714D02*
X89966666Y-99802380D01*
X89728571Y-98754761D02*
X89490476Y-99469047D01*
X90109523Y-99469047D01*
%TO.C,D4*%
X94461904Y-82802380D02*
X94461904Y-81802380D01*
X94700000Y-81802380D01*
X94842857Y-81850000D01*
X94938095Y-81945238D01*
X94985714Y-82040476D01*
X95033333Y-82230952D01*
X95033333Y-82373809D01*
X94985714Y-82564285D01*
X94938095Y-82659523D01*
X94842857Y-82754761D01*
X94700000Y-82802380D01*
X94461904Y-82802380D01*
X95890476Y-82135714D02*
X95890476Y-82802380D01*
X95652380Y-81754761D02*
X95414285Y-82469047D01*
X96033333Y-82469047D01*
%TO.C,U9*%
X140138095Y-52152380D02*
X140138095Y-52961904D01*
X140185714Y-53057142D01*
X140233333Y-53104761D01*
X140328571Y-53152380D01*
X140519047Y-53152380D01*
X140614285Y-53104761D01*
X140661904Y-53057142D01*
X140709523Y-52961904D01*
X140709523Y-52152380D01*
X141233333Y-53152380D02*
X141423809Y-53152380D01*
X141519047Y-53104761D01*
X141566666Y-53057142D01*
X141661904Y-52914285D01*
X141709523Y-52723809D01*
X141709523Y-52342857D01*
X141661904Y-52247619D01*
X141614285Y-52200000D01*
X141519047Y-52152380D01*
X141328571Y-52152380D01*
X141233333Y-52200000D01*
X141185714Y-52247619D01*
X141138095Y-52342857D01*
X141138095Y-52580952D01*
X141185714Y-52676190D01*
X141233333Y-52723809D01*
X141328571Y-52771428D01*
X141519047Y-52771428D01*
X141614285Y-52723809D01*
X141661904Y-52676190D01*
X141709523Y-52580952D01*
%TO.C,Q1*%
X97747619Y-72695238D02*
X97700000Y-72790476D01*
X97604761Y-72885714D01*
X97461904Y-73028571D01*
X97414285Y-73123809D01*
X97414285Y-73219047D01*
X97652380Y-73171428D02*
X97604761Y-73266666D01*
X97509523Y-73361904D01*
X97319047Y-73409523D01*
X96985714Y-73409523D01*
X96795238Y-73361904D01*
X96700000Y-73266666D01*
X96652380Y-73171428D01*
X96652380Y-72980952D01*
X96700000Y-72885714D01*
X96795238Y-72790476D01*
X96985714Y-72742857D01*
X97319047Y-72742857D01*
X97509523Y-72790476D01*
X97604761Y-72885714D01*
X97652380Y-72980952D01*
X97652380Y-73171428D01*
X97652380Y-71790476D02*
X97652380Y-72361904D01*
X97652380Y-72076190D02*
X96652380Y-72076190D01*
X96795238Y-72171428D01*
X96890476Y-72266666D01*
X96938095Y-72361904D01*
%TO.C,C18*%
X140557142Y-109637142D02*
X140509523Y-109684761D01*
X140366666Y-109732380D01*
X140271428Y-109732380D01*
X140128571Y-109684761D01*
X140033333Y-109589523D01*
X139985714Y-109494285D01*
X139938095Y-109303809D01*
X139938095Y-109160952D01*
X139985714Y-108970476D01*
X140033333Y-108875238D01*
X140128571Y-108780000D01*
X140271428Y-108732380D01*
X140366666Y-108732380D01*
X140509523Y-108780000D01*
X140557142Y-108827619D01*
X141509523Y-109732380D02*
X140938095Y-109732380D01*
X141223809Y-109732380D02*
X141223809Y-108732380D01*
X141128571Y-108875238D01*
X141033333Y-108970476D01*
X140938095Y-109018095D01*
X142080952Y-109160952D02*
X141985714Y-109113333D01*
X141938095Y-109065714D01*
X141890476Y-108970476D01*
X141890476Y-108922857D01*
X141938095Y-108827619D01*
X141985714Y-108780000D01*
X142080952Y-108732380D01*
X142271428Y-108732380D01*
X142366666Y-108780000D01*
X142414285Y-108827619D01*
X142461904Y-108922857D01*
X142461904Y-108970476D01*
X142414285Y-109065714D01*
X142366666Y-109113333D01*
X142271428Y-109160952D01*
X142080952Y-109160952D01*
X141985714Y-109208571D01*
X141938095Y-109256190D01*
X141890476Y-109351428D01*
X141890476Y-109541904D01*
X141938095Y-109637142D01*
X141985714Y-109684761D01*
X142080952Y-109732380D01*
X142271428Y-109732380D01*
X142366666Y-109684761D01*
X142414285Y-109637142D01*
X142461904Y-109541904D01*
X142461904Y-109351428D01*
X142414285Y-109256190D01*
X142366666Y-109208571D01*
X142271428Y-109160952D01*
%TO.C,R50*%
X90644642Y-146402380D02*
X90311309Y-145926190D01*
X90073214Y-146402380D02*
X90073214Y-145402380D01*
X90454166Y-145402380D01*
X90549404Y-145450000D01*
X90597023Y-145497619D01*
X90644642Y-145592857D01*
X90644642Y-145735714D01*
X90597023Y-145830952D01*
X90549404Y-145878571D01*
X90454166Y-145926190D01*
X90073214Y-145926190D01*
X91549404Y-145402380D02*
X91073214Y-145402380D01*
X91025595Y-145878571D01*
X91073214Y-145830952D01*
X91168452Y-145783333D01*
X91406547Y-145783333D01*
X91501785Y-145830952D01*
X91549404Y-145878571D01*
X91597023Y-145973809D01*
X91597023Y-146211904D01*
X91549404Y-146307142D01*
X91501785Y-146354761D01*
X91406547Y-146402380D01*
X91168452Y-146402380D01*
X91073214Y-146354761D01*
X91025595Y-146307142D01*
X92216071Y-145402380D02*
X92311309Y-145402380D01*
X92406547Y-145450000D01*
X92454166Y-145497619D01*
X92501785Y-145592857D01*
X92549404Y-145783333D01*
X92549404Y-146021428D01*
X92501785Y-146211904D01*
X92454166Y-146307142D01*
X92406547Y-146354761D01*
X92311309Y-146402380D01*
X92216071Y-146402380D01*
X92120833Y-146354761D01*
X92073214Y-146307142D01*
X92025595Y-146211904D01*
X91977976Y-146021428D01*
X91977976Y-145783333D01*
X92025595Y-145592857D01*
X92073214Y-145497619D01*
X92120833Y-145450000D01*
X92216071Y-145402380D01*
%TO.C,C2*%
X114277142Y-82366666D02*
X114324761Y-82414285D01*
X114372380Y-82557142D01*
X114372380Y-82652380D01*
X114324761Y-82795238D01*
X114229523Y-82890476D01*
X114134285Y-82938095D01*
X113943809Y-82985714D01*
X113800952Y-82985714D01*
X113610476Y-82938095D01*
X113515238Y-82890476D01*
X113420000Y-82795238D01*
X113372380Y-82652380D01*
X113372380Y-82557142D01*
X113420000Y-82414285D01*
X113467619Y-82366666D01*
X113467619Y-81985714D02*
X113420000Y-81938095D01*
X113372380Y-81842857D01*
X113372380Y-81604761D01*
X113420000Y-81509523D01*
X113467619Y-81461904D01*
X113562857Y-81414285D01*
X113658095Y-81414285D01*
X113800952Y-81461904D01*
X114372380Y-82033333D01*
X114372380Y-81414285D01*
%TO.C,R29*%
X101252380Y-148242857D02*
X100776190Y-148576190D01*
X101252380Y-148814285D02*
X100252380Y-148814285D01*
X100252380Y-148433333D01*
X100300000Y-148338095D01*
X100347619Y-148290476D01*
X100442857Y-148242857D01*
X100585714Y-148242857D01*
X100680952Y-148290476D01*
X100728571Y-148338095D01*
X100776190Y-148433333D01*
X100776190Y-148814285D01*
X100347619Y-147861904D02*
X100300000Y-147814285D01*
X100252380Y-147719047D01*
X100252380Y-147480952D01*
X100300000Y-147385714D01*
X100347619Y-147338095D01*
X100442857Y-147290476D01*
X100538095Y-147290476D01*
X100680952Y-147338095D01*
X101252380Y-147909523D01*
X101252380Y-147290476D01*
X101252380Y-146814285D02*
X101252380Y-146623809D01*
X101204761Y-146528571D01*
X101157142Y-146480952D01*
X101014285Y-146385714D01*
X100823809Y-146338095D01*
X100442857Y-146338095D01*
X100347619Y-146385714D01*
X100300000Y-146433333D01*
X100252380Y-146528571D01*
X100252380Y-146719047D01*
X100300000Y-146814285D01*
X100347619Y-146861904D01*
X100442857Y-146909523D01*
X100680952Y-146909523D01*
X100776190Y-146861904D01*
X100823809Y-146814285D01*
X100871428Y-146719047D01*
X100871428Y-146528571D01*
X100823809Y-146433333D01*
X100776190Y-146385714D01*
X100680952Y-146338095D01*
%TO.C,C19*%
X152437142Y-93842857D02*
X152484761Y-93890476D01*
X152532380Y-94033333D01*
X152532380Y-94128571D01*
X152484761Y-94271428D01*
X152389523Y-94366666D01*
X152294285Y-94414285D01*
X152103809Y-94461904D01*
X151960952Y-94461904D01*
X151770476Y-94414285D01*
X151675238Y-94366666D01*
X151580000Y-94271428D01*
X151532380Y-94128571D01*
X151532380Y-94033333D01*
X151580000Y-93890476D01*
X151627619Y-93842857D01*
X152532380Y-92890476D02*
X152532380Y-93461904D01*
X152532380Y-93176190D02*
X151532380Y-93176190D01*
X151675238Y-93271428D01*
X151770476Y-93366666D01*
X151818095Y-93461904D01*
X152532380Y-92414285D02*
X152532380Y-92223809D01*
X152484761Y-92128571D01*
X152437142Y-92080952D01*
X152294285Y-91985714D01*
X152103809Y-91938095D01*
X151722857Y-91938095D01*
X151627619Y-91985714D01*
X151580000Y-92033333D01*
X151532380Y-92128571D01*
X151532380Y-92319047D01*
X151580000Y-92414285D01*
X151627619Y-92461904D01*
X151722857Y-92509523D01*
X151960952Y-92509523D01*
X152056190Y-92461904D01*
X152103809Y-92414285D01*
X152151428Y-92319047D01*
X152151428Y-92128571D01*
X152103809Y-92033333D01*
X152056190Y-91985714D01*
X151960952Y-91938095D01*
%TO.C,R6*%
X88433333Y-78432380D02*
X88100000Y-77956190D01*
X87861904Y-78432380D02*
X87861904Y-77432380D01*
X88242857Y-77432380D01*
X88338095Y-77480000D01*
X88385714Y-77527619D01*
X88433333Y-77622857D01*
X88433333Y-77765714D01*
X88385714Y-77860952D01*
X88338095Y-77908571D01*
X88242857Y-77956190D01*
X87861904Y-77956190D01*
X89290476Y-77432380D02*
X89100000Y-77432380D01*
X89004761Y-77480000D01*
X88957142Y-77527619D01*
X88861904Y-77670476D01*
X88814285Y-77860952D01*
X88814285Y-78241904D01*
X88861904Y-78337142D01*
X88909523Y-78384761D01*
X89004761Y-78432380D01*
X89195238Y-78432380D01*
X89290476Y-78384761D01*
X89338095Y-78337142D01*
X89385714Y-78241904D01*
X89385714Y-78003809D01*
X89338095Y-77908571D01*
X89290476Y-77860952D01*
X89195238Y-77813333D01*
X89004761Y-77813333D01*
X88909523Y-77860952D01*
X88861904Y-77908571D01*
X88814285Y-78003809D01*
%TO.C,C37*%
X132462142Y-69192857D02*
X132509761Y-69240476D01*
X132557380Y-69383333D01*
X132557380Y-69478571D01*
X132509761Y-69621428D01*
X132414523Y-69716666D01*
X132319285Y-69764285D01*
X132128809Y-69811904D01*
X131985952Y-69811904D01*
X131795476Y-69764285D01*
X131700238Y-69716666D01*
X131605000Y-69621428D01*
X131557380Y-69478571D01*
X131557380Y-69383333D01*
X131605000Y-69240476D01*
X131652619Y-69192857D01*
X131557380Y-68859523D02*
X131557380Y-68240476D01*
X131938333Y-68573809D01*
X131938333Y-68430952D01*
X131985952Y-68335714D01*
X132033571Y-68288095D01*
X132128809Y-68240476D01*
X132366904Y-68240476D01*
X132462142Y-68288095D01*
X132509761Y-68335714D01*
X132557380Y-68430952D01*
X132557380Y-68716666D01*
X132509761Y-68811904D01*
X132462142Y-68859523D01*
X131557380Y-67907142D02*
X131557380Y-67240476D01*
X132557380Y-67669047D01*
%TO.C,D14*%
X94185714Y-123802380D02*
X94185714Y-122802380D01*
X94423809Y-122802380D01*
X94566666Y-122850000D01*
X94661904Y-122945238D01*
X94709523Y-123040476D01*
X94757142Y-123230952D01*
X94757142Y-123373809D01*
X94709523Y-123564285D01*
X94661904Y-123659523D01*
X94566666Y-123754761D01*
X94423809Y-123802380D01*
X94185714Y-123802380D01*
X95709523Y-123802380D02*
X95138095Y-123802380D01*
X95423809Y-123802380D02*
X95423809Y-122802380D01*
X95328571Y-122945238D01*
X95233333Y-123040476D01*
X95138095Y-123088095D01*
X96566666Y-123135714D02*
X96566666Y-123802380D01*
X96328571Y-122754761D02*
X96090476Y-123469047D01*
X96709523Y-123469047D01*
%TO.C,C11*%
X110277142Y-82842857D02*
X110324761Y-82890476D01*
X110372380Y-83033333D01*
X110372380Y-83128571D01*
X110324761Y-83271428D01*
X110229523Y-83366666D01*
X110134285Y-83414285D01*
X109943809Y-83461904D01*
X109800952Y-83461904D01*
X109610476Y-83414285D01*
X109515238Y-83366666D01*
X109420000Y-83271428D01*
X109372380Y-83128571D01*
X109372380Y-83033333D01*
X109420000Y-82890476D01*
X109467619Y-82842857D01*
X110372380Y-81890476D02*
X110372380Y-82461904D01*
X110372380Y-82176190D02*
X109372380Y-82176190D01*
X109515238Y-82271428D01*
X109610476Y-82366666D01*
X109658095Y-82461904D01*
X110372380Y-80938095D02*
X110372380Y-81509523D01*
X110372380Y-81223809D02*
X109372380Y-81223809D01*
X109515238Y-81319047D01*
X109610476Y-81414285D01*
X109658095Y-81509523D01*
%TO.C,TP6*%
X125838095Y-48427380D02*
X126409523Y-48427380D01*
X126123809Y-49427380D02*
X126123809Y-48427380D01*
X126742857Y-49427380D02*
X126742857Y-48427380D01*
X127123809Y-48427380D01*
X127219047Y-48475000D01*
X127266666Y-48522619D01*
X127314285Y-48617857D01*
X127314285Y-48760714D01*
X127266666Y-48855952D01*
X127219047Y-48903571D01*
X127123809Y-48951190D01*
X126742857Y-48951190D01*
X128171428Y-48427380D02*
X127980952Y-48427380D01*
X127885714Y-48475000D01*
X127838095Y-48522619D01*
X127742857Y-48665476D01*
X127695238Y-48855952D01*
X127695238Y-49236904D01*
X127742857Y-49332142D01*
X127790476Y-49379761D01*
X127885714Y-49427380D01*
X128076190Y-49427380D01*
X128171428Y-49379761D01*
X128219047Y-49332142D01*
X128266666Y-49236904D01*
X128266666Y-48998809D01*
X128219047Y-48903571D01*
X128171428Y-48855952D01*
X128076190Y-48808333D01*
X127885714Y-48808333D01*
X127790476Y-48855952D01*
X127742857Y-48903571D01*
X127695238Y-48998809D01*
D11*
%TO.C,D16*%
X155140000Y-64300000D02*
X155140000Y-66985000D01*
X155140000Y-66985000D02*
X157060000Y-66985000D01*
X157060000Y-66985000D02*
X157060000Y-64300000D01*
%TO.C,R20*%
X98865000Y-54772936D02*
X98865000Y-55227064D01*
X100335000Y-54772936D02*
X100335000Y-55227064D01*
%TO.C,TP1*%
X132055000Y-63150000D02*
G75*
G03*
X132055000Y-63150000I-950000J0D01*
G01*
%TO.C,R3*%
X86222936Y-74110000D02*
X90577064Y-74110000D01*
X86222936Y-70690000D02*
X90577064Y-70690000D01*
%TO.C,U7*%
X120505000Y-67390000D02*
X122455000Y-67390000D01*
X120505000Y-72510000D02*
X118555000Y-72510000D01*
X120505000Y-67390000D02*
X117055000Y-67390000D01*
X120505000Y-72510000D02*
X122455000Y-72510000D01*
%TO.C,D2*%
X125970000Y-145085000D02*
X125970000Y-142400000D01*
X124050000Y-145085000D02*
X125970000Y-145085000D01*
X124050000Y-142400000D02*
X124050000Y-145085000D01*
%TO.C,J6*%
X161000000Y-41650000D02*
X148150000Y-41650000D01*
X163850000Y-44250000D02*
X161000000Y-41650000D01*
X148150000Y-49950000D02*
X161000000Y-49950000D01*
X161000000Y-49950000D02*
X163850000Y-47400000D01*
X163850000Y-47400000D02*
X163850000Y-44250000D01*
X148150000Y-41650000D02*
X148150000Y-49950000D01*
%TO.C,C33*%
X114215000Y-68261252D02*
X114215000Y-66838748D01*
X112395000Y-68261252D02*
X112395000Y-66838748D01*
%TO.C,C15*%
X137538748Y-82665000D02*
X138061252Y-82665000D01*
X137538748Y-84135000D02*
X138061252Y-84135000D01*
%TO.C,J1*%
X79125000Y-81850000D02*
X79125000Y-82600000D01*
X76175000Y-116200000D02*
X76175000Y-99400000D01*
X81375000Y-115150000D02*
X80625000Y-115150000D01*
X81385000Y-81840000D02*
X75415000Y-81840000D01*
X81375000Y-85150000D02*
X80625000Y-85150000D01*
X79125000Y-82600000D02*
X76175000Y-82600000D01*
X81675000Y-82800000D02*
X81675000Y-81550000D01*
X79125000Y-116200000D02*
X76175000Y-116200000D01*
X80625000Y-83650000D02*
X81375000Y-83650000D01*
X81675000Y-81550000D02*
X80425000Y-81550000D01*
X81375000Y-83650000D02*
X81375000Y-81850000D01*
X80625000Y-81850000D02*
X80625000Y-83650000D01*
X81385000Y-116960000D02*
X81385000Y-81840000D01*
X80625000Y-85150000D02*
X80625000Y-113650000D01*
X75415000Y-81840000D02*
X75415000Y-116960000D01*
X81375000Y-81850000D02*
X80625000Y-81850000D01*
X80625000Y-115150000D02*
X80625000Y-116950000D01*
X80625000Y-116950000D02*
X81375000Y-116950000D01*
X80625000Y-113650000D02*
X81375000Y-113650000D01*
X75415000Y-116960000D02*
X81385000Y-116960000D01*
X81375000Y-116950000D02*
X81375000Y-115150000D01*
X76175000Y-82600000D02*
X76175000Y-99400000D01*
X79125000Y-116950000D02*
X79125000Y-116200000D01*
X81375000Y-113650000D02*
X81375000Y-85150000D01*
%TO.C,R42*%
X90572936Y-84735000D02*
X91027064Y-84735000D01*
X90572936Y-83265000D02*
X91027064Y-83265000D01*
%TO.C,R35*%
X99465000Y-121572936D02*
X99465000Y-122027064D01*
X100935000Y-121572936D02*
X100935000Y-122027064D01*
%TO.C,TP2*%
X125150000Y-100200000D02*
G75*
G03*
X125150000Y-100200000I-950000J0D01*
G01*
%TO.C,R51*%
X90172936Y-67935000D02*
X90627064Y-67935000D01*
X90172936Y-66465000D02*
X90627064Y-66465000D01*
%TO.C,C38*%
X143735000Y-68438748D02*
X143735000Y-68961252D01*
X142265000Y-68438748D02*
X142265000Y-68961252D01*
%TO.C,R67*%
X136350000Y-54050000D02*
X136575000Y-54050000D01*
X134075000Y-55200000D02*
X134075000Y-54600000D01*
X137325000Y-55200000D02*
X137325000Y-54600000D01*
X136350000Y-55750000D02*
X136575000Y-55750000D01*
%TO.C,R2*%
X100535000Y-72372936D02*
X100535000Y-72827064D01*
X99065000Y-72372936D02*
X99065000Y-72827064D01*
%TO.C,R59*%
X154835000Y-65527064D02*
X154835000Y-65072936D01*
X153365000Y-65527064D02*
X153365000Y-65072936D01*
%TO.C,R32*%
X100535000Y-63572936D02*
X100535000Y-64027064D01*
X99065000Y-63572936D02*
X99065000Y-64027064D01*
%TO.C,R14*%
X100935000Y-105172936D02*
X100935000Y-105627064D01*
X99465000Y-105172936D02*
X99465000Y-105627064D01*
%TO.C,R33*%
X86022936Y-65510000D02*
X90377064Y-65510000D01*
X86022936Y-62090000D02*
X90377064Y-62090000D01*
%TO.C,J5*%
X139600000Y-148200000D02*
X139600000Y-150100000D01*
X149000000Y-144300000D02*
X149000000Y-146300000D01*
X139600000Y-144300000D02*
X139600000Y-146300000D01*
X149000000Y-148200000D02*
X149000000Y-150100000D01*
X139600000Y-150100000D02*
X149000000Y-150100000D01*
%TO.C,Q7*%
X93040000Y-55000000D02*
X93040000Y-54350000D01*
X93040000Y-55000000D02*
X93040000Y-55650000D01*
X96160000Y-55000000D02*
X96160000Y-55650000D01*
X96160000Y-55000000D02*
X96160000Y-53325000D01*
%TO.C,D3*%
X93115000Y-76960000D02*
X95800000Y-76960000D01*
X93115000Y-75040000D02*
X93115000Y-76960000D01*
X95800000Y-75040000D02*
X93115000Y-75040000D01*
D12*
%TO.C,Q14*%
X151870000Y-56465000D02*
X151870000Y-62265000D01*
X156930000Y-62265000D02*
X156930000Y-56465000D01*
D13*
X156500000Y-55565000D02*
G75*
G03*
X156500000Y-55565000I-100000J0D01*
G01*
D11*
%TO.C,C4*%
X120335000Y-82461252D02*
X120335000Y-81938748D01*
X118865000Y-82461252D02*
X118865000Y-81938748D01*
%TO.C,C24*%
X163938748Y-114065000D02*
X164461252Y-114065000D01*
X163938748Y-115535000D02*
X164461252Y-115535000D01*
%TO.C,Q12*%
X96960000Y-121800000D02*
X96960000Y-120125000D01*
X93840000Y-121800000D02*
X93840000Y-122450000D01*
X96960000Y-121800000D02*
X96960000Y-122450000D01*
X93840000Y-121800000D02*
X93840000Y-121150000D01*
%TO.C,U4*%
X162200000Y-113360000D02*
X160250000Y-113360000D01*
X162200000Y-108240000D02*
X158750000Y-108240000D01*
X162200000Y-113360000D02*
X164150000Y-113360000D01*
X162200000Y-108240000D02*
X164150000Y-108240000D01*
%TO.C,Q5*%
X93840000Y-105400000D02*
X93840000Y-106050000D01*
X96960000Y-105400000D02*
X96960000Y-103725000D01*
X96960000Y-105400000D02*
X96960000Y-106050000D01*
X93840000Y-105400000D02*
X93840000Y-104750000D01*
%TO.C,R9*%
X86422936Y-87490000D02*
X90777064Y-87490000D01*
X86422936Y-90910000D02*
X90777064Y-90910000D01*
%TO.C,C20*%
X134138748Y-88535000D02*
X134661252Y-88535000D01*
X134138748Y-87065000D02*
X134661252Y-87065000D01*
%TO.C,C13*%
X142061252Y-82665000D02*
X141538748Y-82665000D01*
X142061252Y-84135000D02*
X141538748Y-84135000D01*
%TO.C,R65*%
X147672936Y-140235000D02*
X148127064Y-140235000D01*
X147672936Y-138765000D02*
X148127064Y-138765000D01*
%TO.C,R27*%
X86822936Y-138310000D02*
X91177064Y-138310000D01*
X86822936Y-134890000D02*
X91177064Y-134890000D01*
%TO.C,D15*%
X131105000Y-70390000D02*
X128420000Y-70390000D01*
X128420000Y-70390000D02*
X128420000Y-72310000D01*
X128420000Y-72310000D02*
X131105000Y-72310000D01*
%TO.C,C22*%
X164137907Y-93134520D02*
X164660411Y-93134520D01*
X164137907Y-94604520D02*
X164660411Y-94604520D01*
%TO.C,C35*%
X125970000Y-72088748D02*
X125970000Y-72611252D01*
X127440000Y-72088748D02*
X127440000Y-72611252D01*
%TO.C,R8*%
X99465000Y-88860436D02*
X99465000Y-89314564D01*
X100935000Y-88860436D02*
X100935000Y-89314564D01*
%TO.C,D1*%
X123960000Y-145085000D02*
X123960000Y-142400000D01*
X122040000Y-142400000D02*
X122040000Y-145085000D01*
X122040000Y-145085000D02*
X123960000Y-145085000D01*
%TO.C,R5*%
X100935000Y-80572936D02*
X100935000Y-81027064D01*
X99465000Y-80572936D02*
X99465000Y-81027064D01*
%TO.C,R15*%
X86422936Y-107110000D02*
X90777064Y-107110000D01*
X86422936Y-103690000D02*
X90777064Y-103690000D01*
%TO.C,R41*%
X90372936Y-76735000D02*
X90827064Y-76735000D01*
X90372936Y-75265000D02*
X90827064Y-75265000D01*
%TO.C,R49*%
X90772936Y-139065000D02*
X91227064Y-139065000D01*
X90772936Y-140535000D02*
X91227064Y-140535000D01*
%TO.C,R30*%
X87022936Y-146110000D02*
X91377064Y-146110000D01*
X87022936Y-142690000D02*
X91377064Y-142690000D01*
%TO.C,R58*%
X123932064Y-74615000D02*
X123477936Y-74615000D01*
X123932064Y-76085000D02*
X123477936Y-76085000D01*
%TO.C,R18*%
X86422936Y-115110000D02*
X90777064Y-115110000D01*
X86422936Y-111690000D02*
X90777064Y-111690000D01*
%TO.C,Q11*%
X93502500Y-63850000D02*
X93502500Y-63200000D01*
X96622500Y-63850000D02*
X96622500Y-62175000D01*
X93502500Y-63850000D02*
X93502500Y-64500000D01*
X96622500Y-63850000D02*
X96622500Y-64500000D01*
%TO.C,U8*%
X145650000Y-71222500D02*
X144340000Y-71222500D01*
X149060000Y-68502500D02*
X149060000Y-71222500D01*
X148830000Y-67362500D02*
X148830000Y-68502500D01*
X144340000Y-68502500D02*
X144570000Y-68502500D01*
X149060000Y-71222500D02*
X147750000Y-71222500D01*
X149060000Y-68502500D02*
X148830000Y-68502500D01*
X144340000Y-71222500D02*
X144340000Y-68502500D01*
%TO.C,D17*%
X138060000Y-66785000D02*
X138060000Y-64100000D01*
X136140000Y-66785000D02*
X138060000Y-66785000D01*
X136140000Y-64100000D02*
X136140000Y-66785000D01*
%TO.C,TP3*%
X125150000Y-102800000D02*
G75*
G03*
X125150000Y-102800000I-950000J0D01*
G01*
%TO.C,C9*%
X109065000Y-108988748D02*
X109065000Y-109511252D01*
X110535000Y-108988748D02*
X110535000Y-109511252D01*
%TO.C,C8*%
X111065000Y-108988748D02*
X111065000Y-109511252D01*
X112535000Y-108988748D02*
X112535000Y-109511252D01*
%TO.C,R19*%
X96865000Y-55227064D02*
X96865000Y-54772936D01*
X98335000Y-55227064D02*
X98335000Y-54772936D01*
%TO.C,D10*%
X94115000Y-133360000D02*
X96800000Y-133360000D01*
X94115000Y-131440000D02*
X94115000Y-133360000D01*
X96800000Y-131440000D02*
X94115000Y-131440000D01*
%TO.C,R55*%
X114677936Y-70215000D02*
X115132064Y-70215000D01*
X114677936Y-71685000D02*
X115132064Y-71685000D01*
%TO.C,C5*%
X117065000Y-108988748D02*
X117065000Y-109511252D01*
X118535000Y-108988748D02*
X118535000Y-109511252D01*
%TO.C,D12*%
X96800000Y-146840000D02*
X94115000Y-146840000D01*
X94115000Y-146840000D02*
X94115000Y-148760000D01*
X94115000Y-148760000D02*
X96800000Y-148760000D01*
%TO.C,U3*%
X163664159Y-84799520D02*
X163664159Y-82599520D01*
X163664159Y-84799520D02*
X163664159Y-88399520D01*
X169134159Y-84799520D02*
X169134159Y-86999520D01*
X169134159Y-84799520D02*
X169134159Y-82599520D01*
%TO.C,D13*%
X93315000Y-68360000D02*
X96000000Y-68360000D01*
X93315000Y-66440000D02*
X93315000Y-68360000D01*
X96000000Y-66440000D02*
X93315000Y-66440000D01*
%TO.C,R16*%
X97265000Y-113427064D02*
X97265000Y-112972936D01*
X98735000Y-113427064D02*
X98735000Y-112972936D01*
%TO.C,C7*%
X110335000Y-82461252D02*
X110335000Y-81938748D01*
X108865000Y-82461252D02*
X108865000Y-81938748D01*
%TO.C,R40*%
X166465000Y-110572936D02*
X166465000Y-111027064D01*
X167935000Y-110572936D02*
X167935000Y-111027064D01*
%TO.C,Q4*%
X93640000Y-97600000D02*
X93640000Y-96950000D01*
X93640000Y-97600000D02*
X93640000Y-98250000D01*
X96760000Y-97600000D02*
X96760000Y-95925000D01*
X96760000Y-97600000D02*
X96760000Y-98250000D01*
%TO.C,Q3*%
X93440000Y-89000000D02*
X93440000Y-89650000D01*
X93440000Y-89000000D02*
X93440000Y-88350000D01*
X96560000Y-89000000D02*
X96560000Y-87325000D01*
X96560000Y-89000000D02*
X96560000Y-89650000D01*
%TO.C,R60*%
X134265000Y-65327064D02*
X134265000Y-64872936D01*
X135735000Y-65327064D02*
X135735000Y-64872936D01*
%TO.C,R17*%
X99265000Y-112972936D02*
X99265000Y-113427064D01*
X100735000Y-112972936D02*
X100735000Y-113427064D01*
%TO.C,R13*%
X98935000Y-105627064D02*
X98935000Y-105172936D01*
X97465000Y-105627064D02*
X97465000Y-105172936D01*
%TO.C,Q6*%
X93640000Y-113200000D02*
X93640000Y-113850000D01*
X93640000Y-113200000D02*
X93640000Y-112550000D01*
X96760000Y-113200000D02*
X96760000Y-111525000D01*
X96760000Y-113200000D02*
X96760000Y-113850000D01*
%TO.C,X1*%
X136750000Y-88600000D02*
X142500000Y-88600000D01*
X142500000Y-85000000D02*
X136750000Y-85000000D01*
X136750000Y-85000000D02*
X136750000Y-88600000D01*
%TO.C,R10*%
X97465000Y-97827064D02*
X97465000Y-97372936D01*
X98935000Y-97827064D02*
X98935000Y-97372936D01*
%TO.C,J4*%
X161370000Y-101400000D02*
X161370000Y-100070000D01*
X174190000Y-102730000D02*
X174190000Y-100070000D01*
X163970000Y-102730000D02*
X174190000Y-102730000D01*
X163970000Y-102730000D02*
X163970000Y-100070000D01*
X163970000Y-100070000D02*
X174190000Y-100070000D01*
X161370000Y-100070000D02*
X162700000Y-100070000D01*
%TO.C,D6*%
X96200000Y-100040000D02*
X93515000Y-100040000D01*
X93515000Y-100040000D02*
X93515000Y-101960000D01*
X93515000Y-101960000D02*
X96200000Y-101960000D01*
%TO.C,R45*%
X88572936Y-109335000D02*
X89027064Y-109335000D01*
X88572936Y-107865000D02*
X89027064Y-107865000D01*
%TO.C,D11*%
X94377500Y-140760000D02*
X97062500Y-140760000D01*
X97062500Y-138840000D02*
X94377500Y-138840000D01*
X94377500Y-138840000D02*
X94377500Y-140760000D01*
%TO.C,C34*%
X116240000Y-68411252D02*
X116240000Y-67888748D01*
X114770000Y-68411252D02*
X114770000Y-67888748D01*
%TO.C,C12*%
X113065000Y-108988748D02*
X113065000Y-109511252D01*
X114535000Y-108988748D02*
X114535000Y-109511252D01*
%TO.C,R57*%
X130132064Y-74615000D02*
X129677936Y-74615000D01*
X130132064Y-76085000D02*
X129677936Y-76085000D01*
%TO.C,C16*%
X128535000Y-94661252D02*
X128535000Y-94138748D01*
X127065000Y-94661252D02*
X127065000Y-94138748D01*
%TO.C,R43*%
X88372936Y-91665000D02*
X88827064Y-91665000D01*
X88372936Y-93135000D02*
X88827064Y-93135000D01*
%TO.C,R66*%
X140927064Y-138765000D02*
X140472936Y-138765000D01*
X140927064Y-140235000D02*
X140472936Y-140235000D01*
%TO.C,Q10*%
X97360000Y-144400000D02*
X97360000Y-142725000D01*
X97360000Y-144400000D02*
X97360000Y-145050000D01*
X94240000Y-144400000D02*
X94240000Y-143750000D01*
X94240000Y-144400000D02*
X94240000Y-145050000D01*
%TO.C,R11*%
X100935000Y-97285436D02*
X100935000Y-97739564D01*
X99465000Y-97285436D02*
X99465000Y-97739564D01*
%TO.C,R21*%
X86022936Y-53290000D02*
X90377064Y-53290000D01*
X86022936Y-56710000D02*
X90377064Y-56710000D01*
%TO.C,R34*%
X98935000Y-122027064D02*
X98935000Y-121572936D01*
X97465000Y-122027064D02*
X97465000Y-121572936D01*
%TO.C,TP8*%
X156550000Y-70000000D02*
G75*
G03*
X156550000Y-70000000I-950000J0D01*
G01*
%TO.C,C36*%
X126840000Y-68811252D02*
X126840000Y-68288748D01*
X125370000Y-68811252D02*
X125370000Y-68288748D01*
%TO.C,R24*%
X87022936Y-127290000D02*
X91377064Y-127290000D01*
X87022936Y-130710000D02*
X91377064Y-130710000D01*
D12*
%TO.C,Q13*%
X149265000Y-57870000D02*
X143465000Y-57870000D01*
X143465000Y-62930000D02*
X149265000Y-62930000D01*
D13*
X142665000Y-58400000D02*
G75*
G03*
X142665000Y-58400000I-100000J0D01*
G01*
D11*
%TO.C,R36*%
X86422936Y-123510000D02*
X90777064Y-123510000D01*
X86422936Y-120090000D02*
X90777064Y-120090000D01*
%TO.C,TP4*%
X125150000Y-88000000D02*
G75*
G03*
X125150000Y-88000000I-950000J0D01*
G01*
%TO.C,U1*%
X114600000Y-102710000D02*
X111840000Y-102710000D01*
X111840000Y-90040000D02*
X110150000Y-90040000D01*
X114600000Y-89690000D02*
X117360000Y-89690000D01*
X117360000Y-89690000D02*
X117360000Y-90040000D01*
X111840000Y-89690000D02*
X111840000Y-90040000D01*
X111840000Y-102710000D02*
X111840000Y-102360000D01*
X114600000Y-102710000D02*
X117360000Y-102710000D01*
X117360000Y-102710000D02*
X117360000Y-102360000D01*
X114600000Y-89690000D02*
X111840000Y-89690000D01*
%TO.C,C21*%
X134138748Y-86535000D02*
X134661252Y-86535000D01*
X134138748Y-85065000D02*
X134661252Y-85065000D01*
%TO.C,R38*%
X124265000Y-139572936D02*
X124265000Y-140027064D01*
X125735000Y-139572936D02*
X125735000Y-140027064D01*
%TO.C,D5*%
X96000000Y-91440000D02*
X93315000Y-91440000D01*
X93315000Y-91440000D02*
X93315000Y-93360000D01*
X93315000Y-93360000D02*
X96000000Y-93360000D01*
%TO.C,R25*%
X98065000Y-136827064D02*
X98065000Y-136372936D01*
X99535000Y-136827064D02*
X99535000Y-136372936D01*
%TO.C,TP5*%
X125150000Y-90600000D02*
G75*
G03*
X125150000Y-90600000I-950000J0D01*
G01*
%TO.C,L2*%
X122755000Y-66500000D02*
X127855000Y-66500000D01*
X122755000Y-61400000D02*
X127855000Y-61400000D01*
%TO.C,R48*%
X91172936Y-132935000D02*
X91627064Y-132935000D01*
X91172936Y-131465000D02*
X91627064Y-131465000D01*
%TO.C,C10*%
X120535000Y-109511252D02*
X120535000Y-108988748D01*
X119065000Y-109511252D02*
X119065000Y-108988748D01*
%TO.C,U2*%
X141560000Y-92290000D02*
X141560000Y-90950000D01*
X142510000Y-92290000D02*
X141560000Y-92290000D01*
X132290000Y-102510000D02*
X133240000Y-102510000D01*
X142510000Y-102510000D02*
X141560000Y-102510000D01*
X142510000Y-93240000D02*
X142510000Y-92290000D01*
X132290000Y-101560000D02*
X132290000Y-102510000D01*
X142510000Y-101560000D02*
X142510000Y-102510000D01*
X132290000Y-92290000D02*
X133240000Y-92290000D01*
X132290000Y-93240000D02*
X132290000Y-92290000D01*
%TO.C,C17*%
X127065000Y-101261252D02*
X127065000Y-100738748D01*
X128535000Y-101261252D02*
X128535000Y-100738748D01*
%TO.C,R23*%
X101335000Y-128772936D02*
X101335000Y-129227064D01*
X99865000Y-128772936D02*
X99865000Y-129227064D01*
%TO.C,R56*%
X114677936Y-72215000D02*
X115132064Y-72215000D01*
X114677936Y-73685000D02*
X115132064Y-73685000D01*
%TO.C,D9*%
X95600000Y-57640000D02*
X92915000Y-57640000D01*
X92915000Y-57640000D02*
X92915000Y-59560000D01*
X92915000Y-59560000D02*
X95600000Y-59560000D01*
%TO.C,R28*%
X99335000Y-144627064D02*
X99335000Y-144172936D01*
X97865000Y-144627064D02*
X97865000Y-144172936D01*
%TO.C,R22*%
X99335000Y-129227064D02*
X99335000Y-128772936D01*
X97865000Y-129227064D02*
X97865000Y-128772936D01*
%TO.C,R52*%
X90572936Y-124265000D02*
X91027064Y-124265000D01*
X90572936Y-125735000D02*
X91027064Y-125735000D01*
%TO.C,R47*%
X90172936Y-57865000D02*
X90627064Y-57865000D01*
X90172936Y-59335000D02*
X90627064Y-59335000D01*
%TO.C,J2*%
X174760000Y-109900000D02*
X174760000Y-109600000D01*
X170450000Y-113650000D02*
X173950000Y-113650000D01*
X170450000Y-111200000D02*
X170950000Y-111200000D01*
X169840000Y-114260000D02*
X174560000Y-114260000D01*
X170950000Y-111300000D02*
X170450000Y-111300000D01*
X173950000Y-110700000D02*
X173950000Y-108750000D01*
X170950000Y-111100000D02*
X170950000Y-111300000D01*
X173950000Y-108750000D02*
X170450000Y-108750000D01*
X174860000Y-109090000D02*
X174860000Y-107840000D01*
X171950000Y-114260000D02*
X171950000Y-113650000D01*
X174660000Y-109900000D02*
X174660000Y-109600000D01*
X170450000Y-111100000D02*
X170950000Y-111100000D01*
X174560000Y-108140000D02*
X169840000Y-108140000D01*
X174560000Y-109900000D02*
X174760000Y-109900000D01*
X170450000Y-108750000D02*
X170450000Y-113650000D01*
X174560000Y-110700000D02*
X173950000Y-110700000D01*
X174860000Y-107840000D02*
X173610000Y-107840000D01*
X174760000Y-109600000D02*
X174560000Y-109600000D01*
X173250000Y-114260000D02*
X173250000Y-113650000D01*
X173950000Y-113650000D02*
X173950000Y-111700000D01*
X173250000Y-108140000D02*
X173250000Y-108750000D01*
X174560000Y-114260000D02*
X174560000Y-108140000D01*
X173950000Y-111700000D02*
X174560000Y-111700000D01*
X169840000Y-108140000D02*
X169840000Y-114260000D01*
X171950000Y-108140000D02*
X171950000Y-108750000D01*
%TO.C,C14*%
X147665000Y-92938748D02*
X147665000Y-93461252D01*
X149135000Y-92938748D02*
X149135000Y-93461252D01*
%TO.C,R4*%
X97465000Y-81027064D02*
X97465000Y-80572936D01*
X98935000Y-81027064D02*
X98935000Y-80572936D01*
%TO.C,Q9*%
X94440000Y-136600000D02*
X94440000Y-135950000D01*
X94440000Y-136600000D02*
X94440000Y-137250000D01*
X97560000Y-136600000D02*
X97560000Y-137250000D01*
X97560000Y-136600000D02*
X97560000Y-134925000D01*
%TO.C,R37*%
X122265000Y-139572936D02*
X122265000Y-140027064D01*
X123735000Y-139572936D02*
X123735000Y-140027064D01*
%TO.C,R1*%
X97065000Y-72827064D02*
X97065000Y-72372936D01*
X98535000Y-72827064D02*
X98535000Y-72372936D01*
%TO.C,R39*%
X164172095Y-90934520D02*
X164626223Y-90934520D01*
X164172095Y-92404520D02*
X164626223Y-92404520D01*
%TO.C,R46*%
X90572936Y-117335000D02*
X91027064Y-117335000D01*
X90572936Y-115865000D02*
X91027064Y-115865000D01*
%TO.C,C3*%
X118335000Y-82461252D02*
X118335000Y-81938748D01*
X116865000Y-82461252D02*
X116865000Y-81938748D01*
%TO.C,Q2*%
X93702500Y-80850000D02*
X93702500Y-81500000D01*
X96822500Y-80850000D02*
X96822500Y-81500000D01*
X93702500Y-80850000D02*
X93702500Y-80200000D01*
X96822500Y-80850000D02*
X96822500Y-79175000D01*
%TO.C,D8*%
X96262500Y-115640000D02*
X93577500Y-115640000D01*
X93577500Y-115640000D02*
X93577500Y-117560000D01*
X93577500Y-117560000D02*
X96262500Y-117560000D01*
%TO.C,Q8*%
X94240000Y-129000000D02*
X94240000Y-128350000D01*
X97360000Y-129000000D02*
X97360000Y-127325000D01*
X94240000Y-129000000D02*
X94240000Y-129650000D01*
X97360000Y-129000000D02*
X97360000Y-129650000D01*
%TO.C,J3*%
X136000000Y-49950000D02*
X138850000Y-47400000D01*
X138850000Y-44250000D02*
X136000000Y-41650000D01*
X138850000Y-47400000D02*
X138850000Y-44250000D01*
X123150000Y-49950000D02*
X136000000Y-49950000D01*
X136000000Y-41650000D02*
X123150000Y-41650000D01*
X123150000Y-41650000D02*
X123150000Y-49950000D01*
%TO.C,R12*%
X86422936Y-99310000D02*
X90777064Y-99310000D01*
X86422936Y-95890000D02*
X90777064Y-95890000D01*
%TO.C,C1*%
X112865000Y-82461252D02*
X112865000Y-81938748D01*
X114335000Y-82461252D02*
X114335000Y-81938748D01*
%TO.C,C23*%
X163034159Y-88130772D02*
X163034159Y-87608268D01*
X161564159Y-88130772D02*
X161564159Y-87608268D01*
%TO.C,C6*%
X116535000Y-108988748D02*
X116535000Y-109511252D01*
X115065000Y-108988748D02*
X115065000Y-109511252D01*
%TO.C,R7*%
X98935000Y-89227064D02*
X98935000Y-88772936D01*
X97465000Y-89227064D02*
X97465000Y-88772936D01*
%TO.C,C25*%
X156465000Y-111061252D02*
X156465000Y-110538748D01*
X157935000Y-111061252D02*
X157935000Y-110538748D01*
%TO.C,R26*%
X101535000Y-136372936D02*
X101535000Y-136827064D01*
X100065000Y-136372936D02*
X100065000Y-136827064D01*
%TO.C,D7*%
X93715000Y-107640000D02*
X93715000Y-109560000D01*
X96400000Y-107640000D02*
X93715000Y-107640000D01*
X93715000Y-109560000D02*
X96400000Y-109560000D01*
%TO.C,R31*%
X98535000Y-64027064D02*
X98535000Y-63572936D01*
X97065000Y-64027064D02*
X97065000Y-63572936D01*
%TO.C,C39*%
X151135000Y-68438748D02*
X151135000Y-68961252D01*
X149665000Y-68438748D02*
X149665000Y-68961252D01*
%TO.C,R44*%
X88572936Y-100265000D02*
X89027064Y-100265000D01*
X88572936Y-101735000D02*
X89027064Y-101735000D01*
%TO.C,D4*%
X93515000Y-84960000D02*
X96200000Y-84960000D01*
X93515000Y-83040000D02*
X93515000Y-84960000D01*
X96200000Y-83040000D02*
X93515000Y-83040000D01*
%TO.C,U9*%
X140900000Y-53540000D02*
X139100000Y-53540000D01*
X140900000Y-53540000D02*
X141700000Y-53540000D01*
X140900000Y-56660000D02*
X141700000Y-56660000D01*
X140900000Y-56660000D02*
X140100000Y-56660000D01*
%TO.C,Q1*%
X93240000Y-72600000D02*
X93240000Y-71950000D01*
X96360000Y-72600000D02*
X96360000Y-70925000D01*
X96360000Y-72600000D02*
X96360000Y-73250000D01*
X93240000Y-72600000D02*
X93240000Y-73250000D01*
%TO.C,C18*%
X141461252Y-106865000D02*
X140938748Y-106865000D01*
X141461252Y-108335000D02*
X140938748Y-108335000D01*
%TO.C,R50*%
X91060436Y-146865000D02*
X91514564Y-146865000D01*
X91060436Y-148335000D02*
X91514564Y-148335000D01*
%TO.C,C2*%
X114865000Y-82461252D02*
X114865000Y-81938748D01*
X116335000Y-82461252D02*
X116335000Y-81938748D01*
%TO.C,R29*%
X101335000Y-144172936D02*
X101335000Y-144627064D01*
X99865000Y-144172936D02*
X99865000Y-144627064D01*
%TO.C,C19*%
X149665000Y-92938748D02*
X149665000Y-93461252D01*
X151135000Y-92938748D02*
X151135000Y-93461252D01*
%TO.C,R6*%
X86422936Y-82310000D02*
X90777064Y-82310000D01*
X86422936Y-78890000D02*
X90777064Y-78890000D01*
%TO.C,C37*%
X127370000Y-68288748D02*
X127370000Y-68811252D01*
X128840000Y-68288748D02*
X128840000Y-68811252D01*
%TO.C,D14*%
X96400000Y-124040000D02*
X93715000Y-124040000D01*
X93715000Y-125960000D02*
X96400000Y-125960000D01*
X93715000Y-124040000D02*
X93715000Y-125960000D01*
%TO.C,C11*%
X112335000Y-82461252D02*
X112335000Y-81938748D01*
X110865000Y-82461252D02*
X110865000Y-81938748D01*
%TD*%
%LPC*%
%TO.C,Q14*%
G36*
X156455000Y-61550000D02*
G01*
X156710000Y-61550000D01*
X156710000Y-62770000D01*
X155900000Y-62770000D01*
X155900000Y-62060000D01*
X155440000Y-62060000D01*
X155440000Y-62770000D01*
X154630000Y-62770000D01*
X154630000Y-62060000D01*
X154170000Y-62060000D01*
X154170000Y-62770000D01*
X153360000Y-62770000D01*
X153360000Y-62060000D01*
X152900000Y-62060000D01*
X152900000Y-62770000D01*
X152090000Y-62770000D01*
X152090000Y-61550000D01*
X152345000Y-61550000D01*
X152345000Y-58050000D01*
X156455000Y-58050000D01*
X156455000Y-61550000D01*
G37*
D14*
X156455000Y-61550000D02*
X156710000Y-61550000D01*
X156710000Y-62770000D01*
X155900000Y-62770000D01*
X155900000Y-62060000D01*
X155440000Y-62060000D01*
X155440000Y-62770000D01*
X154630000Y-62770000D01*
X154630000Y-62060000D01*
X154170000Y-62060000D01*
X154170000Y-62770000D01*
X153360000Y-62770000D01*
X153360000Y-62060000D01*
X152900000Y-62060000D01*
X152900000Y-62770000D01*
X152090000Y-62770000D01*
X152090000Y-61550000D01*
X152345000Y-61550000D01*
X152345000Y-58050000D01*
X156455000Y-58050000D01*
X156455000Y-61550000D01*
%TO.C,Q13*%
G36*
X149770000Y-58900000D02*
G01*
X149060000Y-58900000D01*
X149060000Y-59360000D01*
X149770000Y-59360000D01*
X149770000Y-60170000D01*
X149060000Y-60170000D01*
X149060000Y-60630000D01*
X149770000Y-60630000D01*
X149770000Y-61440000D01*
X149060000Y-61440000D01*
X149060000Y-61900000D01*
X149770000Y-61900000D01*
X149770000Y-62710000D01*
X148550000Y-62710000D01*
X148550000Y-62455000D01*
X145050000Y-62455000D01*
X145050000Y-58345000D01*
X148550000Y-58345000D01*
X148550000Y-58090000D01*
X149770000Y-58090000D01*
X149770000Y-58900000D01*
G37*
X149770000Y-58900000D02*
X149060000Y-58900000D01*
X149060000Y-59360000D01*
X149770000Y-59360000D01*
X149770000Y-60170000D01*
X149060000Y-60170000D01*
X149060000Y-60630000D01*
X149770000Y-60630000D01*
X149770000Y-61440000D01*
X149060000Y-61440000D01*
X149060000Y-61900000D01*
X149770000Y-61900000D01*
X149770000Y-62710000D01*
X148550000Y-62710000D01*
X148550000Y-62455000D01*
X145050000Y-62455000D01*
X145050000Y-58345000D01*
X148550000Y-58345000D01*
X148550000Y-58090000D01*
X149770000Y-58090000D01*
X149770000Y-58900000D01*
%TD*%
D15*
%TO.C,D16*%
X156100000Y-66237500D03*
X156100000Y-64362500D03*
%TD*%
D16*
%TO.C,R20*%
X99600000Y-54087500D03*
X99600000Y-55912500D03*
%TD*%
D17*
%TO.C,TP1*%
X131105000Y-63150000D03*
%TD*%
D18*
%TO.C,R3*%
X85437500Y-72400000D03*
X91362500Y-72400000D03*
%TD*%
D19*
%TO.C,U7*%
X117855000Y-68045000D03*
X117855000Y-69315000D03*
X117855000Y-70585000D03*
X117855000Y-71855000D03*
X123155000Y-71855000D03*
X123155000Y-70585000D03*
X123155000Y-69315000D03*
X123155000Y-68045000D03*
D20*
X120505000Y-69950000D03*
%TD*%
D15*
%TO.C,D2*%
X125010000Y-144337500D03*
X125010000Y-142462500D03*
%TD*%
D21*
%TO.C,J6*%
X159600000Y-45800000D03*
D22*
X152400000Y-45800000D03*
%TD*%
D23*
%TO.C,C33*%
X113305000Y-69025000D03*
X113305000Y-66075000D03*
%TD*%
D24*
%TO.C,C15*%
X136850000Y-83400000D03*
X138750000Y-83400000D03*
%TD*%
D25*
%TO.C,J1*%
X78925000Y-84400000D03*
D26*
X78925000Y-86900000D03*
X78925000Y-89400000D03*
X78925000Y-91900000D03*
X78925000Y-94400000D03*
X78925000Y-96900000D03*
X78925000Y-99400000D03*
X78925000Y-101900000D03*
X78925000Y-104400000D03*
X78925000Y-106900000D03*
X78925000Y-109400000D03*
X78925000Y-111900000D03*
X78925000Y-114400000D03*
%TD*%
D27*
%TO.C,R42*%
X89887500Y-84000000D03*
X91712500Y-84000000D03*
%TD*%
D16*
%TO.C,R35*%
X100200000Y-120887500D03*
X100200000Y-122712500D03*
%TD*%
D17*
%TO.C,TP2*%
X124200000Y-100200000D03*
%TD*%
D27*
%TO.C,R51*%
X89487500Y-67200000D03*
X91312500Y-67200000D03*
%TD*%
D28*
%TO.C,C38*%
X143000000Y-67750000D03*
X143000000Y-69650000D03*
%TD*%
D29*
%TO.C,R67*%
X135128000Y-54015000D03*
D30*
X137034000Y-54015000D03*
X137034000Y-55785000D03*
D29*
X135128500Y-55785000D03*
%TD*%
D16*
%TO.C,R2*%
X99800000Y-71687500D03*
X99800000Y-73512500D03*
%TD*%
D31*
%TO.C,TP7*%
X133600000Y-52960000D03*
X135600000Y-53960000D03*
X132600000Y-52960000D03*
X134600000Y-52960000D03*
X133600000Y-53960000D03*
X134600000Y-53960000D03*
X133600000Y-51960000D03*
X132600000Y-51960000D03*
X134600000Y-50960000D03*
X135600000Y-50960000D03*
X135600000Y-52960000D03*
D32*
X134100000Y-52460000D03*
D31*
X132600000Y-50960000D03*
X135600000Y-51960000D03*
X134600000Y-51960000D03*
X133600000Y-50960000D03*
X132600000Y-53960000D03*
%TD*%
D33*
%TO.C,R59*%
X154100000Y-66212500D03*
X154100000Y-64387500D03*
%TD*%
D16*
%TO.C,R32*%
X99800000Y-62887500D03*
X99800000Y-64712500D03*
%TD*%
%TO.C,R14*%
X100200000Y-104487500D03*
X100200000Y-106312500D03*
%TD*%
D18*
%TO.C,R33*%
X85237500Y-63800000D03*
X91162500Y-63800000D03*
%TD*%
D34*
%TO.C,J5*%
X147190000Y-143600000D03*
X141410000Y-143600000D03*
D35*
X141050000Y-142155000D03*
X141850000Y-142155000D03*
D36*
X143050000Y-142155000D03*
X144050000Y-142155000D03*
X144550000Y-142155000D03*
X145550000Y-142155000D03*
D35*
X146750000Y-142155000D03*
X147550000Y-142155000D03*
X147550000Y-142155000D03*
X146750000Y-142155000D03*
D36*
X146050000Y-142155000D03*
X145050000Y-142155000D03*
X143550000Y-142155000D03*
X142550000Y-142155000D03*
D35*
X141850000Y-142155000D03*
X141050000Y-142155000D03*
D37*
X139980000Y-147250000D03*
D38*
X148620000Y-143070000D03*
X139980000Y-143070000D03*
D37*
X148620000Y-147250000D03*
%TD*%
D39*
%TO.C,Q7*%
X95550000Y-54062500D03*
X93650000Y-54062500D03*
X94600000Y-55937500D03*
%TD*%
D40*
%TO.C,D3*%
X93862500Y-76000000D03*
X95737500Y-76000000D03*
%TD*%
D41*
%TO.C,Q14*%
X153765000Y-56695000D03*
X155035000Y-56695000D03*
X156305000Y-56695000D03*
X152495000Y-56695000D03*
%TD*%
D42*
%TO.C,C4*%
X119600000Y-83150000D03*
X119600000Y-81250000D03*
%TD*%
D24*
%TO.C,C24*%
X163250000Y-114800000D03*
X165150000Y-114800000D03*
%TD*%
D39*
%TO.C,Q12*%
X96350000Y-120862500D03*
X94450000Y-120862500D03*
X95400000Y-122737500D03*
%TD*%
D43*
%TO.C,U4*%
X159725000Y-108895000D03*
X159725000Y-110165000D03*
X159725000Y-111435000D03*
X159725000Y-112705000D03*
X164675000Y-112705000D03*
X164675000Y-111435000D03*
X164675000Y-110165000D03*
X164675000Y-108895000D03*
%TD*%
D39*
%TO.C,Q5*%
X96350000Y-104462500D03*
X94450000Y-104462500D03*
X95400000Y-106337500D03*
%TD*%
D18*
%TO.C,R9*%
X85637500Y-89200000D03*
X91562500Y-89200000D03*
%TD*%
D24*
%TO.C,C20*%
X133450000Y-87800000D03*
X135350000Y-87800000D03*
%TD*%
D44*
%TO.C,C13*%
X142750000Y-83400000D03*
X140850000Y-83400000D03*
%TD*%
D27*
%TO.C,R65*%
X146987500Y-139500000D03*
X148812500Y-139500000D03*
%TD*%
D18*
%TO.C,R27*%
X86037500Y-136600000D03*
X91962500Y-136600000D03*
%TD*%
D40*
%TO.C,D15*%
X129167500Y-71350000D03*
X131042500Y-71350000D03*
%TD*%
D24*
%TO.C,C22*%
X163449159Y-93869520D03*
X165349159Y-93869520D03*
%TD*%
D28*
%TO.C,C35*%
X126705000Y-71400000D03*
X126705000Y-73300000D03*
%TD*%
D16*
%TO.C,R8*%
X100200000Y-88175000D03*
X100200000Y-90000000D03*
%TD*%
D15*
%TO.C,D1*%
X123000000Y-144337500D03*
X123000000Y-142462500D03*
%TD*%
D16*
%TO.C,R5*%
X100200000Y-79887500D03*
X100200000Y-81712500D03*
%TD*%
D18*
%TO.C,R15*%
X85637500Y-105400000D03*
X91562500Y-105400000D03*
%TD*%
D27*
%TO.C,R41*%
X89687500Y-76000000D03*
X91512500Y-76000000D03*
%TD*%
%TO.C,R49*%
X90087500Y-139800000D03*
X91912500Y-139800000D03*
%TD*%
D18*
%TO.C,R30*%
X86237500Y-144400000D03*
X92162500Y-144400000D03*
%TD*%
D45*
%TO.C,R58*%
X124617500Y-75350000D03*
X122792500Y-75350000D03*
%TD*%
D18*
%TO.C,R18*%
X85637500Y-113400000D03*
X91562500Y-113400000D03*
%TD*%
D39*
%TO.C,Q11*%
X96012500Y-62912500D03*
X94112500Y-62912500D03*
X95062500Y-64787500D03*
%TD*%
D46*
%TO.C,U8*%
X148200000Y-67912500D03*
D47*
X146700000Y-68000000D03*
D46*
X145200000Y-67912500D03*
%TD*%
D15*
%TO.C,D17*%
X137100000Y-66037500D03*
X137100000Y-64162500D03*
%TD*%
D17*
%TO.C,TP3*%
X124200000Y-102800000D03*
%TD*%
D28*
%TO.C,C9*%
X109800000Y-108300000D03*
X109800000Y-110200000D03*
%TD*%
D31*
%TO.C,TP10*%
X160600000Y-54125000D03*
X159600000Y-53125000D03*
X157600000Y-51125000D03*
X159600000Y-51125000D03*
X158600000Y-51125000D03*
X160600000Y-51125000D03*
X157600000Y-53125000D03*
D32*
X159100000Y-52625000D03*
D31*
X159600000Y-52125000D03*
X159600000Y-54125000D03*
X160600000Y-53125000D03*
X158600000Y-53125000D03*
X158600000Y-54125000D03*
X158600000Y-52125000D03*
X157600000Y-52125000D03*
X157600000Y-54125000D03*
X160600000Y-52125000D03*
%TD*%
D28*
%TO.C,C8*%
X111800000Y-108300000D03*
X111800000Y-110200000D03*
%TD*%
D33*
%TO.C,R19*%
X97600000Y-55912500D03*
X97600000Y-54087500D03*
%TD*%
D40*
%TO.C,D10*%
X94862500Y-132400000D03*
X96737500Y-132400000D03*
%TD*%
D27*
%TO.C,R55*%
X113992500Y-70950000D03*
X115817500Y-70950000D03*
%TD*%
D28*
%TO.C,C5*%
X117800000Y-108300000D03*
X117800000Y-110200000D03*
%TD*%
D40*
%TO.C,D12*%
X94862500Y-147800000D03*
X96737500Y-147800000D03*
%TD*%
D48*
%TO.C,U3*%
X164124159Y-87662020D03*
X164774159Y-87662020D03*
X165424159Y-87662020D03*
X166074159Y-87662020D03*
X166724159Y-87662020D03*
X167374159Y-87662020D03*
X168024159Y-87662020D03*
X168674159Y-87662020D03*
X168674159Y-81937020D03*
X168024159Y-81937020D03*
X167374159Y-81937020D03*
X166724159Y-81937020D03*
X166074159Y-81937020D03*
X165424159Y-81937020D03*
X164774159Y-81937020D03*
X164124159Y-81937020D03*
%TD*%
D40*
%TO.C,D13*%
X94062500Y-67400000D03*
X95937500Y-67400000D03*
%TD*%
D33*
%TO.C,R16*%
X98000000Y-114112500D03*
X98000000Y-112287500D03*
%TD*%
D42*
%TO.C,C7*%
X109600000Y-83150000D03*
X109600000Y-81250000D03*
%TD*%
D16*
%TO.C,R40*%
X167200000Y-109887500D03*
X167200000Y-111712500D03*
%TD*%
D39*
%TO.C,Q4*%
X96150000Y-96662500D03*
X94250000Y-96662500D03*
X95200000Y-98537500D03*
%TD*%
%TO.C,Q3*%
X95950000Y-88062500D03*
X94050000Y-88062500D03*
X95000000Y-89937500D03*
%TD*%
D33*
%TO.C,R60*%
X135000000Y-66012500D03*
X135000000Y-64187500D03*
%TD*%
D16*
%TO.C,R17*%
X100000000Y-112287500D03*
X100000000Y-114112500D03*
%TD*%
D33*
%TO.C,R13*%
X98200000Y-106312500D03*
X98200000Y-104487500D03*
%TD*%
D39*
%TO.C,Q6*%
X96150000Y-112262500D03*
X94250000Y-112262500D03*
X95200000Y-114137500D03*
%TD*%
D49*
%TO.C,X1*%
X137950000Y-86800000D03*
X141650000Y-86800000D03*
%TD*%
D33*
%TO.C,R10*%
X98200000Y-98512500D03*
X98200000Y-96687500D03*
%TD*%
D50*
%TO.C,J4*%
X162700000Y-101400000D03*
D51*
X165240000Y-101400000D03*
X167780000Y-101400000D03*
X170320000Y-101400000D03*
X172860000Y-101400000D03*
%TD*%
D40*
%TO.C,D6*%
X94262500Y-101000000D03*
X96137500Y-101000000D03*
%TD*%
D27*
%TO.C,R45*%
X87887500Y-108600000D03*
X89712500Y-108600000D03*
%TD*%
D40*
%TO.C,D11*%
X95125000Y-139800000D03*
X97000000Y-139800000D03*
%TD*%
D42*
%TO.C,C34*%
X115505000Y-69100000D03*
X115505000Y-67200000D03*
%TD*%
D31*
%TO.C,TP9*%
X152600000Y-53225000D03*
X153600000Y-54225000D03*
X151600000Y-53225000D03*
X151600000Y-54225000D03*
X150600000Y-52225000D03*
X150600000Y-51225000D03*
X152600000Y-54225000D03*
X150600000Y-54225000D03*
X153600000Y-53225000D03*
X150600000Y-53225000D03*
X153600000Y-51225000D03*
X152600000Y-52225000D03*
X152600000Y-51225000D03*
X153600000Y-52225000D03*
X151600000Y-52225000D03*
D32*
X152100000Y-52725000D03*
D31*
X151600000Y-51225000D03*
%TD*%
D28*
%TO.C,C12*%
X113800000Y-108300000D03*
X113800000Y-110200000D03*
%TD*%
D45*
%TO.C,R57*%
X130817500Y-75350000D03*
X128992500Y-75350000D03*
%TD*%
D42*
%TO.C,C16*%
X127800000Y-95350000D03*
X127800000Y-93450000D03*
%TD*%
D27*
%TO.C,R43*%
X87687500Y-92400000D03*
X89512500Y-92400000D03*
%TD*%
D45*
%TO.C,R66*%
X141612500Y-139500000D03*
X139787500Y-139500000D03*
%TD*%
D39*
%TO.C,Q10*%
X96750000Y-143462500D03*
X94850000Y-143462500D03*
X95800000Y-145337500D03*
%TD*%
D16*
%TO.C,R11*%
X100200000Y-96600000D03*
X100200000Y-98425000D03*
%TD*%
D18*
%TO.C,R21*%
X85237500Y-55000000D03*
X91162500Y-55000000D03*
%TD*%
D33*
%TO.C,R34*%
X98200000Y-122712500D03*
X98200000Y-120887500D03*
%TD*%
D17*
%TO.C,TP8*%
X155600000Y-70000000D03*
%TD*%
D42*
%TO.C,C36*%
X126105000Y-69500000D03*
X126105000Y-67600000D03*
%TD*%
D18*
%TO.C,R24*%
X86237500Y-129000000D03*
X92162500Y-129000000D03*
%TD*%
D52*
%TO.C,Q13*%
X143695000Y-58495000D03*
X143695000Y-61035000D03*
X143695000Y-59765000D03*
X143695000Y-62305000D03*
%TD*%
D18*
%TO.C,R36*%
X85637500Y-121800000D03*
X91562500Y-121800000D03*
%TD*%
D17*
%TO.C,TP4*%
X124200000Y-88000000D03*
%TD*%
D53*
%TO.C,U1*%
X111100000Y-90450000D03*
X111100000Y-90950000D03*
X111100000Y-91450000D03*
X111100000Y-91950000D03*
X111100000Y-92450000D03*
X111100000Y-92950000D03*
X111100000Y-93450000D03*
X111100000Y-93950000D03*
X111100000Y-94450000D03*
X111100000Y-94950000D03*
X111100000Y-95450000D03*
X111100000Y-95950000D03*
X111100000Y-96450000D03*
X111100000Y-96950000D03*
X111100000Y-97450000D03*
X111100000Y-97950000D03*
X111100000Y-98450000D03*
X111100000Y-98950000D03*
X111100000Y-99450000D03*
X111100000Y-99950000D03*
X111100000Y-100450000D03*
X111100000Y-100950000D03*
X111100000Y-101450000D03*
X111100000Y-101950000D03*
X118100000Y-101950000D03*
X118100000Y-101450000D03*
X118100000Y-100950000D03*
X118100000Y-100450000D03*
X118100000Y-99950000D03*
X118100000Y-99450000D03*
X118100000Y-98950000D03*
X118100000Y-98450000D03*
X118100000Y-97950000D03*
X118100000Y-97450000D03*
X118100000Y-96950000D03*
X118100000Y-96450000D03*
X118100000Y-95950000D03*
X118100000Y-95450000D03*
X118100000Y-94950000D03*
X118100000Y-94450000D03*
X118100000Y-93950000D03*
X118100000Y-93450000D03*
X118100000Y-92950000D03*
X118100000Y-92450000D03*
X118100000Y-91950000D03*
X118100000Y-91450000D03*
X118100000Y-90950000D03*
X118100000Y-90450000D03*
%TD*%
D24*
%TO.C,C21*%
X133450000Y-85800000D03*
X135350000Y-85800000D03*
%TD*%
D16*
%TO.C,R38*%
X125000000Y-138887500D03*
X125000000Y-140712500D03*
%TD*%
D40*
%TO.C,D5*%
X94062500Y-92400000D03*
X95937500Y-92400000D03*
%TD*%
D33*
%TO.C,R25*%
X98800000Y-137512500D03*
X98800000Y-135687500D03*
%TD*%
D17*
%TO.C,TP5*%
X124200000Y-90600000D03*
%TD*%
D54*
%TO.C,L2*%
X123505000Y-63950000D03*
X127105000Y-63950000D03*
%TD*%
D27*
%TO.C,R48*%
X90487500Y-132200000D03*
X92312500Y-132200000D03*
%TD*%
D42*
%TO.C,C10*%
X119800000Y-110200000D03*
X119800000Y-108300000D03*
%TD*%
D55*
%TO.C,U2*%
X141150000Y-91725000D03*
X140650000Y-91725000D03*
X140150000Y-91725000D03*
X139650000Y-91725000D03*
X139150000Y-91725000D03*
X138650000Y-91725000D03*
X138150000Y-91725000D03*
X137650000Y-91725000D03*
X137150000Y-91725000D03*
X136650000Y-91725000D03*
X136150000Y-91725000D03*
X135650000Y-91725000D03*
X135150000Y-91725000D03*
X134650000Y-91725000D03*
X134150000Y-91725000D03*
X133650000Y-91725000D03*
D56*
X131725000Y-93650000D03*
X131725000Y-94150000D03*
X131725000Y-94650000D03*
X131725000Y-95150000D03*
X131725000Y-95650000D03*
X131725000Y-96150000D03*
X131725000Y-96650000D03*
X131725000Y-97150000D03*
X131725000Y-97650000D03*
X131725000Y-98150000D03*
X131725000Y-98650000D03*
X131725000Y-99150000D03*
X131725000Y-99650000D03*
X131725000Y-100150000D03*
X131725000Y-100650000D03*
X131725000Y-101150000D03*
D55*
X133650000Y-103075000D03*
X134150000Y-103075000D03*
X134650000Y-103075000D03*
X135150000Y-103075000D03*
X135650000Y-103075000D03*
X136150000Y-103075000D03*
X136650000Y-103075000D03*
X137150000Y-103075000D03*
X137650000Y-103075000D03*
X138150000Y-103075000D03*
X138650000Y-103075000D03*
X139150000Y-103075000D03*
X139650000Y-103075000D03*
X140150000Y-103075000D03*
X140650000Y-103075000D03*
X141150000Y-103075000D03*
D56*
X143075000Y-101150000D03*
X143075000Y-100650000D03*
X143075000Y-100150000D03*
X143075000Y-99650000D03*
X143075000Y-99150000D03*
X143075000Y-98650000D03*
X143075000Y-98150000D03*
X143075000Y-97650000D03*
X143075000Y-97150000D03*
X143075000Y-96650000D03*
X143075000Y-96150000D03*
X143075000Y-95650000D03*
X143075000Y-95150000D03*
X143075000Y-94650000D03*
X143075000Y-94150000D03*
X143075000Y-93650000D03*
%TD*%
D42*
%TO.C,C17*%
X127800000Y-101950000D03*
X127800000Y-100050000D03*
%TD*%
D16*
%TO.C,R23*%
X100600000Y-128087500D03*
X100600000Y-129912500D03*
%TD*%
D27*
%TO.C,R56*%
X113992500Y-72950000D03*
X115817500Y-72950000D03*
%TD*%
D40*
%TO.C,D9*%
X93662500Y-58600000D03*
X95537500Y-58600000D03*
%TD*%
D33*
%TO.C,R28*%
X98600000Y-145312500D03*
X98600000Y-143487500D03*
%TD*%
%TO.C,R22*%
X98600000Y-129912500D03*
X98600000Y-128087500D03*
%TD*%
D27*
%TO.C,R52*%
X89887500Y-125000000D03*
X91712500Y-125000000D03*
%TD*%
%TO.C,R47*%
X89487500Y-58600000D03*
X91312500Y-58600000D03*
%TD*%
D57*
%TO.C,J2*%
X172750000Y-110200000D03*
D58*
X172750000Y-112200000D03*
%TD*%
D28*
%TO.C,C14*%
X148400000Y-92250000D03*
X148400000Y-94150000D03*
%TD*%
D33*
%TO.C,R4*%
X98200000Y-81712500D03*
X98200000Y-79887500D03*
%TD*%
D39*
%TO.C,Q9*%
X96950000Y-135662500D03*
X95050000Y-135662500D03*
X96000000Y-137537500D03*
%TD*%
D16*
%TO.C,R37*%
X123000000Y-138887500D03*
X123000000Y-140712500D03*
%TD*%
D33*
%TO.C,R1*%
X97800000Y-73512500D03*
X97800000Y-71687500D03*
%TD*%
D27*
%TO.C,R39*%
X163486659Y-91669520D03*
X165311659Y-91669520D03*
%TD*%
%TO.C,R46*%
X89887500Y-116600000D03*
X91712500Y-116600000D03*
%TD*%
D42*
%TO.C,C3*%
X117600000Y-83150000D03*
X117600000Y-81250000D03*
%TD*%
D39*
%TO.C,Q2*%
X96212500Y-79912500D03*
X94312500Y-79912500D03*
X95262500Y-81787500D03*
%TD*%
D40*
%TO.C,D8*%
X94325000Y-116600000D03*
X96200000Y-116600000D03*
%TD*%
D39*
%TO.C,Q8*%
X96750000Y-128062500D03*
X94850000Y-128062500D03*
X95800000Y-129937500D03*
%TD*%
D21*
%TO.C,J3*%
X134600000Y-45800000D03*
D22*
X127400000Y-45800000D03*
%TD*%
D18*
%TO.C,R12*%
X85637500Y-97600000D03*
X91562500Y-97600000D03*
%TD*%
D42*
%TO.C,C1*%
X113600000Y-83150000D03*
X113600000Y-81250000D03*
%TD*%
%TO.C,C23*%
X162299159Y-88819520D03*
X162299159Y-86919520D03*
%TD*%
D28*
%TO.C,C6*%
X115800000Y-108300000D03*
X115800000Y-110200000D03*
%TD*%
D33*
%TO.C,R7*%
X98200000Y-89912500D03*
X98200000Y-88087500D03*
%TD*%
D42*
%TO.C,C25*%
X157200000Y-111750000D03*
X157200000Y-109850000D03*
%TD*%
D16*
%TO.C,R26*%
X100800000Y-135687500D03*
X100800000Y-137512500D03*
%TD*%
D40*
%TO.C,D7*%
X94462500Y-108600000D03*
X96337500Y-108600000D03*
%TD*%
D33*
%TO.C,R31*%
X97800000Y-64712500D03*
X97800000Y-62887500D03*
%TD*%
D28*
%TO.C,C39*%
X150400000Y-67750000D03*
X150400000Y-69650000D03*
%TD*%
D27*
%TO.C,R44*%
X87887500Y-101000000D03*
X89712500Y-101000000D03*
%TD*%
D40*
%TO.C,D4*%
X94262500Y-84000000D03*
X96137500Y-84000000D03*
%TD*%
D59*
%TO.C,U9*%
X139762500Y-54150000D03*
X139762500Y-55100000D03*
X139762500Y-56050000D03*
X142037500Y-56050000D03*
X142037500Y-54150000D03*
%TD*%
D39*
%TO.C,Q1*%
X95750000Y-71662500D03*
X93850000Y-71662500D03*
X94800000Y-73537500D03*
%TD*%
D44*
%TO.C,C18*%
X142150000Y-107600000D03*
X140250000Y-107600000D03*
%TD*%
D27*
%TO.C,R50*%
X90375000Y-147600000D03*
X92200000Y-147600000D03*
%TD*%
D42*
%TO.C,C2*%
X115600000Y-83150000D03*
X115600000Y-81250000D03*
%TD*%
D16*
%TO.C,R29*%
X100600000Y-143487500D03*
X100600000Y-145312500D03*
%TD*%
D28*
%TO.C,C19*%
X150400000Y-92250000D03*
X150400000Y-94150000D03*
%TD*%
D18*
%TO.C,R6*%
X85637500Y-80600000D03*
X91562500Y-80600000D03*
%TD*%
D28*
%TO.C,C37*%
X128105000Y-67600000D03*
X128105000Y-69500000D03*
%TD*%
D40*
%TO.C,D14*%
X94462500Y-125000000D03*
X96337500Y-125000000D03*
%TD*%
D42*
%TO.C,C11*%
X111600000Y-83150000D03*
X111600000Y-81250000D03*
%TD*%
D31*
%TO.C,TP6*%
X128600000Y-51975000D03*
X125600000Y-51975000D03*
X126600000Y-53975000D03*
D32*
X127100000Y-52475000D03*
D31*
X126600000Y-52975000D03*
X125600000Y-52975000D03*
X128600000Y-50975000D03*
X127600000Y-51975000D03*
X128600000Y-52975000D03*
X127600000Y-52975000D03*
X126600000Y-51975000D03*
X127600000Y-53975000D03*
X126600000Y-50975000D03*
X127600000Y-50975000D03*
X125600000Y-50975000D03*
X125600000Y-53975000D03*
X128600000Y-53975000D03*
%TD*%
M02*
